<svg xmlns="http://www.w3.org/2000/svg" xmlns:xlink="http://www.w3.org/1999/xlink" width="997.04388" height="997.04388">
  <defs>
    <radialGradient xlink:href="#a" id="m" cx="499.63211" cy="329.96704" fx="499.63211" fy="329.96704" r="59.383633" gradientUnits="userSpaceOnUse"/>
    <radialGradient xlink:href="#a" id="l" gradientUnits="userSpaceOnUse" cx="499.63211" cy="329.96704" fx="499.63211" fy="329.96704" r="59.383633"/>
    <radialGradient xlink:href="#d" id="s" cx="159.15332" cy="633.96417" fx="159.15332" fy="633.96417" r="32.366886" gradientTransform="matrix(.7238 0 0 .77856 -87.9034 171.28441)" gradientUnits="userSpaceOnUse"/>
    <radialGradient xlink:href="#d" id="v" gradientUnits="userSpaceOnUse" gradientTransform="matrix(.57284 .74484 -.8012 .61618 475.43905 184.48635)" cx="159.15332" cy="633.96417" fx="159.15332" fy="633.96417" r="32.366886"/>
    <radialGradient xlink:href="#d" id="D" gradientUnits="userSpaceOnUse" gradientTransform="matrix(-.57284 -.74484 .8012 -.61618 -286.12059 1308.3589)" cx="159.15332" cy="633.96417" fx="159.15332" fy="633.96417" r="32.366886"/>
    <radialGradient xlink:href="#d" id="y" gradientUnits="userSpaceOnUse" gradientTransform="matrix(-.34669 -.45078 .48489 -.37292 -254.59772 1102.2184)" cx="159.15332" cy="633.96417" fx="159.15332" fy="633.96417" r="32.366886"/>
    <radialGradient xlink:href="#d" id="z" gradientUnits="userSpaceOnUse" gradientTransform="matrix(.38835 .50496 -.54316 .41774 315.20432 478.15378)" cx="159.15332" cy="633.96417" fx="159.15332" fy="633.96417" r="32.366886"/>
    <radialGradient xlink:href="#d" id="A" gradientUnits="userSpaceOnUse" gradientTransform="matrix(.57284 .74484 -.8012 .61618 453.05559 278.57275)" cx="159.15332" cy="633.96417" fx="159.15332" fy="633.96417" r="32.366886"/>
    <radialGradient xlink:href="#d" id="w" gradientUnits="userSpaceOnUse" gradientTransform="matrix(-.57284 -.74484 .8012 -.61618 -312.57599 1359.0062)" cx="159.15332" cy="633.96417" fx="159.15332" fy="633.96417" r="32.366886"/>
    <radialGradient xlink:href="#d" id="B" gradientUnits="userSpaceOnUse" gradientTransform="matrix(-.34987 -.45493 .48934 -.37635 -177.56954 1158.0091)" cx="159.15332" cy="633.96417" fx="159.15332" fy="633.96417" r="32.366886"/>
    <radialGradient xlink:href="#f" id="H" gradientUnits="userSpaceOnUse" gradientTransform="matrix(1.39201 0 0 1.39201 -304.69494 -293.21054)" cx="778.46167" cy="745.96442" fx="778.46167" fy="745.96442" r="15.462182"/>
    <radialGradient xlink:href="#f" id="F" gradientUnits="userSpaceOnUse" gradientTransform="matrix(1.39201 0 0 1.39201 -304.69494 -293.21054)" cx="778.46167" cy="745.96442" fx="778.46167" fy="745.96442" r="15.462182"/>
    <radialGradient xlink:href="#f" id="G" gradientUnits="userSpaceOnUse" gradientTransform="matrix(1.39201 0 0 1.39201 -304.69494 -293.21054)" cx="778.46167" cy="745.96442" fx="778.46167" fy="745.96442" r="15.462182"/>
    <radialGradient xlink:href="#f" id="I" gradientUnits="userSpaceOnUse" gradientTransform="matrix(1.39201 0 0 1.39201 -304.69494 -293.21054)" cx="778.46167" cy="745.96442" fx="778.46167" fy="745.96442" r="15.462182"/>
    <radialGradient xlink:href="#f" id="J" gradientUnits="userSpaceOnUse" gradientTransform="matrix(1.39201 0 0 1.39201 -304.69494 -293.21054)" cx="778.46167" cy="745.96442" fx="778.46167" fy="745.96442" r="15.462182"/>
    <radialGradient xlink:href="#f" id="K" gradientUnits="userSpaceOnUse" gradientTransform="matrix(1.39201 0 0 1.39201 -304.69494 -293.21054)" cx="778.46167" cy="745.96442" fx="778.46167" fy="745.96442" r="15.462182"/>
    <radialGradient xlink:href="#f" id="L" gradientUnits="userSpaceOnUse" gradientTransform="matrix(1.39201 0 0 1.39201 -304.69494 -293.21054)" cx="778.46167" cy="745.96442" fx="778.46167" fy="745.96442" r="15.462182"/>
    <radialGradient xlink:href="#f" id="M" gradientUnits="userSpaceOnUse" gradientTransform="matrix(1.39201 0 0 1.39201 -304.69494 -293.21054)" cx="778.46167" cy="745.96442" fx="778.46167" fy="745.96442" r="15.462182"/>
    <radialGradient xlink:href="#f" id="N" gradientUnits="userSpaceOnUse" gradientTransform="matrix(1.39201 0 0 1.39201 -304.69494 -293.21054)" cx="778.46167" cy="745.96442" fx="778.46167" fy="745.96442" r="15.462182"/>
    <radialGradient xlink:href="#f" id="O" gradientUnits="userSpaceOnUse" gradientTransform="matrix(1.39201 0 0 1.39201 -304.69494 -293.21054)" cx="778.46167" cy="745.96442" fx="778.46167" fy="745.96442" r="15.462182"/>
    <radialGradient xlink:href="#f" id="P" gradientUnits="userSpaceOnUse" gradientTransform="matrix(1.39201 0 0 1.39201 -304.69494 -293.21054)" cx="778.46167" cy="745.96442" fx="778.46167" fy="745.96442" r="15.462182"/>
    <radialGradient xlink:href="#f" id="Q" gradientUnits="userSpaceOnUse" gradientTransform="matrix(1.39201 0 0 1.39201 -304.69494 -293.21054)" cx="778.46167" cy="745.96442" fx="778.46167" fy="745.96442" r="15.462182"/>
    <radialGradient xlink:href="#f" id="R" gradientUnits="userSpaceOnUse" gradientTransform="matrix(1.39201 0 0 1.39201 -304.69494 -293.21054)" cx="778.46167" cy="745.96442" fx="778.46167" fy="745.96442" r="15.462182"/>
    <radialGradient xlink:href="#f" id="S" gradientUnits="userSpaceOnUse" gradientTransform="matrix(1.39201 0 0 1.39201 -304.69494 -293.21054)" cx="778.46167" cy="745.96442" fx="778.46167" fy="745.96442" r="15.462182"/>
    <radialGradient xlink:href="#f" id="T" gradientUnits="userSpaceOnUse" gradientTransform="matrix(1.39201 0 0 1.39201 -304.69494 -293.21054)" cx="778.46167" cy="745.96442" fx="778.46167" fy="745.96442" r="15.462182"/>
    <radialGradient xlink:href="#f" id="U" gradientUnits="userSpaceOnUse" gradientTransform="matrix(1.39201 0 0 1.39201 -304.69494 -293.21054)" cx="778.46167" cy="745.96442" fx="778.46167" fy="745.96442" r="15.462182"/>
    <radialGradient xlink:href="#f" id="V" gradientUnits="userSpaceOnUse" gradientTransform="matrix(1.39201 0 0 1.39201 -304.69494 -293.21054)" cx="778.46167" cy="745.96442" fx="778.46167" fy="745.96442" r="15.462182"/>
    <radialGradient xlink:href="#f" id="W" gradientUnits="userSpaceOnUse" gradientTransform="matrix(1.39201 0 0 1.39201 -304.69494 -293.21054)" cx="778.46167" cy="745.96442" fx="778.46167" fy="745.96442" r="15.462182"/>
    <radialGradient xlink:href="#f" id="X" gradientUnits="userSpaceOnUse" gradientTransform="matrix(1.39201 0 0 1.39201 -304.69494 -293.21054)" cx="778.46167" cy="745.96442" fx="778.46167" fy="745.96442" r="15.462182"/>
    <radialGradient xlink:href="#f" id="Y" gradientUnits="userSpaceOnUse" gradientTransform="matrix(1.39201 0 0 1.39201 -304.69494 -293.21054)" cx="778.46167" cy="745.96442" fx="778.46167" fy="745.96442" r="15.462182"/>
    <linearGradient id="k">
      <stop offset="0" style="stop-color:#faf407;stop-opacity:1"/>
      <stop offset="1" style="stop-color:#d98212;stop-opacity:1"/>
    </linearGradient>
    <linearGradient id="j">
      <stop offset="0" style="stop-color:#faf407;stop-opacity:1"/>
      <stop offset="1" style="stop-color:#d98212;stop-opacity:1"/>
    </linearGradient>
    <linearGradient id="h">
      <stop style="stop-color:#ee9f42;stop-opacity:1" offset="0"/>
      <stop style="stop-color:#f3bd0d;stop-opacity:1" offset="1"/>
    </linearGradient>
    <linearGradient id="g">
      <stop style="stop-color:#fbc610;stop-opacity:1" offset="0"/>
      <stop offset=".5" style="stop-color:#f8f91d;stop-opacity:1"/>
      <stop style="stop-color:#fbc610;stop-opacity:1" offset="1"/>
    </linearGradient>
    <linearGradient id="f">
      <stop offset="0" style="stop-color:#ec2c00;stop-opacity:1"/>
      <stop offset="1" style="stop-color:#faf407;stop-opacity:1"/>
    </linearGradient>
    <linearGradient id="e">
      <stop style="stop-color:#faf20d;stop-opacity:1" offset="0"/>
      <stop style="stop-color:#fbc610;stop-opacity:1" offset="1"/>
    </linearGradient>
    <linearGradient id="d">
      <stop style="stop-color:#faf407;stop-opacity:1" offset="0"/>
      <stop style="stop-color:#ec4e00;stop-opacity:1" offset="1"/>
    </linearGradient>
    <linearGradient id="c">
      <stop style="stop-color:#489273;stop-opacity:1" offset="0"/>
      <stop style="stop-color:#316e61;stop-opacity:1" offset="1"/>
    </linearGradient>
    <linearGradient id="b">
      <stop style="stop-color:#48946b;stop-opacity:1" offset="0"/>
      <stop style="stop-color:#476b64;stop-opacity:1" offset="1"/>
    </linearGradient>
    <linearGradient id="i">
      <stop style="stop-color:#17a052;stop-opacity:1" offset="0"/>
      <stop style="stop-color:#58715a;stop-opacity:1" offset="1"/>
    </linearGradient>
    <linearGradient id="a">
      <stop style="stop-color:#faf407;stop-opacity:1" offset="0"/>
      <stop offset=".65753645" style="stop-color:#faf407;stop-opacity:1"/>
      <stop style="stop-color:#d95c12;stop-opacity:1" offset="1"/>
    </linearGradient>
    <linearGradient xlink:href="#b" id="r" x1="231.30157" y1="640.51666" x2="233.00879" y2="690.77771" gradientUnits="userSpaceOnUse" gradientTransform="translate(-132.14485 30.897179)"/>
    <linearGradient xlink:href="#c" id="t" x1="89.854767" y1="703.32452" x2="136.48166" y2="703.32452" gradientUnits="userSpaceOnUse" gradientTransform="translate(-132.14485 30.89718)"/>
    <linearGradient xlink:href="#e" id="u" x1="176.659" y1="721.73108" x2="252.05753" y2="721.73108" gradientUnits="userSpaceOnUse" gradientTransform="translate(-132.14485 30.89718)"/>
    <linearGradient xlink:href="#e" id="E" gradientUnits="userSpaceOnUse" gradientTransform="matrix(-1 0 0 1 855.6886 30.89718)" x1="176.659" y1="721.73108" x2="252.05753" y2="721.73108"/>
    <linearGradient xlink:href="#g" id="C" x1="128.51997" y1="839.12024" x2="601.83478" y2="839.12024" gradientUnits="userSpaceOnUse"/>
    <linearGradient xlink:href="#h" id="q" gradientUnits="userSpaceOnUse" gradientTransform="translate(-132.14485 30.89718)" x1="292.27036" y1="873.63116" x2="315.56039" y2="873.63116"/>
    <linearGradient xlink:href="#h" id="x" gradientUnits="userSpaceOnUse" gradientTransform="matrix(-1 0 0 1 862.55788 31.122)" x1="292.27036" y1="873.63116" x2="315.56039" y2="873.63116"/>
    <linearGradient xlink:href="#i" id="p" gradientUnits="userSpaceOnUse" gradientTransform="translate(-132.14485 30.89718)" x1="499.43372" y1="549.04932" x2="499.43372" y2="656.52563"/>
    <linearGradient xlink:href="#j" id="n" x1="220.08849" y1="485.07327" x2="120.17966" y2="485.07327" gradientUnits="userSpaceOnUse"/>
    <linearGradient xlink:href="#k" id="o" x1="514.83112" y1="468.67957" x2="615.39453" y2="468.67957" gradientUnits="userSpaceOnUse"/>
  </defs>
  <path style="fill:#fff;stroke:#000;stroke-width:2.83033562;stroke-linecap:butt;stroke-linejoin:round;stroke-miterlimit:4;stroke-opacity:1;stroke-dasharray:none;stroke-dashoffset:0" d="M983.642 528.39081c0 258.9742-209.94007 468.91427-468.91428 468.91427-258.9742 0-468.914274-209.94007-468.914274-468.91427 0-258.97421 209.940074-468.914278 468.914274-468.914278 258.97421 0 468.91428 209.940068 468.91428 468.914278z" transform="matrix(-1.05994 0 0 -1.05994 1044.11207 1058.586945)"/>
  <path transform="matrix(1.00278 0 0 1.00278 -17.62724 -31.3355185)" d="M983.642 528.39081c0 258.9742-209.94007 468.91427-468.91428 468.91427-258.9742 0-468.914274-209.94007-468.914274-468.91427 0-258.97421 209.940074-468.914278 468.914274-468.914278 258.97421 0 468.91428 209.940068 468.91428 468.914278z" style="fill:#281870;fill-opacity:1;stroke:none"/>
  <path style="fill:none;stroke:#fff;stroke-width:7.16875935;stroke-linecap:butt;stroke-linejoin:round;stroke-miterlimit:4;stroke-opacity:1;stroke-dasharray:none;stroke-dashoffset:0" d="M983.642 528.39081c0 258.9742-209.94007 468.91427-468.91428 468.91427-258.9742 0-468.914274-209.94007-468.914274-468.91427 0-258.97421 209.940074-468.914278 468.914274-468.914278 258.97421 0 468.91428 209.940068 468.91428 468.914278z" transform="matrix(.97646 0 0 .97646 -4.08155 -17.430268)"/>
  <path style="fill:none;stroke:#fff;stroke-width:2.5;stroke-linecap:butt;stroke-linejoin:miter;stroke-miterlimit:4;stroke-opacity:1;stroke-dasharray:none" d="M506.1337 195.91337c73.11079 28.45894 179.65271 26.38088 223.58497 92.84629 44.60139 66.01825 1.9208 163.65977.24427 242.13755 1.67653 78.47779 44.35712 176.1193-.24428 242.13755-43.93225 66.4654-150.47417 64.38735-223.58496 92.84628-71.82064 31.57362-145.68775 108.37955-223.75068 92.4462-78.2199-15.144-117.08314-114.36671-171.38983-171.04437-56.677656-54.30668-155.900366-93.16993-171.044372-171.38983C-75.984522 537.8301.82140024 463.96301 32.395021 392.14236c28.458923-73.11077 26.380883-179.6527 92.846279-223.58495 66.01825-44.6014 163.65976-1.92081 242.13755-.24428 78.4778-1.67653 176.11931-44.35712 242.13756.24428 66.4654 43.93225 64.38736 150.47418 92.84628 223.58496 31.57362 71.82064 108.37955 145.68773 92.4462 223.75067-15.144 78.2199-114.36671 117.08315-171.04438 171.38983-54.30668 56.67766-93.16992 155.90037-171.38982 171.04437-78.06293 15.93335-151.93004-60.87258-223.75068-92.4462-73.11079-28.45893-179.652706-26.38088-223.5849627-92.84628-44.6013943-66.01825-1.920801-163.65976-.2442704-242.13755-1.676533-78.47778-44.3571229-176.1193.244269-242.13755C48.971305 222.29425 155.51322 224.37231 228.62401 195.91337c71.82065-31.57362 145.68775-108.37954 223.75068-92.4462 78.2199 15.14401 117.08316 114.36672 171.38983 171.04438 56.67767 54.30669 155.90038 93.16993 171.04438 171.38983 15.93334 78.06294-60.87259 151.93004-92.44621 223.75068-28.45893 73.11078-26.38088 179.65269-92.84629 223.58495-66.01824 44.6014-163.65976 1.92081-242.13755.24428-78.47778 1.67653-176.1193 44.35712-242.13755-.24428-66.465397-43.93226-64.387343-150.47417-92.846276-223.58495C.82140393 597.83142-75.984526 523.96432-60.051185 445.90138c15.144001-78.2199 114.366712-117.08314 171.044375-171.38983 54.30667-56.67766 93.16993-155.90037 171.38983-171.04438 78.06293-15.93334 151.93003 60.87258 223.75068 92.4462zM59.217711 222.73608C3.7444039 277.14707 26.091414 381.33973 11.865167 459.62595c-17.0490098 77.72035-77.830931 165.2478-47.115039 238.04554C-5.4935161 770.86667 99.377054 789.77864 166.3891 832.67974c65.41621 45.29724 123.28981 134.7743 200.98976 134.02313 77.69994.75117 135.57354-88.72589 200.98974-134.02313 67.01206-42.9011 171.88263-61.81307 201.63898-135.00825 30.7159-72.79774-30.06602-160.32519-47.11503-238.04554-14.22625-78.28622 8.12076-182.47888-47.35255-236.88987-54.411-55.47332-158.60365-33.1263-236.88989-47.35256-77.72035-17.04901-165.24781-77.830928-238.04554-47.11503-73.19518 29.75635-92.10716 134.62692-135.008246 201.63897-45.297247 65.41621-134.774306 123.28981-134.02313 200.98975-.75117 77.69994 88.72589 135.57355 134.023133 200.98975 42.901103 67.01205 61.813063 171.88261 135.008243 201.63897 72.79773 30.7159 160.3252-30.06602 238.04554-47.11503 78.28623-14.22626 182.47889 8.12076 236.88988-47.35256 55.47332-54.41099 33.1263-158.60364 47.35256-236.88988 17.04901-77.72033 77.83093-165.24779 47.11503-238.04553-29.75635-73.19519-134.62691-92.10714-201.63897-135.00825C502.95242 183.81744 445.0788 94.340378 367.37885 95.091548c-77.69994-.75117-135.57356 88.725892-200.98975 134.023132C99.377047 272.01579-5.4935203 290.92774-35.249874 364.12293c-30.715892 72.79774 30.0660279 160.3252 47.11504 238.04553C26.091423 680.4547 3.7444021 784.64735 59.21772 839.05835c54.41099 55.47331 158.60365 33.12629 236.88988 47.35255 77.72034 17.04901 165.24781 77.83093 238.04554 47.11503 73.19518-29.75636 92.10714-134.62692 135.00824-201.63897 45.29725-65.4162 134.77431-123.28981 134.02314-200.98975.75118-77.69994-88.72588-135.57354-134.02313-200.98975-42.90109-67.01205-61.81307-171.88262-135.00825-201.63897-72.79773-30.715898-160.32519 30.06602-238.04554 47.11503-78.28624 14.22626-182.47889-8.12076-236.889889 47.35256z" transform="translate(130.67384 -32.375455)"/>
  <g style="font-size:85px;font-style:normal;font-variant:normal;font-weight:700;font-stretch:normal;line-height:125%;letter-spacing:-.77999997px;word-spacing:0;fill:#000;fill-opacity:1;stroke:none;font-family:Serif;-inkscape-font-specification:Serif Bold">
    <path d="m755.92071 463.04276-15.59001 2.3857c-3.0086.46037-4.8744.93483-5.59739 1.42338-.723.4885-1.24583 1.2333-1.56848 2.2344-.32267 1.00106-.28938 2.77342.0999 5.31707l-1.51798.2323-4.35704-28.47227 1.51798-.23229c.39343 2.57098.89957 4.27797 1.51842 5.12099.61885.843 1.33944 1.39052 2.16177 1.64258.82232.25203 2.73779.14786 5.74639-.31253l36.10316-5.52478c3.00855-.4604 4.87434-.93486 5.59739-1.42338.72295-.48852 1.24577-1.23332 1.56849-2.2344.3226-1.00108.28931-2.77344-.0999-5.31707l1.51797-.2323 3.95524 25.84659c1.02956 6.72829 1.31797 11.72259.86524 14.98293-.45285 3.26027-1.77987 6.06653-3.98107 8.4188-2.2013 2.35219-4.98401 3.78571-8.34811 4.30056-4.10268.62777-7.7202-.33018-10.85257-2.87386-1.98459-1.62775-3.6603-4.07249-5.02713-7.33421l-16.78441 16.25625c-2.16637 2.12291-3.49391 3.59966-3.98261 4.43027-.67628 1.25108-.94244 2.6214-.79847 4.11096l-1.51797.23229-2.68077-17.51824 22.61071-21.8084zm27.2825-4.17497-24.36964 3.72922.35786 2.3385c.58174 3.80175 1.36575 6.59287 2.35203 8.37338.9862 1.78045 2.4714 3.07171 4.4556 3.87377 1.98411.80199 4.43946.97909 7.36605.53128 4.23934-.64878 7.21929-2.11948 8.93986-4.41211 1.72047-2.29268 2.2438-5.64076 1.57-10.04423zm-55.81461-15.63037-1.47681.421-8.06729-28.29884 1.47681-.421.51203 1.79611c.44755 1.56994 1.08726 2.75423 1.91914 3.55286.56975.58564 1.36008.93576 2.37099 1.05039.72206.11064 2.44015-.2209 5.1543-.99463l35.60305-10.14953c2.7673-.78889 4.45517-1.42831 5.06362-1.91824.60834-.48992 1.04492-1.25455 1.30974-2.29388.2647-1.03931.1809-2.31734-.25143-3.83407l-.51203-1.79612 1.47681-.421 8.06728 28.29884-1.4768.421-.51203-1.79612c-.44761-1.56995-1.08732-2.75423-1.91914-3.55286-.56981-.58564-1.36393-.94908-2.38237-1.0903-.72212-.11065-2.44021.22089-5.15429.99463l-35.60306 10.14953c-2.76736.78888-4.45334 1.43495-5.05793 1.9382-.60462.50321-1.0393 1.27449-1.30405 2.31384-.26477 1.0393-.18096 2.31732.25143 3.83407zm-32.64323-84.58417 1.41185-.60407.73468 1.71711c.64216 1.50087 1.36997 2.55129 2.18344 3.15125.81346.59996 1.70885.91658 2.68615.94987.63216.00038 2.28377-.57085 4.95484-1.71368l34.03688-14.563c2.64557-1.13194 4.23921-1.97933 4.78094-2.54215.54163-.5628.87818-1.37642 1.00967-2.44087.13138-1.06442-.1131-2.32164-.73344-3.77166l-.73469-1.7171 1.41185-.60408 9.91002 23.16187c2.64479 6.18158 3.93317 11.514 3.86514 15.99729-.0906 5.48598-1.71294 10.31074-4.86715 14.47428-3.15432 4.16348-7.36435 7.37174-12.63009 9.6248-3.63777 1.55639-7.23964 2.40529-10.80562 2.5467-3.56606.14132-6.74481-.28931-9.53625-1.29187-2.7915-1.00266-5.31113-2.46016-7.55887-4.37251-2.24779-1.91243-4.45339-4.48239-6.61679-7.7099-.96921-1.42118-2.16672-3.79798-3.59253-7.13041zm57.24467-1.1536-40.3711 17.27316c-2.13686.91425-3.40341 1.57654-3.79966 1.98686-.39627.41029-.61819.91153-.66577 1.50373-.0877.85008.14597 1.92382.70108 3.22121 1.81764 4.24822 4.65537 6.87125 8.51319 7.86908 5.22362 1.37645 11.9565.30145 20.19865-3.22498 6.63943-2.8408 11.49713-6.15312 14.57311-9.937 2.39598-2.98139 3.59856-6.0089 3.60773-9.08253.005-2.16899-.9142-5.37217-2.75723-9.60953zm-57.96705-29.90204-10.73052-16.73575-5.88884.96553c-1.9555.33349-3.43403.82133-4.4356 1.46352-1.32769.85127-1.96248 2.01425-1.90438 3.48895.0305.86785.74418 2.59602 2.14092 5.18453l-1.29274.82887-10.10327-15.75746 1.29275-.82887c1.34644 1.53608 2.94711 2.48186 4.80203 2.83735 1.8549.35549 5.10278.1794 9.74363-.52827l48.66885-7.29348.42563.66384-27.89755 41.99605c-2.63485 3.99011-4.09372 6.81543-4.37663 8.47596-.21433 1.25488.0833 2.64174.89278 4.16061l-1.29274.82887-14.69565-22.91994 1.29274-.82887.60485.94335c1.17981 1.84009 2.2649 2.96855 3.25527 3.38538.70122.27345 1.40123.18617 2.10003-.26183.41924-.26886.80535-.61502 1.15833-1.03851.17974-.18102.82919-1.09046 1.94836-2.72831zm1.82381-2.84567 11.7913-17.51935-20.97608 3.19439zm-74.46479-62.48972 1.13912-1.02986 1.25254 1.38541c1.0948 1.21095 2.12431 1.96805 3.08854 2.27129.96422.30323 1.91389.31189 2.84903.026.59801-.20496 1.97456-1.28163 4.12966-3.23001l27.46198-24.82805c2.13452-1.9298 3.36656-3.24883 3.69613-3.95708.32948-.7082.38354-1.58703.16219-2.63648-.22144-1.04938-.86099-2.15904-1.91864-3.32898l-1.25254-1.38542 1.13912-1.02986 16.8953 18.68769c4.50906 4.9875 7.45945 9.61242 8.85119 13.87476 1.69608 5.218 1.72863 10.30812.0977 15.27037-1.63112 4.96224-4.57094 9.36391-8.81948 13.20503-2.93508 2.65349-6.06598 4.62619-9.39273 5.91809-3.32685 1.29184-6.47313 1.91695-9.43886 1.87533-2.96582-.0417-5.82222-.60185-8.56921-1.6805-2.74705-1.07872-5.66775-2.79304-8.7621-5.14296-1.37824-1.02935-3.28277-2.88838-5.71359-5.57708zm53.76676-19.68295-32.57261 29.44847c-1.72409 1.5587-2.70688 2.59644-2.94838 3.11321-.24154.51675-.28864 1.06289-.14131 1.63844.19313.83249.76288 1.77212 1.70926 2.81889 3.09884 3.4276 6.63464 4.98679 10.60741 4.67759 5.38748-.3947 11.40623-3.59811 18.05626-9.61026 5.35688-4.84314 8.87546-9.55358 10.55577-14.13135 1.2978-3.59794 1.45192-6.85189.46234-9.76188-.69983-2.053-2.60941-4.78403-5.72874-8.19311zm-120.82595-93.87002-5.84825 14.06449-1.37963-.57367c.53157-3.5846.594-6.29304.18727-8.12532-.40685-1.83224-1.30361-3.53112-2.69027-5.09665-.77968-.86354-2.38305-1.79994-4.81011-2.80921l-3.8706-1.60946-16.66831 40.0857c-1.10488 2.65705-1.64851 4.37879-1.63087 5.16523.0176.78642.35071 1.60668.99947 2.46078.64868.85407 1.71395 1.58919 3.1958 2.20537l1.72453.71709-.58961 1.41794-27.20922-11.31405.5896-1.41794 1.72453.71708c1.50735.62679 2.83245.86314 3.97531.70908.81298-.0815 1.59169-.47686 2.33614-1.18615.53597-.49631 1.34577-2.04744 2.42939-4.65339l16.66831-40.08571-3.75564-1.56166c-3.50019-1.45537-6.35035-1.77151-8.55049-.94839-3.08326 1.14523-5.71544 3.51179-7.89657 7.0997l-1.45627-.60554 5.84825-14.06449zm-90.7403 10.05328-19.31056-4.72561-3.60017 4.75915c-1.18663 1.58968-1.92135 2.96235-2.20415 4.11802-.37491 1.53195-.033 2.81202 1.02575 3.84022.62041.6076 2.32875 1.36749 5.12503 2.27967l-.36503 1.49163-18.18176-4.44938.36503-1.49163c2.03431.18449 3.84584-.23389 5.43459-1.25515 1.58874-1.02124 3.82006-3.38786 6.69397-7.09987l30.22701-38.83528.76597.18745 8.74317 49.65379c.84211 4.70683 1.73307 7.75919 2.6729 9.15709.70984 1.05678 1.88151 1.85625 3.51501 2.39842l-.36502 1.49163-26.4462-6.47183.36503-1.49163 1.08848.26637c2.12319.51958 3.68717.58897 4.69194.20817.69647-.28533 1.14338-.83114 1.34073-1.63742.11835-.48378.15939-1.00072.12314-1.55082.005-.25505-.1511-1.36156-.46951-3.31954zm-.64063-3.31869-3.53626-20.81963-12.99261 16.77474zm-37.05027-8.99044-3.79849 19.50245-49.78763-4.27356.13133-1.53002 1.86083.15973c1.62651.13961 2.96083-.0375 4.00297-.53119.74989-.32443 1.35803-.93873 1.82445-1.84291.36003-.6356.66073-2.35936.9021-5.17129l3.16613-36.88585c.24609-2.86701.24827-4.67194.007-5.41479-.24173-.74274-.80128-1.42256-1.67865-2.03946-.8774-.61679-2.10177-.99265-3.67313-1.12758l-1.86083-.15973.13133-1.53002 29.89738 2.56627-.13133 1.53002-2.43976-.20942c-1.62653-.13956-2.96085.0375-4.00296.53119-.74992.32448-1.37186.9376-1.8658 1.83936-.36007.63565-.66077 2.35941-.9021 5.17129l-3.06675 35.728c-.24612 2.86706-.23748 4.70763.0259 5.52171.26335.81408.86091 1.45551 1.79268 1.92428.66788.30727 2.32508.57449 4.97163.80165l4.67276.40109c2.97729.25556 5.50336-.0553 7.57821-.93246 2.07477-.87721 3.93284-2.38398 5.57424-4.52032 1.64131-2.13632 3.29913-5.35431 4.97349-9.65397zm-90.72479-39.65835c8.9137-1.01192 16.37518 1.04204 22.38448 6.16187 6.0092 5.11994 9.33116 11.84587 9.96589 20.17782.54214 7.11807-1.0638 13.53952-4.81782 19.26434-4.97152 7.59355-12.4923 11.77385-22.56237 12.54092-10.09772.76917-18.16609-2.05717-24.20513-8.47901-4.77103-5.07546-7.4392-11.32395-8.00451-18.7455-.63467-8.33195 1.67106-15.4935 6.91721-21.48466 5.24613-5.99107 12.02021-9.13633 20.32225-9.43578zm.69836 2.61075c-5.13164.39094-8.83588 3.3093-11.11273 8.75507-1.85173 4.47001-2.47076 10.73303-1.85709 18.78908.72922 9.57352 2.95122 16.52199 6.666 20.84541 2.58885 3.02174 5.99387 4.37184 10.21507 4.05029 2.84166-.21645 5.16181-1.08692 6.96043-2.6114 2.29332-1.95065 3.96831-4.91561 5.02496-8.8949 1.05656-3.97926 1.34739-9.08649.87248-15.32171-.56536-7.42149-1.67803-12.9213-3.33801-16.49945-1.66007-3.57805-3.61696-6.04437-5.87068-7.39896-2.2538-1.35449-4.77394-1.92563-7.56043-1.71343zm-85.70325 71.2877-.37211-1.48988 1.81201-.45258c1.58383-.39558 2.73652-.94729 3.4581-1.65512.72156-.70782 1.1764-1.54153 1.36452-2.50114.10079-.62407-.20081-2.34545-.90482-5.16415l-8.97107-35.9181c-.6973-2.79179-1.28076-4.49981-1.75038-5.12407-.46961-.62416-1.21944-1.08569-2.24948-1.3846-1.03003-.2988-2.31012-.25715-3.84028.12498l-1.81201.45257-.37212-1.48987 24.44203-6.10476c6.52322-1.62921 11.9926-2.05414 16.40815-1.27477 5.40193.9609 9.9077 3.32913 13.5173 7.10468 3.60952 3.77567 6.10825 8.44189 7.4962 13.99868.95874 3.83882 1.22468 7.5298.79781 11.07297-.42697 3.54323-1.35709 6.6132-2.79037 9.20993-1.43337 2.59678-3.27263 4.85287-5.51776 6.76828-2.24522 1.91545-5.13293 3.68478-8.66312 5.30799-1.5571.73114-4.09395 1.53587-7.61057 2.4142zm7.95478-56.70101 10.64057 42.60241c.56319 2.25496 1.01587 3.61064 1.35804 4.06704.34212.45642.80175.75515 1.37887.89619.82535.22165 1.92257.1615 3.29167-.18046 4.48303-1.1197 7.52354-3.5047 9.12154-7.15503 2.18878-4.93863 2.197-11.75678.0247-20.45446-1.75-7.00641-4.24858-12.32861-7.49577-15.96662-2.56291-2.83917-5.36094-4.50742-8.39408-5.00475-2.14068-.34938-5.44918.0492-9.92551 1.19568zm-37.49648 51.95827-18.26262 7.85532-.008 5.96747c.01 1.9837.24987 3.52203.72 4.61498.62317 1.44881 1.66695 2.2649 3.13137 2.44825.86119.1115 2.68266-.31053 5.46441-1.26608l.60678 1.41068-17.19507 7.39614-.60678-1.41068c1.73523-1.0777 2.92957-2.50256 3.58302-4.27459.65345-1.77202 1.00978-5.00509 1.069-9.69921l.7472-49.20664.7244-.31159 36.88004 34.3774c3.5066 3.25071 6.05594 5.15113 7.64804 5.70125 1.20307.41625 2.61991.34899 4.25052-.20179l.60678 1.41068-25.01101 10.75802-.60678-1.41068 1.02942-.44279c2.00796-.86368 3.29838-1.75006 3.87126-2.65912.38423-.64719.41236-1.35205.0844-2.1146-.19683-.4575-.47534-.89493-.83554-1.31229-.14926-.20687-.94051-.99604-2.37375-2.36751zm-2.50986-2.26379-15.3601-14.49241-.27179 21.21617zM64.993064 276.6626l13.060323 11.54513c2.15598 1.90589 3.608844 2.97785 4.358598 3.21589.749728.23809 1.633676.18855 2.651846-.14859 1.01814-.33711 2.049497-1.0965 3.094073-2.27817l1.236979-1.39932 1.150552 1.01707-19.48928 22.04707-1.150553-1.01707 1.236979-1.39932c1.081208-1.2231 1.734001-2.40023 1.958382-3.53138.186233-.79555.05521-1.64997-.393072-2.56328-.295957-.66784-1.501197-1.93637-3.615725-3.8056l-27.737639-24.51966c-2.155959-1.90582-3.604242-2.98296-4.344854-3.23143-.740545-.24839-1.619912-.20404-2.638102.13305-1.018119.33717-2.049476 1.09655-3.094073 2.27816l-1.236978 1.39932-1.150553-1.01707 19.489281-22.04707 1.150552 1.01707-1.236978 1.39932c-1.081188 1.22317-1.733982 2.40029-1.958383 3.53138-.186212.79561-.06435 1.6604.365584 2.59438.295977.6679 1.501218 1.93643 3.615725 3.8056l11.940867 10.55554 13.166947-14.89498-11.940868-10.55555c-2.155981-1.9058-3.604264-2.98294-4.344853-3.23144-.740568-.24836-1.624516-.19883-2.651847.1486-1.027304.34756-2.063242 1.11213-3.107817 2.29371l-1.20949 1.36823-1.150552-1.01707 19.461792-22.01598 1.150552 1.01707-1.20949 1.36823c-1.099535 1.24392-1.752329 2.42104-1.958382 3.53137-.186235.79564-.06437 1.66043.365583 2.59438.295956.66793 1.501196 1.93646 3.615725 3.8056l27.737635 24.51966c2.15596 1.90591 3.60424 2.98305 4.34486 3.23143.74054.24848 1.62449.19895 2.65184-.14859 1.02728-.34745 2.06322-1.11202 3.10782-2.29372l1.20949-1.36822 1.15055 1.01707-19.461788 22.01597-1.150552-1.01707 1.20949-1.36822c1.099511-1.24381 1.752305-2.42094 1.958382-3.53138.186211-.79552.06435-1.66031-.365584-2.59438-.295979-.66781-1.501219-1.93634-3.615724-3.80559L78.16001 261.76762zm-46.088595 8.77052 16.604778 10.23709-.849461 1.37784c-4.972631-1.63541-9.484279-1.75149-13.534957-.34824-4.050644 1.40338-7.179547 3.89506-9.386716 7.47503-1.8441001 2.99127-2.6760801 6.26518-2.4959427 9.82175.1801951 3.55666 1.3041397 6.76873 3.3718377 9.63622 2.641704 3.67649 6.141182 6.85788 10.498444 9.54418 4.286635 2.64279 8.524496 4.50788 12.713596 5.59526 4.189105 1.08744 7.896067 1.03247 11.120895-.1649 3.224811-1.19733 5.969834-3.63312 8.235077-7.3074 1.85863-3.01473 2.9017-6.18288 3.129213-9.50446.227472-3.3215-.415432-7.36655-1.928715-12.13518l4.13353 2.54839c1.14741 4.41303 1.454513 8.46234.92131 12.14794-.53325 3.68567-1.997819 7.4716-4.393712 11.35779-3.151006 5.111-6.974416 9.01916-11.470242 11.7245-4.49584 2.70537-9.327635 3.95216-14.495399 3.74036-5.16775-.21177-9.918491-1.65356-14.252237-4.32539-4.569233-2.81699-8.1660331-6.6841-10.7904127-11.60134-2.6243154-4.91719-3.8146175-10.10422-3.5709099-15.56112.243779-5.45681 1.7741565-10.46986 4.5911372-15.03917 2.0764882-3.368 4.9992494-6.47434 8.7682914-9.31903 2.183828-1.64405 3.457239-2.76052 3.820238-3.34941.46468-.75362.590883-1.57783.378608-2.47263-.212238-.89466-.868141-1.79473-1.967712-2.70024zM-36.135943 397.2476l10.951446-26.90962 1.422366.57887-.547573 1.34548c-.823925 2.02467-1.178317 3.50105-1.063176 4.42913.115222.92817.479235 1.70364 1.092038 2.32642.612882.62286 2.405738 1.53921 5.378572 2.74904l25.5256887 10.38823c4.6643363 1.89828 7.8959433 2.8027 9.6948303 2.71326 1.798885-.0894 3.52662-.73799 5.183211-1.94582 1.656579-1.20778 2.985508-3.04184 3.986793-5.50218 1.147283-2.81906 1.490792-5.47984 1.030529-7.98235-.460286-2.50243-1.604472-4.7007-3.432563-6.59484-1.828106-1.89404-5.509999-3.96752-11.045688-6.22044l-21.2585929-8.65164c-2.3321391-.94907-4.0970551-1.38354-5.2947531-1.30344-1.197638.0802-2.139917.4137-2.82684 1.0004-1.058763.91345-2.015788 2.42089-2.871079 4.52234l-1.422365-.57886 7.337469-18.02944 1.422366.57886-.438058 1.07639c-.594478 1.46088-.795176 2.79816-.602095 4.01185.193139 1.21383.790488 2.27844 1.792048 3.19383.68454.66699 2.090365 1.43329 4.2174807 2.29891l19.7977853 8.05714c6.125138 2.49281 10.381726 4.69562 12.769779 6.60843 2.388035 1.91291 4.086284 4.89679 5.094753 8.95165 1.008441 4.05495.41231 8.78617-1.788394 14.19369-1.835682 4.51058-3.856416 7.75091-6.062208 9.72099-3.006532 2.6898-6.072812 4.20515-9.198848 4.54606-3.1260321.34094-6.85463-.36992-11.1858055-2.1326l-25.5256885-10.38823c-2.998457-1.22028-4.930702-1.81247-5.796739-1.77659-.865947.036-1.683662.3753-2.453146 1.01806-.76939.64282-1.589782 2.07145-2.461178 4.28588zm10.890658 45.01174 28.4314389-14.05453c4.0023257-1.98629 6.8272021-3.8333 8.4746361-5.54103 1.17792-1.24371 1.941049-2.66304 2.28939-4.258l1.50028.32767-6.2521987 28.62696-1.5002799-.32767c.2333601-1.84653.2048657-3.07766-.085483-3.69338-.2903618-.61564-.7328919-.98842-1.3275918-1.11835-1.1353509-.24792-3.5424602.52915-7.22133486 2.33121l-18.60846474 9.14784 1.26023 2.39935 15.0027994 3.27664c2.86540107.62584 4.6849392.8533 5.4586197.68239.7736785-.17086 1.5109303-.66123 2.2117578-1.47113.7008209-.80984 1.2726279-2.22847 1.7154227-4.25591l1.5002799.32767-6.0573706 27.7349-1.50027991-.32766.39851122-1.82467c.34832868-1.59488.34492576-2.9409-.0102088-4.03804-.22494745-.78548-.75563922-1.46781-1.59207691-2.047-.5838242-.43904-2.2543718-.95966-5.0116476-1.56186l-36.1689109-7.89938c-2.811289-.61398-4.600843-.84906-5.368668-.70523-.767727.14388-1.514067.61103-2.239022 1.40146-.724853.79046-1.255566 1.9561-1.592139 3.49691l-.398511 1.82467-1.50028-.32767 5.977669-27.36997 1.50028.32766c-.40732 1.86526-.446952 3.34348-.118898 4.43467.224996.78553.739219 1.47842 1.542673 2.0787.605001.47201 2.299628 1.01205 5.083888 1.62012l17.111301 3.73715-12.048609-24.00001c-1.677783-3.34014-3.206009-5.16079-4.584683-5.46194-1.027178-.22429-1.965072.17978-2.813686 1.21222-.427195.52982-.93818 1.96174-1.532957 4.29576l-1.50028-.32767 4.684721-21.44994 1.50028.32766c-.283974 1.94887-.268456 3.53118.04655 4.74694.31509 1.21589 1.636524 4.14547 3.964305 8.78875z" style="letter-spacing:-.77999997px;fill:none;stroke:#fef34a;stroke-width:4;stroke-miterlimit:4;stroke-dasharray:none" transform="translate(130.67384 -32.375455)"/>
    <path style="letter-spacing:-.77999997px;fill:#f5c509;fill-opacity:1" d="m755.92071 463.04276-15.59001 2.3857c-3.0086.46037-4.8744.93483-5.59739 1.42338-.723.4885-1.24583 1.2333-1.56848 2.2344-.32267 1.00106-.28938 2.77342.0999 5.31707l-1.51798.2323-4.35704-28.47227 1.51798-.23229c.39343 2.57098.89957 4.27797 1.51842 5.12099.61885.843 1.33944 1.39052 2.16177 1.64258.82232.25203 2.73779.14786 5.74639-.31253l36.10316-5.52478c3.00855-.4604 4.87434-.93486 5.59739-1.42338.72295-.48852 1.24577-1.23332 1.56849-2.2344.3226-1.00108.28931-2.77344-.0999-5.31707l1.51797-.2323 3.95524 25.84659c1.02956 6.72829 1.31797 11.72259.86524 14.98293-.45285 3.26027-1.77987 6.06653-3.98107 8.4188-2.2013 2.35219-4.98401 3.78571-8.34811 4.30056-4.10268.62777-7.7202-.33018-10.85257-2.87386-1.98459-1.62775-3.6603-4.07249-5.02713-7.33421l-16.78441 16.25625c-2.16637 2.12291-3.49391 3.59966-3.98261 4.43027-.67628 1.25108-.94244 2.6214-.79847 4.11096l-1.51797.23229-2.68077-17.51824 22.61071-21.8084zm27.2825-4.17497-24.36964 3.72922.35786 2.3385c.58174 3.80175 1.36575 6.59287 2.35203 8.37338.9862 1.78045 2.4714 3.07171 4.4556 3.87377 1.98411.80199 4.43946.97909 7.36605.53128 4.23934-.64878 7.21929-2.11948 8.93986-4.41211 1.72047-2.29268 2.2438-5.64076 1.57-10.04423zm-55.81461-15.63037-1.47681.421-8.06729-28.29884 1.47681-.421.51203 1.79611c.44755 1.56994 1.08726 2.75423 1.91914 3.55286.56975.58564 1.36008.93576 2.37099 1.05039.72206.11064 2.44015-.2209 5.1543-.99463l35.60305-10.14953c2.7673-.78889 4.45517-1.42831 5.06362-1.91824.60834-.48992 1.04492-1.25455 1.30974-2.29388.2647-1.03931.1809-2.31734-.25143-3.83407l-.51203-1.79612 1.47681-.421 8.06728 28.29884-1.4768.421-.51203-1.79612c-.44761-1.56995-1.08732-2.75423-1.91914-3.55286-.56981-.58564-1.36393-.94908-2.38237-1.0903-.72212-.11065-2.44021.22089-5.15429.99463l-35.60306 10.14953c-2.76736.78888-4.45334 1.43495-5.05793 1.9382-.60462.50321-1.0393 1.27449-1.30405 2.31384-.26477 1.0393-.18096 2.31732.25143 3.83407zm-32.64323-84.58417 1.41185-.60407.73468 1.71711c.64216 1.50087 1.36997 2.55129 2.18344 3.15125.81346.59996 1.70885.91658 2.68615.94987.63216.00038 2.28377-.57085 4.95484-1.71368l34.03688-14.563c2.64557-1.13194 4.23921-1.97933 4.78094-2.54215.54163-.5628.87818-1.37642 1.00967-2.44087.13138-1.06442-.1131-2.32164-.73344-3.77166l-.73469-1.7171 1.41185-.60408 9.91002 23.16187c2.64479 6.18158 3.93317 11.514 3.86514 15.99729-.0906 5.48598-1.71294 10.31074-4.86715 14.47428-3.15432 4.16348-7.36435 7.37174-12.63009 9.6248-3.63777 1.55639-7.23964 2.40529-10.80562 2.5467-3.56606.14132-6.74481-.28931-9.53625-1.29187-2.7915-1.00266-5.31113-2.46016-7.55887-4.37251-2.24779-1.91243-4.45339-4.48239-6.61679-7.7099-.96921-1.42118-2.16672-3.79798-3.59253-7.13041zm57.24467-1.1536-40.3711 17.27316c-2.13686.91425-3.40341 1.57654-3.79966 1.98686-.39627.41029-.61819.91153-.66577 1.50373-.0877.85008.14597 1.92382.70108 3.22121 1.81764 4.24822 4.65537 6.87125 8.51319 7.86908 5.22362 1.37645 11.9565.30145 20.19865-3.22498 6.63943-2.8408 11.49713-6.15312 14.57311-9.937 2.39598-2.98139 3.59856-6.0089 3.60773-9.08253.005-2.16899-.9142-5.37217-2.75723-9.60953zm-57.96705-29.90204-10.73052-16.73575-5.88884.96553c-1.9555.33349-3.43403.82133-4.4356 1.46352-1.32769.85127-1.96248 2.01425-1.90438 3.48895.0305.86785.74418 2.59602 2.14092 5.18453l-1.29274.82887-10.10327-15.75746 1.29275-.82887c1.34644 1.53608 2.94711 2.48186 4.80203 2.83735 1.8549.35549 5.10278.1794 9.74363-.52827l48.66885-7.29348.42563.66384-27.89755 41.99605c-2.63485 3.99011-4.09372 6.81543-4.37663 8.47596-.21433 1.25488.0833 2.64174.89278 4.16061l-1.29274.82887-14.69565-22.91994 1.29274-.82887.60485.94335c1.17981 1.84009 2.2649 2.96855 3.25527 3.38538.70122.27345 1.40123.18617 2.10003-.26183.41924-.26886.80535-.61502 1.15833-1.03851.17974-.18102.82919-1.09046 1.94836-2.72831zm1.82381-2.84567 11.7913-17.51935-20.97608 3.19439zm-74.46479-62.48972 1.13912-1.02986 1.25254 1.38541c1.0948 1.21095 2.12431 1.96805 3.08854 2.27129.96422.30323 1.91389.31189 2.84903.026.59801-.20496 1.97456-1.28163 4.12966-3.23001l27.46198-24.82805c2.13452-1.9298 3.36656-3.24883 3.69613-3.95708.32948-.7082.38354-1.58703.16219-2.63648-.22144-1.04938-.86099-2.15904-1.91864-3.32898l-1.25254-1.38542 1.13912-1.02986 16.8953 18.68769c4.50906 4.9875 7.45945 9.61242 8.85119 13.87476 1.69608 5.218 1.72863 10.30812.0977 15.27037-1.63112 4.96224-4.57094 9.36391-8.81948 13.20503-2.93508 2.65349-6.06598 4.62619-9.39273 5.91809-3.32685 1.29184-6.47313 1.91695-9.43886 1.87533-2.96582-.0417-5.82222-.60185-8.56921-1.6805-2.74705-1.07872-5.66775-2.79304-8.7621-5.14296-1.37824-1.02935-3.28277-2.88838-5.71359-5.57708zm53.76676-19.68295-32.57261 29.44847c-1.72409 1.5587-2.70688 2.59644-2.94838 3.11321-.24154.51675-.28864 1.06289-.14131 1.63844.19313.83249.76288 1.77212 1.70926 2.81889 3.09884 3.4276 6.63464 4.98679 10.60741 4.67759 5.38748-.3947 11.40623-3.59811 18.05626-9.61026 5.35688-4.84314 8.87546-9.55358 10.55577-14.13135 1.2978-3.59794 1.45192-6.85189.46234-9.76188-.69983-2.053-2.60941-4.78403-5.72874-8.19311zm-120.82595-93.87002-5.84825 14.06449-1.37963-.57367c.53157-3.5846.594-6.29304.18727-8.12532-.40685-1.83224-1.30361-3.53112-2.69027-5.09665-.77968-.86354-2.38305-1.79994-4.81011-2.80921l-3.8706-1.60946-16.66831 40.0857c-1.10488 2.65705-1.64851 4.37879-1.63087 5.16523.0176.78642.35071 1.60668.99947 2.46078.64868.85407 1.71395 1.58919 3.1958 2.20537l1.72453.71709-.58961 1.41794-27.20922-11.31405.5896-1.41794 1.72453.71708c1.50735.62679 2.83245.86314 3.97531.70908.81298-.0815 1.59169-.47686 2.33614-1.18615.53597-.49631 1.34577-2.04744 2.42939-4.65339l16.66831-40.08571-3.75564-1.56166c-3.50019-1.45537-6.35035-1.77151-8.55049-.94839-3.08326 1.14523-5.71544 3.51179-7.89657 7.0997l-1.45627-.60554 5.84825-14.06449zm-90.7403 10.05328-19.31056-4.72561-3.60017 4.75915c-1.18663 1.58968-1.92135 2.96235-2.20415 4.11802-.37491 1.53195-.033 2.81202 1.02575 3.84022.62041.6076 2.32875 1.36749 5.12503 2.27967l-.36503 1.49163-18.18176-4.44938.36503-1.49163c2.03431.18449 3.84584-.23389 5.43459-1.25515 1.58874-1.02124 3.82006-3.38786 6.69397-7.09987l30.22701-38.83528.76597.18745 8.74317 49.65379c.84211 4.70683 1.73307 7.75919 2.6729 9.15709.70984 1.05678 1.88151 1.85625 3.51501 2.39842l-.36502 1.49163-26.4462-6.47183.36503-1.49163 1.08848.26637c2.12319.51958 3.68717.58897 4.69194.20817.69647-.28533 1.14338-.83114 1.34073-1.63742.11835-.48378.15939-1.00072.12314-1.55082.005-.25505-.1511-1.36156-.46951-3.31954zm-.64063-3.31869-3.53626-20.81963-12.99261 16.77474zm-37.05027-8.99044-3.79849 19.50245-49.78763-4.27356.13133-1.53002 1.86083.15973c1.62651.13961 2.96083-.0375 4.00297-.53119.74989-.32443 1.35803-.93873 1.82445-1.84291.36003-.6356.66073-2.35936.9021-5.17129l3.16613-36.88585c.24609-2.86701.24827-4.67194.007-5.41479-.24173-.74274-.80128-1.42256-1.67865-2.03946-.8774-.61679-2.10177-.99265-3.67313-1.12758l-1.86083-.15973.13133-1.53002 29.89738 2.56627-.13133 1.53002-2.43976-.20942c-1.62653-.13956-2.96085.0375-4.00296.53119-.74992.32448-1.37186.9376-1.8658 1.83936-.36007.63565-.66077 2.35941-.9021 5.17129l-3.06675 35.728c-.24612 2.86706-.23748 4.70763.0259 5.52171.26335.81408.86091 1.45551 1.79268 1.92428.66788.30727 2.32508.57449 4.97163.80165l4.67276.40109c2.97729.25556 5.50336-.0553 7.57821-.93246 2.07477-.87721 3.93284-2.38398 5.57424-4.52032 1.64131-2.13632 3.29913-5.35431 4.97349-9.65397zm-90.72479-39.65835c8.9137-1.01192 16.37518 1.04204 22.38448 6.16187 6.0092 5.11994 9.33116 11.84587 9.96589 20.17782.54214 7.11807-1.0638 13.53952-4.81782 19.26434-4.97152 7.59355-12.4923 11.77385-22.56237 12.54092-10.09772.76917-18.16609-2.05717-24.20513-8.47901-4.77103-5.07546-7.4392-11.32395-8.00451-18.7455-.63467-8.33195 1.67106-15.4935 6.91721-21.48466 5.24613-5.99107 12.02021-9.13633 20.32225-9.43578zm.69836 2.61075c-5.13164.39094-8.83588 3.3093-11.11273 8.75507-1.85173 4.47001-2.47076 10.73303-1.85709 18.78908.72922 9.57352 2.95122 16.52199 6.666 20.84541 2.58885 3.02174 5.99387 4.37184 10.21507 4.05029 2.84166-.21645 5.16181-1.08692 6.96043-2.6114 2.29332-1.95065 3.96831-4.91561 5.02496-8.8949 1.05656-3.97926 1.34739-9.08649.87248-15.32171-.56536-7.42149-1.67803-12.9213-3.33801-16.49945-1.66007-3.57805-3.61696-6.04437-5.87068-7.39896-2.2538-1.35449-4.77394-1.92563-7.56043-1.71343zm-85.70325 71.2877-.37211-1.48988 1.81201-.45258c1.58383-.39558 2.73652-.94729 3.4581-1.65512.72156-.70782 1.1764-1.54153 1.36452-2.50114.10079-.62407-.20081-2.34545-.90482-5.16415l-8.97107-35.9181c-.6973-2.79179-1.28076-4.49981-1.75038-5.12407-.46961-.62416-1.21944-1.08569-2.24948-1.3846-1.03003-.2988-2.31012-.25715-3.84028.12498l-1.81201.45257-.37212-1.48987 24.44203-6.10476c6.52322-1.62921 11.9926-2.05414 16.40815-1.27477 5.40193.9609 9.9077 3.32913 13.5173 7.10468 3.60952 3.77567 6.10825 8.44189 7.4962 13.99868.95874 3.83882 1.22468 7.5298.79781 11.07297-.42697 3.54323-1.35709 6.6132-2.79037 9.20993-1.43337 2.59678-3.27263 4.85287-5.51776 6.76828-2.24522 1.91545-5.13293 3.68478-8.66312 5.30799-1.5571.73114-4.09395 1.53587-7.61057 2.4142zm7.95478-56.70101 10.64057 42.60241c.56319 2.25496 1.01587 3.61064 1.35804 4.06704.34212.45642.80175.75515 1.37887.89619.82535.22165 1.92257.1615 3.29167-.18046 4.48303-1.1197 7.52354-3.5047 9.12154-7.15503 2.18878-4.93863 2.197-11.75678.0247-20.45446-1.75-7.00641-4.24858-12.32861-7.49577-15.96662-2.56291-2.83917-5.36094-4.50742-8.39408-5.00475-2.14068-.34938-5.44918.0492-9.92551 1.19568zm-37.49648 51.95827-18.26262 7.85532-.008 5.96747c.01 1.9837.24987 3.52203.72 4.61498.62317 1.44881 1.66695 2.2649 3.13137 2.44825.86119.1115 2.68266-.31053 5.46441-1.26608l.60678 1.41068-17.19507 7.39614-.60678-1.41068c1.73523-1.0777 2.92957-2.50256 3.58302-4.27459.65345-1.77202 1.00978-5.00509 1.069-9.69921l.7472-49.20664.7244-.31159 36.88004 34.3774c3.5066 3.25071 6.05594 5.15113 7.64804 5.70125 1.20307.41625 2.61991.34899 4.25052-.20179l.60678 1.41068-25.01101 10.75802-.60678-1.41068 1.02942-.44279c2.00796-.86368 3.29838-1.75006 3.87126-2.65912.38423-.64719.41236-1.35205.0844-2.1146-.19683-.4575-.47534-.89493-.83554-1.31229-.14926-.20687-.94051-.99604-2.37375-2.36751zm-2.50986-2.26379-15.3601-14.49241-.27179 21.21617zM64.993064 276.6626l13.060323 11.54513c2.15598 1.90589 3.608844 2.97785 4.358598 3.21589.749728.23809 1.633676.18855 2.651846-.14859 1.01814-.33711 2.049497-1.0965 3.094073-2.27817l1.236979-1.39932 1.150552 1.01707-19.48928 22.04707-1.150553-1.01707 1.236979-1.39932c1.081208-1.2231 1.734001-2.40023 1.958382-3.53138.186233-.79555.05521-1.64997-.393072-2.56328-.295957-.66784-1.501197-1.93637-3.615725-3.8056l-27.737639-24.51966c-2.155959-1.90582-3.604242-2.98296-4.344854-3.23143-.740545-.24839-1.619912-.20404-2.638102.13305-1.018119.33717-2.049476 1.09655-3.094073 2.27816l-1.236978 1.39932-1.150553-1.01707 19.489281-22.04707 1.150552 1.01707-1.236978 1.39932c-1.081188 1.22317-1.733982 2.40029-1.958383 3.53138-.186212.79561-.06435 1.6604.365584 2.59438.295977.6679 1.501218 1.93643 3.615725 3.8056l11.940867 10.55554 13.166947-14.89498-11.940868-10.55555c-2.155981-1.9058-3.604264-2.98294-4.344853-3.23144-.740568-.24836-1.624516-.19883-2.651847.1486-1.027304.34756-2.063242 1.11213-3.107817 2.29371l-1.20949 1.36823-1.150552-1.01707 19.461792-22.01598 1.150552 1.01707-1.20949 1.36823c-1.099535 1.24392-1.752329 2.42104-1.958382 3.53137-.186235.79564-.06437 1.66043.365583 2.59438.295956.66793 1.501196 1.93646 3.615725 3.8056l27.737635 24.51966c2.15596 1.90591 3.60424 2.98305 4.34486 3.23143.74054.24848 1.62449.19895 2.65184-.14859 1.02728-.34745 2.06322-1.11202 3.10782-2.29372l1.20949-1.36822 1.15055 1.01707-19.461788 22.01597-1.150552-1.01707 1.20949-1.36822c1.099511-1.24381 1.752305-2.42094 1.958382-3.53138.186211-.79552.06435-1.66031-.365584-2.59438-.295979-.66781-1.501219-1.93634-3.615724-3.80559L78.16001 261.76762zm-46.088595 8.77052 16.604778 10.23709-.849461 1.37784c-4.972631-1.63541-9.484279-1.75149-13.534957-.34824-4.050644 1.40338-7.179547 3.89506-9.386716 7.47503-1.8441001 2.99127-2.6760801 6.26518-2.4959427 9.82175.1801951 3.55666 1.3041397 6.76873 3.3718377 9.63622 2.641704 3.67649 6.141182 6.85788 10.498444 9.54418 4.286635 2.64279 8.524496 4.50788 12.713596 5.59526 4.189105 1.08744 7.896067 1.03247 11.120895-.1649 3.224811-1.19733 5.969834-3.63312 8.235077-7.3074 1.85863-3.01473 2.9017-6.18288 3.129213-9.50446.227472-3.3215-.415432-7.36655-1.928715-12.13518l4.13353 2.54839c1.14741 4.41303 1.454513 8.46234.92131 12.14794-.53325 3.68567-1.997819 7.4716-4.393712 11.35779-3.151006 5.111-6.974416 9.01916-11.470242 11.7245-4.49584 2.70537-9.327635 3.95216-14.495399 3.74036-5.16775-.21177-9.918491-1.65356-14.252237-4.32539-4.569233-2.81699-8.1660331-6.6841-10.7904127-11.60134-2.6243154-4.91719-3.8146175-10.10422-3.5709099-15.56112.243779-5.45681 1.7741565-10.46986 4.5911372-15.03917 2.0764882-3.368 4.9992494-6.47434 8.7682914-9.31903 2.183828-1.64405 3.457239-2.76052 3.820238-3.34941.46468-.75362.590883-1.57783.378608-2.47263-.212238-.89466-.868141-1.79473-1.967712-2.70024zM-36.135943 397.2476l10.951446-26.90962 1.422366.57887-.547573 1.34548c-.823925 2.02467-1.178317 3.50105-1.063176 4.42913.115222.92817.479235 1.70364 1.092038 2.32642.612882.62286 2.405738 1.53921 5.378572 2.74904l25.5256887 10.38823c4.6643363 1.89828 7.8959433 2.8027 9.6948303 2.71326 1.798885-.0894 3.52662-.73799 5.183211-1.94582 1.656579-1.20778 2.985508-3.04184 3.986793-5.50218 1.147283-2.81906 1.490792-5.47984 1.030529-7.98235-.460286-2.50243-1.604472-4.7007-3.432563-6.59484-1.828106-1.89404-5.509999-3.96752-11.045688-6.22044l-21.2585929-8.65164c-2.3321391-.94907-4.0970551-1.38354-5.2947531-1.30344-1.197638.0802-2.139917.4137-2.82684 1.0004-1.058763.91345-2.015788 2.42089-2.871079 4.52234l-1.422365-.57886 7.337469-18.02944 1.422366.57886-.438058 1.07639c-.594478 1.46088-.795176 2.79816-.602095 4.01185.193139 1.21383.790488 2.27844 1.792048 3.19383.68454.66699 2.090365 1.43329 4.2174807 2.29891l19.7977853 8.05714c6.125138 2.49281 10.381726 4.69562 12.769779 6.60843 2.388035 1.91291 4.086284 4.89679 5.094753 8.95165 1.008441 4.05495.41231 8.78617-1.788394 14.19369-1.835682 4.51058-3.856416 7.75091-6.062208 9.72099-3.006532 2.6898-6.072812 4.20515-9.198848 4.54606-3.1260321.34094-6.85463-.36992-11.1858055-2.1326l-25.5256885-10.38823c-2.998457-1.22028-4.930702-1.81247-5.796739-1.77659-.865947.036-1.683662.3753-2.453146 1.01806-.76939.64282-1.589782 2.07145-2.461178 4.28588zm10.890658 45.01174 28.4314389-14.05453c4.0023257-1.98629 6.8272021-3.8333 8.4746361-5.54103 1.17792-1.24371 1.941049-2.66304 2.28939-4.258l1.50028.32767-6.2521987 28.62696-1.5002799-.32767c.2333601-1.84653.2048657-3.07766-.085483-3.69338-.2903618-.61564-.7328919-.98842-1.3275918-1.11835-1.1353509-.24792-3.5424602.52915-7.22133486 2.33121l-18.60846474 9.14784 1.26023 2.39935 15.0027994 3.27664c2.86540107.62584 4.6849392.8533 5.4586197.68239.7736785-.17086 1.5109303-.66123 2.2117578-1.47113.7008209-.80984 1.2726279-2.22847 1.7154227-4.25591l1.5002799.32767-6.0573706 27.7349-1.50027991-.32766.39851122-1.82467c.34832868-1.59488.34492576-2.9409-.0102088-4.03804-.22494745-.78548-.75563922-1.46781-1.59207691-2.047-.5838242-.43904-2.2543718-.95966-5.0116476-1.56186l-36.1689109-7.89938c-2.811289-.61398-4.600843-.84906-5.368668-.70523-.767727.14388-1.514067.61103-2.239022 1.40146-.724853.79046-1.255566 1.9561-1.592139 3.49691l-.398511 1.82467-1.50028-.32767 5.977669-27.36997 1.50028.32766c-.40732 1.86526-.446952 3.34348-.118898 4.43467.224996.78553.739219 1.47842 1.542673 2.0787.605001.47201 2.299628 1.01205 5.083888 1.62012l17.111301 3.73715-12.048609-24.00001c-1.677783-3.34014-3.206009-5.16079-4.584683-5.46194-1.027178-.22429-1.965072.17978-2.813686 1.21222-.427195.52982-.93818 1.96174-1.532957 4.29576l-1.50028-.32767 4.684721-21.44994 1.50028.32766c-.283974 1.94887-.268456 3.53118.04655 4.74694.31509 1.21589 1.636524 4.14547 3.964305 8.78875z" transform="translate(130.67384 -32.375455)"/>
  </g>
  <path transform="matrix(.71451 0 0 .71451 130.74864593 120.978905)" d="M983.642 528.39081c0 258.9742-209.94007 468.91427-468.91428 468.91427-258.9742 0-468.914274-209.94007-468.914274-468.91427 0-258.97421 209.940074-468.914278 468.914274-468.914278 258.97421 0 468.91428 209.940068 468.91428 468.914278z" style="fill:#475677;fill-opacity:1;stroke:#fff;stroke-width:9.79686356;stroke-linecap:butt;stroke-linejoin:round;stroke-miterlimit:4;stroke-opacity:1;stroke-dasharray:none;stroke-dashoffset:0"/>
  <path style="fill:#58aa9e;stroke:none" d="M828.86337 636.05743c0 70.87281-149.75651 128.32657-334.49054 128.32657-184.73402 0-334.49054-57.45376-334.49054-128.32657 0-70.8728 149.75652-128.32656 334.49054-128.32656 184.73403 0 334.49054 57.45376 334.49054 128.32656z" transform="matrix(.98883 0 0 1.24138 9.67714 -162.900485)"/>
  <path style="fill:#087dc2;fill-opacity:1;stroke:none" d="M214.50046 590.51968v-217.4857c0-93.38494 86.65506-147.21765 153.35471-173.68278 66.69965 26.46513 153.35471 80.29784 153.35471 173.68278v217.4857z" transform="translate(130.67384 -32.375455)"/>
  <path transform="matrix(1.8533 0 0 1.8533 -425.94158 -284.288735)" d="M558.53611 329.96704c0 32.53178-26.37222 58.904-58.904 58.904-32.53178 0-58.90399-26.37222-58.90399-58.904 0-32.53178 26.37221-58.90399 58.90399-58.90399s58.904 26.37221 58.904 58.90399z" style="fill:url(#l);fill-opacity:1;stroke:none"/>
  <path style="fill:url(#m);fill-opacity:1;stroke:none" d="M558.53611 329.96704c0 32.53178-26.37222 58.904-58.904 58.904-32.53178 0-58.90399-26.37222-58.90399-58.904 0-32.53178 26.37221-58.90399 58.90399-58.90399s58.904 26.37221 58.904 58.90399z" transform="matrix(1.06607 0 0 1.06607 -32.61093 -24.525305)"/>
  <path style="fill:#271771;stroke:none" d="m322.25741 512.60434 47.68418-36.46437s29.0778 14.86243 59.21567 23.68626c11.56539 3.38614 29.29616 26.49121 29.29616 26.49121l-88.20016 23.37461z" transform="translate(130.67384 -32.375455)"/>
  <path style="fill:#fff;stroke:none" d="m369.9489 476.14718-32.375 24.78125 12.71875-1.09375 6.875-7.8125-5 19.96875 14.96875-14.65625 9.03125-1.25 7.8125 13.09375 3.40625-16.21875 45.3125 8.40625c-1.2286-.66975-2.39849-1.1996-3.53125-1.53125-30.13787-8.82383-59.21875-23.6875-59.21875-23.6875z" transform="translate(130.67384 -32.375455)"/>
  <path style="fill:#657bb4;stroke:none" d="M386.45965 542.21217s9.08629-13.16353 15.79084-17.03748c9.83683-5.6838 28.88062-13.7131 28.88062-13.7131 10.28467 2.0171 18.85767 5.04485 29.13456 8.91121 2.42976.91412 3.6881 2.54245 5.97929 3.76302 3.18909 1.6989 7.17104 1.95707 10.41179 3.55524 8.90814 4.39302 10.24145 12.26532 16.18331 16.80663 1.27039.97095 4.11971 1.32382 4.84806 2.74724 5.05756 9.88399 10.80426 24.14798 10.80426 24.14798l-100.83976-1.96231z" transform="translate(130.67384 -32.375455)"/>
  <path style="fill:#fff;stroke:none" d="M431.1364 511.45968s-19.03817 8.03495-28.875 13.71875c-.19396.11207-.39608.24792-.59375.375l15.34375-1.21875 2.90625 8.3125 7.0625-7.46875 18.90625 13.09375-1.25-10.40625 12.6875 3.75.625-5.1875 26.625 7.875c-1.93409-2.4729-4.2921-4.84269-7.90625-6.625-3.24075-1.59817-7.24841-1.83235-10.4375-3.53125-2.29119-1.22057-3.53899-2.86713-5.96875-3.78125-10.27689-3.86636-18.84033-6.88915-29.125-8.90625z" transform="translate(130.67384 -32.375455)"/>
  <path style="fill:#657bb4;stroke:none" d="M211.92929 550.93869s13.80924-16.98414 22.12795-23.99792c10.22199-8.6185 22.86659-13.92439 33.65943-21.8163 6.07736-4.44388 17.45304-14.33642 17.45304-14.33642s23.92945 6.42481 34.59441 12.46645c8.28692 4.69449 14.38624 12.52864 22.12795 18.07636 5.57649 3.99612 17.45304 10.90815 17.45304 10.90815l-61.39729 29.60783-79.47364 5.92156z" transform="translate(130.67384 -32.375455)"/>
  <path style="fill:#fff;stroke:none" d="M285.16765 490.80343s-11.36014 9.86862-17.4375 14.3125c-10.79284 7.89191-23.46551 13.194-33.6875 21.8125-2.09657 1.76769-4.51489 4.17845-7 6.78125l32.25-16.125-2.78125 21.5s9.05596-4.93793 12.4375-8.71875c3.47113-3.88099 7.5-13.71875 7.5-13.71875l21.1875 14.34375-5.90625-18.6875 21.1875 9.34375-1.25-10.59375 23.28125 4.5c-4.85337-4.41717-9.51231-9.09754-15.1875-12.3125-10.66496-6.04164-34.59375-12.4375-34.59375-12.4375z" transform="translate(130.67384 -32.375455)"/>
  <path d="M123.00191 494.83965c-8.09115-16.59119-14.15384-20.28916-23.06294-20.36188-.57324-4.294 1.49754-7.13358 4.77881-10.38871-12.17219 2.75309-13.62734-4.17199-16.20639-7.68765 19.60822 3.13207 25.11213-11.18909 36.56827-25.55623" style="fill:none;stroke:#c80000;stroke-width:6;stroke-linecap:butt;stroke-linejoin:miter;stroke-miterlimit:4;stroke-opacity:1;stroke-dasharray:none" transform="translate(130.67384 -32.375455)"/>
  <path style="fill:none;stroke:#fbec19;stroke-width:4;stroke-linecap:butt;stroke-linejoin:miter;stroke-miterlimit:4;stroke-opacity:1;stroke-dasharray:none" d="M123.00191 494.83965c-8.09115-16.59119-14.15384-20.28916-23.06294-20.36188-.57324-4.294 1.49754-7.13358 4.77881-10.38871-12.17219 2.75309-13.62734-4.17199-16.20639-7.68765 19.60822 3.13207 25.11213-11.18909 36.56827-25.55623" transform="translate(130.67384 -32.375455)"/>
  <path style="fill:url(#n);fill-opacity:1;stroke:none" d="M120.30085 244.10809v449.14297c28.50335-36.95476 65.31825-53.96179 99.56342-77.13619V398.73108c0-132.82803-99.56342-154.62299-99.56342-154.62299z" transform="translate(130.67384 -32.375455)"/>
  <path style="fill:#fbec19;stroke:#c80000;stroke-width:1px;stroke-linecap:butt;stroke-linejoin:miter;stroke-opacity:1" d="M139.00053 270.44347c-1.39982 19.59599-3.41338 39.62672 8.1032 50.07359-15.77512 8.87525-16.53717 21.31298-11.7018 34.84467 3.796 10.62303 14.22929 13.1976 20.63609-14.69057-16.56932 35.42782-22.00206-15.90433-.62333-15.79084 15.28.0811 12.72025 40.63688-11.01203 59.42343-14.44736 11.43658-12.17141 29.60111-.95462 37.59032 11.21679 7.9892 32.07124 7.20129 35.23737-10.99521 3.128-17.97732-29.59012-20.39231-26.80288-9.55761 3.30607 12.8515 15.94475-2.82893 17.86859 4.57102 5.33582 20.524-28.5604 17.2313-29.0884-3.32438-.40492-15.76395 30.74804-29.02846 46.12588-3.32439 1.35757-18.65684-16.19151-23.3832-27.63397-21.60852 11.03749-9.9169 13.71887-27.59098 14.5442-47.16476 21.51971 13.24936 26.86007 42.1257 31.58168 58.59234 3.37778-84.00438-56.34192-59.22893-60.4623-95.78392 25.89848-4.62634 20.07041 22.79224 40.93152 24.93291-14.31084-23.70441-22.3997-35.63508-40.72375-34.07498.64903-6.04743-1.69254-10.43342-6.02545-13.7131z" transform="translate(130.67384 -32.375455)"/>
  <path style="fill:#fbec19;fill-opacity:1;stroke:#c80000;stroke-width:1px;stroke-linecap:butt;stroke-linejoin:miter;stroke-opacity:1" d="M190.52854 576.7027c1.06725-19.92589 3.68014-40.41682-14.12865-49.03472 33.62791-11.81109 12.34567-28.75147 4.15549-49.45027-1.63921 10.91964-7.07539 19.94079-13.08978 28.67284 11.78789-18.34294 21.62331-7.55964 14.33642 10.38872-4.27153 10.52122-19.17549 7.22934-21.18981-2.93781-2.52359-12.73757-2.29981-33.32039 14.12549-44.85027 16.77752-11.77712 15.56588-30.83955 7.5645-40.05805-8.58951-9.89609-37.48028-11.86667-38.65801 11.83726-.96215 19.36495 27.55425 18.42835 26.70717 4.13437-.3718-6.27381-9.48234 2.54114-12.16634 2.06235-11.48036-2.04795-9.87491-21.29702 7.33785-18.93004 11.59345 1.59424 24.23678 14.97538 11.50035 28.76469-11.31029 12.24528-30.81126 6.44959-41.69337-3.87845 4.38846 8.06969 8.4316 21.39137 27.14917 18.42265-9.89924 11.76317-12.63199 27.20642-8.86504 45.98736-20.31381-4.97045-26.79278-28.2838-30.75058-45.98736-.83047 51.81143 23.69699 52.38859 42.13113 58.24536 12.61073 4.0066 21.31739 11.79727 18.40043 21.53994-5.7065 19.05975-28.10772-21.24024-43.35556-21.74703 19.01975 18.45538 19.29951 42.64745 44.18666 32.27426-.0622 10.13552 3.11988 12.34046 6.30248 14.5442z" transform="translate(130.67384 -32.375455)"/>
  <path style="fill:#fbec19;fill-opacity:1;stroke:#c80000;stroke-width:1px;stroke-linecap:butt;stroke-linejoin:miter;stroke-opacity:1" d="M135.05282 543.04327c.77557 17.46735-.74588 23.13761 6.64877 31.99723-15.58794 7.21897-11.76677 19.16747-4.15548 35.5294 5.5611-5.52199 9.53424-11.72453 11.21981-18.90746-3.69165 6.64242-13.5046 10.85078-12.32794-2.6318 1.19497-13.69248 19.17921-14.9672 17.93784 8.65726-1.50449 28.63193-26.13926 13.25332-22.92443 42.87074 2.01617 18.57445 30.50578 16.39215 32.13576 1.6622 2.06678-18.67724-24.08711-15.62715-18.76894-5.26361 2.4331 4.74141 11.61952-5.88055 12.99743.55406 2.15313 10.05477-19.82782 16.28143-21.42383-.73875-1.64209-17.51159 23.88575-20.47864 32.32044-5.26361-.79748-13.57933-11.4467-17.59245-18.28414-14.221 10.25499-7.99508 10.17678-21.7487 9.23441-32.59747 12.58694 6.4937 16.81061 19.05078 19.6693 32.59747 4.39099-47.00668-40.73443-36.97217-38.13812-57.25334.75919-5.93041 14.34448.26794 26.77979 15.14443-6.40634-20.8316-16.98622-23.50835-28.25729-23.17837.37518-6.17513-1.65-8.03984-4.66338-8.95738z" transform="translate(130.67384 -32.375455)"/>
  <path style="fill:#fff;stroke:none" d="M159.25852 775.33487s7.60978-5.18833 12.70886-10.31946c2.86868-2.8867-2.68482-4.71737.31165-9.41909 3.43846-5.39523 48.59772-3.65787 49.93508-9.55762.98977-4.36637-18.87332-6.00029-18.94208-9.1767-.0973-4.49316 22.41556-2.58641 23.68626-7.02969.88964-3.11084-7.81789-3.8719-7.58376-5.99083.27632-2.50074 8.01699-2.85428 8.10319-6.19859.13452-5.21842-18.94207-15.6177-18.94207-15.6177l42.35131-5.85231s14.58029 16.87099 12.91663 26.24881c-.87293 4.92056-12.01191 5.67125-11.60074 9.45374.5857 5.38802 37.48495 9.04495 37.95344 14.05938.33857 3.62382-49.65996 9.75246-49.55416 15.06364.14706 7.38235 19.55954 1.77496 18.8382 8.44948-1.66309 15.38844-5.43676 44.22128-5.43676 44.22128l-97.64869-25.54492z" transform="translate(130.67384 -32.375455)"/>
  <path style="fill:none;stroke:#c80000;stroke-width:6;stroke-linecap:butt;stroke-linejoin:miter;stroke-miterlimit:4;stroke-opacity:1;stroke-dasharray:none" d="M612.19346 494.83965c8.09115-16.59119 14.15384-20.28916 23.06294-20.36188.57324-4.294-1.49754-7.13358-4.77881-10.38871 12.17219 2.75309 13.62734-4.17199 16.20639-7.68765-19.60822 3.13207-25.11213-11.18909-36.56827-25.55623" transform="translate(130.67384 -32.375455)"/>
  <path d="M612.19346 494.83965c8.09115-16.59119 14.15384-20.28916 23.06294-20.36188.57324-4.294-1.49754-7.13358-4.77881-10.38871 12.17219 2.75309 13.62734-4.17199 16.20639-7.68765-19.60822 3.13207-25.11213-11.18909-36.56827-25.55623" style="fill:none;stroke:#fbec19;stroke-width:4;stroke-linecap:butt;stroke-linejoin:miter;stroke-miterlimit:4;stroke-opacity:1;stroke-dasharray:none" transform="translate(130.67384 -32.375455)"/>
  <path d="M614.89452 244.10809v449.14297c-28.50335-36.95476-65.31825-53.96179-99.56342-77.13619V398.73108c0-132.82803 99.56342-154.62299 99.56342-154.62299z" style="fill:url(#o);fill-opacity:1;stroke:none" transform="translate(130.67384 -32.375455)"/>
  <path d="M596.19484 270.44347c1.39982 19.59599 3.41338 39.62672-8.1032 50.07359 15.77512 8.87525 16.53717 21.31298 11.7018 34.84467-3.796 10.62303-14.22929 13.1976-20.63609-14.69057 16.56932 35.42782 22.00206-15.90433.62333-15.79084-15.28.0811-12.72025 40.63688 11.01203 59.42343 14.44736 11.43658 12.17141 29.60111.95462 37.59032-11.21679 7.9892-32.07124 7.20129-35.23737-10.99521-3.128-17.97732 29.59012-20.39231 26.80288-9.55761-3.30607 12.8515-15.94475-2.82893-17.86859 4.57102-5.33582 20.524 28.5604 17.2313 29.0884-3.32438.40492-15.76395-30.74804-29.02846-46.12588-3.32439-1.35757-18.65684 16.19151-23.3832 27.63397-21.60852-11.03749-9.9169-13.71887-27.59098-14.5442-47.16476-21.51971 13.24936-26.86007 42.1257-31.58168 58.59234-3.37778-84.00438 56.34192-59.22893 60.4623-95.78392-25.89848-4.62634-20.07041 22.79224-40.93152 24.93291 14.31084-23.70441 22.3997-35.63508 40.72375-34.07498-.64903-6.04743 1.69254-10.43342 6.02545-13.7131z" style="fill:#fbec19;stroke:#c80000;stroke-width:1px;stroke-linecap:butt;stroke-linejoin:miter;stroke-opacity:1" transform="translate(130.67384 -32.375455)"/>
  <path d="M544.66683 576.7027c-1.06725-19.92589-3.68014-40.41682 14.12865-49.03472-33.62791-11.81109-12.34567-28.75147-4.15549-49.45027 1.63921 10.91964 7.07539 19.94079 13.08978 28.67284-11.78789-18.34294-21.62331-7.55964-14.33642 10.38872 4.27153 10.52122 19.17549 7.22934 21.18981-2.93781 2.52359-12.73757 2.29981-33.32039-14.12549-44.85027-16.77752-11.77712-15.56588-30.83955-7.5645-40.05805 8.58951-9.89609 37.48028-11.86667 38.65801 11.83726.96215 19.36495-27.55425 18.42835-26.70717 4.13437.3718-6.27381 9.48234 2.54114 12.16634 2.06235 11.48036-2.04795 9.87491-21.29702-7.33785-18.93004-11.59345 1.59424-24.23678 14.97538-11.50035 28.76469 11.31029 12.24528 30.81126 6.44959 41.69337-3.87845-4.38846 8.06969-8.4316 21.39137-27.14917 18.42265 9.89924 11.76317 12.63199 27.20642 8.86504 45.98736 20.31381-4.97045 26.79278-28.2838 30.75058-45.98736.83047 51.81143-23.69699 52.38859-42.13113 58.24536-12.61073 4.0066-21.31739 11.79727-18.40043 21.53994 5.7065 19.05975 28.10772-21.24024 43.35556-21.74703-19.01975 18.45538-19.29951 42.64745-44.18666 32.27426.0622 10.13552-3.11988 12.34046-6.30248 14.5442z" style="fill:#fbec19;fill-opacity:1;stroke:#c80000;stroke-width:1px;stroke-linecap:butt;stroke-linejoin:miter;stroke-opacity:1" transform="translate(130.67384 -32.375455)"/>
  <path d="M600.14255 543.04327c-.77557 17.46735.74588 23.13761-6.64877 31.99723 15.58794 7.21897 11.76677 19.16747 4.15548 35.5294-5.5611-5.52199-9.53424-11.72453-11.21981-18.90746 3.69165 6.64242 13.5046 10.85078 12.32794-2.6318-1.19497-13.69248-19.17921-14.9672-17.93784 8.65726 1.50449 28.63193 26.13926 13.25332 22.92443 42.87074-2.01617 18.57445-30.50578 16.39215-32.13576 1.6622-2.06678-18.67724 24.08711-15.62715 18.76894-5.26361-2.4331 4.74141-11.61952-5.88055-12.99743.55406-2.15313 10.05477 19.82782 16.28143 21.42383-.73875 1.64209-17.51159-23.88575-20.47864-32.32044-5.26361.79748-13.57933 11.4467-17.59245 18.28414-14.221-10.25499-7.99508-10.17678-21.7487-9.23441-32.59747-12.58694 6.4937-16.81061 19.05078-19.6693 32.59747-4.39099-47.00668 40.73443-36.97217 38.13812-57.25334-.75919-5.93041-14.34448.26794-26.77979 15.14443 6.40634-20.8316 16.98622-23.50835 28.25729-23.17837-.37518-6.17513 1.65-8.03984 4.66338-8.95738z" style="fill:#fbec19;fill-opacity:1;stroke:#c80000;stroke-width:1px;stroke-linecap:butt;stroke-linejoin:miter;stroke-opacity:1" transform="translate(130.67384 -32.375455)"/>
  <path d="M574.86064 775.33487s-7.60978-5.18833-12.70886-10.31946c-2.86868-2.8867 2.68482-4.71737-.31165-9.41909-3.43846-5.39523-48.59772-3.65787-49.93508-9.55762-.98977-4.36637 18.87332-6.00029 18.94208-9.1767.0973-4.49316-22.41556-2.58641-23.68626-7.02969-.88964-3.11084 7.81789-3.8719 7.58376-5.99083-.27632-2.50074-8.01699-2.85428-8.10319-6.19859-.13452-5.21842 24.55197-30.57745 24.55197-30.57745l-59.59657 10.97741s-6.89264 13.5466-5.22898 22.92442c.87293 4.92056 15.95962 7.12567 15.54845 10.90816-.5857 5.38802-37.48495 9.04495-37.95344 14.05938-.33857 3.62382 49.65996 9.75246 49.55416 15.06364-.14706 7.38235-19.55954 1.77496-18.8382 8.44948 1.66309 15.38844 5.43676 44.22128 5.43676 44.22128 32.01809-9.72328 64.31731-17.47861 94.74505-38.33434z" style="fill:#fff;stroke:none" transform="translate(130.67384 -32.375455)"/>
  <path style="fill:#03977a;fill-opacity:1;stroke:none" d="M239.04383 699.44533c-8.55845 4.58215-21.56116 9.2691-27.58203 9.34984-5.06744.068-16.74717-10.31406-24.46542-15.42724-3.65828-2.42353-2.05816-4.99086-4.98658-8.25902-6.29551-7.0259-10.84559-9.32022-11.6873-24.46542-1.55159-27.91826 9.52332-34.46998 11.6873-42.54178 3.04678-11.36467-1.02386-26.00038 7.01238-34.59441 9.04891-9.67699 26.68629-22.50389 30.85447-23.3746 7.62843-1.59353 15.39938.32415 23.06294-1.09082 6.11812-1.12963 11.43454-4.68915 17.60887-5.45407 40.28584-4.99088 80.10405 14.20519 120.61294 16.82972 48.01102 3.11059 98.31452-10.41361 144.45504-4.20743 5.89137.79243 7.06225 7.25539 10.23289 9.45372 5.28008 3.66089 9.90953 2.30096 14.4403 6.85656 4.87732 4.90404 5.14261 11.75481 8.98624 17.50497 1.71456 2.56502 3.68238 5.16323 5.29824 7.79154 3.99769 6.50249 3.60388 23.00491 4.0516 38.17851.2218 7.51707-9.15305 16.39062-12.62229 23.06295-2.61672 5.03269-2.78037 10.96563-6.90849 14.85585-6.77894 6.38827-16.86451 6.87777-25.81595 9.45373-19.03282 5.47708-38.21933 19.48123-57.50152 14.95975-35.1669-8.24628-47.60926-59.44216-81.8111-71.05879-22.02532-7.48088-47.87254-3.95011-69.65632 4.20743-29.65619 11.10558-47.34834 43.02192-75.26621 57.96901z" transform="translate(130.67384 -32.375455)"/>
  <path style="fill:url(#p);fill-opacity:1;stroke:none" d="M321.32242 538.16058c40.17849-17.31978 67.56376-7.8347 90.3818 11.2198 44.92579-2.47048 67.32999 11.43838 75.73371 35.5294 27.48028 5.51993 47.04739 17.21214 33.34776 54.8524 1.47394 19.01053.15164 38.13757-18.07636 57.96901 2.70106 21.84255-69.3966 38.2274-87.26518 2.49329-13.34831-6.83751-24.01585-18.30338-24.62124-28.04952-10.02679 2.32052-9.89684 2.91379-33.97109-5.29824-13.04913 6.64425-23.45528 26.50338-40.20432 14.64808 3.26265 48.24361-21.59831 51.21504-52.04744 45.1909-35.81445-5.06733-35.06619-27.07835-38.02269-47.37253-31.37102-56.2511-11.73045-64.61378-4.98658-85.08355 8.84792-22.76507 24.12067-33.26455 42.07428-38.64601 16.45882-18.04184 35.38393-25.16154 57.65735-17.45303z" transform="translate(130.67384 -32.375455)"/>
  <path style="fill:#7c5351;fill-opacity:1;stroke:none" d="M454.40182 671.23998c-22.38504 10.11807-41.40073 29.3945-59.95482 25.35319-6.72648-1.46511-1.41175-12.58065 1.98581-40.31294-9.48597 9.34984-8.9025 38.40627-18.67652 39.0486-7.56782.49734 18.7246-23.15387-31.81262-44.34684 40.0701 25.43527 21.50846 62.80421-8.41486 10.28482 0 0 1.20588 15.63216-2.00003 12.63985-18.31163-17.09154-25.41416-17.47034-18.88128-40.06605-7.56722 6.19438-6.7893 18.11924-9.9311 19.48037-2.94713 1.27679-12.29889-5.98344-21.85836-1.40401 0 0 29.62577 5.00879 48.65918 30.84283 13.34619 18.11477-25.90789-9.12511-41.49096-6.22158 19.09385 10.85279 35.39174 15.57897 34.50673 17.7286-.58032 1.40956-13.22376-2.34032-28.27351.0361 91.61383 17.60073 48.21964 42.14984 32.41278 85.70688l74.17541-.31166c-13.16644-35.71154-23.33341-42.2452-16.28717-56.60392 12.48352-25.43872 46.8692-25.7195 65.84132-51.85424z" transform="translate(130.67384 -32.375455)"/>
  <path style="fill:url(#q);fill-opacity:1;stroke:none" d="M200.98015 880.80343c-31.34815 2.30486-66.86136 7.26133-71.90625 30.59375 2.87395 18.50461 34.94782 18.32874 53.125 15.375 32.31917-5.6733 47.18451-24.18306 18.78125-45.96875z" transform="translate(130.67384 -32.375455)"/>
  <path style="fill:url(#r);fill-opacity:1;stroke:none" d="M79.17018 631.02996c17.32145 10.70357 36.36483 18.99644 44.00815 43.2494 6.20624-8.44376 13.39513-13.93959 21.6247-16.31337 49.81991 58.89619-5.00531 80.63403-22.76284 91.43074l-70.18542-18.58965c7.55899-32.90224 7.91047-64.1412 27.31541-99.77712z" transform="translate(130.67384 -32.375455)"/>
  <path style="fill:url(#s);fill-opacity:1;stroke:#fff;stroke-width:1px;stroke-linecap:butt;stroke-linejoin:miter;stroke-opacity:1" d="M15.33725 649.74608c5.68081-31.11437 25.51905-18.67744 24.7862-2.78213 25.83051 3.72247 23.9955 29.75466 2.78212 29.84461 3.72356 24.21446-32.29033 34.4472-29.08585 1.26461-26.99618.51374-22.38111-34.4963 1.51753-28.32709z" transform="translate(130.67384 -32.375455)"/>
  <path style="fill:url(#t);fill-opacity:1;stroke:none" d="M-72.3924 725.87513c46.77966-54.6792 74.41696-10.16622 105.27814 17.6412-34.79098 40.72832-65.08282 29.41519-105.27814-17.6412z" transform="translate(130.67384 -32.375455)"/>
  <path style="fill:url(#u);fill-opacity:1;stroke:none" d="M183.12048 794.92241c-63.42978-76.42103-62.63091-90.35554-185.30637-83.63236 23.01576 17.94686 40.13004 54.0294 63.1458 84.01174 50.89468-5.94046 84.62212-2.07106 122.16057-.37938z" transform="translate(130.67384 -32.375455)"/>
  <path style="fill:#faf407;fill-opacity:1;stroke:none" d="M200.98015 880.80343c23.96126 17.99412 16.1264 36.39993-9.84375 44 29.22194-7.17114 35.51979-22.97253 39.20611-45.35557-7.57099.61475-20.1479.67808-29.36236 1.35557z" transform="translate(130.67384 -32.375455)"/>
  <path d="M63.76455 673.44909c30.44486-28.13727 50.79867 18.56065 17.16849 25.07536 28.75279 28.26297-10.86992 42.6779-26.73993 14.09014-22.73022 35.13629-60.24579-4.19577-19.2627-24.12511C7.97746 659.85045 50.44 642.20266 63.76455 673.44909z" style="fill:url(#v);fill-opacity:1;stroke:#fff;stroke-width:1;stroke-linecap:butt;stroke-linejoin:miter;stroke-miterlimit:4;stroke-opacity:1;stroke-dasharray:none" transform="translate(130.67384 -32.375455)"/>
  <path d="M98.59268 873.92152c-30.52917 21.98288-63.44469-28.00301-17.16849-27.43595-19.81627-29.27464 18.37324-48.49507 30.53375-13.6686 22.05575-26.78992 52.74247 2.1724 14.11997 19.57254 26.02557 29.06056-15.34098 54.7175-27.48523 21.53201z" style="fill:url(#w);fill-opacity:1;stroke:#fff;stroke-width:1;stroke-linecap:butt;stroke-linejoin:miter;stroke-miterlimit:4;stroke-opacity:1;stroke-dasharray:none" transform="translate(130.67384 -32.375455)"/>
  <path d="M529.43288 881.02825c31.34815 2.30486 66.86136 7.26133 71.90625 30.59375-2.87395 18.50461-34.94782 18.32874-53.125 15.375-32.31917-5.6733-47.18451-24.18306-18.78125-45.96875z" style="fill:url(#x);fill-opacity:1;stroke:none" transform="translate(130.67384 -32.375455)"/>
  <path d="M529.43288 881.02825c-23.96126 17.99412-16.1264 36.39993 9.84375 44-29.22194-7.17114-35.51979-22.97253-39.20611-45.35557 7.57099.61475 20.1479.67808 29.36236 1.35557z" style="fill:#faf407;fill-opacity:1;stroke:none" transform="translate(130.67384 -32.375455)"/>
  <path d="M-6.99152 804.624c-20.4307 26.14292-37.32831-12.42626-9.32143-12.08307-21.47021-14.03047 8.37997-32.70649 15.73965-8.9313 8.144-18.81576 33.33751 3.96831 7.81975 14.80521 17.43475 21.1084-12.56354 41.36454-14.23797 6.20916z" style="fill:url(#y);fill-opacity:1;stroke:#fff;stroke-width:1;stroke-linecap:butt;stroke-linejoin:miter;stroke-miterlimit:4;stroke-opacity:1;stroke-dasharray:none" transform="translate(130.67384 -32.375455)"/>
  <path style="fill:url(#z);fill-opacity:1;stroke:#fff;stroke-width:1;stroke-linecap:butt;stroke-linejoin:miter;stroke-miterlimit:4;stroke-opacity:1;stroke-dasharray:none" d="M36.11129 809.64404c20.63997-19.07554 32.07816 10.05392 9.27872 14.47054 25.2257 17.13739-3.99695 40.06179-17.62239 12.41878-15.40986 22.47159-38.98863-3.18173-11.20431-16.69275-18.27264-19.41571 10.51466-31.37996 19.54798-10.19657z" transform="translate(130.67384 -32.375455)"/>
  <path style="fill:url(#A);fill-opacity:1;stroke:#fff;stroke-width:1;stroke-linecap:butt;stroke-linejoin:miter;stroke-miterlimit:4;stroke-opacity:1;stroke-dasharray:none" d="M41.04386 772.42529c28.59011-29.14896 48.6067 12.32194 13.96484 20.86001 30.60753 19.66368-8.84657 45.54434-26.73994 15.77628-23.91051 29.90927-51.47787-14.64981-14.03567-22.7762-24.59236-29.14487 10.45118-44.26346 26.81077-13.86009z" transform="translate(130.67384 -32.375455)"/>
  <path d="M71.90418 861.31167c-21.88899 24.17298-32.03533-11.39885-11.86458-15.66129-16.76373-17.91113 11.99629-30.89798 19.42359-9.62696 9.90496-17.07767 36.10242 1.66473 9.56335 13.61291 25.57597 24.67461-7.71128 36.03427-17.12236 11.67534z" style="fill:url(#B);fill-opacity:1;stroke:#fff;stroke-width:1;stroke-linecap:butt;stroke-linejoin:miter;stroke-miterlimit:4;stroke-opacity:1;stroke-dasharray:none" transform="translate(130.67384 -32.375455)"/>
  <path style="fill:#277e72;fill-opacity:1;stroke:#fff;stroke-width:1px;stroke-linecap:butt;stroke-linejoin:miter;stroke-opacity:1" d="M656.96693 641.65262c20.8832-.36212 32.0949-10.39573 30.72983-33.00612 6.41009.84504 9.13158 9.79449 12.87084 9.58287 1.9935-.11282 17.30113-6.91862 16.84731-18.51939 11.34039 16.30538 8.38579 20.02713 10.49619 24.11175 1.4614 2.82857 4.0876 2.71869 9.8639 7.96699l-64.49471 70.18543z" transform="translate(130.67384 -32.375455)"/>
  <path style="fill:#3d766f;fill-opacity:1;stroke:#000;stroke-width:1px;stroke-linecap:butt;stroke-linejoin:miter;stroke-opacity:1" d="m753.0767 772.41249 17.1986 31.61505c-24.8107-13.87645-31.7756 1.82-33.1326 26.80957l-4.0467-1.2646c-5.0977 28.14012-12.7379 11.36055-19.72782 6.07009.69431 13.60977-1.71608 25.92592-9.10513 36.16762-4.98856-9.5909-11.20043-15.10408-18.21027-17.95735-1.01931 7.41791-4.37634 14.50186-10.11682 21.24532l-13.15186-23.26868c6.20207 30.37267-4.16602 40.68672-9.8639 56.65418-1.30868-9.94341-9.26783-13.71138-19.98072-14.92231-12.64602 8.50441-25.29204 7.52808-37.93806 7.58761l-54.63082-105.2149 71.07065-42.99647L726.773 757.7431z" transform="translate(130.67384 -32.375455)"/>
  <path d="M601.29604 911.39227c-6.25381-36.57869-17.51671-70.32286-42-106.41628-11.15391-16.44317-114.52447-38.12775-194.11865-38.12775-79.59418 0-182.96474 21.68458-194.11865 38.12775-24.48329 36.09342-35.74619 69.83759-42 106.41628-3.04934-19.63388 156.52447-38.12775 236.11865-38.12775s239.16799 18.49387 236.11865 38.12775z" style="fill:url(#C);fill-opacity:1;stroke:none" transform="translate(130.67384 -32.375455)"/>
  <path style="fill:url(#D);fill-opacity:1;stroke:#fff;stroke-width:1;stroke-linecap:butt;stroke-linejoin:miter;stroke-miterlimit:4;stroke-opacity:1;stroke-dasharray:none" d="M120.49551 822.76836c-39.88722 29.82341-58.89212-27.49717-12.61592-26.93011-32.96813-20.67535 13.56775-48.74799 25.72826-13.92152 13.45646-31.08957 62.60637.14904 20.44298 18.05502 28.8077 34.87773-16.8585 52.18829-33.55532 22.79661z" transform="translate(130.67384 -32.375455)"/>
  <path style="fill:#0a8b51;fill-opacity:1;stroke:#fff;stroke-width:1px;stroke-linecap:butt;stroke-linejoin:miter;stroke-opacity:1" d="M670.24525 700.07724c8.08817-32.01991 21.60136-60.15127 65.63285-62.21842l-.084 15.42814c10.5698-8.1609 18.3006-6.85813 26.2616-6.32301 8.1726 17.33821 5.5225 18.93384-12.899 36.04116 9.5172-6.14168 19.4282-11.82115 39.0762-6.07009-3.6672 5.37458-6.0192 10.96836-12.1401 15.93399 9.2318-.59495 26.3715-10.95042 35.2824 23.5216-11.7486 16.21982-27.261 12.67895-42.4907 10.62266l4.3418 11.55003-22.0883-.29507 12.4352 13.0254c-3.6876 2.36232-7.6237 4.22743-11.7608 5.69071l10.159 21.24532c-9.6619-.69329-21.1833-.53276-28.58-3.1615-2.1451-.76234-5.2622.65341-9.7796 2.86643l.1264-11.84511c-7.42939 3.58309-3.89687 10.61705-10.62263 15.93399l-4.38396-14.33216-20.27578 17.74658-14.41647-23.14222z" transform="translate(130.67384 -32.375455)"/>
  <path style="fill:#3d766f;fill-opacity:1;stroke:#fff;stroke-width:1px;stroke-linecap:butt;stroke-linejoin:miter;stroke-opacity:1" d="M680.48853 723.59884 669.61295 649.999c-1.89054-12.79414-31.10922-27.56833-31.10922-27.56833-.0806 6.22526.86999 12.6224-3.03504 18.21027-7.2833-25.82043-19.92423-21.72499-30.43476-18.04165 0 0 11.43833 12.87622 7.75623 18.12596-1.7053 2.43132-2.28172 4.08615-.33723 8.51498l-13.40479-1.18029c5.00801 7.38121 14.07044 13.60401 22.00408 20.14933-32.4814-12.7932-47.65576-11.26334-54.12497-2.52921l19.98071 22.76284c-12.21536 4.37198-24.07444 4.3261-38.4439 35.40886 15.09092-5.20018 30.18183-8.95571 45.27275-10.11681l-18.80041 17.11428z" transform="translate(130.67384 -32.375455)"/>
  <path d="M540.4233 794.92241c63.42978-76.42103 62.63091-90.35554 185.3064-83.63236-23.01579 17.94686-40.13007 54.0294-63.14583 84.01174-50.89468-5.94046-84.62212-2.07106-122.16057-.37938z" style="fill:url(#E);fill-opacity:1;stroke:none" transform="translate(130.67384 -32.375455)"/>
  <path style="fill:url(#F);fill-opacity:1;stroke:none" d="M791.38806 749.03967c0 8.27629-6.70925 14.98554-14.98553 14.98554-8.27629 0-14.98554-6.70925-14.98554-14.98554 0-8.27628 6.70925-14.98553 14.98554-14.98553 8.27628 0 14.98553 6.70925 14.98553 14.98553z" transform="matrix(1.049 0 0 1.049 -40.65137 -35.9034867)"/>
  <path style="fill:url(#G);fill-opacity:1;stroke:none" d="M791.38806 749.03967c0 8.27629-6.70925 14.98554-14.98553 14.98554-8.27629 0-14.98554-6.70925-14.98554-14.98554 0-8.27628 6.70925-14.98553 14.98554-14.98553 8.27628 0 14.98553 6.70925 14.98553 14.98553z" transform="matrix(1.049 0 0 1.049 -63.79359 -19.969499)"/>
  <path transform="matrix(1.18402 0 0 1.18402 -138.18487 -109.415109)" d="M791.38806 749.03967c0 8.27629-6.70925 14.98554-14.98553 14.98554-8.27629 0-14.98554-6.70925-14.98554-14.98554 0-8.27628 6.70925-14.98553 14.98554-14.98553 8.27628 0 14.98553 6.70925 14.98553 14.98553z" style="fill:url(#H);fill-opacity:1;stroke:none"/>
  <path transform="matrix(1.049 0 0 1.049 -92.24714 -32.10968009)" d="M791.38806 749.03967c0 8.27629-6.70925 14.98554-14.98553 14.98554-8.27629 0-14.98554-6.70925-14.98554-14.98554 0-8.27628 6.70925-14.98553 14.98554-14.98553 8.27628 0 14.98553 6.70925 14.98553 14.98553z" style="fill:url(#I);fill-opacity:1;stroke:none"/>
  <path style="fill:url(#J);fill-opacity:1;stroke:none" d="M791.38806 749.03967c0 8.27629-6.70925 14.98554-14.98553 14.98554-8.27629 0-14.98554-6.70925-14.98554-14.98554 0-8.27628 6.70925-14.98553 14.98554-14.98553 8.27628 0 14.98553 6.70925 14.98553 14.98553z" transform="matrix(.99399 0 0 .99399 -77.76238 3.332973)"/>
  <path transform="matrix(.99399 0 0 .99399 30.74049 9.782444)" d="M791.38806 749.03967c0 8.27629-6.70925 14.98554-14.98553 14.98554-8.27629 0-14.98554-6.70925-14.98554-14.98554 0-8.27628 6.70925-14.98553 14.98554-14.98553 8.27628 0 14.98553 6.70925 14.98553 14.98553z" style="fill:url(#K);fill-opacity:1;stroke:none"/>
  <path style="fill:url(#L);fill-opacity:1;stroke:none" d="M791.38806 749.03967c0 8.27629-6.70925 14.98554-14.98553 14.98554-8.27629 0-14.98554-6.70925-14.98554-14.98554 0-8.27628 6.70925-14.98553 14.98554-14.98553 8.27628 0 14.98553 6.70925 14.98553 14.98553z" transform="matrix(.99399 0 0 .99399 61.8497 7.126779)"/>
  <path transform="matrix(1.049 0 0 1.049 -1.57516 -7.449937)" d="M791.38806 749.03967c0 8.27629-6.70925 14.98554-14.98553 14.98554-8.27629 0-14.98554-6.70925-14.98554-14.98554 0-8.27628 6.70925-14.98553 14.98554-14.98553 8.27628 0 14.98553 6.70925 14.98553 14.98553z" style="fill:url(#M);fill-opacity:1;stroke:none"/>
  <path style="fill:url(#N);fill-opacity:1;stroke:none" d="M791.38806 749.03967c0 8.27629-6.70925 14.98554-14.98553 14.98554-8.27629 0-14.98554-6.70925-14.98554-14.98554 0-8.27628 6.70925-14.98553 14.98554-14.98553 8.27628 0 14.98553 6.70925 14.98553 14.98553z" transform="matrix(1.18402 0 0 1.18402 -215.57852 -44.920397)"/>
  <path style="fill:url(#O);fill-opacity:1;stroke:none" d="M791.38806 749.03967c0 8.27629-6.70925 14.98554-14.98553 14.98554-8.27629 0-14.98554-6.70925-14.98554-14.98554 0-8.27628 6.70925-14.98553 14.98554-14.98553 8.27628 0 14.98553 6.70925 14.98553 14.98553z" transform="matrix(1.12495 0 0 1.12495 -27.9157 -59.786456)"/>
  <path style="fill:url(#P);fill-opacity:1;stroke:none" d="M791.38806 749.03967c0 8.27629-6.70925 14.98554-14.98553 14.98554-8.27629 0-14.98554-6.70925-14.98554-14.98554 0-8.27628 6.70925-14.98553 14.98554-14.98553 8.27628 0 14.98553 6.70925 14.98553 14.98553z" transform="matrix(1.049 0 0 1.049 -.8164 20.624232)"/>
  <path transform="matrix(1.12495 0 0 1.12495 -94.30732 -33.6091903)" d="M791.38806 749.03967c0 8.27629-6.70925 14.98554-14.98553 14.98554-8.27629 0-14.98554-6.70925-14.98554-14.98554 0-8.27628 6.70925-14.98553 14.98554-14.98553 8.27628 0 14.98553 6.70925 14.98553 14.98553z" style="fill:url(#Q);fill-opacity:1;stroke:none"/>
  <path style="fill:url(#R);fill-opacity:1;stroke:none" d="M791.38806 749.03967c0 8.27629-6.70925 14.98554-14.98553 14.98554-8.27629 0-14.98554-6.70925-14.98554-14.98554 0-8.27628 6.70925-14.98553 14.98554-14.98553 8.27628 0 14.98553 6.70925 14.98553 14.98553z" transform="matrix(.99399 0 0 .99399 -20.09652 46.961749)"/>
  <path style="fill:url(#S);fill-opacity:1;stroke:none" d="M791.38806 749.03967c0 8.27629-6.70925 14.98554-14.98553 14.98554-8.27629 0-14.98554-6.70925-14.98554-14.98554 0-8.27628 6.70925-14.98553 14.98554-14.98553 8.27628 0 14.98553 6.70925 14.98553 14.98553z" transform="matrix(.99399 0 0 .99399 -43.61812 35.200949)"/>
  <path transform="matrix(.94336 0 0 .94336 -6.96227 97.027985)" d="M791.38806 749.03967c0 8.27629-6.70925 14.98554-14.98553 14.98554-8.27629 0-14.98554-6.70925-14.98554-14.98554 0-8.27628 6.70925-14.98553 14.98554-14.98553 8.27628 0 14.98553 6.70925 14.98553 14.98553z" style="fill:url(#T);fill-opacity:1;stroke:none"/>
  <path style="fill:url(#U);fill-opacity:1;stroke:none" d="M791.38806 749.03967c0 8.27629-6.70925 14.98554-14.98553 14.98554-8.27629 0-14.98554-6.70925-14.98554-14.98554 0-8.27628 6.70925-14.98553 14.98554-14.98553 8.27628 0 14.98553 6.70925 14.98553 14.98553z" transform="matrix(.94336 0 0 .94336 16.55933 113.341355)"/>
  <path transform="matrix(1.12495 0 0 1.12495 -99.99803 -1.741215)" d="M791.38806 749.03967c0 8.27629-6.70925 14.98554-14.98553 14.98554-8.27629 0-14.98554-6.70925-14.98554-14.98554 0-8.27628 6.70925-14.98553 14.98554-14.98553 8.27628 0 14.98553 6.70925 14.98553 14.98553z" style="fill:url(#V);fill-opacity:1;stroke:none"/>
  <path transform="matrix(1.12495 0 0 1.12495 -137.17733 4.328876)" d="M791.38806 749.03967c0 8.27629-6.70925 14.98554-14.98553 14.98554-8.27629 0-14.98554-6.70925-14.98554-14.98554 0-8.27628 6.70925-14.98553 14.98554-14.98553 8.27628 0 14.98553 6.70925 14.98553 14.98553z" style="fill:url(#W);fill-opacity:1;stroke:none"/>
  <path style="fill:url(#X);fill-opacity:1;stroke:none" d="M791.38806 749.03967c0 8.27629-6.70925 14.98554-14.98553 14.98554-8.27629 0-14.98554-6.70925-14.98554-14.98554 0-8.27628 6.70925-14.98553 14.98554-14.98553 8.27628 0 14.98553 6.70925 14.98553 14.98553z" transform="matrix(1.12495 0 0 1.12495 -202.81019 .91445)"/>
  <path transform="matrix(.99399 0 0 .99399 -83.83247 118.664695)" d="M791.38806 749.03967c0 8.27629-6.70925 14.98554-14.98553 14.98554-8.27629 0-14.98554-6.70925-14.98554-14.98554 0-8.27628 6.70925-14.98553 14.98554-14.98553 8.27628 0 14.98553 6.70925 14.98553 14.98553z" style="fill:url(#Y);fill-opacity:1;stroke:none"/>
  <path style="font-size:60px;font-style:normal;font-variant:normal;font-weight:400;font-stretch:normal;line-height:125%;letter-spacing:-.05px;word-spacing:0;fill:#fff;stroke:#000;stroke-width:1;stroke-miterlimit:4;stroke-dasharray:none;font-family:Arial;-inkscape-font-specification:Arial" d="M506.7885 856.20034v-37.88086l-14.15039-3.68069v-5.06836l34.04297 8.855v5.06836l-14.20899-3.69593v37.88086zm-54.2957-12.2537v-42.94922l5.83008 1.31131 22.55859 38.79462v-33.7207l5.44922 1.22565v42.94922l-5.83008-1.31131-22.55859-38.82392v33.75zm-39.85234-3.82448v-42.94922l31.05468 2.85487v5.06836l-25.37109-2.33238v13.15429l23.75977 2.18425v5.03907l-23.75977-2.18425v14.61914l26.36719 2.42395v5.06836zm-40.5396-2.26944V794.9035l5.6836.17427v21.29883l21.32812-20.64487 7.70508.23625-18.01758 16.84989 18.8086 26.12359-7.5-.22997-15.29297-22.20719-7.03125 6.63987v14.88282zm-43.53888.70199v-42.94922l5.68359-.0262v17.63672l22.32422-.1029v-17.63672l5.6836-.0262v42.94922l-5.6836.0262v-20.24414l-22.32422.1029v20.24414zm-42.37737-9.12905 5.36133-1.00474c.2539 2.12306.84472 3.82668 1.77246 5.11086.92773 1.28422 2.36815 2.2535 4.32129 2.90783 1.95311.65435 4.15037.85948 6.5918.61539 2.16794-.21672 4.082-.73037 5.74218-1.54088 1.66013-.8105 2.89548-1.8178 3.70606-3.02188.81052-1.20408 1.21579-2.47017 1.21582-3.79831-.00003-1.34764-.39066-2.48535-1.17188-3.41312-.78127-.92774-2.07034-1.64358-3.86718-2.14755-1.15237-.33399-3.7012-.77741-7.64649-1.33026-3.94532-.5528-6.70899-1.17006-8.29101-1.85176-2.05079-.86916-3.57911-2.04937-4.58496-3.54064-1.00587-1.4912-1.5088-3.22314-1.50879-5.19583-.00001-2.16793.61523-4.25582 1.8457-6.26363 1.23046-2.00774 3.02734-3.61806 5.39063-4.83093 2.36326-1.21278 4.99021-1.9637 7.88085-2.25273 3.18358-.31824 5.99119-.0862 8.42286.69598 2.43161.78233 4.30172 2.10416 5.61035 3.96547 1.30856 1.8614 2.01168 4.04697 2.10937 6.5567l-5.44922.95493c-.29299-2.6855-1.2842-4.63719-2.97363-5.85503-1.68948-1.21778-4.18459-1.66169-7.48535-1.33173-3.43752.34371-5.9424 1.22402-7.51465 2.64094-1.57227 1.41698-2.35841 3.01413-2.3584 4.79144-.00001 1.543.55663 2.75688 1.66992 3.64165 1.09374.88678 3.95018 1.62171 8.56934 2.20479 4.61912.58315 7.78806 1.17941 9.50684 1.7888 2.49996.90242 4.34567 2.17785 5.53711 3.82629 1.19137 1.6485 1.78707 3.62508 1.78711 5.92975-.00004 2.28517-.65434 4.50389-1.9629 6.6562-1.30862 2.15231-3.1885 3.91251-5.63964 5.28063-2.4512 1.36811-5.20999 2.20544-8.27637 2.512-3.88674.38859-7.14357.14782-9.77051-.72239-2.62696-.87017-4.68751-2.36827-6.18164-4.49429-1.49414-2.12601-2.28028-4.62065-2.3584-7.48395zm-46.06572 1.40455c0-7.12888 1.91406-13.02275 5.74219-17.68163 3.82811-4.6588 8.76952-7.48299 14.82422-8.47256 3.96482-.64796 7.53903-.28483 10.72266 1.08935 3.18355 1.37427 5.61031 3.61926 7.28027 6.73498 1.66988 3.11577 2.50484 6.82209 2.50488 11.11893-.00004 4.3555-.87895 8.39562-2.63672 12.12037-1.75785 3.72481-4.24808 6.73434-7.4707 9.02858-3.22269 2.29428-6.69924 3.74625-10.42969 4.35593-4.04298.66075-7.65626.27472-10.83984-1.15811-3.1836-1.43281-5.59571-3.7046-7.23633-6.81539-1.64063-3.11076-2.46094-6.5509-2.46094-10.32045zm5.85938-.86972c-.00001 5.1758 1.39159 9.02551 4.1748 11.54914 2.78319 2.52367 6.2744 3.44234 10.47364 2.75604 4.27731-.69905 7.79782-2.77831 10.56152-6.23782 2.76364-3.45946 4.14547-7.95287 4.14551-13.48024-.00004-3.49605-.59086-6.45126-1.77246-8.8656-1.18168-2.41427-2.91019-4.15325-5.18555-5.21696-2.27542-1.06363-4.82913-1.36403-7.66113-.90123-4.02346.65759-7.48537 2.60522-10.38574 5.84288-2.90041 3.23772-4.3506 8.08897-4.35059 14.55379zm-29.1132 27.79667V819.8763l-14.15039 3.22868v-5.06836l34.04296-7.76754v5.06836l-14.20898 3.24204v37.88086z" transform="translate(130.67384 -32.375455)"/>
</svg>
