<svg height="316.227766" viewBox="0 0 447 447" width="316.227766" xmlns="http://www.w3.org/2000/svg"><path d="m210.402344.679688c24.90625-1.4375 50.109375 1.242187 74.125 8.085937 35.625 10.074219 68.617187 29.273437 95.011718 55.171875 23.917969 23.371094 42.523438 52.097656 53.835938 83.550781 19.347656 53.039063 17.464844 113.421875-5.210938 165.121094-15.132812 34.828125-39.394531 65.640625-69.660156 88.613281-34.234375 26.144532-76.210937 42.019532-119.175781 44.898438-31.707031 2.28125-63.90625-2.230469-93.726563-13.398438-32.992187-12.253906-63.011718-32.492187-86.726562-58.492187-25.007812-27.238281-43.117188-60.777344-52-96.699219-6.597656-26.347656-8.183594-53.933594-4.960938-80.871094 4.121094-35.03125 16.871094-68.964844 36.667969-98.140625 19.796875-29.273437 46.589844-53.730469 77.546875-70.75 28.878906-15.925781 61.328125-25.203125 94.273438-27.089843zm-1.589844 3.820312c-44.554688 2.828125-88.019531 19.796875-122.75 47.828125-26.492188 21.285156-47.976562 48.773437-62.167969 79.683594-13.792969 29.964843-20.589843 63.007812-19.847656 95.953125.449219 23.46875 4.714844 46.835937 12.554687 68.964844 12.105469 34.234374 32.894532 65.292968 59.886719 89.554687 24.460938 22.128906 53.933594 38.652344 85.636719 47.828125 32.398438 9.425781 66.929688 11.261719 100.125 5.308594 40.4375-7.09375 78.640625-25.996094 108.90625-53.632813 29.421875-26.640625 51.449219-61.472656 62.761719-99.527343 9.132812-30.5625 11.515625-63.160157 6.847656-94.714844-4.414063-30.761719-15.527344-60.480469-32.347656-86.578125-19.101563-29.867188-45.597657-54.972657-76.410157-72.488281-37.109374-21.28125-80.574218-31.15625-123.195312-28.179688zm0 0" fill="#c0a267"/><path d="m129.726562 50.640625c3.472657 3.425781 7.042969 6.949219 11.609376 8.882813 4.117187 1.933593 8.78125 1.539062 13.148437 1.390624 6.300781-.398437 12.601563-.796874 18.902344-.546874 1.835937 0 3.769531.199218 5.410156-.644532 1.289063-.546875 1.933594-1.886718 2.777344-2.878906-1.242188.199219-2.480469.695312-3.769531.546875-1.539063-.546875-1.390626-2.976563-.101563-3.722656 2.28125-1.289063 5.757813.746093 5.410156 3.425781-.398437 1.488281-1.6875 2.480469-2.730469 3.570312 5.90625.25 11.808594.59375 17.5625 1.785157-5.007812.597656-10.070312.992187-15.082031 1.441406-3.769531.394531-7.292969 2.132813-10.21875 4.464844-2.929687 2.378906-6.300781 4.167969-9.972656 4.960937-5.558594 1.238282-11.214844-.148437-16.472656-2.035156-9.972657 6.054688-19.300781 13.199219-27.6875 21.335938-7.539063 7.390624-14.585938 15.429687-20.292969 24.359374 3.769531-2.53125 7.441406-5.257812 11.511719-7.34375 7.890625-4.214843 17.019531-6.398437 25.949219-5.355468 13.546874 1.386718 25.601562 9.078125 39.246093 10.21875 4.566407.445312 9.078125-.347656 13.542969-1.242188-10.914062 6.949219-22.921875 12.851563-35.917969 14.488282-6.054687.746093-12.257812.25-18.210937-1.238282-7.292969-1.738281-14.140625-4.960937-21.484375-6.351562-5.457031-1.042969-11.164063-.746094-16.421875 1.042968-1.191406.347657-2.035156 1.339844-2.628906 2.332032-4.914063 8.335937-9.179688 17.066406-12.453126 26.144531-10.371093 28.429687-11.808593 60.035156-3.871093 89.257813 4.515625 16.769531 12.054687 32.695312 22.078125 46.886718 8.484375 12.15625 18.902344 22.921875 30.414062 32.25-6.597656 2.878906-13.046875 6.050782-19.199218 9.726563-13.347657-12.902344-24.414063-28.234375-32.699219-44.855469-20.589844-41.128906-23.46875-90.792969-7.292969-133.910156 1.09375-3.472656 3.273438-6.648438 3.324219-10.367188-.695313.941406-1.386719 1.835938-1.933594 2.875-2.929687 6.152344-5.65625 12.453125-7.890625 18.90625-10.21875 28.972656-12.402344 60.628906-6.5 90.742188 6.105469 31.359375 21.238281 60.828125 43.316406 83.953125-3.96875 3.765625-7.839844 7.636719-11.511718 11.703125-9.226563-9.96875-17.363282-21.03125-24.113282-32.84375-17.710937-30.660156-26-66.632813-23.714844-102.007813 2.03125-34.679687 14.386719-68.714843 35.125-96.550781 1.640626-2.183594 1.789063-5.007812 2.382813-7.589844 2.183594-10.121094 5.109375-20.390625 11.113281-28.976562 1.886719-2.828125 4.316406-5.207032 6.300782-7.9375 2.484374-2.578125 5.410156-4.664063 8.1875-6.894532 1.140624-.84375 2.234374-1.835937 3.523437-2.480468l.894531-.398438c-1.339844 2.53125-2.976562 4.910156-4.269531 7.441406-3.671875 7.046876-5.355469 14.984376-6.351563 22.824219 3.128907-2.480469 6.054688-5.160156 9.230469-7.542969 9.476563-7.390624 19.945313-13.394531 30.960938-18.207031-1.6875-1.191406-3.425781-2.382812-4.714844-4.070312-2.429687-3.074219-3.621094-7.042969-4.414063-10.964844zm32.746094 12.851563c-1.539062 0-3.078125.050781-4.566406.148437 2.976562.84375 5.953125 1.785156 9.082031 2.183594 3.125.347656 6.152344-.644531 8.980469-1.738281-.84375-.59375-1.636719-1.238282-2.480469-1.882813-3.671875.59375-7.296875 1.339844-11.015625 1.289063zm0 0" fill="#c0a267"/><path d="m349.027344 318.265625c2.136718-3.671875 6.203125-6.054687 10.417968-6.253906 4.914063-.148438 9.976563 1.242187 13.894532 4.269531 5.457031 4.117188 8.183594 11.113281 8.136718 17.808594.101563 4.765625-1.390624 9.328125-3.324218 13.597656-2.480469 4.066406-5.902344 7.441406-9.027344 10.964844-9.382812 10.070312-19.847656 19.050781-31.011719 27.089844-2.730469 2.332031-5.90625 4.019531-8.929687 5.953124-10.621094 6.746094-21.933594 12.355469-33.640625 16.96875-4.765625 2.28125-9.925781 3.523438-14.9375 5.109376-15.972657 4.761718-32.496094 7.839843-49.167969 8.285156-19.648438.695312-39.394531-1.390625-58.398438-6.351563-32.199218-8.335937-62.117187-25.054687-86.230468-47.976562 4.066406-5.507813 8.683594-10.617188 13.792968-15.132813 11.609376-10.269531 26.195313-16.964844 41.429688-19.648437 20.339844-3.671875 41.277344-1.039063 61.175781 4.066406 17.464844 4.417969 34.136719 11.414063 51.105469 17.320313 16.519531 5.707031 33.289062 10.914062 50.605469 13.347656 15.382812 2.179687 31.355469 1.683594 46.246093-3.078125 8.730469-3.078125 14.980469-10.765625 18.949219-18.855469 1.242188-2.628906 2.730469-5.65625 1.785157-8.632812-.640626-2.035157-3.023438-2.925782-4.960938-2.28125-2.328125.597656-4.511719 1.882812-6.996094 1.835937-4.363281.148437-8.679687-2.285156-10.863281-6.105469-2.234375-3.667968-2.285156-8.582031-.050781-12.300781zm0 0" fill="#c0a267"/><g fill="#dbd0a3"><path d="m128.089844 49.203125c29.667968-16.324219 63.554687-24.757813 97.394531-24.359375 34.828125.296875 69.511719 9.972656 99.429687 27.832031 27.539063 16.324219 51.003907 39.394531 67.773438 66.632813 17.566406 28.429687 27.785156 61.375 29.273438 94.765625 1.636718 33.441406-5.355469 67.277343-20.242188 97.292969-5.605469 11.363281-12.304688 22.128906-19.945312 32.203124-1.042969 1.484376-2.234376 2.925782-3.621094 4.164063 1.933594-4.265625 3.425781-8.878906 3.324218-13.59375.046876-6.746094-2.679687-13.691406-8.136718-17.8125-3.917969-3.023437-8.980469-4.414063-13.894532-4.265625-4.214843.148438-8.28125 2.582031-10.417968 6.25-2.234375 3.722656-2.183594 8.632812.050781 12.308594 2.183594 3.765625 6.5 6.199218 10.863281 6.097656 2.484375.050781 4.667969-1.1875 6.996094-1.835938 1.9375-.640624 4.320312.253907 4.960938 2.285157.992187 2.976562-.542969 5.953125-1.785157 8.632812-3.96875 8.085938-10.21875 15.777344-18.949219 18.855469-14.890624 4.761719-30.863281 5.257812-46.246093 3.074219-17.316407-2.480469-34.132813-7.640625-50.605469-13.347657-17.019531-5.902343-33.640625-12.949218-51.105469-17.3125-19.847656-5.113281-40.785156-7.742187-61.175781-4.070312-15.234375 2.679688-29.820312 9.425781-41.429688 19.648438-5.160156 4.515624-9.773437 9.625-13.792968 15.132812-22.03125-21.085938-39.394532-47.136719-49.863282-75.8125-7.144531-19.398438-11.164062-39.890625-11.957031-60.53125-1.242187-30.511719 4.613281-61.273438 17.164063-89.109375 11.613281-25.898437 28.828125-49.214844 50.113281-67.921875 1.339844-1.289062 2.730469-2.527344 4.414063-3.324219-1.984376 2.730469-4.414063 5.113281-6.300782 7.941407-6.050781 8.582031-8.929687 18.851562-11.113281 28.972656-.59375 2.582031-.742187 5.410156-2.382813 7.59375-20.738281 27.882812-33.042968 61.867187-35.125 96.546875-2.285156 35.328125 6.003907 71.296875 23.714844 102.007812 6.796875 11.808594 14.886719 22.824219 24.113282 32.847657 3.671874-4.070313 7.542968-7.9375 11.511718-11.710938-22.03125-23.121094-37.210937-52.589844-43.316406-83.945312-5.902344-30.117188-3.71875-61.773438 6.5-90.746094 2.234375-6.453125 4.960938-12.753906 7.890625-18.90625.546875-.992188 1.238281-1.933594 1.933594-2.875-.050781 3.769531-2.230469 6.894531-3.324219 10.367187-16.175781 43.117188-13.296875 92.78125 7.292969 133.910157 8.285156 16.621093 19.351562 31.953124 32.699219 44.851562 6.199218-3.667969 12.601562-6.84375 19.199218-9.722656-11.511718-9.328125-21.929687-20.09375-30.414062-32.25-10.023438-14.191406-17.515625-30.117188-22.078125-46.886719-7.9375-29.222656-6.5-60.828125 3.871093-89.257813 3.273438-9.078124 7.539063-17.859374 12.453126-26.144531.59375-1.042969 1.4375-2.035156 2.628906-2.332031 5.257812-1.785156 10.964844-2.085938 16.421875-1.042969 7.34375 1.4375 14.191406 4.613281 21.484375 6.351563 5.902344 1.488281 12.105468 1.984375 18.210937 1.238281 12.996094-1.636719 25.003907-7.539063 35.917969-14.484375-4.464844.890625-8.976562 1.683594-13.542969 1.238281-13.644531-1.140625-25.652343-8.78125-39.246093-10.21875-8.980469-1.042969-18.058594 1.140625-25.949219 5.355469-4.070313 2.035156-7.742188 4.8125-11.511719 7.34375 5.707031-8.929688 12.753906-16.917969 20.292969-24.359375 8.386719-8.136719 17.714843-15.28125 27.6875-21.335937 5.207031 1.9375 10.914062 3.324218 16.472656 2.035156 3.671875-.792969 7.042969-2.628906 9.972656-4.960938 2.925781-2.332031 6.449219-4.117187 10.21875-4.464844 5.0625-.449218 10.074219-.84375 15.082031-1.441406-5.753906-1.1875-11.65625-1.535156-17.5625-1.785156.992188-1.089844 2.332032-2.035156 2.730469-3.570312.394531-2.679688-3.128906-4.714844-5.410156-3.425782-1.289063.792969-1.4375 3.175782.101563 3.722656 1.289062.148438 2.527343-.347656 3.769531-.546874-.894531.992187-1.539063 2.332031-2.777344 2.878906-1.6875.84375-3.625.644531-5.410156.644531-6.300781-.25-12.601563.148437-18.902344.546875-4.417969.195312-9.082031.542969-13.148437-1.390625-4.566407-1.933594-8.136719-5.457031-11.609376-8.882813.792969 3.921876 1.984376 7.890626 4.414063 11.117188 1.242187 1.683594 2.976563 2.875 4.714844 4.066406-11.015625 4.8125-21.484375 10.816406-30.960938 18.207032-3.175781 2.382812-6.101562 5.0625-9.230469 7.542968.996094-7.839844 2.632813-15.777344 6.351563-22.824218 1.292969-2.578126 2.976563-4.910157 4.269531-7.441407l-.894531.398438c6.203125-4.863281 12.898437-8.832031 19.699219-12.652344zm93.574218-10.070313c-4.960937.542969-9.726562 2.628907-13.496093 5.851563-5.359375 4.515625-8.683594 11.265625-8.882813 18.261719-.296875 6.695312 2.234375 13.492187 6.898438 18.304687 4.8125 5.113281 11.808594 8.089844 18.804687 7.890625 6.796875-.050781 13.496094-3.078125 18.109375-8.085937 4.515625-4.816407 6.945313-11.511719 6.699219-18.109375-.199219-7.34375-3.921875-14.488282-9.773437-19.003906-5.113282-3.96875-11.859376-5.855469-18.359376-5.109376zm56.5625 18.800782c-1.140624 3.375-3.027343 6.648437-3.273437 10.273437-.050781 2.332031 1.832031 3.96875 3.621094 5.109375-.050781.941406-.546875 2.230469.496093 2.878906 1.882813 1.1875 4.117188 1.734376 6.152344 2.628907.347656-.894531.695313-1.738281 1.039063-2.628907-1.289063-.546874-2.828125-.945312-3.472657-2.285156 1.539063-.296875 3.523438 0 4.515626-1.4375 1.589843-2.332031 2.285156-5.109375 3.375-7.691406.890624-2.628906 2.382812-5.160156 2.382812-7.988281-.449219-4.265625-5.558594-6.894531-9.527344-5.953125-3.226562.84375-4.21875 4.367187-5.308594 7.09375zm20.839844-1.933594c-2.730468 5.457031-5.707031 10.816406-8.386718 16.324219-1.042969 1.984375-.644532 4.515625.941406 6.101562 2.085937 2.234375 5.359375 3.871094 8.4375 2.828125 2.03125-.695312 3.023437-2.679687 3.96875-4.464844 2.480468-4.8125 5.011718-9.574218 7.441406-14.386718-1.785156-.945313-3.621094-1.886719-5.410156-2.78125-2.726563 5.308594-5.503906 10.570312-8.234375 15.878906-.398438.792969-1.191407 2.230469-2.132813 1.191406.097656-.992187.542969-1.886718.992188-2.78125 2.628906-5.011718 5.257812-10.070312 7.886718-15.082031-1.882812-.992187-3.71875-1.933594-5.503906-2.828125zm2.378906 27.4375c1.785157 1.140625 3.523438 2.234375 5.359376 3.375.84375-1.140625 1.6875-2.234375 2.53125-3.375.59375.398438 1.238281.792969 1.835937 1.140625-.644531 1.242187-1.292969 2.53125-1.9375 3.769531 1.738281 1.09375 3.472656 2.183594 5.210937 3.324219 3.273438-7.191406 6.402344-14.4375 9.675782-21.679687-2.480469-1.636719-4.960938-3.175782-7.441406-4.761719-5.160157 6.050781-10.171876 12.152343-15.234376 18.207031zm28.28125-9.875c-4.8125 6.152344-9.625 12.304688-14.488281 18.457031 1.339844 1.042969 2.679688 2.132813 4.019531 3.125 2.183594-2.726562 4.265626-5.503906 6.449219-8.183593-1.238281 3.421874-2.679687 6.796874-3.917969 10.21875 1.390626 1.09375 2.828126 2.132812 4.214844 3.226562 4.8125-6.152344 9.628906-12.304688 14.441406-18.457031-1.339843-1.042969-2.679687-2.085938-3.972656-3.175781-2.179687 2.628906-4.117187 5.40625-6.347656 7.988281 1.140625-3.375 2.429688-6.699219 3.671875-10.070313-1.390625-1.042968-2.730469-2.085937-4.070313-3.128906zm11.113282 14.242188c-2.777344 2.332031-5.109375 5.160156-7.640625 7.6875-1.636719 1.789062-3.769531 3.722656-3.621094 6.402343 0 3.125 2.828125 5.902344 6.054687 5.359375-.148437.347656-.496093 1.089844-.644531 1.4375.941407.84375 1.835938 1.738282 2.777344 2.578125 2.878906-3.074219 5.804687-6.050781 8.632813-9.175781-1.738282-1.488281-3.226563-3.226562-5.011719-4.566406-1.09375.296875-1.738281 1.539062-2.53125 2.28125.199219.25.597656.746094.792969.945312-1.238282 1.238282-2.382813 2.777344-4.015626 3.523438-1.390624-.347656-.746093-1.738282 0-2.382813 2.777344-3.027343 5.652344-5.953125 8.433594-8.929687.742188-.746094 2.132813-2.136719 2.726563-.449219-.890625 1.441406-2.082031 2.628906-3.222657 3.871094 1.488282 1.4375 2.976563 2.777343 4.464844 4.167969 1.4375-1.6875 3.273438-3.273438 3.625-5.558594.296875-2.875-1.640625-5.503906-3.921875-7.09375-1.984375-1.390625-4.964843-1.734375-6.898437-.097656zm19.253906 13.097656c-5.90625 5.109375-11.859375 10.171875-17.761719 15.332031 1.089844 1.289063 2.230469 2.578125 3.320313 3.867187 2.582031-2.183593 5.113281-4.464843 7.742187-6.597656-1.789062 3.074219-3.773437 6.003906-5.65625 8.980469 1.140625 1.339844 2.28125 2.730469 3.425781 4.066406 6-5.058593 11.855469-10.21875 17.808594-15.28125-1.09375-1.289062-2.183594-2.578125-3.273437-3.867187-2.632813 2.183594-5.109375 4.515625-7.839844 6.597656 1.785156-3.125 3.769531-6.152344 5.558594-9.277344-1.09375-1.289062-2.234375-2.53125-3.324219-3.820312zm-8.535156 26.492187c1.191406 1.738281 2.429687 3.472657 3.671875 5.210938 1.1875-.742188 2.328125-1.4375 3.519531-2.183594.449219.597656.894531 1.191406 1.390625 1.785156-1.09375.894531-2.183594 1.789063-3.273437 2.679688 1.1875 1.738281 2.378906 3.425781 3.570312 5.113281 5.757812-5.460938 11.460938-10.917969 17.167969-16.324219-1.6875-2.433593-3.371094-4.863281-5.109375-7.246093-6.945313 3.671874-13.945313 7.296874-20.9375 10.964843zm-151.925782 12.949219c.894532 1.6875 1.789063 3.425781 2.679688 5.113281-2.183594 0-4.316406 0-6.5 0 1.636719 1.984375 3.226562 3.917969 4.863281 5.902344-1.191406 1.242187-2.28125 2.582031-3.175781 4.019531-1.4375.445313-2.925781.792969-4.265625 1.488282-1.488281.84375-2.53125 2.234374-3.574219 3.523437-.941406 0-1.882812.050781-2.828125.050781-1.933593 3.171875-5.257812 5.308594-6.449219 8.929688-.890624 0-1.785156 0-2.679687 0-.59375 4.117187-4.710937 6.351562-5.605469 10.367187-.695312.050781-1.339844.050781-1.984375.101563-.792969 1.636718-1.4375 3.324218-2.035156 5.011718-2.082031 1.535157-3.375 3.769532-4.367187 6.101563-.792969 0-1.636719 0-2.429688 0-.496094.992187-.941406 1.933594-1.4375 2.925781-.796875 0-1.640625 0-2.433594 0-.84375 2.28125-1.933594 4.464844-2.378906 6.898438-.796875-.050782-1.640625-.101563-2.433594-.199219-.046875-1.289063-.046875-2.582031-.097656-3.820313-1.9375 0-3.871094 0-5.757812 0v6.25c1.6875-.097656 3.324218.148438 4.964843.25 0 1.339844 0 2.726563-.050781 4.066407-.84375 0-1.636719 0-2.480469-.046875-1.339843 1.835937-2.929687 3.472656-4.914062 4.613281v8.085937c.398437.398438.746093.746094 1.140625 1.140626v8.386718h7.046875c.050781 8.78125 0 17.5625 0 26.34375-3.324219 0-6.648438 0-9.921875 0-.050782 12.753906 0 25.453125 0 38.203125-2.777344 0-5.609375 0-8.386719 0 0-2.675781 0-5.40625 0-8.085937-3.222656 0-6.5 0-9.722656 0v13.148437c-1.886719 0-3.722657 0-5.609375.050781 0 1.488282 0 2.976563.050781 4.511719 30.5625 0 61.125-.046875 91.691406 0 .496094-.148437 1.785157.25 1.535157-.742187.050781-47.132813 0-94.269532 0-141.402344h2.53125c0-.347656.050781-.992188.101562-1.289062h8.632812c.644532-.792969 1.289063-1.539063 1.984376-2.332032 2.035156.097656 4.117187 0 6.050781-.792968.546875-.25 1.339843-.347657 1.488281-1.042969.347656-1.441407-1.835938-2.382813-2.828125-1.441407-.34375.648438-.644531 1.339844-.941406 2.035157-2.679688-.542969-3.871094-3.273438-5.457031-5.160157 1.886718-1.984374 3.769531-3.96875 5.605468-5.953124-2.578125 0-5.160156 0-7.738281 0 1.042969-1.6875 2.132813-3.375 3.222656-5.058594-4.167969-4.019532-8.382812-7.941406-12.601562-11.910156-4.167969 3.871093-8.285157 7.839843-12.503907 11.757812zm181.945313-10.46875c-6.898437 3.671875-13.84375 7.296875-20.742187 10.917969.792968 1.585937 1.636718 3.175781 2.480468 4.710937 4.21875-2.132812 8.285156-4.511718 12.601563-6.449218-3.769531 2.929687-7.738281 5.609374-11.558594 8.484374.59375 1.09375 1.191406 2.183594 1.785156 3.273438 4.761719-1.734375 9.476563-3.570312 14.242188-5.207031-4.371094 2.429687-8.832031 4.710937-13.25 7.042969.796875 1.640624 1.636719 3.226562 2.53125 4.765624 6.898437-3.671874 13.84375-7.292968 20.742187-10.964843-1.246094-2.332031-2.484375-4.664063-3.675781-7.046875-3.324219 1.191406-6.597656 2.53125-9.96875 3.671875 2.773437-2.183594 5.703125-4.21875 8.578125-6.25-1.238281-2.285157-2.527344-4.617188-3.765625-6.949219zm1.882813 29.820312c-2.828126 1.140626-3.074219 5.507813-.445313 6.945313 2.382813 1.636719 6.050781-.296875 6.050781-3.175781.25-2.828125-3.074218-5.058594-5.605468-3.769532zm-158.421876 6.449219c-2.332031-.546875-4.617187-1.089843-6.949218-1.636719v51.054688c9.726562.199219 19.449218.394531 29.175781.59375v18.210938c-1.886719-.101563-3.769531-.25-5.65625-.347657 0-2.433593 0-4.8125 0-7.246093-2.085937 0-4.117187 0-6.203125 0v6.945312c-1.835938-.046875-3.671875-.097656-5.457031-.148438 0-2.28125 0-4.5625 0-6.796874-2.082031 0-4.117188 0-6.203125 0v6.699218c-1.882813 0-3.769532 0-5.65625 0v5.902344h5.65625v6.75c-1.882813 0-3.769532 0-5.65625-.050781 0 11.015625-.097656 22.03125.050781 33.042969.445313-3.125 1.636719-6.199219 3.871094-8.433594 5.359375-5.65625 15.03125-6.054688 21.085937-1.289063 3.523438 2.726563 5.558594 7.191407 5.457032 11.609375v22.671875c5.804687.050781 11.609374 0 17.414062.050781 0-7.195312 0-14.4375 0-21.632812 0-2.082031.300781-4.316406 1.789062-5.902344 2.578126-2.976562 7.6875-2.878906 10.21875.097656 1.488282 1.539063 1.835938 3.773438 1.789063 5.855469v21.632813c5.804687 0 11.609375.050781 17.414063-.050782-.050782-5.902343 0-11.757812-.050782-17.664062 0-1.882812.101563-3.867188 1.339844-5.40625 2.628906-3.523438 8.734375-3.472656 11.261719.148438 1.140625 1.488281 1.242187 3.425781 1.242187 5.257812-.050781 5.90625 0 11.808594 0 17.714844h51.597656c-16.222656-19.003906-36.8125-34.382813-60.03125-43.710938-.050781-8.085937 0-16.125 0-24.210937-2.085937 0-4.121093 0-6.203124 0v7.640625c-1.785157-.546875-3.574219-1.042969-5.359376-1.589844 0-6.199219 0-12.453125 0-18.652344 4.613282.742188 9.328126 1.386719 14.042969 1.039063 7.292969-.496094 14.289063-3.820313 19.648438-8.78125.59375-.792969 1.933593-1.539063 1.488281-2.679688-.648438-1.386719-2.433594-1.882812-3.871094-1.636719-1.738281.445313-3.078125 1.984376-4.914062 2.085938-3.273438.148438-6.5-1.042969-9.128906-2.878906-8.335938-5.90625-16.71875-12.253906-22.027344-21.136719-1.441406-2.53125-3.277344-4.960937-3.722656-7.890625-.398438-1.785156 1.984374-2.726562 1.984374-4.414062-.792968-1.539063-2.628906-2.230469-4.265624-2.382813-2.433594-.246094-3.078126 3.277344-5.507813 3.027344-8.433594 0-17.117187.148437-25.304687-2.183594-5.40625-1.535156-10.171876-4.613281-14.785157-7.6875.148438-1.09375.347657-2.183594.296875-3.277344-.644531-1.1875-1.6875-2.183593-2.875-2.875-3.078125-.050781-5.210937 2.480469-6.996094 4.5625zm152.816407 14.289063c.695312 2.976562 1.386719 6.003906 2.082031 8.980468 7.839844-.695312 15.679688-1.539062 23.566406-2.230468-.445312-2.085938-.890625-4.21875-1.390625-6.300782-5.308593.644532-10.613281 1.386719-15.875 2.230469 5.0625-1.738281 10.171875-3.375 15.234375-5.160156-.496094-2.082031-.945312-4.167969-1.4375-6.25-7.496094 2.828125-14.789062 5.804687-22.179687 8.730469zm2.875 12.851562c.351562 1.984375.695312 4.019532 1.09375 6.003906 7.691406-1.390624 15.378906-2.828124 23.070312-4.167968-.34375-2.035156-.695312-4.070313-1.089843-6.054688-7.691407 1.441406-15.382813 2.828125-23.074219 4.21875zm1.390625 8.234375c.398437 3.523438.84375 6.996094 1.242187 10.519531 1.539063-.199218 3.074219-.398437 4.664063-.546874-.152344-1.488282-.347656-2.976563-.496094-4.464844 1.6875-.199219 3.421875-.394532 5.109375-.59375.148437 1.238281.296875 2.480468.445313 3.769531 1.441406-.199219 2.929687-.347656 4.367187-.546875-.152344-1.289062-.25-2.527344-.347656-3.820312 1.488281-.148438 2.929687-.296876 4.414062-.496094.152344 1.339844.296875 2.679687.496094 4.019531 1.542969-.199219 3.125-.394531 4.667969-.59375-.449219-3.375-.847656-6.699219-1.246094-10.074219-7.785156.945313-15.578125 1.886719-23.316406 2.828125zm19.992187 10.121094c-.046875 1.242187-.046875 2.433594-.046875 3.671875-6.25.148438-12.453125.347656-18.703125.496094.046875 2.035156.097657 4.070312.148438 6.105468 6.25-.148437 12.503906-.347656 18.753906-.546874.046875 1.191406.101563 2.382812.148437 3.621093 1.539063-.050781 3.125-.097656 4.664063-.148437-.199219-4.414063-.050781-8.882813-.496094-13.246094-1.441406-.101562-2.925781 0-4.46875.046875zm-18.75 20.34375c-.152343 1.6875-.25 3.375-.398437 5.109375 3.324218.296875 6.597656.398438 9.921875.894531-3.371094.890625-6.792969 1.488281-10.171875 2.332031-.097656 1.785157-.246094 3.523438-.394532 5.308594 7.789063.546875 15.628907 1.238282 23.417969 1.734375.097657-1.683593.25-3.371093.347657-5.058593-3.375-.296876-6.699219-.449219-10.070313-.84375 3.421875-.992188 6.894531-1.738282 10.316406-2.582032.101563-1.683594.25-3.371094.398438-5.058594-7.742188-.695312-15.527344-1.289062-23.367188-1.835937zm-1.289062 14.4375c-.351563 2.035156-.847657 4.019531-1.046875 6.054687 1.246094.691407 2.628906.890626 4.019531 1.238282-.144531.695312-.246094 1.4375-.398437 2.132812-1.4375-.148437-2.824219-.246094-4.214844-.394531-.347656 2.03125-.742188 4.066406-1.09375 6.101563 7.890625.246093 15.828125.546874 23.71875.746093.5-2.878906 1.042968-5.808593 1.589844-8.683593-7.542969-2.382813-15.035157-4.8125-22.574219-7.195313zm-2.632813 16.175781c-.59375 1.6875-1.140625 3.324219-1.738281 5.011719 4.667969 1.683594 9.382813 3.273437 14.042969 4.960937-4.960938-.84375-9.871094-1.9375-14.785156-2.828124-.394532 1.140624-.84375 2.230468-1.089844 3.421874 4.164062 2.582032 8.832031 4.417969 13.046875 6.898438-4.710938-1.441406-9.226563-3.277344-13.941407-4.714844-.546874 1.6875-1.140624 3.375-1.6875 5.011719 7.394532 2.53125 14.738282 5.210937 22.132813 7.738281.839844-2.480468 1.734375-5.011718 2.574219-7.492187-3.269532-1.636719-6.546875-3.273438-9.824219-4.910157 3.625.644532 7.195313 1.4375 10.816406 2.082032.847657-2.480469 1.738281-4.960938 2.582031-7.441406-7.339843-2.578126-14.683593-5.257813-22.128906-7.738282zm0 0"/><path d="m206.679688 58.777344c2.183593-7.390625 9.425781-13.195313 17.214843-13.097656l.101563.25c-.101563.496093-.296875.890624-.746094 1.238281-5.554688 5.457031-11.0625 11.015625-16.570312 16.523437-.148438-.050781-.398438-.050781-.546876-.101562-.496093-1.535156.148438-3.222656.546876-4.8125zm0 0"/><path d="m225.085938 45.976562c1.589843-.59375 3.277343 0 4.8125.398438 6.152343 1.785156 11.117187 6.996094 12.703124 13.148438.296876 1.488281.894532 3.222656-.199218 4.515624-1.140625-1.441406-2.378906-2.828124-3.769532-4.070312-4.515624-4.515625-9.03125-9.078125-13.59375-13.542969.046876-.101562.046876-.347656.046876-.449219zm0 0"/><path d="m286.214844 55.007812c.496094-.097656 1.6875.050782 1.238281.792969-.84375 3.375-2.429687 6.5-3.570313 9.726563-.746093 1.6875-1.09375 3.621094-2.382812 4.960937-.695312-.050781-1.289062-.546875-.894531-1.289062.695312-2.628907 1.886719-5.0625 2.78125-7.59375.890625-2.183594 1.488281-4.5625 2.828125-6.597657zm0 0"/><path d="m215.511719 64.238281c2.976562-3.027343 6.003906-6.003906 8.980469-9.03125 3.027343 2.976563 6.054687 6.003907 9.03125 9.03125-3.027344 2.925781-5.808594 6.101563-9.03125 8.828125-3.125-2.777344-5.953126-5.902344-8.980469-8.828125zm0 0"/><path d="m162.472656 63.492188c3.71875.050781 7.34375-.695313 10.964844-1.289063.792969.644531 1.636719 1.238281 2.480469 1.882813-2.878907 1.09375-5.902344 2.136718-8.980469 1.738281-3.078125-.398438-6.054688-1.339844-9.078125-2.183594 1.535156-.097656 3.074219-.148437 4.613281-.148437zm0 0"/><path d="m206.183594 64.734375c.644531 0 1.042968.542969 1.4375.941406 3.425781 3.523438 6.949218 6.996094 10.46875 10.46875.050781 1.886719.050781 3.769531 0 5.65625-5.65625-2.132812-10.21875-7.046875-11.65625-12.949219-.199219-1.339843-.796875-2.929687-.25-4.117187zm0 0"/><path d="m242.054688 64.832031c.296874-.050781.945312-.148437 1.242187-.199219-.25 4.070313-1.539063 8.085938-4.167969 11.261719-2.085937 2.679688-5.011718 4.617188-8.136718 5.90625-.050782-1.886719-.050782-3.769531 0-5.65625 3.621093-3.769531 7.589843-7.292969 11.0625-11.3125zm0 0"/><path d="m311.46875 79.863281c1.933594-2.429687 3.820312-4.859375 5.855469-7.191406-1.242188 2.875-2.78125 5.554687-4.121094 8.382813-.542969-.445313-1.140625-.792969-1.734375-1.191407zm0 0"/><path d="m362.175781 128.042969c2.828125-1.6875 5.703125-3.226563 8.632813-4.714844-2.480469 2.132813-4.960938 4.214844-7.441406 6.351563-.398438-.546876-.796876-1.09375-1.191407-1.636719zm0 0"/><path d="m255.699219 217.296875c8.933593 1.441406 17.863281 2.929687 26.792969 4.417969v17.910156c-1.636719-.347656-3.273438-.746094-4.960938-1.089844 0-2.632812 0-5.210937 0-7.839844-2.085938 0-4.117188 0-6.203125 0v6.597657c-1.585937-.25-3.175781-.546875-4.761719-.792969 0-2.28125 0-4.566406 0-6.847656-2.085937 0-4.117187 0-6.203125 0v6.003906c-1.539062-.148438-3.074219-.25-4.5625-.644531-.199219-5.90625-.050781-11.808594-.101562-17.714844zm0 0"/><path d="m229.949219 239.425781c1.835937.050781 3.621093.101563 5.457031.148438.050781 2.28125.050781 4.566406.050781 6.847656-1.835937-.097656-3.671875-.148437-5.457031-.199219-.050781-2.28125-.050781-4.5625-.050781-6.796875zm0 0"/><path d="m241.660156 239.875c1.882813.097656 3.769532.246094 5.605469.34375v6.996094c-1.886719-.148438-3.769531-.296875-5.65625-.445313.050781-2.28125 0-4.613281.050781-6.894531zm0 0"/><path d="m255.699219 241.015625c1.539062.148437 3.078125.347656 4.613281.496094 0 2.429687.050781 4.859375 0 7.292969-1.535156-.199219-3.074219-.449219-4.613281-.644532 0-2.382812 0-4.765625 0-7.144531zm0 0"/><path d="m266.566406 242.402344c1.585938.25 3.175782.546875 4.761719.796875v7.488281c-1.585937-.296875-3.175781-.59375-4.761719-.890625 0-2.480469 0-4.960937 0-7.394531zm0 0"/><path d="m277.582031 244.386719c1.636719.347656 3.273438.746093 4.910157 1.09375v7.789062c-1.636719-.398437-3.273438-.792969-4.863282-1.191406-.097656-2.53125-.097656-5.109375-.046875-7.691406zm0 0"/><path d="m181.773438 265.226562c0-7.640624 4.367187-14.636718 10.320312-19.152343 5.703125 4.464843 10.121094 11.164062 10.21875 18.605469.101562 11.460937 0 22.972656.050781 34.484374-6.003906.046876-12.058593 0-18.058593.046876-.84375-.046876-1.6875.050781-2.484376-.195313-.148437-11.265625-.046874-22.527344-.046874-33.789063zm0 0"/><path d="m290.878906 247.761719c1.785156.546875 3.570313 1.089843 5.355469 1.6875v8.136719c-1.785156-.644532-3.570313-1.242188-5.355469-1.835938 0-2.679688 0-5.308594 0-7.988281zm0 0"/><path d="m389.117188 254.410156c3.074218.84375 6.105468 1.785156 9.179687 2.730469-3.175781-.101563-6.351563-.496094-9.527344-.695313.097657-.695312.199219-1.390624.347657-2.035156zm0 0"/></g><path d="m278.226562 57.933594c1.089844-2.726563 2.132813-6.25 5.359376-7.09375 3.917968-.941406 9.027343 1.6875 9.523437 5.953125 0 2.828125-1.488281 5.359375-2.378906 7.988281-1.09375 2.582031-1.789063 5.359375-3.375 7.691406-.992188 1.488282-2.976563 1.191406-4.515625 1.4375.695312 1.339844 2.183594 1.738282 3.472656 2.285156-.347656.890626-.695312 1.734376-1.042969 2.628907-2.03125-.894531-4.265625-1.441407-6.152343-2.628907-1.039063-.597656-.542969-1.9375-.496094-2.878906-1.785156-1.140625-3.71875-2.777344-3.621094-5.109375.199219-3.625 2.085938-6.898437 3.226562-10.273437zm7.988282-2.925782c-1.339844 2.035157-1.886719 4.414063-2.828125 6.648438-.894531 2.53125-2.132813 4.960938-2.78125 7.589844-.394531.746094.199219 1.242187.894531 1.292968 1.339844-1.339843 1.6875-3.277343 2.382812-4.964843 1.140626-3.273438 2.726563-6.398438 3.570313-9.722657.398437-.792968-.792969-.941406-1.238281-.84375zm0 0" fill="#8e5544"/><path d="m299.066406 56c1.832032.894531 3.621094 1.835938 5.457032 2.828125-2.632813 5.0625-5.210938 10.070313-7.890626 15.082031-.445312.894532-.890624 1.789063-.992187 2.78125.992187 1.039063 1.738281-.398437 2.132813-1.191406 2.78125-5.261719 5.507812-10.570312 8.238281-15.878906 1.785156.894531 3.621093 1.835937 5.40625 2.78125-2.429688 4.8125-4.960938 9.574218-7.441407 14.386718-.941406 1.785157-1.933593 3.769532-3.96875 4.464844-3.027343 1.042969-6.351562-.59375-8.4375-2.828125-1.585937-1.585937-1.980468-4.117187-.941406-6.101562 2.679688-5.507813 5.65625-10.867188 8.4375-16.324219zm0 0" fill="#8e5544"/><path d="m301.445312 83.4375c5.0625-6.054688 10.121094-12.15625 15.183594-18.207031 2.480469 1.585937 4.960938 3.125 7.441406 4.761719-3.222656 7.195312-6.351562 14.488281-9.675781 21.679687-1.734375-1.089844-3.472656-2.230469-5.207031-3.324219.644531-1.238281 1.289062-2.527344 1.933594-3.769531-.59375-.398437-1.242188-.792969-1.835938-1.140625-.84375 1.140625-1.6875 2.234375-2.53125 3.375-1.785156-1.140625-3.570312-2.234375-5.308594-3.375zm10.023438-3.574219c.59375.398438 1.140625.796875 1.734375 1.191407 1.339844-2.777344 2.878906-5.507813 4.121094-8.382813-1.984375 2.332031-3.921875 4.761719-5.855469 7.191406zm0 0" fill="#8e5544"/><path d="m329.726562 73.5625c1.339844 1.042969 2.679688 2.085938 4.019532 3.128906-1.191406 3.371094-2.53125 6.695313-3.671875 10.070313 2.234375-2.582031 4.21875-5.359375 6.351562-7.988281 1.339844 1.042968 2.628907 2.082031 3.96875 3.175781-4.8125 6.152343-9.675781 12.304687-14.4375 18.457031-1.390625-1.09375-2.777343-2.183594-4.21875-3.226562 1.242188-3.421876 2.730469-6.796876 3.921875-10.21875-2.183594 2.726562-4.269531 5.457031-6.453125 8.183593-1.339843-1.039062-2.675781-2.082031-4.015625-3.125 4.910156-6.152343 9.722656-12.304687 14.535156-18.457031zm0 0" fill="#8e5544"/><path d="m340.839844 87.804688c1.933594-1.636719 4.863281-1.292969 6.847656.097656 2.285156 1.589844 4.167969 4.167968 3.917969 7.09375-.34375 2.285156-2.183594 3.871094-3.621094 5.558594-1.488281-1.390626-3.023437-2.777344-4.460937-4.167969 1.136718-1.242188 2.328124-2.429688 3.222656-3.871094-.59375-1.6875-1.9375-.296875-2.730469.449219-2.828125 2.976562-5.65625 5.953125-8.433594 8.929687-.746093.644531-1.386719 2.035157 0 2.382813 1.636719-.796875 2.730469-2.285156 4.019531-3.523438-.199218-.25-.59375-.695312-.792968-.945312.839844-.742188 1.484375-1.933594 2.527344-2.28125 1.835937 1.390625 3.324218 3.125 5.011718 4.566406-2.824218 3.125-5.757812 6.101562-8.632812 9.175781-.945313-.839843-1.835938-1.734375-2.777344-2.578125.148438-.347656.496094-1.089844.644531-1.4375-3.226562.542969-6.003906-2.285156-6.054687-5.359375-.148438-2.679687 1.984375-4.613281 3.621094-6.402343 2.632812-2.527344 4.914062-5.355469 7.691406-7.6875zm0 0" fill="#8e5544"/><path d="m360.09375 100.902344c1.089844 1.289062 2.230469 2.53125 3.371094 3.769531-1.785156 3.125-3.769532 6.152344-5.554688 9.277344 2.679688-2.132813 5.207032-4.414063 7.835938-6.597657 1.09375 1.289063 2.234375 2.578126 3.277344 3.871094-5.957032 5.109375-11.808594 10.269532-17.8125 15.28125-1.140626-1.339844-2.285157-2.730468-3.425782-4.070312 1.9375-2.976563 3.921875-5.902344 5.65625-8.980469-2.628906 2.136719-5.160156 4.417969-7.738281 6.601563-1.09375-1.292969-2.234375-2.582032-3.324219-3.871094 5.855469-5.0625 11.808594-10.171875 17.714844-15.28125zm0 0" fill="#8e5544"/><path d="m351.558594 127.394531c6.992187-3.621093 13.992187-7.292969 20.9375-10.964843 1.738281 2.382812 3.421875 4.8125 5.109375 7.246093-5.753907 5.40625-11.460938 10.914063-17.167969 16.324219-1.238281-1.6875-2.382812-3.425781-3.570312-5.113281 1.089843-.890625 2.179687-1.785157 3.273437-2.679688-.445313-.59375-.894531-1.1875-1.390625-1.785156-1.191406.746094-2.332031 1.441406-3.519531 2.183594-1.242188-1.738281-2.480469-3.472657-3.671875-5.210938zm10.617187.648438c.394531.542969.84375 1.089843 1.242188 1.636719 2.429687-2.136719 4.957031-4.21875 7.441406-6.351563-2.980469 1.488281-5.855469 3.027344-8.683594 4.714844zm0 0" fill="#8e5544"/><path d="m199.632812 140.34375c4.21875-3.917969 8.386719-7.886719 12.554688-11.855469 4.21875 3.96875 8.433594 7.9375 12.601562 11.90625-1.089843 1.6875-2.183593 3.375-3.226562 5.0625h7.742188c-1.835938 2.03125-3.769532 3.96875-5.605469 5.953125 1.636719 1.886719 2.777343 4.613282 5.457031 5.160156.296875-.695312.59375-1.390624.941406-2.035156.992188-.941406 3.175782 0 2.828125 1.4375-.148437.695313-.941406.796875-1.488281 1.042969-1.933594.792969-4.019531.894531-6.050781.792969-.648438.746094-1.339844 1.539062-1.988281 2.332031-2.875.050781-5.753907.050781-8.632813 0 0 .347656-.046875.992187-.097656 1.292969-.84375 0-1.6875 0-2.53125 0 0 47.132812.050781 94.265625 0 141.402344.25.992187-1.042969.644531-1.539063.742187-30.5625-.050781-61.125 0-91.6875 0 0-1.488281 0-2.976563-.050781-4.515625 1.886719-.046875 3.722656-.046875 5.605469-.046875 0-4.367187 0-8.785156 0-13.148437h9.726562v8.085937h8.382813c0-12.75 0-25.453125 0-38.203125h9.925781c0-8.78125 0-17.5625 0-26.347656-2.332031 0-4.714844 0-7.046875 0 0-2.777344 0-5.554688 0-8.382813-.394531-.398437-.742187-.746093-1.140625-1.140625 0-2.679687 0-5.410156 0-8.085937 1.984375-1.144531 3.574219-2.78125 4.914062-4.617188.839844 0 1.636719 0 2.480469.050781 0-1.339843.046875-2.679687.046875-4.070312-1.636718-.148438-3.324218-.347656-4.960937-.246094 0-2.085937 0-4.167968 0-6.25h5.757812c0 1.289063.046875 2.527344.097657 3.820313.792968.046875 1.636718.148437 2.429687.195312.449219-2.429687 1.539063-4.613281 2.382813-6.894531h2.429687c.496094-.992188.945313-1.933594 1.441406-2.925781h2.429688c.941406-2.332031 2.28125-4.566407 4.367187-6.105469.546875-1.734375 1.238282-3.421875 2.035156-5.011719.644532-.046875 1.339844-.046875 1.984376-.097656.890624-4.019531 5.007812-6.25 5.605468-10.371094h2.679688c1.140625-3.621093 4.515625-5.804687 6.449218-8.929687.941407 0 1.886719-.050782 2.828126-.050782 1.089843-1.289062 2.132812-2.675781 3.574218-3.519531 1.335938-.695312 2.828125-1.042969 4.265625-1.488281.941407-1.441406 1.984375-2.78125 3.175781-4.019531-1.636718-1.984375-3.277343-3.921875-4.863281-5.90625h6.5c-.992187-1.585938-1.835937-3.273438-2.730469-5.011719zm-17.859374 124.882812c0 11.261719-.101563 22.523438.046874 33.789063.796876.246094 1.6875.148437 2.484376.195313 6-.097657 12.054687 0 18.058593-.046876-.050781-11.460937.050781-22.972656-.050781-34.484374-.148438-7.441407-4.515625-14.140626-10.21875-18.605469-6.003906 4.464843-10.371094 11.511719-10.320312 19.152343zm0 0" fill="#8e5544"/><path d="m381.578125 129.875c1.238281 2.332031 2.527344 4.664062 3.667969 7.046875-2.875 2.035156-5.753906 4.070313-8.582032 6.25 3.371094-1.089844 6.648438-2.480469 9.972657-3.667969 1.238281 2.332032 2.480469 4.660156 3.671875 7.042969-6.898438 3.671875-13.84375 7.246094-20.742188 10.964844-.890625-1.585938-1.734375-3.175781-2.527344-4.761719 4.414063-2.332031 8.878907-4.613281 13.246094-7.046875-4.765625 1.636719-9.527344 3.425781-14.238281 5.210937-.597656-1.09375-1.191406-2.183593-1.789063-3.273437 3.820313-2.878906 7.792969-5.558594 11.5625-8.484375-4.316406 1.933594-8.382812 4.363281-12.601562 6.449219-.847656-1.589844-1.636719-3.175781-2.480469-4.714844 7.042969-3.71875 13.941407-7.390625 20.839844-11.015625zm0 0" fill="#8e5544"/><path d="m383.460938 159.695312c2.53125-1.289062 5.902343.941407 5.605468 3.769532 0 2.878906-3.621094 4.8125-6.050781 3.175781-2.628906-1.4375-2.382813-5.804687.445313-6.945313zm0 0" fill="#8e5544"/><path d="m225.039062 166.144531c1.785157-2.035156 3.867188-4.613281 6.84375-4.515625 1.191407.695313 2.234376 1.6875 2.878907 2.878906.050781 1.089844-.148438 2.183594-.296875 3.273438 4.613281 3.078125 9.378906 6.152344 14.785156 7.691406 8.1875 2.332032 16.871094 2.183594 25.304688 2.183594 2.429687.246094 3.074218-3.273438 5.507812-3.027344 1.636719.148438 3.472656.792969 4.265625 2.382813-.050781 1.6875-2.382813 2.578125-1.984375 4.414062.445312 2.929688 2.28125 5.359375 3.722656 7.890625 5.308594 8.878906 13.691406 15.28125 22.027344 21.136719 2.679688 1.832031 5.90625 3.023437 9.128906 2.875 1.886719-.097656 3.175782-1.585937 4.914063-2.082031 1.4375-.296875 3.226562.199218 3.867187 1.636718.398438 1.140626-.890625 1.886719-1.488281 2.679688-5.308594 4.960938-12.304687 8.285156-19.644531 8.78125-4.714844.398438-9.429688-.296875-14.042969-1.042969v18.65625c1.785156.59375 3.574219 1.089844 5.359375 1.585938 0-2.527344 0-5.109375 0-7.640625h6.203125v24.214844c23.21875 9.328124 43.808594 24.707031 60.035156 43.710937-17.21875 0-34.386719 0-51.601562 0 0-5.90625 0-11.808594 0-17.714844 0-1.835937-.101563-3.769531-1.242188-5.257812-2.53125-3.621094-8.632812-3.671875-11.261719-.148438-1.191406 1.539063-1.339843 3.570313-1.339843 5.40625.050781 5.90625 0 11.757813.050781 17.664063-5.804688.050781-11.609375 0-17.417969.050781 0-7.246094 0-14.441406 0-21.632813 0-2.085937-.34375-4.269531-1.785156-5.855468-2.53125-2.976563-7.691406-3.074219-10.21875-.097656-1.488281 1.585937-1.789063 3.820312-1.789063 5.902343v21.632813c-5.804687 0-11.609374.050781-17.414062-.050782.050781-7.539062 0-15.082031 0-22.671874.050781-4.417969-1.933594-8.882813-5.457031-11.609376-6.054688-4.816406-15.726563-4.367187-21.085938 1.289063-2.234375 2.230469-3.425781 5.308594-3.871093 8.433594-.148438-11.015625-.050782-22.027344-.050782-33.042969 1.886719 0 3.773438 0 5.65625.050781 0-2.234375 0-4.515625 0-6.75-1.882812 0-3.769531 0-5.65625 0 0-1.984375 0-3.96875 0-5.902343h5.65625c0-2.234376 0-4.464844 0-6.699219h6.203125c0 2.28125.050781 4.515625 0 6.796875 1.835938.050781 3.671875.097656 5.457031.148437 0-2.332031 0-4.664062 0-6.945312h6.203126v7.242187c1.886718.101563 3.769531.25 5.65625.347656 0-6.050781 0-12.15625 0-18.207031-9.726563-.199219-19.449219-.398437-29.175782-.597656 0-17.015625 0-34.035156 0-51.050781 2.480469.445312 4.765625 1.039062 7.097656 1.585937zm30.660157 51.152344c.050781 5.90625-.097657 11.808594.101562 17.714844 1.488281.394531 3.023438.496093 4.5625.644531 0-1.984375 0-3.96875 0-6.003906h6.203125v6.847656c1.585938.246094 3.175782.542969 4.761719.792969 0-2.183594 0-4.414063 0-6.597657h6.203125v7.839844c1.636719.34375 3.273438.742188 4.960938 1.089844 0-5.953125 0-11.90625 0-17.910156-8.929688-1.488282-17.859376-2.976563-26.792969-4.417969zm-25.75 22.128906v6.796875c1.835937.050782 3.671875.148438 5.457031.199219 0-2.28125 0-4.566406-.046875-6.847656-1.789063-.046875-3.574219-.097657-5.410156-.148438zm11.710937.449219v6.945312c1.882813.148438 3.769532.296876 5.65625.445313 0-2.332031 0-4.664063 0-6.996094-1.9375-.148437-3.820312-.296875-5.65625-.394531zm14.039063 1.140625v7.144531c1.539062.195313 3.078125.394532 4.613281.644532 0-2.433594 0-4.863282 0-7.292969-1.535156-.148438-3.074219-.347657-4.613281-.496094zm10.867187 1.386719v7.394531c1.585938.296875 3.175782.59375 4.761719.890625 0-2.480469 0-5.007812 0-7.488281-1.585937-.300781-3.175781-.546875-4.761719-.796875zm11.015625 1.984375c-.050781 2.582031-.050781 5.113281.046875 7.691406 1.640625.398437 3.277344.792969 4.863282 1.191406 0-2.582031 0-5.210937 0-7.789062-1.636719-.347657-3.273438-.746094-4.910157-1.09375zm13.296875 3.375v7.988281c1.785156.59375 3.570313 1.191406 5.355469 1.835938 0-2.730469 0-5.457032 0-8.136719-1.785156-.597657-3.519531-1.140625-5.355469-1.6875zm0 0" fill="#8e5544"/><path d="m377.855469 180.433594c7.390625-2.875 14.683593-5.902344 22.128906-8.683594.445313 2.085938.941406 4.167969 1.4375 6.253906-5.0625 1.785156-10.171875 3.421875-15.230469 5.160156 5.308594-.84375 10.566406-1.589843 15.875-2.234374.496094 2.085937.941406 4.167968 1.390625 6.300781-7.839843.695312-15.679687 1.488281-23.566406 2.234375-.648437-3.078125-1.339844-6.054688-2.035156-9.03125zm0 0" fill="#8e5544"/><path d="m380.730469 193.285156c7.691406-1.4375 15.382812-2.777344 23.074219-4.21875.394531 1.984375.746093 4.019532 1.089843 6.054688-7.691406 1.339844-15.378906 2.777344-23.070312 4.167968-.398438-1.984374-.742188-3.96875-1.09375-6.003906zm0 0" fill="#8e5544"/><path d="m382.121094 201.519531c7.789062-.941406 15.53125-1.933593 23.269531-2.875.398437 3.371094.792969 6.695313 1.238281 10.070313-1.535156.199218-3.125.398437-4.660156.59375-.152344-1.339844-.296875-2.675782-.496094-4.015625-1.488281.148437-2.925781.296875-4.417968.496093.148437 1.289063.246093 2.527344.347656 3.820313-1.488282.195313-2.925782.347656-4.363282.542969-.152343-1.238282-.300781-2.480469-.449218-3.769532-1.683594.199219-3.425782.398438-5.109375.59375.148437 1.492188.347656 2.980469.492187 4.46875-1.535156.195313-3.070312.347657-4.660156.542969-.347656-3.421875-.84375-6.945312-1.191406-10.46875zm0 0" fill="#8e5544"/><path d="m402.113281 211.640625c1.492188-.046875 2.980469-.148437 4.515625-.046875.449219 4.363281.300782 8.832031.496094 13.246094-1.535156.050781-3.125.097656-4.660156.148437-.050782-1.191406-.097656-2.382812-.152344-3.621093-6.25.199218-12.5.398437-18.753906.546874-.046875-2.035156-.097656-4.070312-.148438-6.105468 6.25-.148438 12.453125-.394532 18.703125-.496094 0-1.238281 0-2.429688 0-3.671875zm0 0" fill="#8e5544"/><path d="m383.363281 231.984375c7.789063.59375 15.625 1.191406 23.417969 1.785156-.152344 1.6875-.25 3.375-.398438 5.0625-3.421874.890625-6.945312 1.585938-10.320312 2.578125 3.324219.398438 6.699219.546875 10.070312.84375-.144531 1.6875-.246093 3.375-.34375 5.0625-7.839843-.496094-15.628906-1.191406-23.417968-1.738281.148437-1.785156.246094-3.523437.398437-5.308594 3.371094-.84375 6.792969-1.390625 10.167969-2.332031-3.277344-.496094-6.597656-.59375-9.921875-.894531.097656-1.683594.246094-3.371094.347656-5.058594zm0 0" fill="#8e5544"/><path d="m382.074219 246.421875c7.539062 2.382813 15.03125 4.8125 22.574219 7.242187-.546876 2.878907-1.042969 5.757813-1.589844 8.683594-7.890625-.246094-15.828125-.496094-23.71875-.742187.398437-2.035157.746094-4.070313 1.09375-6.105469 1.390625.152344 2.828125.25 4.214844.398438.101562-.746094.253906-1.4375.398437-2.132813-1.335937-.347656-2.773437-.546875-4.019531-1.242187.199218-2.132813.695312-4.117188 1.046875-6.101563zm7.042969 7.988281c-.097657.695313-.199219 1.390625-.296876 2.035156 3.175782.199219 6.347657.59375 9.527344.695313-3.125-.945313-6.15625-1.886719-9.230468-2.730469zm0 0" fill="#8e5544"/><path d="m379.441406 262.597656c7.394532 2.480469 14.789063 5.160156 22.175782 7.738282-.839844 2.480468-1.734376 4.960937-2.574219 7.441406-3.621094-.644532-7.195313-1.4375-10.820313-2.082032 3.277344 1.636719 6.550782 3.273438 9.824219 4.910157-.84375 2.480469-1.734375 4.964843-2.578125 7.492187-7.394531-2.527344-14.738281-5.160156-22.128906-7.738281.542968-1.6875 1.089844-3.375 1.683594-5.011719 4.667968 1.488282 9.230468 3.324219 13.945312 4.714844-4.21875-2.480469-8.882812-4.316406-13.050781-6.898438.25-1.191406.695312-2.28125 1.09375-3.421874 4.960937.941406 9.875 1.984374 14.785156 2.828124-4.664063-1.738281-9.378906-3.324218-14.039063-4.960937.542969-1.6875 1.136719-3.375 1.683594-5.011719zm0 0" fill="#8e5544"/><path d="m315.882812 387.328125c-30.460937 0-56.808593-7.246094-86.332031-18.058594l-2.777343-.992187c-16.570313-6.101563-35.425782-12.652344-52.691407-14.292969-25.550781-2.476563-48.96875 9.878906-66.1875 30.914063l-4.316406-2.929688c17.8125-22.375 43.265625-35.625 70.851563-32.941406 17.960937 1.734375 37.113281 8.382812 54.03125 14.585937l2.777343.992188c31.65625 11.609375 59.589844 19 92.882813 17.5625 3.472656-.148438 9.675781-.992188 11.511718-1.390625 1.335938.152344 18.457032-6.894532 18.105469-7.339844l-11.308593 9.078125-4.613282 1.835937c-3.871094 1.882813-13.347656 2.777344-13.449218 2.777344-2.875.148438-5.703126.199219-8.484376.199219zm0 0" fill="#d2b584"/><path d="m268.949219 416.949219c-9.03125-.445313-18.011719-2.480469-28.480469-4.914063l-4.863281-1.484375c-16.917969-4.714843-22.574219-12.109375-39.046875-12.703125-21.285156-.796875-28.925782 3.621094-37.855469 14.039063l-4.515625-2.03125c10.765625-11.414063 19.050781-17.863281 42.71875-16.96875 16.96875.644531 23.816406 7.6875 40.136719 13.542969l4.367187 1.289062c14.835938 4.765625 20.691406 5.109375 34.878906 5.804688 3.476563.25 7.691407-.59375 7.691407-.59375s-12.253907 4.019531-15.03125 4.019531zm0 0" fill="#d2b584"/><path d="m294.101562 408.910156c-18.953124.050782-31.257812-2.429687-46.242187-7.589844l-2.777344-1.042968c-16.570312-6.101563-39.195312-17.464844-56.511719-16.769532-24.957031 1.042969-28.777343 3.71875-46.589843 21.085938l-4.761719-2.132812c18.503906-18.359376 24.3125-22.078126 51.203125-23.46875 18.011719-.894532 41.527344 10.867187 58.398437 17.066406l2.578126 1.09375c12.15625 4.515625 26.742187 7.441406 50.507812 7.042968 3.476562.25 12.058594-2.132812 11.710938-2.578124l-12.207032 6.054687s-2.527344 1.238281-5.308594 1.238281zm0 0" fill="#d2b584"/><path d="m309.878906 399.382812c-30.3125-.941406-43.214844-4.464843-72.734375-15.28125l-2.78125-.992187c-16.570312-6.097656-35.324219-13.59375-52.691406-14.289063-24.855469-.992187-39.292969 7.195313-57.007813 27.191407l-4.117187-2.382813c18.257813-20.6875 34.484375-30.460937 61.523437-29.765625 18.058594.441407 37.113282 8.382813 54.03125 14.585938l2.777344.992187c31.65625 11.605469 39.644532 14.238282 71.695313 15.425782 3.472656.152343 8.285156-.34375 10.074219-.742188 1.339843.148438 10.121093-2.976562 9.824218-3.472656l-12.207031 7.390625s-5.605469 1.339843-8.386719 1.339843zm0 0" fill="#d2b584"/></svg>