<svg enable-background="new 0 0 1044 1044" height="316.227766" viewBox="0 0 1044 1044" width="316.227766" xmlns="http://www.w3.org/2000/svg"><path d="m506.6 10h30.5c23.5 1.3 47.1 3.1 70.3 7.2 76.1 12.7 149 43 211.6 87.8 55 39 102 89.2 137.7 146.3 31.4 50.4 54.2 106.4 66.3 164.6 11.8 56.1 14.4 114.2 6.9 171-5.4 41.9-15.7 83.3-31.4 122.6-26.3 67.2-67.3 128.5-119 178.9-51.6 50.4-114 89.8-181.8 114.5-40.1 14.7-82.1 24.1-124.6 28.4-11.9 1.2-23.8 1.7-35.7 2.6h-30.6c-19.9-1.2-39.9-2.5-59.7-5.6-83.3-12.1-163.4-45.4-230.8-95.8-59.1-43.9-108.5-100.7-143.7-165.3-40-72.6-61.3-155.3-62.6-238.2-.8-72.1 13.3-144.6 42.2-210.8 28-64.8 69.8-123.5 121.5-171.5 46.5-43.1 100.9-77.6 159.9-100.9 41-16.4 84.3-27 128.2-32.3 15-1.8 29.9-2.5 44.8-3.5zm-1.4 4.3c-49.8 1.4-99.4 10.3-146.5 26.5-76.3 25.7-146 70.2-201.9 128-50.4 52-89.6 114.9-113.7 183.2-39.1 109.5-38.9 232.7.7 342 26.1 72.9 69.4 139.5 125 193.2 52 50.4 114.8 89.5 183.1 113.6 51.3 18.4 105.7 28.2 160.2 29 10.3.8 20.6-.2 30.9-.3 47.6-1.9 95-10.4 140.1-25.7 77.3-25.6 148.1-70.6 204.6-129.3 55.2-57.1 96.8-127.3 120.1-203.2 27.5-88.9 29.5-185.3 6.7-275.4-14.7-57-39.2-111.5-72.5-160.1-42.3-62.1-98.6-114.6-163.4-152.7-67.8-39.5-145-63.4-223.6-68.1-16.5-.9-33.2-1.7-49.8-.7z" fill="#2f8d20"/><path d="m120.1 541.8c7.9-70.9 37.9-138.8 83.8-193.2.1-.1.3-.1.4 0 3.7 3.3 6.6 7.4 10.2 10.9 34.3 36.5 75.8 65.9 121 87.4.1.1.2.2.1.3-.4 1.1-.9 2.2-1.6 3.1-46.6 65.9-86.6 136.8-114.6 212.6-.7 1.8-1.2 3.6-1.5 5.5 0 .1.1.3.2.3 3.6.7 7.2.4 10.8.4h45c2.8 0 5.7-.2 8.5.4.2 0 .3.2.2.4-3 4.6-6 9.1-8.9 13.8-1.1 1.6-1 3.5-1 5.4.1 17 0 34 0 50.9-.2 1.9 1.3 3.1 3.1 2.7h212.2c3 0 6 .1 9-.3.1 0 .2-.1.2-.3.3-15.8.1-31.7.1-47.6 0-.1.1-.2.2-.3 1.4-.3 2.9-.5 4.4-.5 13.4.1 26.7 0 40.1 0 1.5-.1 2.9.2 4.4.5.1 0 .2.1.2.3-.1 15.5-.2 31.1.1 46.6-.2 1.7 2.1 1.4 3.2 1.6 73.5-.1 146.9.1 220.4-.1.1 0 .2-.1.2-.2.4-1.5.8-3 .7-4.5-.1-17 0-34 0-51 .1-2-1.1-3.6-2.1-5.1-2.6-4-5.2-8-7.8-11.9-.1-.2 0-.4.2-.4 2.8-.6 5.6-.3 8.5-.4h51c1.6 0 3.2-.2 4.8-.4.1 0 .2-.2.2-.3-.6-4.4-2.7-8.4-4.1-12.5-27.2-71.5-65-138.6-108.8-201.1-1.6-2.5-3.8-4.7-4.8-7.6 0-.1 0-.3.1-.3 49-23.3 93.7-56 129.6-96.8.6-1.2 2.3-1.3 3.1-.2 24.5 29.5 44.6 62.7 59 98.3 12 30 20.3 61.6 23.8 93.8 6.5 56.3-.8 114-20.9 166.9-15.8 42.1-39.7 81-69.5 114.7-40 45.4-90.8 81.1-146.5 104.5-50.3 21-104.6 32.3-159.1 32.7-67 1.2-134.2-13.7-194.3-43.4-68-33.5-126.8-86.3-165.4-151.7-39.7-66.8-57.2-146.7-48.1-223.9zm164.9 253.7c-.6-.4-2.6-1.7-3.8-2.4-.1-.1-.2 0-.3.1-1.4 2.1-4.5 6.5-5.2 7.5-.1.1 0 .3.1.3l3.8 2.8c.1.1.1.2.1.3-1.3 1.9-11.7 16.4-16.2 24.7-.1.1 0 .3.1.3 7.4 5.1 14.7 10.4 22.2 15.3 7.8 4.8 17.4 8.4 26.6 5.8 8.9-2.3 15.3-9.7 19.6-17.3 4.7-8 8.3-17.6 5.8-27-2.3-9-9.3-15.9-16.5-21.2-6.1-4.4-12-8.9-18.1-13.3-.1-.1-.3-.1-.3 0-6.1 7.2-16.1 22-17.4 24-.2.2-.4.2-.5.1zm440.3-10.2c-8.3 4.5-16.8 10.6-20.1 19.9-3.1 8.2-1.3 17.5 2.6 25.1 4.6 9.1 11.6 17.6 21.3 21.4 9.3 3.8 20.5 2 28.5-4 4.8-3.2 8.3-8.3 9.3-13.9 0-.1.1-.2.3-.2 2.3.3 4.5 1.1 6.8 1.3h.1c2.6-1.2 4.6-3.4 6.4-5.6.1-.1.1-.2 0-.3-.9-2.4-2.9-4.2-4.3-6.2-5.2-6.6-9.8-13.7-15.3-20h-1c-6.7 4.7-13.1 9.8-19.7 14.6-2.3 1.7.5 4 1.5 5.6 1.3 1.2 2 3.9 4.1 3.6h.1c2.7-1.6 5-4 7.9-5.3.1-.1.3 0 .4.1 1.3 3.2 1.8 7.1-.1 10.2-2.8 4.2-9.1 5.2-13.3 2.5-5.3-3.3-8.7-8.8-12.3-13.8-2.9-4.5-6.2-9.7-4.9-15.2 1.2-3 3.8-5.8 7.1-6.3h.1c4.5-.2 7.6 3.4 10.9 5.9.1.1.2.1.3 0 4-2.8 7.9-5.8 11.8-8.7 1.4-.8 1-2.7 0-3.6-3.4-4-7.4-7.8-12.5-9.5-5.3-1.6-11.1-.4-16 2.4zm-339.5 19.4 7.6 4h.2l14.8-5.5c.2-.1.2-.4 0-.5l-10.8-5.5c-.1 0-.2 0-.2 0l-11.7 6.6c-.3.2-.3.7.1.9zm-13.1-2.3c-.1 0-.2.1-.3.2-2.3 13.7 15.8 24.1 27 16.7 1.2-.9 3.3-2.2 2.1-3.9 0 0-.1-.1-.1-.1-2.5-1.2-5.1-3.1-7.9-2.9-.1 0-.1 0-.1.1-2.7 2.3-6.6 3-9.5.5-2.6-1.4-2-4.7-2.9-7 0-.1-.1-.1-.1-.1-2.5-1.4-5.1-3.6-8.2-3.5zm313.2 7.5c-4.1 2-8.2 4-12.3 5.9-.2.4-.2.6-.4 1 4 9.4 9.5 18 13.5 27.4.1.2-.1.4-.3.3-12.1-5.2-23.2-12.7-35.2-18.1-.1 0-.2 0-.2 0-4.1 2.1-8.3 3.9-12.3 6.2-.1.1-.2.2-.1.3 5.6 13.2 12.3 26 18.4 39 4 7.8 7.3 15.9 11.8 23.4.1.1.2.2.3.1 4.2-2 8.4-4 12.6-6.1.9-.6 2.6-1 2.2-2.5-4.1-10-9.6-19.5-13.6-29.5-.1-.2.1-.4.3-.3 1.1.3 2.1.7 3.1 1.4 9.8 6 19.6 11.7 29.4 17.7 1.2.6 2.5 1.8 4.1 1.2 4.2-1.9 8.4-3.9 12.4-6.1.1-.1.2-.2.1-.3-.4-1.2-.8-2.3-1.3-3.5-9.6-19-19-38.2-28.8-57.1-.7-1.5-2.6-1-3.7-.4zm-325.8 16.2c-13.1 14-26.6 27.7-39.6 41.8.1.8.2 1.2.3 2 4.9 2.8 10.3 4.8 15.2 7.5h.3c3.9-2.6 6.4-6.7 9.5-10.2.1-.1.2-.1.3-.1 5.7 2 11.1 4.9 16.6 7.6.1 0 .2.2.1.3-.5 4.4-1.7 8.6-2.4 13 0 .1 0 .2.1.3 4.4 2.5 9.1 4.4 13.6 6.8 1.6.8 3.3 1.5 5.1 1.9.1 0 .3-.1.3-.2 4.7-23.2 8.7-46.5 13-69.8 0-.1 0-.2-.1-.3-4.4-2.8-9.3-4.6-13.9-7-2.7-1.2-5.2-3.1-8.2-3.5-.1 0-.1 0-.2 0-3.8 2.7-6.6 6.7-10 9.9zm226.8 1.8c-2.6 5.1-5 10.5-6.3 16.1 0 .2.1.4.3.3 3.6-.7 7.1-1.7 10.5-3.1 0 0 .1 0 .1-.1 2.2-2.2 3.1-5.3 4.6-8 0-.1.1-.1.2-.1 3.7.1 6.1 3.8 9.7 3.8h.1c3.6-.8 7.3-1.7 10.6-3.5.2-.1.2-.3 0-.4-4.7-3.3-9.3-7.1-14.5-9.6-.1 0-.1 0-.2 0-5.1 1.1-10.2 2.5-14.9 4.5-.2 0-.2.1-.2.1zm-170.9 17.1c-3.5 20.4-7.4 40.8-10.9 61.3 0 .1 0 .2.1.3 3.3 1.7 7.2 1.7 10.9 2.5 2.7.3 5.5 1.7 8.1.5.1 0 .1-.1.2-.2.9-5 1.8-9.9 2.7-14.9.3-2.7 2.9-4 4.8-5.7 2.1-1.6 3.9-3.8 6.4-4.8.2-.1.3 0 .4.2 1.3 9.6 1.4 19.4 2.9 29 0 .1.1.2.2.2 6.8 1.4 13.7 3.2 20.7 3.3.2 0 .3-.1.3-.3-2-15.5-4.9-30.8-6.4-46.3 0-.1 0-.1.1-.2 3.8-4.4 8.6-7.8 12.8-11.8 2.9-2.8 6.5-4.9 8.7-8.3l-.7-.8s-.1-.1-.1-.1c-6.3-1.3-12.6-2.5-19-3.3-.1 0-.1 0-.2.1-9 7.5-16.6 16.6-25.7 23.9-.2.1-.5 0-.4-.2.9-9.2 3.9-18.2 4.2-27.5 0-.1-.1-.2-.2-.3-5.9-1.3-11.8-2.3-17.7-3.2-.1 0-.2 0-.3.2-1.1 2-1.6 4.2-1.9 6.4zm184.6-2.2c-7 1.8-14 5.5-18.1 11.6-5.1 7.5-5.8 17.1-4 25.7 1.9 10.3 6 21.2 14.7 27.6 8.2 6.1 19.4 6.1 28.8 3.3 7.8-2.2 15.2-7.1 18.7-14.6 3.9-8.4 2.7-18 .2-26.6-2.7-9-7.3-18.1-15.2-23.7-7.2-5-16.8-5.6-25.1-3.3zm-54.1 9.9c.4 10.3 1.9 20.5 2.1 30.8 0 .2-.3.4-.4.2-2.6-2.2-4.3-5.1-6.5-7.6-6.2-7.4-12.1-15.2-18.5-22.5 0 0-.1-.1-.1-.1-4.6-1-9.5.2-14.2.2-.1 0-.2.1-.3.2-.7 3.3-.2 6.6-.1 9.9 1.2 19.7 2 39.5 3.2 59.2 0 .1.1.2.2.2 5.8.4 11.6-.1 17.3-.8.1 0 .2-.1.2-.3.2-11.2-1.5-22.3-1.1-33.4 0-.2.3-.3.5-.2 8.5 10.6 16 22.1 24.7 32.6 0 .1.1.1.2.1 4.9.3 9.9-.3 14.7-.9.1 0 .2-.1.2-.2.1-2.1 0-4.2-.1-6.3-1.5-20.7-2.9-41.4-4.4-62.1 0-.1-.1-.2-.2-.2-3-.8-6.1-.3-9.1-.2-2.8.2-5.6-.1-8.2 1 0 .2-.1.3-.1.4z" fill="#2f8d20"/><path d="m303 808.7s5-8.6 7.9-12.5c3.5 2.8 7.4 6.1 7.8 10.9.4 5.3-2.6 10-5.3 14.4-3.1 4.6-6.5 9.6-11.9 11.8-4.8 1.6-9.8-.4-13.6-3.3 2.5-4.9 9-13.9 9-13.9l9.2 5.5 4.5-7.3z" fill="#2f8d20"/><path d="m365.5 844.5c1.6-1.5 2.5-4.1 5-4.3-1.3 6.5-2.9 13-4.1 19.6-3.8.3-7-2.4-10.4-3.7 2.6-4.3 6.4-7.7 9.5-11.6z" fill="#2f8d20"/><path d="m603.4 856.5c2.5-.8 5.4-.1 7.2 1.8 4.8 4.5 6.7 11.1 8.8 17.2 1.6 5.7 3.7 11.6 2.7 17.5-.5 4.2-5.4 6.9-9.2 5.2-4.1-2.1-6.6-6.3-8.5-10.4-3.1-6.9-5.4-14.2-5.7-21.8 0-3.5.8-8.2 4.7-9.5z" fill="#2f8d20"/><path d="m505.2 14.3c16.6-1 33.2-.2 49.8.7 78.5 4.7 155.7 28.6 223.6 68.3 64.8 38 121.1 90.5 163.4 152.7 33.3 48.6 57.8 103.1 72.5 160.1 22.8 90.1 20.8 186.5-6.7 275.4-23.3 75.9-64.8 146.1-120.1 203.2-56.5 58.7-127.2 103.6-204.6 129.3-45.1 15.3-92.6 23.8-140.1 25.7-10.3 0-20.6 1.1-30.9.3-54.5-.8-108.8-10.6-160.2-29-68.3-24.1-131.1-63.3-183.1-113.6-55.7-53.7-98.9-120.3-125-193.2-39.6-109.5-39.9-232.6-.7-342.2 24.1-68.3 63.3-131.2 113.7-183.2 55.9-57.9 125.6-102.3 201.9-128 47.1-16.2 96.7-25.1 146.5-26.5zm-85.9 25c-40.2 8.9-79.6 22-116.4 40.6-14.2 7.1-28.3 14.5-41.5 23.2-18.6 11.2-36.2 23.9-52.8 37.9-20.4 16.6-39.3 35-56.7 54.7-56.2 63.6-95.6 142-112.7 225-5.1 22.1-7.5 44.7-9.4 67.2-.2 6.4-.5 12.7-1 19-.8 44.8 3 90 14.4 133.4 12 49.6 32.1 97.2 58.9 140.6 49.4 80 122 145.6 206.9 186 28.9 14.1 59.4 24.9 90.5 32.8 7.3 2.3 14.9 3.8 22.4 5.4 49.3 10 100.1 12.6 150.2 7.6 25.7-2.7 51.4-6.8 76.2-14 61.4-15.9 119.5-44.4 170.2-82.5 63-47.5 114.6-110 148.5-181.3 9.1-18.7 17-38 23.2-57.8 19-55.5 26.7-114.7 24.9-173.3-1.3-28-4.1-56-10.2-83.4-2.9-14.7-6.9-29.2-11.2-43.5-26.3-86.5-77.3-165.4-145.3-225-6.9-6.7-14.6-12.5-22.1-18.6-13.8-11-28.4-21.2-43.6-30.4-20.8-13.6-43.3-24.5-65.9-34.7-21-9-42.8-16.3-64.8-22.5-75.7-20.4-156.1-22.3-232.7-6.4z" fill="#fff"/><path d="m173.4 207.5c5.2-5.6 10-11.5 15.9-16.4 3.3 7.6 5.4 15.6 8.6 23.2 10 27.3 22.7 53.5 36.7 78.9 29.3 51 66.9 98 114.4 133.2l1.1.4c35.1-46.9 73.2-91.5 113.9-133.7 10.7-10.6 20.4-22.7 33.6-30.4 10.8-6.4 24.2-8.9 36.4-5.2 15.6 4.2 27.2 16.2 38 27.5 41.3 42.3 80.3 86.9 115.9 134.1 2 2.5 3.6 5.4 6 7.7 2.1-.6 3.7-2.4 5.5-3.7 45.7-35.2 82.2-81.2 110.6-131.1 17.6-31.8 32.7-65 43.8-99.7 1.1 0 2.5-.4 3.3.7 49.9 50.6 88 112.8 110.5 180.1 4.8 14.7 8.9 29.7 12.5 44.7 14.9 65.3 15.5 133.8 2 199.4-4.7 21.3-10.3 42.5-17.7 63.1-26.7 74.4-72.5 141.7-131.7 193.9-13.4 11.6-27.2 22.6-41.7 32.8-8.9 6.3-18.2 11.9-27.4 17.8-18.8 11.5-38.6 21.1-58.8 29.9-13.8 5.9-27.9 11-42.3 15.5-24 7.2-48.4 13-73.2 16.6-61.4 8.8-124.6 5.6-184.6-10.2-7.8-1.9-15.5-4.2-23.2-6.5-18-5.6-35.7-12.3-52.7-20.2-62.6-28.1-118.7-70.5-163.4-122.5-38.4-44.8-68.2-96.8-87.6-152.5-12.4-36.8-20.7-75-24-113.6-4-50.8-.2-102.2 12.1-151.7 7.1-28.7 16.6-56.9 29.2-83.6 16.2-35.8 37.3-69.3 62-99.8 5.4-6.2 10.6-12.7 16.3-18.7zm-53.3 334.3c-9.1 77.2 8.4 157.1 48.2 223.8 38.6 65.4 97.3 118.2 165.4 151.7 60.1 29.7 127.3 44.6 194.3 43.4 54.4-.4 108.7-11.7 159-32.7 55.8-23.4 106.5-59.1 146.5-104.5 29.8-33.7 53.6-72.6 69.5-114.7 20.1-52.9 27.4-110.7 20.9-166.9-3.5-32.2-11.8-63.7-23.8-93.8-14.4-35.6-34.5-68.8-59-98.3-.8-1.2-2.5-1-3.1.2-35.9 40.9-80.7 73.6-129.8 96.9.9 3 3.2 5.3 4.8 7.8 43.8 62.6 81.6 129.6 108.8 201.1 1.4 4.3 3.5 8.3 4.1 12.8-1.7.2-3.4.5-5.1.5-17 0-34 0-51 0-3 0-5.9-.2-8.8.4 2.7 4.1 5.3 8.2 8 12.2 1 1.6 2.2 3.2 2.1 5.1.1 17 0 34 0 51 .1 1.6-.3 3.2-.8 4.7-73.5.2-147.1 0-220.6.1-1.1-.1-3.4.2-3.2-1.6-.3-15.6-.1-31.2-.1-46.8-1.5-.3-3-.6-4.6-.6-13.4 0-26.7.1-40.1 0-1.6 0-3.1.2-4.6.5 0 16 .2 32-.1 48-3.1.5-6.2.4-9.3.4-70.7 0-141.4 0-212.2 0-1.8.4-3.3-.8-3.1-2.7-.1-17 0-34 0-50.9 0-1.9-.1-3.8 1-5.4 2.9-4.8 6.1-9.4 9.1-14.1-2.9-.7-5.9-.4-8.8-.4-15 0-30 0-45 0-3.7 0-7.4.3-11.1-.5.3-2 .8-3.9 1.6-5.7 27.9-75.8 68-146.8 114.6-212.6.7-1 1.3-2.1 1.6-3.3-45.3-21.5-86.8-50.9-121.2-87.4-3.6-3.5-6.6-7.7-10.4-11.1-45.7 54.4-75.8 122.4-83.7 193.4zm369-172.7c-14.8 11-28 24-41.5 36.5-57.1 54.5-107.4 116-151.7 181.3-6.7 10.1-13.9 20-19.8 30.6 10.6.6 21.3.1 32 .3 1.5-.1 3.6.4 4.3-1.3 13.9-23.5 27.3-47.4 41.2-70.9.8-1.6 2.8-1.7 4.4-1.7h99c1.2.1 2.4.3 3.6.7.1 41.4.2 82.7-.1 124.1-10.2.5-20.4.1-30.5.2-29 0-58 0-87 0-3.1 0-6.3-.3-9.3.7-2.9 6.5-6.2 12.9-9 19.5-.5 8.1 0 16.3-.2 24.5 4.5.7 9 .2 13.5.4 43.2-.1 86.4.2 129.6-.1.3-18.5 0-37.1.1-55.7.1-1.3.3-2.5.6-3.8 35.7-.1 71.4-.1 107.1 0 1.1 3.8.5 7.8.6 11.8.1 15.9-.2 31.8.1 47.7 42.9.3 85.8 0 128.7.1 4.8-.1 9.7.3 14.5-.3-.1-8.2.3-16.4-.2-24.5-2.8-6.6-6.1-12.9-9-19.5-1.4-.4-2.8-.7-4.3-.7-23.3 0-46.7 0-70.1 0-17.5-.2-35 .3-52.5-.3-.2-41.4-.1-82.7 0-124.1 3.1-1 6.4-.6 9.7-.7h93c1.5.1 3.6 0 4.4 1.7 12.6 21.2 24.7 42.7 37.2 64 1.7 2.6 2.9 5.6 5 8 4.5.6 9 .1 13.5.3 7.3-.2 14.7.3 22-.3-3.8-7.1-8.6-13.6-13-20.4-53.7-80.4-115.9-155.6-189-219.1-10.6-9.2-22.7-18.2-37.1-19.7-14.1-2.4-28.5 2.1-39.8 10.7zm-113.3 214.4c-5.4 10.1-10.5 20.4-15.8 30.5-.8 1.4-1.3 2.8-1.6 4.4 21 .1 42-.1 63 .1.7-1.4.9-3 .9-4.5-.1-9 0-18 0-27 0-1.2-.2-2.4-.6-3.6-15.4.1-30.6-.2-45.9.1zm246.6-.1c-.5 1.2-.7 2.3-.7 3.6v27.1c-.1 1.5.1 3.1.8 4.5 21-.2 42 0 63-.1-.3-1.3-.7-2.6-1.3-3.8-5.4-10.3-10.6-20.8-16.1-31.1-15.1-.4-30.4-.1-45.7-.2z" fill="#fff"/><path d="m511.1 465c.3-3.8-.4-7.6.5-11.4 6.9-.1 13.8-.1 20.7 0 .9 3.7.3 7.6.5 11.4.3.3.8.8 1.1 1.1 11 .3 22 0 32.9.1 3.4.1 7-.4 10.3.6-14 7.2-29.1 12.1-43.2 19.1 11.6 5.7 23.6 10.4 35.5 15.5 2.3 1.2 5.6 1.4 6.7 4.2-13.4.3-26.9 0-40.3.1-1.1.1-2.1.4-3.1.9-.2 4.8 1 9.8-.4 14.5-6.9.1-13.9.1-20.8 0-1.4-4.8-.2-9.7-.4-14.5-1.3-.5-2.7-1-4.2-.9-13 0-26.1.2-39.1-.1.3-.9.8-1.6 1.6-2.1 13.5-6 27.3-11.2 40.5-17.7-14.1-7.1-29.2-12-43.2-19.2 1.4-.4 2.8-.6 4.2-.6 13 0 26 .2 39.1-.1.3-.1.8-.6 1.1-.9zm1.3 2.5c-.4 5.2-.3 10.5-.1 15.7 4-2.5 6.1-7.2 9.7-10.2 3.6 3 5.6 7.7 9.7 10.1.1-5.2.1-10.3 0-15.5-6.4-.4-12.8-.2-19.3-.1zm-.1 21.4c-.1 5.2-.1 10.4 0 15.6 6.5.4 13 .4 19.5 0 0-5.2.1-10.4 0-15.6-4.1 2.4-6.1 7.2-9.8 10.2-3.7-3.1-5.6-7.8-9.7-10.2z" fill="#fff"/><path d="m456.6 470.8c1.4-.6 2.9-.9 4.3-.2 10.7 4.4 21.3 9.1 32 13.5 1.1.5 2.2 1.2 3.2 1.9-3 2-6.4 3.1-9.6 4.5-8.3 3.6-16.6 7.2-24.9 10.8-1.6.8-3.4.8-4.9 0-8.1-3.5-16.2-7-24.3-10.5-3.4-1.5-7-2.7-10.2-4.8 1-.8 2-1.4 3.1-2 10.4-4.3 20.8-8.8 31.3-13.2zm-15.7 13c-.1.4-.3 1.3-.4 1.7 3.9.2 7.8.1 11.6.2.5 1.4.2 3.6 1.8 4.3 3.3.2 6.7.2 10 0 1.5-.9 1.2-2.9 1.8-4.3 3.7-.2 7.4-.1 11-.1 0-.4-.1-1.4-.1-1.8-4.3-.2-8.9 1-12.7-1.4-4.4-.3-9.1-1-13.1 1.3-3.2.3-6.6.1-9.9.1z" fill="#fff"/><path d="m557.4 481.5c9.2-3.7 18.2-8.2 27.6-11.4 8.7 2.9 16.9 7.1 25.5 10.5 3.8 1.9 8.1 2.8 11.5 5.5-1.6 1-3.3 1.9-5.1 2.6-10.1 4.1-20 8.6-30 12.8-2.7 1.2-5.3-.8-7.7-1.7-10.3-4.7-21-8.6-31.1-13.7 2.6-2.4 6.2-3.1 9.3-4.6zm22.4 1c-3.7 2.4-8.1.9-12.2 1.4-.2.4-.5 1.3-.7 1.7 3.7.1 7.4-.2 11.1.2.8 1.5.4 4.5 2.8 4.3 3.4-.1 7 .5 10.3-.7.2-1.3.3-2.5.5-3.7 3.8-.1 7.7-.1 11.5-.1v-1.8c-4.4-.4-9.1 1-13.1-1.4-3.2-.4-6.8-.4-10.2.1z" fill="#fff"/><path d="m285.2 795.7s11.2-16.7 17.6-24.4c6.2 4.4 12.2 9 18.3 13.4 7.3 5.3 14.3 12.2 16.5 21.2 2.5 9.3-1.1 19-5.8 27-4.4 7.6-10.8 15.1-19.6 17.3-9.2 2.6-18.8-1-26.6-5.8-7.6-4.9-15-10.3-22.4-15.4 4.8-8.8 16.5-25.1 16.5-25.1l-4.2-3.1 5.4-7.9zm17.8 13 7.6 5.6-4.5 7.3-9.2-5.5s-6.5 9-9 13.9c3.8 2.9 8.8 4.9 13.6 3.3 5.3-2.3 8.7-7.2 11.9-11.8 2.7-4.3 5.6-9.1 5.3-14.4-.3-4.8-4.3-8.1-7.8-10.9-2.9 3.9-7.9 12.5-7.9 12.5z" fill="#fff"/><path d="m725.3 785.3c4.9-2.7 10.7-4 16.1-2.5 5.1 1.7 9.2 5.5 12.5 9.5.9 1 1.4 2.8 0 3.6-4 3-7.9 6-12 8.8-3.4-2.5-6.5-6.2-11.1-6-3.3.6-5.9 3.3-7.1 6.3-1.3 5.6 2 10.8 4.9 15.3 3.5 5 6.9 10.5 12.3 13.8 4.2 2.7 10.5 1.8 13.3-2.5 2-3.2 1.3-7.2 0-10.4-3.1 1.3-5.3 3.8-8.2 5.5-2.1.3-2.9-2.4-4.2-3.6-1-1.6-3.8-4-1.5-5.6 6.6-4.9 13-9.9 19.7-14.6h1c5.5 6.3 10.1 13.4 15.3 20 1.5 2.1 3.5 3.9 4.3 6.4-1.8 2.2-3.9 4.6-6.6 5.7-2.4-.2-4.7-1.1-7.1-1.3-1 5.8-4.5 10.9-9.4 14.2-8 6-19.2 7.8-28.5 4-9.7-3.8-16.7-12.4-21.3-21.4-3.9-7.7-5.7-16.9-2.6-25.1 3.4-9.6 11.9-15.7 20.2-20.1z" fill="#fff"/><path d="m397.7 797.2 10.8 5.5c.2.1.2.4 0 .5l-14.8 5.5c-.1 0-.1 0-.2 0l-8.1-4.2c-.2-.1-.2-.4 0-.5l12.1-6.8c0-.1.1-.1.2 0z" fill="#fff"/><path d="m372.5 802.4c3.3-.3 5.9 2 8.6 3.5 1 2.3.3 5.6 2.9 7 2.9 2.5 6.8 1.8 9.5-.5 2.8-.3 5.5 1.8 8 2.9 1.2 1.8-.8 3.1-2.1 4-11.2 7.5-29.4-3-26.9-16.9z" fill="#fff"/><path d="m685.9 809.9c1.1-.6 3-1.1 3.5.5 9.8 18.9 19.3 38 28.8 57.1.5 1.2 1 2.4 1.4 3.7-4.1 2.2-8.3 4.3-12.6 6.2-1.5.5-2.8-.6-4.1-1.2-9.8-5.9-19.6-11.7-29.4-17.7-1.1-.7-2.4-1.1-3.6-1.5 4.1 10.2 9.7 19.8 13.8 30 .5 1.5-1.3 1.9-2.2 2.5-4.3 2.1-8.6 4.2-12.9 6.2-4.6-7.5-7.9-15.8-11.9-23.6-6.1-13.1-12.9-25.9-18.5-39.2 4.1-2.3 8.5-4.2 12.6-6.4 12.3 5.5 23.6 13.2 36 18.4-3.9-9.2-9.3-17.8-13.3-27-.1-.5-.2-1.5-.3-2 4.4-1.9 8.6-3.9 12.7-6z" fill="#fff"/><path d="m360.1 826.1c3.4-3.2 6.2-7.2 10-9.9 3 .4 5.6 2.4 8.4 3.5 4.7 2.4 9.7 4.2 14.1 7.1-4.4 23.4-8.4 46.9-13.1 70.2-1.9-.3-3.7-1-5.3-1.9-4.5-2.4-9.3-4.3-13.7-6.9.7-4.5 2-8.8 2.5-13.4-5.6-2.7-11.1-5.6-16.9-7.7-3.2 3.5-5.7 7.8-9.8 10.4-5.2-2.9-10.8-4.9-15.8-7.9 0-.4 0-1.1-.1-1.5 13-14.2 26.5-27.9 39.7-42zm5.4 18.4c-3 3.9-6.9 7.3-9.5 11.6 3.4 1.3 6.5 4 10.4 3.7 1.2-6.6 2.7-13.1 4.1-19.6-2.5.1-3.5 2.8-5 4.3z" fill="#fff"/><path d="m586.9 827.9c4.8-2.1 10-3.5 15.1-4.6 5.3 2.5 10.1 6.5 14.9 9.9-3.4 2-7.2 2.9-11 3.7-3.7 0-6.1-3.8-9.9-3.8-1.5 2.7-2.4 6-4.7 8.2-3.5 1.5-7.2 2.5-11 3.2 1.5-5.8 3.9-11.4 6.6-16.6z" fill="#fff"/><path d="m416 845c.4-2.3.9-4.5 1.7-6.7 6 1 12.1 2 18.1 3.3-.3 9.6-3.4 18.8-4.3 28.4 9.4-7.4 17.1-16.7 26.3-24.4 6.4.8 12.9 2 19.2 3.4l.8.8c-2.2 3.4-5.8 5.5-8.7 8.3-4.2 4-9.1 7.4-12.9 11.8 1.6 15.6 4.5 31.2 6.5 46.8-7.2 0-14.2-1.9-21.2-3.3-1.5-9.8-1.6-19.7-3-29.5-2.7 1-4.5 3.3-6.8 4.9-1.9 1.6-4.5 2.9-4.8 5.7-.9 5-1.8 10-2.7 15-2.6 1.3-5.5-.2-8.2-.4-3.7-.9-7.6-.8-11-2.6 3.5-20.6 7.5-41 11-61.5z" fill="#fff"/><path d="m600.6 842.8c8.4-2.3 17.9-1.7 25.2 3.4 7.9 5.6 12.5 14.6 15.2 23.7 2.5 8.6 3.7 18.2-.2 26.6-3.5 7.5-10.9 12.3-18.7 14.6-9.4 2.9-20.6 2.9-28.8-3.3-8.8-6.4-12.8-17.3-14.7-27.6-1.8-8.6-1.1-18.3 4-25.7 4-6.2 10.9-9.9 18-11.7zm2.8 13.7c-3.9 1.3-4.7 6-4.7 9.6.3 7.6 2.6 14.9 5.7 21.8 1.9 4.1 4.3 8.3 8.5 10.4 3.9 1.7 8.7-1 9.2-5.2 1-6-1.1-11.9-2.7-17.5-2-6.1-4-12.7-8.8-17.2-1.8-2.1-4.7-2.7-7.2-1.9z" fill="#fff"/><path d="m546.5 852.6c2.6-1.3 5.6-.9 8.4-1.1 3.1-.1 6.3-.6 9.3.2 1.5 20.8 2.9 41.5 4.4 62.3.1 2.2.1 4.3.1 6.5-5 .6-10.1 1.3-15.1.9-8.9-10.7-16.5-22.4-25.2-33.3-.5 11.5 1.3 22.9 1.1 34.4-5.9.8-11.8 1.3-17.7.8-1.2-19.8-2.1-39.6-3.3-59.4-.1-3.4-.6-6.8.2-10.1 4.8 0 9.8-1.2 14.5-.2 6.4 7.3 12.3 15.1 18.6 22.5 2.3 2.6 4.1 5.8 6.9 7.9-.2-10.4-1.8-20.9-2.2-31.4z" fill="#fff"/><path d="m419.3 39.3c76.6-16 157-14.1 232.5 6.7 22 6.2 43.8 13.5 64.8 22.5 22.7 10.2 45.1 21.1 65.9 34.7 5.4 4.1 11.2 7.4 16.8 11.3 17.3 11.3 33 24.7 48.9 37.6 68 59.6 119 138.4 145.3 225 4.3 14.4 8.4 28.8 11.2 43.5 2.1 13.1 4.7 26.2 6.2 39.4 6.9 57.2 4.4 115.7-8.4 172-3.3 15.3-8.3 30.2-12.4 45.3-6.2 19.8-14.1 39.1-23.2 57.8-33.9 71.3-85.6 133.8-148.5 181.3-50.7 38.1-108.7 66.6-170.2 82.5-8.4 1.5-16.7 4.1-25.1 5.7-56.8 11.6-115.5 13.3-172.9 5.1-14-2-28-4.5-41.8-8-3-.8-6-1.4-9-1.9-31.1-7.9-61.6-18.7-90.5-32.8-84.9-40.4-157.5-106-206.8-186-26.8-43.4-46.9-91-58.9-140.6-2.6-12.8-5.7-25.5-7.6-38.5-5.8-36.5-7.7-73.7-5.3-110.6 1.1-23.7 4.8-47.2 8.9-70.6 17.2-83.1 56.5-161.4 112.8-224.9 17.4-19.7 36.3-38.2 56.7-54.7 7.8-5.3 14.8-11.6 22.5-17.2 9.8-7.4 20.4-13.6 30.4-20.8 13.2-8.8 27.3-16.2 41.5-23.2 36.6-18.5 76-31.7 116.2-40.6zm101.5 44.8c-4.5 14-9.3 28-13.7 42.1-1.2 3.4-2.1 7-3.6 10.2-17.8-.1-35.6-.2-53.4 0-2.3.3-1.8 2.7 0 3.5 14.3 10.2 28.4 20.6 42.6 30.9-5.4 16.3-10.8 32.6-16.1 49-.5 1.4-.4 2.8-.5 4.2 1.5-.3 3-.8 4.2-1.8 12.8-9.6 25.8-18.9 38.6-28.3 1.1-.7 2.6-2.4 4-1.1 13.7 9.7 27.2 19.7 40.7 29.7 1.1.9 2.4 1.2 3.7 1.7.3-1.4.3-2.8-.2-4.2-5-15-9.8-30.1-14.9-45.1-.6-1.7-1.8-4.2.4-5.3 13.8-9.9 27.4-20.1 41.3-29.9 1.4-.6.8-2.2.9-3.4-18.3-.1-36.6.1-54.8-.1-5.8-16.8-10.9-33.9-16.6-50.7-.5-.9-1.8-.9-2.6-1.4zm-339 113.6c-6.7 7.3-13.4 14.4-19.8 22-1.8 2.1-3.8 4.1-4.9 6.6-24.7 30.5-45.8 64-62 99.8-12.6 26.8-22.1 54.9-29.2 83.7-3.2 9.2-4.6 18.9-6.6 28.5-6.3 34.2-8.7 69.1-7.2 103.8.9 6.4-.1 13.1 1.7 19.4 3.2 38.7 11.6 76.9 24 113.6 19.3 55.7 49.2 107.7 87.6 152.5 44.7 52 100.8 94.4 163.4 122.5 17.1 8 34.8 14.6 52.7 20.2 8.1 3.5 17 5.1 25.5 7.5 75.1 19.3 155 19.3 230.1 0 8.5-2.4 17.3-4 25.4-7.5 14.3-4.5 28.5-9.6 42.3-15.5 20.1-8.8 40-18.4 58.8-29.9 6.5-3 12.1-7.5 18.2-11.1 11.1-7.1 21.6-15.1 32-23.2 6.4-5.3 13.3-10.1 18.9-16.2 59.2-52.3 105.1-119.6 131.7-193.9 7.4-20.6 13.1-41.8 17.7-63.1 2.3-6.5 2.8-13.5 4.2-20.3 8.3-50.6 8.1-102.5-.5-153-1.7-8.7-2.8-17.7-5.6-26.1-3.6-15.1-7.6-30-12.5-44.7-22.7-67.6-60.8-129.7-110.7-180.3-.8-1.1-2.2-.7-3.3-.7-11.1 34.6-26.2 67.9-43.8 99.7-28.4 49.9-64.9 95.9-110.6 131.1-1.8 1.3-3.3 3.1-5.5 3.7-2.4-2.2-4-5.1-6-7.7-35.5-47.2-74.4-91.9-115.8-134.1-10.8-11.3-22.4-23.3-38-27.5-12.2-3.7-25.6-1.2-36.4 5.2-13.2 7.7-22.9 19.8-33.6 30.4-40.7 42.1-78.8 86.8-113.9 133.7l-1.1-.4c-47.4-35.2-85.1-82.2-114.4-133.2-14-25.4-26.8-51.6-36.7-78.9-2.1-8.1-5.5-15.8-8-23.8-3.3 1.6-5.6 4.6-8.1 7.2z" fill="#f7030c"/><path d="m520.8 84.1c.8.5 2.1.4 2.4 1.5 5.7 16.8 10.9 33.9 16.6 50.7 18.3.1 36.6-.1 54.8.1-.1 1.2.5 2.8-.9 3.4-13.9 9.8-27.5 20-41.3 29.9-2.2 1.1-1 3.6-.4 5.3 5.2 15 10 30.1 14.9 45.1.4 1.4.5 2.8.2 4.2-1.3-.5-2.6-.9-3.7-1.7-13.5-10-27-19.9-40.7-29.7-1.4-1.3-2.9.4-4 1.1-12.9 9.5-25.9 18.7-38.6 28.3-1.2 1-2.7 1.5-4.2 1.8 0-1.4 0-2.9.5-4.2 5.3-16.4 10.8-32.7 16.1-49-14.2-10.3-28.3-20.7-42.6-30.9-1.8-.9-2.3-3.3 0-3.5 17.8-.2 35.6-.1 53.4 0 1.6-3.3 2.5-6.8 3.6-10.2 4.6-14.2 9.4-28.1 13.9-42.2z" fill="#ff0"/><g fill="#851329"><path d="m208.6 141.1c16.6-14 34.2-26.7 52.8-37.9-9.9 7.2-20.6 13.4-30.4 20.8-7.6 5.5-14.6 11.8-22.4 17.1z"/><path d="m782.6 103.2c15.2 9.1 29.7 19.3 43.6 30.4 7.5 6 15.2 11.8 22.1 18.6-16-13-31.7-26.4-48.9-37.6-5.6-4-11.5-7.3-16.8-11.4z"/><path d="m181.8 197.7c2.5-2.6 4.8-5.6 8.2-7.2 2.5 8 5.9 15.7 8 23.8-3.2-7.6-5.3-15.6-8.6-23.2-5.9 4.9-10.7 10.8-15.9 16.4-5.7 6.1-11 12.5-16.3 18.9 1.1-2.5 3.1-4.5 4.9-6.6 6.2-7.7 13-14.8 19.7-22.1z"/><path d="m489.1 369.1c11.3-8.5 25.7-13 39.8-10.9 14.4 1.5 26.5 10.6 37.1 19.7 73 63.5 135.3 138.7 189 219.1 4.3 6.8 9.2 13.3 13 20.4-7.3.6-14.7.1-22 .3-4.5-.2-9 .3-13.5-.3-2.1-2.4-3.3-5.3-5-8-12.5-21.3-24.6-42.7-37.2-64-.8-1.6-2.9-1.6-4.4-1.7-31 0-62 0-93 0-3.2.1-6.5-.4-9.7.7-.1 41.4-.2 82.7 0 124.1 17.5.6 35 .1 52.5.3h70.1c1.4 0 2.9.3 4.3.7 2.9 6.5 6.2 12.9 9 19.5.5 8.1.1 16.3.2 24.5-4.8.6-9.7.2-14.5.3-42.9-.1-85.8.2-128.7-.1-.3-15.9 0-31.8-.1-47.7-.1-3.9.5-7.9-.6-11.8-35.7-.1-71.4-.1-107.1 0-.4 1.2-.6 2.5-.6 3.8-.1 18.5.2 37.1-.1 55.7-43.2.3-86.4.1-129.6.1-4.5-.1-9.1.4-13.5-.4.2-8.1-.3-16.3.2-24.5 2.8-6.6 6.1-12.9 9-19.5 3-1 6.2-.6 9.3-.7h87c10.2-.1 20.4.3 30.5-.2.3-41.4.1-82.7.1-124.1-1.2-.4-2.4-.6-3.6-.7-33 0-66 0-99 0-1.6 0-3.6.1-4.4 1.7-13.9 23.5-27.3 47.4-41.2 70.9-.8 1.7-2.9 1.1-4.3 1.3-10.6-.2-21.3.3-32-.3 5.9-10.6 13.1-20.5 19.8-30.6 44.4-65.3 94.6-126.8 151.7-181.3 13.5-12.3 26.7-25.3 41.5-36.3zm22 95.9c-.3.3-.8.8-1.1 1.1-13 .2-26 .1-39.1.1-1.5 0-2.9.2-4.2.6 14 7.2 29.1 12.1 43.2 19.2-13.2 6.5-27 11.7-40.5 17.7-.8.4-1.3 1.1-1.6 2.1 13 .2 26.1.1 39.1.1 1.5-.1 2.9.3 4.2.9.1 4.8-1 9.7.4 14.5 6.9.1 13.9.1 20.8 0 1.5-4.7.2-9.7.4-14.5 1-.5 2-.7 3.1-.9 13.4-.1 26.9.2 40.3-.1-1-2.8-4.4-3-6.7-4.2-11.8-5.2-23.9-9.8-35.5-15.5 14-7.1 29.2-12 43.2-19.1-3.4-1-6.9-.5-10.3-.6-11-.1-22 .2-32.9-.1-.3-.3-.8-.8-1.1-1.1-.3-3.8.3-7.6-.5-11.4-6.9-.1-13.8-.1-20.7 0-.9 3.6-.2 7.4-.5 11.2zm-54.5 5.8c-10.4 4.4-20.9 8.9-31.4 13.3-1.1.5-2.2 1.2-3.1 2 3.2 2.1 6.8 3.2 10.2 4.8 8.1 3.5 16.2 7 24.3 10.5 1.6.8 3.4.8 4.9 0 8.3-3.6 16.6-7.2 24.9-10.8 3.2-1.4 6.6-2.6 9.6-4.5-1-.8-2-1.4-3.2-1.9-10.7-4.4-21.3-9.1-32-13.5-1.3-.9-2.9-.6-4.2.1zm100.8 10.7c-3.1 1.5-6.7 2.3-9.3 4.6 10.1 5.1 20.8 9 31.1 13.7 2.5.9 5 2.9 7.7 1.7 10-4.2 19.9-8.7 30-12.8 1.8-.7 3.5-1.6 5.1-2.6-3.4-2.7-7.7-3.6-11.5-5.5-8.5-3.4-16.8-7.6-25.5-10.5-9.4 3.2-18.4 7.7-27.6 11.4z"/><path d="m59.3 438.2c2-9.5 3.4-19.3 6.6-28.5-12.3 49.5-16.1 100.9-12.1 151.7-1.8-6.3-.8-13-1.7-19.4-1.4-34.7 1-69.6 7.2-103.8z"/><path d="m980.1 417.8c2.9 8.4 3.9 17.4 5.6 26.1 8.6 50.5 8.8 102.5.5 153-1.4 6.8-1.9 13.7-4.2 20.3 13.5-65.6 12.9-134-1.9-199.4z"/><path d="m29.8 487.9c1.9-22.5 4.3-45.1 9.4-67.2-4.1 23.4-7.8 46.9-8.9 70.6-2.4 36.9-.4 74.1 5.3 110.6 1.9 13 5 25.7 7.6 38.5-11.4-43.4-15.3-88.6-14.4-133.4.5-6.4.8-12.7 1-19.1z"/><path d="m1004.8 420.6c6.2 27.4 8.9 55.4 10.2 83.4 1.9 58.6-5.8 117.7-24.9 173.3 4.2-15.1 9.1-30 12.4-45.3 12.8-56.3 15.3-114.7 8.4-172-1.3-13.2-4-26.3-6.1-39.4z"/><path d="m512.4 467.5c6.4 0 12.9-.3 19.3.1.1 5.2.1 10.3 0 15.5-4.1-2.4-6.1-7.1-9.7-10.1-3.6 3-5.7 7.7-9.7 10.2-.1-5.3-.3-10.5.1-15.7z"/><path d="m440.9 483.8c3.4-.1 6.7.2 10.1-.1 4-2.4 8.7-1.6 13.1-1.3 3.8 2.4 8.4 1.2 12.7 1.4 0 .5.1 1.4.1 1.8-3.7 0-7.4 0-11 .1-.5 1.4-.3 3.5-1.8 4.3-3.3.2-6.7.2-10 0-1.6-.8-1.3-2.9-1.8-4.3-3.9-.2-7.8 0-11.6-.2-.1-.4.1-1.3.2-1.7z"/><path d="m579.8 482.5c3.4-.5 7-.5 10.4 0 4 2.4 8.7 1 13.1 1.4v1.8c-3.8 0-7.7 0-11.5.1-.2 1.2-.4 2.5-.5 3.7-3.3 1.3-6.9.6-10.3.7-2.4.2-2-2.8-2.8-4.3-3.7-.5-7.4-.1-11.1-.2.2-.4.5-1.3.7-1.7 3.9-.6 8.3.9 12-1.5z"/><path d="m512.3 488.9c4.1 2.4 6.1 7.2 9.7 10.2 3.7-3 5.6-7.8 9.8-10.2.1 5.2.1 10.4 0 15.6-6.5.4-13 .4-19.5 0-.1-5.2-.2-10.4 0-15.6z"/><path d="m375.8 583.5c15.3-.3 30.5 0 45.8-.2.4 1.2.6 2.4.6 3.6v27c.1 1.5-.2 3.1-.9 4.5-21-.2-42 0-63-.1.3-1.6.9-3 1.6-4.4 5.4-10 10.5-20.3 15.9-30.4z"/><path d="m622.4 583.4c15.3.2 30.5-.2 45.8.2 5.5 10.3 10.6 20.8 16.1 31.1.6 1.2 1.1 2.5 1.3 3.8-21 .1-42-.1-63 .1-.7-1.4-.9-3-.8-4.5.1-9 0-18 0-27.1 0-1.3.2-2.5.6-3.6z"/><path d="m790.9 907c14.5-10.2 28.3-21.2 41.7-32.8-5.6 6.1-12.5 11-18.9 16.2-10.4 8.1-20.8 16.2-32 23.2-6.1 3.7-11.8 8.1-18.2 11.1 9.2-5.7 18.5-11.4 27.4-17.7z"/><path d="m381.5 970.3c7.7 2.2 15.4 4.5 23.2 6.5 60 15.8 123.2 18.9 184.6 10.2 24.8-3.6 49.2-9.4 73.2-16.6-8.1 3.5-16.9 5.1-25.4 7.5-75.1 19.3-155 19.3-230.1 0-8.5-2.5-17.4-4.1-25.5-7.6z"/><path d="m623.2 1004.6c8.4-1.6 16.6-4.2 25.1-5.7-24.9 7.1-50.5 11.3-76.2 14-50.1 5-100.9 2.5-150.2-7.6-7.5-1.7-15.1-3.1-22.4-5.4 3 .5 6 1.2 9 1.9 13.8 3.4 27.8 5.9 41.8 8 57.4 8.1 116.2 6.4 172.9-5.2z"/></g></svg>