<?xml version="1.0" encoding="UTF-8"?>
<svg xmlns="http://www.w3.org/2000/svg" xmlns:xlink="http://www.w3.org/1999/xlink" width="447px" height="447px" viewBox="0 0 447 446" version="1.1">
<g id="surface1">
<path style=" stroke:none;fill-rule:evenodd;fill:rgb(100%,100%,100%);fill-opacity:1;" d="M 445.898438 223 C 445.898438 345.65625 346.328125 445.085938 223.5 445.085938 C 100.671875 445.085938 1.101562 345.65625 1.101562 223 C 1.101562 100.347656 100.671875 0.914062 223.5 0.914062 C 346.328125 0.914062 445.898438 100.347656 445.898438 223 Z M 445.898438 223 "/>
<path style=" stroke:none;fill-rule:evenodd;fill:rgb(78.039216%,78.039216%,78.039216%);fill-opacity:1;" d="M 223.5 446 C 193.328125 446 164.046875 440.117188 136.515625 428.472656 C 109.921875 417.230469 86.007812 401.164062 65.472656 380.675781 C 44.9375 360.183594 28.832031 336.367188 17.566406 309.789062 C 5.894531 282.320312 0 253.105469 0 223 C 0 192.894531 5.894531 163.679688 17.566406 136.210938 C 28.832031 109.675781 44.9375 85.816406 65.472656 65.324219 C 86.007812 44.835938 109.878906 28.769531 136.515625 17.527344 C 164.046875 5.882812 193.328125 0 223.5 0 C 253.671875 0 282.953125 5.882812 310.484375 17.527344 C 337.078125 28.769531 360.992188 44.835938 381.527344 65.324219 C 402.0625 85.816406 418.167969 109.675781 429.433594 136.210938 C 441.105469 163.71875 447 192.894531 447 223 C 447 253.105469 441.105469 282.320312 429.433594 309.789062 C 418.167969 336.328125 402.0625 360.183594 381.527344 380.675781 C 360.992188 401.164062 337.078125 417.230469 310.484375 428.472656 C 282.953125 440.117188 253.671875 446 223.5 446 Z M 223.5 2.027344 C 101.378906 2.027344 2.035156 101.152344 2.035156 223 C 2.035156 344.847656 101.378906 443.972656 223.5 443.972656 C 345.621094 443.972656 444.964844 344.847656 444.964844 223 C 444.964844 101.152344 345.621094 2.027344 223.5 2.027344 Z M 223.5 2.027344 "/>
<path style=" stroke:none;fill-rule:evenodd;fill:rgb(0.784314%,59.607843%,20.392157%);fill-opacity:1;" d="M 202.414062 71.375 C 203.878906 72.792969 203.757812 74.898438 203.878906 76.761719 C 206.195312 77.246094 208.554688 77.046875 210.910156 77.046875 C 221.605469 77.046875 232.335938 77.046875 243.027344 77.046875 C 245.304688 77.003906 247.582031 76.925781 249.859375 77.125 C 249.980469 77.9375 250.144531 78.746094 250.304688 79.515625 C 250.589844 79.515625 250.875 79.558594 251.160156 79.558594 C 252.746094 79.71875 254.046875 80.652344 255.507812 81.257812 C 260.917969 83.890625 266.484375 86.199219 271.851562 88.832031 C 273.398438 89.601562 275.105469 90.128906 276.488281 91.222656 C 276 91.304688 275.511719 91.425781 275.023438 91.507812 C 274.65625 91.464844 274.292969 91.34375 273.925781 91.183594 C 266.082031 87.496094 258.273438 83.808594 250.429688 80.125 C 249.289062 79.757812 249.777344 78.339844 249.613281 77.492188 C 236.847656 77.53125 224.082031 77.492188 211.320312 77.492188 C 208.675781 77.449219 205.992188 77.652344 203.351562 77.328125 C 203.429688 75.34375 203.511719 73.238281 202.414062 71.375 Z M 202.414062 71.375 "/>
<path style=" stroke:none;fill-rule:evenodd;fill:rgb(0.784314%,59.607843%,20.392157%);fill-opacity:1;" d="M 354.777344 167.3125 C 355.140625 167.152344 355.507812 166.949219 355.914062 166.90625 C 358.429688 167.191406 360.90625 167.191406 363.421875 166.90625 C 364.316406 166.988281 365.046875 167.597656 365.820312 167.925781 C 371.949219 170.898438 378.078125 173.875 384.25 176.726562 C 385.632812 177.460938 387.214844 177.050781 388.714844 177.050781 C 388.757812 177.253906 388.839844 177.664062 388.878906 177.867188 C 388.878906 177.867188 386.117188 178.03125 385.105469 178.070312 C 383.601562 176.96875 381.855469 176.238281 380.191406 175.421875 C 375.847656 173.261719 371.421875 171.226562 367.035156 169.105469 C 365.695312 168.535156 364.398438 167.679688 362.9375 167.4375 C 360.214844 167.273438 357.496094 167.476562 354.777344 167.3125 Z M 354.777344 167.3125 "/>
<path style=" stroke:none;fill-rule:evenodd;fill:rgb(0.784314%,59.607843%,20.392157%);fill-opacity:1;" d="M 203.273438 24.488281 C 205.917969 24.203125 208.5625 24.039062 211.164062 23.796875 C 216.734375 23.835938 222.261719 23.105469 227.832031 23.59375 C 230.800781 23.835938 233.808594 23.59375 236.777344 24 C 264.785156 25.90625 292.390625 33.863281 317.109375 47.257812 C 339.835938 59.433594 360.082031 76.15625 376.425781 96.003906 C 400.210938 124.863281 415.578125 160.542969 420.007812 197.640625 C 421.144531 207.339844 421.675781 217.125 421.472656 226.90625 C 421.066406 230.960938 421.230469 235.0625 420.699219 239.121094 C 417.609375 275.976562 403.707031 311.777344 381.34375 341.203125 C 376.386719 347.820312 370.9375 353.988281 365.207031 359.914062 C 386.507812 335.519531 401.632812 305.769531 408.625 274.148438 C 414.804688 246.628906 414.925781 217.855469 409.195312 190.25 C 408.054688 186.03125 407.648438 181.605469 406.671875 177.34375 C 404.558594 167.277344 401.429688 157.335938 396.996094 148.039062 C 391.835938 137.242188 385.695312 126.933594 378.742188 117.234375 C 376.875 114.351562 375.167969 111.386719 372.96875 108.75 C 355.285156 86.953125 332.800781 69.132812 308.003906 55.941406 C 300.765625 52.410156 293.246094 49.53125 285.644531 46.972656 C 270.070312 41.816406 253.933594 38.410156 237.628906 36.949219 C 233.320312 36.460938 228.96875 36.296875 224.617188 36.214844 C 218.644531 35.8125 212.667969 36.136719 206.769531 36.824219 C 189.859375 38.773438 173.070312 42.304688 157.050781 48.273438 C 152.417969 50.058594 147.984375 52.410156 143.59375 54.683594 C 128.714844 62.519531 114.402344 71.652344 101.636719 82.609375 C 98.585938 85.207031 95.703125 88.007812 92.855469 90.890625 C 88.707031 94.585938 85.007812 98.804688 81.472656 103.066406 C 72.160156 114.1875 64.601562 126.691406 58.417969 139.761719 C 58.015625 140.570312 57.730469 141.425781 57.527344 142.277344 C 81.226562 142.316406 104.972656 142.277344 128.714844 142.316406 C 130.460938 142.15625 132.046875 143.617188 132.128906 145.359375 C 132.25 147.390625 132.617188 149.460938 132.453125 151.488281 C 144.445312 151.734375 156.441406 151.367188 168.433594 151.488281 C 168.433594 153.882812 168.433594 156.28125 168.597656 158.675781 C 168.269531 161.394531 168.839844 164.074219 168.433594 166.792969 C 168.394531 171.945312 168.433594 177.101562 168.394531 182.214844 C 167.253906 178.929688 163.960938 176.898438 160.710938 176.207031 C 154 174.789062 147.050781 175.925781 140.542969 177.792969 C 129.933594 180.753906 120.542969 187.859375 114.851562 197.273438 C 111.679688 202.429688 109.6875 208.234375 108.710938 214.160156 C 107.898438 219.558594 107.898438 225.199219 109.445312 230.476562 C 111.109375 237.011719 113.957031 243.34375 118.304688 248.539062 C 123.226562 254.75 130.015625 259.253906 137.332031 262.09375 C 148.390625 266.355469 160.425781 267.332031 172.175781 266.601562 C 182.582031 266.035156 192.824219 263.960938 202.867188 261.203125 C 219.335938 256.574219 234.539062 248.578125 250.191406 241.921875 C 257.753906 238.835938 265.476562 236.160156 273.445312 234.414062 C 287.878906 231.453125 303.125 232.019531 317.109375 236.6875 C 327.679688 240.054688 337.4375 245.859375 345.445312 253.53125 C 352.398438 260.105469 357.441406 268.507812 360.976562 277.316406 C 364.636719 286.246094 366.667969 295.90625 366.792969 305.527344 C 367.320312 323.386719 362.117188 341.242188 352.929688 356.503906 C 344.917969 369.738281 333.941406 381.023438 321.378906 389.949219 C 311.988281 396.648438 301.742188 402.25 291.011719 406.472656 C 288.773438 398.960938 286.617188 391.453125 284.464844 383.945312 C 291.210938 380.738281 297.921875 377.410156 304.058594 373.148438 C 317.515625 364.097656 329.0625 351.917969 336.09375 337.226562 C 340.527344 328.011719 343.007812 317.785156 342.722656 307.554688 C 342.640625 297.367188 339.753906 287.136719 334.0625 278.65625 C 325.769531 266.152344 311.175781 257.996094 296.132812 257.753906 C 283.164062 257.265625 270.480469 261 258.6875 266.035156 C 245.4375 271.675781 232.789062 278.777344 219.335938 283.972656 C 197.992188 291.847656 174.980469 295.945312 152.210938 293.917969 C 138.472656 292.578125 124.808594 288.964844 112.816406 281.941406 C 101.109375 274.839844 91.636719 264.246094 85.660156 251.949219 C 80.210938 240.460938 77.773438 227.675781 78.097656 215.011719 C 78.382812 207.867188 79.234375 200.683594 81.023438 193.742188 C 80.535156 193.460938 80.089844 193.175781 79.5625 192.972656 C 73.421875 190.820312 67.445312 188.183594 62.039062 184.488281 C 58.460938 182.175781 55.046875 179.578125 52.199219 176.410156 C 58.136719 179.171875 64.195312 181.6875 70.496094 183.476562 C 74.601562 184.652344 78.746094 185.910156 83.019531 186.476562 C 83.585938 184.730469 84.398438 183.027344 84.683594 181.203125 C 72.527344 178.847656 60.535156 175.273438 49.273438 170.039062 C 47.28125 177.265625 46.183594 184.691406 45.25 192.078125 C 44.476562 198.855469 44.070312 205.675781 44.191406 212.535156 C 44.027344 223.78125 45.085938 235.023438 46.996094 246.101562 C 52.199219 276.992188 65.414062 306.582031 85.496094 330.691406 C 105.460938 354.839844 132.007812 373.433594 161.480469 384.105469 C 160.382812 389.058594 158.636719 393.847656 157.292969 398.757812 C 156.402344 401.558594 155.667969 404.441406 154.691406 407.203125 C 145.136719 403.996094 135.871094 399.9375 126.964844 395.226562 C 111.921875 386.90625 97.9375 376.71875 85.578125 364.785156 C 63.09375 343.394531 45.816406 316.605469 35.53125 287.339844 C 22.195312 249.554688 20.773438 207.585938 31.546875 168.863281 C 32.769531 164.398438 34.191406 159.972656 35.695312 155.589844 C 50.410156 165.816406 68.300781 170.566406 85.984375 171.90625 C 86.960938 171.945312 87.9375 171.988281 88.871094 171.988281 C 89.808594 170.039062 90.945312 168.210938 91.71875 166.183594 C 81.757812 165.65625 71.957031 163.667969 62.363281 161.027344 C 55.695312 159.082031 49.027344 156.726562 42.929688 153.316406 C 39.71875 151.53125 36.667969 149.339844 34.351562 146.496094 C 33.375 145.238281 32.523438 143.898438 32.28125 142.316406 C 35.164062 142.316406 38.011719 142.316406 40.898438 142.316406 C 42.648438 139.070312 43.988281 135.660156 45.695312 132.414062 C 59.109375 105.828125 78.542969 82.324219 102.289062 64.304688 C 131.398438 41.980469 166.808594 28.019531 203.273438 24.488281 Z M 203.273438 24.488281 "/>
<path style=" stroke:none;fill-rule:evenodd;fill:rgb(0.784314%,59.607843%,20.392157%);fill-opacity:1;" d="M 224.847656 59.941406 C 225.578125 59.214844 226.675781 58.410156 227.777344 58.894531 C 229.40625 59.617188 230.464844 61.152344 231.484375 62.5625 C 232.90625 64.738281 234.292969 67.035156 234.660156 69.65625 C 236.734375 69.695312 238.851562 69.574219 240.929688 69.332031 C 241.703125 69.210938 242.558594 69.332031 243.207031 68.847656 C 245.734375 67.15625 248.132812 65.261719 250.699219 63.648438 C 252.574219 63.328125 254.488281 63.769531 256.320312 64.011719 C 254.773438 67.195312 252.449219 70.019531 250.863281 73.203125 C 250.78125 75.339844 250.617188 77.515625 250.984375 79.609375 C 250.699219 79.609375 250.414062 79.570312 250.132812 79.570312 C 249.96875 78.765625 249.84375 77.957031 249.683594 77.191406 C 247.402344 77.03125 245.121094 77.113281 242.84375 77.113281 C 232.132812 77.113281 221.386719 77.113281 210.675781 77.113281 C 208.316406 77.113281 205.953125 77.3125 203.632812 76.828125 C 203.511719 74.976562 203.632812 72.839844 202.167969 71.46875 C 201.230469 70.300781 200.539062 68.96875 199.765625 67.71875 C 198.992188 66.511719 198.09375 65.382812 197.648438 64.011719 C 199.480469 63.730469 201.351562 63.449219 203.226562 63.609375 C 205.992188 65.34375 208.476562 67.519531 211.289062 69.132812 C 213.8125 69.535156 216.378906 69.65625 218.941406 69.734375 C 220.328125 66.066406 222.160156 62.640625 224.847656 59.941406 Z M 224.847656 59.941406 "/>
<path style=" stroke:none;fill-rule:evenodd;fill:rgb(0.784314%,59.607843%,20.392157%);fill-opacity:1;" d="M 173.453125 92.613281 L 185.808594 87.664062 L 176.09375 93.140625 L 175.160156 94.316406 L 179.589844 95.167969 L 275.109375 95.167969 L 279.214844 93.871094 L 274.214844 91.476562 L 275.230469 90.582031 L 281.652344 92.695312 L 284.582031 91.839844 L 287.261719 92.734375 L 280.554688 100.445312 L 274.417969 103.527344 C 274.417969 103.527344 274.378906 106.40625 274.335938 107.867188 C 272.589844 107.828125 269.214844 107.867188 269.214844 107.867188 L 269.214844 111.15625 L 265.84375 111.113281 L 265.84375 151.039062 L 275.109375 151.121094 L 275.273438 171.042969 L 314.820312 193.316406 L 339.371094 207.152344 L 339.371094 204.878906 L 340.957031 204.921875 L 340.792969 184.46875 L 338.4375 184.390625 L 338.3125 182.402344 C 335.792969 180.941406 333.355469 179.601562 332.339844 177.980469 L 337.09375 178.507812 L 344.617188 178.871094 L 378.757812 178.871094 L 384.488281 178.34375 L 385.097656 178.0625 L 388.878906 177.859375 C 387.457031 179.804688 385.503906 181.347656 383.027344 182.523438 L 382.945312 184.429688 L 380.589844 184.46875 L 380.546875 205.082031 L 382.945312 205.164062 L 382.945312 219.28125 L 376.726562 219.28125 L 376.523438 225.167969 L 376.480469 268.660156 C 376.480469 268.660156 369.410156 249.511719 365.667969 243.871094 C 362.253906 238.71875 353.433594 229.792969 348.515625 226.058594 C 341.605469 220.824219 319.046875 208.003906 319.046875 208.003906 L 263.769531 176.722656 L 261.246094 176.152344 L 194.992188 176.152344 L 182.109375 175.910156 L 182.109375 169.742188 L 251.046875 169.742188 L 262.507812 169.703125 L 262.347656 163.617188 L 262.183594 162.886719 L 256.371094 162.765625 L 189.304688 162.765625 L 182.882812 162.886719 L 182.636719 161.101562 L 182.839844 154.121094 L 182.960938 151.648438 L 187.960938 151.605469 L 188.289062 151 L 188.410156 142.761719 L 188.367188 110.953125 L 185.160156 110.910156 L 185.074219 107.746094 L 179.871094 107.789062 L 179.832031 103.488281 L 169.347656 95.777344 L 167.027344 92.613281 L 169.75 91.761719 Z M 194.179688 103.648438 L 194.058594 109.167969 L 194.058594 146.089844 L 194.222656 151.160156 L 202.675781 151.160156 L 202.675781 103.6875 Z M 216.535156 103.566406 L 216.496094 114.117188 L 205.5625 114.199219 L 205.644531 119.066406 L 216.414062 119.066406 L 216.414062 132.050781 L 205.5625 132.050781 L 205.683594 136.675781 L 216.457031 136.878906 L 216.578125 148.441406 L 221.128906 148.441406 L 221.210938 136.878906 L 233.648438 136.878906 L 233.769531 148.402344 L 238.363281 148.402344 L 238.445312 136.878906 L 247.105469 136.796875 L 247.144531 132.132812 L 238.363281 132.007812 L 238.488281 119.066406 L 247.105469 118.984375 L 247.144531 114.320312 L 238.488281 114.277344 L 238.363281 103.566406 L 233.769531 103.609375 L 233.566406 114.277344 L 221.210938 114.277344 L 221.128906 103.566406 Z M 250.03125 103.6875 L 249.90625 151.078125 L 260.109375 151.078125 L 259.988281 103.6875 Z M 344.207031 182.238281 L 344.328125 188.609375 L 344.574219 188.609375 L 344.574219 205.082031 L 376.5625 205.164062 L 376.523438 188.570312 L 376.644531 186.378906 L 376.480469 182.441406 L 376.808594 182.28125 L 370.628906 182.078125 L 352.339844 182.078125 Z M 376.808594 188.527344 L 376.808594 205.449219 L 377.171875 204.109375 L 377.171875 189.867188 Z M 382.335938 205.246094 L 382.335938 218.835938 L 382.863281 218.835938 L 382.863281 205.285156 Z M 382.335938 205.246094 "/>
<path style=" stroke:none;fill-rule:evenodd;fill:rgb(0.784314%,59.607843%,20.392157%);fill-opacity:1;" d="M 219.449219 120.886719 C 221.382812 117.242188 225.824219 115.058594 229.898438 116.109375 C 232.519531 116.675781 234.660156 118.578125 236.109375 120.804688 C 237.160156 123.191406 237.324219 125.863281 236.714844 128.410156 C 235.746094 130.757812 234.09375 132.980469 231.714844 133.992188 C 228.605469 135.53125 224.695312 135.003906 221.988281 132.902344 C 218.441406 130.148438 217.308594 124.808594 219.449219 120.886719 Z M 219.449219 120.886719 "/>
<path style=" stroke:none;fill-rule:evenodd;fill:rgb(0.784314%,59.607843%,20.392157%);fill-opacity:1;" d="M 120.695312 206.4375 L 120.695312 206.761719 C 120.695312 206.964844 120.695312 207.332031 120.652344 207.535156 C 121.058594 207.414062 121.425781 207.25 121.832031 207.128906 C 122.074219 207.453125 122.320312 207.820312 122.5625 208.144531 C 122.320312 210.828125 122.320312 213.550781 122.402344 216.234375 C 122.886719 223.957031 127.113281 231.152344 133.171875 235.867188 C 141.136719 242.167969 151.375 244.8125 161.332031 245.582031 C 174.621094 246.4375 187.746094 243.226562 200.261719 239 C 216.761719 233.46875 232.609375 226.152344 249.390625 221.476562 C 264.101562 217.617188 279.382812 215.097656 294.664062 216.195312 C 308.113281 216.964844 321.484375 220.542969 333.308594 227.089844 C 348.179688 235.257812 360.414062 248.347656 367.117188 263.957031 C 369.230469 268.835938 370.816406 274 371.953125 279.199219 C 372.441406 282.289062 373.253906 285.339844 373.292969 288.46875 C 373.132812 289.691406 372.96875 290.867188 372.808594 292.085938 C 372.601562 292.007812 372.199219 291.882812 371.996094 291.84375 C 370.695312 283.386719 368.011719 275.175781 363.949219 267.695312 C 353.828125 249.078125 335.867188 235.175781 315.628906 229.242188 C 304.050781 225.664062 291.695312 224.890625 279.667969 226.519531 C 261.785156 228.835938 244.960938 235.703125 228.421875 242.535156 C 222.003906 245.015625 215.785156 247.859375 209.324219 250.21875 C 200.425781 253.632812 191.28125 256.558594 181.851562 258.101562 C 168.28125 260.460938 154.015625 258.46875 141.5 252.699219 C 135.039062 249.566406 128.984375 245.296875 124.796875 239.40625 C 120.574219 233.671875 118.214844 226.601562 118.457031 219.484375 C 118.335938 215.015625 119.351562 210.664062 120.695312 206.4375 Z M 122.117188 216.804688 C 122.359375 214.527344 122.320312 212.25 122.117188 210.015625 C 121.546875 212.167969 121.546875 214.609375 122.117188 216.804688 Z M 122.117188 216.804688 "/>
<path style=" stroke:none;fill-rule:evenodd;fill:rgb(0.784314%,59.607843%,20.392157%);fill-opacity:1;" d="M 182.144531 151.207031 C 184.140625 151.167969 186.175781 151.207031 188.167969 151.167969 C 188.089844 151.332031 187.925781 151.613281 187.84375 151.777344 C 186.378906 151.898438 184.914062 151.777344 183.488281 152.183594 C 182.632812 152.507812 182.835938 153.566406 182.714844 154.257812 C 182.675781 156.574219 182.632812 158.890625 182.714844 161.164062 C 182.796875 161.773438 182.714844 162.789062 183.609375 162.789062 C 185.484375 163.074219 187.355469 162.871094 189.226562 162.871094 C 211.613281 162.871094 234 162.871094 256.386719 162.871094 C 258.339844 162.871094 260.292969 162.75 262.207031 162.992188 C 262.246094 163.15625 262.328125 163.523438 262.371094 163.726562 C 239.332031 163.808594 216.292969 163.726562 193.257812 163.765625 C 189.511719 163.683594 185.765625 163.96875 182.0625 163.605469 C 182.1875 159.457031 182.105469 155.355469 182.144531 151.207031 Z M 182.144531 151.207031 "/>
<path style=" stroke:none;fill-rule:evenodd;fill:rgb(0.784314%,59.607843%,20.392157%);fill-opacity:1;" d="M 355.875 166.878906 C 357.300781 165.523438 358.640625 164.046875 359.613281 162.332031 C 360.507812 164.085938 361.890625 165.5625 363.394531 166.878906 C 360.914062 167.160156 358.394531 167.160156 355.875 166.878906 Z M 355.875 166.878906 "/>
<path style=" stroke:none;fill-rule:evenodd;fill:rgb(0.784314%,59.607843%,20.392157%);fill-opacity:1;" d="M 336.972656 176.648438 C 338.996094 175.808594 343.042969 174.042969 343.042969 174.042969 C 343.042969 174.042969 339.078125 176.3125 337.179688 177.652344 C 337.136719 177.988281 337.097656 178.285156 337.054688 178.621094 C 335.859375 178.621094 332.226562 178.074219 332.226562 178.074219 C 332.265625 177.820312 332.347656 177.234375 332.347656 176.984375 C 333.917969 176.898438 335.527344 177.277344 336.972656 176.648438 Z M 336.972656 176.648438 "/>
<path style=" stroke:none;fill-rule:evenodd;fill:rgb(0.784314%,59.607843%,20.392157%);fill-opacity:1;" d="M 337.175781 178.582031 C 342.652344 178.363281 348.128906 178.546875 353.605469 178.472656 C 363.910156 178.472656 374.175781 178.507812 384.480469 178.4375 C 382.734375 179.34375 380.664062 178.835938 378.757812 178.910156 C 367.398438 178.910156 356.039062 178.910156 344.679688 178.910156 C 342.164062 178.835938 339.609375 179.164062 337.175781 178.582031 Z M 337.175781 178.582031 "/>
<path style=" stroke:none;fill-rule:evenodd;fill:rgb(0.784314%,59.607843%,20.392157%);fill-opacity:1;" d="M 344.167969 182.296875 C 346.855469 181.96875 349.582031 182.171875 352.269531 182.132812 C 358.375 182.132812 364.484375 182.132812 370.589844 182.132812 C 372.664062 182.132812 374.742188 181.96875 376.777344 182.335938 L 376.453125 182.5 C 371.363281 182.703125 350.152344 182.460938 344.613281 182.664062 C 344.613281 183.921875 344.613281 185.144531 344.613281 186.40625 C 355.28125 186.570312 365.949219 186.445312 376.613281 186.445312 C 376.65625 187.179688 376.613281 187.914062 376.492188 188.644531 C 365.828125 188.644531 355.160156 188.5625 344.53125 188.683594 L 344.289062 188.683594 C 344.289062 188.644531 343.636719 184.410156 344.167969 182.296875 Z M 344.167969 182.296875 "/>
<path style=" stroke:none;fill-rule:evenodd;fill:rgb(0.784314%,59.607843%,20.392157%);fill-opacity:1;" d="M 376.773438 188.503906 C 377.050781 188.910156 377.128906 189.359375 377.128906 189.847656 C 377.128906 194.625 377.167969 199.402344 377.128906 204.175781 C 377.128906 204.664062 377.007812 205.113281 376.773438 205.523438 C 376.496094 199.890625 376.578125 194.175781 376.773438 188.503906 Z M 376.773438 188.503906 "/>
<path style=" stroke:none;fill-rule:evenodd;fill:rgb(0.784314%,59.607843%,20.392157%);fill-opacity:1;" d="M 123.21875 200.289062 C 124.265625 198.246094 125.3125 196.160156 126.691406 194.359375 C 126.023438 196.484375 125.0625 198.449219 124.390625 200.535156 C 123.511719 203.03125 122.925781 205.648438 122.425781 208.265625 C 122.175781 207.898438 121.925781 207.570312 121.671875 207.246094 C 121.253906 207.367188 120.878906 207.53125 120.457031 207.65625 C 120.457031 207.449219 120.5 207.082031 120.5 206.875 C 121.085938 204.546875 122.214844 202.417969 123.21875 200.289062 Z M 123.21875 200.289062 "/>
<path style=" stroke:none;fill-rule:evenodd;fill:rgb(0.784314%,59.607843%,20.392157%);fill-opacity:1;" d="M 382.292969 205.339844 L 382.964844 205.339844 C 382.964844 209.839844 383.070312 214.382812 382.964844 218.882812 L 382.292969 218.882812 C 382.242188 214.382812 382.34375 209.878906 382.292969 205.339844 Z M 382.292969 205.339844 "/>
<path style=" stroke:none;fill-rule:evenodd;fill:rgb(0.784314%,59.607843%,20.392157%);fill-opacity:1;" d="M 122.101562 216.867188 C 121.378906 214.679688 121.378906 212.246094 122.101562 210.097656 C 122.355469 212.328125 122.355469 214.597656 122.101562 216.867188 Z M 122.101562 216.867188 "/>
<path style=" stroke:none;fill-rule:evenodd;fill:rgb(0.784314%,59.607843%,20.392157%);fill-opacity:1;" d="M 373.222656 288.425781 C 373.980469 293.429688 373.527344 298.554688 373.527344 303.597656 C 373.183594 305.34375 373.261719 307.214844 372.808594 308.925781 C 372.84375 303.191406 372.65625 297.453125 372.011719 291.800781 C 372.199219 291.882812 372.578125 292.007812 372.769531 292.046875 C 372.921875 290.867188 373.109375 289.648438 373.222656 288.425781 Z M 373.222656 288.425781 "/>
<path style=" stroke:none;fill-rule:evenodd;fill:rgb(0.784314%,59.607843%,20.392157%);fill-opacity:1;" d="M 197.464844 381.214844 L 201.890625 381.78125 L 202.964844 386.519531 L 200.535156 386.035156 Z M 197.464844 381.214844 "/>
<path style=" stroke:none;fill-rule:evenodd;fill:rgb(0.784314%,59.607843%,20.392157%);fill-opacity:1;" d="M 193.921875 385.789062 L 198.109375 386.191406 L 201.132812 390 L 197.667969 389.636719 L 195.976562 388.113281 L 193.761719 389.316406 L 190.496094 388.957031 Z M 193.921875 385.789062 "/>
<path style=" stroke:none;fill-rule:evenodd;fill:rgb(0.784314%,59.607843%,20.392157%);fill-opacity:1;" d="M 271.171875 382.488281 C 272.480469 382.167969 273.789062 381.84375 275.136719 381.761719 C 275.507812 383.339844 276.121094 385.035156 275.464844 386.652344 C 275.261719 387.136719 275.015625 387.90625 274.320312 387.824219 C 273.335938 387.863281 272.355469 387.90625 271.375 387.984375 C 271.621094 387.863281 272.109375 387.621094 272.316406 387.5 C 273.460938 387.136719 273.871094 386.003906 273.664062 384.914062 C 272.929688 384.914062 272.191406 384.914062 271.496094 384.914062 C 271.332031 384.105469 271.253906 383.296875 271.171875 382.488281 Z M 271.171875 382.488281 "/>
<path style=" stroke:none;fill-rule:evenodd;fill:rgb(0.784314%,59.607843%,20.392157%);fill-opacity:1;" d="M 174.167969 387.945312 C 176.484375 386.519531 179.28125 387.089844 181.714844 387.863281 C 183.988281 388.636719 185.976562 390.714844 186.097656 393.199219 C 186.058594 394.832031 185.527344 396.421875 185.285156 398.011719 C 183.21875 398.050781 181.511719 397.355469 179.523438 396.992188 C 180.09375 395.199219 181.148438 392.710938 180.050781 391.367188 C 179.605469 390.839844 178.023438 390.59375 177.742188 391.207031 C 176.96875 392.875 174.535156 404.082031 174.007812 407.421875 C 173.722656 408.847656 176.074219 409.5 176.601562 408.15625 C 177.210938 406.605469 177.414062 404.9375 177.941406 403.386719 C 179.847656 403.59375 181.675781 404.039062 183.5 404.652344 C 183.054688 407.339844 182.730469 410.601562 180.253906 412.269531 C 177.902344 413.820312 174.898438 413.25 172.382812 412.394531 C 170.519531 411.738281 168.691406 410.316406 168.40625 408.277344 C 168.042969 405.871094 168.8125 403.550781 169.261719 401.226562 C 169.871094 398.335938 170.597656 395.484375 171.289062 392.589844 C 171.734375 390.839844 172.425781 388.882812 174.167969 387.945312 Z M 174.167969 387.945312 "/>
<path style=" stroke:none;fill-rule:evenodd;fill:rgb(0.784314%,59.607843%,20.392157%);fill-opacity:1;" d="M 184.082031 415.125 L 192.015625 390.914062 L 199.546875 392.054688 L 199.871094 400.125 L 200.398438 417.449219 L 195.699219 416.839844 L 195.253906 416.390625 L 195.011719 410.4375 L 191.046875 409.992188 L 188.9375 415.859375 Z M 192.257812 405.871094 L 195.132812 406.242188 C 195.132812 406.242188 195.539062 398.332031 195.5 394.378906 C 194.121094 398.128906 192.257812 405.871094 192.257812 405.871094 Z M 192.257812 405.871094 "/>
<path style=" stroke:none;fill-rule:evenodd;fill:rgb(0.784314%,59.607843%,20.392157%);fill-opacity:1;" d="M 244.339844 392.558594 L 244.585938 396.5 L 240.730469 396.703125 L 241.90625 417.859375 L 236.226562 418.183594 L 234.847656 397.109375 L 230.75 397.390625 L 230.46875 393.578125 Z M 244.339844 392.558594 "/>
<path style=" stroke:none;fill-rule:evenodd;fill:rgb(0.784314%,59.607843%,20.392157%);fill-opacity:1;" d="M 207.082031 392.742188 L 214.628906 393.191406 L 216.792969 412.851562 L 218.054688 393.515625 L 222.582031 393.839844 L 220.789062 418.730469 L 213.488281 418.246094 L 210.671875 396.960938 L 210.265625 406.285156 L 209.328125 417.921875 L 204.796875 417.675781 Z M 207.082031 392.742188 "/>
<path style=" stroke:none;fill-rule:evenodd;fill:rgb(0.784314%,59.607843%,20.392157%);fill-opacity:1;" d="M 261.644531 391.171875 C 263.761719 387.609375 268.566406 386.679688 272.390625 387.566406 C 272.148438 387.691406 271.65625 387.933594 271.453125 388.054688 C 272.433594 387.972656 273.410156 387.933594 274.386719 387.890625 C 276.21875 392.871094 277.15625 398.054688 278.539062 403.15625 C 279.066406 404.976562 279.191406 406.960938 278.902344 408.863281 C 278.171875 410.808594 276.257812 412.101562 274.261719 412.585938 C 271.984375 413.234375 269.339844 413.722656 267.222656 412.425781 C 265.46875 411.171875 264.695312 409.066406 264.207031 407.042969 C 263.679688 404.855469 263.066406 402.710938 262.621094 400.523438 C 262.050781 397.445312 260.585938 394.289062 261.644531 391.171875 Z M 267.953125 391.335938 C 267.140625 391.457031 266.691406 392.507812 266.9375 393.234375 C 267.871094 397.242188 268.890625 401.25 269.90625 405.21875 C 270.191406 406.273438 270.398438 407.40625 270.925781 408.378906 C 271.453125 409.226562 272.714844 408.863281 273.246094 408.214844 C 273.488281 406.917969 273.042969 405.664062 272.757812 404.410156 C 271.820312 400.808594 270.925781 397.164062 270.03125 393.519531 C 269.785156 392.507812 269.339844 390.929688 267.953125 391.335938 Z M 267.953125 391.335938 "/>
<path style=" stroke:none;fill-rule:evenodd;fill:rgb(0.784314%,59.607843%,20.392157%);fill-opacity:1;" d="M 253.996094 391.070312 L 259.703125 390.179688 L 259.824219 390.871094 L 260.957031 398.515625 L 263.101562 414.898438 L 257.4375 415.464844 L 255.699219 403.933594 L 252.988281 404.257812 L 254.484375 416.03125 L 248.78125 416.71875 L 246.796875 402.925781 L 245.5 392.125 L 251.125 391.433594 L 252.542969 400.375 L 255.011719 400.050781 Z M 253.996094 391.070312 "/>
</g>
</svg>
