<?xml version="1.0" encoding="UTF-8"?>
<svg xmlns="http://www.w3.org/2000/svg" xmlns:xlink="http://www.w3.org/1999/xlink" width="447px" height="447px" viewBox="0 0 447 447" version="1.1">
<g id="surface1">
<path style=" stroke:none;fill-rule:evenodd;fill:rgb(100%,100%,100%);fill-opacity:1;" d="M 300.371094 232.667969 C 307.941406 243.464844 315.910156 254.011719 323.625 264.710938 C 325.867188 267.695312 327.910156 270.730469 330.25 273.617188 C 332.292969 273.617188 334.335938 273.617188 336.425781 273.566406 C 335.628906 271.726562 334.285156 270.183594 333.089844 268.589844 C 326.015625 258.890625 318.945312 249.238281 311.824219 239.535156 C 308.835938 236.152344 306.546875 232.222656 303.855469 228.640625 C 299.375 222.472656 294.84375 216.351562 290.363281 210.183594 C 289.914062 209.636719 289.515625 209.039062 288.867188 208.640625 C 286.777344 208.441406 284.734375 208.640625 282.640625 208.589844 C 287.074219 215.007812 291.855469 221.175781 296.386719 227.546875 C 297.730469 229.285156 298.976562 231.078125 300.371094 232.667969 Z M 300.371094 232.667969 "/>
<path style=" stroke:none;fill-rule:evenodd;fill:rgb(100%,100%,100%);fill-opacity:1;" d="M 410.234375 110.375 C 396.015625 86.808594 377.320312 65.925781 355.394531 49.320312 C 323.722656 25.160156 285.292969 9.898438 245.667969 6.019531 C 243.582031 5.621094 241.390625 5.820312 239.304688 5.324219 C 235.972656 5.125 232.59375 5.324219 229.261719 4.925781 C 223.492188 4.378906 217.675781 4.976562 211.910156 5.222656 C 208.578125 5.074219 205.246094 5.871094 201.914062 5.820312 C 199.132812 6.367188 196.296875 6.515625 193.511719 6.8125 C 183.621094 8.304688 173.773438 10.195312 164.179688 12.980469 C 163.035156 13.226562 161.84375 13.574219 160.75 13.972656 C 129.875 23.21875 101.136719 39.429688 77.222656 61.054688 C 46.398438 88.796875 23.777344 125.4375 12.9375 165.410156 C 2.347656 204.136719 2.746094 245.75 13.980469 284.28125 C 23.925781 318.386719 42.421875 349.855469 67.230469 375.3125 C 84.28125 392.761719 104.21875 407.429688 126.097656 418.265625 C 147.523438 429.003906 170.742188 436.113281 194.507812 439.195312 C 200.972656 439.941406 207.382812 440.785156 213.898438 440.785156 C 218.371094 441.335938 222.847656 441.132812 227.320312 441.132812 C 230.15625 441.183594 232.941406 440.585938 235.773438 440.738281 C 277.683594 438.550781 318.902344 423.683594 352.660156 398.679688 C 383.636719 375.90625 408.394531 344.882812 423.660156 309.636719 C 441.109375 269.613281 445.882812 224.273438 437.582031 181.417969 C 432.757812 156.359375 423.410156 132.199219 410.234375 110.375 Z M 143.894531 227.703125 C 147.574219 221.4375 151.304688 215.222656 154.933594 208.960938 C 156.125 206.820312 157.320312 204.734375 158.609375 202.648438 C 161.542969 198.074219 164.078125 193.25 167.011719 188.675781 C 167.957031 187.085938 169.75 186.140625 171.636719 186.191406 C 180.734375 186.140625 189.835938 186.191406 198.980469 186.191406 C 201.519531 186.140625 203.90625 187.382812 205.496094 189.371094 C 209.074219 193.597656 212.007812 198.371094 215.539062 202.648438 C 217.027344 204.734375 218.523438 206.820312 219.960938 208.910156 C 225.132812 216.070312 230.402344 223.128906 235.574219 230.289062 C 236.269531 231.285156 237.265625 232.078125 238.109375 232.972656 C 243.082031 241.277344 249.398438 248.683594 254.765625 256.738281 C 250.738281 254.152344 230.75 242.21875 227.570312 239.984375 C 227.273438 236.953125 227.621094 233.867188 227.371094 230.785156 C 224.734375 230.785156 222.152344 230.785156 219.515625 230.785156 C 219.464844 233.519531 219.566406 236.304688 219.515625 239.085938 C 219.613281 239.785156 219.117188 240.28125 218.570312 240.582031 C 208.128906 246.945312 197.691406 253.308594 187.25 259.722656 C 181.679688 263.101562 176.0625 266.433594 170.59375 269.914062 C 162.6875 259.621094 143.050781 233.222656 142.203125 230.984375 C 142.503906 229.792969 143.296875 228.796875 143.894531 227.703125 Z M 282.609375 277.96875 C 279.476562 275.828125 276.246094 273.738281 273.0625 271.703125 C 271.371094 270.65625 270.425781 268.769531 269.234375 267.179688 C 275.152344 270.507812 280.769531 274.386719 286.683594 277.769531 L 286.835938 278.5625 C 285.390625 278.511719 283.851562 278.761719 282.609375 277.96875 Z M 290.214844 283.089844 C 290.214844 287.363281 290.214844 291.589844 290.214844 295.863281 C 288.375 294.074219 287.132812 291.789062 285.542969 289.800781 C 284 287.5625 282.160156 285.523438 280.917969 283.089844 C 284 283.089844 287.082031 283.089844 290.214844 283.089844 Z M 273.164062 278.164062 L 273.609375 278.5625 C 272.265625 278.613281 270.972656 278.613281 269.632812 278.316406 C 268.585938 277.519531 267.542969 276.722656 266.5 275.929688 C 261.28125 271.953125 256.109375 267.921875 250.9375 263.898438 C 243.082031 257.78125 235.128906 251.71875 227.371094 245.503906 C 233.089844 249.179688 238.457031 253.308594 244.078125 257.085938 C 253.621094 264.292969 263.617188 270.90625 273.164062 278.164062 Z M 179.34375 273.789062 C 180.089844 273.242188 180.835938 272.695312 181.628906 272.199219 C 194.261719 263.351562 206.738281 254.203125 219.464844 245.453125 C 213.699219 250.375 207.535156 254.800781 201.617188 259.519531 C 193.464844 265.886719 185.308594 272.199219 177.105469 278.511719 C 175.8125 278.464844 174.472656 278.414062 173.179688 278.363281 C 175.167969 276.871094 177.257812 275.382812 179.34375 273.789062 Z M 172.234375 274.386719 C 172.484375 274.238281 196.644531 258.429688 200.972656 255.496094 C 206.9375 251.617188 212.804688 247.640625 218.917969 243.960938 C 206.640625 252.808594 194.210938 261.460938 181.878906 270.210938 C 180.886719 270.90625 179.890625 271.605469 178.945312 272.300781 C 177.355469 273.390625 175.8125 274.535156 174.273438 275.628906 C 174.125 275.28125 173.773438 274.585938 173.574219 274.238281 C 173.226562 274.289062 172.582031 274.386719 172.234375 274.386719 Z M 199.726562 262.703125 C 206.292969 257.632812 212.65625 252.363281 219.367188 247.441406 C 215.191406 251.417969 210.714844 255.046875 206.441406 258.875 C 199.179688 265.1875 191.921875 271.554688 184.664062 277.867188 C 183.371094 279.109375 181.433594 278.316406 179.890625 278.464844 C 186.355469 273.09375 193.164062 268.023438 199.726562 262.703125 Z M 191.675781 273.988281 C 197.640625 268.671875 203.605469 263.351562 209.523438 258.03125 C 213.003906 255.046875 216.285156 251.816406 219.914062 249.03125 C 210.269531 258.925781 200.523438 268.71875 190.777344 278.511719 C 189.488281 278.511719 188.191406 278.511719 186.949219 278.511719 C 188.242188 276.773438 190.082031 275.480469 191.675781 273.988281 Z M 196.496094 275.332031 C 204.5 267.128906 212.257812 258.625 220.410156 250.570312 C 212.953125 260.019531 205.246094 269.265625 197.640625 278.5625 C 196.398438 278.5625 195.105469 278.511719 193.859375 278.464844 C 194.507812 277.222656 195.550781 276.324219 196.496094 275.332031 Z M 201.566406 276.921875 C 207.980469 268.621094 214.394531 260.316406 220.808594 252.015625 C 220.0625 253.953125 218.769531 255.59375 217.777344 257.382812 C 213.351562 264.445312 209.027344 271.503906 204.550781 278.511719 C 203.308594 278.511719 202.066406 278.511719 200.773438 278.464844 C 200.972656 277.96875 201.269531 277.421875 201.566406 276.921875 Z M 215.589844 263.699219 C 217.476562 260.417969 219.21875 257.085938 221.257812 253.902344 C 221.058594 254.949219 220.660156 255.941406 220.261719 256.9375 C 217.328125 264.144531 214.394531 271.355469 211.460938 278.5625 C 210.121094 278.5625 208.726562 278.5625 207.382812 278.5625 C 209.871094 273.441406 212.902344 268.671875 215.589844 263.699219 Z M 210.566406 281.546875 C 213.25 281.546875 215.984375 281.546875 218.671875 281.546875 C 218.671875 283.039062 218.671875 284.527344 218.570312 285.972656 C 215.9375 285.921875 213.300781 285.921875 210.664062 285.972656 C 210.566406 284.480469 210.515625 282.988281 210.566406 281.546875 Z M 214.34375 278.511719 C 214.695312 276.625 215.4375 274.835938 216.035156 272.996094 C 218.074219 266.878906 220.210938 260.816406 222.25 254.75 C 222.996094 254.75 223.742188 254.75 224.539062 254.75 C 227.222656 262.703125 229.957031 270.609375 232.59375 278.5625 C 226.476562 278.5625 220.410156 278.5625 214.34375 278.511719 Z M 228.066406 281.546875 C 230.75 281.496094 233.4375 281.546875 236.171875 281.546875 C 236.222656 283.039062 236.171875 284.527344 236.070312 286.019531 C 233.386719 285.824219 230.703125 286.269531 228.066406 285.722656 C 228.066406 284.328125 228.066406 282.9375 228.066406 281.546875 Z M 235.226562 278.511719 C 231.996094 270.261719 228.414062 262.207031 225.382812 253.902344 C 226.078125 254.601562 226.476562 255.445312 226.972656 256.289062 C 230.105469 261.757812 233.1875 267.277344 236.269531 272.796875 C 237.3125 274.6875 238.507812 276.523438 239.304688 278.511719 C 237.960938 278.5625 236.570312 278.5625 235.226562 278.511719 Z M 227.222656 254.550781 C 226.726562 253.703125 226.230469 252.859375 225.828125 251.964844 C 231.496094 259.074219 236.964844 266.332031 242.535156 273.492188 C 243.730469 275.183594 245.21875 276.671875 246.164062 278.511719 C 244.824219 278.511719 243.480469 278.511719 242.085938 278.464844 C 237.164062 270.558594 232.195312 262.554688 227.222656 254.550781 Z M 226.328125 250.621094 C 232.246094 256.089844 237.464844 262.253906 243.230469 267.921875 C 246.515625 271.453125 249.945312 274.835938 253.125 278.511719 C 251.78125 278.5625 250.492188 278.5625 249.148438 278.5625 C 241.441406 269.265625 233.882812 259.96875 226.328125 250.621094 Z M 234.183594 256.539062 C 231.898438 254.152344 229.511719 251.867188 227.320312 249.378906 C 237.863281 258.378906 248.054688 267.773438 258.445312 276.921875 C 258.941406 277.320312 259.4375 277.769531 259.636719 278.363281 C 258.445312 278.5625 257.203125 278.464844 256.007812 278.511719 C 248.648438 271.304688 241.441406 263.898438 234.183594 256.539062 Z M 227.273438 247.390625 C 235.328125 253.207031 265.953125 277.867188 266.949219 278.363281 C 265.605469 278.5625 264.214844 278.511719 262.871094 278.511719 C 250.988281 268.121094 239.003906 257.882812 227.273438 247.390625 Z M 165.96875 276.773438 C 165.375 277.171875 164.824219 277.570312 164.230469 277.917969 C 162.789062 278.960938 160.898438 278.414062 159.207031 278.511719 C 160.5 277.617188 161.84375 276.773438 163.1875 275.929688 C 163.730469 275.582031 164.277344 275.28125 164.824219 274.933594 C 165.222656 275.53125 165.574219 276.125 165.96875 276.773438 Z M 55.097656 266.78125 C 55.046875 266.035156 54.648438 265.140625 55.246094 264.492188 C 58.53125 259.769531 61.761719 255.046875 65.042969 250.324219 C 66.929688 247.6875 69.714844 245.203125 73.148438 245.304688 C 77.621094 245.355469 82.144531 245.203125 86.617188 245.355469 C 90.648438 245.898438 93.132812 249.578125 95.320312 252.660156 C 99.644531 258.578125 104.019531 264.542969 108.296875 270.457031 C 109.09375 271.503906 109.738281 272.695312 110.832031 273.492188 C 112.917969 273.691406 115.007812 273.542969 117.097656 273.542969 C 110.78125 264.640625 104.269531 255.941406 97.855469 247.09375 C 95.71875 244.109375 93.28125 240.777344 89.503906 239.984375 C 85.179688 239.785156 80.800781 239.933594 76.476562 239.933594 C 74.6875 239.882812 73.691406 241.574219 72.597656 242.71875 C 71.902344 242.667969 71.15625 242.667969 70.460938 242.617188 C 71.15625 241.324219 72 240.082031 72.796875 238.890625 C 74.238281 236.601562 75.832031 234.414062 77.371094 232.226562 C 81.597656 226.261719 85.675781 220.148438 89.898438 214.132812 C 91.34375 211.992188 93.828125 210.449219 96.464844 210.550781 C 102.578125 210.601562 108.746094 210.5 114.859375 210.601562 C 117.542969 210.652344 119.335938 212.835938 120.777344 214.828125 C 124.652344 220.046875 143.695312 246.097656 147.820312 251.816406 C 153.242188 259.125 158.511719 266.582031 164.03125 273.839844 C 163.285156 274.238281 162.589844 274.6875 161.84375 275.132812 C 160.054688 276.425781 157.269531 278.960938 154.136719 278.613281 C 142.902344 278.5625 131.664062 278.613281 120.476562 278.613281 C 119.484375 276.871094 118.238281 275.230469 117.097656 273.640625 C 115.007812 273.640625 112.917969 273.691406 110.882812 273.839844 C 112.023438 275.382812 113.117188 276.972656 114.113281 278.613281 C 95.617188 278.664062 77.125 278.5625 58.628906 278.664062 C 57.234375 274.734375 56.539062 270.65625 55.097656 266.78125 Z M 70.363281 305.507812 C 66.832031 298.5 63.101562 291.492188 60.765625 283.980469 C 64.445312 284.082031 68.074219 284.726562 71.652344 285.472656 C 76.527344 286.566406 81.398438 287.761719 85.921875 289.847656 C 85.921875 294.375 85.921875 298.898438 85.921875 303.421875 C 88.609375 303.519531 91.292969 303.472656 93.929688 303.472656 C 94.128906 298.945312 93.628906 294.375 94.175781 289.847656 C 96.214844 288.457031 98.550781 287.609375 100.886719 286.816406 C 106.605469 284.976562 112.621094 284.03125 118.636719 283.980469 C 121.320312 288.507812 124.753906 292.535156 127.785156 296.859375 C 129.773438 299.792969 132.160156 302.476562 133.902344 305.558594 C 112.722656 305.558594 91.542969 305.558594 70.363281 305.507812 Z M 140.515625 305.457031 C 135.691406 298.847656 130.871094 292.234375 125.996094 285.671875 C 125.648438 285.125 125.351562 284.578125 125.050781 283.980469 C 133.105469 284.230469 141.210938 285.921875 148.320312 289.699219 C 148.519531 294.273438 148.320312 298.847656 148.417969 303.421875 C 151.105469 303.421875 153.789062 303.421875 156.421875 303.421875 C 156.472656 296.660156 156.421875 289.847656 156.472656 283.089844 C 161.296875 283.089844 166.117188 283.089844 170.988281 283.089844 C 175.914062 290.195312 181.132812 297.007812 186.15625 304.019531 C 186.453125 304.515625 186.75 305.011719 187 305.507812 C 171.539062 305.558594 156.023438 305.609375 140.515625 305.457031 Z M 236.769531 305.558594 C 223.246094 305.507812 209.769531 305.65625 196.246094 305.507812 C 190.925781 297.953125 185.308594 290.695312 180.039062 283.136719 C 187.945312 283.136719 195.851562 283.136719 203.707031 283.136719 C 203.753906 285.871094 203.707031 288.558594 203.753906 291.289062 C 205.695312 293.179688 207.78125 295.019531 209.574219 297.058594 C 209.921875 299.195312 209.621094 301.332031 209.722656 303.472656 C 218.820312 303.519531 227.867188 303.472656 236.964844 303.472656 C 237.015625 301.332031 237.015625 299.246094 236.964844 297.105469 C 238.90625 295.117188 240.894531 293.179688 242.933594 291.390625 C 243.03125 288.65625 242.980469 285.921875 242.980469 283.136719 C 253.421875 283.136719 263.914062 283.136719 274.355469 283.136719 C 279.527344 290.742188 285.242188 297.953125 290.464844 305.507812 C 272.566406 305.609375 254.664062 305.507812 236.769531 305.558594 Z M 297.871094 305.558594 C 296.578125 305.808594 296.230469 304.316406 295.734375 303.472656 C 296.578125 303.472656 297.421875 303.472656 298.269531 303.472656 C 298.320312 299.246094 298.269531 294.96875 298.320312 290.742188 C 298.121094 289.847656 299.066406 289.5 299.660156 289.105469 C 305.578125 286.070312 312.238281 284.777344 318.804688 284.132812 C 325.515625 283.785156 332.324219 283.734375 338.941406 285.074219 C 340.082031 287.5625 342.023438 289.601562 343.5625 291.839844 C 346.84375 296.410156 350.273438 300.9375 353.507812 305.507812 C 335.011719 305.558594 316.417969 305.558594 297.871094 305.558594 Z M 346.992188 287.511719 L 347.691406 287.511719 C 349.429688 288.109375 351.019531 288.953125 352.660156 289.800781 C 352.710938 291.640625 352.710938 293.527344 352.660156 295.367188 C 350.625 292.882812 348.78125 290.246094 346.992188 287.511719 Z M 380.054688 298.25 C 378.960938 300.738281 377.667969 303.125 376.328125 305.507812 C 371.207031 305.558594 366.132812 305.507812 361.011719 305.507812 C 359.671875 305.707031 359.226562 304.265625 358.527344 303.421875 C 359.273438 303.421875 360.019531 303.421875 360.765625 303.421875 C 360.863281 298.945312 360.664062 294.421875 360.863281 289.898438 C 362.804688 288.605469 365.089844 288.109375 367.277344 287.363281 C 373.394531 285.621094 379.609375 284.132812 385.972656 283.933594 C 384.53125 288.90625 382.195312 293.578125 380.054688 298.25 Z M 388.210938 278.5625 L 388.109375 278.5625 C 372.101562 278.464844 356.042969 278.5625 340.03125 278.511719 C 339.136719 276.722656 337.894531 275.132812 336.703125 273.542969 C 334.664062 273.542969 332.625 273.589844 330.585938 273.738281 C 331.582031 275.429688 332.722656 276.972656 333.867188 278.511719 C 319.746094 278.511719 305.628906 278.511719 291.507812 278.511719 C 290.265625 278.613281 289.320312 277.769531 288.324219 277.222656 C 282.308594 273.492188 276.292969 269.863281 270.277344 266.183594 C 268.785156 265.238281 267.144531 264.445312 266.101562 262.953125 C 260.53125 255.246094 254.914062 247.640625 249.296875 239.933594 C 248.003906 238.390625 246.664062 236.902344 245.617188 235.160156 C 239.351562 226.164062 232.789062 217.363281 226.277344 208.5625 C 224.734375 206.574219 223.296875 204.585938 221.902344 202.496094 C 218.273438 197.425781 214.546875 192.453125 210.914062 187.433594 C 209.375 185.347656 207.832031 183.109375 205.542969 181.765625 C 203.507812 180.820312 201.21875 180.671875 199.03125 180.671875 C 191.078125 180.722656 183.121094 180.621094 175.117188 180.722656 C 173.476562 180.671875 172.484375 182.066406 171.488281 183.15625 C 171.140625 183.15625 170.492188 183.15625 170.195312 183.15625 C 170.792969 182.164062 171.339844 181.21875 171.886719 180.222656 C 173.027344 178.1875 174.125 176.199219 175.367188 174.207031 C 179.394531 167.597656 183.171875 160.835938 187.199219 154.273438 C 188.09375 152.582031 189.039062 150.890625 190.082031 149.300781 C 192.222656 145.921875 195.105469 142.140625 199.429688 141.941406 C 209.027344 141.894531 218.671875 141.941406 228.265625 141.941406 C 230.703125 141.894531 233.335938 142.441406 235.179688 144.128906 C 237.066406 145.871094 242.832031 154.570312 244.574219 156.609375 C 248.996094 162.476562 253.125 168.542969 257.699219 174.308594 C 259.140625 176.246094 260.484375 178.285156 261.925781 180.222656 C 267.34375 187.734375 272.8125 195.1875 278.285156 202.648438 C 279.773438 204.632812 281.265625 206.625 282.757812 208.664062 C 284.796875 208.613281 286.886719 208.5625 288.972656 208.414062 C 287.628906 206.472656 286.1875 204.585938 284.847656 202.597656 C 279.375 195.089844 274.007812 187.53125 268.386719 180.175781 C 266.898438 178.234375 265.554688 176.246094 264.164062 174.257812 C 259.539062 167.84375 241.144531 142.6875 239.402344 140.5 C 238.261719 139.109375 236.964844 137.765625 235.179688 137.21875 C 233.289062 136.722656 231.296875 136.523438 229.3125 136.523438 C 220.160156 136.574219 211.0625 136.523438 201.914062 136.574219 C 200.027344 136.472656 198.832031 138.113281 197.789062 139.457031 C 197.195312 139.457031 196.644531 139.40625 196.046875 139.40625 C 197.042969 137.566406 198.136719 135.828125 199.179688 133.988281 C 201.019531 130.609375 203.011719 127.328125 204.996094 123.996094 C 207.433594 120.066406 209.722656 116.039062 212.109375 112.0625 C 214.496094 108.136719 216.234375 103.5625 220.0625 100.726562 C 222.847656 99.585938 225.730469 98.640625 228.761719 98.640625 C 239.054688 98.640625 249.347656 98.640625 259.589844 98.640625 C 262.621094 98.691406 265.554688 99.585938 268.339844 100.726562 C 272.417969 103.414062 274.753906 107.835938 277.585938 111.617188 C 280.519531 115.742188 283.550781 119.820312 286.535156 123.894531 C 289.070312 127.128906 291.457031 130.457031 293.792969 133.789062 C 297.472656 138.960938 301.253906 144.03125 304.980469 149.152344 C 306.273438 150.792969 307.566406 152.484375 308.710938 154.273438 C 313.632812 160.933594 318.40625 167.695312 323.425781 174.257812 C 325.019531 176.394531 326.609375 178.535156 328.101562 180.769531 C 333.46875 188.03125 338.640625 195.488281 344.207031 202.597656 C 345.75 204.683594 347.242188 206.820312 348.683594 208.910156 C 354.402344 216.667969 359.921875 224.519531 365.835938 232.179688 C 367.328125 234.21875 368.820312 236.253906 370.261719 238.34375 C 377.222656 248.035156 384.332031 257.632812 391.390625 267.277344 C 390.246094 271.105469 389.304688 274.882812 388.210938 278.5625 Z M 388.210938 278.5625 "/>
<path style=" stroke:none;fill-rule:evenodd;fill:rgb(0%,32.941176%,65.098039%);fill-opacity:1;" d="M 444.042969 187.246094 C 440.167969 163.578125 432.457031 140.503906 421.269531 119.269531 C 410.132812 98.136719 395.5625 78.792969 378.359375 62.234375 C 353.347656 38.265625 322.71875 20.117188 289.601562 9.875 C 281.746094 7.4375 273.789062 5.449219 265.734375 3.90625 C 252.609375 1.46875 239.28125 -0.0234375 225.957031 0.0273438 C 204.527344 -0.320312 182.992188 2.5625 162.359375 8.433594 C 139.238281 14.945312 117.261719 25.289062 97.46875 38.863281 C 64.105469 61.589844 37.15625 93.5625 20.296875 130.261719 C 10.15625 152.339844 3.691406 176.109375 1.15625 200.277344 C -0.933594 221.457031 -0.238281 242.941406 3.640625 263.875 C 7.769531 286.402344 15.375 308.28125 26.214844 328.519531 C 40.4375 355.171875 60.128906 378.890625 83.695312 397.785156 C 102.789062 413.152344 124.417969 425.335938 147.492188 433.691406 C 168.375 441.246094 190.402344 445.574219 212.578125 446.71875 C 216.210938 446.816406 219.890625 446.570312 223.519531 446.964844 C 225.210938 447.117188 226.851562 446.71875 228.542969 446.71875 C 232.023438 446.617188 235.503906 446.867188 238.933594 446.371094 C 255.34375 445.328125 271.703125 442.34375 287.515625 437.667969 C 326.945312 425.980469 362.894531 403.007812 390.191406 372.328125 C 417.742188 341.695312 436.484375 303.207031 443.648438 262.632812 C 447.972656 237.769531 448.121094 212.160156 444.042969 187.246094 Z M 423.757812 309.621094 C 408.492188 344.878906 383.730469 375.957031 352.753906 398.683594 C 318.988281 423.695312 277.816406 438.511719 235.851562 440.75 C 233.015625 440.601562 230.230469 441.199219 227.398438 441.148438 C 222.921875 441.148438 218.445312 441.347656 213.972656 440.800781 C 207.460938 440.800781 201.042969 440.003906 194.578125 439.210938 C 170.8125 436.074219 147.589844 429.015625 126.160156 418.273438 C 104.28125 407.433594 84.34375 392.765625 67.285156 375.3125 C 42.523438 349.902344 23.980469 318.375 14.03125 284.261719 C 2.84375 245.726562 2.445312 204.105469 13.039062 165.367188 C 23.878906 125.386719 46.503906 88.738281 77.28125 61.042969 C 101.148438 39.410156 129.9375 23.199219 160.820312 13.953125 C 161.960938 13.601562 163.105469 13.253906 164.25 12.957031 C 173.84375 10.171875 183.691406 8.28125 193.585938 6.789062 C 196.371094 6.441406 199.253906 6.292969 201.988281 5.796875 C 205.320312 5.847656 208.652344 5.050781 211.984375 5.199219 C 217.75 5 223.570312 4.402344 229.335938 4.902344 C 232.667969 5.25 236.050781 5.101562 239.382812 5.300781 C 241.46875 5.796875 243.609375 5.597656 245.746094 5.996094 C 285.375 9.875 323.8125 25.140625 355.484375 49.308594 C 377.414062 65.914062 396.109375 86.800781 410.332031 110.371094 C 423.558594 132.199219 432.855469 156.367188 437.628906 181.429688 C 445.984375 224.242188 441.210938 269.59375 423.757812 309.621094 Z M 423.757812 309.621094 "/>
<path style=" stroke:none;fill-rule:evenodd;fill:rgb(0%,32.941176%,65.098039%);fill-opacity:1;" d="M 366 232.296875 C 360.128906 224.640625 354.558594 216.78125 348.839844 209.027344 C 347.34375 206.886719 345.902344 204.75 344.359375 202.707031 C 338.792969 195.546875 333.667969 188.136719 328.246094 180.878906 C 326.800781 178.640625 325.164062 176.503906 323.570312 174.363281 C 318.546875 167.800781 313.773438 160.988281 308.847656 154.375 C 307.753906 152.585938 306.460938 150.894531 305.117188 149.253906 C 301.386719 144.128906 297.609375 139.058594 293.925781 133.886719 C 291.539062 130.554688 289.203125 127.222656 286.664062 123.992188 C 283.679688 119.914062 280.644531 115.835938 277.710938 111.707031 C 274.875 107.929688 272.539062 103.453125 268.460938 100.816406 C 265.675781 99.675781 262.742188 98.777344 259.707031 98.730469 C 249.410156 98.730469 239.164062 98.730469 228.867188 98.730469 C 225.832031 98.679688 222.949219 99.625 220.164062 100.816406 C 216.332031 103.601562 214.59375 108.226562 212.207031 112.15625 C 209.867188 116.132812 207.53125 120.160156 205.09375 124.089844 C 203.105469 127.371094 201.113281 130.703125 199.273438 134.085938 C 198.230469 135.875 197.136719 137.667969 196.140625 139.507812 C 196.738281 139.507812 197.285156 139.507812 197.882812 139.554688 C 198.925781 138.261719 200.121094 136.621094 202.007812 136.671875 C 211.160156 136.621094 220.261719 136.671875 229.417969 136.621094 C 231.402344 136.621094 233.394531 136.769531 235.285156 137.316406 C 237.023438 137.863281 238.367188 139.207031 239.511719 140.601562 C 241.253906 142.835938 259.65625 167.949219 264.28125 174.363281 C 265.675781 176.355469 267.015625 178.34375 268.511719 180.28125 C 274.132812 187.640625 279.5 195.25 284.972656 202.707031 C 286.316406 204.699219 287.757812 206.539062 289.101562 208.527344 C 287.011719 208.675781 284.972656 208.675781 282.886719 208.777344 C 284.972656 208.777344 287.011719 208.628906 289.101562 208.828125 C 289.699219 209.175781 290.144531 209.769531 290.59375 210.367188 C 295.070312 216.535156 299.597656 222.648438 304.074219 228.816406 C 306.757812 232.398438 309.046875 236.324219 312.03125 239.707031 C 319.09375 249.351562 326.15625 259.050781 333.269531 268.746094 C 334.464844 270.390625 335.757812 271.878906 336.601562 273.722656 C 334.5625 273.769531 332.472656 273.769531 330.433594 273.769531 C 328.097656 270.886719 326.007812 267.804688 323.820312 264.871094 C 316.109375 254.175781 308.152344 243.632812 300.59375 232.84375 C 299.199219 231.203125 297.957031 229.464844 296.710938 227.722656 C 292.1875 221.40625 287.410156 215.191406 282.984375 208.777344 C 281.492188 206.789062 280.050781 204.75 278.507812 202.757812 C 273.035156 195.300781 267.5625 187.839844 262.144531 180.332031 C 260.699219 178.394531 259.359375 176.355469 257.914062 174.414062 C 253.339844 168.695312 249.210938 162.578125 244.785156 156.710938 C 242.992188 154.671875 237.273438 145.96875 235.382812 144.230469 C 233.492188 142.539062 230.90625 141.992188 228.46875 142.042969 C 218.871094 142.089844 209.222656 142.042969 199.621094 142.042969 C 195.246094 142.289062 192.410156 146.019531 190.269531 149.402344 C 189.175781 150.992188 188.28125 152.683594 187.386719 154.375 C 183.355469 160.988281 179.578125 167.75 175.546875 174.316406 C 174.304688 176.253906 173.160156 178.292969 172.066406 180.332031 C 171.519531 181.328125 170.921875 182.269531 170.375 183.265625 C 170.722656 183.265625 171.371094 183.265625 171.667969 183.265625 C 172.664062 182.171875 173.660156 180.78125 175.300781 180.828125 C 183.257812 180.78125 191.214844 180.828125 199.222656 180.78125 C 201.410156 180.78125 203.699219 180.929688 205.742188 181.875 C 208.027344 183.21875 209.519531 185.503906 211.109375 187.542969 C 214.792969 192.566406 218.472656 197.589844 222.101562 202.609375 C 223.496094 204.648438 224.988281 206.6875 226.480469 208.675781 C 232.945312 217.53125 239.5625 226.28125 245.828125 235.28125 C 246.871094 237.019531 248.214844 238.515625 249.507812 240.054688 C 255.078125 247.714844 260.75 255.371094 266.320312 263.078125 C 267.363281 264.570312 269.007812 265.367188 270.5 266.3125 C 276.515625 269.992188 282.585938 273.621094 288.554688 277.351562 C 289.550781 277.898438 290.542969 278.742188 291.738281 278.644531 C 305.863281 278.644531 319.988281 278.644531 334.117188 278.644531 C 332.972656 277.101562 331.828125 275.511719 330.832031 273.871094 C 332.871094 273.722656 334.910156 273.671875 336.949219 273.671875 C 338.191406 275.261719 339.386719 276.855469 340.28125 278.644531 C 356.296875 278.691406 372.363281 278.59375 388.378906 278.691406 L 388.480469 278.691406 C 389.625 274.964844 390.519531 271.183594 391.710938 267.503906 C 384.648438 257.855469 377.539062 248.261719 370.574219 238.5625 C 369.03125 236.324219 367.488281 234.285156 366 232.296875 Z M 366 232.296875 "/>
<path style=" stroke:none;fill-rule:evenodd;fill:rgb(0%,32.941176%,65.098039%);fill-opacity:1;" d="M 187.273438 259.714844 C 197.71875 253.300781 208.164062 246.9375 218.605469 240.574219 C 219.152344 240.277344 219.652344 239.78125 219.550781 239.082031 C 219.652344 236.351562 219.550781 233.566406 219.550781 230.785156 C 222.1875 230.785156 224.773438 230.785156 227.40625 230.785156 C 227.65625 233.867188 227.308594 236.898438 227.605469 239.980469 C 230.789062 242.21875 250.78125 254.148438 254.8125 256.730469 C 249.441406 248.679688 243.125 241.273438 238.152344 232.96875 C 237.304688 232.074219 236.359375 231.28125 235.613281 230.285156 C 230.441406 223.128906 225.167969 216.070312 220 208.910156 C 218.507812 206.824219 217.066406 204.734375 215.570312 202.648438 C 212.042969 198.371094 209.105469 193.601562 205.527344 189.375 C 203.984375 187.386719 201.597656 186.144531 199.011719 186.195312 C 189.910156 186.195312 180.808594 186.144531 171.65625 186.195312 C 169.769531 186.144531 168.027344 187.089844 167.035156 188.679688 C 164.101562 193.25 161.5625 198.074219 158.628906 202.648438 C 157.335938 204.734375 156.140625 206.824219 154.949219 208.960938 C 151.269531 215.222656 147.589844 221.4375 143.910156 227.699219 C 143.3125 228.796875 142.566406 229.789062 142.167969 230.933594 C 142.964844 233.167969 162.65625 259.566406 170.566406 269.855469 C 176.085938 266.425781 181.703125 263.09375 187.273438 259.714844 Z M 187.273438 259.714844 "/>
<path style=" stroke:none;fill-rule:evenodd;fill:rgb(0%,32.941176%,65.098039%);fill-opacity:1;" d="M 154.265625 278.464844 C 157.402344 278.859375 160.1875 276.328125 161.980469 274.984375 C 162.675781 274.539062 163.421875 274.140625 164.167969 273.691406 C 158.644531 266.4375 153.371094 258.984375 147.949219 251.679688 C 143.769531 245.964844 124.707031 219.925781 120.878906 214.707031 C 119.433594 212.722656 117.644531 210.535156 114.957031 210.484375 C 108.835938 210.386719 102.664062 210.484375 96.542969 210.433594 C 93.90625 210.335938 91.46875 211.875 89.976562 214.011719 C 85.796875 220.023438 81.714844 226.085938 77.4375 232.101562 C 75.894531 234.285156 74.300781 236.472656 72.859375 238.761719 C 72.0625 240 71.214844 241.195312 70.519531 242.484375 C 71.214844 242.484375 71.914062 242.535156 72.660156 242.585938 C 73.753906 241.441406 74.75 239.753906 76.539062 239.800781 C 80.871094 239.800781 85.25 239.703125 89.578125 239.851562 C 93.359375 240.699219 95.796875 244.027344 97.9375 246.960938 C 104.308594 255.804688 110.875 264.5 117.195312 273.394531 C 118.390625 275.035156 119.585938 276.625 120.578125 278.363281 C 131.824219 278.464844 143.019531 278.414062 154.265625 278.464844 Z M 154.265625 278.464844 "/>
<path style=" stroke:none;fill-rule:evenodd;fill:rgb(0%,32.941176%,65.098039%);fill-opacity:1;" d="M 178.960938 272.339844 C 179.953125 271.644531 180.949219 270.945312 181.890625 270.246094 C 194.210938 261.464844 206.675781 252.785156 218.894531 243.902344 C 212.78125 247.546875 206.921875 251.585938 200.964844 255.476562 C 196.589844 258.421875 172.457031 274.289062 172.253906 274.4375 C 172.554688 274.386719 173.25 274.339844 173.546875 274.289062 C 173.695312 274.636719 174.042969 275.335938 174.242188 275.683594 C 175.832031 274.585938 177.371094 273.390625 178.960938 272.339844 Z M 178.960938 272.339844 "/>
<path style=" stroke:none;fill-rule:evenodd;fill:rgb(0%,32.941176%,65.098039%);fill-opacity:1;" d="M 114.179688 278.457031 C 113.1875 276.816406 112.09375 275.222656 110.953125 273.683594 C 113.039062 273.53125 115.121094 273.480469 117.15625 273.480469 C 115.074219 273.480469 112.988281 273.632812 110.902344 273.433594 C 109.8125 272.6875 109.167969 271.445312 108.371094 270.398438 C 104.054688 264.433594 99.738281 258.515625 95.421875 252.597656 C 93.238281 249.515625 90.753906 245.886719 86.738281 245.289062 C 82.269531 245.140625 77.753906 245.289062 73.289062 245.238281 C 69.863281 245.140625 67.085938 247.625 65.199219 250.261719 C 61.921875 254.984375 58.699219 259.757812 55.421875 264.433594 C 54.828125 265.078125 55.226562 265.972656 55.273438 266.71875 C 56.714844 270.597656 57.410156 274.675781 58.847656 278.503906 C 77.257812 278.457031 95.71875 278.503906 114.179688 278.457031 Z M 114.179688 278.457031 "/>
<path style=" stroke:none;fill-rule:evenodd;fill:rgb(0%,32.941176%,65.098039%);fill-opacity:1;" d="M 201.636719 259.492188 C 207.542969 254.765625 213.699219 250.335938 219.457031 245.40625 C 206.800781 254.21875 194.339844 263.324219 181.683594 272.183594 C 180.941406 272.730469 180.144531 273.230469 179.398438 273.777344 C 177.363281 275.320312 175.28125 276.863281 173.195312 278.355469 C 174.484375 278.355469 175.828125 278.457031 177.117188 278.503906 C 185.304688 272.183594 193.449219 265.8125 201.636719 259.492188 Z M 201.636719 259.492188 "/>
<path style=" stroke:none;fill-rule:evenodd;fill:rgb(0%,32.941176%,65.098039%);fill-opacity:1;" d="M 227.355469 245.597656 C 235.113281 251.8125 243.074219 257.878906 250.933594 263.996094 C 256.15625 267.976562 261.28125 272.054688 266.5 276.03125 C 267.546875 276.777344 268.589844 277.625 269.636719 278.421875 C 270.929688 278.71875 272.273438 278.71875 273.617188 278.667969 L 273.167969 278.269531 C 263.667969 271.007812 253.667969 264.394531 244.070312 257.234375 C 238.449219 253.402344 233.074219 249.226562 227.355469 245.597656 Z M 227.355469 245.597656 "/>
<path style=" stroke:none;fill-rule:evenodd;fill:rgb(0%,32.941176%,65.098039%);fill-opacity:1;" d="M 184.742188 277.773438 C 192 271.488281 199.265625 265.148438 206.523438 258.863281 C 210.800781 255.050781 215.277344 251.386719 219.457031 247.476562 C 212.792969 252.378906 206.375 257.625 199.8125 262.675781 C 193.195312 267.921875 186.429688 272.972656 179.964844 278.417969 C 181.507812 278.269531 183.445312 279.011719 184.742188 277.773438 Z M 184.742188 277.773438 "/>
<path style=" stroke:none;fill-rule:evenodd;fill:rgb(0%,32.941176%,65.098039%);fill-opacity:1;" d="M 267.035156 278.308594 C 266.039062 277.8125 235.410156 253.265625 227.355469 247.476562 C 239.140625 257.917969 251.121094 268.113281 262.957031 278.503906 C 264.300781 278.457031 265.640625 278.457031 267.035156 278.308594 Z M 267.035156 278.308594 "/>
<path style=" stroke:none;fill-rule:evenodd;fill:rgb(0%,32.941176%,65.098039%);fill-opacity:1;" d="M 220.019531 248.980469 C 216.34375 251.769531 213.113281 255.007812 209.632812 257.992188 C 203.667969 263.320312 197.699219 268.648438 191.785156 273.976562 C 190.195312 275.417969 188.355469 276.714844 187.113281 278.503906 C 188.402344 278.503906 189.648438 278.503906 190.9375 278.503906 C 200.683594 268.695312 210.378906 258.839844 220.019531 248.980469 Z M 220.019531 248.980469 "/>
<path style=" stroke:none;fill-rule:evenodd;fill:rgb(0%,32.941176%,65.098039%);fill-opacity:1;" d="M 259.699219 278.304688 C 259.5 277.660156 258.953125 277.265625 258.507812 276.867188 C 248.105469 267.730469 237.90625 258.296875 227.355469 249.355469 C 229.542969 251.839844 231.933594 254.125 234.222656 256.507812 C 241.488281 263.855469 248.703125 271.253906 256.066406 278.503906 C 257.261719 278.457031 258.507812 278.503906 259.699219 278.304688 Z M 259.699219 278.304688 "/>
<path style=" stroke:none;fill-rule:evenodd;fill:rgb(0%,32.941176%,65.098039%);fill-opacity:1;" d="M 220.398438 250.484375 C 212.253906 258.597656 204.507812 267.058594 196.511719 275.269531 C 195.570312 276.265625 194.476562 277.160156 193.882812 278.40625 C 195.121094 278.457031 196.414062 278.457031 197.65625 278.503906 C 205.253906 269.199219 212.949219 259.941406 220.398438 250.484375 Z M 220.398438 250.484375 "/>
<path style=" stroke:none;fill-rule:evenodd;fill:rgb(0%,32.941176%,65.098039%);fill-opacity:1;" d="M 253.117188 278.457031 C 249.996094 274.839844 246.527344 271.472656 243.257812 267.90625 C 237.5625 262.261719 232.308594 256.121094 226.414062 250.671875 C 233.945312 259.984375 241.523438 269.242188 249.105469 278.503906 C 250.492188 278.503906 251.78125 278.503906 253.117188 278.457031 Z M 253.117188 278.457031 "/>
<path style=" stroke:none;fill-rule:evenodd;fill:rgb(0%,32.941176%,65.098039%);fill-opacity:1;" d="M 217.914062 257.351562 C 218.964844 255.566406 220.210938 253.925781 220.960938 251.988281 C 214.519531 260.28125 208.078125 268.574219 201.640625 276.867188 C 201.339844 277.363281 201.039062 277.859375 200.839844 278.457031 C 202.089844 278.457031 203.335938 278.503906 204.632812 278.503906 C 209.128906 271.503906 213.472656 264.402344 217.914062 257.351562 Z M 217.914062 257.351562 "/>
<path style=" stroke:none;fill-rule:evenodd;fill:rgb(0%,32.941176%,65.098039%);fill-opacity:1;" d="M 246.347656 278.503906 C 245.347656 276.667969 243.890625 275.179688 242.691406 273.488281 C 237.078125 266.339844 231.5625 259.089844 225.851562 251.988281 C 226.25 252.882812 226.753906 253.726562 227.253906 254.570312 C 232.214844 262.566406 237.277344 270.511719 242.289062 278.503906 C 243.589844 278.503906 244.945312 278.503906 246.347656 278.503906 Z M 246.347656 278.503906 "/>
<path style=" stroke:none;fill-rule:evenodd;fill:rgb(0%,32.941176%,65.098039%);fill-opacity:1;" d="M 220.351562 256.898438 C 220.746094 255.90625 221.089844 254.914062 221.335938 253.871094 C 219.3125 257.046875 217.582031 260.425781 215.707031 263.65625 C 213.042969 268.621094 209.980469 273.390625 207.609375 278.503906 C 208.941406 278.503906 210.277344 278.503906 211.660156 278.503906 C 214.523438 271.304688 217.386719 264.050781 220.351562 256.898438 Z M 220.351562 256.898438 "/>
<path style=" stroke:none;fill-rule:evenodd;fill:rgb(0%,32.941176%,65.098039%);fill-opacity:1;" d="M 239.390625 278.46875 C 238.546875 276.480469 237.402344 274.644531 236.359375 272.753906 C 233.277344 267.289062 230.195312 261.773438 227.066406 256.253906 C 226.566406 255.410156 226.171875 254.515625 225.472656 253.871094 C 228.507812 262.167969 232.085938 270.21875 235.316406 278.46875 C 236.65625 278.519531 238.046875 278.519531 239.390625 278.46875 Z M 239.390625 278.46875 "/>
<path style=" stroke:none;fill-rule:evenodd;fill:rgb(0%,32.941176%,65.098039%);fill-opacity:1;" d="M 232.621094 278.472656 C 229.984375 270.503906 227.25 262.539062 224.566406 254.621094 C 223.824219 254.621094 223.027344 254.621094 222.28125 254.621094 C 220.246094 260.746094 218.15625 266.820312 216.070312 272.894531 C 215.472656 274.738281 214.726562 276.53125 214.378906 278.421875 C 220.492188 278.523438 226.554688 278.523438 232.621094 278.472656 Z M 232.621094 278.472656 "/>
<path style=" stroke:none;fill-rule:evenodd;fill:rgb(0%,32.941176%,65.098039%);fill-opacity:1;" d="M 269.289062 267.222656 C 270.484375 268.769531 271.382812 270.664062 273.125 271.761719 C 276.3125 273.804688 279.550781 275.902344 282.6875 278.042969 C 283.980469 278.84375 285.523438 278.59375 286.96875 278.691406 L 286.820312 277.894531 C 280.84375 274.453125 275.214844 270.5625 269.289062 267.222656 Z M 269.289062 267.222656 "/>
<path style=" stroke:none;fill-rule:evenodd;fill:rgb(0%,32.941176%,65.098039%);fill-opacity:1;" d="M 159.28125 278.449219 C 160.921875 278.351562 162.863281 278.894531 164.308594 277.855469 C 164.90625 277.457031 165.453125 277.0625 166.050781 276.714844 C 165.652344 276.121094 165.304688 275.527344 164.90625 274.933594 C 164.359375 275.277344 163.808594 275.625 163.261719 275.921875 C 161.867188 276.714844 160.574219 277.558594 159.28125 278.449219 Z M 159.28125 278.449219 "/>
<path style=" stroke:none;fill-rule:evenodd;fill:rgb(0%,32.941176%,65.098039%);fill-opacity:1;" d="M 218.605469 285.976562 C 218.703125 284.472656 218.703125 282.96875 218.703125 281.515625 C 216.03125 281.515625 213.308594 281.515625 210.636719 281.515625 C 210.589844 283.019531 210.636719 284.523438 210.738281 286.027344 C 213.359375 285.925781 215.984375 285.925781 218.605469 285.976562 Z M 218.605469 285.976562 "/>
<path style=" stroke:none;fill-rule:evenodd;fill:rgb(0%,32.941176%,65.098039%);fill-opacity:1;" d="M 236.066406 286.019531 C 236.214844 284.515625 236.214844 283.015625 236.164062 281.515625 C 233.511719 281.515625 230.859375 281.515625 228.15625 281.515625 C 228.15625 282.914062 228.15625 284.316406 228.105469 285.71875 C 230.710938 286.320312 233.414062 285.820312 236.066406 286.019531 Z M 236.066406 286.019531 "/>
<path style=" stroke:none;fill-rule:evenodd;fill:rgb(0%,32.941176%,65.098039%);fill-opacity:1;" d="M 171.039062 283.019531 C 166.210938 283.019531 161.332031 283.019531 156.507812 283.019531 C 156.457031 289.820312 156.507812 296.671875 156.457031 303.472656 C 153.769531 303.472656 151.082031 303.472656 148.445312 303.472656 C 148.34375 298.871094 148.542969 294.269531 148.34375 289.667969 C 141.179688 285.871094 133.066406 284.167969 125.054688 283.917969 C 125.304688 284.519531 125.652344 285.066406 126 285.621094 C 130.828125 292.269531 135.65625 298.921875 140.53125 305.523438 C 156.058594 305.621094 171.585938 305.570312 187.113281 305.570312 C 186.8125 305.070312 186.566406 304.523438 186.265625 304.074219 C 181.191406 297.019531 175.914062 290.171875 171.039062 283.019531 Z M 171.039062 283.019531 "/>
<path style=" stroke:none;fill-rule:evenodd;fill:rgb(0%,32.941176%,65.098039%);fill-opacity:1;" d="M 243.046875 283.019531 C 243.046875 285.769531 243.097656 288.515625 242.996094 291.316406 C 240.910156 293.167969 238.976562 295.117188 237.035156 297.066406 C 237.085938 299.21875 237.085938 301.316406 237.035156 303.464844 C 227.945312 303.464844 218.902344 303.464844 209.8125 303.464844 C 209.714844 301.316406 210.011719 299.117188 209.664062 297.015625 C 207.875 294.96875 205.789062 293.167969 203.851562 291.21875 C 203.800781 288.46875 203.851562 285.769531 203.800781 283.019531 C 195.902344 283.070312 188.003906 283.019531 180.152344 283.019531 C 185.417969 290.617188 191.03125 297.964844 196.347656 305.515625 C 209.863281 305.664062 223.324219 305.515625 236.839844 305.566406 C 254.722656 305.515625 272.65625 305.664062 290.539062 305.515625 C 285.324219 297.914062 279.609375 290.667969 274.445312 283.019531 C 263.964844 283.019531 253.53125 283.019531 243.046875 283.019531 Z M 243.046875 283.019531 "/>
<path style=" stroke:none;fill-rule:evenodd;fill:rgb(0%,32.941176%,65.098039%);fill-opacity:1;" d="M 285.652344 289.734375 C 287.25 291.726562 288.503906 294.015625 290.351562 295.804688 C 290.351562 291.527344 290.351562 287.296875 290.351562 283.019531 C 287.203125 283.019531 284.101562 283.019531 280.949219 283.019531 C 282.25 285.457031 284.101562 287.496094 285.652344 289.734375 Z M 285.652344 289.734375 "/>
<path style=" stroke:none;fill-rule:evenodd;fill:rgb(0%,32.941176%,65.098039%);fill-opacity:1;" d="M 118.628906 283.957031 C 112.609375 284.007812 106.589844 284.949219 100.875 286.777344 C 98.585938 287.566406 96.199219 288.40625 94.160156 289.789062 C 93.613281 294.238281 94.109375 298.835938 93.910156 303.332031 C 91.226562 303.28125 88.539062 303.332031 85.902344 303.28125 C 85.902344 298.785156 85.902344 294.289062 85.902344 289.789062 C 81.378906 287.664062 76.457031 286.53125 71.632812 285.441406 C 68.050781 284.75 64.421875 284.058594 60.742188 283.957031 C 63.128906 291.421875 66.808594 298.441406 70.339844 305.359375 C 91.523438 305.410156 112.710938 305.410156 133.894531 305.359375 C 132.152344 302.296875 129.765625 299.628906 127.777344 296.710938 C 124.742188 292.460938 121.3125 288.457031 118.628906 283.957031 Z M 118.628906 283.957031 "/>
<path style=" stroke:none;fill-rule:evenodd;fill:rgb(0%,32.941176%,65.098039%);fill-opacity:1;" d="M 338.980469 285.109375 C 332.371094 283.769531 325.566406 283.820312 318.859375 284.167969 C 312.300781 284.8125 305.644531 286.101562 299.730469 289.128906 C 299.132812 289.476562 298.191406 289.875 298.390625 290.769531 C 298.339844 294.984375 298.4375 299.253906 298.339844 303.472656 C 297.496094 303.472656 296.652344 303.472656 295.804688 303.472656 C 296.300781 304.316406 296.652344 305.804688 297.941406 305.554688 C 316.476562 305.554688 335.003906 305.605469 353.539062 305.554688 C 350.308594 300.941406 346.882812 296.476562 343.601562 291.910156 C 342.0625 289.625 340.171875 287.59375 338.980469 285.109375 Z M 338.980469 285.109375 "/>
<path style=" stroke:none;fill-rule:evenodd;fill:rgb(0%,32.941176%,65.098039%);fill-opacity:1;" d="M 360.953125 289.929688 C 360.753906 294.414062 360.953125 298.941406 360.851562 303.472656 C 360.109375 303.472656 359.363281 303.472656 358.617188 303.472656 C 359.261719 304.316406 359.757812 305.761719 361.101562 305.5625 C 366.226562 305.5625 371.300781 305.613281 376.421875 305.5625 C 377.765625 303.222656 379.058594 300.785156 380.152344 298.296875 C 382.292969 293.617188 384.675781 288.9375 386.070312 283.957031 C 379.707031 284.207031 373.4375 285.699219 367.371094 287.394531 C 365.179688 288.089844 362.894531 288.636719 360.953125 289.929688 Z M 360.953125 289.929688 "/>
<path style=" stroke:none;fill-rule:evenodd;fill:rgb(0%,32.941176%,65.098039%);fill-opacity:1;" d="M 352.738281 289.832031 C 351.117188 289.03125 349.546875 288.132812 347.832031 287.53125 L 347.144531 287.53125 C 348.859375 290.230469 350.726562 292.929688 352.785156 295.429688 C 352.785156 293.53125 352.785156 291.679688 352.738281 289.832031 Z M 352.738281 289.832031 "/>
<path style=" stroke:none;fill-rule:evenodd;fill:rgb(0%,57.647059%,84.705882%);fill-opacity:1;" d="M 199.066406 12.460938 C 202.351562 12.113281 205.632812 11.617188 208.960938 11.617188 C 216.371094 10.773438 223.878906 11.21875 231.339844 11.167969 C 251.726562 12.015625 272.117188 15.644531 291.457031 22.253906 C 323.730469 33.140625 353.269531 52.03125 376.738281 76.6875 C 395.785156 96.574219 410.902344 120.234375 420.894531 145.933594 C 438.398438 190.476562 440.042969 241.03125 425.570312 286.667969 C 414.234375 322.90625 392.800781 355.863281 364.40625 381.066406 C 358.390625 386.4375 352.125 391.554688 345.460938 396.078125 C 345.511719 387.480469 345.460938 378.878906 345.460938 370.328125 C 345.511719 367.894531 345.363281 365.355469 344.316406 363.121094 C 341.929688 357.003906 335.863281 353.03125 329.648438 351.539062 C 333.179688 351.835938 336.710938 351.589844 340.242188 351.6875 C 341.632812 350.445312 342.976562 349.203125 344.21875 347.808594 C 318.910156 347.710938 293.597656 347.808594 268.335938 347.761719 C 271.21875 345.175781 271.867188 341.25 272.464844 337.621094 C 268.832031 337.570312 265.203125 337.570312 261.574219 337.570312 C 260.578125 337.472656 259.78125 338.117188 258.988281 338.664062 C 255.65625 337.96875 252.027344 336.972656 248.792969 338.613281 C 245.757812 339.855469 243.769531 342.6875 242.976562 345.824219 C 242.527344 345.273438 242.078125 344.679688 241.535156 344.179688 C 238.25 343.882812 234.96875 344.132812 231.6875 344.082031 C 231.636719 345.273438 231.589844 346.46875 231.636719 347.710938 C 219.753906 343.882812 207.421875 341.496094 194.988281 340.703125 C 190.066406 340.054688 185.042969 340.453125 180.070312 340.355469 C 174.402344 340.207031 168.734375 341.148438 163.113281 341.445312 C 162.71875 340.15625 162.171875 338.910156 161.625 337.667969 C 155.109375 337.667969 148.644531 337.621094 142.128906 337.667969 C 143.523438 340.207031 145.511719 342.339844 147.300781 344.578125 C 143.722656 345.273438 140.289062 346.367188 136.808594 347.460938 C 136.015625 347.710938 135.167969 347.859375 134.324219 347.859375 C 123.683594 347.859375 113.039062 347.808594 102.398438 347.910156 C 103.640625 349.300781 105.035156 350.59375 106.527344 351.6875 C 105.628906 351.738281 104.6875 351.789062 103.792969 351.835938 C 103.691406 357.105469 103.742188 362.425781 103.742188 367.695312 C 102.898438 367.695312 102.101562 367.742188 101.304688 367.742188 C 101.105469 371.921875 101.304688 376.144531 101.207031 380.320312 C 102.050781 380.421875 102.945312 380.519531 103.792969 380.667969 C 103.742188 386.4375 103.792969 392.203125 103.792969 397.917969 C 74.949219 378.382812 51.230469 351.386719 35.117188 320.46875 C 26.316406 303.417969 19.804688 285.222656 15.875 266.433594 C 7.324219 224.972656 11.25 181.03125 27.460938 142.007812 C 44.070312 101.691406 73.507812 66.796875 110.453125 43.628906 C 137.15625 26.730469 167.691406 15.992188 199.066406 12.460938 Z M 211.398438 49.445312 C 204.238281 50.042969 197.128906 50.9375 190.066406 52.230469 C 194.691406 52.679688 199.367188 52.328125 203.988281 52.429688 C 219.402344 52.429688 234.820312 52.429688 250.234375 52.429688 C 252.375 52.429688 254.5625 52.527344 256.699219 52.230469 C 247.996094 50.539062 239.195312 49.496094 230.34375 49.246094 C 224.03125 48.453125 217.714844 49.347656 211.398438 49.445312 Z M 156.253906 62.519531 C 155.707031 62.820312 154.859375 62.917969 154.710938 63.664062 C 159.039062 63.863281 163.363281 63.714844 167.691406 63.761719 C 209.3125 63.714844 250.929688 63.863281 292.601562 63.664062 C 291.90625 63.214844 291.257812 62.769531 290.515625 62.472656 C 285.839844 60.582031 281.117188 58.792969 276.34375 57.300781 C 274.203125 56.65625 271.914062 57.050781 269.679688 56.953125 C 240.488281 57.003906 211.351562 56.855469 182.160156 57.003906 C 178.679688 56.902344 175.148438 56.855469 171.667969 57.003906 C 166.394531 58.445312 161.324219 60.53125 156.253906 62.519531 Z M 132.882812 74.5 C 130.890625 75.84375 128.605469 76.886719 126.863281 78.628906 C 135.167969 78.824219 143.472656 78.628906 151.777344 78.675781 C 183.105469 78.675781 214.433594 78.675781 245.757812 78.675781 C 270.523438 78.628906 295.285156 78.777344 320 78.628906 C 317.117188 76.140625 313.636719 74.402344 310.40625 72.414062 C 308.8125 71.617188 307.320312 70.175781 305.382812 70.375 C 250.335938 70.425781 195.289062 70.324219 140.238281 70.425781 C 137.652344 71.46875 135.320312 73.109375 132.882812 74.5 Z M 99.960938 100.597656 C 139.992188 100.699219 180.070312 100.5 220.101562 100.699219 C 216.273438 103.480469 214.53125 108.105469 212.144531 112.03125 L 211.996094 111.734375 C 211.746094 111.683594 211.25 111.585938 211.003906 111.535156 C 170.625 111.535156 130.296875 111.585938 89.917969 111.484375 C 86.683594 115.511719 83.304688 119.4375 80.667969 123.863281 C 122.140625 123.914062 163.613281 123.863281 205.085938 123.863281 C 203.09375 127.144531 201.105469 130.476562 199.265625 133.855469 C 198.121094 133.210938 196.78125 133.707031 195.535156 133.65625 C 185.9375 133.605469 176.34375 133.707031 166.695312 133.65625 C 159.085938 133.558594 151.429688 133.855469 143.820312 133.507812 C 139.046875 133.804688 134.222656 133.558594 129.402344 133.65625 C 118.261719 133.605469 107.171875 133.804688 96.035156 133.558594 C 91.261719 133.804688 86.4375 133.605469 81.664062 133.65625 C 79.125 133.757812 76.539062 133.210938 74.054688 133.804688 C 71.519531 137.832031 69.332031 142.15625 67.191406 146.382812 C 66.746094 147.277344 66.398438 148.171875 66.148438 149.117188 C 107.472656 149.214844 148.792969 149.167969 190.117188 149.167969 C 189.023438 150.757812 188.128906 152.449219 187.230469 154.136719 L 187.03125 153.890625 C 186.386719 153.738281 185.742188 153.640625 185.09375 153.691406 C 144.667969 153.738281 104.1875 153.640625 63.761719 153.738281 C 60.976562 160.351562 58.441406 167.0625 56.503906 174.023438 C 96.132812 174.171875 135.765625 173.972656 175.347656 174.121094 C 174.105469 176.058594 172.960938 178.097656 171.867188 180.136719 C 132.832031 180.039062 93.796875 180.085938 54.761719 180.136719 C 53.070312 187.492188 51.332031 194.949219 50.832031 202.503906 C 86.734375 202.503906 122.6875 202.40625 158.589844 202.554688 C 157.296875 204.644531 156.105469 206.730469 154.910156 208.871094 C 152.574219 207.972656 150.136719 208.917969 147.75 208.621094 C 145.761719 208.273438 143.773438 208.917969 141.78125 208.621094 C 134.324219 208.820312 126.863281 208.324219 119.40625 208.71875 C 114.929688 208.324219 110.453125 208.570312 105.980469 208.523438 C 100.511719 208.621094 95.039062 208.324219 89.570312 208.769531 C 87.382812 208.871094 85.242188 208.324219 83.105469 208.71875 C 79.972656 208.820312 76.839844 208.222656 73.65625 208.671875 C 68.832031 208.71875 64.007812 208.820312 59.238281 208.621094 C 56.152344 209.167969 53.019531 208.121094 49.988281 208.871094 C 49.636719 216.078125 49.191406 223.335938 49.6875 230.542969 C 49.789062 231.089844 49.886719 231.636719 50.085938 232.183594 C 59.238281 232.035156 68.386719 232.234375 77.535156 232.085938 C 75.992188 234.273438 74.402344 236.457031 72.960938 238.746094 L 72.8125 238.445312 C 71.964844 238.148438 71.121094 238.246094 70.273438 238.246094 C 63.660156 238.246094 57.046875 238.246094 50.386719 238.246094 C 50.933594 247.839844 52.820312 257.335938 55.160156 266.683594 C 56.601562 270.558594 57.296875 274.636719 58.738281 278.464844 C 59.285156 280.304688 59.933594 282.09375 60.628906 283.832031 L 60.777344 283.832031 C 63.164062 291.339844 66.84375 298.398438 70.375 305.355469 C 91.558594 305.457031 112.742188 305.40625 133.925781 305.355469 C 132.1875 302.273438 129.796875 299.589844 127.808594 296.65625 C 124.824219 292.332031 121.34375 288.304688 118.660156 283.78125 C 120.796875 283.734375 122.933594 283.734375 125.125 283.832031 C 125.371094 284.429688 125.71875 284.976562 126.066406 285.523438 C 130.890625 292.132812 135.714844 298.746094 140.589844 305.355469 C 156.105469 305.457031 171.617188 305.40625 187.132812 305.40625 C 186.832031 304.910156 186.585938 304.363281 186.289062 303.914062 C 181.265625 296.90625 175.996094 290.097656 171.121094 282.988281 C 174.105469 282.988281 177.136719 282.988281 180.121094 282.988281 C 185.394531 290.542969 191.011719 297.851562 196.332031 305.355469 C 209.855469 305.503906 223.332031 305.355469 236.859375 305.40625 C 254.761719 305.355469 272.710938 305.457031 290.613281 305.355469 C 285.390625 297.800781 279.671875 290.59375 274.5 282.988281 C 276.691406 282.988281 278.828125 282.988281 281.015625 282.988281 C 282.308594 285.371094 284.101562 287.460938 285.691406 289.648438 C 287.28125 291.636719 288.523438 293.921875 290.363281 295.714844 C 290.363281 298.25 290.363281 300.734375 290.363281 303.269531 C 292.203125 303.269531 294.042969 303.269531 295.886719 303.269531 C 296.433594 304.113281 296.730469 305.605469 298.023438 305.355469 C 316.570312 305.355469 335.117188 305.355469 353.664062 305.355469 C 350.433594 300.734375 347.003906 296.257812 343.722656 291.6875 C 342.179688 289.449219 340.242188 287.410156 339.097656 284.925781 C 342.078125 285.472656 345.0625 286.269531 347.847656 287.363281 L 347.152344 287.363281 C 348.894531 290.046875 350.78125 292.730469 352.871094 295.214844 C 352.871094 297.902344 352.871094 300.636719 352.921875 303.320312 C 354.808594 303.269531 356.75 303.320312 358.6875 303.320312 C 359.335938 304.164062 359.832031 305.605469 361.175781 305.40625 C 366.296875 305.40625 371.371094 305.457031 376.492188 305.40625 C 377.832031 303.070312 379.125 300.636719 380.222656 298.148438 C 382.359375 293.476562 384.746094 288.804688 386.136719 283.832031 L 386.289062 283.832031 C 387.03125 282.09375 387.679688 280.253906 388.277344 278.464844 L 388.375 278.464844 C 389.519531 274.734375 390.414062 270.957031 391.605469 267.277344 C 394.292969 257.835938 395.882812 248.039062 396.730469 238.246094 C 387.976562 238.246094 379.226562 238.148438 370.472656 238.296875 C 369.082031 236.210938 367.539062 234.171875 366.050781 232.132812 C 375.246094 232.085938 384.398438 232.085938 393.597656 232.132812 C 394.839844 232.085938 396.132812 232.332031 397.277344 231.734375 C 397.523438 224.082031 397.523438 216.425781 396.878906 208.769531 C 388.125 208.769531 379.425781 208.523438 370.722656 208.769531 C 364.40625 208.871094 358.09375 208.472656 351.777344 208.523438 C 350.832031 208.523438 349.789062 208.421875 348.894531 208.917969 C 347.398438 206.78125 345.960938 204.644531 344.417969 202.605469 C 361.671875 202.457031 378.976562 202.605469 396.230469 202.503906 C 395.4375 194.949219 393.945312 187.542969 392.15625 180.1875 C 371.765625 180.136719 351.328125 180.1875 330.941406 180.136719 C 330.09375 180.1875 329.152344 179.988281 328.355469 180.386719 L 328.304688 180.734375 C 326.863281 178.496094 325.222656 176.359375 323.632812 174.21875 C 345.910156 174.023438 368.1875 174.269531 390.464844 174.121094 C 388.523438 167.210938 386.039062 160.402344 383.15625 153.839844 C 359.582031 153.789062 336.011719 153.839844 312.492188 153.839844 C 311.347656 153.839844 310.207031 153.738281 309.109375 154.039062 L 308.914062 154.285156 C 307.820312 152.496094 306.523438 150.808594 305.183594 149.167969 C 308.265625 149.5625 311.398438 149.214844 314.480469 149.316406 C 336.660156 149.316406 358.789062 149.316406 380.964844 149.316406 C 378.777344 143.898438 375.746094 138.925781 372.910156 133.855469 C 361.871094 133.507812 350.882812 134.054688 339.84375 133.65625 C 337.503906 133.90625 335.21875 133.804688 332.878906 133.605469 C 329.398438 133.90625 325.917969 133.707031 322.4375 133.757812 C 318.460938 133.707031 314.480469 133.90625 310.503906 133.507812 C 306.675781 133.507812 302.847656 134.003906 299.066406 133.65625 C 297.375 133.757812 295.6875 133.757812 293.945312 133.804688 C 291.558594 130.476562 289.21875 127.144531 286.683594 123.914062 C 287.679688 123.964844 288.625 124.011719 289.621094 124.011719 C 315.128906 123.964844 340.6875 124.0625 366.199219 123.964844 C 363.859375 119.789062 360.578125 116.160156 357.644531 112.332031 C 357.246094 111.585938 356.402344 111.535156 355.65625 111.585938 C 329.648438 111.632812 303.691406 111.535156 277.683594 111.632812 C 274.847656 107.855469 272.511719 103.382812 268.433594 100.75 C 294.542969 100.550781 320.699219 100.75 346.855469 100.648438 C 343.871094 97.121094 340.242188 94.234375 336.859375 91.105469 C 314.78125 91.003906 292.753906 91.105469 270.671875 91.054688 C 217.117188 91.105469 163.5625 91.003906 110.007812 91.105469 C 106.675781 94.285156 102.996094 97.121094 99.960938 100.597656 Z M 130.394531 308.9375 C 121.195312 309.882812 112.046875 311.917969 103.492188 315.449219 C 102.25 316.042969 100.859375 315.894531 99.5625 315.894531 C 92.007812 315.894531 84.398438 315.894531 76.839844 315.894531 C 77.1875 317.140625 77.984375 318.183594 78.628906 319.277344 C 79.125 319.375 79.625 319.523438 80.171875 319.574219 C 87.976562 319.871094 95.785156 319.027344 103.59375 319.625 C 106.078125 319.425781 108.5625 319.277344 111 319.574219 C 115.972656 319.820312 120.996094 319.277344 125.96875 319.574219 C 129.601562 319.125 133.230469 319.671875 136.859375 319.425781 C 139.695312 319.671875 142.527344 319.175781 145.363281 319.425781 C 148 319.324219 150.632812 319.574219 153.320312 319.375 C 154.960938 319.472656 156.601562 319.722656 158.292969 319.472656 C 160.628906 319.125 162.964844 319.574219 165.253906 319.574219 C 178.828125 319.226562 192.402344 319.425781 206.027344 319.425781 C 210.007812 319.175781 213.984375 319.523438 217.964844 319.425781 C 222.289062 319.027344 226.617188 319.671875 230.941406 319.277344 C 241.683594 319.472656 252.472656 319.125 263.261719 319.375 C 266.746094 318.976562 270.226562 319.722656 273.707031 319.324219 C 277.832031 319.671875 282.011719 319.472656 286.136719 319.324219 C 288.277344 319.722656 290.464844 319.175781 292.601562 319.472656 C 296.582031 319.722656 300.558594 319.125 304.539062 319.425781 C 307.671875 319.078125 310.800781 319.820312 313.933594 319.375 C 317.914062 319.523438 321.890625 319.425781 325.871094 319.523438 C 329.003906 319.574219 332.183594 319.027344 335.316406 319.375 C 336.957031 319.625 338.648438 319.425781 340.289062 319.324219 C 342.28125 319.425781 344.269531 319.625 346.257812 319.472656 C 348.742188 319.175781 351.230469 319.773438 353.714844 319.472656 C 356.203125 319.078125 358.6875 319.773438 361.175781 319.472656 C 363.5625 319.078125 365.949219 320.023438 368.285156 319.175781 C 368.882812 318.035156 369.925781 317.089844 370.027344 315.746094 C 305.929688 315.847656 241.832031 315.746094 177.683594 315.796875 C 175.84375 315.996094 174.304688 314.953125 172.660156 314.40625 C 163.5625 311.074219 153.964844 309.035156 144.320312 308.640625 C 139.59375 307.992188 134.96875 308.835938 130.394531 308.9375 Z M 247.601562 331.207031 C 243.523438 331.40625 239.445312 331.207031 235.316406 331.304688 C 186.089844 331.304688 136.859375 331.253906 87.628906 331.355469 C 88.378906 332.597656 89.269531 333.691406 90.265625 334.785156 C 179.027344 334.835938 267.738281 334.835938 356.5 334.785156 C 357.496094 333.691406 358.488281 332.648438 359.136719 331.304688 C 347.699219 331.253906 336.261719 331.304688 324.824219 331.304688 C 323.632812 331.253906 322.390625 331.457031 321.242188 331.105469 C 312.394531 327.476562 302.996094 325.140625 293.496094 324.347656 C 277.882812 322.707031 262.019531 325.390625 247.601562 331.207031 Z M 247.601562 331.207031 "/>
<path style=" stroke:none;fill-rule:evenodd;fill:rgb(0%,57.647059%,84.705882%);fill-opacity:1;" d="M 257.820312 174.1875 C 259.972656 174.1875 262.128906 174.136719 264.28125 174.136719 C 265.734375 176.074219 267.035156 178.113281 268.539062 180.054688 C 266.386719 180.105469 264.230469 180.105469 262.078125 180.152344 C 260.625 178.113281 259.269531 176.125 257.820312 174.1875 Z M 257.820312 174.1875 "/>
<path style=" stroke:none;fill-rule:evenodd;fill:rgb(0%,57.647059%,84.705882%);fill-opacity:1;" d="M 215.507812 202.628906 C 217.667969 202.582031 219.832031 202.53125 221.992188 202.53125 C 223.398438 204.535156 224.90625 206.539062 226.414062 208.445312 C 224.253906 208.445312 222.089844 208.25 219.980469 208.738281 C 218.472656 206.734375 217.015625 204.679688 215.507812 202.628906 Z M 215.507812 202.628906 "/>
<path style=" stroke:none;fill-rule:evenodd;fill:rgb(0%,57.647059%,84.705882%);fill-opacity:1;" d="M 278.316406 202.582031 C 280.511719 202.582031 282.703125 202.582031 284.898438 202.53125 C 286.242188 204.503906 287.691406 206.332031 289.035156 208.304688 C 286.941406 208.453125 284.898438 208.5 282.804688 208.550781 C 281.308594 206.578125 279.8125 204.554688 278.316406 202.582031 Z M 278.316406 202.582031 "/>
<path style=" stroke:none;fill-rule:evenodd;fill:rgb(0%,57.647059%,84.705882%);fill-opacity:1;" d="M 117.179688 273.617188 C 118.367188 275.210938 119.550781 276.761719 120.542969 278.503906 C 118.417969 278.503906 116.289062 278.503906 114.164062 278.503906 C 113.175781 276.90625 112.089844 275.359375 110.949219 273.859375 C 113.027344 273.664062 115.101562 273.664062 117.179688 273.617188 Z M 117.179688 273.617188 "/>
<path style=" stroke:none;fill-rule:evenodd;fill:rgb(0%,57.647059%,84.705882%);fill-opacity:1;" d="M 164.921875 274.875 C 166.585938 273.46875 168.882812 273.273438 170.9375 273.515625 C 170.304688 273.953125 166.976562 275.992188 165.996094 276.625 C 165.65625 276.042969 165.3125 275.457031 164.921875 274.875 Z M 164.921875 274.875 "/>
<path style=" stroke:none;fill-rule:evenodd;fill:rgb(0%,57.647059%,84.705882%);fill-opacity:1;" d="M 270.230469 273.832031 C 271.769531 272.796875 274.007812 273.980469 275.402344 274.816406 C 275.699219 276.191406 276.394531 277.375 277.1875 278.503906 L 276.890625 278.503906 C 276.144531 278.011719 275.402344 277.472656 274.652344 276.929688 C 273.460938 276.046875 272.167969 275.257812 270.925781 274.472656 Z M 270.230469 273.832031 "/>
<path style=" stroke:none;fill-rule:evenodd;fill:rgb(0%,57.647059%,84.705882%);fill-opacity:1;" d="M 330.597656 273.8125 C 332.625 273.664062 334.652344 273.617188 336.683594 273.617188 C 337.921875 275.179688 339.105469 276.746094 340 278.503906 C 337.96875 278.503906 335.890625 278.503906 333.863281 278.503906 C 332.722656 276.988281 331.585938 275.472656 330.597656 273.8125 Z M 330.597656 273.8125 "/>
<path style=" stroke:none;fill-rule:evenodd;fill:rgb(0%,57.647059%,84.705882%);fill-opacity:1;" d="M 172.34375 274.328125 C 172.640625 274.28125 173.335938 274.230469 173.632812 274.179688 C 173.828125 274.527344 174.125 275.222656 174.324219 275.570312 C 173.1875 276.367188 172.097656 277.164062 170.960938 277.957031 L 170.265625 278.355469 C 169.128906 278.503906 167.941406 278.503906 166.800781 278.503906 L 167.148438 277.859375 C 168.683594 276.765625 170.265625 275.722656 171.847656 274.675781 C 171.949219 274.578125 172.195312 274.429688 172.34375 274.328125 Z M 172.34375 274.328125 "/>
<path style=" stroke:none;fill-rule:evenodd;fill:rgb(0%,57.647059%,84.705882%);fill-opacity:1;" d="M 168.117188 351.65625 C 173.742188 351.707031 179.367188 351.707031 185.042969 351.65625 C 184.945312 358.507812 184.996094 365.304688 185.042969 372.15625 C 181.757812 372.15625 178.472656 372.15625 175.1875 372.15625 C 172.898438 365.304688 170.308594 358.558594 168.117188 351.65625 Z M 168.117188 351.65625 "/>
<path style=" stroke:none;fill-rule:evenodd;fill:rgb(0%,57.647059%,84.705882%);fill-opacity:1;" d="M 306.789062 351.570312 C 310.632812 351.570312 314.527344 351.769531 318.371094 351.46875 C 316.175781 352.070312 314.027344 352.875 312.082031 354.078125 C 310.132812 355.230469 308.636719 356.9375 306.789062 358.238281 C 306.6875 356.035156 306.6875 353.777344 306.789062 351.570312 Z M 306.789062 351.570312 "/>
<path style=" stroke:none;fill-rule:evenodd;fill:rgb(0%,57.647059%,84.705882%);fill-opacity:1;" d="M 127.875 352.039062 C 129.660156 351.492188 131.542969 351.691406 133.375 351.691406 C 138.578125 351.742188 143.734375 351.59375 148.9375 351.792969 C 148.242188 354.523438 147.105469 357.152344 146.210938 359.835938 C 145.417969 361.917969 144.921875 364.152344 143.832031 366.136719 C 142.445312 363.257812 141.105469 360.179688 138.777344 357.898438 C 135.902344 354.820312 131.839844 353.28125 127.875 352.039062 Z M 127.875 352.039062 "/>
<path style=" stroke:none;fill-rule:evenodd;fill:rgb(0%,57.647059%,84.705882%);fill-opacity:1;" d="M 202.53125 351.65625 C 204.820312 351.707031 207.058594 351.707031 209.347656 351.65625 C 209.394531 355.246094 209.738281 358.835938 209.152344 362.375 C 206.914062 358.886719 204.578125 355.394531 202.53125 351.65625 Z M 202.53125 351.65625 "/>
<path style=" stroke:none;fill-rule:evenodd;fill:rgb(0%,57.647059%,84.705882%);fill-opacity:1;" d="M 229.394531 351.65625 C 230.488281 351.65625 231.578125 351.65625 232.671875 351.707031 C 233.414062 352.996094 234.609375 354.035156 235.253906 355.425781 C 233.664062 361.023438 231.730469 366.574219 229.890625 372.125 L 229.046875 373.660156 C 229.046875 373.660156 229.296875 366.523438 229.246094 363.847656 C 229.296875 359.785156 229.195312 355.722656 229.394531 351.65625 Z M 229.394531 351.65625 "/>
<path style=" stroke:none;fill-rule:evenodd;fill:rgb(0%,57.647059%,84.705882%);fill-opacity:1;" d="M 257.835938 351.65625 C 259.277344 351.65625 260.769531 351.707031 262.257812 351.65625 C 262.355469 358.523438 262.355469 365.394531 262.257812 372.261719 C 262.058594 372.164062 262.207031 373.945312 262.058594 373.84375 C 260.023438 368.0625 257.539062 360.355469 255.75 354.472656 C 256.445312 353.585938 257.191406 352.648438 257.835938 351.65625 Z M 257.835938 351.65625 "/>
<path style=" stroke:none;fill-rule:evenodd;fill:rgb(0%,57.647059%,84.705882%);fill-opacity:1;" d="M 280.007812 351.65625 C 282.300781 351.707031 284.644531 351.707031 286.9375 351.65625 C 286.9375 355.292969 287.035156 358.929688 286.886719 362.566406 C 284.394531 359.078125 282.050781 355.441406 280.007812 351.65625 Z M 280.007812 351.65625 "/>
<path style=" stroke:none;fill-rule:evenodd;fill:rgb(0%,57.647059%,84.705882%);fill-opacity:1;" d="M 176.328125 375.75 C 179.210938 375.699219 182.042969 375.75 184.925781 375.75 C 184.828125 382.398438 184.925781 389.046875 184.828125 395.695312 C 184.875 396.488281 184.726562 397.378906 185.125 398.125 C 187.410156 398.570312 189.746094 398.273438 192.035156 398.324219 C 195.960938 398.273438 199.886719 398.472656 203.8125 398.175781 C 203.914062 394.652344 203.664062 391.082031 204.011719 387.558594 C 206.695312 390.78125 208.484375 394.699219 211.070312 397.976562 C 212.5625 398.570312 214.25 398.273438 215.839844 398.324219 C 224.191406 398.175781 232.589844 398.523438 240.941406 398.125 C 241.339844 396.539062 241.636719 394.851562 242.332031 393.363281 C 244.46875 392.816406 246.65625 393.113281 248.84375 393.363281 C 249.339844 394.949219 249.835938 396.539062 250.332031 398.125 C 255.402344 398.570312 260.472656 398.226562 265.542969 398.324219 C 270.761719 398.226562 276.03125 398.570312 281.25 398.125 C 281.449219 394.652344 280.753906 391.128906 281.644531 387.757812 C 283.785156 390.78125 285.621094 393.90625 287.660156 397.03125 C 288.058594 397.628906 288.507812 398.375 289.398438 398.273438 C 291.886719 398.472656 294.371094 398.273438 296.855469 398.324219 C 300.085938 398.273438 303.367188 398.523438 306.546875 398.074219 C 306.546875 396.089844 306.597656 394.054688 306.648438 392.070312 C 308.835938 393.808594 310.820312 395.792969 313.40625 396.984375 C 318.675781 399.5625 324.835938 399.5625 330.453125 398.074219 C 334.53125 398.324219 338.605469 398.472656 342.632812 398.125 C 309.28125 420.945312 269.171875 433.894531 228.710938 434.738281 C 222.75 434.640625 216.785156 435.035156 210.820312 434.441406 C 176.027344 432.554688 141.734375 421.738281 112.109375 403.382812 C 109.574219 401.746094 106.894531 400.257812 104.558594 398.375 C 108.980469 398.226562 113.40625 398.324219 117.875 398.273438 C 122.847656 398.273438 127.96875 398.421875 132.738281 396.785156 C 132.789062 397.132812 132.9375 397.828125 133.035156 398.175781 C 136.566406 398.472656 140.144531 398.273438 143.671875 398.324219 C 146.902344 398.273438 150.183594 398.523438 153.414062 398.125 C 153.863281 396.539062 154.210938 394.949219 154.953125 393.460938 C 157.242188 392.816406 159.675781 393.214844 161.964844 393.363281 C 162.507812 394.949219 162.660156 396.785156 163.652344 398.175781 C 165.9375 398.570312 168.226562 398.273438 170.5625 398.375 C 175.035156 398.324219 179.558594 398.523438 184.03125 398.226562 C 181.695312 390.632812 178.960938 383.191406 176.328125 375.75 Z M 176.328125 375.75 "/>
<path style=" stroke:none;fill-rule:evenodd;fill:rgb(3.921569%,30.196078%,63.137255%);fill-opacity:1;" d="M 227.730469 242.023438 C 231.21875 243.8125 234.40625 246.046875 237.839844 247.882812 C 239.035156 248.578125 240.183594 249.421875 241.378906 250.117188 C 246.308594 253.097656 251.1875 256.175781 256.121094 259.105469 C 257.363281 259.800781 258.210938 261.039062 258.761719 262.332031 C 253.082031 258.558594 247.304688 254.882812 241.578125 251.109375 C 236.945312 248.132812 232.261719 245.152344 227.730469 242.023438 Z M 227.730469 242.023438 "/>
<path style=" stroke:none;fill-rule:evenodd;fill:rgb(3.921569%,30.196078%,63.137255%);fill-opacity:1;" d="M 142.089844 337.578125 C 148.605469 337.527344 155.066406 337.578125 161.578125 337.578125 C 162.128906 338.816406 162.675781 340.058594 163.070312 341.351562 C 163.917969 344.832031 165.160156 348.210938 166.453125 351.542969 C 166.851562 351.542969 167.597656 351.589844 167.996094 351.589844 C 170.230469 358.449219 172.765625 365.257812 175.054688 372.121094 C 175.453125 373.3125 175.847656 374.503906 176.296875 375.648438 C 178.929688 383.105469 181.667969 390.558594 184.101562 398.113281 C 179.628906 398.410156 175.152344 398.214844 170.628906 398.261719 C 168.34375 398.214844 166.003906 398.460938 163.71875 398.0625 C 162.675781 396.671875 162.574219 394.832031 162.027344 393.242188 C 159.691406 393.144531 157.253906 392.695312 155.015625 393.34375 C 154.320312 394.832031 153.972656 396.472656 153.476562 398.015625 C 150.246094 398.410156 147.011719 398.164062 143.730469 398.214844 C 140.199219 398.164062 136.621094 398.363281 133.09375 398.0625 C 133.042969 397.714844 132.894531 397.019531 132.792969 396.671875 C 128.019531 398.363281 122.898438 398.214844 117.925781 398.164062 C 113.503906 398.214844 109.078125 398.113281 104.601562 398.261719 C 104.40625 398.261719 103.957031 398.261719 103.757812 398.261719 L 103.757812 397.765625 C 103.757812 392 103.757812 386.234375 103.757812 380.519531 C 102.910156 380.371094 102.015625 380.269531 101.171875 380.171875 C 101.273438 375.996094 101.074219 371.773438 101.273438 367.597656 C 102.066406 367.597656 102.910156 367.546875 103.707031 367.546875 C 103.707031 362.277344 103.65625 356.960938 103.757812 351.691406 C 104.652344 351.640625 105.597656 351.589844 106.492188 351.542969 C 121.757812 351.390625 137.070312 351.792969 152.332031 351.492188 C 151.089844 348.859375 148.953125 346.820312 147.261719 344.484375 C 145.519531 342.199219 143.480469 340.109375 142.089844 337.578125 Z M 149.199219 341.15625 C 149.746094 341.898438 150.34375 342.644531 150.890625 343.390625 C 152.878906 345.976562 155.015625 348.507812 156.90625 351.195312 L 156.707031 351.195312 C 158.644531 351.09375 160.585938 351.144531 162.476562 351.144531 C 162.175781 350.347656 159.691406 343.042969 158.996094 341.054688 C 158.347656 341.054688 157.703125 341.105469 157.054688 341.15625 C 155.363281 341.105469 153.726562 341.105469 152.082031 341.15625 C 151.140625 341.15625 150.195312 341.15625 149.199219 341.15625 Z M 127.773438 351.992188 C 131.75 353.28125 135.828125 354.773438 138.761719 357.855469 C 141.09375 360.140625 142.390625 363.222656 143.832031 366.105469 C 144.925781 364.117188 145.421875 361.878906 146.21875 359.792969 C 147.113281 357.109375 148.207031 354.472656 148.953125 351.742188 C 143.78125 351.542969 138.5625 351.691406 133.339844 351.640625 C 131.449219 351.640625 129.5625 351.441406 127.773438 351.992188 Z M 107.335938 355.171875 C 107.335938 360.488281 107.335938 365.757812 107.335938 371.074219 C 106.539062 371.222656 105.449219 370.726562 104.851562 371.472656 C 104.753906 373.113281 104.851562 374.804688 104.800781 376.492188 C 105.644531 376.640625 106.492188 376.789062 107.335938 376.890625 C 107.289062 382.703125 107.386719 388.519531 107.289062 394.335938 C 112.808594 394.585938 118.324219 394.386719 123.84375 394.4375 C 128.566406 394.585938 133.539062 393.191406 136.871094 389.714844 C 140.300781 386.335938 141.59375 381.363281 141.644531 376.691406 C 141.792969 370.976562 140.199219 365.011719 136.421875 360.636719 C 133.191406 357.257812 128.46875 355.570312 123.84375 355.121094 C 118.375 355.121094 112.855469 355.121094 107.335938 355.171875 Z M 137.863281 394.386719 C 142.140625 394.484375 146.414062 394.4375 150.742188 394.4375 C 151.238281 392.796875 151.785156 391.15625 152.234375 389.464844 C 156.410156 389.367188 160.585938 389.417969 164.761719 389.464844 C 165.210938 391.15625 165.707031 392.796875 166.203125 394.4375 C 170.480469 394.4375 174.757812 394.4375 179.03125 394.4375 C 174.507812 381.3125 169.933594 368.242188 165.308594 355.171875 C 160.785156 355.171875 156.210938 355.171875 151.6875 355.171875 C 147.113281 368.242188 142.488281 381.3125 137.863281 394.386719 Z M 137.863281 394.386719 "/>
<path style=" stroke:none;fill-rule:evenodd;fill:rgb(3.921569%,30.196078%,63.137255%);fill-opacity:1;" d="M 259.148438 338.65625 C 259.890625 338.109375 260.6875 337.464844 261.734375 337.5625 C 265.363281 337.5625 268.992188 337.5625 272.625 337.613281 C 272.027344 341.242188 271.378906 345.171875 268.496094 347.757812 C 266.957031 348.503906 265.460938 349.449219 263.722656 349.699219 C 261.980469 349.898438 260.238281 349.75 258.550781 349.75 C 258.351562 350.394531 258.152344 350.992188 257.902344 351.636719 C 257.257812 352.632812 256.511719 353.578125 255.765625 354.472656 C 257.554688 360.339844 259.542969 366.210938 261.582031 372.027344 C 261.78125 372.675781 261.933594 373.269531 262.082031 373.964844 C 262.28125 374.015625 262.378906 358.550781 262.28125 351.636719 C 268.199219 351.589844 274.117188 351.589844 280.035156 351.636719 C 282.023438 355.417969 284.410156 359.046875 286.898438 362.480469 C 287.046875 358.847656 286.945312 355.21875 286.945312 351.589844 C 293.5625 351.539062 300.175781 351.539062 306.789062 351.589844 C 306.691406 353.777344 306.691406 355.964844 306.839844 358.203125 C 308.632812 356.859375 310.171875 355.21875 312.113281 354.074219 C 314.054688 352.882812 316.191406 352.085938 318.378906 351.488281 C 322.15625 350.839844 326.039062 350.839844 329.816406 351.539062 C 336.035156 353.03125 342.050781 356.957031 344.488281 363.125 C 345.484375 365.414062 345.683594 367.898438 345.632812 370.335938 C 345.582031 378.941406 345.632812 387.492188 345.632812 396.097656 C 345.582031 396.695312 345.53125 397.339844 345.53125 397.9375 C 344.636719 397.984375 343.792969 397.984375 342.945312 398.085938 C 338.871094 398.433594 334.792969 398.285156 330.761719 398.035156 C 325.191406 399.527344 318.976562 399.527344 313.703125 396.941406 C 311.117188 395.75 309.128906 393.761719 306.941406 392.019531 C 306.839844 394.007812 306.839844 396.046875 306.839844 398.035156 C 303.609375 398.484375 300.375 398.234375 297.144531 398.285156 C 294.65625 398.234375 292.167969 398.433594 289.683594 398.234375 C 288.835938 398.285156 288.390625 397.589844 287.941406 396.992188 C 285.953125 393.910156 284.0625 390.726562 281.925781 387.691406 C 281.027344 391.074219 281.726562 394.605469 281.527344 398.085938 C 276.304688 398.535156 271.03125 398.183594 265.808594 398.285156 C 260.738281 398.183594 255.617188 398.535156 250.59375 398.085938 C 250.09375 396.496094 249.597656 394.902344 249.097656 393.3125 C 246.960938 393.113281 244.722656 392.765625 242.585938 393.3125 C 241.839844 394.804688 241.589844 396.496094 241.191406 398.085938 C 232.835938 398.484375 224.433594 398.136719 216.078125 398.285156 C 214.484375 398.234375 212.792969 398.484375 211.304688 397.9375 C 208.71875 394.65625 206.925781 390.726562 204.238281 387.492188 C 203.941406 391.023438 204.140625 394.605469 204.042969 398.136719 C 200.113281 398.382812 196.183594 398.183594 192.253906 398.285156 C 189.964844 398.234375 187.582031 398.484375 185.34375 398.085938 C 184.945312 397.339844 185.09375 396.445312 185.042969 395.652344 C 185.144531 388.984375 184.996094 382.320312 185.144531 375.660156 C 185.144531 374.464844 185.144531 373.320312 185.144531 372.128906 C 185.09375 365.261719 185.042969 358.449219 185.144531 351.589844 C 191.011719 351.539062 196.832031 351.539062 202.699219 351.589844 C 204.738281 355.316406 207.175781 358.847656 209.511719 362.429688 C 210.109375 358.847656 209.761719 355.21875 209.710938 351.589844 C 216.375 351.539062 222.992188 351.539062 229.605469 351.589844 C 229.355469 355.664062 229.503906 359.742188 229.503906 363.824219 C 229.554688 366.507812 229.308594 373.667969 229.308594 373.667969 C 229.308594 373.667969 233.980469 360.988281 235.523438 355.367188 C 234.878906 353.972656 233.683594 352.929688 232.9375 351.636719 C 232.539062 350.34375 232.242188 349.003906 231.992188 347.660156 C 231.941406 346.464844 231.992188 345.269531 232.042969 344.027344 C 235.324219 344.128906 238.605469 343.832031 241.890625 344.128906 C 242.433594 344.625 242.882812 345.222656 243.332031 345.769531 C 244.128906 342.636719 246.117188 339.800781 249.148438 338.558594 C 252.183594 336.96875 255.816406 337.960938 259.148438 338.65625 Z M 263.074219 341.195312 C 262.925781 341.441406 262.628906 341.941406 262.476562 342.238281 C 258.75 343.679688 255.015625 340.300781 251.238281 341.640625 C 249 342.289062 246.863281 344.226562 246.914062 346.664062 C 248.355469 346.613281 249.796875 346.613281 251.238281 346.566406 C 252.285156 345.871094 253.425781 345.023438 254.769531 345.269531 C 257.902344 345.769531 261.085938 346.863281 264.21875 345.917969 C 266.308594 345.269531 267.75 343.332031 268.148438 341.195312 C 266.457031 341.195312 264.765625 341.195312 263.074219 341.195312 Z M 235.421875 347.660156 C 235.574219 349.75 236.714844 351.6875 238.558594 352.730469 C 241.390625 354.523438 244.871094 354.421875 248.054688 354.074219 C 251.289062 353.425781 254.96875 351.289062 255.21875 347.660156 C 253.726562 347.660156 252.234375 347.660156 250.789062 347.707031 C 248.355469 351.488281 242.085938 351.289062 239.601562 347.707031 C 238.207031 347.660156 236.816406 347.660156 235.421875 347.660156 Z M 312.90625 357.855469 C 306.34375 362.527344 304.203125 371.332031 305.351562 378.988281 C 306.144531 383.964844 308.484375 388.933594 312.609375 392.019531 C 317.335938 395.550781 323.800781 396.246094 329.320312 394.503906 C 331.109375 394.007812 332.253906 392.367188 333.996094 391.769531 C 334.195312 392.714844 334.34375 393.609375 334.542969 394.554688 C 337.027344 394.554688 339.566406 394.605469 342.050781 394.503906 C 342.003906 387.394531 342.050781 380.230469 342.050781 373.121094 C 336.628906 373.070312 331.160156 373.070312 325.738281 373.121094 C 325.738281 375.757812 325.738281 378.394531 325.738281 380.980469 C 327.578125 380.980469 329.46875 380.980469 331.308594 381.03125 C 330.363281 385.800781 323.453125 387.34375 320.171875 384.011719 C 318.230469 381.972656 317.535156 379.039062 317.285156 376.304688 C 317.136719 373.171875 317.582031 369.890625 319.273438 367.203125 C 320.617188 365.015625 323.304688 363.523438 325.890625 364.269531 C 328.125 364.867188 329.617188 366.855469 330.316406 368.941406 C 334.042969 368.941406 337.777344 368.992188 341.503906 368.941406 C 341.65625 368.84375 341.902344 368.59375 342.050781 368.445312 C 341.804688 362.527344 337.078125 357.855469 331.808594 355.863281 C 325.6875 353.578125 318.28125 353.972656 312.90625 357.855469 Z M 188.476562 355.21875 C 188.425781 368.296875 188.523438 381.328125 188.425781 394.40625 C 192.402344 394.605469 196.332031 394.503906 200.3125 394.457031 C 200.261719 387.890625 200.261719 381.328125 200.3125 374.761719 C 204.738281 381.226562 208.816406 387.941406 213.09375 394.503906 C 217.269531 394.503906 221.449219 394.554688 225.675781 394.503906 C 225.625 381.425781 225.675781 368.296875 225.675781 355.21875 C 221.546875 355.21875 217.371094 355.21875 213.242188 355.21875 C 213.140625 361.832031 213.292969 368.445312 213.140625 375.0625 C 211.800781 373.570312 210.902344 371.726562 209.761719 370.089844 C 206.578125 365.113281 203.496094 360.089844 200.210938 355.167969 C 196.332031 355.269531 192.402344 355.121094 188.476562 355.21875 Z M 226.523438 394.457031 C 230.449219 394.554688 234.378906 394.503906 238.257812 394.503906 C 238.707031 392.816406 239.105469 391.171875 239.601562 389.480469 C 243.582031 389.480469 247.507812 389.53125 251.488281 389.433594 C 252.132812 391.074219 252.632812 392.714844 253.078125 394.40625 C 257.105469 394.503906 261.085938 394.457031 265.113281 394.40625 C 260.6875 381.328125 256.511719 368.148438 251.933594 355.070312 C 247.707031 355.167969 243.480469 355.070312 239.253906 355.167969 C 235.074219 368.347656 230.796875 381.425781 226.523438 394.457031 Z M 265.960938 394.503906 C 269.9375 394.503906 273.867188 394.605469 277.84375 394.457031 C 277.796875 387.890625 277.796875 381.328125 277.84375 374.761719 C 282.222656 381.277344 286.351562 387.992188 290.679688 394.554688 C 294.855469 394.503906 299.03125 394.65625 303.210938 394.457031 C 303.109375 381.378906 303.210938 368.296875 303.160156 355.21875 C 298.980469 355.21875 294.804688 355.167969 290.679688 355.21875 C 290.679688 361.78125 290.828125 368.347656 290.578125 374.910156 C 289.382812 373.71875 288.589844 372.128906 287.644531 370.734375 C 284.3125 365.5625 281.078125 360.339844 277.695312 355.167969 C 273.769531 355.167969 269.839844 355.167969 265.960938 355.167969 C 265.910156 368.296875 266.007812 381.378906 265.960938 394.503906 Z M 322.605469 369.441406 C 323.75 369.492188 324.941406 369.542969 326.089844 369.390625 C 326.4375 367.105469 322.507812 367.253906 322.605469 369.441406 Z M 320.816406 375.261719 C 320.964844 376.652344 320.71875 378.492188 321.960938 379.4375 C 322.15625 376.503906 322.207031 373.519531 321.960938 370.585938 C 320.765625 371.777344 320.914062 373.667969 320.816406 375.261719 Z M 320.816406 375.261719 "/>
<path style=" stroke:none;fill-rule:evenodd;fill:rgb(3.921569%,30.196078%,63.137255%);fill-opacity:1;" d="M 119.273438 364.648438 C 122.066406 364.597656 125.34375 364.546875 127.449219 366.738281 C 129.40625 368.679688 129.753906 371.667969 129.753906 374.304688 C 129.800781 377.390625 129.457031 380.777344 127.304688 383.214844 C 125.246094 385.359375 122.066406 385.359375 119.324219 385.507812 C 119.226562 382.667969 119.324219 379.832031 119.226562 376.992188 C 120.988281 376.445312 122.800781 376.792969 124.609375 376.59375 C 124.5625 374.804688 124.5625 373.011719 124.5625 371.21875 C 122.800781 371.167969 121.035156 371.167969 119.226562 371.117188 C 119.324219 368.929688 119.324219 366.789062 119.273438 364.648438 Z M 123.09375 380.429688 C 122.261719 381.078125 123.4375 382.070312 124.074219 381.375 C 125.101562 380.730469 123.777344 379.632812 123.09375 380.429688 Z M 123.09375 380.429688 "/>
<path style=" stroke:none;fill-rule:evenodd;fill:rgb(3.921569%,30.196078%,63.137255%);fill-opacity:1;" d="M 158.695312 369.144531 C 159.59375 370.6875 159.84375 372.476562 160.394531 374.113281 C 161.042969 376.550781 161.9375 378.886719 162.289062 381.371094 C 159.84375 381.371094 157.398438 381.371094 154.953125 381.371094 C 156.054688 377.246094 157.347656 373.222656 158.695312 369.144531 Z M 158.695312 369.144531 "/>
<path style=" stroke:none;fill-rule:evenodd;fill:rgb(3.921569%,30.196078%,63.137255%);fill-opacity:1;" d="M 245.589844 369.144531 C 247.128906 373.078125 248.125 377.253906 249.167969 381.332031 C 246.832031 381.382812 244.546875 381.382812 242.210938 381.332031 C 242.90625 377.203125 244.398438 373.175781 245.589844 369.144531 Z M 245.589844 369.144531 "/>
<path style=" stroke:none;fill-rule:evenodd;fill:rgb(95.294118%,50.196078%,12.156863%);fill-opacity:1;" d="M 263.085938 341.125 C 264.78125 341.125 266.46875 341.125 268.164062 341.125 C 267.765625 343.257812 266.371094 345.140625 264.230469 345.835938 C 261.09375 346.777344 257.859375 345.6875 254.777344 345.191406 C 253.433594 344.945312 252.285156 345.785156 251.242188 346.480469 C 249.800781 346.53125 248.355469 346.53125 246.914062 346.582031 C 246.863281 344.101562 249.003906 342.21875 251.242188 341.574219 C 254.972656 340.234375 258.757812 343.605469 262.488281 342.167969 C 262.6875 341.921875 262.9375 341.375 263.085938 341.125 Z M 263.085938 341.125 "/>
<path style=" stroke:none;fill-rule:evenodd;fill:rgb(95.294118%,50.196078%,12.156863%);fill-opacity:1;" d="M 149.3125 341.210938 C 149.3125 341.210938 157.484375 341.0625 159.179688 341.160156 C 159.824219 342.308594 162.664062 351.28125 162.664062 351.28125 L 157.035156 351.28125 Z M 149.3125 341.210938 "/>
<path style=" stroke:none;fill-rule:evenodd;fill:rgb(95.294118%,50.196078%,12.156863%);fill-opacity:1;" d="M 235.441406 347.570312 C 236.835938 347.570312 238.226562 347.570312 239.570312 347.570312 C 242.058594 351.285156 248.324219 351.488281 250.761719 347.570312 C 252.253906 347.519531 253.746094 347.519531 255.1875 347.519531 C 254.9375 351.285156 251.308594 353.417969 248.023438 354.082031 C 244.84375 354.4375 241.308594 354.539062 238.523438 352.707031 C 236.734375 351.742188 235.589844 349.707031 235.441406 347.570312 Z M 235.441406 347.570312 "/>
<path style=" stroke:none;fill-rule:evenodd;fill:rgb(95.294118%,50.196078%,12.156863%);fill-opacity:1;" d="M 312.878906 357.875 C 318.230469 353.992188 325.617188 353.59375 331.664062 355.886719 C 336.921875 357.875 341.628906 362.550781 341.878906 368.472656 C 341.730469 368.574219 341.480469 368.820312 341.332031 368.972656 C 337.617188 369.019531 333.898438 368.972656 330.179688 368.972656 C 329.433594 366.878906 327.996094 364.839844 325.765625 364.292969 C 323.1875 363.546875 320.511719 365.039062 319.171875 367.226562 C 317.488281 369.914062 317.039062 373.199219 317.191406 376.335938 C 317.4375 379.070312 318.082031 382.007812 320.066406 384.046875 C 323.289062 387.429688 330.230469 385.839844 331.171875 381.0625 C 329.335938 381.011719 327.453125 381.0625 325.617188 381.011719 C 325.617188 378.375 325.617188 375.738281 325.617188 373.148438 C 331.023438 373.050781 336.425781 373.101562 341.878906 373.148438 C 341.878906 380.265625 341.828125 387.429688 341.878906 394.546875 C 339.398438 394.695312 336.871094 394.59375 334.390625 394.59375 C 334.195312 393.652344 333.996094 392.753906 333.847656 391.808594 C 332.113281 392.40625 330.972656 394.046875 329.1875 394.546875 C 323.683594 396.289062 317.242188 395.640625 312.53125 392.058594 C 308.414062 388.972656 306.132812 383.996094 305.292969 379.019531 C 304.199219 371.410156 306.332031 362.550781 312.878906 357.875 Z M 312.878906 357.875 "/>
<path style=" stroke:none;fill-rule:evenodd;fill:rgb(95.294118%,50.196078%,12.156863%);fill-opacity:1;" d="M 107.46875 355.253906 C 112.988281 355.253906 118.460938 355.203125 123.980469 355.253906 C 128.601562 355.699219 133.277344 357.386719 136.558594 360.761719 C 140.339844 365.132812 141.929688 371.085938 141.78125 376.796875 C 141.730469 381.460938 140.488281 386.425781 137.007812 389.800781 C 133.675781 393.277344 128.703125 394.667969 123.980469 394.519531 C 118.460938 394.417969 112.9375 394.667969 107.417969 394.417969 C 107.519531 388.613281 107.417969 382.804688 107.46875 376.996094 C 106.625 376.847656 105.78125 376.695312 104.933594 376.597656 C 104.980469 374.910156 104.882812 373.273438 104.980469 371.582031 C 105.578125 370.839844 106.625 371.285156 107.46875 371.1875 C 107.46875 365.824219 107.46875 360.515625 107.46875 355.253906 Z M 119.253906 364.683594 C 119.253906 366.816406 119.253906 368.953125 119.253906 371.085938 C 121.046875 371.136719 122.835938 371.136719 124.675781 371.1875 C 124.675781 372.976562 124.675781 374.761719 124.726562 376.546875 C 122.882812 376.746094 121.046875 376.449219 119.253906 376.945312 C 119.355469 379.773438 119.253906 382.605469 119.355469 385.433594 C 122.140625 385.285156 125.371094 385.285156 127.460938 383.152344 C 129.597656 380.769531 129.996094 377.34375 129.945312 374.265625 C 129.945312 371.632812 129.648438 368.65625 127.609375 366.71875 C 125.421875 364.585938 122.140625 364.636719 119.253906 364.683594 Z M 119.253906 364.683594 "/>
<path style=" stroke:none;fill-rule:evenodd;fill:rgb(95.294118%,50.196078%,12.156863%);fill-opacity:1;" d="M 137.84375 394.449219 C 142.46875 381.386719 147.09375 368.320312 151.667969 355.253906 C 156.195312 355.203125 160.769531 355.253906 165.296875 355.253906 C 169.875 368.320312 174.449219 381.4375 179.027344 394.5 C 174.746094 394.550781 170.472656 394.5 166.191406 394.5 C 165.695312 392.863281 165.199219 391.171875 164.75 389.53125 C 160.570312 389.480469 156.394531 389.480469 152.21875 389.53125 C 151.769531 391.171875 151.222656 392.8125 150.722656 394.5 C 146.398438 394.5 142.121094 394.601562 137.84375 394.449219 Z M 158.582031 369.210938 C 157.238281 373.289062 155.898438 377.3125 154.851562 381.4375 C 157.289062 381.386719 159.726562 381.4375 162.164062 381.4375 C 161.816406 378.953125 160.921875 376.617188 160.273438 374.179688 C 159.726562 372.542969 159.476562 370.753906 158.582031 369.210938 Z M 158.582031 369.210938 "/>
<path style=" stroke:none;fill-rule:evenodd;fill:rgb(95.294118%,50.196078%,12.156863%);fill-opacity:1;" d="M 188.476562 355.28125 C 192.40625 355.183594 196.332031 355.332031 200.210938 355.230469 C 203.492188 360.144531 206.574219 365.15625 209.753906 370.121094 C 210.847656 371.761719 211.792969 373.597656 213.132812 375.085938 C 213.285156 368.484375 213.132812 361.882812 213.234375 355.28125 C 217.359375 355.28125 221.535156 355.28125 225.664062 355.28125 C 225.664062 368.335938 225.613281 381.441406 225.664062 394.496094 C 221.484375 394.546875 217.3125 394.546875 213.085938 394.496094 C 208.808594 387.945312 204.734375 381.242188 200.308594 374.789062 C 200.261719 381.339844 200.261719 387.894531 200.308594 394.445312 C 196.332031 394.546875 192.355469 394.59375 188.429688 394.394531 C 188.527344 381.390625 188.476562 368.335938 188.476562 355.28125 Z M 188.476562 355.28125 "/>
<path style=" stroke:none;fill-rule:evenodd;fill:rgb(95.294118%,50.196078%,12.156863%);fill-opacity:1;" d="M 226.414062 394.433594 C 230.703125 381.335938 234.988281 368.238281 239.230469 355.140625 C 243.464844 355.042969 247.703125 355.191406 251.941406 355.042969 C 256.527344 368.089844 260.714844 381.285156 265.152344 394.433594 C 261.117188 394.484375 257.128906 394.535156 253.089844 394.433594 C 252.640625 392.742188 252.140625 391.046875 251.492188 389.453125 C 247.503906 389.554688 243.566406 389.503906 239.578125 389.503906 C 239.078125 391.148438 238.628906 392.839844 238.230469 394.535156 C 234.242188 394.484375 230.304688 394.535156 226.414062 394.433594 Z M 245.609375 369.136719 C 244.414062 373.167969 242.917969 377.203125 242.21875 381.386719 C 244.5625 381.4375 246.855469 381.4375 249.199219 381.386719 C 248.203125 377.253906 247.15625 373.070312 245.609375 369.136719 Z M 245.609375 369.136719 "/>
<path style=" stroke:none;fill-rule:evenodd;fill:rgb(95.294118%,50.196078%,12.156863%);fill-opacity:1;" d="M 265.90625 394.425781 C 265.953125 381.378906 265.855469 368.28125 265.953125 355.230469 C 269.878906 355.230469 273.800781 355.230469 277.671875 355.230469 C 281 360.390625 284.273438 365.601562 287.601562 370.761719 C 288.542969 372.148438 289.289062 373.738281 290.53125 374.925781 C 290.730469 368.378906 290.582031 361.828125 290.628906 355.28125 C 294.800781 355.230469 298.96875 355.230469 303.089844 355.28125 C 303.089844 368.328125 303.039062 381.378906 303.140625 394.425781 C 298.96875 394.625 294.800781 394.476562 290.628906 394.527344 C 286.308594 387.976562 282.238281 381.28125 277.820312 374.777344 C 277.773438 381.328125 277.773438 387.878906 277.820312 394.425781 C 273.800781 394.527344 269.878906 394.425781 265.90625 394.425781 Z M 265.90625 394.425781 "/>
</g>
</svg>
