<?xml version="1.0" encoding="UTF-8"?>
<svg xmlns="http://www.w3.org/2000/svg" xmlns:xlink="http://www.w3.org/1999/xlink" width="447px" height="447px" viewBox="0 0 447 447" version="1.1">
<g id="surface1">
<path style=" stroke:none;fill-rule:evenodd;fill:rgb(0%,0%,44.313725%);fill-opacity:1;" d="M 183.191406 4.078125 C 191.699219 3.097656 200.113281 1.226562 208.621094 0.425781 C 218.734375 0.425781 228.851562 0.425781 238.878906 0.425781 C 247.742188 1.316406 256.429688 3.1875 265.292969 4.257812 C 277.828125 7.375 290.542969 9.960938 302.539062 15.042969 C 311.582031 17.535156 319.644531 22.4375 328.058594 26.449219 C 338.710938 32.777344 349.546875 38.925781 359.300781 46.589844 C 370.136719 54.257812 379.273438 63.792969 388.582031 73.148438 C 405.59375 92.042969 419.203125 113.789062 429.765625 136.871094 C 432.632812 145.785156 436.660156 154.433594 438.722656 163.613281 C 440.15625 169.851562 442.035156 176.085938 443.289062 182.324219 C 444.273438 190.789062 446.152344 199.171875 446.960938 207.636719 C 446.960938 219.136719 447.050781 230.71875 446.871094 242.21875 C 444.902344 255.496094 443.375 268.777344 439.527344 281.699219 C 437.46875 292.125 432.992188 301.929688 429.675781 312 C 419.113281 334.992188 405.503906 356.828125 388.492188 375.722656 C 383.65625 380.535156 378.734375 385.351562 373.988281 390.164062 C 354.828125 407.277344 332.714844 421 309.164062 431.515625 C 302.003906 433.5625 295.375 437.039062 288.125 438.558594 C 287.949219 395.777344 288.125 352.996094 288.035156 310.21875 C 245.144531 310.21875 202.257812 310.21875 159.375 310.21875 C 159.285156 352.996094 159.460938 395.777344 159.285156 438.558594 C 151.945312 437.039062 145.316406 433.5625 138.246094 431.515625 C 114.785156 421 92.671875 407.277344 73.417969 390.164062 C 66.707031 383.121094 59.183594 376.792969 53.273438 369.042969 C 42.707031 356.828125 34.203125 343.105469 26.148438 329.113281 C 22.5625 321.539062 18 314.320312 15.667969 306.121094 C 12.980469 298.988281 10.121094 291.859375 8.507812 284.285156 C 6.804688 276.617188 4.121094 269.21875 3.492188 261.378906 C 2.421875 254.605469 1.167969 247.921875 0.449219 241.0625 C 0.449219 229.5625 0.359375 217.972656 0.539062 206.480469 C 2.507812 193.199219 4.027344 179.921875 7.878906 166.996094 C 9.9375 156.570312 14.417969 146.765625 17.726562 136.695312 C 28.296875 113.703125 41.90625 91.867188 58.917969 72.972656 C 67.417969 64.773438 75.570312 56.039062 85.058594 48.910156 C 101.175781 36.34375 118.902344 26.003906 137.527344 17.535156 C 146.480469 14.683594 155.167969 10.675781 164.386719 8.625 C 170.652344 7.199219 176.835938 5.328125 183.191406 4.078125 M 155.878906 39.195312 C 146.570312 41.777344 138.15625 46.679688 129.558594 50.867188 C 122.308594 55.058594 115.050781 59.15625 108.609375 64.503906 C 96.878906 72.703125 86.941406 83.042969 76.914062 93.113281 C 71.003906 99.976562 65.539062 107.015625 60.167969 114.324219 C 53.363281 124.308594 47.992188 135.089844 42.707031 145.960938 C 41.097656 149.707031 40.203125 153.71875 38.589844 157.460938 C 32.234375 173.058594 29.726562 189.898438 27.488281 206.480469 C 27.308594 217.972656 27.488281 229.5625 27.398438 241.0625 C 29.546875 258.617188 32.324219 276.351562 39.21875 292.75 C 43.785156 307.101562 51.394531 320.289062 59.183594 333.03125 C 66.617188 343.015625 73.957031 353.175781 83 361.644531 C 86.761719 365.296875 90.339844 369.21875 94.191406 372.785156 C 104.578125 381.25 114.875 389.984375 126.871094 396.042969 C 126.871094 357.808594 126.871094 319.484375 126.871094 281.253906 C 137.347656 281.164062 147.734375 281.253906 158.210938 281.253906 C 158.210938 263.074219 158.210938 244.890625 158.210938 226.710938 C 136.363281 226.621094 114.429688 226.800781 92.582031 226.621094 C 77.71875 211.378906 62.316406 196.585938 47.453125 181.433594 C 55.421875 174.125 62.765625 166.105469 70.648438 158.707031 C 81.835938 170.382812 93.65625 181.523438 104.9375 193.199219 C 133.5 193.375 162.148438 193.199219 190.710938 193.289062 C 190.710938 222.253906 190.710938 251.21875 190.710938 280.183594 C 212.738281 280.183594 234.761719 280.183594 256.699219 280.183594 C 256.699219 251.21875 256.699219 222.253906 256.699219 193.289062 C 285.347656 193.199219 313.910156 193.375 342.472656 193.199219 C 353.035156 182.414062 363.871094 171.988281 374.4375 161.203125 C 375.332031 160.488281 376.046875 159.15625 377.304688 159.066406 C 384.730469 166.464844 392.164062 173.859375 399.59375 181.34375 C 399.328125 181.792969 398.789062 182.589844 398.609375 183.039062 C 383.925781 197.566406 369.335938 212.003906 354.828125 226.710938 C 332.890625 226.886719 311.046875 226.710938 289.199219 226.800781 C 289.199219 244.980469 289.199219 263.164062 289.199219 281.34375 C 299.671875 281.433594 310.0625 281.34375 320.535156 281.34375 C 320.535156 319.578125 320.535156 357.902344 320.535156 396.132812 C 326.625 393.015625 332.351562 389.449219 337.640625 385.257812 C 346.679688 378.753906 355.183594 371.625 362.796875 363.515625 C 372.554688 354.511719 380.523438 343.816406 388.316406 333.210938 C 396.195312 320.46875 403.710938 307.277344 408.371094 292.925781 C 415.175781 276.886719 417.769531 259.507812 420.101562 242.308594 C 420.1875 230.453125 420.1875 218.601562 420.101562 206.65625 C 418.398438 195.335938 417.054688 183.84375 413.921875 172.792969 C 411.859375 163.878906 407.917969 155.589844 405.148438 146.941406 C 399.953125 135.804688 394.3125 124.753906 387.417969 114.503906 C 380.074219 104.789062 372.914062 94.894531 363.960938 86.609375 C 350.347656 72.347656 334.59375 60.136719 317.222656 50.691406 C 309.078125 46.769531 301.195312 42.046875 292.421875 39.640625 C 275.410156 32.507812 257.054688 29.480469 238.878906 27.25 C 228.40625 27.25 218.019531 27.164062 207.546875 27.339844 C 190.085938 29.570312 172.355469 32.332031 155.878906 39.195312 Z M 155.878906 39.195312 "/>
<path style=" stroke:none;fill-rule:evenodd;fill:rgb(0%,0%,44.313725%);fill-opacity:1;" d="M 165.195312 77.191406 C 174.4375 77.101562 183.769531 77.191406 193.011719 77.191406 C 192.207031 80.132812 191.398438 83.160156 190.59375 86.101562 C 212.664062 86.101562 234.832031 86.101562 256.90625 86.101562 C 256.101562 83.160156 255.292969 80.132812 254.484375 77.191406 C 263.726562 77.191406 273.058594 77.101562 282.300781 77.191406 C 289.390625 94.480469 296.03125 112.125 303.03125 129.414062 C 291.453125 129.5 279.878906 129.5 268.300781 129.414062 C 267.140625 124.957031 266.417969 120.320312 264.625 116.042969 C 237.34375 116.132812 210.0625 116.132812 182.785156 116.042969 C 181.078125 120.320312 180.359375 124.957031 179.101562 129.414062 C 167.527344 129.414062 155.949219 129.5 144.378906 129.414062 C 151.46875 112.035156 158.015625 94.480469 165.195312 77.191406 Z M 165.195312 77.191406 "/>
<path style=" stroke:none;fill-rule:evenodd;fill:rgb(0%,0%,44.313725%);fill-opacity:1;" d="M 100.722656 127.949219 C 101.441406 127.414062 102.609375 125.457031 103.59375 126.878906 C 110.679688 134.09375 117.941406 141.042969 124.9375 148.257812 C 190.84375 148.347656 256.746094 148.347656 322.5625 148.257812 C 329.738281 140.867188 337.085938 133.652344 344.441406 126.4375 L 345.066406 126.4375 C 352.058594 133.292969 359.058594 140.152344 365.871094 147.28125 C 356.097656 157.433594 345.785156 167.144531 336.011719 177.300781 C 261.140625 177.390625 186.269531 177.390625 111.398438 177.300781 C 101.535156 167.144531 91.3125 157.433594 81.539062 147.28125 C 87.8125 140.691406 94.449219 134.542969 100.722656 127.949219 Z M 100.722656 127.949219 "/>
<path style=" stroke:none;fill-rule:evenodd;fill:rgb(0%,0%,44.313725%);fill-opacity:1;" d="M 193.84375 392.425781 C 196.394531 392.425781 199.03125 392.425781 201.578125 392.425781 C 203.25 394.554688 204.742188 396.859375 206.324219 399.074219 C 204.214844 398.988281 202.109375 399.164062 200 398.808594 C 197.714844 396.949219 195.78125 394.640625 193.84375 392.425781 Z M 193.84375 392.425781 "/>
<path style=" stroke:none;fill-rule:evenodd;fill:rgb(0%,0%,44.313725%);fill-opacity:1;" d="M 258.460938 392.753906 C 261.136719 392.3125 263.898438 392.3125 266.484375 392.753906 C 268.800781 394.597656 270.761719 396.882812 272.722656 399.074219 C 270.226562 399.074219 267.730469 399.074219 265.238281 398.988281 C 264.789062 396.003906 260.15625 396.089844 259.710938 398.988281 C 257.214844 399.074219 254.71875 399.074219 252.222656 399.074219 C 254.09375 396.882812 256.054688 394.597656 258.460938 392.753906 Z M 258.460938 392.753906 "/>
<path style=" stroke:none;fill-rule:evenodd;fill:rgb(0%,0%,44.313725%);fill-opacity:1;" d="M 161.761719 400.40625 C 165.046875 400.40625 168.421875 400.40625 171.703125 400.40625 C 171.703125 405.195312 171.703125 409.984375 171.703125 414.773438 C 172.503906 414.773438 174.191406 414.773438 174.988281 414.773438 C 174.988281 409.984375 174.988281 405.195312 174.988281 400.40625 C 178.273438 400.40625 181.652344 400.40625 184.9375 400.40625 C 184.9375 413 184.9375 425.507812 184.9375 438.101562 C 181.5625 438.101562 178.273438 438.101562 174.988281 438.101562 C 174.988281 432.957031 174.988281 427.722656 174.988281 422.578125 C 174.191406 422.578125 172.503906 422.578125 171.703125 422.578125 C 171.703125 427.722656 171.703125 432.957031 171.703125 438.101562 C 168.421875 438.101562 165.046875 438.101562 161.761719 438.101562 C 161.761719 425.507812 161.761719 413 161.761719 400.40625 Z M 161.761719 400.40625 "/>
<path style=" stroke:none;fill-rule:evenodd;fill:rgb(0%,0%,44.313725%);fill-opacity:1;" d="M 193.171875 400.441406 C 198.289062 400.351562 203.402344 400.441406 208.425781 400.441406 C 210.308594 412.941406 212.195312 425.53125 214.347656 438.035156 C 210.582031 438.121094 206.808594 438.121094 203.042969 438.035156 C 202.949219 435.816406 202.949219 433.597656 202.949219 431.382812 C 201.515625 431.382812 199.992188 431.382812 198.554688 431.382812 C 198.46875 433.597656 198.46875 435.816406 198.46875 438.035156 C 194.695312 438.035156 190.929688 438.121094 187.160156 438.035156 C 189.40625 425.621094 191.289062 413.03125 193.171875 400.441406 M 199.722656 417.109375 C 199.722656 419.679688 199.722656 422.25 199.722656 424.910156 C 200.257812 424.910156 201.425781 424.910156 201.964844 424.910156 C 201.964844 422.339844 201.964844 419.769531 201.964844 417.109375 C 201.335938 417.109375 200.257812 417.109375 199.722656 417.109375 Z M 199.722656 417.109375 "/>
<path style=" stroke:none;fill-rule:evenodd;fill:rgb(0%,0%,44.313725%);fill-opacity:1;" d="M 225.578125 400.40625 C 228.074219 400.40625 230.566406 400.40625 233.0625 400.40625 C 234.757812 404.574219 235.648438 409.007812 237.609375 413 C 237.878906 408.832031 237.699219 404.574219 237.789062 400.40625 C 241.085938 400.40625 244.472656 400.40625 247.769531 400.40625 C 247.769531 413 247.769531 425.507812 247.769531 438.101562 C 244.828125 438.101562 241.976562 438.101562 239.035156 438.101562 C 237.609375 434.375 237.34375 430.207031 235.648438 426.570312 C 235.292969 430.382812 235.46875 434.285156 235.46875 438.101562 C 232.171875 438.101562 228.785156 438.101562 225.488281 438.101562 C 225.578125 425.507812 225.578125 413 225.578125 400.40625 Z M 225.578125 400.40625 "/>
<path style=" stroke:none;fill-rule:evenodd;fill:rgb(0%,0%,44.313725%);fill-opacity:1;" d="M 257.195312 400.425781 C 261.230469 399.882812 266.066406 399.253906 269.382812 402.136719 C 271.800781 404.117188 273.859375 407 273.59375 410.242188 C 273.59375 416.28125 273.59375 422.316406 273.59375 428.351562 C 273.859375 433.039062 269.921875 437.273438 265.53125 438.351562 C 261.949219 438.445312 257.914062 439.164062 254.871094 437.003906 C 252.089844 435.023438 249.671875 431.957031 250.03125 428.351562 C 250.03125 422.316406 250.03125 416.28125 250.03125 410.335938 C 249.761719 405.738281 253.257812 401.953125 257.195312 400.425781 M 260.15625 406.820312 C 260.15625 415.105469 260.15625 423.304688 260.15625 431.597656 C 260.960938 431.597656 262.660156 431.597656 263.46875 431.597656 C 263.46875 423.304688 263.46875 415.105469 263.46875 406.820312 C 262.660156 406.820312 260.960938 406.820312 260.15625 406.820312 Z M 260.15625 406.820312 "/>
<path style=" stroke:none;fill-rule:evenodd;fill:rgb(0%,0%,44.313725%);fill-opacity:1;" d="M 275.84375 400.40625 C 279.230469 400.40625 282.707031 400.40625 286.09375 400.40625 C 286.09375 413 286.09375 425.507812 286.09375 438.101562 C 282.613281 438.101562 279.230469 438.101562 275.84375 438.101562 C 275.84375 425.507812 275.84375 413 275.84375 400.40625 Z M 275.84375 400.40625 "/>
<path style=" stroke:none;fill-rule:evenodd;fill:rgb(0%,0%,44.313725%);fill-opacity:1;" d="M 258.015625 439.425781 C 260.660156 439.425781 263.300781 439.425781 266.039062 439.425781 C 266.039062 441.914062 266.039062 444.398438 266.039062 446.964844 C 263.394531 446.964844 260.753906 446.964844 258.015625 446.964844 C 258.015625 444.398438 258.015625 441.914062 258.015625 439.425781 Z M 258.015625 439.425781 "/>
</g>
</svg>
