<svg enable-background="new 0 0 936 936" height="316.227766" viewBox="0 0 936 936" width="316.227766" xmlns="http://www.w3.org/2000/svg"><circle cx="468" cy="468" fill="#fff" r="457.8"/><path d="m431.4 23.3c2.8-.5 5.7-.3 8.6-.3-2.9.6-5.8.2-8.6.3z" fill="#b94b5c"/><path d="m439.9 22.9c2.5-.3 4.9-.5 7.4-.7 10.8.6 21.7.4 32.5.2 2.9.2 5.6.2 8.6.4 2.8.3 5.6.6 8.4.7 54.2 3.6 107.3 18.1 156.7 40.4 45.5 22.7 86 55.3 118 94.8 38.6 48.8 68.8 105.4 83.1 166.2-2.5-3.4-4-7.3-6-11-19.7-37.8-45.3-72.7-75.9-102.4-1.5-1.8-3.1-3.4-4.9-4.9-70-69.3-165.8-111.4-263.9-118.2-2.9-.3-5.6-.6-8.4-.6-2.9-.2-5.7-.2-8.6-.4-8.8-1.1-17.7-1.2-26.5-.1-3.2.2-6.3.3-9.4.6-2.9 0-5.7-.1-8.6.3-133 10-260.4 85-329.6 199.5-42.4 69.5-60.9 153.4-50.4 234.2 14.1 129 104.3 245.6 224.9 293.1 37.6 15.2 77.7 23.5 118.1 25.8 11.4.8 23.1 1.7 34.5.1 57.4-2.9 114.3-19.3 163.9-48.2 2-.3 4-1 4.7-3.1 4.9-1.7 9.5-4.4 13.1-8.1 68.6-43.2 120.8-111.7 146.3-188.5 1.3-2.4 1.8-4.5 1-5s-2.9.6-4.8 1.2c-23.2 8.2-46.5 15.9-69.9 23.5.7-40.7 0-81.3.3-122l.6-.5c44.6-12.1 90.2-20.9 136.3-24.8 2.9-.3 12.2-1 14.8-1.1 4.8-.1 9.8-.2 14.6-.4 6.1-.3 12.3-.4 18.5-.1 4.1.7 8.3.6 12.4.6 7.7-.1 15.5.4 23 2.2.9.2 1.8.8 2.7 1.2-.2.8-.2 1.7-.5 2.5-14.1 30.9-23.6 62.7-31.9 94.8-14.2 68.4-37.2 137.1-82.4 191.6-74.1 91.4-188.2 145.6-304.7 155.3-3.3-.2-6.4-.5-9.6.3-1.6.1-4.8.5-6.5.6-11.8-.3-23.7-.5-35.5 0-1.6-.1-4.9-.3-6.5-.4-3.2-.5-6.3-.8-9.5-.6-140.3-9.5-273-90.9-345.7-211.2-39.6-63.8-61.6-137.9-65.3-212.8.6-14.2.5-28.4.1-42.5 0-10.6 1.7-21 2.6-31.5 8.2-64.4 29.7-127.4 64.6-182.3 73.3-118.9 205.3-199 344.8-208.3 2.8-.1 5.7.3 8.5-.4zm356.8 516.9-34.9 10.7 34.5 11.9-.6 36.5 22-29.1 34.5 11.9-20.9-29.9 22-29.1-34.9 10.7-20.9-29.9z" fill="#dd0124"/><path d="m488.4 22.8c2.8.1 5.6.4 8.4.7-2.8-.1-5.6-.4-8.4-.7z" fill="#bd495b"/><path d="m460.4 87.3c8.8-1.1 17.7-1 26.5.1-8.9.1-17.7.7-26.5-.1z" fill="#c92e47"/><path d="m442.4 88.3c2.8-.5 5.7-.3 8.6-.3-2.9.6-5.8.2-8.6.3z" fill="#bc4c5d"/><path d="m495.4 87.8c2.8.1 5.6.3 8.4.6-2.8 0-5.6-.3-8.4-.6z" fill="#b85666"/><path d="m493.6 167.7c3.5-2.6 7.6-2 10.4 1.5 32.8 28.5 47.1 72.9 50 115.2-.1.9-.4 2.6-.5 3.5-12.6-32.7-22.3-68.8-48.9-93.2-1.2-.7-2.2-2.1-3.7-1.9-15 6.2-26.8 19.5-37.7 31.5-14.6 15.7-24.6 34.8-32.8 54.4-18.5-3.5-36.6-10.4-55.2-14.5-46.2-11.2-94.2-16-141.6-11.7-5.5-1.8-9.2 4.6-7.8 9.1 2.8 60.8 19.4 120.4 44 175.8-34.5 2.5-69 7.7-102 18.3-16.6 6-33.3 12.8-47 24.3-.9 2.5-.6 4.7.9 6.6 42.6 50.9 94.7 94.9 155.3 122.6 54.3 25.2 114 37.1 173.6 40.6 29.5 1.9 59.3 5.9 88.7.5 47.1-4.7 93-17.1 138.3-30.5.1 4 .2 7.9.4 11.9-57.7 22.7-118.7 37.7-180.6 42.6-.4.1-23.4 1.2-27.6 1.5-5.4.5-10.9.4-16.5.5-13.5.3-27 .5-40.5.1-4.9-.3-9.7-.4-14.5-.6-71.3-3.2-143.3-19.9-204.8-57.2-44.9-26.6-82.2-64.3-112.9-106.2-5.2-8.6-10.7-16.9-16-25.3-1.7-3.3-6.2-7.7-1-10.1.4-.3 1.4-.9 1.8-1.2 18.6-14.9 41.4-22.6 63.6-30.2 25.6-6.8 51.8-10.9 78.1-13.4 3.2.1 6.5.5 9.6-.3 3.8-.2 7.6-.4 11.5-.5 4.8.1 9.5.2 14.3.2-5.3-8.3-8.9-17.6-13.9-26.1-1.5-3.7-2.7-7.7-5.1-10.9-18.9-46.4-31.7-95.5-34.4-145.7.3-6.4.3-12.9.3-19.3 26.2-7.1 53.8-8.6 80.8-7.8 2.7.3 5.4.8 8.2.8 1.8 0 5.4-.1 7.3-.1 44.8 5.7 89 17.7 129.8 37.1 5.3-3.3 6-10.9 9.4-15.9 17.5-29.5 38.2-59.1 68.7-76z" fill="#f6df01"/><path d="m463.2 224.2c10.9-11.9 22.7-25.3 37.7-31.5-31.4 22.1-57.1 53-69.3 89.7-46.9-15-95.3-27-144.7-29-11.4-.8-23.1-1.8-34.5-.1-7.8 1.4-17.2-.7-24.4 2.5 2.6 63.9 19.5 126.7 45.8 184.7-36.3 1.3-72.5 7.1-107.1 18.3-16 5.9-32.2 12.6-45.2 23.9 39.5 48.5 87.7 91 144.1 119 60.6 31.3 129.2 43.6 196.8 47.2 3.8.4 7.6.5 11.4.5 4.2.2 8.4.3 12.6.4 11.4.9 23.1 1.8 34.5.2 53.8-3.2 106.2-17.5 157.7-32.5 0 .9.3 13.8.3 13.8l-.9.4c-.2-4-.3-7.9-.4-11.9-45.3 13.3-91.2 25.7-138.3 30.5-29.4 5.4-59.3 1.4-88.7-.5-59.6-3.5-119.3-15.4-173.6-40.6-60.6-27.8-112.8-71.7-155.3-122.6-1.5-1.9-1.8-4.1-.9-6.6 13.7-11.4 30.4-18.3 47-24.3 33-10.6 67.5-15.8 102-18.3-24.6-55.5-41.1-115-44-175.8-1.4-4.5 2.3-11 7.8-9.1 47.4-4.2 95.4.5 141.6 11.6 18.6 4.1 36.7 11.1 55.2 14.5 8.1-19.6 18.1-38.8 32.8-54.4z" fill="#d3b819"/><path d="m500.9 192.7c1.5-.1 2.5 1.2 3.7 1.9 25.2 29.1 37.7 66.1 48.9 102.3.3 1 .6 2 1 3-.4.2-1.2.5-1.5.7-20.6-10.8-44.1-14.4-67-17.2-7.5-.9-15.1-1.3-22.5-.1-30 1.1-59.2 10.9-84.9 26.1-27.4 15.8-52.1 37.5-67.7 65.3-12.9 21.3-19.1 46.1-21.3 70.8-1.2 8.8-1.2 17.7-.1 26.5 3.8 35.7 15.7 73.3 43.3 97.7.3.2.8.7 1 .9 39.7 42.9 100.2 59.1 156.8 62.3 4.4.6 9 .7 13.5.6 6.5.1 13 .5 19.5-.1 4.5 0 25.1-.7 28.4-1.6 42.9-2.6 85.1-12.2 126.8-22.2.1 2.7.1 5.3.1 8-51.5 15-103.9 29.2-157.7 32.5-11.5-.6-23-.5-34.5-.2-4.2-.2-8.4-.3-12.6-.4-3.8-.4-7.6-.5-11.4-.5-67.6-3.7-136.1-15.9-196.8-47.2-56.4-28-104.6-70.5-144.1-119 13-11.3 29.2-18 45.2-23.9 34.6-11.2 70.8-17 107.1-18.3-26.3-58-43.2-120.8-45.8-184.7 7.1-3.2 16.6-1.1 24.4-2.5 11.5.5 23 .5 34.5.1 49.4 2 97.8 13.9 144.7 29 11.9-36.8 37.6-67.7 69-89.8z" fill="#de0123"/><path d="m622.6 701.6h6l.1 27.2h-6z" fill="#de0123"/><path d="m504.5 194.6c26.6 24.4 36.4 60.6 48.9 93.2 0 3 1 9 1 12-11.2-36.1-24.7-76.1-49.9-105.2z" fill="#d3b518"/><path d="m252.4 253.3c11.4-1.7 23.1-.7 34.5.1-11.5.4-23.1.4-34.5-.1z" fill="#cc5725"/><path d="m463.3 283.2c7.4-1.2 15.1-.8 22.5.1-7.4.3-15 .4-22.5-.1z" fill="#c04f43"/><path d="m477.2 377.5c.2-.1.5-13.2.5-13.2s.7 13 1 12.8c.1 2.6-.4 27.4.8 32.8.7 2.3 8.3 10.4 8.3 10.4s46.1 3.3 58.7 4.6c7.7 6 15.1 12.2 23 17.9 8.6 7.8 20.4 10.2 30.8 14.9 11.6 5.5 38.1 16.9 38.1 16.9s-238.9-10.9-241.5-10.9c2-2.7 21-24 21-24l-30.9-26.5 76.8 5.3s11.3-7.7 11.8-8.7c1.5-4.4 1.5-29.2 1.6-32.3z" fill="#de0124"/><path d="m397.6 556.5c5.3-7 15.9-6.4 21.2.1.1.4-.2 46.8-.2 46.8l-21.8 1.1s.2-32.6.8-48z" fill="#de0124"/><path d="m430.9 556.2c5.1-7 15.5-6.4 20.7.1.1.4-.2 46.8-.2 46.8l-21.2 1.1s.2-32.7.7-48z" fill="#de0124"/><path d="m463 556.8c5.7-6.7 17.1-6.1 22.8.1.1.4-.2 44.7-.2 44.7l-23.4 1.1c-.1-.1.2-31.2.8-45.9z" fill="#de0124"/><path d="m496.8 556c5.3-6.8 15.9-6.2 21.2.1.1.4-.2 45.6-.2 45.6l-21.8 1.1s.3-31.8.8-46.8z" fill="#de0124"/><path d="m528.7 556.1c5-6.6 15-6.1 20 .1.1.4-.2 44.6-.2 44.6l-20.6 1.1c0-.1.2-31.2.8-45.8z" fill="#de0124"/><path d="m562.8 556.5c4.8-6.4 14.3-5.9 19.1.1.1.4-.2 43.2-.2 43.2l-19.7 1.1c.1-.1.3-30.2.8-44.4z" fill="#de0124"/><path d="m595.2 557.5c4.9-6.1 14.8-5.6 19.7.1.1.4-.2 41.1-.2 41.1l-20.2 1c-.1 0 .1-28.7.7-42.2z" fill="#de0124"/><path d="m628.1 557.3c4.8-6 14.3-5.5 19.1.1.1.4-.2 40.4-.2 40.4l-19.7 1c.1-.1.3-28.2.8-41.5z" fill="#de0124"/><path d="m661.8 556.9c4.4-5.9 13.3-5.4 17.8.1.1.4-.2 39.6-.2 39.6l-18.3 1c0-.1.2-27.7.7-40.7z" fill="#de0124"/><path d="m273.7 701.7h6.3v27h-6.3z" fill="#de0124"/><path d="m571.7 701.7 5.9.1v26.9h-5.9z" fill="#de0124"/><path d="m657.3 701.8h6l.1 11h9.5v-11h5.4v27l-5.1.2-.1-10.7h-9.7l-.1 10.5h-5.9z" fill="#de0124"/><path d="m382.8 403.3c4.8-5 5.2 4.7 9.8 4.3 8 1 39.3 7 39.3 7s-30.7-2.4-46-2.9c-2.6-2.1-3.9-5.1-3.1-8.4z" fill="#db1131"/><path d="m604.5 457.8c.6-.1 1.7-.4 2.3-.5 9.8 2 18.8 6.9 28.8 8.3 2.9-4.3 8.4-2.5 7.2 3-1.9 1.6-4.2 2.7-6.6 3.2-10.2-5.7-21.6-8.5-31.7-14z" fill="#db1131"/><path d="m392.6 413.2c-1.4.5-2.8 1-4.2 1.4" fill="#c65668"/><path d="m542.7 416.7c1.5-3 3.8-3.8 6-1 0 2.5-.6 5-2.1 7-12.8.6-38.4-1.9-38.4-1.9s23.6-1.2 34.5-4.1z" fill="#dc0c2d"/><path d="m363.4 437.4c6.6-8.1 14.4-15.1 21.1-23 9.9 8.6 20.6 16.5 30.3 25.3-4.8 5.2-23 25.3-23 25.3l-90 3.6c0-.1 56.5-22.1 61.6-31.2zm21.5-15.6-19 20.2 41-2.4z" fill="#dd0426"/><path d="m463.9 418.5c-2.8 0-5.7-.5-8.4-.7" fill="#d5818e"/><path d="m207.4 432.3c3.1-.8 6.4-.5 9.6-.3-3.2.8-6.5.4-9.6.3z" fill="#dfd46b"/><path d="m19.3 487.9c-1.3-14.1-.9-28.4.1-42.5.4 14.2.5 28.3-.1 42.5z" fill="#dd0124"/><path d="m289.3 471.9c-1-8.8-1-17.7.1-26.5.5 8.8.3 17.7-.1 26.5z" fill="#bc5c4f"/><path d="m302.8 461.6c9-2.5 29.3-8.9 30.1-8.8-11 4.7-21.6 11.4-33.3 14-1-.7-2-1.5-3-2.2-3.2-5.1 3.5-7.5 6.2-3z" fill="#dc0d2e"/><path d="m879.4 463.8c4.1 0 8.3.1 12.4.6-4.1 0-8.3.1-12.4-.6z" fill="#be4b5d"/><path d="m379.7 720.6v-3.9l11.9-.1v4z" fill="#de0023"/><path d="m463.7 701.7h5.9l.1 10.9h9.5l-.1-11h5.5v27.1h-5.9l-.1-10.1-9.1-.1-.1 10.2h-5.6z" fill="#de0225"/><path d="m547.6 701.9h6l.1 10.9h9.4v-11l5.5.1-.1 27h-5.8l-.1-10.1-9.1-.1-.1 10.2h-5.6z" fill="#de0225"/><path d="m347.2 701.6h6.6l10.6 18.1-.1-18 6.3-.1-.1 27.1-6.9.1-10.1-17.8v17.6h-6.3z" fill="#de0325"/><path d="m631.5 701.8h6.5l10.6 18.1-.1-18.1h6.3l-.1 27.1-6.9.1-10.1-17.9.1 17.6-6.3.1z" fill="#de0325"/><path d="m694.4 612.8c23.3-7.7 50.4-16.6 73.6-24.8l-73.6 36.7z" fill="#f6de01"/><path d="m462.4 648.9c3.8 0 7.6.2 11.4.5-3.8 0-7.6-.2-11.4-.5z" fill="#d25821"/><path d="m486.4 649.8c11.5-.3 23-.4 34.5.2-11.4 1.6-23.1.7-34.5-.2z" fill="#de0123"/><path d="m250.2 694.2h5.8l3.4 5.4h-3.5z" fill="#db1837"/><path d="m324.5 694.2h5.9l3.3 5.4h-3.5z" fill="#db1837"/><path d="m498.6 689.6h5.9l3.3 5.4h-3.5z" fill="#db1837"/><path d="m580.3 694.2h-5.8l-3.4 5.4h3.5z" fill="#de0124"/><path d="m493.6 701 4.1-6.5h4.5l4.9 6.3-3.9.2-3.2-3.2-2.6 3z" fill="#d91837"/><path d="m220.9 702.9c6.3-2.8 13.9-1.4 20.7-1.3v6.1c-4.3 0-18.6-2.5-18.3 2.9.2 5.3 11 1.4 15.7 4 .8.5 2.2.7 2.9 2.6 1.9 5 .6 11.6-6.1 11.7-5.7-.1-11.4-.2-17.1-.2-.1-1.7-.2-3.3-.1-4.9 6.1-.3 18.4 1.7 18.5-2.4 0-4.5-9.1-3.1-12.7-3.3-7.6-.5-9.5-11.2-3.5-15.2z" fill="#dd082a"/><path d="m243.6 728.7 11-27.2h5.5l10.9 27.2h-6.2l-2.8-6.4h-10l-2.5 6.4zm9.6-11.4h7.5l-3.4-10.6z" fill="#dd0628"/><path d="m398.4 701.6h23.5v5.7l-8.2.1-.2 21.2h-6.9l.1-21.3-8.3.1z" fill="#dd0628"/><path d="m297.4 702.3c5.8-2 18.1-.9 18.1-.9l.2 5.2c0-.1-6.4-.3-7-.3-2.6-.1-5.2-.1-7.7.4-1 .2-1.8.6-2.2 1.5-.5 1.1-.9 3.4-.9 3.4s-.2 6.6.8 9.5c.2.7.7 1.3 1.3 1.6.3.1 6.6.5 9.6 0l-.2-5-5.9.1v-4.9h12.2s.1 10.1.3 15.1v.9c-5.5.2-11.1.3-16.4 0-1.4-.1-2.8-.3-4-1-2.2-1.5-3.9-4.2-4.1-6.9-.3-3.5-.1-6.9 0-10.5.3-3.7 2.7-7.1 5.9-8.2z" fill="#de0426"/><path d="m532 701.9c.9-.4 1.9-.6 2.9-.7 2.6-.2 9.1-.1 9.8 0v5.5c-1.9 0-3.6-.1-5.4 0-2.7.2-5.7-.1-7.5 2.2-.6.7-1.1 1.6-1.4 2.4-.6 1.9-.9 4.1-.9 6.2 0 1 .1 2.1.6 2.9.6 1 2.3 2.1 3.4 2.5 1.9.6 3.9.7 5.9.9.4 0 5.6-.2 5.6-.2v5.4c-1.8.2-3.6.6-5.5.6-2.3.1-4.6-.1-6.9-.6s-4.2-1.7-5.8-3.4c-1.3-1.3-2.5-3.2-3.2-5-1-2.3-.9-7.7 0-10 .8-1.9 2-4 3.4-5.5 1.5-1.5 3.2-2.4 5-3.2z" fill="#dd0527"/><path d="m590.7 701.6 8.5.1 6.2 16.9 6.1-17h8.1l.1 27.3h-6l-.2-15.9-5.1 16h-5.8l-5.8-15.5-.1 15.6h-6.2z" fill="#dd0427"/><path d="m608.5 789.7c3.7-3.6 8.3-6.4 13.1-8.1-3.6 3.7-8.2 6.4-13.1 8.1z" fill="#a89296"/><path d="m603.8 792.8c.4-2.3 2.6-3.1 4.7-3.1-.6 2-2.7 2.8-4.7 3.1z" fill="#a89397"/><path d="m405.4 840.9c11.5-.4 23-.4 34.5.1-11.4 1.6-23.1.6-34.5-.1z" fill="#bb5565"/><path d="m430.4 911.8c3.2-.1 6.3.1 9.5.6-3.2.2-6.4-.2-9.5-.6z" fill="#b95363"/><path d="m488.3 912.3c3.2-.8 6.3-.5 9.6-.3-3.1.8-6.4.3-9.6.3z" fill="#b75666"/><path d="m446.4 912.9c11.8-.5 23.7-.3 35.5 0-11.8 1.1-23.7 1.2-35.5 0z" fill="#ad6c76"/><path d="m852.1 581.6-34.5-11.9-22 29.2.7-36.5-34.5-11.9 34.9-10.7.6-36.4 20.9 29.8 34.9-10.6-21.9 29.1z" fill="#f6de01"/><g fill="#de0224"><path d="m397.4 479.9 20.9.1v11.9h-21z"/><path d="m397.2 496.8 21 .1.1 44.2h-21z"/><path d="m430.5 481.2h20.9v11.9h-21.1z"/><path d="m430.3 498.1 20.9.1.2 44.1h-21.1z"/><path d="m463.3 482h20.9l-.1 11.9h-21z"/><path d="m463.1 498.9 20.9.1.2 44.2h-21.1z"/><path d="m496.5 483.7h20.9v11.9h-21.1z"/><path d="m496.3 500.5 20.9.1.2 44.2h-21.1z"/><path d="m529.7 484.9h21l-.1 11.9h-21z"/><path d="m528.9 501.3 20.5.1.2 42.7-20.7-.1z"/><path d="m562.4 486.1h20.9v11.9h-21z"/><path d="m562.1 502.4 21.1.1.2 42.1h-21.3z"/><path d="m594.8 487.3 20.9.1v11.9h-21z"/><path d="m594.7 503.6 20.8.1.1 41.4h-20.9z"/><path d="m627.9 488.6 18.9.1v11.1h-19.1z"/><path d="m627.7 504.4 19 .1.1 41.3h-19.1z"/><path d="m661.5 490.7h17.8v10.6h-17.9z"/><path d="m661.4 505.6 17.8.1.1 39.1h-17.9z"/></g><path d="m330.7 707.4c1.5 0 3.4.6 4.6 1.5 1.7 1.4 2.3 3.6 2.3 6.1 0 2.8-.5 5.6-2.3 7.2-1.1 1-3.2 1.6-4.5 1.6-1.4 0-3.6-.8-4.8-1.9-1.7-1.7-2.1-4.3-2.1-6.9 0-2.3.6-4.6 2.1-6 1.2-1.1 3-1.6 4.7-1.6m0-6c-3.4 0-6.8 1.2-9.1 3.5-2.5 2.5-3.7 6.2-3.7 10.1 0 3.8 1.1 7.8 3.5 10.6 2.3 2.8 5.8 4.3 9.4 4.3 3.3 0 6.6-1.3 8.9-3.8 2.6-2.8 3.9-7.1 3.9-11.1 0-3.7-1.1-7.3-3.4-9.7-2.3-2.5-5.9-3.9-9.5-3.9z" fill="#de0325"/><path d="m500.2 707.5c1.5 0 3.4.6 4.6 1.5 1.7 1.4 2.3 3.6 2.3 6.1 0 2.8-.5 5.6-2.3 7.2-1.1 1-3.2 1.6-4.5 1.6-1.4 0-3.6-.8-4.8-1.9-1.7-1.7-2.1-4.3-2.1-6.9 0-2.3.6-4.6 2.1-6 1.2-1.1 3.1-1.6 4.7-1.6m0-6c-3.4 0-6.8 1.2-9.1 3.5-2.5 2.5-3.7 6.2-3.7 10.1 0 3.8 1.1 7.8 3.5 10.6 2.3 2.8 5.8 4.3 9.4 4.3 3.3 0 6.6-1.3 8.9-3.8 2.6-2.8 3.9-7.1 3.9-11.1 0-3.7-1.1-7.3-3.4-9.7-2.3-2.5-5.9-3.9-9.5-3.9z" fill="#de0325"/><path d="m443.3 703.6c-1.6-1.3-4.1-2-7.3-2h-.5-1.3-10.6v27h5.7v-10.6h4.9 1.3.9c3.2 0 5.6-.8 7.2-2.3 1.4-1.4 2.1-3.3 2.1-5.8 0-2.9-.8-4.9-2.4-6.3zm-4.3 9.1c-.7.5-1.9.8-3.8.8h-1-4.9v-7.3h4.9 1c1.8 0 3.1.3 3.8.8s1 1.5 1 2.9-.3 2.3-1 2.8z" fill="#dd0628"/><path d="m447.8 723.4h5.1v5.1h-5.1z" fill="#dc0829"/></svg>