<?xml version="1.0" encoding="UTF-8" standalone="no"?>
<!-- Created with Inkscape (http://www.inkscape.org/) -->

<svg
   xmlns:dc="http://purl.org/dc/elements/1.1/"
   xmlns:cc="http://creativecommons.org/ns#"
   xmlns:rdf="http://www.w3.org/1999/02/22-rdf-syntax-ns#"
   xmlns:svg="http://www.w3.org/2000/svg"
   xmlns="http://www.w3.org/2000/svg"
   xmlns:sodipodi="http://sodipodi.sourceforge.net/DTD/sodipodi-0.dtd"
   xmlns:inkscape="http://www.inkscape.org/namespaces/inkscape"
   id="svg1321"
   sodipodi:version="0.32"
   inkscape:version="0.48.1 "
   width="375"
   height="375"
   sodipodi:docname="Escut_de_Canillo.svg"
   version="1.0">
  <metadata
     id="metadata1326">
    <rdf:RDF>
      <cc:Work
         rdf:about="">
        <dc:format>image/svg+xml</dc:format>
        <dc:type
           rdf:resource="http://purl.org/dc/dcmitype/StillImage" />
      </cc:Work>
    </rdf:RDF>
  </metadata>
  <defs
     id="defs1324" />
  <sodipodi:namedview
     inkscape:window-height="848"
     inkscape:window-width="1600"
     inkscape:pageshadow="2"
     inkscape:pageopacity="0.0"
     borderopacity="1.0"
     bordercolor="#666666"
     pagecolor="#ffffff"
     id="base"
     inkscape:zoom="1.8026666"
     inkscape:cx="187.5"
     inkscape:cy="187.5"
     inkscape:window-x="-8"
     inkscape:window-y="-8"
     inkscape:current-layer="svg1321"
     showgrid="true"
     inkscape:window-maximized="1"
     fit-margin-top="0"
     fit-margin-left="0"
     fit-margin-right="0"
     fit-margin-bottom="0"
     showguides="true"
     inkscape:guide-bbox="true"
     inkscape:snap-bbox="true"
     inkscape:snap-bbox-edge-midpoints="true"
     inkscape:snap-midpoints="true" />
  <path
     sodipodi:type="arc"
     style="fill:#eac102;fill-opacity:1;fill-rule:nonzero;stroke:#000000;stroke-width:1.6202842;stroke-linecap:square;stroke-linejoin:miter;stroke-miterlimit:4;stroke-opacity:1;stroke-dasharray:none"
     id="path3116"
     sodipodi:cx="530.83344"
     sodipodi:cy="179.50623"
     sodipodi:rx="100.45762"
     sodipodi:ry="100.45762"
     d="m 631.29105,179.50623 a 100.45762,100.45762 0 1 1 -200.91523,0 100.45762,100.45762 0 1 1 200.91523,0 z"
     transform="matrix(1.8515271,0,0,1.8515271,-795.35249,-144.86064)" />
  <g
     id="g1422"
     style="fill:#008f4c;fill-opacity:1;stroke:#000000"
     transform="translate(-4.0895397,6.7710622)">
    <path
       sodipodi:nodetypes="czczc"
       d="m 140.99395,274.55137 c -0.0841,4.68739 -2.00671,17.41327 3.29562,26.73574 5.30235,9.32248 6.38104,16.3219 19.61131,22.37337 1.96371,-14.95563 1.29322,-23.67816 -2.61136,-30.79746 -4.04376,-7.3731 -14.14062,-11.61651 -20.29557,-18.31165 z"
       id="path1394"
       style="fill:#008f4c;fill-opacity:1;fill-rule:nonzero;stroke:#000000"
       inkscape:connector-curvature="0" />
    <path
       sodipodi:nodetypes="czczc"
       d="m 110.45521,254.87448 c -0.0841,4.68739 -0.15466,17.05121 5.14768,26.37368 5.30234,9.32248 17.7257,22.89782 22.67917,26.51378 -0.44876,-8.47676 -0.30184,-19.132 -3.80385,-29.62246 -3.55691,-10.6549 -18.14659,-21.85526 -24.023,-23.265 z"
       id="path1396"
       style="fill:#008f4c;fill-opacity:1;fill-rule:nonzero;stroke:#000000"
       inkscape:connector-curvature="0" />
    <path
       sodipodi:nodetypes="czczc"
       d="m 90.860732,243.43167 c -0.433858,3.74686 -3.204699,11.53884 0.312263,19.41839 3.516972,7.87956 5.777188,13.76948 20.228175,23.8265 0.3034,-6.82285 -4.20663,-22.46948 -6.20942,-28.30778 -2.00279,-5.83831 -9.735704,-13.3488 -14.331018,-14.93711 z"
       id="path1398"
       style="fill:#008f4c;fill-opacity:1;fill-rule:nonzero;stroke:#000000"
       inkscape:connector-curvature="0" />
    <path
       sodipodi:nodetypes="czczc"
       d="m 70.897432,222.90748 c -0.514996,3.73657 -0.868513,12.53015 2.476768,20.48411 3.345289,7.95398 3.046714,14.32711 14.688889,24.61157 1.851555,-11.92021 -1.286169,-23.97098 -3.161898,-29.85134 -1.875719,-5.88036 -9.443968,-13.55677 -14.003759,-15.24434 z"
       id="path1400"
       style="fill:#008f4c;fill-opacity:1;fill-rule:nonzero;stroke:#000000"
       inkscape:connector-curvature="0" />
    <path
       sodipodi:nodetypes="czczc"
       d="m 54.928602,207.57767 c -5.048818,6.01738 -7.41815,21.04446 -3.055428,28.75254 4.446942,7.85686 11.072869,13.2363 17.944317,15.22413 C 69.058937,244.767 67.332957,231.53065 64.448838,226.07365 61.5647,220.61666 57.59749,214.77251 54.928602,207.57767 z"
       id="path1402"
       style="fill:#008f4c;fill-opacity:1;fill-rule:nonzero;stroke:#000000"
       inkscape:connector-curvature="0" />
    <path
       sodipodi:nodetypes="czczc"
       d="m 51.787347,250.31614 c 3.76617,3.2583 12.653951,5.57926 20.477895,9.2183 7.823912,3.63905 17.894318,12.89697 25.75372,17.65098 -9.438681,1.84279 -21.704972,-0.50066 -30.581998,-2.76378 -9.181699,-2.34079 -15.421457,-16.88576 -15.649617,-24.1055 z"
       id="path1404"
       style="fill:#008f4c;fill-opacity:1;fill-rule:nonzero;stroke:#000000"
       inkscape:connector-curvature="0" />
    <path
       sodipodi:nodetypes="czczc"
       d="m 76.727783,284.83354 c 6.013478,-1.35677 22.258593,0.26647 30.489327,2.85707 8.23075,2.5906 19.30735,11.73366 22.99073,15.01688 -6.7431,1.08346 -23.92828,1.00859 -29.95766,-0.3118 -6.029391,-1.32038 -20.939278,-9.02129 -23.522397,-17.56215 z"
       id="path1406"
       style="fill:#008f4c;fill-opacity:1;fill-rule:nonzero;stroke:#000000"
       inkscape:connector-curvature="0" />
    <path
       sodipodi:nodetypes="czczc"
       d="m 96.817359,308.04243 c 4.959431,-0.83457 22.195831,-1.57746 31.075861,-0.0905 9.19068,1.539 17.47992,4.56603 22.48635,8.1083 -7.64127,3.75063 -22.54136,9.93539 -30.17205,9.14405 -7.63071,-0.79133 -20.18057,-12.0415 -23.390161,-17.16186 z"
       id="path1408"
       style="fill:#008f4c;fill-opacity:1;fill-rule:nonzero;stroke:#000000"
       inkscape:connector-curvature="0" />
    <path
       sodipodi:nodetypes="czzzzzzzzzzzzzcc"
       d="m 213.3233,340.82949 c -7.45157,-3.94809 -49.35106,-17.65846 -57.01751,-22.39804 -8.01643,-4.95594 -12.62969,-8.7455 -16.79893,-11.61036 -4.04287,-2.77803 -18.97372,-14.57631 -21.21395,-16.3894 -2.22615,-1.8017 -13.59574,-9.70951 -19.670487,-14.73977 -6.415226,-5.31221 -13.664089,-12.77163 -18.844882,-16.83215 -5.180784,-4.06053 -8.308924,-7.74248 -11.739533,-12.04593 -3.273582,-4.10648 -9.340968,-8.65731 -8.354999,-10.26401 1.120849,-1.8265 1.833562,9.22333 5.551921,12.67319 3.626487,3.36462 10.179339,8.04317 13.556336,11.08722 3.190232,2.87571 12.46495,12.67153 18.333579,17.5713 6.004335,5.01309 12.702465,10.05847 18.805665,14.39035 5.60204,3.97618 15.4636,12.90761 21.11387,16.61708 6.04261,3.96706 11.97273,7.82105 19.05922,11.87516 7.16559,4.09936 44.0809,20.73431 52.03847,23.24576 3.45395,1.15421 5.47422,-1.0211 5.18123,-3.1804 z"
       id="path1410"
       style="fill:#008f4c;fill-opacity:1;fill-rule:nonzero;stroke:#000000"
       inkscape:connector-curvature="0" />
  </g>
  <g
     id="g3886"
     transform="translate(-767.48593,3.4854721)">
    <path
       inkscape:connector-curvature="0"
       sodipodi:nodetypes="cczcc"
       id="path11119"
       d="m 885.20682,102.59623 c -0.12565,21.86648 0.29058,38.53795 0.29058,38.53795 0,0 33.24217,-5.42937 39.99646,-8.90115 6.82205,-3.5066 0.95575,-30.08102 0.95575,-30.08102 l -41.24279,0.44422 z"
       style="fill:#d6a25e;fill-opacity:1;fill-rule:evenodd;stroke:none" />
    <path
       inkscape:connector-curvature="0"
       sodipodi:nodetypes="cczzcc"
       id="path10242"
       d="m 917.87238,82.976424 c -19.1047,7.304974 -32.10471,18.740836 -32.10471,18.740836 0,0 10.42198,2.5121 16.88006,3.0463 6.45809,0.5342 14.8078,3.22263 21.56209,-0.24915 6.82205,-3.5066 7.74567,-22.963872 7.74567,-22.963872 l -14.08311,1.425886 z"
       style="fill:#e3e4e5;fill-opacity:1;fill-rule:evenodd;stroke:none" />
    <path
       inkscape:connector-curvature="0"
       sodipodi:nodetypes="ccczz"
       d="m 887.76952,112.14807 c -1.10926,0.52878 -0.86988,5.20555 -0.81463,6.64086 3.06949,0.0597 6.90649,0.35108 12.45648,0.27601 0.44465,-1.34383 1.27154,-6.5837 -0.88876,-6.97266 -2.17681,-0.39193 -9.58983,-0.49873 -10.75309,0.0558 z"
       id="path11125"
       style="fill:#000000;fill-opacity:1;fill-rule:nonzero;stroke:none" />
    <path
       inkscape:connector-curvature="0"
       sodipodi:nodetypes="cccccc"
       id="path10240"
       d="m 918.02683,82.75522 c -19.1047,6.814137 -33.08638,19.88613 -33.08638,19.88613 l 0.65445,38.43586 38,-0.40314 7.86059,-59.181124 -13.42866,1.262274 z"
       style="fill:none;stroke:#000000;stroke-width:1px;stroke-linecap:butt;stroke-linejoin:miter;stroke-opacity:1" />
    <path
       inkscape:connector-curvature="0"
       sodipodi:nodetypes="cccc"
       id="path6737"
       d="m 983.44045,41.110373 c -3.1019,2.434755 -15.89535,-1.283238 -26.525,-2.400531 -0.54142,-7.874499 1.76348,-5.049038 2.26216,-14.797623 2.78925,2.440551 19.51386,13.314462 24.26284,17.198154 z"
       style="fill:#c2c2c2;fill-opacity:1;fill-rule:evenodd;stroke:none" />
    <path
       inkscape:connector-curvature="0"
       sodipodi:nodetypes="cccc"
       id="path6739"
       d="m 957.22169,44.569789 c -9.54011,-1.002771 -17.64168,-3.073644 -20.62679,-5.561937 8.25039,-5.587986 14.12372,-9.583159 21.98497,-15.568655 0.17145,5.058352 -1.36334,9.322492 -1.35818,21.130592 z"
       style="fill:#8f8f8f;fill-opacity:1;fill-rule:evenodd;stroke:none" />
    <path
       inkscape:connector-curvature="0"
       sodipodi:nodetypes="cccc"
       id="path1356"
       d="m 983.49449,40.778765 c -5.88586,4.619949 -40.34982,3.515572 -46.66095,-1.745191 8.25039,-5.587986 14.23941,-9.583159 22.10066,-15.568655 2.78925,2.440551 19.81131,13.430154 24.56029,17.313846 z"
       style="fill:#e3e4e5;fill-opacity:1;fill-rule:evenodd;stroke:#000000;stroke-width:1px;stroke-linecap:butt;stroke-linejoin:miter;stroke-opacity:1" />
    <path
       inkscape:connector-curvature="0"
       sodipodi:nodetypes="cz"
       id="path11117"
       d="m 885.10406,102.15051 c 9.41361,1.90019 32.81718,5.3056 40.92189,2.62464"
       style="fill:none;stroke:#000000;stroke-width:1px;stroke-linecap:butt;stroke-linejoin:miter;stroke-opacity:1" />
    <path
       inkscape:connector-curvature="0"
       sodipodi:nodetypes="ccccc"
       id="path10238"
       d="m 939.55764,78.539976 -21.59886,-0.626379 c 0,0 3.77411,9.771474 7.68979,37.454193 9.3636,0.0662 13.07614,-2.99449 13.07614,-2.99449 l 0.83293,-33.833324 z"
       style="fill:#e3e4e5;fill-opacity:1;fill-rule:evenodd;stroke:#000000;stroke-width:1px;stroke-linecap:butt;stroke-linejoin:miter;stroke-opacity:1" />
    <path
       inkscape:connector-curvature="0"
       sodipodi:nodetypes="ccccc"
       id="path2367"
       d="m 936.86177,113.51696 0.15136,-73.838514 20.55641,-1.101236 -1.33528,93.30255 -19.37249,-18.3628 z"
       style="fill:#d6a25e;fill-opacity:1;fill-rule:evenodd;stroke:none" />
    <path
       inkscape:connector-curvature="0"
       sodipodi:nodetypes="cccccc"
       id="path9362"
       d="m 1026.9752,138.92029 -41.86721,1.15692 -7.51309,-14.4555 3.58639,-9.5445 46.02531,4.1649 -0.2314,18.67818 z"
       style="fill:#d6a25e;fill-opacity:1;fill-rule:evenodd;stroke:#000000;stroke-width:1px;stroke-linecap:butt;stroke-linejoin:miter;stroke-opacity:1" />
    <path
       inkscape:connector-curvature="0"
       sodipodi:nodetypes="ccccc"
       id="path9360"
       d="m 981.5949,78.07721 12.08244,0 40.75266,46.69415 -53.8351,-0.69415 1,-46 z"
       style="fill:#e3e4e5;fill-opacity:1;fill-rule:evenodd;stroke:#000000;stroke-width:1px;stroke-linecap:butt;stroke-linejoin:miter;stroke-opacity:1" />
    <path
       inkscape:connector-curvature="0"
       sodipodi:nodetypes="ccccc"
       id="path3243"
       d="m 957.26918,38.57721 26.19813,2.194076 0.22101,86.979894 -27.75442,4.12858 1.33528,-93.30255 z"
       style="fill:#d6a25e;fill-opacity:1;fill-rule:evenodd;stroke:none" />
    <path
       inkscape:connector-curvature="0"
       sodipodi:nodetypes="ccccccc"
       id="path1354"
       d="m 936.43886,113.27902 0.15136,-73.838514 20.55641,-1.101236 26.52536,2.357688 -0.10622,86.816282 -27.75442,4.12858 -19.37249,-18.3628 z"
       style="fill:none;stroke:#000000;stroke-width:1px;stroke-linecap:butt;stroke-linejoin:miter;stroke-opacity:1" />
    <path
       inkscape:connector-curvature="0"
       sodipodi:nodetypes="cc"
       id="path1481"
       d="m 957.00858,131.09957 c -0.24945,-5.07322 0.23049,-86.314946 0.24332,-92.761999"
       style="fill:none;stroke:#000000;stroke-width:1px;stroke-linecap:butt;stroke-linejoin:miter;stroke-opacity:1" />
    <path
       inkscape:connector-curvature="0"
       sodipodi:nodetypes="ccczz"
       d="m 887.86952,125.46028 c -1.10926,0.52878 -0.86988,5.20555 -0.81463,6.64086 3.06949,0.0597 6.90649,0.35108 12.45648,0.27601 0.44465,-1.34383 1.27154,-6.5837 -0.88876,-6.97266 -2.17681,-0.39193 -9.58983,-0.49873 -10.75309,0.0558 z"
       id="path11127"
       style="fill:#000000;fill-opacity:1;fill-rule:nonzero;stroke:none" />
    <g
       transform="matrix(0.842049,0,0,0.842049,797.20725,-7.309594)"
       id="g5808">
      <path
         inkscape:connector-curvature="0"
         style="fill:#000000;fill-opacity:1;fill-rule:evenodd;stroke:#000000;stroke-width:1px;stroke-linecap:butt;stroke-linejoin:miter;stroke-opacity:1"
         d="m 123.44032,139.01333 c -4.02854,0.33499 -4.65998,2.48843 -5.87326,7.34157 -0.98165,3.92658 -2.78996,3.81825 -3.67079,7.34158 -0.93639,3.74554 1.96205,6.86073 2.93663,8.80989 2.09125,4.1825 0.26933,7.07225 -1.46832,8.80989 -2.42478,2.42479 -4.91678,1.98016 -7.34157,4.40494 -2.99363,2.99363 -4.71398,1.46832 -8.809892,1.46832 -2.56584,0 -3.8788,3.35265 -5.1391,5.87326 -1.58415,3.16829 -4.25754,3.81533 -5.1391,7.34157 -1.12804,4.51215 0.66525,4.33604 2.93663,6.60742 2.33473,2.33473 1.87331,9.99341 0.73415,10.2782 -3.97079,0.9927 -4.34152,2.07563 -5.87325,5.13911 -1.74516,3.49032 -2.8372,4.74135 -3.67079,8.07573 -0.79702,3.18809 -3.53738,6.60742 1.46831,6.60742 3.25167,0 6.43185,-2.48177 8.80989,-3.67079 4.35077,-2.17539 8.057412,0.72499 11.012362,2.20247 1.06035,0.53017 1.67485,8.4888 2.20248,9.54405 1.35421,2.70843 1.93169,4.79014 2.93663,8.80989 1.2146,4.85843 0.48661,4.89579 -2.93663,6.60742 -0.99459,0.49729 -6.22917,5.495 -7.341582,6.60741 -1.99641,1.99641 -6.22274,2.93663 -8.80989,2.93663 -3.60821,0 -5.76167,5.98485 -3.67078,8.07573 1.4003,1.40031 3.11068,2.42953 5.1391,2.93663 0.89562,0.22391 1.08505,8.74516 1.46831,10.27821 0.88041,3.52162 0.70323,7.46528 0,10.2782 -0.96393,3.85574 2.64464,4.84712 4.40495,6.60742 2.371322,2.37132 6.732492,4.80329 11.012362,5.87326 4.85507,1.21377 9.51638,0.35325 13.21483,2.20247 3.07496,1.53748 7.67326,3.10247 10.27821,4.40495 4.13494,2.06747 7.623,2.49919 11.74652,1.46831 3.77069,-0.94267 6.39103,-1.41422 9.54404,-2.20247 3.18777,-0.79694 4.70072,-3.52818 5.87326,-5.87326 1.25374,-2.50747 2.97403,-5.28867 3.67079,-8.07573 1.00332,-4.0133 3.47403,-3.98868 8.07573,-5.1391 3.65325,-0.91332 4.97159,-2.85288 8.07573,-4.40495 3.15353,-1.57676 3.74192,-3.67079 8.80989,-3.67079 4.56108,0 9.0919,0.73416 13.949,0.73416 3.0968,0 5.62324,-1.46831 9.54404,-1.46831 3.3181,0 5.15473,-2.95226 6.60742,-4.40495 1.97074,-1.97074 2.20247,-5.75091 2.20247,-8.80989 0,-3.54901 4.34332,-4.38953 7.34158,-5.1391 2.88224,-0.72056 7.10504,-0.73416 11.01236,-0.73416 4.79101,0 6.09489,-1.57913 8.80989,-2.93663 3.7992,-1.8996 3.67079,-3.28716 3.67079,-8.07573 0,-3.15284 2.8589,-7.18612 3.67078,-8.80989 1.25028,-2.50055 1.68265,-6.73058 2.20248,-8.80989 0.82723,-3.30894 2.93663,-5.63235 2.93663,-10.2782 0,-4.27944 1.5334,-7.47176 2.93663,-10.27821 1.49302,-2.98605 3.70005,-3.6781 6.60741,-4.40494 3.93385,-0.98346 6.25154,-0.9233 8.80989,-2.20248 3.89479,-1.94739 5.16871,-2.99584 6.60742,-5.87326 1.83148,-3.66296 3.38316,-3.95841 0,-7.34157 -1.42918,-1.42918 -7.66733,-0.73416 -10.2782,-0.73416 -4.27221,0 -6.25719,-0.73415 -10.27821,-0.73415 -2.69606,0 -5.47806,-3.02137 -8.07573,-3.67079 -3.2791,-0.81978 -0.30567,-7.03591 0.73416,-8.07573 2.53906,-2.53907 4.26242,-3.10071 5.1391,-6.60742 0.11774,-0.47096 -6.38978,-4.6632 -7.34158,-5.1391 -3.56978,-1.7849 -6.65928,-1.86133 -10.2782,-3.67079 -2.97782,-1.48891 -7.66591,-1.36586 -11.01236,-2.20247 -4.53621,-1.13405 -6.82178,0 -11.01236,0 -4.35621,0 -5.49428,0.27828 -9.54405,-0.73416 -2.91467,-0.72867 -1.2092,-4.40495 -7.34158,-4.40495 -3.67078,0 -7.34157,0 -11.01236,0 -4.97225,0 -8.31753,1.04079 -12.48068,0 -2.49853,-0.62463 -4.09908,-4.52737 -5.1391,-6.60741 -1.66407,-3.32814 -3.14971,-5.56528 -4.40494,-8.07574 -1.47188,-2.94375 -4.2789,-3.97484 -6.60742,-5.1391 -3.49588,-1.74794 -11.83297,0.62191 -13.94899,1.46832 -3.77383,1.50953 -8.43936,3.81624 -11.74652,5.1391 -4.15078,1.66031 -7.46356,0.61217 -9.54405,-1.46832 -3.10449,-3.10448 -1.67844,-2.98916 -7.34157,-4.40494 z"
         id="path3185"
         sodipodi:nodetypes="cssssssssssssssssssssssssssssssssssssssssssssssssssssssssssssssssssssssc" />
      <path
         inkscape:connector-curvature="0"
         style="fill:#e3e4e5;fill-opacity:1;fill-rule:evenodd;stroke:#000000;stroke-width:1px;stroke-linecap:butt;stroke-linejoin:miter;stroke-opacity:1"
         d="m 128.47756,137.13298 c -4.02854,0.33499 -4.65998,2.48843 -5.87326,7.34157 -0.98165,3.92658 -2.78996,3.81825 -3.67079,7.34158 -0.93639,3.74554 1.96205,6.86073 2.93663,8.80989 2.09125,4.1825 0.26933,7.07225 -1.46832,8.80989 -2.42478,2.42479 -4.91678,1.98016 -7.34157,4.40494 -2.99363,2.99363 -4.71398,1.46832 -8.80989,1.46832 -2.56584,0 -3.8788,3.35265 -5.139102,5.87326 -1.584146,3.16829 -4.257542,3.81533 -5.139102,7.34157 -1.128036,4.51215 0.665255,4.33604 2.93663,6.60742 2.334734,2.33473 1.873317,9.99341 0.734157,10.2782 -3.970791,0.9927 -4.34152,2.07563 -5.873259,5.13911 -1.74516,3.49032 -2.837192,4.74135 -3.670788,8.07573 -0.797021,3.18809 -3.537382,6.60742 1.468315,6.60742 3.251668,0 6.431843,-2.48177 8.80989,-3.67079 4.350769,-2.17539 8.057409,0.72499 11.012359,2.20247 1.06035,0.53017 1.67485,8.4888 2.20248,9.54405 1.35421,2.70843 1.93169,4.79014 2.93663,8.80989 1.2146,4.85843 0.48661,4.89579 -2.93663,6.60742 -0.99459,0.49729 -6.22917,5.495 -7.34158,6.60741 -1.99641,1.99641 -6.222741,2.93663 -8.809889,2.93663 -3.608211,0 -5.761669,5.98485 -3.670787,8.07573 1.400304,1.40031 3.110687,2.42953 5.139102,2.93663 0.895623,0.22391 1.085053,8.74516 1.468315,10.27821 0.880404,3.52162 0.703232,7.46528 0,10.2782 -0.963934,3.85574 2.644639,4.84712 4.404949,6.60742 2.37132,2.37132 6.73249,4.80329 11.01236,5.87326 4.85507,1.21377 9.51638,0.35325 13.21483,2.20247 3.07496,1.53748 7.67326,3.10247 10.27821,4.40495 4.13494,2.06747 7.623,2.49919 11.74652,1.46831 3.77069,-0.94267 6.39103,-1.41422 9.54404,-2.20247 3.18777,-0.79694 4.70072,-3.52818 5.87326,-5.87326 1.25374,-2.50747 2.97403,-5.28867 3.67079,-8.07573 1.00332,-4.0133 3.47403,-3.98868 8.07573,-5.1391 3.65325,-0.91332 4.97159,-2.85288 8.07573,-4.40495 3.15353,-1.57676 3.74192,-3.67079 8.80989,-3.67079 4.56108,0 9.0919,0.73416 13.949,0.73416 3.0968,0 5.62324,-1.46831 9.54404,-1.46831 3.3181,0 5.15473,-2.95226 6.60742,-4.40495 1.97074,-1.97074 2.20247,-5.75091 2.20247,-8.80989 0,-3.54901 4.34332,-4.38953 7.34158,-5.1391 2.88224,-0.72056 7.10504,-0.73416 11.01236,-0.73416 4.79101,0 6.09489,-1.57913 8.80989,-2.93663 3.7992,-1.8996 3.67079,-3.28716 3.67079,-8.07573 0,-3.15284 2.8589,-7.18612 3.67078,-8.80989 1.25028,-2.50055 1.68265,-6.73058 2.20248,-8.80989 0.82723,-3.30894 2.93663,-5.63235 2.93663,-10.2782 0,-4.27944 1.5334,-7.47176 2.93663,-10.27821 1.49302,-2.98605 3.70005,-3.6781 6.60741,-4.40494 3.93385,-0.98346 6.25154,-0.9233 8.80989,-2.20248 3.89479,-1.94739 5.16871,-2.99584 6.60742,-5.87326 1.83148,-3.66296 3.38316,-3.95841 0,-7.34157 -1.42918,-1.42918 -7.66733,-0.73416 -10.2782,-0.73416 -4.27221,0 -6.25719,-0.73415 -10.27821,-0.73415 -2.69606,0 -5.47806,-3.02137 -8.07573,-3.67079 -3.2791,-0.81978 -0.30567,-7.03591 0.73416,-8.07573 2.53906,-2.53907 4.26242,-3.10071 5.1391,-6.60742 0.11774,-0.47096 -6.38978,-4.6632 -7.34158,-5.1391 -3.56978,-1.7849 -6.65928,-1.86133 -10.2782,-3.67079 -2.97782,-1.48891 -7.66591,-1.36586 -11.01236,-2.20247 -4.53621,-1.13405 -6.82178,0 -11.01236,0 -4.35621,0 -5.49428,0.27828 -9.54405,-0.73416 -2.91467,-0.72867 -1.2092,-4.40495 -7.34158,-4.40495 -3.67078,0 -7.34157,0 -11.01236,0 -4.97225,0 -8.31753,1.04079 -12.48068,0 -2.49853,-0.62463 -4.09908,-4.52737 -5.1391,-6.60741 -1.66407,-3.32814 -3.14971,-5.56528 -4.40494,-8.07574 -1.47188,-2.94375 -4.2789,-3.97484 -6.60742,-5.1391 -3.49588,-1.74794 -11.83297,0.62191 -13.94899,1.46832 -3.77383,1.50953 -8.43936,3.81624 -11.74652,5.1391 -4.15078,1.66031 -7.46356,0.61217 -9.54405,-1.46832 -3.10449,-3.10448 -1.67844,-2.98916 -7.34157,-4.40494 z"
         id="path1425"
         sodipodi:nodetypes="cssssssssssssssssssssssssssssssssssssssssssssssssssssssssssssssssssssssc" />
      <path
         inkscape:connector-curvature="0"
         style="fill:#000000;fill-opacity:1;fill-rule:evenodd;stroke:#000000;stroke-width:1px;stroke-linecap:butt;stroke-linejoin:miter;stroke-opacity:1"
         d="m 191.15059,158.49337 c -2.49351,3.29751 2.05623,7.36475 -2.20247,9.4941 -4.13935,2.06967 -6.54974,6.54974 -8.62635,8.62635 -2.29462,2.29462 -3.97031,5.60301 -4.95556,9.54405 -0.89104,3.56415 -2.98969,5.24521 -4.40495,8.07573 -1.49063,2.98127 0.66037,8.6623 1.46832,10.2782 1.56695,3.13392 0.56962,6.13283 1.46831,9.72759 1.04794,4.19177 -8.60071,5.1914 -0.73416,7.15803 3.20141,0.80036 7.6929,0 11.01236,0 3.67079,0 7.34158,0 11.01237,0 4.27607,0 7.07829,-0.23543 9.54404,-1.46831 2.32301,-1.1615 2.20248,-5.87583 2.20248,-8.80989 0,-4.39152 4.65161,-3.67079 8.07573,-3.67079 2.37732,0 7.17805,3.44637 11.01236,4.40495 4.12361,1.0309 7.95758,1.46831 12.48068,1.46831 5.49564,0 11.2232,1.80415 16.88562,2.93663 4.34431,0.86886 7.02139,0.52717 9.54405,-0.73416 2.60423,-1.30211 4.4748,-4.31397 6.91152,-4.57544 2.61687,-0.2808 5.2007,-1.34662 7.76398,-1.98744 4.01959,-1.0049 6.76573,-5.44015 9.11399,-9.0771 1.78215,-2.76016 -0.33021,-5.65823 -2.75849,-5.65823 -3.99792,0 -7.196,0.9875 -10.96783,0.0445 -3.84649,-0.96163 -6.99166,1.5663 -9.32902,-0.77106 -1.58051,-1.58051 -5.33776,-2.66888 -7.34157,-3.67079 -2.06778,-1.03389 2.76224,-10.06233 2.76613,-10.06317 1.45451,-0.31339 3.49856,-1.63952 3.10713,-6.82245 -0.0756,-1.00092 -8.47104,-3.07023 -9.49952,-3.07023 -3.3854,0 -5.33999,-1.73926 -7.5566,-2.84756 -2.90336,-1.45168 -6.51063,-1.46064 -9.37355,-2.8921 -4.17575,-2.08787 -7.18133,-0.2236 -11.01236,0.73416 -4.61375,1.15344 -6.50925,0.83233 -8.80989,-1.46832 -2.13106,-2.13106 -4.28461,-3.24353 -6.60742,-4.40494 -3.43126,-1.71563 -9.05348,-0.0708 -11.05689,0.43005 -3.94984,0.98746 -6.70727,-4.13787 -9.13244,-0.93072 z"
         id="path4060"
         sodipodi:nodetypes="cssssssssssssssssssssssssssssssssz" />
      <path
         inkscape:connector-curvature="0"
         style="fill:#ce5c17;fill-opacity:1;fill-rule:evenodd;stroke:#000000;stroke-width:1px;stroke-linecap:butt;stroke-linejoin:miter;stroke-opacity:1"
         d="m 193.26696,157.5558 c -0.95686,2.1059 3.341,8.28245 -0.9177,10.4118 -4.13935,2.06967 -5.99912,4.5308 -8.07573,6.60741 -2.29462,2.29462 -4.15385,4.1347 -5.1391,8.07574 -0.89104,3.56415 -2.98969,5.24521 -4.40495,8.07573 -1.49063,2.98127 0.66037,8.6623 1.46832,10.2782 1.56695,3.13392 1.30378,6.68345 2.20247,10.27821 1.04794,4.19177 -7.77749,5.67904 0.0891,7.64567 3.20141,0.80036 6.13552,-1.03826 9.45498,-1.03826 3.67079,0 7.34158,0 11.01237,0 4.27607,0 7.07829,-0.23543 9.54404,-1.46831 2.32301,-1.1615 2.20248,-5.87583 2.20248,-8.80989 0,-4.39152 4.65161,-3.67079 8.07573,-3.67079 2.37732,0 7.17805,3.44637 11.01236,4.40495 4.12361,1.0309 7.95758,1.46831 12.48068,1.46831 5.49564,0 11.2232,1.80415 16.88562,2.93663 4.34431,0.86886 7.02139,0.52717 9.54405,-0.73416 2.60423,-1.30211 4.4748,-4.31397 6.91152,-4.57544 2.61687,-0.2808 5.2007,-1.34662 7.76398,-1.98744 4.01959,-1.0049 6.76573,-5.44015 9.11399,-9.0771 1.78215,-2.76016 -0.33021,-5.65823 -2.75849,-5.65823 -3.99792,0 -10.18737,-0.33218 -12.52473,-2.66954 -1.58051,-1.58051 -0.93116,-6.18308 -2.04223,-9.31175 -0.86364,-2.43195 1.93987,-4.32241 -0.77893,-8.75232 -0.8528,-1.38953 -14.89031,-3.61954 -15.91879,-3.61954 -3.3854,0 -5.33999,-1.73926 -7.5566,-2.84756 -2.90336,-1.45168 -6.51063,-1.46064 -9.37355,-2.8921 -4.17575,-2.08787 -7.18133,-0.2236 -11.01236,0.73416 -4.61375,1.15344 -6.50925,0.83233 -8.80989,-1.46832 -2.13106,-2.13106 -4.28461,-3.24353 -6.60742,-4.40494 -3.43126,-1.71563 -9.05348,-0.0708 -11.05689,0.43005 -3.94984,0.98746 -9.82743,-0.46708 -10.78429,1.63883 z"
         id="path1429"
         sodipodi:nodetypes="cssssssssssssssssssssssssssssssz" />
    </g>
    <path
       inkscape:connector-curvature="0"
       sodipodi:nodetypes="cc"
       id="path1358"
       d="M 957.14663,37.972191 958.8344,23.281457"
       style="fill:none;stroke:#000000;stroke-width:1px;stroke-linecap:butt;stroke-linejoin:miter;stroke-opacity:1" />
    <path
       inkscape:connector-curvature="0"
       sodipodi:nodetypes="ccczz"
       d="m 976.64216,53.207522 c 1.46378,1.294663 0.49902,4.173924 0.41567,6.931231 -5.19296,-0.361508 -4.71674,-0.33675 -13.74988,-0.992312 -0.0398,-1.414922 -0.54512,-6.322702 1.34469,-7.235539 1.95838,-0.945963 10.44182,-0.07227 11.98952,1.29662 z"
       id="path1475"
       style="fill:#000000;fill-opacity:1;fill-rule:nonzero;stroke:none" />
    <path
       inkscape:connector-curvature="0"
       sodipodi:nodetypes="ccczz"
       d="m 941.3149,51.667606 c -1.07631,0.592984 -0.56282,5.247623 -0.42342,6.677222 3.0677,-0.120558 6.91519,-0.05492 12.4512,-0.455642 0.36501,-1.36761 0.8829,-6.646989 -1.29651,-6.908472 -2.19606,-0.263481 -9.60257,0.06504 -10.73127,0.686892 z"
       id="path1483"
       style="fill:#000000;fill-opacity:1;fill-rule:nonzero;stroke:none" />
    <path
       inkscape:connector-curvature="0"
       sodipodi:nodetypes="ccczz"
       d="m 941.46311,72.855656 c -1.07631,0.592987 -0.56282,5.247627 -0.42342,6.677227 3.0677,-0.12056 6.91519,-0.05493 12.4512,-0.45565 0.36501,-1.36761 0.8829,-6.646986 -1.29651,-6.908469 -2.19606,-0.263481 -9.60257,0.06504 -10.73127,0.686892 z"
       id="path1485"
       style="fill:#000000;fill-opacity:1;fill-rule:nonzero;stroke:none" />
    <path
       inkscape:connector-curvature="0"
       sodipodi:nodetypes="ccczz"
       d="m 941.46311,92.399992 c -1.07631,0.592984 -0.56282,5.247628 -0.42342,6.677218 3.0677,-0.12055 6.91519,-0.0549 12.4512,-0.45564 0.36501,-1.36761 0.8829,-6.646987 -1.29651,-6.90847 -2.19606,-0.263481 -9.60257,0.06504 -10.73127,0.686892 z"
       id="path1487"
       style="fill:#000000;fill-opacity:1;fill-rule:nonzero;stroke:none" />
    <path
       inkscape:connector-curvature="0"
       sodipodi:nodetypes="ccczz"
       d="m 976.79045,73.145979 c 1.46378,1.294663 0.49902,4.173924 0.41567,6.931231 -5.19296,-0.361508 -4.71674,-0.33675 -13.74988,-0.992312 -0.0398,-1.414922 -0.54512,-6.322702 1.34469,-7.235539 1.95838,-0.945963 10.44182,-0.07227 11.98952,1.29662 z"
       id="path1489"
       style="fill:#000000;fill-opacity:1;fill-rule:nonzero;stroke:none" />
    <path
       inkscape:connector-curvature="0"
       sodipodi:nodetypes="ccczz"
       d="m 976.79045,92.770022 c 1.46378,1.294663 0.49902,4.173928 0.41567,6.931228 -5.19296,-0.3615 -4.71674,-0.33675 -13.74988,-0.99231 -0.0398,-1.41492 -0.54512,-6.322701 1.34469,-7.235538 1.95838,-0.945963 10.44182,-0.07227 11.98952,1.29662 z"
       id="path1491"
       style="fill:#000000;fill-opacity:1;fill-rule:nonzero;stroke:none" />
    <path
       inkscape:connector-curvature="0"
       sodipodi:nodetypes="cccc"
       id="path11123"
       d="m 917.34949,78.322629 c -1.16329,1.806447 -1.96058,2.987729 -4.08182,6.10013 4.41851,-1.48669 6.04155,-1.567112 5.98626,-1.503926 0,0 -1.232,-6.648069 -1.90444,-4.596204 z"
       style="fill:#e3e4e5;fill-opacity:1;fill-rule:evenodd;stroke:#000000;stroke-width:1px;stroke-linecap:butt;stroke-linejoin:miter;stroke-opacity:1" />
  </g>
  <g
     transform="matrix(-1,0,0,1,379.08936,6.7710622)"
     style="fill:#008f4c;fill-opacity:1;stroke:#000000"
     id="g3961">
    <path
       inkscape:connector-curvature="0"
       style="fill:#008f4c;fill-opacity:1;fill-rule:nonzero;stroke:#000000"
       id="path3963"
       d="m 140.99395,274.55137 c -0.0841,4.68739 -2.00671,17.41327 3.29562,26.73574 5.30235,9.32248 6.38104,16.3219 19.61131,22.37337 1.96371,-14.95563 1.29322,-23.67816 -2.61136,-30.79746 -4.04376,-7.3731 -14.14062,-11.61651 -20.29557,-18.31165 z"
       sodipodi:nodetypes="czczc" />
    <path
       inkscape:connector-curvature="0"
       style="fill:#008f4c;fill-opacity:1;fill-rule:nonzero;stroke:#000000"
       id="path3965"
       d="m 110.45521,254.87448 c -0.0841,4.68739 -0.15466,17.05121 5.14768,26.37368 5.30234,9.32248 17.7257,22.89782 22.67917,26.51378 -0.44876,-8.47676 -0.30184,-19.132 -3.80385,-29.62246 -3.55691,-10.6549 -18.14659,-21.85526 -24.023,-23.265 z"
       sodipodi:nodetypes="czczc" />
    <path
       inkscape:connector-curvature="0"
       style="fill:#008f4c;fill-opacity:1;fill-rule:nonzero;stroke:#000000"
       id="path3967"
       d="m 90.860732,243.43167 c -0.433858,3.74686 -3.204699,11.53884 0.312263,19.41839 3.516972,7.87956 5.777188,13.76948 20.228175,23.8265 0.3034,-6.82285 -4.20663,-22.46948 -6.20942,-28.30778 -2.00279,-5.83831 -9.735704,-13.3488 -14.331018,-14.93711 z"
       sodipodi:nodetypes="czczc" />
    <path
       inkscape:connector-curvature="0"
       style="fill:#008f4c;fill-opacity:1;fill-rule:nonzero;stroke:#000000"
       id="path3969"
       d="m 70.897432,222.90748 c -0.514996,3.73657 -0.868513,12.53015 2.476768,20.48411 3.345289,7.95398 3.046714,14.32711 14.688889,24.61157 1.851555,-11.92021 -1.286169,-23.97098 -3.161898,-29.85134 -1.875719,-5.88036 -9.443968,-13.55677 -14.003759,-15.24434 z"
       sodipodi:nodetypes="czczc" />
    <path
       inkscape:connector-curvature="0"
       style="fill:#008f4c;fill-opacity:1;fill-rule:nonzero;stroke:#000000"
       id="path3971"
       d="m 54.928602,207.57767 c -5.048818,6.01738 -7.41815,21.04446 -3.055428,28.75254 4.446942,7.85686 11.072869,13.2363 17.944317,15.22413 C 69.058937,244.767 67.332957,231.53065 64.448838,226.07365 61.5647,220.61666 57.59749,214.77251 54.928602,207.57767 z"
       sodipodi:nodetypes="czczc" />
    <path
       inkscape:connector-curvature="0"
       style="fill:#008f4c;fill-opacity:1;fill-rule:nonzero;stroke:#000000"
       id="path3973"
       d="m 51.787347,250.31614 c 3.76617,3.2583 12.653951,5.57926 20.477895,9.2183 7.823912,3.63905 17.894318,12.89697 25.75372,17.65098 -9.438681,1.84279 -21.704972,-0.50066 -30.581998,-2.76378 -9.181699,-2.34079 -15.421457,-16.88576 -15.649617,-24.1055 z"
       sodipodi:nodetypes="czczc" />
    <path
       inkscape:connector-curvature="0"
       style="fill:#008f4c;fill-opacity:1;fill-rule:nonzero;stroke:#000000"
       id="path3975"
       d="m 76.727783,284.83354 c 6.013478,-1.35677 22.258593,0.26647 30.489327,2.85707 8.23075,2.5906 19.30735,11.73366 22.99073,15.01688 -6.7431,1.08346 -23.92828,1.00859 -29.95766,-0.3118 -6.029391,-1.32038 -20.939278,-9.02129 -23.522397,-17.56215 z"
       sodipodi:nodetypes="czczc" />
    <path
       inkscape:connector-curvature="0"
       style="fill:#008f4c;fill-opacity:1;fill-rule:nonzero;stroke:#000000"
       id="path3977"
       d="m 96.817359,308.04243 c 4.959431,-0.83457 22.195831,-1.57746 31.075861,-0.0905 9.19068,1.539 17.47992,4.56603 22.48635,8.1083 -7.64127,3.75063 -22.54136,9.93539 -30.17205,9.14405 -7.63071,-0.79133 -20.18057,-12.0415 -23.390161,-17.16186 z"
       sodipodi:nodetypes="czczc" />
    <path
       inkscape:connector-curvature="0"
       style="fill:#008f4c;fill-opacity:1;fill-rule:nonzero;stroke:#000000"
       id="path3979"
       d="m 213.3233,340.82949 c -7.45157,-3.94809 -49.35106,-17.65846 -57.01751,-22.39804 -8.01643,-4.95594 -12.62969,-8.7455 -16.79893,-11.61036 -4.04287,-2.77803 -18.97372,-14.57631 -21.21395,-16.3894 -2.22615,-1.8017 -13.59574,-9.70951 -19.670487,-14.73977 -6.415226,-5.31221 -13.664089,-12.77163 -18.844882,-16.83215 -5.180784,-4.06053 -8.308924,-7.74248 -11.739533,-12.04593 -3.273582,-4.10648 -9.340968,-8.65731 -8.354999,-10.26401 1.120849,-1.8265 1.833562,9.22333 5.551921,12.67319 3.626487,3.36462 10.179339,8.04317 13.556336,11.08722 3.190232,2.87571 12.46495,12.67153 18.333579,17.5713 6.004335,5.01309 12.702465,10.05847 18.805665,14.39035 5.60204,3.97618 15.4636,12.90761 21.11387,16.61708 6.04261,3.96706 11.97273,7.82105 19.05922,11.87516 7.16559,4.09936 44.0809,20.73431 52.03847,23.24576 3.45395,1.15421 5.47422,-1.0211 5.18123,-3.1804 z"
       sodipodi:nodetypes="czzzzzzzzzzzzzcc" />
  </g>
</svg>
