<?xml version="1.0" encoding="utf-8"?>
<!-- Generator: Adobe Illustrator 16.0.0, SVG Export Plug-In . SVG Version: 6.00 Build 0)  -->
<!DOCTYPE svg PUBLIC "-//W3C//DTD SVG 1.1//EN" "http://www.w3.org/Graphics/SVG/1.1/DTD/svg11.dtd">
<svg version="1.1" id="Layer_1" xmlns="http://www.w3.org/2000/svg" xmlns:xlink="http://www.w3.org/1999/xlink" x="0px" y="0px"
	 width="184.401px" height="250.5px" viewBox="0 0 184.401 250.5" enable-background="new 0 0 184.401 250.5" xml:space="preserve">
<g>
	<path fill-rule="evenodd" clip-rule="evenodd" fill="#EB7A2E" d="M0.25,0.25c30.65,0,61.3,0,91.951,0c30.65,0,61.3,0,91.951,0
		c0,56.894,0,118.511,0,175.405c0,48.178-61.301,48.154-91.951,74.595C61.55,223.81,0.25,223.833,0.25,175.656
		C0.25,118.761,0.25,57.144,0.25,0.25z"/>
	<g>
		<path fill-rule="evenodd" clip-rule="evenodd" fill="#007A6D" d="M92.201,10.763c18.948,0,35.949,4.185,47.553,10.813
			l-8.592,28.728c-10.672-4.367-24.22-6.98-38.961-6.98c-14.743,0-28.289,2.613-38.961,6.98l-8.592-28.728
			C56.251,14.948,73.252,10.763,92.201,10.763z"/>
		<path fill-rule="evenodd" clip-rule="evenodd" fill="#FEDC18" d="M92.201,10.763c18.948,0,35.949,4.185,47.553,10.813
			l-1.787,5.973l-1.347-1.573l-2.554-0.093c0.587-0.342,1.118-0.761,1.428-1.327c0.47-0.861,0.643-1.982-0.568-2.497
			s-1.898,0.389-2.191,1.324c-0.188,0.604-0.129,1.261,0.025,1.906l-1.524-1.854l-2.056-0.062c0.42-0.371,0.774-0.795,0.962-1.298
			c0.344-0.918,0.355-2.053-0.916-2.391c-1.272-0.338-1.824,0.654-1.982,1.621c-0.078,0.479-0.006,0.969,0.143,1.45l-1.599-1.188
			l-1.974-0.101c0.395-0.401,0.72-0.85,0.872-1.367c0.276-0.939,0.208-2.073-1.084-2.319c-1.292-0.247-1.772,0.781-1.861,1.758
			c-0.041,0.459,0.053,0.918,0.218,1.365l-1.632-1.004l-2.085,0.112c0.365-0.372,0.664-0.788,0.814-1.266
			c0.294-0.936,0.247-2.069-1.042-2.34c-1.287-0.271-1.787,0.749-1.894,1.724c-0.051,0.465,0.038,0.932,0.2,1.389l-1.656-1.013
			l-1.991,0.423c0.347-0.391,0.626-0.821,0.754-1.306c0.25-0.947,0.148-2.078-1.15-2.288c-1.299-0.209-1.75,0.833-1.81,1.812
			c-0.029,0.479,0.088,0.953,0.279,1.413l-1.728-0.94l-2.075,0.54c0.391-0.412,0.711-0.871,0.854-1.396
			c0.257-0.946,0.165-2.077-1.134-2.296c-1.297-0.22-1.756,0.819-1.823,1.797c-0.04,0.581,0.136,1.157,0.398,1.708l-1.931-0.944
			l-1.884,0.543c0.354-0.434,0.634-0.908,0.738-1.435c0.189-0.961,0.019-2.084-1.291-2.211c-1.31-0.128-1.694,0.94-1.692,1.921
			c0,0.574,0.211,1.129,0.505,1.653l-1.892-0.958l-1.882,0.819c0.313-0.469,0.55-0.972,0.603-1.509
			c0.097-0.976-0.183-2.075-1.499-2.075c-1.315,0-1.595,1.1-1.499,2.075c0.052,0.522,0.276,1.012,0.577,1.469l-1.892-0.905
			l-1.892,0.905c0.301-0.457,0.525-0.946,0.577-1.469c0.096-0.976-0.184-2.075-1.5-2.075c-1.315,0-1.595,1.1-1.499,2.075
			c0.053,0.537,0.289,1.04,0.603,1.509l-1.881-0.819L84.717,17.5c0.294-0.524,0.505-1.079,0.506-1.653
			c0.001-0.98-0.384-2.049-1.693-1.921c-1.31,0.127-1.481,1.249-1.292,2.211c0.104,0.526,0.384,1.001,0.738,1.435l-1.884-0.543
			l-1.931,0.944c0.263-0.551,0.439-1.127,0.399-1.708c-0.068-0.978-0.527-2.017-1.824-1.797c-1.297,0.219-1.39,1.35-1.133,2.296
			c0.143,0.525,0.463,0.984,0.854,1.396l-2.074-0.54l-1.729,0.94c0.192-0.459,0.309-0.935,0.28-1.413
			c-0.061-0.979-0.511-2.021-1.81-1.812c-1.299,0.21-1.4,1.341-1.15,2.288c0.128,0.485,0.407,0.915,0.754,1.306l-1.991-0.423
			l-1.657,1.013c0.162-0.457,0.25-0.924,0.2-1.389c-0.106-0.975-0.606-1.994-1.894-1.724c-1.288,0.271-1.335,1.404-1.041,2.34
			c0.15,0.478,0.449,0.894,0.813,1.266l-2.083-0.112l-1.632,1.004c0.165-0.447,0.259-0.906,0.217-1.365
			c-0.088-0.977-0.569-2.005-1.862-1.758c-1.292,0.246-1.36,1.38-1.083,2.319c0.152,0.518,0.477,0.966,0.872,1.367l-1.974,0.101
			l-1.599,1.188c0.148-0.481,0.22-0.971,0.142-1.45c-0.157-0.967-0.71-1.959-1.981-1.621s-1.259,1.473-0.916,2.391
			c0.188,0.503,0.542,0.927,0.962,1.298l-2.056,0.062l-1.524,1.854c0.154-0.646,0.214-1.303,0.025-1.906
			c-0.293-0.936-0.98-1.839-2.191-1.324c-1.211,0.515-1.038,1.636-0.568,2.497c0.31,0.566,0.841,0.985,1.428,1.327l-2.555,0.093
			l-1.347,1.573l-1.787-5.973C56.251,14.948,73.252,10.763,92.201,10.763L92.201,10.763z M132.534,45.715l-1.372,4.588
			c-10.672-4.367-24.22-6.98-38.961-6.98c-14.743,0-28.289,2.613-38.961,6.98l-1.373-4.588l2.267,0.244l0.953-1.065
			c0.197,0.901,0.758,1.746,1.946,1.431c1.271-0.338,1.259-1.473,0.916-2.392c-0.023-0.061-0.048-0.119-0.075-0.178l1.676,0.123
			l1.035-0.979c0.098,0.965,0.583,1.964,1.858,1.721c1.293-0.247,1.361-1.381,1.084-2.32c-0.023-0.077-0.05-0.152-0.08-0.226
			l1.182,0.244l1.044-0.847c0.002,0.047,0.006,0.095,0.011,0.143c0.106,0.974,0.606,1.993,1.894,1.723
			c1.288-0.271,1.336-1.404,1.041-2.34c-0.017-0.052-0.035-0.104-0.056-0.155l1.176,0.253l0.895-0.74
			c-0.006,0.104-0.007,0.209,0,0.313c0.06,0.979,0.511,2.021,1.81,1.812c1.299-0.209,1.4-1.34,1.15-2.288
			c-0.024-0.093-0.055-0.184-0.09-0.273l1.285,0.441l1.051-0.696c-0.001,0.072,0,0.146,0.005,0.219
			c0.067,0.978,0.526,2.017,1.823,1.797c1.276-0.215,1.387-1.313,1.146-2.25l1.331,0.503l1.394-0.983
			c-0.009,0.086-0.014,0.172-0.015,0.258c-0.001,0.981,0.383,2.049,1.693,1.922c1.31-0.128,1.482-1.249,1.292-2.212l-0.016-0.071
			l1.282,0.628l1.563-1.021c-0.049,0.161-0.083,0.325-0.1,0.492c-0.096,0.977,0.183,2.076,1.499,2.076s1.595-1.1,1.5-2.076
			c-0.024-0.249-0.089-0.49-0.182-0.725l2.146,1.008l2.146-1.008c-0.093,0.234-0.157,0.476-0.182,0.725
			c-0.096,0.977,0.184,2.076,1.499,2.076c1.316,0,1.596-1.1,1.499-2.076c-0.017-0.167-0.051-0.331-0.1-0.492l1.563,1.021
			l1.282-0.628l-0.016,0.071c-0.19,0.963-0.019,2.084,1.291,2.212c1.31,0.127,1.694-0.94,1.693-1.922
			c-0.001-0.086-0.006-0.172-0.015-0.258l1.394,0.983l1.33-0.503c-0.241,0.937-0.131,2.035,1.146,2.25
			c1.299,0.22,1.757-0.819,1.824-1.797c0.006-0.072,0.007-0.146,0.006-0.219l1.051,0.696l1.284-0.441
			c-0.035,0.09-0.065,0.181-0.09,0.273c-0.25,0.948-0.148,2.079,1.15,2.288s1.75-0.833,1.81-1.812
			c0.007-0.104,0.006-0.209-0.001-0.313l0.896,0.74l1.175-0.253c-0.021,0.051-0.039,0.104-0.056,0.155
			c-0.294,0.936-0.246,2.069,1.041,2.34s1.788-0.749,1.895-1.723c0.005-0.048,0.01-0.096,0.012-0.143l1.044,0.847l1.182-0.244
			c-0.029,0.073-0.056,0.148-0.079,0.226c-0.276,0.939-0.208,2.073,1.084,2.32c1.275,0.243,1.761-0.756,1.857-1.721l1.035,0.979
			l1.677-0.123c-0.027,0.059-0.053,0.117-0.075,0.178c-0.344,0.919-0.355,2.054,0.916,2.392c1.188,0.315,1.749-0.529,1.946-1.431
			l0.953,1.065L132.534,45.715z"/>
		<g>
			<path fill-rule="evenodd" clip-rule="evenodd" fill="#B87956" d="M92.201,37.216c5.224,0,9.487-4.261,9.487-9.486
				c0-5.225-4.263-9.486-9.487-9.486c-5.225,0-9.486,4.262-9.486,9.486C82.714,32.956,86.976,37.216,92.201,37.216z"/>
			<path fill-rule="evenodd" clip-rule="evenodd" fill="#FEDC18" d="M92.201,26.399c0.735,0,1.331,0.596,1.331,1.331
				s-0.596,1.332-1.331,1.332c-0.735,0-1.332-0.597-1.332-1.332S91.465,26.399,92.201,26.399L92.201,26.399z M92.201,19.866
				c-1.531,0-2.25,1.341-2.114,2.529c0.138,1.207,1.151,2.271,2.114,3.193c0.962-0.922,1.976-1.986,2.114-3.193
				C94.45,21.207,93.731,19.866,92.201,19.866L92.201,19.866z M99.012,31.663c0.766-1.326-0.036-2.618-1.133-3.096
				c-1.115-0.484-2.544-0.138-3.823,0.234c0.317,1.295,0.731,2.705,1.708,3.428C96.725,32.941,98.246,32.989,99.012,31.663
				L99.012,31.663z M85.39,23.798c0.765-1.326,2.286-1.278,3.247-0.566c0.977,0.724,1.392,2.133,1.709,3.428
				c-1.28,0.372-2.708,0.719-3.823,0.234C85.426,26.417,84.624,25.125,85.39,23.798L85.39,23.798z M99.012,23.798
				c0.766,1.326-0.036,2.618-1.133,3.096c-1.115,0.484-2.544,0.138-3.823-0.234c0.317-1.295,0.731-2.704,1.708-3.428
				C96.725,22.52,98.246,22.472,99.012,23.798L99.012,23.798z M85.39,31.663c-0.766-1.326,0.036-2.618,1.133-3.096
				c1.114-0.484,2.542-0.138,3.823,0.234c-0.317,1.295-0.732,2.705-1.709,3.428C87.676,32.941,86.155,32.989,85.39,31.663
				L85.39,31.663z M92.201,35.595c-1.531,0-2.25-1.341-2.114-2.529c0.138-1.207,1.151-2.271,2.114-3.193
				c0.962,0.923,1.976,1.986,2.114,3.193C94.45,34.254,93.731,35.595,92.201,35.595z"/>
		</g>
		<g>
			<path fill-rule="evenodd" clip-rule="evenodd" fill="#B87956" d="M133.122,27.918c1.608-0.398,3.222-0.332,4.701,0.111
				l-5.113,17.098c-2.92-0.877-5.316-3.229-6.104-6.404C125.423,33.94,128.339,29.104,133.122,27.918z"/>
			<path fill-rule="evenodd" clip-rule="evenodd" fill="#FEDC18" d="M134.966,35.363c0.226-0.056,0.452-0.046,0.66,0.017
				l-0.718,2.398c-0.41-0.122-0.746-0.453-0.856-0.898C133.886,36.208,134.295,35.53,134.966,35.363L134.966,35.363z M133.489,29.4
				c-1.398,0.346-1.751,1.732-1.358,2.786c0.398,1.07,1.564,1.813,2.651,2.437c0.671-1.06,1.355-2.26,1.208-3.393
				C135.846,30.115,134.887,29.053,133.489,29.4L133.489,29.4z M128.16,34.53c0.399-1.385,1.799-1.685,2.837-1.252
				c1.055,0.438,1.752,1.633,2.334,2.742c-1.084,0.63-2.31,1.269-3.437,1.078C128.786,36.912,127.761,35.913,128.16,34.53
				L128.16,34.53z M129.939,41.708c-0.999-1.038-0.56-2.399,0.334-3.082c0.907-0.694,2.29-0.701,3.542-0.65
				c0.003,1.253-0.057,2.635-0.784,3.515C132.314,42.358,130.938,42.746,129.939,41.708z"/>
		</g>
		<g>
			<path fill-rule="evenodd" clip-rule="evenodd" fill="#B87956" d="M51.279,27.918c-1.608-0.398-3.222-0.332-4.702,0.111
				l5.113,17.098c2.921-0.877,5.316-3.229,6.103-6.404C58.979,33.94,56.062,29.104,51.279,27.918z"/>
			<path fill-rule="evenodd" clip-rule="evenodd" fill="#FEDC18" d="M49.436,35.363c-0.226-0.056-0.452-0.046-0.66,0.017
				l0.717,2.398c0.41-0.122,0.746-0.453,0.857-0.898C50.516,36.208,50.106,35.53,49.436,35.363L49.436,35.363z M50.913,29.4
				c1.397,0.346,1.75,1.732,1.358,2.786c-0.399,1.07-1.564,1.813-2.651,2.437c-0.671-1.06-1.355-2.26-1.208-3.393
				C48.556,30.115,49.515,29.053,50.913,29.4L50.913,29.4z M56.241,34.53c-0.399-1.385-1.798-1.685-2.836-1.252
				c-1.056,0.438-1.752,1.633-2.335,2.742c1.084,0.63,2.311,1.269,3.437,1.078C55.616,36.912,56.64,35.913,56.241,34.53
				L56.241,34.53z M54.463,41.708c0.999-1.038,0.559-2.399-0.334-3.082c-0.908-0.694-2.291-0.701-3.543-0.65
				c-0.003,1.253,0.057,2.635,0.785,3.515C52.087,42.358,53.464,42.746,54.463,41.708z"/>
		</g>
	</g>
	<path fill-rule="evenodd" clip-rule="evenodd" fill="#161813" d="M40.368,51.289c34.555,0,69.11,0,103.665,0
		c0,21.427,0,47.018,0,68.444c0,28.509-23.324,47.669-51.833,47.669s-51.833-19.161-51.833-47.669
		C40.368,98.306,40.368,72.715,40.368,51.289z"/>
	<path fill-rule="evenodd" clip-rule="evenodd" fill="#019541" d="M42.38,53.301c0,22.144,0,44.287,0,66.432
		c0,27.954,23.082,45.656,49.821,45.656s49.82-17.702,49.82-45.656c0-22.145,0-44.288,0-66.432
		C108.808,53.301,75.594,53.301,42.38,53.301z"/>
	<g>
		<path fill-rule="evenodd" clip-rule="evenodd" fill="#FEDC18" d="M92.201,126.621c13.591,0,24.676-11.086,24.676-24.677
			c0-13.592-11.085-24.677-24.676-24.677s-24.677,11.085-24.677,24.677C67.524,115.535,78.609,126.621,92.201,126.621z"/>
		<g>
			<polygon fill-rule="evenodd" clip-rule="evenodd" fill="#FFFFFF" points="73.105,115.089 111.663,115.089 111.663,109.801 
				109.074,109.801 109.074,99.593 110.47,99.593 110.47,97.94 109.074,97.94 109.074,97.114 110.47,97.114 110.47,95.92 
				113.939,95.92 113.939,94.268 92.201,83.435 70.461,94.268 70.461,95.92 73.674,95.92 73.674,97.921 75.07,97.921 75.07,98.748 
				74.042,98.748 74.042,100.474 75.07,100.474 75.07,110.958 73.105,110.958 			"/>
			<path fill-rule="evenodd" clip-rule="evenodd" fill="#B87956" d="M84.728,98.435v13.147h3.88V98.435H87.57v-1.267h3.599v1.267
				h-1.038v13.147h3.88V98.435h-1.037v-1.267h3.598v1.267h-1.037v13.147h3.882V98.435h-1.038v-1.267h3.599v1.267h-1.037v13.147
				h5.287V99.629h-1.192v-1.708h1.192v-0.826h-1.395V95.92H79.954v2.001h-1.396v0.826h1.047v1.727h-1.047v11.108h4.646V98.435
				h-1.038v-1.267h3.599v1.267H84.728L84.728,98.435z M74.323,94.746h3.136l14.935-6.618l14.934,6.618h3.137l-18.07-8.374
				L74.323,94.746L74.323,94.746z M73.16,95.259V94.72l19.234-8.914l19.233,8.914v0.539c-1.469,0-2.937,0-4.407,0l-14.826-6.57
				l-14.827,6.57C76.098,95.259,74.629,95.259,73.16,95.259L73.16,95.259z M79.954,95.002l12.439-5.113l12.439,5.113H79.954z"/>
		</g>
	</g>
	<path fill-rule="evenodd" clip-rule="evenodd" fill="#FFFFFF" d="M82.85,138.233c3.629,2.057,8.809,0.403,10.117-1.285
		C90.526,135.219,85.751,134.518,82.85,138.233L82.85,138.233z M79.579,65.804c-1.64,0.605-6.05,2.396-5.044,7.944
		C76.566,72.879,79.677,71.002,79.579,65.804L79.579,65.804z M71.647,71.844c-2.301,1.083-5.664,3.442-3.906,8.606
		C69.46,79.361,72.994,76.4,71.647,71.844L71.647,71.844z M65.404,78.307c1.971,4.116-0.241,7.058-1.832,8.404
		C60.806,82.924,63.765,79.794,65.404,78.307L65.404,78.307z M91.609,66.87c-2.163,3.724-7.763,3.454-9.834,2.755
		C84.522,65.032,90.259,66.159,91.609,66.87L91.609,66.87z M88.524,73.095c-3.038,2.796-8.083,1.779-10.256,0.68
		C81.15,69.713,87.109,72.124,88.524,73.095L88.524,73.095z M81.576,76.476c-2.771,3.172-7.777,2.285-9.44,1.999
		C74.999,73.712,79.983,75.72,81.576,76.476L81.576,76.476z M75.187,80.129c-1.229,3.613-6.584,4.672-8.339,4.625
		C67.783,79.22,73.483,80.016,75.187,80.129L75.187,80.129z M70.486,85.491c-1.391,0.07-6.578,0.192-6.943,5.579
		C65.224,90.805,70.505,89.233,70.486,85.491L70.486,85.491z M61.129,85.39c-1.318,1.56-3.308,4.842,0.276,8.813
		C62.28,92.598,64.423,87.799,61.129,85.39L61.129,85.39z M67.897,90.65c0.717,4.716-3.792,7.647-5.382,8.205
		C61.595,92.257,66.524,91.088,67.897,90.65L67.897,90.65z M57.677,92.257c4.01,2.189,3.281,6.583,2.81,8.464
		C55.893,97.944,56.982,93.853,57.677,92.257L57.677,92.257z M65.951,97.867c-1.354,0.621-5.108,1.826-3.987,7.599
		C63.112,104.687,66.667,102.582,65.951,97.867L65.951,97.867z M55.988,100.85c5.534,0.39,5.667,6.162,5.71,7.399
		C56.719,107.73,56.12,103.456,55.988,100.85L55.988,100.85z M65.345,104.55c3.104,3.319,0.338,8.124-0.608,9.104
		C61.521,109.259,63.734,105.759,65.345,104.55L65.345,104.55z M57.163,108.856c0.131,2.604,1.117,7.633,6.224,7.417
		C63.344,115.036,62.697,109.246,57.163,108.856L57.163,108.856z M59.844,117.375c4.946-0.95,7.797,4.345,8.188,5.747
		C61.952,123.576,60.618,119.999,59.844,117.375L59.844,117.375z M67.769,111.454c-1.886,1.926-3.052,6.105,1.044,9.361
		C69.465,119.798,70.873,114.773,67.769,111.454L67.769,111.454z M70.743,119.386c4.628,1.354,3.9,6.361,3.56,7.727
		C70.28,124.958,70.289,122.559,70.743,119.386L70.743,119.386z M63.773,124.867c1.637,2.366,4.201,4.126,8.611,2.956
		C71.589,126.494,67.93,122.336,63.773,124.867L63.773,124.867z M68.051,130.338c4.229-3.007,8.917-0.816,10.153,0.716
		C76.072,133.418,70.038,132.816,68.051,130.338L68.051,130.338z M74.625,134.598c3.458-3.264,8.108-1.881,10.08-0.532
		C83.49,136.411,78.355,137.369,74.625,134.598L74.625,134.598z M76.545,124.784c0.06,4.404,2.034,6.895,6.515,6.902
		C82.704,129.897,82.348,125.864,76.545,124.784L76.545,124.784z M84.212,129.55c5.767-1.142,8.454,3.389,8.939,5.213
		C89.458,135.16,85.025,133.441,84.212,129.55z"/>
	<g>
		<path fill-rule="evenodd" clip-rule="evenodd" fill="#FFFFFF" d="M98.563,64.222c5.872,0.983,11.291,3.306,15.933,6.641
			l-0.919,1.851c-0.46-0.337-0.929-0.664-1.406-0.979l-0.658,1.229c0.488,0.325,0.968,0.663,1.438,1.013l-0.867,1.746
			c-0.483-0.367-0.977-0.721-1.48-1.061l-0.659,1.23c0.515,0.352,1.019,0.717,1.511,1.098l-1.046,2.105
			c-3.97-3.166-8.781-5.322-14.047-6.072l0.561-2.244c0.869,0.131,1.727,0.297,2.569,0.496l0.364-1.341
			c-0.853-0.203-1.718-0.373-2.595-0.509l0.468-1.867c0.888,0.142,1.765,0.317,2.629,0.524l0.364-1.34
			c-0.873-0.211-1.759-0.39-2.655-0.536L98.563,64.222L98.563,64.222z M117.654,73.396l-1.381,1.498
			c0.524,0.467,1.034,0.949,1.531,1.445l0.209,0.212l-0.995,0.967l-0.195-0.197c-0.483-0.482-0.979-0.951-1.49-1.405l-1.3,1.409
			c0.491,0.437,0.971,0.887,1.435,1.352l0.176,0.178l-0.995,0.967l-0.162-0.163c-0.451-0.451-0.916-0.889-1.394-1.313l-1.561,1.692
			c3.52,3.108,6.284,7.051,7.985,11.519l2.115-0.909c-0.253-0.658-0.527-1.306-0.822-1.941l1.253-0.597
			c0.303,0.651,0.585,1.315,0.846,1.989l1.763-0.757c-0.271-0.697-0.563-1.384-0.877-2.058l1.254-0.597
			c0.321,0.69,0.621,1.393,0.899,2.105l1.874-0.805C125.611,82.348,122.1,77.361,117.654,73.396L117.654,73.396z M129.229,92.316
			c0.798,3.075,1.224,6.302,1.224,9.628c0,2.711-0.283,5.356-0.819,7.908l-2.023-0.302c0.167-0.783,0.31-1.577,0.426-2.378
			l-1.385-0.129c-0.113,0.776-0.253,1.544-0.417,2.302l-1.9-0.282c0.159-0.724,0.295-1.456,0.406-2.197l-1.384-0.129
			c-0.109,0.716-0.242,1.423-0.398,2.121l-2.283-0.34c0.486-2.113,0.744-4.313,0.744-6.574c0-2.877-0.417-5.656-1.192-8.282
			l2.297-0.344c0.168,0.594,0.32,1.193,0.454,1.8l1.39-0.144c-0.136-0.628-0.289-1.249-0.46-1.863l1.91-0.285
			c0.174,0.643,0.33,1.293,0.468,1.95l1.388-0.144c-0.14-0.679-0.298-1.35-0.474-2.014L129.229,92.316L129.229,92.316z
			 M128.273,114.691c-2.066,5.848-5.513,11.042-9.949,15.192l-1.47-1.419c0.321-0.3,0.639-0.605,0.95-0.916
			c0.35-0.35,0.693-0.707,1.028-1.071l-1.012-0.951c-0.325,0.354-0.658,0.701-0.998,1.041c-0.316,0.316-0.641,0.627-0.969,0.932
			l-1.381-1.334c0.338-0.311,0.669-0.629,0.994-0.953c0.326-0.326,0.646-0.659,0.958-0.999l-1.011-0.952
			c-0.303,0.33-0.612,0.653-0.929,0.97c-0.33,0.33-0.668,0.653-1.013,0.969l-1.659-1.603c3.816-3.459,6.716-7.913,8.285-12.952
			l2.086,1.033c-0.216,0.664-0.452,1.318-0.71,1.963l1.226,0.671c0.269-0.66,0.516-1.331,0.741-2.012l1.734,0.858
			c-0.239,0.703-0.5,1.397-0.782,2.079l1.225,0.67c0.292-0.698,0.563-1.407,0.813-2.128L128.273,114.691L128.273,114.691z
			 M114.327,133.147l-1.086-1.73c-0.645,0.462-1.306,0.902-1.981,1.321l-0.667-1.22c0.65-0.405,1.288-0.832,1.91-1.28l-1.021-1.627
			c-0.589,0.427-1.192,0.834-1.811,1.222l-0.667-1.221c0.593-0.374,1.172-0.768,1.737-1.18l-1.226-1.953
			c-4.065,2.996-8.935,4.963-14.225,5.521l0.458,2.264c0.83-0.093,1.65-0.218,2.461-0.374l0.285,1.358
			c-0.813,0.157-1.638,0.285-2.471,0.381l0.381,1.886c0.837-0.101,1.666-0.231,2.483-0.391l0.286,1.358
			c-0.821,0.16-1.652,0.293-2.493,0.397l0.405,2.006C103.457,139.073,109.336,136.693,114.327,133.147z"/>
		<path fill-rule="evenodd" clip-rule="evenodd" fill="#B87956" d="M101.209,72.037c2.383,0.717,4.67,1.718,6.816,2.98l2.084-4.581
			c-2.353-1.339-4.846-2.41-7.436-3.191L101.209,72.037L101.209,72.037z M115.797,81.488c1.372,1.582,2.585,3.298,3.614,5.121
			l4.601-2.03c-1.279-2.338-2.814-4.53-4.573-6.533L115.797,81.488L115.797,81.488z M123.042,97.009
			c0.259,1.63,0.389,3.279,0.389,4.935c0,0.874-0.036,1.747-0.108,2.617l5.014,0.137c0.068-0.916,0.103-1.835,0.103-2.754
			c0-1.733-0.122-3.462-0.367-5.174L123.042,97.009L123.042,97.009z M120.297,115.59c-1.109,2.279-2.495,4.416-4.121,6.362
			l3.88,3.17c1.742-2.091,3.245-4.372,4.477-6.799L120.297,115.59L120.297,115.59z M107.232,129.322
			c-2.319,1.276-4.79,2.251-7.356,2.9l1.417,4.81c2.726-0.704,5.356-1.726,7.845-3.044L107.232,129.322z"/>
	</g>
	<g>
		<path fill-rule="evenodd" clip-rule="evenodd" fill="#FFFFFF" d="M54.007,207.413c0.822-2.589,4.488-3.986,8.573-3.642
			c-0.484,2.538-0.969,4.947-1.453,7.484c-0.994,2.801-5.983,1.771-8.2,1.04c-9.749-3.212-19.498-6.663-29.248-10.146
			c2.88-2.995,6.805-5.512,11.183-7.82c-2.202-4.641-4.274-9.318-4.465-14.55c6.404,2.23,13.221,4.621,19.644,6.858
			c0.261,6.453,0.522,12.896,0.768,19.142c0.128,3.26,4.843,4.279,7.215,4.792l0.429,0.094c0.494,0.106,0.983-0.199,1.092-0.684
			c0.109-0.484-0.203-0.965-0.697-1.071l-0.429-0.094C57.228,208.559,55.304,208.142,54.007,207.413L54.007,207.413z
			 M130.395,207.413c-0.822-2.589-4.488-3.986-8.573-3.642c0.484,2.538,0.969,4.947,1.453,7.484c0.993,2.801,5.983,1.771,8.199,1.04
			c9.75-3.212,19.499-6.663,29.248-10.146c-2.88-2.995-6.805-5.512-11.183-7.82c2.202-4.641,4.273-9.318,4.465-14.55
			c-6.405,2.23-13.221,4.621-19.644,6.858c-0.262,6.453-0.522,12.896-0.769,19.142c-0.128,3.26-4.842,4.279-7.215,4.792
			l-0.429,0.094c-0.494,0.106-0.983-0.199-1.093-0.684c-0.108-0.484,0.203-0.965,0.697-1.071l0.429-0.094
			C127.173,208.559,129.098,208.142,130.395,207.413L130.395,207.413z M92.201,199.873c14.551,0,33.403,0.68,39.583,5.26
			c0.249-6.318,0.497-12.454,0.745-18.581l0.232-5.771c-11.549-3.754-25.515-5.951-40.56-5.951c-15.046,0-29.011,2.197-40.561,5.951
			l0.232,5.771c0.248,6.127,0.496,12.263,0.746,18.581C58.797,200.552,77.648,199.873,92.201,199.873z"/>
		<g>
			<path fill-rule="evenodd" clip-rule="evenodd" fill="#019541" d="M56.063,186.63l1.281-3.731l1.433-0.307l-1.415,3.713
				l2.815,2.857l-1.432,0.306L56.063,186.63L56.063,186.63z M56.74,189.896l-1.4-6.569l-1.284,0.273l1.401,6.569L56.74,189.896
				L56.74,189.896z M64.171,188.453l-0.208-1.162l-2.288,0.41l-0.293-1.637l2.288-0.41l-0.206-1.144l-2.288,0.41l-0.27-1.507
				l2.288-0.409l-0.208-1.163l-3.571,0.64l1.185,6.612L64.171,188.453L64.171,188.453z M61.363,181.249l-0.187-1.041l0.93-0.167
				l0.187,1.042L61.363,181.249L61.363,181.249z M59.783,181.532l-0.187-1.042l0.93-0.166l0.187,1.041L59.783,181.532
				L59.783,181.532z M64.518,186.282l1.184-0.196l0.015,0.097c0.045,0.279,0.155,0.491,0.328,0.636
				c0.173,0.146,0.382,0.198,0.624,0.159c0.263-0.043,0.457-0.154,0.583-0.336c0.127-0.18,0.169-0.405,0.125-0.673
				c-0.069-0.427-0.427-0.684-1.071-0.771c-0.083-0.01-0.149-0.021-0.198-0.028c-0.542-0.076-0.961-0.243-1.258-0.498
				s-0.482-0.609-0.555-1.062c-0.101-0.622-0.009-1.148,0.275-1.582c0.283-0.432,0.712-0.694,1.286-0.787
				c0.538-0.087,0.993,0.012,1.366,0.296c0.373,0.282,0.627,0.723,0.761,1.322l-1.175,0.19l-0.009-0.055
				c-0.035-0.213-0.126-0.373-0.275-0.484c-0.149-0.109-0.327-0.146-0.532-0.113c-0.213,0.033-0.37,0.129-0.471,0.281
				c-0.102,0.154-0.134,0.347-0.097,0.576c0.016,0.098,0.042,0.182,0.081,0.252c0.036,0.069,0.088,0.131,0.154,0.182
				c0.146,0.117,0.434,0.199,0.862,0.249c0.189,0.019,0.336,0.038,0.439,0.054c0.48,0.082,0.852,0.248,1.116,0.502
				c0.263,0.253,0.431,0.604,0.504,1.053c0.11,0.684,0.01,1.264-0.302,1.738c-0.312,0.477-0.783,0.765-1.411,0.866
				c-0.593,0.097-1.102-0.026-1.532-0.368C64.906,187.44,64.634,186.939,64.518,186.282L64.518,186.282z M70.683,184.724
				l0.346,2.708l-1.302,0.166l-0.853-6.663l1.303-0.167l0.345,2.7l2.146-0.274l-0.345-2.7l1.302-0.166l0.854,6.663l-1.303,0.167
				l-0.347-2.709L70.683,184.724L70.683,184.724z M75.599,186.904l-0.627-6.688l1.307-0.123l0.628,6.688L75.599,186.904
				L75.599,186.904z M81.425,186.413l-3.401,0.262l-0.515-6.698l1.3-0.1l0.425,5.521l2.101-0.161L81.425,186.413L81.425,186.413z
				 M85.575,186.173l-3.405,0.203l-0.401-6.706l1.301-0.077l0.33,5.527l2.104-0.126L85.575,186.173L85.575,186.173z M86.332,186.169
				l-0.172-6.716l1.313-0.034l0.172,6.716L86.332,186.169L86.332,186.169z M91.525,186.064l0.057-6.718l1.313,0.012l-0.057,6.717
				L91.525,186.064L91.525,186.064z M101.528,184.278c0.166-0.165,0.294-0.355,0.383-0.57c0.09-0.215,0.141-0.455,0.152-0.724
				c0.026-0.608-0.152-1.129-0.534-1.563c-0.383-0.435-0.865-0.663-1.45-0.688c-0.567-0.024-1.063,0.166-1.482,0.572
				c-0.419,0.404-0.642,0.898-0.666,1.483c-0.003,0.056,0,0.112,0.007,0.169s0.019,0.119,0.038,0.185
				c0.148-0.043,0.291-0.072,0.433-0.091c0.141-0.018,0.281-0.022,0.421-0.017c0.488,0.021,0.949,0.132,1.391,0.334
				C100.658,183.573,101.095,183.875,101.528,184.278L101.528,184.278z M98.267,184.042c0.063-0.007,0.128-0.012,0.194-0.014
				c0.064-0.002,0.131-0.001,0.193,0.002c0.332,0.014,0.671,0.092,1.017,0.232c0.347,0.141,0.707,0.348,1.082,0.623
				c-0.142,0.049-0.282,0.085-0.419,0.107c-0.136,0.024-0.269,0.033-0.401,0.027c-0.346-0.015-0.663-0.106-0.949-0.275
				C98.696,184.576,98.457,184.342,98.267,184.042L98.267,184.042z M101.626,185.961c-0.263,0.157-0.549,0.273-0.855,0.347
				c-0.308,0.073-0.629,0.103-0.964,0.089c-0.379-0.017-0.743-0.097-1.093-0.241c-0.349-0.144-0.674-0.345-0.975-0.604
				c-0.408-0.356-0.712-0.777-0.912-1.262c-0.202-0.486-0.29-1.012-0.266-1.576c0.02-0.466,0.13-0.903,0.329-1.317
				c0.2-0.412,0.479-0.783,0.841-1.113c0.334-0.306,0.705-0.532,1.113-0.679c0.409-0.148,0.842-0.212,1.3-0.192
				c0.474,0.021,0.911,0.121,1.31,0.304c0.399,0.181,0.755,0.441,1.068,0.781c0.333,0.354,0.578,0.749,0.734,1.18
				s0.224,0.899,0.202,1.403c-0.019,0.44-0.104,0.838-0.256,1.195c-0.152,0.359-0.374,0.678-0.663,0.957
				c0.118,0.065,0.241,0.113,0.368,0.146c0.129,0.032,0.265,0.053,0.409,0.059l0.136,0.006l-0.046,1.069
				c-0.019-0.001-0.047,0-0.085,0.001c-0.039,0-0.068,0-0.085,0c-0.268-0.012-0.536-0.064-0.804-0.155
				C102.165,186.265,101.896,186.132,101.626,185.961L101.626,185.961z M107.406,184.125l-0.588-2.228l-1.011,2.078L107.406,184.125
				L107.406,184.125z M105.241,185.174l2.479,0.232l0.397,1.451l1.401,0.131l-1.931-6.928l-1.131-0.106l-3.222,6.444l1.354,0.127
				L105.241,185.174L105.241,185.174z M111.544,183.748l0.289,0.037c0.527,0.067,0.941,0.023,1.239-0.132
				c0.297-0.155,0.471-0.416,0.518-0.783c0.045-0.354-0.036-0.629-0.244-0.827c-0.208-0.196-0.555-0.326-1.04-0.389l-0.486-0.062
				L111.544,183.748L111.544,183.748z M111.106,187.168l-1.303-0.167l0.853-6.663l1.582,0.202c0.503,0.064,0.876,0.129,1.116,0.196
				c0.242,0.066,0.444,0.151,0.609,0.253c0.354,0.225,0.612,0.509,0.771,0.851c0.157,0.343,0.208,0.729,0.153,1.156
				c-0.066,0.515-0.264,0.934-0.594,1.255c-0.329,0.323-0.743,0.501-1.245,0.537l1.336,2.799l-1.556-0.199l-1.327-3.313
				L111.106,187.168L111.106,187.168z M116.93,184.586l2.496-3.057l1.449,0.211l-2.613,2.991l1.649,3.656l-1.449-0.21
				L116.93,184.586L116.93,184.586z M116.432,187.884l0.964-6.648l-1.299-0.188l-0.964,6.648L116.432,187.884L116.432,187.884z
				 M121.51,181.894l-0.752,4.196c-0.09,0.496-0.127,0.857-0.114,1.085c0.012,0.228,0.063,0.44,0.152,0.637
				c0.152,0.34,0.359,0.607,0.624,0.804c0.266,0.195,0.602,0.33,1.011,0.403s0.771,0.064,1.088-0.027
				c0.315-0.093,0.603-0.271,0.863-0.537c0.152-0.153,0.276-0.342,0.369-0.566c0.093-0.224,0.183-0.569,0.266-1.034l0.752-4.195
				l-1.293-0.232l-0.684,3.814c-0.106,0.596-0.244,0.998-0.411,1.208c-0.167,0.208-0.403,0.286-0.71,0.23
				c-0.307-0.055-0.502-0.209-0.586-0.463c-0.084-0.255-0.073-0.681,0.033-1.275l0.684-3.814L121.51,181.894L121.51,181.894z
				 M130.346,183.645L130.1,184.8l-1.238-0.264l-1.156,5.413l-1.284-0.273l1.155-5.414l-1.238-0.265l0.247-1.154L130.346,183.645z"
				/>
			<path fill-rule="evenodd" clip-rule="evenodd" fill="#019541" d="M76.701,189.386l6.71-0.4l0.109,1.821l-3.987,0.238l0.089,1.478
				l3.41-0.203l0.103,1.716l-3.41,0.204l0.207,3.453l-2.723,0.163L76.701,189.386L76.701,189.386z M85.272,188.924l2.727-0.07
				l0.218,8.481l-2.727,0.07L85.272,188.924L85.272,188.924z M90.233,188.816l7.275,0.062l-0.015,1.813l-4.548-0.039l-0.011,1.352
				l4.215,0.035l-0.016,1.73l-4.215-0.035l-0.014,1.671l4.683,0.039l-0.017,1.92l-7.41-0.063L90.233,188.816L90.233,188.816z
				 M99.074,197.441l0.648-8.46l4.517,0.347c0.838,0.064,1.474,0.183,1.904,0.355c0.432,0.172,0.77,0.457,1.013,0.853
				c0.243,0.396,0.342,0.865,0.301,1.405c-0.036,0.469-0.171,0.866-0.405,1.192c-0.232,0.326-0.54,0.58-0.922,0.765
				c-0.24,0.116-0.567,0.204-0.977,0.262c0.314,0.129,0.541,0.249,0.681,0.365c0.092,0.076,0.227,0.237,0.398,0.479
				c0.171,0.24,0.284,0.425,0.337,0.554l1.13,2.545l-3.063-0.235l-1.25-2.69c-0.158-0.349-0.305-0.578-0.44-0.688
				c-0.186-0.146-0.403-0.228-0.65-0.246l-0.239-0.019l-0.263,3.426L99.074,197.441L99.074,197.441z M102.179,192.627l1.146,0.088
				c0.122,0.009,0.366-0.012,0.728-0.062c0.182-0.02,0.336-0.097,0.459-0.232c0.126-0.135,0.195-0.293,0.209-0.479
				c0.021-0.273-0.053-0.491-0.221-0.651c-0.169-0.161-0.5-0.26-0.996-0.298l-1.192-0.091L102.179,192.627z"/>
		</g>
	</g>
</g>
</svg>
