<?xml version="1.0" encoding="UTF-8" standalone="no"?>
<!-- Created with Inkscape (http://www.inkscape.org/) -->

<svg
   xmlns:dc="http://purl.org/dc/elements/1.1/"
   xmlns:cc="http://creativecommons.org/ns#"
   xmlns:rdf="http://www.w3.org/1999/02/22-rdf-syntax-ns#"
   xmlns:svg="http://www.w3.org/2000/svg"
   xmlns="http://www.w3.org/2000/svg"
   xmlns:sodipodi="http://sodipodi.sourceforge.net/DTD/sodipodi-0.dtd"
   xmlns:inkscape="http://www.inkscape.org/namespaces/inkscape"
   version="1.1"
   width="458.83115"
   height="619.00018"
   viewBox="0 0 367.06493 495.20012"
   id="svg2"
   style="fill-rule:evenodd"
   inkscape:version="0.48.2 r9819"
   sodipodi:docname="ar_sluis2.svg">
  <sodipodi:namedview
     pagecolor="#ffffff"
     bordercolor="#666666"
     borderopacity="1"
     objecttolerance="10"
     gridtolerance="10"
     guidetolerance="10"
     inkscape:pageopacity="0"
     inkscape:pageshadow="2"
     inkscape:window-width="1024"
     inkscape:window-height="553"
     id="namedview170"
     showgrid="false"
     fit-margin-top="0"
     fit-margin-left="0"
     fit-margin-right="0"
     fit-margin-bottom="0"
     inkscape:zoom="0.39688231"
     inkscape:cx="374.85534"
     inkscape:cy="306.22093"
     inkscape:window-x="-4"
     inkscape:window-y="-4"
     inkscape:window-maximized="1"
     inkscape:current-layer="svg2" />
  <metadata
     id="metadata338">
    <rdf:RDF>
      <cc:Work
         rdf:about="">
        <dc:format>image/svg+xml</dc:format>
        <dc:type
           rdf:resource="http://purl.org/dc/dcmitype/StillImage" />
      </cc:Work>
    </rdf:RDF>
  </metadata>
  <defs
     id="defs336" />
  <g
     style="fill-rule:evenodd"
     id="g4"
     transform="matrix(0.80065262,0,0,0.81398345,-315.47871,-29.835981)">
    <g
       id="g6"
       transform="translate(315.35724,-100.12107)">
      <path
         d="m 185.988,141.374 c 3.274,7.145 4.763,13.695 4.466,19.651 2.829,-9.454 10.569,-16.45 20.544,-22.33 -1.49,18.16 -5.956,31.558 -13.398,40.194 8.038,-3.584 16.077,-2.985 24.116,-1.787 -16.376,16.81 -32.751,16.843 -49.126,17.864 -9.676,10.197 -17.119,20.766 -19.65,32.155 4.602,-7.157 14.432,-10.13 25.009,-12.505 -14.461,24.62 -19.758,32.819 -31.261,36.621 -8.812,4.706 -12.966,18.727 -16.971,33.049 0.964,0.935 -1.588,-0.323 2.457,7.592 1.609,-7.323 9.095,-9.438 14.514,-12.951 -5.583,26.125 -15.259,39.969 -26.796,48.232 -3.877,11.013 -7.156,22.324 -6.253,35.728 4.095,-6.55 9.007,-9.825 14.291,-11.611 -2.977,41.457 -9.229,55.897 -16.97,58.057 0.117,11.75 0.767,23.677 4.466,36.621 4.168,-7.071 8.337,-12.281 12.504,-13.398 7.071,36.545 5.136,50.986 -0.893,55.379 3.573,8.634 7.146,17.268 10.719,25.902 0.585,6.702 5.353,12.358 10.718,17.864 0.708,-9.713 2.867,-17.975 7.145,-24.116 10.495,17.343 15.408,35.058 8.039,53.592 4.764,13.249 11.017,24.264 20.544,30.368 2.679,-0.597 2.976,-4.765 0.893,-12.504 4.652,2.529 9.044,6.1 12.505,13.398 0,-5.062 0,-10.123 0,-15.185 20.879,20.352 18.648,31.816 22.33,45.553 3.224,11.036 31.619,24.546 74.135,41.535 -0.893,2.68 -1.786,6.698 -2.68,9.378 -43.135,-16.511 -65.532,-31.425 -77.708,-45.553 -20.817,10.34 -34.488,-2.181 -49.126,-11.612 7.444,-0.298 14.887,-0.596 22.33,-0.893 -8.487,-3.711 -16.824,-8.468 -24.116,-20.544 4.316,2.238 8.781,4.027 14.291,2.68 -7.145,-5.36 -12.504,-12.505 -16.077,-21.437 -10.699,-1.608 -21.079,-0.36 -33.049,-13.398 -3.67,-8.189 -11.382,-10.318 -17.864,-14.291 5.955,-0.896 11.91,-1.494 17.864,0 -5.447,-2.889 -8.566,-8.106 -11.611,-13.398 7.393,0.694 14.594,0.615 23.223,6.252 -8.708,-13.919 -13.323,-28.657 -16.078,-43.766 -16.076,2.971 -30.963,-13.703 -44.6594,-50.019 6.8513,5.225 13.4036,9.104 17.8639,3.573 -1.8984,-5.658 -5.3663,-11.315 -3.5728,-16.971 4.6154,12.28 10.8673,17.193 17.8643,18.757 -5.136,-15.631 -6.178,-29.624 -5.36,-42.873 -15.4804,-13.548 -17.8623,-32.007 -14.2907,-52.699 2.958,3.216 5.5984,5.479 9.8247,12.505 -1.116,-8.188 0.224,-14.739 2.68,-20.544 0.893,2.084 1.786,4.168 2.68,6.253 -0.446,-10.793 1.936,-20.172 6.252,-28.583 -5.7,-13.839 -8.009,-30.808 1.786,-58.951 3.354,6.551 7.979,13.1 6.253,19.651 3.275,-10.421 6.55,-20.842 9.825,-31.262 -7.179,-30.74 -2.341,-31.489 10.718,-61.631 3.877,5.353 8.719,13.534 7.814,23.668 3.946,-12.505 15.929,-22.626 23.446,-30.367 0.075,-12.531 -2.154,-22.855 13.4,-46.893 z"
         inkscape:connector-curvature="0"
         id="path8"
         style="fill:#009240;stroke:#2c2c2b;stroke-width:0.26756167" />
      <path
         d="m 190.11,161.495 c -2.711,14.357 -8.215,23.13 -14.501,30.34 6.396,-6.34 13.758,-10.987 22.532,-13.162"
         inkscape:connector-curvature="0"
         id="path10"
         style="fill:none;stroke:#2c2c2b;stroke-width:0.26756167" />
      <path
         d="m 159.77,200.982 1.785,-7.139 -2.677,-0.223 -2.677,11.823 3.569,-4.461 z"
         inkscape:connector-curvature="0"
         id="path12"
         style="fill:#009240;stroke:#2c2c2b;stroke-width:0.26756167" />
      <path
         d="m 127.435,264.879 -1.24,-7.254 -2.54,0.874 2.308,11.901 1.472,-5.521 z"
         inkscape:connector-curvature="0"
         id="path14"
         style="fill:#009240;stroke:#2c2c2b;stroke-width:0.26756167" />
      <path
         d="m 109.072,336.56 -1.24,-7.254 -2.54,0.873 2.308,11.902 1.472,-5.521 z"
         inkscape:connector-curvature="0"
         id="path16"
         style="fill:#009240;stroke:#2c2c2b;stroke-width:0.26756167" />
      <path
         d="m 105.155,425.687 -5.014,-6.385 -1.8838,1.915 7.3748,9.622 -0.477,-5.152 z"
         inkscape:connector-curvature="0"
         id="path18"
         style="fill:#009240;stroke:#2c2c2b;stroke-width:0.26756167" />
      <path
         d="m 126.392,512.328 -4.777,-3.74 -0.613,2.523 7.09,5.711 -1.7,-4.494 z"
         inkscape:connector-curvature="0"
         id="path20"
         style="fill:#009240;stroke:#2c2c2b;stroke-width:0.26756167" />
      <path
         d="m 165.727,586.897 -5.783,-1.836 0.308,2.577 8.638,2.876 -3.163,-3.617 z"
         inkscape:connector-curvature="0"
         id="path22"
         style="fill:#009240;stroke:#2c2c2b;stroke-width:0.26756167" />
      <path
         d="m 224.691,638.833 -6.067,-0.114 1.029,2.383 9.099,0.298 -4.061,-2.567 z"
         inkscape:connector-curvature="0"
         id="path24"
         style="fill:#009240;stroke:#2c2c2b;stroke-width:0.26756167" />
      <path
         d="m 161.024,209.082 9.424,-2.441 -0.981,-2.501 -6.884,1.924 -1.559,3.018 z"
         inkscape:connector-curvature="0"
         id="path26"
         style="fill:#009240;stroke:#2c2c2b;stroke-width:0.26756167" />
      <path
         d="m 133.746,270.072 9.093,-3.48 -1.255,-2.376 -6.625,2.681 -1.213,3.175 z"
         inkscape:connector-curvature="0"
         id="path28"
         style="fill:#009240;stroke:#2c2c2b;stroke-width:0.26756167" />
      <path
         d="m 115.383,341.752 9.093,-3.479 -1.255,-2.376 -6.626,2.681 -1.212,3.174 z"
         inkscape:connector-curvature="0"
         id="path30"
         style="fill:#009240;stroke:#2c2c2b;stroke-width:0.26756167" />
      <path
         d="m 111.559,429.08 7.478,-9.178 -2.183,-1.566 -5.403,6.247 0.108,4.497 z"
         inkscape:connector-curvature="0"
         id="path32"
         style="fill:#009240;stroke:#2c2c2b;stroke-width:0.26756167" />
      <path
         d="m 136.999,510.251 2.38,-9.04 -2.081,-0.413 -1.845,6.255 1.546,3.198 z"
         inkscape:connector-curvature="0"
         id="path34"
         style="fill:#009240;stroke:#2c2c2b;stroke-width:0.26756167" />
      <path
         d="m 172.967,581.688 1.471,-9.232 -2.112,-0.205 -1.214,6.408 1.855,3.029 z"
         inkscape:connector-curvature="0"
         id="path36"
         style="fill:#009240;stroke:#2c2c2b;stroke-width:0.26756167" />
      <path
         d="m 231.123,635.298 0.801,-8.116 -2.111,-0.205 -1.215,6.408 2.525,1.913 z"
         inkscape:connector-curvature="0"
         id="path38"
         style="fill:#009240;stroke:#2c2c2b;stroke-width:0.26756167" />
      <path
         d="m 160.572,187.819 c 2.02,0 3.66,1.749 3.66,3.904 0,2.155 -1.64,3.904 -3.66,3.904 -2.02,0 -3.66,-1.749 -3.66,-3.904 0,-2.155 1.64,-3.904 3.66,-3.904 z"
         inkscape:connector-curvature="0"
         id="path40"
         style="fill:#e21c2a;stroke:#2c2c2b;stroke-width:0.26756167" />
      <path
         d="m 121.134,253.478 c 1.514,-1.337 3.901,-1.112 5.328,0.504 1.426,1.615 1.355,4.011 -0.159,5.349 -1.514,1.337 -3.901,1.112 -5.328,-0.504 -1.426,-1.615 -1.355,-4.011 0.159,-5.349 z"
         inkscape:connector-curvature="0"
         id="path42"
         style="fill:#e21c2a;stroke:#2c2c2b;stroke-width:0.26756167" />
      <path
         d="m 102.771,325.159 c 1.514,-1.337 3.901,-1.112 5.328,0.503 1.426,1.615 1.355,4.012 -0.159,5.349 -1.514,1.338 -3.901,1.112 -5.328,-0.503 -1.426,-1.615 -1.355,-4.011 0.159,-5.349 z"
         inkscape:connector-curvature="0"
         id="path44"
         style="fill:#e21c2a;stroke:#2c2c2b;stroke-width:0.26756167" />
      <path
         d="m 93.7618,417.848 c 0.7585,-1.872 2.9953,-2.735 4.9926,-1.926 1.9976,0.809 3.0026,2.986 2.2446,4.858 -0.759,1.872 -2.9958,2.735 -4.9931,1.926 -1.9972,-0.809 -3.0027,-2.985 -2.2441,-4.858 z"
         inkscape:connector-curvature="0"
         id="path46"
         style="fill:#e21c2a;stroke:#2c2c2b;stroke-width:0.26756167" />
      <path
         d="m 115.516,509.902 c -0.083,-2.018 1.596,-3.729 3.749,-3.818 2.153,-0.089 3.969,1.477 4.053,3.495 0.083,2.019 -1.597,3.73 -3.75,3.819 -2.153,0.089 -3.968,-1.477 -4.052,-3.496 z"
         inkscape:connector-curvature="0"
         id="path48"
         style="fill:#e21c2a;stroke:#2c2c2b;stroke-width:0.26756167" />
      <path
         d="m 155.135,587.753 c -0.783,-1.862 0.193,-4.052 2.18,-4.888 1.986,-0.835 4.234,-0.002 5.017,1.86 0.784,1.863 -0.193,4.052 -2.179,4.888 -1.986,0.835 -4.235,0.002 -5.018,-1.86 z"
         inkscape:connector-curvature="0"
         id="path50"
         style="fill:#e21c2a;stroke:#2c2c2b;stroke-width:0.26756167" />
      <path
         d="m 213.514,641.364 c -0.783,-1.863 0.193,-4.052 2.179,-4.888 1.987,-0.835 4.235,-0.002 5.018,1.86 0.783,1.862 -0.193,4.052 -2.179,4.888 -1.987,0.835 -4.235,0.002 -5.018,-1.86 z"
         inkscape:connector-curvature="0"
         id="path52"
         style="fill:#e21c2a;stroke:#2c2c2b;stroke-width:0.26756167" />
      <path
         d="m 175.42,203.1 c 0.891,1.813 0.045,4.057 -1.888,5.008 -1.934,0.951 -4.227,0.251 -5.119,-1.562 -0.892,-1.813 -0.046,-4.056 1.888,-5.007 1.934,-0.951 4.227,-0.252 5.119,1.561 z"
         inkscape:connector-curvature="0"
         id="path54"
         style="fill:#e21c2a;stroke:#2c2c2b;stroke-width:0.26756167" />
      <path
         d="m 145.502,260.679 c 1.868,0.769 2.719,3.01 1.899,5.003 -0.819,1.993 -3.001,2.987 -4.869,2.218 -1.869,-0.768 -2.72,-3.009 -1.9,-5.002 0.819,-1.993 3.001,-2.987 4.87,-2.219 z"
         inkscape:connector-curvature="0"
         id="path56"
         style="fill:#e21c2a;stroke:#2c2c2b;stroke-width:0.26756167" />
      <path
         d="m 127.139,332.36 c 1.868,0.769 2.719,3.01 1.899,5.003 -0.819,1.993 -3.001,2.987 -4.87,2.218 -1.868,-0.768 -2.719,-3.01 -1.899,-5.002 0.819,-1.993 3.001,-2.987 4.87,-2.219 z"
         inkscape:connector-curvature="0"
         id="path58"
         style="fill:#e21c2a;stroke:#2c2c2b;stroke-width:0.26756167" />
      <path
         d="m 118.783,413.423 c 2.015,-0.146 3.776,1.48 3.932,3.63 0.155,2.149 -1.354,4.012 -3.369,4.157 -2.015,0.146 -3.777,-1.48 -3.932,-3.629 -0.156,-2.15 1.354,-4.013 3.369,-4.158 z"
         inkscape:connector-curvature="0"
         id="path60"
         style="fill:#e21c2a;stroke:#2c2c2b;stroke-width:0.26756167" />
      <path
         d="m 136.468,495.527 c 1.774,-0.966 4.051,-0.214 5.081,1.679 1.03,1.893 0.426,4.213 -1.348,5.179 -1.775,0.966 -4.051,0.213 -5.081,-1.679 -1.031,-1.893 -0.426,-4.213 1.348,-5.179 z"
         inkscape:connector-curvature="0"
         id="path62"
         style="fill:#e21c2a;stroke:#2c2c2b;stroke-width:0.26756167" />
      <path
         d="m 170.977,567.089 c 1.669,-1.137 4.009,-0.615 5.222,1.166 1.213,1.781 0.843,4.15 -0.827,5.287 -1.67,1.137 -4.01,0.615 -5.223,-1.166 -1.213,-1.781 -0.842,-4.15 0.828,-5.287 z"
         inkscape:connector-curvature="0"
         id="path64"
         style="fill:#e21c2a;stroke:#2c2c2b;stroke-width:0.26756167" />
      <path
         d="m 229.355,620.253 c 1.67,-1.137 4.01,-0.614 5.223,1.167 1.213,1.781 0.842,4.15 -0.827,5.287 -1.67,1.137 -4.01,0.614 -5.223,-1.167 -1.213,-1.781 -0.842,-4.149 0.827,-5.287 z"
         inkscape:connector-curvature="0"
         id="path66"
         style="fill:#e21c2a;stroke:#2c2c2b;stroke-width:0.26756167" />
      <path
         d="m 148.393,216.598 c -11.181,8.491 -14.636,25.633 -14.501,39.486 15.297,-4.373 22.662,-23.583 24.763,-35.248 0.669,-3.681 1.115,-7.175 1.785,-13.831 -4.277,2.156 -8.367,5.056 -12.047,9.593 z"
         inkscape:connector-curvature="0"
         id="path68"
         style="fill:none;stroke:#2c2c2b;stroke-width:0.26756167" />
      <path
         d="m 130.323,270.585 c 5.314,29.254 -3.95,44.447 -14.501,55.325 -0.665,-19.446 1.482,-40.64 14.501,-55.325 z"
         inkscape:connector-curvature="0"
         id="path70"
         style="fill:none;stroke:#2c2c2b;stroke-width:0.26756167" />
      <path
         d="m 100.875,368.52 c 5.448,10.047 9.947,20.885 11.824,33.909 -3.886,-16.732 -3.179,-29.225 0.669,-38.817"
         inkscape:connector-curvature="0"
         id="path72"
         style="fill:none;stroke:#2c2c2b;stroke-width:0.26756167" />
      <path
         d="m 107.345,451.731 c 10.895,8.848 18.629,19.928 19.408,35.917"
         inkscape:connector-curvature="0"
         id="path74"
         style="fill:none;stroke:#2c2c2b;stroke-width:0.26756167" />
      <path
         d="m 112.476,454.631 2.677,-9.147"
         inkscape:connector-curvature="0"
         id="path76"
         style="fill:none;stroke:#2c2c2b;stroke-width:0.26756167" />
      <path
         d="m 96.6368,451.508 c 1.4178,17.132 7.4212,32.841 26.1012,44.617"
         inkscape:connector-curvature="0"
         id="path78"
         style="fill:none;stroke:#2c2c2b;stroke-width:0.26756167" />
      <path
         d="m 149.508,531.819 c 7.876,4.336 11.24,14.99 13.162,27.663 -15.69,-3.058 -19.773,-11.274 -24.539,-19.186"
         inkscape:connector-curvature="0"
         id="path80"
         style="fill:none;stroke:#2c2c2b;stroke-width:0.26756167" />
      <path
         d="m 127.423,549.22 c 7.472,11.229 17.362,18.74 32.57,18.07"
         inkscape:connector-curvature="0"
         id="path82"
         style="fill:none;stroke:#2c2c2b;stroke-width:0.26756167" />
      <path
         d="m 176.502,597.63 11.154,0.446 -1.562,-7.362"
         inkscape:connector-curvature="0"
         id="path84"
         style="fill:none;stroke:#2c2c2b;stroke-width:0.26756167" />
      <path
         d="m 186.764,616.369 c 10.113,-1.153 20.226,-1.005 30.34,2.008"
         inkscape:connector-curvature="0"
         id="path86"
         style="fill:none;stroke:#2c2c2b;stroke-width:0.26756167" />
      <path
         d="m 188.548,598.745 c 6.06,3.55 9.704,8.793 9.816,16.508 2.008,-5.614 2.528,-12.53 -0.223,-22.308"
         inkscape:connector-curvature="0"
         id="path88"
         style="fill:none;stroke:#2c2c2b;stroke-width:0.26756167" />
      <path
         d="m 322.639,680.783 c 29.988,4.314 54.245,15.178 75.898,29.019 6.547,8.782 14.583,14.586 25.894,13.841 -4.836,-17.413 -11.087,-26.342 -18.304,-29.467 -14.454,-2.79 -28.257,-6.883 -41.521,-12.054 -14.915,-6.167 -27.249,-7.173 -39.734,-8.483 -0.744,2.382 -1.489,4.763 -2.233,7.144 z"
         inkscape:connector-curvature="0"
         id="path90"
         style="fill:#009240;stroke:#2c2c2b;stroke-width:0.26756167" />
      <path
         d="m 399.43,709.802 c -1.042,-6.696 0.297,-12.203 4.018,-16.519"
         inkscape:connector-curvature="0"
         id="path92"
         style="fill:none;stroke:#2c2c2b;stroke-width:0.26756167" />
      <path
         d="m 429.809,139.588 c -3.274,7.145 -4.763,13.695 -4.466,19.65 -2.829,-9.453 -10.569,-16.45 -20.544,-22.33 1.49,18.16 5.956,31.558 13.398,40.194 -8.038,-3.584 -16.077,-2.984 -24.116,-1.787 16.376,16.81 32.751,16.844 49.126,17.864 9.676,10.198 17.119,20.767 19.65,32.155 -4.602,-7.156 -14.432,-10.129 -25.009,-12.504 14.461,24.619 19.758,32.818 31.261,36.621 8.812,4.705 12.966,18.726 16.971,33.048 -0.964,0.936 1.588,-0.322 -2.457,7.593 -1.609,-7.324 -9.095,-9.439 -14.514,-12.952 5.583,26.125 15.259,39.97 26.796,48.233 3.877,11.012 7.156,22.324 6.253,35.727 -4.095,-6.55 -9.007,-9.825 -14.291,-11.611 2.977,41.457 9.229,55.898 16.97,58.058 -0.117,11.749 -0.767,23.676 -4.466,36.621 -4.168,-7.071 -8.337,-12.282 -12.504,-13.398 -7.071,36.545 -5.136,50.985 0.893,55.378 -3.573,8.634 -7.146,17.268 -10.719,25.903 -0.585,6.701 -5.352,12.357 -10.718,17.864 -0.708,-9.714 -2.867,-17.976 -7.145,-24.117 -10.495,17.343 -15.408,35.058 -8.039,53.592 -4.764,13.249 -11.017,24.264 -20.544,30.369 -2.679,-0.597 -2.976,-4.765 -0.893,-12.505 -4.652,2.529 -9.044,6.1 -12.505,13.398 0,-5.062 0,-10.123 0,-15.184 -20.879,20.352 -18.648,31.815 -22.33,45.553 -3.224,11.035 -31.619,25.884 -74.135,42.873 0.893,2.68 0.448,10.713 1.341,13.393 43.135,-16.51 66.871,-36.779 79.047,-50.907 20.817,10.341 34.488,-2.18 49.126,-11.612 -7.444,-0.298 -14.887,-0.595 -22.33,-0.893 8.487,-3.711 16.824,-8.467 24.116,-20.543 -4.316,2.238 -8.781,4.027 -14.291,2.679 7.145,-5.36 12.504,-12.505 16.077,-21.437 10.699,-1.608 21.079,-0.36 33.049,-13.397 3.67,-8.19 11.382,-10.319 17.864,-14.292 -5.955,-0.896 -11.91,-1.494 -17.864,0 5.447,-2.888 8.566,-8.106 11.611,-13.398 -7.393,0.694 -14.594,0.615 -23.223,6.253 8.708,-13.919 13.323,-28.657 16.078,-43.767 16.076,2.971 30.963,-13.702 44.659,-50.019 -6.851,5.225 -13.403,9.105 -17.864,3.573 1.899,-5.657 5.367,-11.315 3.573,-16.971 -4.615,12.281 -10.867,17.193 -17.864,18.757 5.136,-15.631 6.178,-29.624 5.36,-42.873 15.48,-13.548 17.862,-32.007 14.291,-52.699 -2.958,3.216 -5.599,5.479 -9.825,12.505 1.116,-8.188 -0.224,-14.738 -2.68,-20.544 -0.893,2.084 -1.786,4.169 -2.68,6.253 0.446,-10.793 -1.936,-20.172 -6.252,-28.582 5.7,-13.839 8.009,-30.808 -1.786,-58.951 -3.354,6.55 -7.979,13.099 -6.253,19.65 -3.275,-10.421 -6.55,-20.842 -9.825,-31.262 7.179,-30.739 2.341,-31.489 -10.718,-61.631 -3.877,5.353 -8.719,13.534 -7.814,23.668 -3.946,-12.505 -15.929,-22.626 -23.446,-30.367 -0.075,-12.531 2.154,-22.854 -13.4,-46.892 z"
         inkscape:connector-curvature="0"
         id="path94"
         style="fill:#009240;stroke:#2c2c2b;stroke-width:0.26756167" />
      <path
         d="m 425.687,159.708 c 2.711,14.357 8.215,23.13 14.501,30.34 -6.396,-6.339 -13.758,-10.987 -22.532,-13.162"
         inkscape:connector-curvature="0"
         id="path96"
         style="fill:#009240;stroke:#2c2c2b;stroke-width:0.26756167" />
      <path
         d="m 456.027,199.195 -1.785,-7.139 2.677,-0.223 2.677,11.824 -3.569,-4.462 z"
         inkscape:connector-curvature="0"
         id="path98"
         style="fill:#009240;stroke:#2c2c2b;stroke-width:0.26756167" />
      <path
         d="m 488.362,263.092 1.24,-7.253 2.54,0.873 -2.308,11.901 -1.472,-5.521 z"
         inkscape:connector-curvature="0"
         id="path100"
         style="fill:#009240;stroke:#2c2c2b;stroke-width:0.26756167" />
      <path
         d="m 506.726,334.773 1.239,-7.253 2.54,0.873 -2.308,11.901 -1.471,-5.521 z"
         inkscape:connector-curvature="0"
         id="path102"
         style="fill:#009240;stroke:#2c2c2b;stroke-width:0.26756167" />
      <path
         d="m 510.642,423.9 5.014,-6.385 1.884,1.915 -7.375,9.622 0.477,-5.152 z"
         inkscape:connector-curvature="0"
         id="path104"
         style="fill:#009240;stroke:#2c2c2b;stroke-width:0.26756167" />
      <path
         d="m 489.405,510.542 4.777,-3.741 0.613,2.523 -7.09,5.711 1.7,-4.493 z"
         inkscape:connector-curvature="0"
         id="path106"
         style="fill:#009240;stroke:#2c2c2b;stroke-width:0.26756167" />
      <path
         d="m 450.07,585.11 5.783,-1.836 -0.308,2.577 -8.638,2.876 3.163,-3.617 z"
         inkscape:connector-curvature="0"
         id="path108"
         style="fill:#009240;stroke:#2c2c2b;stroke-width:0.26756167" />
      <path
         d="m 391.106,637.046 6.067,-0.114 -1.028,2.384 -9.1,0.297 4.061,-2.567 z"
         inkscape:connector-curvature="0"
         id="path110"
         style="fill:#009240;stroke:#2c2c2b;stroke-width:0.26756167" />
      <path
         d="m 454.773,207.296 -9.424,-2.442 0.981,-2.501 6.884,1.924 1.559,3.019 z"
         inkscape:connector-curvature="0"
         id="path112"
         style="fill:#009240;stroke:#2c2c2b;stroke-width:0.26756167" />
      <path
         d="m 482.051,268.285 -9.093,-3.48 1.255,-2.375 6.625,2.681 1.213,3.174 z"
         inkscape:connector-curvature="0"
         id="path114"
         style="fill:#009240;stroke:#2c2c2b;stroke-width:0.26756167" />
      <path
         d="m 500.414,339.966 -9.093,-3.48 1.255,-2.375 6.626,2.681 1.212,3.174 z"
         inkscape:connector-curvature="0"
         id="path116"
         style="fill:#009240;stroke:#2c2c2b;stroke-width:0.26756167" />
      <path
         d="m 504.238,427.294 -7.478,-9.178 2.183,-1.567 5.403,6.248 -0.108,4.497 z"
         inkscape:connector-curvature="0"
         id="path118"
         style="fill:#009240;stroke:#2c2c2b;stroke-width:0.26756167" />
      <path
         d="m 478.798,508.464 -2.38,-9.039 2.081,-0.414 1.845,6.256 -1.546,3.197 z"
         inkscape:connector-curvature="0"
         id="path120"
         style="fill:#009240;stroke:#2c2c2b;stroke-width:0.26756167" />
      <path
         d="m 442.83,579.901 -1.471,-9.232 2.112,-0.204 1.214,6.407 -1.855,3.029 z"
         inkscape:connector-curvature="0"
         id="path122"
         style="fill:#009240;stroke:#2c2c2b;stroke-width:0.26756167" />
      <path
         d="m 384.674,633.512 -0.801,-8.116 2.111,-0.205 1.215,6.408 -2.525,1.913 z"
         inkscape:connector-curvature="0"
         id="path124"
         style="fill:#009240;stroke:#2c2c2b;stroke-width:0.26756167" />
      <path
         d="m 455.225,186.033 c -2.02,0 -3.66,1.749 -3.66,3.904 0,2.155 1.64,3.904 3.66,3.904 2.02,0 3.66,-1.749 3.66,-3.904 0,-2.155 -1.64,-3.904 -3.66,-3.904 z"
         inkscape:connector-curvature="0"
         id="path126"
         style="fill:#e21c2a;stroke:#2c2c2b;stroke-width:0.26756167" />
      <path
         d="m 494.663,251.692 c -1.514,-1.338 -3.901,-1.112 -5.328,0.503 -1.426,1.615 -1.355,4.011 0.159,5.349 1.514,1.337 3.901,1.112 5.328,-0.503 1.426,-1.615 1.355,-4.012 -0.159,-5.349 z"
         inkscape:connector-curvature="0"
         id="path128"
         style="fill:#e21c2a;stroke:#2c2c2b;stroke-width:0.26756167" />
      <path
         d="m 513.026,323.373 c -1.514,-1.338 -3.901,-1.112 -5.328,0.503 -1.426,1.615 -1.355,4.011 0.159,5.349 1.514,1.337 3.901,1.112 5.328,-0.503 1.426,-1.615 1.355,-4.012 -0.159,-5.349 z"
         inkscape:connector-curvature="0"
         id="path130"
         style="fill:#e21c2a;stroke:#2c2c2b;stroke-width:0.26756167" />
      <path
         d="m 522.035,416.062 c -0.758,-1.873 -2.995,-2.736 -4.992,-1.927 -1.998,0.809 -3.003,2.986 -2.245,4.858 0.759,1.873 2.996,2.736 4.993,1.927 1.997,-0.809 3.003,-2.986 2.244,-4.858 z"
         inkscape:connector-curvature="0"
         id="path132"
         style="fill:#e21c2a;stroke:#2c2c2b;stroke-width:0.26756167" />
      <path
         d="m 500.281,508.116 c 0.083,-2.019 -1.596,-3.73 -3.749,-3.819 -2.153,-0.089 -3.969,1.477 -4.053,3.496 -0.083,2.018 1.597,3.729 3.75,3.818 2.153,0.089 3.968,-1.477 4.052,-3.495 z"
         inkscape:connector-curvature="0"
         id="path134"
         style="fill:#e21c2a;stroke:#2c2c2b;stroke-width:0.26756167" />
      <path
         d="m 460.662,585.966 c 0.783,-1.862 -0.193,-4.052 -2.18,-4.887 -1.986,-0.836 -4.234,-0.002 -5.017,1.86 -0.784,1.862 0.193,4.052 2.179,4.887 1.986,0.836 4.235,0.002 5.018,-1.86 z"
         inkscape:connector-curvature="0"
         id="path136"
         style="fill:#e21c2a;stroke:#2c2c2b;stroke-width:0.26756167" />
      <path
         d="m 402.283,639.577 c 0.783,-1.862 -0.193,-4.052 -2.179,-4.887 -1.987,-0.836 -4.235,-0.003 -5.018,1.86 -0.783,1.862 0.193,4.051 2.179,4.887 1.987,0.835 4.235,0.002 5.018,-1.86 z"
         inkscape:connector-curvature="0"
         id="path138"
         style="fill:#e21c2a;stroke:#2c2c2b;stroke-width:0.26756167" />
      <path
         d="m 440.377,201.314 c -0.891,1.812 -0.045,4.056 1.888,5.007 1.934,0.951 4.227,0.251 5.119,-1.561 0.892,-1.813 0.046,-4.057 -1.888,-5.008 -1.934,-0.951 -4.227,-0.251 -5.119,1.562 z"
         inkscape:connector-curvature="0"
         id="path140"
         style="fill:#e21c2a;stroke:#2c2c2b;stroke-width:0.26756167" />
      <path
         d="m 470.295,258.893 c -1.868,0.768 -2.719,3.01 -1.899,5.002 0.819,1.993 3.001,2.987 4.869,2.219 1.869,-0.769 2.72,-3.01 1.9,-5.003 -0.819,-1.993 -3.001,-2.987 -4.87,-2.218 z"
         inkscape:connector-curvature="0"
         id="path142"
         style="fill:#e21c2a;stroke:#2c2c2b;stroke-width:0.26756167" />
      <path
         d="m 488.658,330.574 c -1.868,0.768 -2.719,3.009 -1.899,5.002 0.819,1.993 3.001,2.987 4.87,2.219 1.868,-0.769 2.719,-3.01 1.899,-5.003 -0.819,-1.993 -3.001,-2.987 -4.87,-2.218 z"
         inkscape:connector-curvature="0"
         id="path144"
         style="fill:#e21c2a;stroke:#2c2c2b;stroke-width:0.26756167" />
      <path
         d="m 497.014,411.636 c -2.015,-0.146 -3.776,1.481 -3.932,3.63 -0.155,2.149 1.354,4.012 3.369,4.158 2.015,0.145 3.777,-1.481 3.932,-3.63 0.156,-2.149 -1.354,-4.012 -3.369,-4.158 z"
         inkscape:connector-curvature="0"
         id="path146"
         style="fill:#e21c2a;stroke:#2c2c2b;stroke-width:0.26756167" />
      <path
         d="m 479.329,493.74 c -1.774,-0.966 -4.051,-0.213 -5.081,1.679 -1.03,1.893 -0.426,4.213 1.348,5.179 1.775,0.966 4.051,0.214 5.081,-1.679 1.031,-1.893 0.426,-4.213 -1.348,-5.179 z"
         inkscape:connector-curvature="0"
         id="path148"
         style="fill:#e21c2a;stroke:#2c2c2b;stroke-width:0.26756167" />
      <path
         d="m 444.82,565.302 c -1.669,-1.137 -4.009,-0.615 -5.222,1.166 -1.213,1.781 -0.843,4.15 0.827,5.287 1.67,1.138 4.01,0.615 5.223,-1.166 1.213,-1.781 0.842,-4.15 -0.828,-5.287 z"
         inkscape:connector-curvature="0"
         id="path150"
         style="fill:#e21c2a;stroke:#2c2c2b;stroke-width:0.26756167" />
      <path
         d="m 386.442,618.467 c -1.67,-1.138 -4.01,-0.615 -5.223,1.166 -1.213,1.781 -0.842,4.15 0.827,5.287 1.67,1.137 4.01,0.615 5.223,-1.166 1.213,-1.781 0.842,-4.15 -0.827,-5.287 z"
         inkscape:connector-curvature="0"
         id="path152"
         style="fill:#e21c2a;stroke:#2c2c2b;stroke-width:0.26756167" />
      <path
         d="m 467.404,214.811 c 11.181,8.492 14.636,25.633 14.501,39.486 -15.297,-4.373 -22.662,-23.583 -24.763,-35.248 -0.669,-3.681 -1.115,-7.175 -1.785,-13.831 4.277,2.157 8.367,5.057 12.047,9.593 z"
         inkscape:connector-curvature="0"
         id="path154"
         style="fill:#009240;stroke:#2c2c2b;stroke-width:0.26756167" />
      <path
         d="m 485.474,268.798 c -5.314,29.255 3.95,44.447 14.501,55.325 0.665,-19.446 -1.482,-40.639 -14.501,-55.325 z"
         inkscape:connector-curvature="0"
         id="path156"
         style="fill:#009240;stroke:#2c2c2b;stroke-width:0.26756167" />
      <path
         d="m 514.922,366.733 c -5.448,10.047 -9.947,20.885 -11.824,33.909 3.886,-16.732 3.179,-29.225 -0.669,-38.817"
         inkscape:connector-curvature="0"
         id="path158"
         style="fill:#009240;stroke:#2c2c2b;stroke-width:0.26756167" />
      <path
         d="m 508.452,449.944 c -10.895,8.848 -18.629,19.928 -19.408,35.917"
         inkscape:connector-curvature="0"
         id="path160"
         style="fill:#009240;stroke:#2c2c2b;stroke-width:0.26756167" />
      <path
         d="m 503.321,452.844 -2.677,-9.146"
         inkscape:connector-curvature="0"
         id="path162"
         style="fill:#009240;stroke:#2c2c2b;stroke-width:0.26756167" />
      <path
         d="m 519.16,449.721 c -1.418,17.132 -7.421,32.842 -26.101,44.617"
         inkscape:connector-curvature="0"
         id="path164"
         style="fill:#009240;stroke:#2c2c2b;stroke-width:0.26756167" />
      <path
         d="m 466.289,530.032 c -7.876,4.337 -11.24,14.99 -13.162,27.663 15.69,-3.057 19.773,-11.273 24.539,-19.185"
         inkscape:connector-curvature="0"
         id="path166"
         style="fill:#009240;stroke:#2c2c2b;stroke-width:0.26756167" />
      <path
         d="m 488.374,547.433 c -7.472,11.23 -17.362,18.74 -32.57,18.07"
         inkscape:connector-curvature="0"
         id="path168"
         style="fill:#009240;stroke:#2c2c2b;stroke-width:0.26756167" />
      <path
         d="m 439.295,595.843 -11.154,0.446 1.562,-7.362"
         inkscape:connector-curvature="0"
         id="path170"
         style="fill:#009240;stroke:#2c2c2b;stroke-width:0.26756167" />
      <path
         d="m 429.033,614.582 c -10.113,-1.153 -20.226,-1.004 -30.34,2.008"
         inkscape:connector-curvature="0"
         id="path172"
         style="fill:#009240;stroke:#2c2c2b;stroke-width:0.26756167" />
      <path
         d="m 427.249,596.958 c -6.06,3.551 -9.704,8.793 -9.816,16.509 -2.008,-5.615 -2.528,-12.53 0.223,-22.309"
         inkscape:connector-curvature="0"
         id="path174"
         style="fill:#009240;stroke:#2c2c2b;stroke-width:0.26756167" />
      <path
         d="m 294.496,678.996 c -29.988,4.314 -55.583,15.178 -77.236,29.02 -6.547,8.781 -14.583,14.585 -25.894,13.84 4.836,-17.412 11.087,-26.341 18.304,-29.466 14.454,-2.791 28.257,-6.884 41.521,-12.055 14.915,-6.167 29.257,-7.173 41.742,-8.482 0.744,2.381 0.819,4.762 1.563,7.143 z"
         inkscape:connector-curvature="0"
         id="path176"
         style="fill:#009240;stroke:#2c2c2b;stroke-width:0.26756167" />
      <path
         d="m 216.367,708.016 c 1.042,-6.697 -0.297,-12.203 -4.018,-16.519"
         inkscape:connector-curvature="0"
         id="path178"
         style="fill:#009240;stroke:#2c2c2b;stroke-width:0.26756167" />
      <path
         d="m 305.677,164.598 c 89.236,0 161.668,99.444 161.668,221.959 0,122.515 -72.432,221.959 -161.668,221.959 -89.237,0 -161.669,-99.444 -161.669,-221.959 0,-122.515 72.432,-221.959 161.669,-221.959 z"
         inkscape:connector-curvature="0"
         id="path180"
         style="fill:#9fdcf5;stroke:#2c2c2b;stroke-width:0.26756167" />
      <path
         d="m 144.008,372.712 c 12.987,-12.978 25.483,-26.604 39.44,-41.815 7.235,-7.885 18.363,-14.255 25.763,-27.854 5.471,0.02 11.798,4.747 19.651,17.864 6.196,-4.355 8.993,-13.578 15.107,-18.241 4.616,-3.52 5.19,-11.255 12.582,-15.701 6.624,2.011 12.429,11.389 17.864,24.117 6.51,-15.672 14.325,-28.998 26.796,-33.942 11.025,16.825 21.154,27.25 25.009,28.582 11.09,4.839 21.362,12.134 31.262,20.544 17.118,19.49 22.45,26.117 25.008,37.069 14.329,-11.76 25.569,-18.46 41.089,-25.457 7.312,7.872 14.355,16.013 24.116,21.436 10.569,3.201 16.226,7.221 19.65,11.612 0,4.466 0,8.932 0,13.398 -116.115,2.86 -219.114,4.297 -322.442,5.805 -1.192,-5.657 0.296,-11.76 -0.895,-17.417 z"
         inkscape:connector-curvature="0"
         id="path182"
         style="fill:#d29464;stroke:#2c2c2b;stroke-width:0.26756167" />
      <path
         d="m 229.33,321.385 -16.965,21.876 c -26.963,24.928 -27.259,33.857 -34.378,46.878 l 25.895,-16.519 c 7.359,1.087 14.643,2.629 23.216,-3.571 -9.525,2.381 -11.906,-1.488 -17.859,-2.232 6.253,0.008 12.355,-0.73 17.412,-6.697 -11.491,-1.632 -11.478,-5.355 -9.822,-9.376 2.937,-5.744 0.476,-10.537 25.002,-20.09 0.907,-2.236 0.618,-4.174 -8.037,-4.019 2.53,-9.97 7.441,-19.941 14.734,-29.912 -5.209,5.804 -10.418,11.608 -15.626,17.412 -1.191,2.083 -2.382,4.167 -3.572,6.25 z"
         inkscape:connector-curvature="0"
         id="path184"
         style="fill:#cc6f40;stroke:#cc6f40;stroke-width:0.26756167" />
      <path
         d="m 336.661,311.304 c 0.893,1.786 2.957,4.244 3.85,5.137 17.023,21.096 4.214,23.223 -11.611,23.223 -2.74,3.553 -19.742,20.138 -13.398,25.009 0,0 2.677,2.011 2.677,2.011 2.679,0 3.575,0.669 6.255,0.669 0,0 0.893,0.893 0.893,0.893 0,0 0.893,1.787 0.893,1.787 0,0.893 0,1.786 0,2.679 0,0 -3.57,4.464 -3.57,4.464 -0.893,0 -1.787,0.893 -2.68,0.893 0,0 -1.786,1.786 -1.786,1.786 -0.893,0 -2.68,1.787 -2.68,1.787 0,0 -1.786,1.786 -1.786,1.786 -0.893,0 -4.466,1.786 -4.466,3.573 l 80.388,-1.116 8.469,-0.225 c 0,0 -1.113,-2.004 -3.343,-4.235 0.952,1.428 -5.975,-11.073 -7.809,-12.286 -0.495,-0.495 -3.572,-4.087 -3.572,-4.466 0,0 -1.116,-2.508 -1.116,-2.508 -2.498,-11.011 -19.046,-29.407 -19.428,-29.647 0,0 -0.893,-0.893 -0.893,-0.893 -5.172,-7.6 -15.758,-13.655 -18.133,-15.962 0,0 -0.953,-0.56 -0.953,-0.56 -3.297,-1.875 -5.249,-3.58 -6.201,-3.799 z"
         inkscape:connector-curvature="0"
         id="path186"
         style="fill:#883e33;stroke:#894033;stroke-width:0.26756167" />
      <path
         d="m 313.715,303.936 c 2.68,2.68 4.466,5.359 7.146,7.146 0.893,1.786 3.573,5.359 5.359,6.252 0,0 0.893,1.786 0.893,1.786 0,0 1.787,1.787 1.787,1.787 0,0 1.786,0.893 1.786,0.893 0.893,0.893 2.68,2.68 2.68,3.573 1.786,0 0,0.893 1.786,0.893 0,-0.893 -1.786,0 -1.786,0 1.786,-0.893 0,0 -1.787,0 -0.893,0 -3.572,0 -4.466,0 -0.893,0 -1.786,-0.893 -2.679,-0.893 0,0 -1.787,-1.787 -1.787,-1.787 -0.893,-0.893 -5.359,-4.466 -6.252,-4.466 0,-0.893 -0.893,-1.786 -0.893,-2.679 0,0 -1.787,-1.787 -1.787,-1.787 0,-0.893 -0.893,-2.679 -1.786,-2.679 1.786,1.786 0.893,0 0,-1.787 0,0 -1.786,-1.786 -1.786,-1.786 1.786,1.786 0,0 0,-1.786 -0.894,0 -1.787,-1.787 -1.787,-2.68 0,0 -1.786,-1.786 -1.786,-2.679 1.786,2.679 0,0.893 0,-1.787 0,0 -0.893,-0.893 -0.893,-0.893 0.893,0.893 0,0 0,-1.786 0,-0.894 -2.679,-10.27 -2.679,-11.163 0,0 3.572,9.376 3.572,9.376 0.893,0.893 1.786,1.787 2.679,2.68 0.894,0.893 1.787,2.679 2.68,3.573 0,0 0.893,1.786 1.786,2.679 z"
         inkscape:connector-curvature="0"
         id="path188"
         style="fill:#cc6f40;stroke:#cc6f40;stroke-width:0.26756167" />
      <path
         d="m 260.135,294.151 -3.125,-4.911 c 0,3.125 1.34,6.251 1.34,9.822 2.232,4.911 4.018,14.733 4.018,20.091 0,0.446 0.446,0.893 0.446,1.339 0.447,0.893 0.447,3.125 0.447,4.465 0,-3.572 0,-1.34 0.893,0 0,-0.447 0.446,-0.447 0.892,-0.447 0,0 0.893,-0.446 0.893,-0.446 0,0 0.447,-0.893 0.447,-0.893 0.446,0 1.339,-0.893 1.786,-0.893 0,-0.893 1.339,-1.786 1.339,-2.679 0.893,0 1.786,-3.571 2.679,-3.571 0,-1.34 0,-3.572 0,-4.911 -0.893,-0.893 -4.911,-8.037 -4.911,-9.376 -0.893,0 -1.34,-1.339 -1.34,-1.786 0,0 -1.339,-1.339 -1.339,-1.786 -0.446,0 -0.893,-0.446 -0.893,-0.893 0,0 -0.446,-0.446 -0.446,-0.446 0,0 -0.447,-0.447 -0.447,-0.447 0,0 -0.446,-0.446 -0.446,-0.446 0,0 -0.447,-0.446 -0.447,-0.446 -0.446,0 -1.339,-0.893 -1.786,-1.34 z"
         inkscape:connector-curvature="0"
         id="path190"
         style="fill:#cc6f40;stroke:#cc6f40;stroke-width:0.26756167" />
      <path
         d="m 210.579,307.545 c -8.334,8.185 -16.668,16.37 -25.002,24.555 -4.911,6.399 -9.822,12.798 -14.733,19.198 8.185,-7.739 16.37,-15.478 24.555,-23.216 4.465,-3.572 8.929,-7.143 13.394,-10.715 2.976,7.887 4.167,15.774 3.572,23.662 4.911,-6.697 9.822,-13.394 14.733,-20.09 -5.477,-6.876 -7.779,-8.989 -10.715,-12.055 -1.935,-0.446 -3.87,-0.893 -5.804,-1.339 z"
         inkscape:connector-curvature="0"
         id="path192"
         style="fill:#d7b46d;stroke:#d7b46d;stroke-width:0.26756167" />
      <path
         d="m 264.6,327.189 c -3.572,3.572 -5.804,11.161 -9.822,13.84 0,4.911 -4.465,14.733 -5.804,20.091 -0.893,3.125 -5.804,9.822 -5.804,12.5 8.036,-4.018 12.054,-18.751 14.287,-25.448 1.339,0 7.143,-4.018 8.036,-5.357 3.125,0 12.501,-9.822 12.501,-12.501 -1.34,0 -1.34,-1.786 -2.233,-1.786 0.893,1.786 0.893,0 0,-0.893 -1.785,0 -2.232,-7.143 -2.232,-8.482 -0.893,0 -2.232,4.464 -2.232,5.357 -0.893,0 0,0.447 -0.893,0.447 0,0.893 -0.893,0.893 -0.893,1.339 -0.893,0 -2.232,0.447 -4.911,0.893 z"
         inkscape:connector-curvature="0"
         id="path194"
         style="fill:#883e33;stroke:#894033;stroke-width:0.26756167" />
      <path
         d="m 423.539,342.368 0.892,8.037 12.055,18.304 17.412,11.608 11.608,1.786 1.785,-8.036 -26.787,-13.394 -16.965,-18.305 z"
         inkscape:connector-curvature="0"
         id="path196"
         style="fill:#cc6f40;stroke:#cc6f40;stroke-width:0.26756167" />
      <g
         id="g198">
        <path
           d="m 349.825,207.99 c -1.198,3.38 -1.464,6.893 0.319,10.699 2.156,3.22 2.848,6.787 2.875,9.581 -0.324,3.729 0.849,6.336 2.235,8.783 0.692,1.011 1.384,2.022 2.076,3.034 0.479,-1.118 0.958,-2.236 1.437,-3.354 1.013,-1.594 2.078,-3.721 2.236,-7.026 -0.32,-4.045 -0.108,-6.919 1.277,-9.261 1.926,-3.66 3.584,-7.938 2.076,-11.977 1.239,3.315 3.878,4.348 0.799,11.019 -0.496,2.489 -1.651,5.198 -0.639,7.185 0.853,3.992 0.205,7.568 -1.923,10.709 0.215,1.168 0.43,2.335 0.645,3.503 -4.205,0.373 -8.41,0.745 -12.615,1.118 0.373,-1.65 0.745,-2.981 1.118,-4.631 -1.863,-0.878 -2.661,-3.187 -2.395,-8.303 0.399,-3.088 -0.08,-6.175 -0.958,-9.262 -2.076,-4.365 -1.597,-8.304 1.437,-11.817 z"
           inkscape:connector-curvature="0"
           id="path200"
           style="fill:#ffcc00;stroke:#2c2c2b;stroke-width:0.26756167" />
        <path
           d="m 385.699,216.612 c -3.168,1.643 -5.739,3.999 -6.997,7.922 -0.588,3.746 -2.489,6.774 -4.359,8.806 -2.759,2.473 -3.657,5.127 -4.29,7.808 -0.173,1.186 -0.347,2.372 -0.521,3.559 1.109,-0.489 2.218,-0.978 3.326,-1.467 1.824,-0.479 4.047,-1.308 6.397,-3.586 2.499,-3.127 4.599,-5.058 7.202,-5.83 3.893,-1.365 8.007,-3.351 9.626,-7.26 -1.328,3.209 -0.081,5.698 -6.86,8.47 -2.048,1.466 -4.731,2.655 -5.328,4.756 -2.07,3.441 -5.604,5.59 -9.295,6.447 -0.631,0.984 -0.623,1.968 -1.254,2.952 -3.35,-2.512 -6.701,-5.024 -10.051,-7.535 1.39,-0.943 1.606,-1.344 2.996,-2.287 -0.779,-1.865 1.151,-4.369 4.806,-7.88 2.381,-1.961 4.115,-4.503 5.555,-7.309 1.421,-4.518 4.436,-7.041 9.047,-7.566 z"
           inkscape:connector-curvature="0"
           id="path202"
           style="fill:#ffcc00;stroke:#2c2c2b;stroke-width:0.26756167" />
        <path
           d="m 405.58,249.541 c -3.325,-1.296 -6.792,-1.674 -10.57,-0.032 -3.203,2.03 -6.733,2.599 -9.493,2.534 -3.68,-0.441 -6.267,0.635 -8.698,1.928 -1.006,0.652 -2.012,1.304 -3.018,1.957 1.098,0.51 2.197,1.021 3.296,1.531 1.564,1.055 3.654,2.178 6.915,2.442 3.999,-0.186 6.835,0.118 9.134,1.565 3.594,2.025 7.801,3.807 11.805,2.445 -3.287,1.118 -4.335,3.697 -10.89,0.432 -2.453,-0.571 -5.117,-1.803 -7.09,-0.866 -3.951,0.715 -7.898,-0.523 -10.977,-2.731 -1.155,0.175 -1.889,0.83 -3.045,1.005 -0.323,-4.175 -0.646,-8.35 -0.969,-12.525 1.625,0.422 2.069,0.321 3.694,0.743 0.888,-1.816 4.044,-2.017 9.094,-1.588 3.044,0.496 6.099,0.122 9.157,-0.647 4.333,-1.913 8.218,-1.311 11.655,1.807 z"
           inkscape:connector-curvature="0"
           id="path204"
           style="fill:#ffcc00;stroke:#2c2c2b;stroke-width:0.26756167" />
        <path
           d="m 396.219,284.762 c -1.573,-3.204 -3.871,-5.826 -7.765,-7.172 -3.732,-0.671 -6.717,-2.639 -8.706,-4.554 -2.412,-2.814 -5.045,-3.771 -7.711,-4.462 -1.182,-0.201 -2.364,-0.401 -3.547,-0.601 0.464,1.119 0.929,2.239 1.393,3.358 0.438,1.834 1.218,4.075 3.442,6.475 3.071,2.568 4.955,4.71 5.669,7.331 1.277,3.922 3.172,8.079 7.043,9.785 -3.178,-1.4 -5.694,-0.209 -8.315,-7.047 -1.42,-2.081 -2.549,-4.789 -4.636,-5.433 -3.394,-2.146 -5.464,-5.727 -6.238,-9.436 -0.97,-0.653 -1.954,-0.667 -2.923,-1.32 2.585,-3.293 5.171,-6.587 7.757,-9.881 0.912,1.411 1.307,1.636 2.219,3.046 1.882,-0.737 4.342,1.249 7.771,4.981 1.908,2.425 4.411,4.215 7.184,5.716 4.485,1.522 6.939,4.593 7.363,9.214 z"
           inkscape:connector-curvature="0"
           id="path206"
           style="fill:#ffcc00;stroke:#2c2c2b;stroke-width:0.26756167" />
        <path
           d="m 364.569,303.495 c 1.153,-3.377 1.382,-6.857 -0.419,-10.561 -2.164,-3.114 -2.883,-6.616 -2.937,-9.377 0.285,-3.694 -0.901,-6.233 -2.296,-8.607 -0.695,-0.978 -1.389,-1.955 -2.084,-2.933 -0.463,1.12 -0.926,2.24 -1.39,3.359 -0.986,1.607 -2.02,3.743 -2.144,7.013 0.356,3.987 0.173,6.834 -1.175,9.192 -1.87,3.677 -3.47,7.956 -1.939,11.899 -1.258,-3.237 -3.879,-4.174 -0.896,-10.862 0.466,-2.476 1.583,-5.189 0.563,-7.12 -0.882,-3.918 0.186,-7.913 2.261,-11.084 -0.224,-1.147 -0.91,-1.852 -1.134,-2.999 4.158,-0.501 8.315,-1.002 12.472,-1.502 -0.352,1.642 -0.232,2.08 -0.585,3.723 1.852,0.809 2.188,3.953 1.974,9.017 -0.365,3.063 0.138,6.098 1.037,9.121 2.096,4.248 1.66,8.155 -1.308,11.721 z"
           inkscape:connector-curvature="0"
           id="path208"
           style="fill:#ffcc00;stroke:#2c2c2b;stroke-width:0.26756167" />
        <path
           d="m 328.157,295.204 c 3.204,-1.573 5.826,-3.871 7.172,-7.765 0.672,-3.732 2.64,-6.717 4.554,-8.706 2.814,-2.412 3.771,-5.046 4.462,-7.711 0.2,-1.182 0.401,-2.364 0.601,-3.547 -1.12,0.464 -2.239,0.929 -3.358,1.393 -1.834,0.438 -4.075,1.218 -6.475,3.442 -2.568,3.071 -4.71,4.955 -7.331,5.669 -3.922,1.278 -8.079,3.172 -9.785,7.043 1.4,-3.178 0.208,-5.694 7.047,-8.314 2.08,-1.421 4.789,-2.55 5.433,-4.637 2.146,-3.394 5.727,-5.464 9.436,-6.238 0.653,-0.97 0.667,-1.954 1.319,-2.923 3.294,2.585 6.588,5.171 9.882,7.757 -1.411,0.911 -1.636,1.307 -3.047,2.219 0.738,1.882 -1.248,4.342 -4.98,7.771 -2.425,1.908 -4.215,4.41 -5.716,7.184 -1.521,4.485 -4.593,6.94 -9.214,7.363 z"
           inkscape:connector-curvature="0"
           id="path210"
           style="fill:#ffcc00;stroke:#2c2c2b;stroke-width:0.26756167" />
        <path
           d="m 308.865,263.223 c 3.378,1.153 6.857,1.383 10.562,-0.419 3.114,-2.164 6.616,-2.883 9.376,-2.937 3.695,0.285 6.234,-0.901 8.608,-2.296 0.977,-0.695 1.955,-1.389 2.932,-2.084 -1.119,-0.463 -2.239,-0.926 -3.358,-1.39 -1.608,-0.986 -3.743,-2.02 -7.013,-2.144 -3.988,0.356 -6.834,0.173 -9.192,-1.175 -3.677,-1.87 -7.956,-3.47 -11.899,-1.939 3.236,-1.257 4.173,-3.879 10.862,-0.896 2.475,0.467 5.188,1.584 7.12,0.563 3.918,-0.882 7.913,0.186 11.083,2.261 1.147,-0.224 1.853,-0.91 3,-1.134 0.501,4.158 1.001,8.315 1.502,12.472 -1.642,-0.352 -2.081,-0.232 -3.723,-0.585 -0.809,1.852 -3.953,2.188 -9.017,1.974 -3.063,-0.365 -6.099,0.138 -9.121,1.037 -4.248,2.097 -8.155,1.661 -11.722,-1.308 z"
           inkscape:connector-curvature="0"
           id="path212"
           style="fill:#ffcc00;stroke:#2c2c2b;stroke-width:0.26756167" />
        <path
           d="m 318.259,227.726 c 1.573,3.203 3.871,5.826 7.764,7.171 3.733,0.672 6.717,2.64 8.707,4.554 2.412,2.814 5.045,3.77 7.71,4.462 1.183,0.2 2.365,0.4 3.547,0.601 -0.464,-1.12 -0.928,-2.239 -1.392,-3.358 -0.439,-1.834 -1.218,-4.075 -3.443,-6.475 -3.07,-2.568 -4.954,-4.71 -5.669,-7.331 -1.277,-3.922 -3.172,-8.079 -7.043,-9.785 3.178,1.4 5.694,0.209 8.315,7.047 1.42,2.081 2.549,4.789 4.637,5.433 3.394,2.146 5.464,5.727 6.238,9.436 0.969,0.652 1.953,0.667 2.923,1.319 -2.586,3.294 -5.171,6.588 -7.757,9.882 -0.912,-1.411 -1.307,-1.636 -2.219,-3.047 -1.882,0.738 -4.343,-1.248 -7.772,-4.98 -1.907,-2.424 -4.41,-4.215 -7.183,-5.716 -4.486,-1.521 -6.94,-4.592 -7.363,-9.213 z"
           inkscape:connector-curvature="0"
           id="path214"
           style="fill:#ffcc00;stroke:#2c2c2b;stroke-width:0.26756167" />
        <path
           d="m 356.372,206.872 -1.597,36.249 -16.926,-31.777 12.455,33.693 -28.104,-23.474 24.751,26.987 -35.291,-11.018 32.736,15.329 -36.089,3.673 36.727,1.437 -33.374,17.565 35.291,-13.094 -24.272,28.584 28.104,-25.39 -12.136,36.248 16.447,-34.491 2.396,38.324 1.916,-38.803 16.926,35.13 -12.455,-36.408 28.584,25.39 -24.911,-29.222 35.13,13.253 -33.214,-17.565 36.568,-1.756 -36.408,-3.034 32.735,-15.809 -35.131,12.136 23.634,-27.466 -26.827,24.113 11.497,-35.61 -15.809,33.214 -3.353,-36.408 z"
           inkscape:connector-curvature="0"
           id="path216"
           style="fill:#ffcc00;stroke:#2c2c2b;stroke-width:0.26756167" />
        <path
           d="m 357.49,236.893 c 10.665,0 19.322,8.585 19.322,19.162 0,10.577 -8.657,19.162 -19.322,19.162 -10.665,0 -19.322,-8.585 -19.322,-19.162 0,-10.577 8.657,-19.162 19.322,-19.162 z"
           inkscape:connector-curvature="0"
           id="path218"
           style="fill:#ffcc00;stroke:#2c2c2b;stroke-width:0.26756167" />
        <path
           d="m 340.643,250.546 c 5.724,-6.282 13.549,-4.577 14.212,0.319 0.08,3.726 0.16,7.452 0.239,11.178 0.613,0.799 1.544,1.171 2.795,1.118 -1.625,0.102 -2.096,-0.488 -2.635,-1.038 -0.16,-3.699 -0.319,-7.399 -0.479,-11.098 -1.669,-3.714 -9.276,-5.132 -14.132,-0.479 z"
           inkscape:connector-curvature="0"
           id="path220"
           style="fill:#1f211d;stroke:#2c2c2b;stroke-width:0.26756167" />
        <path
           d="m 352.779,260.047 c -0.16,2.582 0.851,2.821 2.395,1.996"
           inkscape:connector-curvature="0"
           id="path222"
           style="fill:#ffcc00;stroke:#2c2c2b;stroke-width:0.26756167" />
        <path
           d="m 361.482,259.648 c 0.937,2.294 -0.183,2.532 -1.597,2.475 -0.373,0 -0.745,0 -1.118,0"
           inkscape:connector-curvature="0"
           id="path224"
           style="fill:#ffcc00;stroke:#2c2c2b;stroke-width:0.26756167" />
        <path
           d="m 339.525,255.416 c 0.506,-0.08 1.012,-0.159 1.517,-0.239 3.726,-4.525 7.665,-5.11 11.817,-1.757"
           inkscape:connector-curvature="0"
           id="path226"
           style="fill:#ffcc00;stroke:#2c2c2b;stroke-width:0.26756167" />
        <path
           d="m 341.521,255.097 c 0.586,-0.08 1.171,-0.16 1.757,-0.24 3.034,-2.767 6.068,-2.767 9.102,0 l 1.118,0.16"
           inkscape:connector-curvature="0"
           id="path228"
           style="fill:#ffcc00;stroke:#2c2c2b;stroke-width:0.26756167" />
        <path
           d="m 353.338,255.975 c -0.319,0 -0.639,0 -0.958,0 -3.898,2.512 -7.399,1.3 -9.022,-1.038"
           inkscape:connector-curvature="0"
           id="path230"
           style="fill:#ffcc00;stroke:#2c2c2b;stroke-width:0.26756167" />
        <path
           d="m 346.871,252.941 c -0.213,1.384 0.106,2.129 0.958,2.236 0.931,-0.08 1.331,-0.799 1.197,-2.156"
           inkscape:connector-curvature="0"
           id="path232"
           style="fill:#ffcc00;stroke:#2c2c2b;stroke-width:0.26756167" />
        <path
           d="m 345.593,253.34 c -0.106,1.745 0.426,3.076 2.236,3.114 1.787,-0.022 2.584,-1.222 2.475,-3.114"
           inkscape:connector-curvature="0"
           id="path234"
           style="fill:#ffcc00;stroke:#2c2c2b;stroke-width:0.26756167" />
        <path
           d="m 359.007,251.105 c 3.114,-5.669 10.033,-6.893 14.771,-1.038 -5.137,-3.86 -10.061,-3.384 -14.771,1.038 z"
           inkscape:connector-curvature="0"
           id="path236"
           style="fill:#1f211d;stroke:#2c2c2b;stroke-width:0.26756167" />
        <path
           d="m 361.322,253.181 c 3.726,-3.167 7.771,-2.928 12.136,0.718"
           inkscape:connector-curvature="0"
           id="path238"
           style="fill:#ffcc00;stroke:#2c2c2b;stroke-width:0.26756167" />
        <path
           d="m 375.135,254.618 c -0.213,0.16 -0.426,0.319 -0.639,0.479 -1.177,0.192 -2.211,0.162 -2.954,-0.08 -3.885,2.857 -8.971,1.951 -10.38,-0.399 4.152,-2.821 7.825,-3.061 10.699,0.08"
           inkscape:connector-curvature="0"
           id="path240"
           style="fill:#ffcc00;stroke:#2c2c2b;stroke-width:0.26756167" />
        <path
           d="m 365.713,252.622 c -0.135,0.905 -0.109,1.757 1.038,2.235 1.012,-0.026 1.384,-1.064 1.118,-2.395"
           inkscape:connector-curvature="0"
           id="path242"
           style="fill:#ffcc00;stroke:#2c2c2b;stroke-width:0.26756167" />
        <path
           d="m 364.516,253.021 c -0.133,1.683 0.532,2.947 2.235,3.034 1.599,-0.104 2.293,-0.927 2.476,-3.194"
           inkscape:connector-curvature="0"
           id="path244"
           style="fill:#ffcc00;stroke:#2c2c2b;stroke-width:0.26756167" />
        <path
           d="m 352.619,266.594 c -0.053,0.586 0.612,0.612 0.719,0.878 2.631,-0.772 4.306,-0.932 7.585,0 0.639,-0.106 1.277,-0.212 1.916,-0.319"
           inkscape:connector-curvature="0"
           id="path246"
           style="fill:#ffcc00;stroke:#2c2c2b;stroke-width:0.26756167" />
        <path
           d="m 353.657,267.153 c 0.924,-1.131 1.766,-2.398 3.992,-1.357 1.998,-0.961 2.842,0.386 3.753,1.597"
           inkscape:connector-curvature="0"
           id="path248"
           style="fill:#ffcc00;stroke:#2c2c2b;stroke-width:0.26756167" />
        <path
           d="m 361.242,267.712 c -0.732,2.802 -7.785,2.069 -7.665,0.08"
           inkscape:connector-curvature="0"
           id="path250"
           style="fill:#ffcc00;stroke:#2c2c2b;stroke-width:0.26756167" />
      </g>
      <path
         d="m 144.901,389.738 c 107.481,-1.793 214.963,-3.586 322.444,-5.379 C 461.333,506.135 421.87,599.312 308.356,608.516 187.013,598.1 149.396,493.549 144.901,389.738 z"
         inkscape:connector-curvature="0"
         id="path252"
         style="fill:#dce284;stroke:#2c2c2b;stroke-width:0.26756167" />
      <path
         d="m 285.306,440.562 c 5.318,-7.041 6.141,-9.411 7.041,-14.148 3.995,-0.272 6.329,-2.644 6.937,-5.109 -1.634,2.435 -3.581,4.212 -6.642,3.643 2.296,-5.435 -0.195,-7.611 -0.7,-8.591 -1.966,0.201 1.464,2.771 -0.563,4.772 -3.26,-0.259 -6.353,-1.897 -9.05,-3.563 1.758,2.092 4.823,5.05 8.614,4.951 0.027,2.382 -0.364,4.07 -0.803,4.724 -1.048,0.397 -3.795,0.061 -5.618,-2.411 0.843,2.544 3.44,4.038 5.251,4.474 0.477,0.01 -2.224,6.224 -7.793,13.016 -0.685,0.836 1.296,0.044 0.616,1.055 1.471,-1.399 1.239,-1.414 2.71,-2.813 z"
         inkscape:connector-curvature="0"
         id="path254"
         style="fill:#b3ad84;stroke:#2c2c2b;stroke-width:0.26756167" />
      <path
         d="m 282.012,439.25 c 5.059,-0.743 9.226,0.894 12.501,4.911 4.018,0.297 8.036,0.595 12.054,0.893 -2.709,7.894 -9.179,8.806 -16.073,8.929 -1.153,5.878 -1.376,12.128 0.447,19.197 0.38,5.204 -0.062,10.856 -6.25,19.644 -0.594,2.903 -1.338,5.731 -3.126,8.037 -1.516,4.234 -1.965,9.264 -0.394,14.089 0.742,2.278 1.063,4.59 1.287,6.894 -3.869,0.149 -4.392,-0.372 -8.261,-0.223 1.787,-2.435 3.601,-3.306 1.34,-9.377 -2.42,-14.798 -1.577,-15.659 -1.115,-18.08 -5.856,10.072 -19.451,5.958 -32.591,2.679 -2.642,7.364 -7.33,9.002 -12.948,8.036 -7.238,5.106 -5.592,12.053 -2.678,12.947 1.363,-0.089 0.789,2.202 1.452,4.018 -3.125,0.298 -4.134,0.484 -7.259,0.782 0.023,-2.694 -0.758,-2.927 -0.127,-4.178 1.495,-2.969 -0.92,-8.661 -2.55,-14.799 7.695,3.912 6.061,-14.497 7.144,-26.451 -10.728,7.801 -12.142,7.109 -12.054,6.697 2.709,-8.092 11.216,-13.186 27.904,-14.621 1.347,0.147 20.983,0.185 28.35,1.228 5.82,-3.844 9.504,-10.895 9.375,-23.663 0.298,-3.72 1.489,-6.249 3.572,-7.589 z"
         inkscape:connector-curvature="0"
         id="path256"
         style="fill:#cc6f40;stroke:#2c2c2b;stroke-width:0.26756167" />
      <path
         d="m 305.669,444.815 c 0.616,0 1.115,0.65 1.115,1.45 0,0.801 -0.499,1.45 -1.115,1.45 -0.616,0 -1.116,-0.649 -1.116,-1.45 0,-0.8 0.5,-1.45 1.116,-1.45 z"
         inkscape:connector-curvature="0"
         id="path258"
         style="fill:#2c2c2b;stroke:#2c2c2b;stroke-width:0.26756167" />
      <path
         d="m 290.387,443.03 c 1.293,0 2.343,0.4 2.343,0.893 0,0.492 -1.05,0.892 -2.343,0.892 -1.293,0 -2.342,-0.4 -2.342,-0.892 0,-0.493 1.049,-0.893 2.342,-0.893 z"
         inkscape:connector-curvature="0"
         id="path260"
         style="fill:#2c2c2b;stroke:#2c2c2b;stroke-width:0.26756167" />
      <path
         d="m 275.699,512.476 c -1.942,3.204 -4.032,5.368 -6.271,6.492 l 3.739,4.065 2.937,-3.595 0.473,-3.545 -0.878,-3.417 z"
         inkscape:connector-curvature="0"
         id="path262"
         style="fill:#cc6f40;stroke:#2c2c2b;stroke-width:0.26756167" />
      <path
         d="m 242.048,496.809 1.337,-5.793"
         inkscape:connector-curvature="0"
         id="path264"
         style="fill:none;stroke:#2c2c2b;stroke-width:0.26756167" />
      <path
         d="m 274.021,494.581 0.891,-2.339"
         inkscape:connector-curvature="0"
         id="path266"
         style="fill:none;stroke:#2c2c2b;stroke-width:0.26756167" />
      <path
         d="m 290.945,453.739 -4.908,-2.008 3.347,12.047 1.561,-10.039 z"
         inkscape:connector-curvature="0"
         id="path268"
         style="fill:#a8604d;stroke:#a8604d;stroke-width:0.26756167" />
      <path
         d="m 279.792,441.134 c -6.971,-5.411 -8.383,-7.484 -10.487,-11.822 -3.928,0.779 -6.801,-0.903 -8.029,-3.124 2.212,1.925 4.555,3.133 7.361,1.785 -3.634,-4.648 -1.796,-7.398 -1.564,-8.476 1.95,-0.319 -0.691,3.057 1.788,4.46 3.079,-1.1 5.638,-3.487 7.808,-5.8 -1.152,2.478 -3.339,6.133 -7.026,7.026 0.595,2.307 1.414,3.834 2.008,4.351 1.115,0.111 3.68,-0.93 4.794,-3.792 -0.149,2.676 -2.267,4.795 -3.902,5.688 -0.458,0.135 3.77,5.429 10.918,10.534 0.879,0.628 -1.24,0.38 -0.32,1.179 -1.785,-0.967 -1.565,-1.042 -3.349,-2.009 z"
         inkscape:connector-curvature="0"
         id="path270"
         style="fill:#b3ad84;stroke:#2c2c2b;stroke-width:0.26756167" />
      <g
         id="g272">
        <path
           d="m 331.143,439.669 c -5.318,-7.041 -6.141,-9.411 -7.041,-14.148 -3.995,-0.272 -6.33,-2.645 -6.937,-5.109 1.634,2.434 3.581,4.212 6.642,3.642 -2.297,-5.434 0.195,-7.61 0.7,-8.591 1.966,0.201 -1.464,2.772 0.563,4.773 3.259,-0.259 6.352,-1.897 9.05,-3.564 -1.758,2.093 -4.823,5.051 -8.614,4.952 -0.028,2.382 0.364,4.07 0.803,4.723 1.048,0.398 3.795,0.062 5.618,-2.41 -0.843,2.544 -3.44,4.037 -5.251,4.474 -0.478,0.01 2.224,6.224 7.793,13.016 0.685,0.836 -1.296,0.044 -0.617,1.055 -1.471,-1.399 -1.238,-1.414 -2.709,-2.813 z"
           inkscape:connector-curvature="0"
           id="path274"
           style="fill:#b3ad84;stroke:#2c2c2b;stroke-width:0.26756167" />
        <path
           d="m 334.437,438.356 c -5.059,-0.742 -9.226,0.894 -12.501,4.911 -4.018,0.298 -8.036,0.596 -12.054,0.893 2.709,7.895 9.178,8.807 16.072,8.929 1.153,5.879 1.377,12.129 -0.446,19.198 -0.38,5.204 0.061,10.856 6.25,19.644 0.594,2.903 1.338,5.73 3.125,8.036 1.516,4.235 1.966,9.264 0.395,14.09 -0.742,2.278 -1.063,4.589 -1.288,6.894 3.87,0.149 4.393,-0.372 8.262,-0.223 -1.788,-2.435 -3.601,-3.306 -1.34,-9.377 2.42,-14.798 1.577,-15.66 1.115,-18.08 5.856,10.072 19.451,5.958 32.591,2.678 2.642,7.365 7.33,9.002 12.947,8.037 7.238,5.106 5.593,12.052 2.679,12.947 -1.363,-0.089 -0.789,2.202 -1.452,4.018 3.125,0.298 4.133,0.484 7.258,0.781 -0.022,-2.694 0.758,-2.926 0.128,-4.177 -1.496,-2.969 0.92,-8.662 2.55,-14.799 -7.696,3.912 -6.061,-14.498 -7.145,-26.451 10.729,7.801 12.143,7.109 12.055,6.697 -2.71,-8.092 -11.216,-13.186 -27.904,-14.622 -1.347,0.148 -20.983,0.186 -28.35,1.228 -5.821,-3.844 -9.504,-10.894 -9.375,-23.662 -0.299,-3.72 -1.489,-6.25 -3.572,-7.59 z"
           inkscape:connector-curvature="0"
           id="path276"
           style="fill:#cc6f40;stroke:#2c2c2b;stroke-width:0.26756167" />
        <path
           d="m 310.78,443.922 c -0.616,0 -1.116,0.65 -1.116,1.45 0,0.801 0.5,1.45 1.116,1.45 0.615,0 1.115,-0.649 1.115,-1.45 0,-0.8 -0.5,-1.45 -1.115,-1.45 z"
           inkscape:connector-curvature="0"
           id="path278"
           style="fill:#2c2c2b;stroke:#2c2c2b;stroke-width:0.26756167" />
        <path
           d="m 326.061,442.137 c -1.293,0 -2.342,0.4 -2.342,0.893 0,0.492 1.049,0.892 2.342,0.892 1.293,0 2.343,-0.4 2.343,-0.892 0,-0.493 -1.05,-0.893 -2.343,-0.893 z"
           inkscape:connector-curvature="0"
           id="path280"
           style="fill:#2c2c2b;stroke:#2c2c2b;stroke-width:0.26756167" />
        <path
           d="m 340.75,511.583 c 1.941,3.203 4.032,5.367 6.271,6.492 l -3.74,4.065 -2.936,-3.596 -0.473,-3.544 0.878,-3.417 z"
           inkscape:connector-curvature="0"
           id="path282"
           style="fill:#cc6f40;stroke:#2c2c2b;stroke-width:0.26756167" />
        <path
           d="m 374.4,495.916 -1.337,-5.793"
           inkscape:connector-curvature="0"
           id="path284"
           style="fill:none;stroke:#2c2c2b;stroke-width:0.26756167" />
        <path
           d="m 342.428,493.688 -0.891,-2.339"
           inkscape:connector-curvature="0"
           id="path286"
           style="fill:none;stroke:#2c2c2b;stroke-width:0.26756167" />
        <path
           d="m 325.504,452.845 4.907,-2.007 -3.346,12.046 -1.561,-10.039 z"
           inkscape:connector-curvature="0"
           id="path288"
           style="fill:#a8604d;stroke:#a8604d;stroke-width:0.26756167" />
        <path
           d="m 336.657,440.241 c 6.971,-5.411 8.383,-7.484 10.487,-11.822 3.928,0.778 6.8,-0.903 8.029,-3.124 -2.212,1.924 -4.555,3.133 -7.362,1.785 3.634,-4.648 1.797,-7.398 1.565,-8.477 -1.95,-0.318 0.691,3.058 -1.788,4.461 -3.079,-1.1 -5.638,-3.488 -7.808,-5.8 1.152,2.478 3.339,6.133 7.025,7.026 -0.595,2.307 -1.413,3.834 -2.007,4.351 -1.116,0.11 -3.68,-0.93 -4.795,-3.792 0.15,2.676 2.268,4.795 3.903,5.688 0.458,0.135 -3.771,5.429 -10.918,10.534 -0.879,0.628 1.24,0.38 0.32,1.179 1.785,-0.967 1.564,-1.042 3.349,-2.009 z"
           inkscape:connector-curvature="0"
           id="path290"
           style="fill:#b3ad84;stroke:#2c2c2b;stroke-width:0.26756167" />
      </g>
      <path
         d="m 172.183,430.32 c 0,0 -1.339,-4.464 -1.339,-5.357 2.232,0.446 4.018,2.679 5.804,3.572 -0.893,-1.786 -0.893,-4.911 -0.893,-7.144 1.339,0.447 2.679,5.804 2.679,7.144 0.446,-1.786 1.339,-4.911 1.786,-6.697 0.446,1.339 0.893,3.571 0.893,5.357 -0.447,-4.018 0,-1.786 0.893,0 0,-0.446 0.892,-1.339 0.892,-1.339 0,0.446 0,1.786 0,2.232 0.447,-0.893 1.34,-3.571 2.233,-4.018 0,0.447 0,1.339 0,1.786 0.446,0 2.232,-1.339 2.232,-1.786 0,0.447 0,2.232 0,2.679 0.446,-0.447 1.339,-0.893 1.786,-0.893 0,0.446 -0.447,0.893 -0.447,1.339 1.34,0 3.572,-1.339 4.465,-1.339 0,0.446 -0.893,0.893 -0.893,1.339 0.893,0 3.125,0 3.125,0 -0.446,0 -0.893,0.447 -0.893,0.893 0.447,0 1.34,0 1.786,0 -0.446,0 -1.339,0.893 -1.786,0.893"
         inkscape:connector-curvature="0"
         id="path292"
         style="fill:none;stroke:#009240;stroke-width:0.49544621" />
      <path
         d="m 174.111,410.088 c 0,0 -1.339,-4.464 -1.339,-5.357 2.232,0.446 4.018,2.678 5.804,3.571 -0.893,-1.785 -0.893,-4.911 -0.893,-7.143 1.339,0.447 2.678,5.804 2.678,7.143 0.447,-1.785 1.34,-4.911 1.786,-6.696 0.447,1.339 0.893,3.571 0.893,5.357 -0.446,-4.018 0,-1.786 0.893,0 0,-0.446 0.893,-1.339 0.893,-1.339 0,0.446 0,1.785 0,2.232 0.446,-0.893 1.339,-3.572 2.232,-4.018 0,0.446 0,1.339 0,1.786 0.447,0 2.233,-1.34 2.233,-1.786 0,0.446 0,2.232 0,2.679 0.446,-0.447 1.339,-0.893 1.785,-0.893 0,0.446 -0.446,0.893 -0.446,1.339 1.339,0 3.572,-1.339 4.464,-1.339 0,0.446 -0.892,0.893 -0.892,1.339 0.892,0 3.125,0 3.125,0 -0.447,0 -0.893,0.446 -0.893,0.893 0.446,0 1.339,0 1.786,0 -0.447,0 -1.34,0.893 -1.786,0.893"
         inkscape:connector-curvature="0"
         id="path294"
         style="fill:none;stroke:#009240;stroke-width:0.49544621" />
      <path
         d="m 227.46,432.716 c 0,0 -1.865,-7.448 -1.865,-8.938 3.108,0.745 5.595,4.469 8.081,5.959 -1.243,-2.98 -1.243,-8.193 -1.243,-11.917 1.865,0.744 3.73,9.682 3.73,11.917 0.622,-2.98 1.865,-8.193 2.487,-11.173 0.621,2.235 1.243,5.959 1.243,8.938 -0.622,-6.703 0,-2.979 1.243,0 0,-0.745 1.243,-2.234 1.243,-2.234 0,0.745 0,2.979 0,3.724 0.622,-1.49 1.865,-5.959 3.109,-6.703 0,0.744 0,2.234 0,2.979 0.621,0 3.108,-2.235 3.108,-2.979 0,0.744 0,3.724 0,4.468 0.621,-0.744 1.865,-1.489 2.486,-1.489 0,0.745 -0.621,1.489 -0.621,2.234 1.864,0 4.973,-2.234 6.216,-2.234 0,0.745 -1.243,1.489 -1.243,2.234 1.243,0 4.351,0 4.351,0 -0.622,0 -1.243,0.745 -1.243,1.49 0.621,0 1.865,0 2.486,0 -0.621,0 -1.865,1.489 -2.486,1.489"
         inkscape:connector-curvature="0"
         id="path296"
         style="fill:none;stroke:#009240;stroke-width:0.49544621" />
      <path
         d="m 260.645,567.452 c 0,0 -1.865,-7.448 -1.865,-8.937 3.108,0.745 5.594,4.469 8.081,5.958 -1.243,-2.979 -1.243,-8.193 -1.243,-11.917 1.864,0.745 3.729,9.683 3.729,11.917 0.622,-2.979 1.865,-8.193 2.487,-11.172 0.622,2.235 1.243,5.959 1.243,8.938 -0.621,-6.703 0,-2.979 1.243,0 0,-0.745 1.244,-2.235 1.244,-2.235 0,0.745 0,2.98 0,3.724 0.621,-1.489 1.865,-5.958 3.108,-6.703 0,0.745 0,2.235 0,2.979 0.622,0 3.108,-2.234 3.108,-2.979 0,0.745 0,3.724 0,4.469 0.622,-0.745 1.865,-1.49 2.487,-1.49 0,0.745 -0.622,1.49 -0.622,2.235 1.865,0 4.973,-2.235 6.216,-2.235 0,0.745 -1.243,1.49 -1.243,2.235 1.243,0 4.351,0 4.351,0 -0.621,0 -1.243,0.745 -1.243,1.489 0.622,0 1.865,0 2.487,0 -0.622,0 -1.865,1.49 -2.487,1.49"
         inkscape:connector-curvature="0"
         id="path298"
         style="fill:none;stroke:#009240;stroke-width:0.49544621" />
      <path
         d="m 345.102,550.346 c 0,0 -1.333,-5.75 -1.333,-6.9 2.222,0.575 3.999,3.45 5.776,4.6 -0.889,-2.3 -0.889,-6.324 -0.889,-9.199 1.333,0.575 2.666,7.474 2.666,9.199 0.444,-2.3 1.333,-6.324 1.777,-8.624 0.445,1.725 0.889,4.599 0.889,6.899 -0.444,-5.174 0,-2.3 0.888,0 0,-0.575 0.889,-1.725 0.889,-1.725 0,0.575 0,2.3 0,2.875 0.444,-1.15 1.333,-4.6 2.221,-5.174 0,0.574 0,1.724 0,2.299 0.445,0 2.222,-1.725 2.222,-2.299 0,0.574 0,2.874 0,3.449 0.444,-0.575 1.333,-1.15 1.777,-1.15 0,0.575 -0.444,1.15 -0.444,1.725 1.333,0 3.554,-1.725 4.443,-1.725 0,0.575 -0.889,1.15 -0.889,1.725 0.889,0 3.11,0 3.11,0 -0.444,0 -0.889,0.575 -0.889,1.15 0.445,0 1.333,0 1.778,0 -0.445,0 -1.333,1.15 -1.778,1.15"
         inkscape:connector-curvature="0"
         id="path300"
         style="fill:none;stroke:#009240;stroke-width:0.49544621" />
      <path
         d="m 387.838,446.982 c 0,0 -1.355,-5.915 -1.355,-7.098 2.259,0.592 4.066,3.549 5.873,4.732 -0.903,-2.366 -0.903,-6.506 -0.903,-9.463 1.355,0.591 2.71,7.689 2.71,9.463 0.452,-2.366 1.356,-6.506 1.808,-8.872 0.451,1.775 0.903,4.732 0.903,7.098 -0.452,-5.323 0,-2.366 0.904,0 0,-0.592 0.903,-1.775 0.903,-1.775 0,0.592 0,2.366 0,2.958 0.452,-1.183 1.356,-4.732 2.259,-5.323 0,0.591 0,1.774 0,2.365 0.452,0 2.259,-1.774 2.259,-2.365 0,0.591 0,2.957 0,3.548 0.452,-0.591 1.356,-1.183 1.808,-1.183 0,0.592 -0.452,1.183 -0.452,1.775 1.355,0 3.614,-1.775 4.518,-1.775 0,0.592 -0.904,1.183 -0.904,1.775 0.904,0 3.163,0 3.163,0 -0.452,0 -0.904,0.591 -0.904,1.183 0.452,0 1.356,0 1.807,0 -0.451,0 -1.355,1.183 -1.807,1.183"
         inkscape:connector-curvature="0"
         id="path302"
         style="fill:none;stroke:#009240;stroke-width:0.49544621" />
      <path
         d="m 204.956,526.756 c 0,0 -1.825,-5.915 -1.825,-7.098 3.042,0.592 5.476,3.549 7.91,4.732 -1.217,-2.366 -1.217,-6.506 -1.217,-9.463 1.825,0.591 3.65,7.689 3.65,9.463 0.609,-2.366 1.826,-6.506 2.434,-8.872 0.609,1.775 1.217,4.732 1.217,7.098 -0.608,-5.323 0,-2.366 1.217,0 0,-0.592 1.217,-1.775 1.217,-1.775 0,0.592 0,2.366 0,2.958 0.608,-1.183 1.825,-4.732 3.042,-5.323 0,0.591 0,1.774 0,2.365 0.609,0 3.043,-1.774 3.043,-2.365 0,0.591 0,2.957 0,3.548 0.608,-0.591 1.825,-1.183 2.433,-1.183 0,0.592 -0.608,1.183 -0.608,1.775 1.825,0 4.868,-1.775 6.084,-1.775 0,0.592 -1.216,1.183 -1.216,1.775 1.216,0 4.259,0 4.259,0 -0.609,0 -1.217,0.591 -1.217,1.183 0.608,0 1.825,0 2.434,0 -0.609,0 -1.826,1.183 -2.434,1.183 l 8.941,-4.317 c 0,1.115 0.446,2.454 0.669,3.346 -0.669,-2.231 -0.223,-0.892 0,0.446 0,0 0.446,0.223 0.446,0.223 0.447,0 1.116,-0.223 1.562,-0.223 0.669,-1.338 1.562,-2.9 2.454,-4.239 0,0.67 0.223,2.454 0.223,2.678 0.893,-0.447 1.339,-1.339 2.677,-1.785 0,0.446 0.223,0.892 0.447,1.338 -0.447,-0.892 -0.224,-0.446 0.445,0 0,0 0.447,-0.446 0.447,-0.669 0.892,0 1.784,0.446 2.454,0.669 0.223,-0.223 0.446,-0.446 0.446,-0.669 0.223,0 0.446,0.223 0.669,0.223 0.223,0.446 0.669,0.893 0.893,0.893 0.223,0.669 0.669,1.784 0.892,2.453 0.446,-0.669 2.008,-2.9 2.454,-3.569 0.223,-1.785 0.892,-3.792 1.115,-5.354 0,1.339 0,3.346 0,4.685 0,0.892 0.223,1.785 0.223,2.454 0.446,-0.223 0.893,-0.893 1.116,-1.116 0,0.223 0.223,0.67 0.223,0.893 0.223,0 0.892,-0.67 1.115,-0.893 0,-0.446 0.447,-1.338 0.447,-1.784 0.892,-1.562 2.23,-3.347 3.123,-4.908 0,-0.893 0.446,-1.785 0.446,-2.677 -0.446,1.784 0,0.892 0,0.892 0,0.669 0,2.008 0,2.677 0,0.893 0.223,1.785 0.223,2.677 0,0.223 0.446,0.892 0.446,1.116 -0.446,-0.893 0,-0.224 0,0.446 0.223,-0.67 0.892,-2.454 1.116,-2.9 0,0.669 0,1.561 0,2.23 0,0.447 0.223,0.67 0.223,0.893 0,0 0.223,0.446 0.223,0.446 0.223,0.223 0.669,0.892 0.669,1.115 0.223,0 0.892,0 0.892,-0.223 0.223,0.67 0.447,1.785 0.669,2.454 0,-1.115 0.224,-1.338 0.447,-2.007 -0.447,0.892 -0.223,0.669 0,-0.447 0,0 0.446,-0.446 0.446,-0.446 -0.446,0.446 0,0 0,-0.446 0.223,0 0.446,0 0.446,-0.223 0,0.223 0.446,0.892 0.446,1.115 0,-0.223 0.669,-0.892 0.669,-1.115 0.447,0.892 1.562,2.008 2.008,2.9 0,0 0.447,-0.446 0.447,-0.446 0.669,-0.223 1.338,-0.669 2.007,-0.892 0,0.223 0.223,0.446 0.223,0.669 0.446,-0.446 0.67,-1.116 0.893,-1.562 1.115,-0.223 1.338,-0.223 2.007,-0.669 0.224,-0.223 0.67,-0.669 0.893,-0.892 0,0.446 0.223,1.338 0.223,2.007 0,0 0.223,0.447 0.223,0.447 0,0 0.223,0.223 0.223,0.223 0.446,-0.67 1.338,-1.339 2.008,-1.785 0.669,-0.446 1.561,-1.116 2.008,-1.562 0,0.446 0.223,0.893 0.223,1.339 0,0.892 0.446,1.561 0.446,2.231 0,0 1.115,-2.454 1.338,-2.9 0,0.446 0.447,1.338 0.447,1.784 0.222,-0.223 0.446,-0.669 0.446,-1.115 0.892,-0.446 2.9,-1.562 3.569,-1.785 0,0.446 0.223,1.785 0.223,2.454 0.446,-0.446 1.116,-1.115 1.562,-1.562 0.892,-0.223 1.115,-0.446 1.785,-0.446 0,0.893 -0.224,1.785 -0.224,2.677 0,-0.223 0.446,-0.669 0.446,-0.669 0.67,0 1.339,-0.223 2.008,-0.223 0,0 -0.446,2.454 -0.446,3.123 0.446,0 1.785,0.223 1.785,-0.223 0.223,0 0.669,0.446 0.892,0.446 0,0.446 0.223,0 0.223,0.446"
         inkscape:connector-curvature="0"
         id="path304"
         style="fill:none;stroke:#009240;stroke-width:0.49544621" />
      <path
         d="m 414.941,524.972 c 0,0 1.825,-5.915 1.825,-7.098 -3.042,0.591 -5.476,3.549 -7.91,4.732 1.217,-2.366 1.217,-6.507 1.217,-9.464 -1.825,0.591 -3.65,7.689 -3.65,9.464 -0.609,-2.366 -1.826,-6.507 -2.434,-8.873 -0.609,1.775 -1.217,4.732 -1.217,7.098 0.608,-5.323 0,-2.366 -1.217,0 0,-0.591 -1.217,-1.774 -1.217,-1.774 0,0.591 0,2.366 0,2.957 -0.608,-1.183 -1.825,-4.732 -3.042,-5.323 0,0.591 0,1.774 0,2.366 -0.609,0 -3.042,-1.775 -3.042,-2.366 0,0.591 0,2.957 0,3.549 -0.609,-0.592 -1.826,-1.183 -2.434,-1.183 0,0.591 0.608,1.183 0.608,1.774 -1.825,0 -4.867,-1.774 -6.084,-1.774 0,0.591 1.217,1.183 1.217,1.774 -1.217,0 -4.26,0 -4.26,0 0.609,0 1.217,0.592 1.217,1.183 -0.608,0 -1.825,0 -2.434,0 0.609,0 1.826,1.183 2.434,1.183 l -8.941,-4.317 c 0,1.115 -0.446,2.454 -0.669,3.346 0.669,-2.231 0.223,-0.892 0,0.446 0,0 -0.446,0.224 -0.446,0.224 -0.447,0 -1.116,-0.224 -1.562,-0.224 -0.669,-1.338 -1.562,-2.9 -2.454,-4.238 0,0.669 -0.223,2.454 -0.223,2.677 -0.893,-0.447 -1.339,-1.339 -2.677,-1.785 0,0.446 -0.223,0.892 -0.447,1.338 0.447,-0.892 0.224,-0.446 -0.445,0 0,0 -0.447,-0.446 -0.447,-0.669 -0.892,0 -1.784,0.446 -2.454,0.669 -0.223,-0.223 -0.446,-0.446 -0.446,-0.669 -0.223,0 -0.446,0.223 -0.669,0.223 -0.223,0.446 -0.669,0.893 -0.893,0.893 -0.222,0.669 -0.669,1.785 -0.892,2.454 -0.446,-0.669 -2.008,-2.901 -2.454,-3.57 -0.223,-1.784 -0.892,-3.792 -1.115,-5.354 0,1.339 0,3.347 0,4.685 0,0.892 -0.223,1.785 -0.223,2.454 -0.446,-0.223 -0.892,-0.892 -1.116,-1.116 0,0.224 -0.223,0.67 -0.223,0.893 -0.223,0 -0.892,-0.669 -1.115,-0.893 0,-0.446 -0.447,-1.338 -0.447,-1.784 -0.892,-1.562 -2.23,-3.346 -3.123,-4.908 0,-0.892 -0.446,-1.785 -0.446,-2.677 0.446,1.785 0,0.892 0,0.892 0,0.67 0,2.008 0,2.678 0,0.892 -0.223,1.784 -0.223,2.676 0,0.223 -0.446,0.893 -0.446,1.116 0.446,-0.893 0,-0.223 0,0.446 -0.223,-0.669 -0.892,-2.454 -1.116,-2.9 0,0.669 0,1.561 0,2.231 0,0.446 -0.222,0.669 -0.222,0.892 0,0 -0.224,0.446 -0.224,0.446 -0.223,0.223 -0.669,0.892 -0.669,1.116 -0.223,0 -0.892,0 -0.892,-0.224 -0.223,0.67 -0.446,1.785 -0.669,2.455 0,-1.116 -0.224,-1.339 -0.447,-2.008 0.447,0.892 0.223,0.669 0,-0.447 0,0 -0.446,-0.446 -0.446,-0.446 0.446,0.446 0,0 0,-0.446 -0.223,0 -0.446,0 -0.446,-0.223 0,0.223 -0.446,0.892 -0.446,1.115 0,-0.223 -0.669,-0.892 -0.669,-1.115 -0.446,0.892 -1.562,2.008 -2.008,2.9 0,0 -0.447,-0.446 -0.447,-0.446 -0.669,-0.223 -1.338,-0.669 -2.007,-0.892 0,0.223 -0.223,0.446 -0.223,0.669 -0.446,-0.446 -0.67,-1.116 -0.893,-1.562 -1.115,-0.223 -1.338,-0.223 -2.007,-0.669 -0.224,-0.223 -0.67,-0.669 -0.893,-0.892 0,0.446 -0.223,1.338 -0.223,2.007 0,0 -0.223,0.447 -0.223,0.447 0,0 -0.223,0.223 -0.223,0.223 -0.446,-0.67 -1.338,-1.339 -2.008,-1.785 -0.669,-0.446 -1.561,-1.115 -2.008,-1.561 0,0.446 -0.223,0.892 -0.223,1.338 0,0.892 -0.446,1.562 -0.446,2.231 0,0 -1.115,-2.454 -1.338,-2.9 0,0.446 -0.446,1.338 -0.446,1.784 -0.223,-0.223 -0.447,-0.669 -0.447,-1.115 -0.892,-0.446 -2.9,-1.562 -3.569,-1.785 0,0.447 -0.223,1.785 -0.223,2.454 -0.446,-0.446 -1.116,-1.115 -1.562,-1.561 -0.892,-0.223 -1.115,-0.446 -1.785,-0.446 0,0.892 0.224,1.784 0.224,2.676 0,-0.223 -0.446,-0.669 -0.446,-0.669 -0.67,0 -1.339,-0.223 -2.008,-0.223 0,0 0.446,2.454 0.446,3.124 -0.446,0 -1.785,0.223 -1.785,-0.224 -0.223,0 -0.669,0.447 -0.892,0.447 0,0.446 -0.223,0 -0.223,0.446"
         inkscape:connector-curvature="0"
         id="path306"
         style="fill:none;stroke:#009240;stroke-width:0.49544621" />
      <path
         d="m 398.695,405.32 c 0,0 -1.356,-5.915 -1.356,-7.098 2.259,0.592 4.067,3.549 5.874,4.732 -0.904,-2.366 -0.904,-6.506 -0.904,-9.464 1.356,0.592 2.711,7.69 2.711,9.464 0.452,-2.366 1.355,-6.506 1.807,-8.872 0.452,1.774 0.904,4.732 0.904,7.098 -0.452,-5.324 0,-2.366 0.903,0 0,-0.592 0.904,-1.775 0.904,-1.775 0,0.592 0,2.366 0,2.958 0.452,-1.183 1.355,-4.732 2.259,-5.324 0,0.592 0,1.775 0,2.366 0.452,0 2.259,-1.774 2.259,-2.366 0,0.592 0,2.958 0,3.549 0.452,-0.591 1.355,-1.183 1.807,-1.183 0,0.592 -0.452,1.183 -0.452,1.775 1.356,0 3.615,-1.775 4.519,-1.775 0,0.592 -0.904,1.183 -0.904,1.775 0.904,0 3.163,0 3.163,0 -0.452,0 -0.904,0.591 -0.904,1.183 0.452,0 1.355,0 1.807,0 -0.452,0 -1.355,1.183 -1.807,1.183"
         inkscape:connector-curvature="0"
         id="path308"
         style="fill:none;stroke:#009240;stroke-width:0.49544621" />
      <path
         d="m 323.407,665.294 c 9.097,-3.94 25.778,-12.118 34.874,-16.058 5.944,-7.011 8.034,-9.254 9.919,-24.52 -0.125,-12.163 -5.811,-16.788 -14.023,-17.986 -28.626,1.179 -30.73,19.22 -85.278,4.625 -16.868,-6.512 -24.7,3.938 -28.426,22.098 2.111,11.226 9.757,16.021 18.951,19.014 9.601,3.083 19.203,6.166 28.805,9.25 13.139,1.713 22.039,1.864 35.178,3.577 z"
         inkscape:connector-curvature="0"
         id="path310"
         style="fill:#9fdcf5;stroke:#2c2c2b;stroke-width:0.26756167" />
      <path
         d="m 242.368,638.591 c 6.436,-11.859 15.535,-9.273 25.015,-4.625 30.968,12.095 77.66,1.768 100.817,-7.708"
         inkscape:connector-curvature="0"
         id="path312"
         style="fill:none;stroke:#2c2c2b;stroke-width:0.26756167" />
      <path
         d="m 242.836,625.23 c 6.886,-1.883 15.767,-1.711 24.548,2.055 18.195,5.98 58.927,9.439 81.419,-4.082 6.065,-3.897 13.914,-3.6 18.639,-3.625 -1.389,-2.913 -1.441,-5.825 -4.169,-8.737 -24.918,-0.08 -32.277,24.724 -95.132,8.737 -10.502,-6.163 -20.138,-3.196 -21.604,-2.056 -1.904,2.272 -3.583,4.842 -3.701,7.708 z"
         inkscape:connector-curvature="0"
         id="path314"
         style="fill:#ffffff;stroke:#2c2c2b;stroke-width:0.26756167" />
      <path
         d="m 246.947,632.567 c 3.88,5.814 8.125,12.262 22.347,23.198 4.482,1.541 9.187,2.858 13.669,4.399 -7.929,-9.704 -17.482,-19.01 -18.783,-27.854 -10.902,-4.233 -13.21,-1.269 -17.233,0.257 z"
         inkscape:connector-curvature="0"
         id="path316"
         style="fill:#ffffff;stroke:#2c2c2b;stroke-width:0.26756167" />
      <path
         d="m 290.832,653.8 c 9.538,-0.745 19.334,-0.373 28.457,1.438 5.805,7.776 5.39,16.137 1.244,27.322 -8.397,2.237 -16.794,2.343 -25.191,0.319 -6.959,-18.148 -7.918,-25.843 -4.51,-29.079 z"
         inkscape:connector-curvature="0"
         id="path318"
         style="fill:#9fdcf5;stroke:#2c2c2b;stroke-width:0.26756167" />
      <path
         d="m 302.339,653.64 0.156,30.518 9.641,-0.16 0,-29.718 -9.797,-0.64 z"
         inkscape:connector-curvature="0"
         id="path320"
         style="fill:#ffffff;stroke:#2c2c2b;stroke-width:0.26756167" />
      <path
         d="m 338.075,635.657 c 0.866,7.297 -1.1,16.504 -8.507,26.965 3.157,-1.54 13.898,-6.873 17.054,-8.414 4.556,-6.307 6.044,-11.358 5.156,-22.13 -5.312,1.79 -9.285,1.868 -13.703,3.579 z"
         inkscape:connector-curvature="0"
         id="path322"
         style="fill:#ffffff;stroke:#2c2c2b;stroke-width:0.26756167" />
      <path
         d="m 292.231,676.262 c -5.808,2.352 -14.684,2.462 -21.162,17.906 -8.247,21.664 -19.45,32.695 -32.676,36.452 6.172,4.211 13.122,5.49 21.784,0.32 0.108,6.082 -1.242,9.916 -2.801,13.43 24.614,-10.239 26.739,-32.492 30.187,-54.039 1.659,-4.476 4.149,-7.248 7.469,-8.313 -0.934,-1.919 -1.868,-3.837 -2.801,-5.756 z"
         inkscape:connector-curvature="0"
         id="path324"
         style="fill:#9fdcf5;stroke:#2c2c2b;stroke-width:0.26756167" />
      <path
         d="m 292.231,676.262 c -6.848,5.682 -14.098,9.842 -18.361,25.261 -6.132,17.67 -14.094,26.569 -22.718,32.295 3.009,-0.853 6.017,-1.705 9.025,-2.558 -0.207,2.878 -0.415,5.755 -0.622,8.633 7.158,-8.046 13.278,-17.959 17.116,-31.975 5.02,-19.055 10.939,-23.322 16.805,-28.458 -0.415,-1.066 -0.83,-2.132 -1.245,-3.198 z"
         inkscape:connector-curvature="0"
         id="path326"
         style="fill:#ffffff;stroke:#2c2c2b;stroke-width:0.26756167" />
      <path
         d="m 319.928,682.337 c 3.112,8.847 4.564,17.267 4.356,25.261 3.052,26.157 15.191,34.305 29.876,37.411 -3.891,-4.903 -6.484,-9.806 -6.224,-14.708 6.122,1.5 11.515,0.004 16.805,-1.919 -7.163,-2.652 -13.909,-6.374 -17.739,-17.586 -5.239,-17.294 -14.326,-28.898 -24.544,-35.106 -0.248,1.918 -0.497,4.729 -2.53,6.647 z"
         inkscape:connector-curvature="0"
         id="path328"
         style="fill:#9fdcf5;stroke:#2c2c2b;stroke-width:0.26756167" />
      <path
         d="m 322.106,678.181 c -0.104,0.639 -0.207,1.279 -0.311,1.918 4.011,8.286 9.128,16.115 8.713,26.22 1.918,15.296 8.972,24.142 18.361,30.057 -0.207,-2.025 -0.415,-4.05 -0.622,-6.075 2.282,0.319 4.564,0.319 6.846,0.639 -11.025,-6.954 -16.891,-20.988 -19.966,-35.196 -1.647,-7.61 -8.461,-12.499 -13.021,-17.563 z"
         inkscape:connector-curvature="0"
         id="path330"
         style="fill:#ffffff;stroke:#2c2c2b;stroke-width:0.26756167" />
      <path
         d="m 280.237,638.008 c -0.819,4.982 8.625,10.633 11.377,15.616 9.37,-0.524 17.847,0.143 27.217,2.008 3.978,-0.036 6.358,-6.952 7.362,-18.293 -13.186,2.959 -33.968,0.704 -45.956,0.669 z"
         inkscape:connector-curvature="0"
         id="path332"
         style="fill:#ffffff;stroke:#2c2c2b;stroke-width:0.26756167" />
    </g>
  </g>
</svg>
