<?xml version="1.0" encoding="UTF-8"?>
<svg id="Layer_1" data-name="Layer 1" xmlns="http://www.w3.org/2000/svg" viewBox="0 0 1500 1000">
  <defs>
    <style>
      .cls-1 {
        fill: #1f1f1c;
      }

      .cls-1, .cls-2, .cls-3, .cls-4, .cls-5, .cls-6, .cls-7 {
        stroke-width: 0px;
      }

      .cls-2 {
        fill: #fdce0c;
      }

      .cls-3 {
        fill: #d91f27;
      }

      .cls-4 {
        fill: #1c9dd8;
      }

      .cls-5 {
        fill: #fff;
      }

      .cls-6 {
        fill: #1ca64a;
      }

      .cls-7 {
        fill: #db1f26;
      }
    </style>
  </defs>
  <rect class="cls-7" width="1500" height="1000"/>
  <rect class="cls-6" y="500" width="1500" height="500"/>
  <rect class="cls-4" y="450" width="1500" height="100"/>
  <circle class="cls-2" cx="750" cy="500" r="284.31"/>
  <path class="cls-3" d="M881,439c13.16,8.54,19.55,24.99,25,39,5.04,12.97,12.59,32.37,8,53-8.36,37.6-52.84,60.48-89,63-12.27.85-38.37,2.67-57-15-22.55-21.38-20.1-57.97-12-80,19.28-52.44,92.24-81.27,125-60Z"/>
  <path class="cls-1" d="M441.94,717.93c-.15.1-.3.2-.46.3-5.67-1.86-6.31-3.86-2.72-7.65,18.08-19.06,63.6-57.7,66.31-60.05,28.47-22.3,58.7-41.95,91.43-58.32,4.86-2.43,9.57-5.14,14.52-7.4,3.12-1.43,3.89-3.3,3.51-6.35-2.2-17.79-7.59-34.8-14.93-51.31-11.78-26.5-27.32-51.14-45.24-74.49-14.99-19.54-31.3-38.93-32.54-40.33-1.02-1.17-3.49-3.95-8.44-9.51-20.78-23.36-24.05-26.38-27.61-29.76-6.11-5.8-13.77-10.38-21.25-14.79-30.21-17.8-61.93-33.17-93.79-48.3-26.27-12.47-52.61-24.84-79-37.11-12.79-5.95-25.78-11.54-38.67-17.32-1.06-.47-2.04-1.09-3.06-1.64.04-.35.09-.71.13-1.06,36.59-2.27,66.93-2.11,88.77-1.45,23.02.7,41.98,2.23,79.9,5.32,27.72,2.26,55.42,4.88,83.05,7.93,23.62,2.61,47.15,5.96,70.69,9.15,6.46.88,12.79,2.58,19.24,3.56,12,1.83,19.03,9.99,23.97,14.04,20.54,16.88,29.75,38.74,34.35,49.67h0c7.78,16.13,25.16,39.21,38.03,54.85,15.19,18.46,33.27,33.95,55.22,45.5,0,0,17.48,11.1,40.71,12.88,2.13.16,4-.42,4-.42,2.33-.73,3.78-2.16,4.27-2.59,8.07-7.1,16.03-14.37,24.74-20.78,18.62-13.68,39.18-17.11,61.58-8.19,1.5.6,2.79.03,4.31-.05,20.44-1.03,26.9-14.1,47.04-17.28,11.15-1.76,15.82,1.19,17,2,5.47,3.74,7.13,10.12,7.69,13.08-5.52-2.95-10.66-6.23-17.34-4.01-2.8.93-5,1.42-6.03,1.91-12.66,5.96-31.48,17.99-35.05,20.19-8.34,5.14-4.84,6.29-38.71,12.34-27.1,4.83-46.23,18.75-58.49,41.14-4.28,7.81-8.24,15.82-15.05,22.25-2.8,2.63-5.45,5.48-7.68,8.52-2.2,2.99-8.24,11.76-7.82,22.53.48,12.28,9.19,20.65,16.05,27.25,3.39,3.26,8.46,8.04,16.59,11.47,12.67,5.35,24.14,3.88,33.51,2.51,24.57-3.59,41.82-15.82,49.24-21.79,8.24-6.64,21.1-17.28,27.57-35.83,2.31-6.62,3.18-12.45,3.54-16.54,2.1.76,5.66,2.03,10.1,3.45,31.57,10.12,48.59,14.58,97.22,17.31,13.16.74,25.63,3.09,37.42,8.47,17.33,7.92,29.34,16.86,38.22,24.63,37.55,32.85,65.32,65.63,71,72.39,0,0,24.76,31.29,52.53,68.86,9.24,12.5,17.43,25.65,26.07,38.51.76,1.14,1.34,2.38,2.44,4.37-2.52-.69-4.15-1.14-6.05-1.6-15.37-5.15-30.55-10.11-45.56-15.47-31.46-11.25-51.43-16.7-98.36-35.69-52.47-21.23-55.21-27.57-112.72-50.91-26.28-10.66-41.42-17.55-63.55-23.7-59.84-16.61-120.91-26.12-183.55-25.57-17.72.16-35.42,2.18-53.11,3.5-1.57.12-3.39.99-4.51,2.04-23.21,21.73-48.59,41.18-74.81,59.75-21.55,15.26-44.12,29.14-67.66,42.09-7.29,3.61-14.35,7.16-21.5,10.92-8.04,3.81-15.99,7.4-24.1,11.17-6.38,2.66-12.58,5.18-18.82,7.62-2.66,1.04-5.42,1.87-8.11,2.86-5.23,1.93-6.12,1.42-7.05-4.12,3.14-1.87,6.29-3.75,9.59-5.81,5.97-3.32,11.96-6.24,17.59-9.65,11.83-7.16,25.49-15.23,37.36-23.22,15.5-10.43,27-18.17,40.99-30.17,8.68-7.45,20.29-18.22,32.83-32.6l-.8-1.11c-3.04,1.16-6.12,2.25-9.12,3.49-25.17,10.41-73.36,36.29-73.86,36.63-7.57,4.3-15.17,8.18-22.23,12.76-11.45,7.41-22.74,15.01-34.04,22.61-1.43.96-5.96,3.51-11.47,7.71-2.34,1.79-4.21,3.35-5.44,4.41Z"/>
  <circle class="cls-5" cx="849.28" cy="432.11" r="9.11"/>
</svg>