<?xml version="1.0" encoding="UTF-8" standalone="no"?>
<svg
   viewBox="0 0 4 3"
   version="1.1"
   id="svg42"
   sodipodi:docname="Flag of Blagoevgrad.svg"
   xml:space="preserve"
   inkscape:version="1.2.2 (b0a8486, 2022-12-01)"
   xmlns:inkscape="http://www.inkscape.org/namespaces/inkscape"
   xmlns:sodipodi="http://sodipodi.sourceforge.net/DTD/sodipodi-0.dtd"
   xmlns="http://www.w3.org/2000/svg"
   xmlns:svg="http://www.w3.org/2000/svg"><defs
     id="defs46"><style
       type="text/css"
       id="style443">
   <![CDATA[
    .fil1 {fill:#EF9A48}
    .fil0 {fill:white}
   ]]>
  </style></defs><sodipodi:namedview
     id="namedview44"
     pagecolor="#ffffff"
     bordercolor="#000000"
     borderopacity="0.25"
     inkscape:showpageshadow="2"
     inkscape:pageopacity="0.0"
     inkscape:pagecheckerboard="0"
     inkscape:deskcolor="#d1d1d1"
     showgrid="false"
     inkscape:zoom="61.942423"
     inkscape:cx="2.6879801"
     inkscape:cy="3.1480848"
     inkscape:window-width="1440"
     inkscape:window-height="900"
     inkscape:window-x="0"
     inkscape:window-y="0"
     inkscape:window-maximized="0"
     inkscape:current-layer="svg42" /><path
     d="M0,0h4v3H0"
     fill="#fff"
     id="path40" /><g
     style="clip-rule:evenodd;fill-rule:evenodd;image-rendering:optimizeQuality;shape-rendering:geometricPrecision;text-rendering:geometricPrecision"
     id="g508"
     transform="matrix(0.00820791,0,0,0.00820791,1.298795,0.55322702)"><g
       id="Layer_x0020_1"
       inkscape:label="Layer 1"
       inkscape:groupmode="layer">
  <metadata
   id="CorelCorpID_0Corel-Layer" />
  <g
   id="_41957504">
   <path
   id="_42463296"
   class="fil0"
   d="m 1.8569,20.9318 v 206.162 h 167.507 V 20.9318 C 169.3639,10.443 106.4262,2.8926 89.4761,2.8926 H 81.745 c -16.9506,0 -79.8878,7.5504 -79.8878,18.0392 z" />
  </g>
  <path
   class="fil1"
   d="M 65.9778,27.1641 36.1503,29.7578 35.9601,16.0943 3.0516,24.7793 8.9169,44.0228 c 23.5186,-5.4791 47.2744,-9.0777 76.5132,-9.0777 29.2388,0 52.9946,3.5986 76.4553,9.06 l 5.1604,-19.1239 -32.3359,-8.0918 0.0647,12.3404 -29.8917,-1.9657 V 11.6021 H 65.9778 Z"
   id="path450" />
  <path
   class="fil1"
   d="m 23.1819,152.957 c 0,-3.5878 3.8908,-4.1471 3.8908,-1.1559 0,3.8432 0.0975,6.1864 0.0191,10.3203 -0.0118,0.6265 -0.8912,1.7706 -1.829,1.7892 -0.998,0.0196 -2.0809,-1.1755 -2.0809,-1.8436 z m 12.9684,0 c 0,-4.8001 5.1873,-3.8202 5.1873,-0.5696 v 7.0535 c 0,2.1226 -0.7765,3.8908 -2.5936,3.8908 -1.8172,0 -2.5937,-1.7682 -2.5937,-3.8908 z m -4.6236,-12.239 c 0.648,0 2.0299,0.3863 2.0299,1.9893 v 16.7336 c 0,4.9099 -3.8903,4.5864 -3.8903,0 0,-4.5388 -0.274,-11.1492 -0.2284,-16.5905 0.0108,-1.2917 1.0412,-2.1324 2.0888,-2.1324 z m 17.7557,22.1225 -5.4923,-0.005 c 0.0196,-4.3986 0.178,-12.7659 -3.4383,-15.266 -0.3637,-0.2514 -0.8064,-0.4049 -1.399,-0.3652 -0.7486,0.05 -1.3996,0.4167 -2.0594,0.853 l -0.7113,0.825 c 0.1344,-2.8201 0.1231,-4.252 -0.1264,-8.0938 -0.1074,-1.6559 -3.1584,-2.903 -4.8374,-2.924 -0.5122,0.005 -4.1456,0.4328 -4.1456,3.4206 l 0.3279,7.4693 c -0.3902,-0.1942 -3.5442,-3.8128 -6.1526,2.1431 -0.9657,2.7672 -0.7377,5.7497 -0.5887,12.3792 l -6.555,0.0549 c 1.6466,6.1678 10.4693,7.781 18.1557,7.781 6.5119,0 13.2493,-2.6383 17.0224,-8.2722 z"
   id="path452" />
  <path
   class="fil1"
   d="m 59.0301,66.3707 c 3.6937,0.1196 7.1678,2.6054 9.5561,2.2491 l 6.4324,-0.9599 3.9276,-0.2941 c 3.5025,0 7.1521,0.2113 10.0604,-0.4662 -2.7064,1.9937 -6.1702,5.5825 -6.1702,12.138 0,7.1609 5.1918,12.1306 9.5031,14.0856 -6.9168,0 -25.9617,1.1323 -26.3617,0.1794 -0.2142,-0.5103 6.0266,-2.3932 6.4903,-2.6986 l 7.7624,-5.1114 -11.3502,0.1187 c 1.1417,-0.8055 2.1574,-1.8295 3.4251,-2.4153 2.5093,-1.1593 7.2123,-4.1481 4.9706,-4.2873 L 63.2263,78.0371 c 1.7574,-1.2417 3.3873,-1.5245 6.8437,-2.6025 l 5.8859,-1.8353 c 2.2643,-0.7059 -5.2952,-1.8417 -9.9374,-2.5609 -4.2761,-0.6627 -8.0693,-4.7025 -6.9884,-4.6677 z M 58.1649,60.85 c -19.7298,0.0157 -14.0218,5.407 -29.425,-5.1555 l 1.422,6.5521 -1.7926,12.9003 2.0181,15.439 c 0.0236,0.1784 1.7486,-0.5952 1.7697,-0.777 l 0.3078,-2.6265 c 1.0275,0.3451 3.329,2.4995 4.3967,2.527 1.0676,0.0274 2.0588,-0.2084 1.7647,-0.9236 l -2.2564,-5.477 -0.0226,-1.752 5.6497,-4.6771 c 1.0662,6.0129 1.9343,3.9844 1.9343,7.3453 0,10.731 -14.2331,16.0091 -14.2331,29.9299 v 7.781 c -5.232,-1.0181 -10.5095,-6.5721 -13.2326,-6.4138 -0.9039,0.0524 -1.6309,-0.1608 -2.0285,1.3593 -0.1343,0.5128 -0.3328,1.2123 -0.3328,2.3579 v 1.2971 l 0.6328,9.2766 2.0599,9.6787 -0.3677,5.5427 c 1.8613,-0.6299 2.8623,-0.1613 2.8623,-3.7491 0,-6.0006 -2.1225,-8.6016 -2.5936,-14.265 l 1.5382,-3.7976 c 4.056,0.9084 8.7012,4.53 11.76,7.358 7.1575,6.6173 9.2904,3.7922 12.8571,6.5952 1.8006,1.4152 10.1561,24.2446 10.1561,28.7496 0,3.0799 -2.0196,0.0186 -3.8907,5.1873 l 10.3374,-1.5186 -11.8713,-32.1055 c 9.5997,-5.0477 17.2582,-1.3907 30.0643,-1.3907 2.5451,0 15.6865,-6.4742 18.1557,-7.7811 2.8001,1.8751 20.7582,20.6259 9.0781,19.4528 l -18.1297,-1.5573 -3.0687,5.1677 5.3584,-0.9495 c 2.8207,0.2554 3.704,1.0882 7.9987,0.6578 1.0848,-0.1088 2.4834,-0.5505 3.5746,-0.5206 l 13.334,0.3721 4.1785,-2.8922 9.9635,2.8157 c 0.471,3.5565 1.4304,4.107 1.4304,8.5776 v 2.5937 c 0,4.5682 -5.2104,5.5692 -7.7811,9.0781 l 6.5835,0.4113 -0.049,-1.8672 5.0868,1.6147 1.6412,-14.3875 -0.9431,-11.683 c -2.102,-1.8672 -5.8349,-2.8398 -5.8349,-6.5095 0,-3.8397 3.8275,-10.5261 5.2413,-14.2105 2.298,-5.9874 -1.03,-13.0228 5.1334,-13.0228 h 3.8902 c -0.1764,7.9291 -5.1873,13.5723 -5.1873,22.046 0,25.1201 10.6468,27.9466 14.2655,41.4988 h 2.5936 c 0.3373,-4.0565 1.2966,-4.607 1.2966,-9.0776 v -2.5937 l 0.6015,-44.115 0.6956,-2.5712 -1.0726,-8.6021 c -0.4495,-3.6044 -2.4412,-4.3662 -5.4118,-4.3662 -6.9536,0 -16.0768,6.4844 -18.1558,6.4844 -0.1142,0 -13.9409,-7.9114 -15.562,-7.781 -5.8795,0.473 -15.0282,6.4839 -19.4523,6.4839 h -3.8908 c -9.2908,0 -26.5166,-1.5363 -28.5304,-9.0776 l 88.1742,-2.1623 -2.2172,-0.8348 c -9.509,-1.2574 -10.6649,-4.0261 -18.5215,-4.0261 l -5.502,1.2123 c -8.3467,0 -13.7664,2.1677 -17.4111,-2.8064 5.354,-0.2294 10.834,-1.7378 15.1811,-1.1304 4.6124,0.6446 8.7649,0.8162 10.4997,0.1255 5.8943,-2.3466 8.3164,-1.0103 12.3988,-2.0378 l 5.8109,-1.4628 c -13.4458,-0.1598 -27.3883,0.0373 -40.8218,-0.5181 -0.5917,-0.024 0.5117,-1.6898 0.976,-1.8805 4.9064,-2.0152 10.6605,0.4515 15.4154,-1.5171 4.7957,-1.9859 10.0203,-3.0628 15.6126,-4.4697 l 7.2933,-1.8349 c -11.6723,0.3858 -25.2368,1.9697 -36.9017,1.428 -0.927,-0.0426 -1.278,-2.9069 -0.3608,-3.0613 l 13.4483,-2.2643 c 2.925,-0.4926 9.2649,1.2897 11.2379,1.1113 1.9731,-0.1784 6.1212,-2.3878 8.086,-2.8447 l 4.4903,-2.15 -39.1571,1.4853 c 0.7686,-3.9716 7.0388,-5.376 10.6266,-5.376 6.1467,0 8.8575,1.1554 13.9052,1.1554 5.7251,0 9.6889,0.0975 13.3282,-5.0457 L 94.5151,62.3937 C 80.7089,62.6432 71.8328,60.8392 58.1649,60.85 Z"
   id="path454" />
  <path
   class="fil1"
   d="m 29.1354,183.343 4.6364,4.4016 c -1.7334,3.0961 -4.1055,6.5535 -4.1055,10.6012 v 3.8907 h 3.8903 c -0.8574,-3.6795 -1.2966,-2.2172 -1.2966,-5.1873 0,-0.3559 0.8932,-2.3697 1.2966,-3.8908 h 2.5937 c 0.476,5.7192 0.5662,7.8443 5.1873,9.0781 -0.3431,-4.1256 -3.3466,-19.4528 -7.781,-19.4528 z"
   id="path456" />
  <path
   class="fil1"
   d="m 50.4157,193.159 0.7353,6.5045 -4.5549,-2.5868 1.4676,-3.8246 z m -6.4844,-10.3747 c 0.6446,0.8397 3.8908,4.8947 3.8908,5.1874 0,1.6794 -3.8908,2.7618 -3.8908,9.0781 v 2.5936 c 0,6.8291 4.331,1.3133 10.3747,2.5937 l -3.8868,-19.4533 z"
   id="path458" />
  <path
   class="fil1"
   d="m 60.7904,191.862 c 2.1824,-9.3693 3.1359,-1.3961 5.1874,-9.0781 h -7.781 v 19.4528 c 1.9147,-0.5113 3.8902,-0.2314 3.8902,-2.5937 0,-3.95 -0.5892,-4.7437 -1.2966,-7.781 z"
   id="path460" />
  <path
   class="fil1"
   d="m 82.8364,186.675 c 5.082,-0.5319 3.8604,1.0799 5.1874,-3.8908 h -3.8903 c -2.9883,0 -3.8907,0.9025 -3.8907,3.8908 v 10.3747 c 0,2.5049 2.3122,5.1873 3.8907,5.1873 1.7795,0 3.0971,-2.7059 3.8903,-3.8907 h -5.1874 c 0.4221,-5.0693 -0.7848,-3.9388 3.8908,-5.1874 v -2.5937 z"
   id="path462" />
  <path
   class="fil1"
   d="m 95.5146,199.851 -1.2486,-5.3021 4.1599,1.1334 1.7354,3.7452 z m -1.0064,-14.4728 h 3.8903 l -1.58,5.1133 -2.3103,0.074 z m 5.1874,3.8907 c 0,-2.6848 2.0122,0.4976 2.5936,-6.4844 H 91.9145 l -1.2466,10.3796 c -0.2323,1.8824 -1.3137,9.0732 3.8403,9.0732 h 9.0776 c -0.5956,-7.1555 -3.8902,-6.6918 -3.8902,-12.9684 z"
   id="path464" />
  <path
   class="fil1"
   d="m 115.87,183.727 -0.7746,-1.5584 -10.3438,2.7118 c 0.8084,3.406 1.4275,3.4795 1.4275,6.982 v 10.3747 h 3.8908 v -7.781 c 0,-3.5025 -0.6197,-3.5761 -1.1275,-6.2237 z"
   id="path466" />
  <path
   class="fil1"
   d="m 131.587,191.511 2.1158,7.4369 -5.6962,-2.0441 z m -5.1069,-8.4462 3.0584,4.8972 c -1.5339,2.8794 -3.906,6.3368 -3.906,10.3845 0,6.505 8.1134,2.8623 12.9684,3.8907 -0.3892,-4.6726 -2.5388,-6.0663 -3.8898,-11.6727 -1.651,-6.8492 -0.1564,-7.61 -8.231,-7.4997 z"
   id="path468" />
  <path
   class="fil1"
   d="m 17.3392,193.2 c 5.6687,2.9995 4.7966,1.1005 5.4741,7.2893 l -4.8187,-0.8461 z m 0.6554,-5.2285 c 0.3063,-0.3741 2.3765,-1.2966 3.8907,-1.2966 h 5.1874 v -2.5937 c -2.9089,-0.6775 -2.982,-1.2971 -6.4845,-1.2971 h -1.2966 c -3.0358,0 -5.1873,2.152 -5.1873,5.1874 v 2.5936 l 1.452,11.6483 c 2.753,0.701 2.826,1.3201 6.329,1.3201 h 5.1874 c -3.5722,-15.3321 -3.4501,-7.1575 -9.0781,-15.562 z"
   id="path470" />
  <path
   class="fil1"
   d="m 119.148,186.675 c 0.9946,0.6912 2.5936,0.697 2.5936,2.5936 0,1.7496 -1.4392,1.9452 -2.5936,2.5937 z m 0,11.6713 c 0,-4.1281 3.7799,-3.9668 6.4844,-9.0777 -1.4809,-2.2118 -2.8221,-5.1873 -6.4844,-5.1873 -1.5785,0 -3.8903,2.6824 -3.8903,5.1873 v 9.0777 c 0,3.5025 0.6191,3.576 1.2966,6.4844 h 2.5937 z"
   id="path472" />
  <path
   class="fil1"
   d="m 75.0554,194.456 -1.5388,3.7976 -2.4064,0.8584 c -0.8412,-2.1525 -3.2961,-5.0658 -2.4681,-7.2227 l 1.4676,-3.8246 c 3.4197,0.2118 4.9457,-0.123 4.9457,3.7976 0,0.8642 0.324,1.7927 0,2.5937 z m -5.0177,11.6223 c 5.5339,-1.4736 7.6114,-7.1909 7.6114,-14.216 0,-2.9976 -1.4496,-7.781 -3.8903,-7.781 -5.3398,0 -5.9496,4.3197 -7.8482,7.8001 z"
   id="path474" />
  <path
   class="fil1"
   d="m 145.085,198.346 c 0,-4.9992 -0.1407,-4.1109 3.8908,-5.1874 l 1.7196,5.1874 z m -0.2416,-14.1724 1.4676,3.8251 c -0.7426,1.5098 -6.4133,13.1743 -6.4133,14.238 v 6.484 h 2.5936 v -6.484 h 10.3747 v 5.1874 h 2.5937 v -6.4845 c 0,-2.0706 -5.9413,-10.333 -6.4839,-16.8586 z"
   id="path476" />
  <path
   class="fil1"
   d="m 11.5106,53.1009 h 147.839 v 165.995 H 11.5106 Z m -2.6995,-5.9394 0.1058,174.528 h 153.027 l 0.1053,-174.528 -55.8696,-7.029 -41.6135,-0.8152 -55.7549,7.8442 z"
   id="path478" />
  <path
   class="fil1"
   d="M 2.4325,21.9768 C 2.4325,11.4197 65.7768,3.821 82.8364,3.821 h 5.1874 c 17.0596,0 80.4039,7.5987 80.4039,18.1558 v 204.9 H 2.4327 v -204.9 z M 1.1359,20.6797 v 207.494 h 168.589 V 20.6797 C 169.7249,10.1231 106.3806,2.524 89.321,2.524 H 81.5399 C 64.4798,2.524 1.136,10.1231 1.136,20.6797 Z"
   id="path480" />
 </g></g></svg>
