<?xml version="1.0" encoding="UTF-8" standalone="no"?>
<!-- Created with Inkscape (http://www.inkscape.org/) -->
<svg
   xmlns:dc="http://purl.org/dc/elements/1.1/"
   xmlns:cc="http://web.resource.org/cc/"
   xmlns:rdf="http://www.w3.org/1999/02/22-rdf-syntax-ns#"
   xmlns:svg="http://www.w3.org/2000/svg"
   xmlns="http://www.w3.org/2000/svg"
   xmlns:sodipodi="http://inkscape.sourceforge.net/DTD/sodipodi-0.dtd"
   xmlns:inkscape="http://www.inkscape.org/namespaces/inkscape"
   height="429"
   width="707.09003"
   id="svg2"
   sodipodi:version="0.32"
   inkscape:version="0.43"
   sodipodi:docbase="D:\zzz_priv\wikipedia\inkscape"
   sodipodi:docname="BG_Gabrovo_flag.svg"
   version="1.0">
  <defs
     id="defs4" />
  <sodipodi:namedview
     id="base"
     pagecolor="#ffffff"
     bordercolor="#666666"
     borderopacity="1.0"
     inkscape:pageopacity="0.0"
     inkscape:pageshadow="2"
     inkscape:cx="354.54501"
     inkscape:cy="250"
     inkscape:zoom="1.358"
     inkscape:document-units="px"
     inkscape:current-layer="layer1"
     inkscape:window-width="1152"
     inkscape:window-height="845"
     inkscape:window-x="-4"
     inkscape:window-y="-4" />
  <metadata
     id="metadata7">
    <rdf:RDF>
      <cc:Work
         rdf:about="">
        <dc:format>image/svg+xml</dc:format>
        <dc:type
           rdf:resource="http://purl.org/dc/dcmitype/StillImage" />
        <dc:title>Gabrovo coa</dc:title>
        <dc:creator>
          <cc:Agent>
            <dc:title>Brosen (PL Wikipedia)</dc:title>
          </cc:Agent>
        </dc:creator>
      </cc:Work>
    </rdf:RDF>
  </metadata>
  <g
     inkscape:groupmode="layer"
     inkscape:label="Warstwa 1"
     id="layer1">
    <g
       id="g7779"
       transform="translate(-20.38733,-18.01736)">
      <g
         transform="matrix(1.967805,0,0,1.967805,-232.7909,-148.1059)"
         id="g5822">
        <path
           id="path1401"
           style="fill:#00cc00;fill-opacity:1;fill-rule:evenodd;stroke:#00cc00;stroke-width:0.50818044;stroke-linecap:square;stroke-linejoin:miter;stroke-miterlimit:4;stroke-opacity:1"
           d="M 128.93497,265.50167 L 128.93497,121.29809 L 488.25639,121.29809 M 488.25639,121.29809 L 488.25639,265.50167 L 128.93497,265.50167" />
        <path
           id="path1403"
           style="fill:#ffffff;fill-opacity:1;fill-rule:evenodd;stroke:#ffffff;stroke-width:0.50818044;stroke-linecap:square;stroke-linejoin:miter;stroke-miterlimit:4;stroke-opacity:1"
           d="M 128.93497,120.29809 L 128.93497,84.671325 L 488.25639,84.671325 M 488.25639,84.671325 L 488.25639,120.29809 L 128.93497,120.29809" />
        <path
           id="path4074"
           style="fill:#ffffff;fill-opacity:1;fill-rule:evenodd;stroke:#ffffff;stroke-width:0.50818044;stroke-linecap:square;stroke-linejoin:miter;stroke-miterlimit:4;stroke-opacity:1"
           d="M 128.93497,302.12844 L 128.93497,266.50167 L 488.25639,266.50167 M 488.25639,266.50167 L 488.25639,302.12844 L 128.93497,302.12844" />
      </g>
      <g
         transform="matrix(0.295345,0,0,0.295345,430.2872,110.9059)"
         id="g7745">
        <g
           id="g7722">
          <path
             id="path6845"
             d="M -285.34273,87.293799 L -217.66261,81.027122 L -212.23149,205.9429 L -262.78269,214.29847 L -285.34273,87.293799 z "
             style="fill:#00cc00;fill-opacity:1;fill-rule:evenodd;stroke:#00cc00;stroke-width:1px;stroke-linecap:butt;stroke-linejoin:miter;stroke-opacity:1" />
          <path
             id="path7720"
             d="M -91.2846,88.756023 L -158.96472,82.489346 L -164.39584,207.40512 L -113.84464,215.76069 L -91.2846,88.756023 z "
             style="fill:#00cc00;fill-opacity:1;fill-rule:evenodd;stroke:#00cc00;stroke-width:1px;stroke-linecap:butt;stroke-linejoin:miter;stroke-opacity:1" />
          <path
             sodipodi:nodetypes="ccccccccccc"
             d="M -252.79159,89.30937 L -204.23561,84.76901 L -221.22193,75.92569 L -247.62929,78.39498 L -248.68222,66.12099 L -254.35536,66.65148 L -260.0285,67.18197 L -258.78765,79.43839 L -285.19501,81.90768 L -300.24735,93.74687 L -252.79159,89.30937 z "
             style="fill:#fffa00;fill-opacity:1;fill-rule:evenodd;stroke:#fffa00;stroke-width:1.00000036px;stroke-linecap:square;stroke-linejoin:miter;stroke-opacity:1"
             id="path10257" />
          <path
             sodipodi:nodetypes="ccccccccccc"
             d="M -124.6846,89.30937 L -173.24063,84.76901 L -156.25431,75.92569 L -129.8469,78.39498 L -128.794,66.12099 L -123.1209,66.65148 L -117.4477,67.18197 L -118.6886,79.43839 L -92.2812,81.90768 L -77.2289,93.74687 L -124.6846,89.30937 z "
             style="fill:#fffa00;fill-opacity:1;fill-rule:evenodd;stroke:#fffa00;stroke-width:1.00000036px;stroke-linecap:square;stroke-linejoin:miter;stroke-opacity:1"
             id="path10380" />
          <path
             sodipodi:nodetypes="ccccc"
             d="M -89.2246,61.72394 L -118.9141,230.98279 L -97.0943,236.10343 L -75.2745,241.22409 L -26.5684,76.42804"
             style="fill:#00cc00;fill-opacity:1;fill-rule:evenodd;stroke:#fffa00;stroke-width:10.00000477;stroke-linecap:square;stroke-linejoin:miter;stroke-miterlimit:4;stroke-dasharray:none;stroke-opacity:1"
             id="path10289" />
          <path
             sodipodi:nodetypes="ccccccccccccccc"
             d="M -57.622057,69.271301 L -105.10006,58.129241 L -99.857357,35.789546 L -84.285557,39.443913 L -87.063357,51.693521 L -61.242257,57.753171 L -58.519657,45.738721 L -52.972557,47.040531 L -47.425357,48.342341 L -50.331657,60.313671 L -24.510657,66.373321 L -21.549057,54.166841 L -5.977257,57.821211 L -11.219957,80.160901 L -57.622057,69.271301 z "
             style="fill:#fffa00;fill-opacity:1;fill-rule:evenodd;stroke:#fffa00;stroke-width:1.00000048px;stroke-linecap:square;stroke-linejoin:miter;stroke-opacity:1"
             id="path10291" />
          <path
             sodipodi:nodetypes="ccccc"
             d="M -220.20656,53.69223 L -210.43992,225.25742 L -188.02733,225.25742 L -165.61473,225.25743 L -155.84809,53.69223"
             style="fill:#00cc00;fill-opacity:1;fill-rule:evenodd;stroke:#fffa00;stroke-width:10.00000095;stroke-linecap:square;stroke-linejoin:miter;stroke-miterlimit:4;stroke-dasharray:none;stroke-opacity:1"
             id="path10301" />
          <path
             sodipodi:nodetypes="ccccccccccccccc"
             d="M -188.52735,53.277343 L -138.89878,53.277343 L -138.89878,30.330733 L -154.89365,30.330733 L -154.98804,42.890983 L -176.12734,42.890983 L -176.03298,30.572273 L -188.02735,30.572273 L -200.02172,30.572273 L -199.92736,42.890983 L -221.06666,42.890983 L -221.16105,30.330733 L -237.15587,30.330733 L -237.15587,53.277343 L -188.52735,53.277343 z "
             style="fill:#fffa00;fill-opacity:1;fill-rule:evenodd;stroke:#fffa00;stroke-width:1.00000012px;stroke-linecap:square;stroke-linejoin:miter;stroke-opacity:1"
             id="path10303" />
          <path
             sodipodi:nodetypes="ccccc"
             d="M -288.6566,61.72394 L -258.96711,230.98279 L -280.78691,236.10343 L -302.60671,241.22409 L -351.31284,76.42804"
             style="fill:#00cc00;fill-opacity:1;fill-rule:evenodd;stroke:#fffa00;stroke-width:10.00000477;stroke-linecap:square;stroke-linejoin:miter;stroke-miterlimit:4;stroke-dasharray:none;stroke-opacity:1"
             id="path10376" />
          <path
             sodipodi:nodetypes="ccccccccccccccc"
             d="M -320.25911,69.271301 L -272.78118,58.129241 L -278.02384,35.789546 L -293.59561,39.443913 L -290.81784,51.693521 L -316.63889,57.753171 L -319.36149,45.738721 L -324.90868,47.040531 L -330.45586,48.342341 L -327.54951,60.313671 L -353.37057,66.373321 L -356.33211,54.166841 L -371.90389,57.821211 L -366.66124,80.160901 L -320.25911,69.271301 z "
             style="fill:#fffa00;fill-opacity:1;fill-rule:evenodd;stroke:#fffa00;stroke-width:1.00000048px;stroke-linecap:square;stroke-linejoin:miter;stroke-opacity:1"
             id="path10378" />
          <path
             sodipodi:nodetypes="csccscsccsc"
             d="M -189.56903,175.48141 C -234.99295,175.64154 -269.18247,188.49424 -307.60922,194.88399 C -346.03596,201.27374 -355.32082,199.06914 -376.13677,200.16409 C -374.82102,188.77401 -370.11738,155.36849 -368.42145,145.9574 C -347.76557,144.90997 -338.48071,147.11457 -300.05397,140.72482 C -261.62722,134.33507 -228.30415,121.48237 -188.94062,121.32226 C -149.57709,121.48238 -116.25396,134.33508 -77.82726,140.72483 C -39.40046,147.11457 -30.11566,144.90998 -9.45976,145.95739 C -7.76386,155.36849 -3.06016,188.77401 -1.74446,200.16409 C -22.56036,199.06913 -31.84526,201.27373 -70.27196,194.88398 C -108.69876,188.49423 -150.80317,175.64153 -189.56903,175.48141 z "
             style="fill:#fffa00;fill-opacity:1;fill-rule:evenodd;stroke:#fffa00;stroke-width:1px;stroke-linecap:butt;stroke-linejoin:miter;stroke-opacity:1"
             id="path12148" />
          <g
             style="fill:#fffa00;fill-opacity:1;stroke:#fffa00;stroke-opacity:1"
             transform="matrix(0.162764,0.107716,-0.107716,0.162764,-432.5836,143.8988)"
             id="g3097">
            <path
               id="path1332"
               style="fill:#fffa00;fill-opacity:1;fill-rule:evenodd;stroke:#fffa00;stroke-width:5.12349796px;stroke-linecap:square;stroke-linejoin:miter;stroke-opacity:1"
               d="M 225.39822,-49.489972 L 143.89885,-49.48997 L 224.89822,-234.1392 L 305.89759,-49.489972 L 225.39822,-49.489972 z "
               sodipodi:nodetypes="ccccc" />
            <path
               id="path2222"
               style="fill:#fffa00;fill-opacity:1;fill-rule:evenodd;stroke:#fffa00;stroke-width:5.12349749px;stroke-linecap:square;stroke-linejoin:miter;stroke-opacity:1"
               d="M 225.56696,-379.78843 L 116.56278,-379.78843 L 224.89822,-195.1392 L 333.23366,-379.78843 L 225.56696,-379.78843 z "
               sodipodi:nodetypes="ccccc" />
          </g>
          <g
             style="fill:#fffa00;fill-opacity:1;stroke:#fffa00;stroke-opacity:1"
             transform="matrix(-0.162764,0.107716,0.107716,0.162764,54.5719,143.8988)"
             id="g3101">
            <path
               id="path3103"
               style="fill:#fffa00;fill-opacity:1;fill-rule:evenodd;stroke:#fffa00;stroke-width:5.12349796px;stroke-linecap:square;stroke-linejoin:miter;stroke-opacity:1"
               d="M 225.39822,-49.489972 L 143.89885,-49.48997 L 224.89822,-234.1392 L 305.89759,-49.489972 L 225.39822,-49.489972 z "
               sodipodi:nodetypes="ccccc" />
            <path
               id="path3105"
               style="fill:#fffa00;fill-opacity:1;fill-rule:evenodd;stroke:#fffa00;stroke-width:5.12349749px;stroke-linecap:square;stroke-linejoin:miter;stroke-opacity:1"
               d="M 225.56696,-379.78843 L 116.56278,-379.78843 L 224.89822,-195.1392 L 333.23366,-379.78843 L 225.56696,-379.78843 z "
               sodipodi:nodetypes="ccccc" />
          </g>
          <rect
             transform="matrix(0.991442,-0.130548,0.130548,0.991442,0,0)"
             y="155.59065"
             x="-279.90985"
             height="4.7846737"
             width="36.338135"
             id="rect5750"
             style="fill:#fffa00;fill-opacity:1;fill-rule:nonzero;stroke:#fffa00;stroke-width:1.00000119;stroke-linecap:square;stroke-linejoin:miter;stroke-miterlimit:4;stroke-dasharray:none;stroke-dashoffset:0;stroke-opacity:1" />
          <rect
             transform="matrix(-0.991442,-0.130548,-0.130548,0.991442,0,0)"
             y="204.75414"
             x="93.460518"
             height="4.7846737"
             width="36.338135"
             id="rect5788"
             style="fill:#fffa00;fill-opacity:1;fill-rule:nonzero;stroke:#fffa00;stroke-width:1.00000119;stroke-linecap:square;stroke-linejoin:miter;stroke-miterlimit:4;stroke-dasharray:none;stroke-dashoffset:0;stroke-opacity:1" />
          <path
             id="text11088"
             d="M -358.89643,189.29217 L -359.28339,160.64557 L -365.25689,160.805 L -365.33569,154.97219 L -349.35615,154.54573 L -349.27736,160.37852 L -355.23412,160.5375 L -354.84717,189.1841 L -358.89643,189.29217 M -346.23484,189.21986 L -346.97128,154.74978 L -340.44737,154.4744 C -338.01625,154.37181 -336.42358,154.46932 -335.66935,154.76693 C -334.46471,155.24955 -333.45905,156.3446 -332.65238,158.05204 C -331.83458,159.75908 -331.39637,161.98417 -331.33775,164.72733 C -331.28452,167.21973 -331.57437,169.32651 -332.2073,171.04768 C -332.8406,172.7532 -333.65171,173.97199 -334.64064,174.70406 C -335.62994,175.42048 -337.35129,175.83046 -339.80472,175.93401 L -342.46447,176.04628 L -342.18667,189.04898 L -346.23484,189.21986 M -342.79853,160.41013 L -342.58955,170.19155 L -340.348,170.09692 C -338.8425,170.0334 -337.82527,169.8414 -337.29632,169.52096 C -336.75625,169.20009 -336.32156,168.64829 -335.99225,167.86558 C -335.66329,167.06725 -335.51086,166.10375 -335.53497,164.97511 C -335.55943,163.83083 -335.75845,162.87433 -336.13205,162.10561 C -336.50567,161.33693 -336.9574,160.83039 -337.48722,160.58601 C -338.01707,160.34169 -339.12954,160.25528 -340.82463,160.32681 L -342.79853,160.41013 M -322.76796,177.8751 L -331.66645,154.12499 L -327.13159,153.56918 L -321.37372,170.83288 L -318.44534,152.50457 L -314.26061,151.99167 L -319.39339,178.9255 C -320.0293,182.21479 -320.69605,184.55548 -321.39364,185.94754 C -322.09125,187.33963 -322.98467,188.10242 -324.07392,188.23592 C -325.11872,188.36398 -326.06109,188.33779 -326.90103,188.15739 L -327.2194,183.0252 C -326.54863,183.00595 -326.04097,182.97522 -325.69641,182.93298 C -324.71831,182.81311 -324.05268,182.44029 -323.69951,181.81455 C -323.33524,181.18747 -323.02472,179.87432 -322.76796,177.8751 M -295.24631,177.38627 L -293.51993,177.07533 L -292.31388,190.30505 L -295.61724,190.90003 L -296.29577,183.45685 L -308.89502,185.72614 L -308.21649,193.16931 L -311.51985,193.76428 L -312.72589,180.53456 L -311.06592,180.23558 C -310.63137,177.72248 -310.3916,174.73853 -310.3466,171.28369 C -310.30161,167.82889 -310.58541,162.74156 -311.198,156.02168 L -311.61491,151.44844 L -297.83708,148.96689 L -295.24631,177.38627 M -301.32884,155.45363 L -307.27156,156.52398 C -306.35126,166.61935 -306.2106,174.27006 -306.84957,179.47616 L -299.26346,178.10982 L -301.32884,155.45363 M -295.001,154.25697 L -295.62041,148.51224 L -285.64283,146.38673 L -284.18082,159.94615 L -278.52189,158.74065 C -276.41498,158.29183 -274.63461,158.89598 -273.18078,160.55307 C -271.72866,162.19471 -270.83541,164.56605 -270.50102,167.6671 C -270.22519,170.22549 -270.49205,172.66949 -271.30158,174.9991 C -272.11281,177.31323 -273.78148,178.73935 -276.30758,179.27747 L -285.97077,181.33601 L -289.02769,152.98448 L -295.001,154.25697 M -283.55891,165.71414 L -282.58842,174.715 L -278.38559,173.81967 C -277.26044,173.57999 -276.46219,173.29098 -275.99086,172.95264 C -275.50852,172.61198 -275.13649,172.03309 -274.87476,171.21597 C -274.60203,170.39654 -274.51915,169.49063 -274.62613,168.49828 C -274.9555,165.44374 -276.47699,164.20551 -279.19061,164.78357 L -283.55891,165.71414 M -258.35794,175.29115 L -261.95802,141.17883 L -258.13396,140.38147 L -255.73473,163.11526 L -250.08854,138.7039 L -246.06582,137.86512 L -242.46575,171.97744 L -246.28981,172.77481 L -248.63747,150.52966 L -254.31868,174.44892 L -258.35794,175.29115 M -226.53013,169.10843 L -230.55791,169.70395 L -233.12447,135.40756 L -217.14652,133.04516 L -214.57996,167.34156 L -218.59109,167.93462 L -220.72522,139.41666 L -228.66427,140.59048 L -226.53013,169.10843 M -211.86691,149.85164 C -212.02066,145.74855 -211.71818,142.34191 -210.95946,139.63172 C -210.19018,136.90509 -209.13355,134.84028 -207.78956,133.4373 C -206.44558,132.0344 -204.78199,131.2595 -202.79878,131.11264 C -199.92427,130.89985 -197.52674,132.2692 -195.60618,135.2207 C -193.67451,138.17144 -192.60186,142.49702 -192.38823,148.1975 C -192.17229,153.96065 -192.96174,158.53403 -194.7566,161.91766 C -196.3316,164.90813 -198.56192,166.51019 -201.44757,166.72383 C -204.35552,166.93912 -206.7038,165.69176 -208.49239,162.98173 C -210.53022,159.88185 -211.65506,155.50516 -211.86691,149.85164 M -207.69762,149.3074 C -207.54916,153.26956 -206.90286,156.20549 -205.75873,158.1152 C -204.61521,160.00928 -203.25239,160.89773 -201.67028,160.7806 C -200.07705,160.66264 -198.79345,159.5861 -197.81949,157.55097 C -196.84613,155.5002 -196.43575,152.43891 -196.58831,148.36712 C -196.73797,144.37366 -197.36111,141.45956 -198.45771,139.62483 C -199.5432,137.78931 -200.91042,136.93259 -202.55935,137.05464 C -204.20831,137.17676 -205.51478,138.23928 -206.47876,140.24223 C -207.44275,142.24524 -207.84903,145.26696 -207.69762,149.3074 M -175.55599,152.91438 L -171.64294,155.12557 C -172.29166,158.9721 -173.33814,161.77634 -174.78237,163.53831 C -176.22649,165.2846 -177.99165,166.13898 -180.07782,166.10147 C -182.69951,166.05432 -184.81183,164.59695 -186.41478,161.72939 C -188.25918,158.41833 -189.15604,153.97941 -189.10537,148.41259 C -189.05184,142.53219 -188.06726,137.94674 -186.15162,134.65622 C -184.48542,131.80042 -182.26896,130.39738 -179.50224,130.4471 C -177.24872,130.48766 -175.37319,131.60356 -173.87564,133.79481 C -172.80751,135.35105 -172.03618,137.6469 -171.56169,140.68235 L -175.59288,142.25665 C -175.83249,140.386 -176.33269,138.9498 -177.09345,137.94802 C -177.84295,136.93081 -178.73644,136.41286 -179.77395,136.39418 C -181.25772,136.36752 -182.47644,137.25526 -183.43009,139.05738 C -184.38377,140.85957 -184.87966,143.85407 -184.91776,148.04092 C -184.9573,152.3846 -184.52802,155.482 -183.62992,157.33313 C -182.73182,159.18429 -181.55205,160.12299 -180.09059,160.14927 C -179.01962,160.16854 -178.08838,159.60499 -177.29688,158.45862 C -176.50526,157.29659 -175.92496,155.44851 -175.55599,152.91438 M -163.75215,166.41036 L -162.40138,137.82158 L -168.36283,137.26508 L -168.0878,131.44405 L -152.14051,132.93272 L -152.41554,138.75376 L -158.36029,138.19881 L -159.71105,166.7876 L -163.75215,166.41036 M -150.58973,150.63469 C -150.27046,146.55049 -149.58088,143.25711 -148.521,140.75449 C -147.4488,138.23806 -146.16899,136.43996 -144.68156,135.36019 C -143.19414,134.28047 -141.4634,133.89304 -139.48932,134.19789 C -136.62804,134.63984 -134.41912,136.535 -132.86254,139.8834 C -131.29491,143.23358 -130.73286,147.74577 -131.1764,153.41999 C -131.62486,159.1566 -132.92896,163.49101 -135.08871,166.42324 C -136.98635,169.01731 -139.37135,170.09253 -142.24372,169.64891 C -145.13829,169.20186 -147.3126,167.43825 -148.76666,164.35807 C -150.42195,160.83663 -151.02963,156.26218 -150.58973,150.63469 M -146.4126,151.04318 C -146.7209,154.9871 -146.4201,158.03114 -145.51018,160.17531 C -144.59907,162.30392 -143.3561,163.48982 -141.78127,163.73304 C -140.19537,163.97798 -138.80502,163.20666 -137.6102,161.4191 C -136.41419,159.61595 -135.65777,156.68785 -135.34091,152.63481 C -135.0302,148.65975 -135.31065,145.6425 -136.18227,143.58309 C -137.04283,141.52545 -138.29379,140.36986 -139.93514,140.11632 C -141.5765,139.86285 -142.98782,140.61516 -144.16909,142.37323 C -145.35038,144.13136 -146.09821,147.02133 -146.4126,151.04318 M -113.34522,174.39899 L -109.91699,140.2517 L -118.38494,138.57205 C -120.55028,138.14258 -122.12811,138.14636 -123.11846,138.5834 C -124.10726,139.00497 -124.97633,139.91748 -125.72568,141.32091 C -126.47347,142.70888 -126.95338,144.45879 -127.1654,146.57065 C -127.43354,149.24157 -127.19651,151.48212 -126.4543,153.29229 C -125.70106,155.10468 -124.50586,156.38706 -122.86872,157.13939 C -123.81774,157.83808 -124.62619,158.65174 -125.29406,159.58038 C -125.96038,160.49352 -126.91371,162.18911 -128.15403,164.66718 L -131.24225,170.84903 L -126.45314,171.79897 L -122.79061,164.94707 C -121.47139,162.46882 -120.59045,160.93308 -120.14779,160.33984 C -119.7036,159.73111 -119.25911,159.34414 -118.81434,159.17894 C -118.36805,158.99824 -117.6809,158.99992 -116.75289,159.18398 L -115.92432,159.34832 L -117.35548,173.60353 L -113.34522,174.39899 M -115.37712,153.8978 L -118.35996,153.30614 C -120.18281,152.94459 -121.3319,152.60581 -121.8072,152.28978 C -122.28097,151.95825 -122.63821,151.42018 -122.87894,150.67555 C -123.11968,149.93096 -123.18314,148.99186 -123.06933,147.85825 C -122.96021,146.77127 -122.71824,145.93235 -122.34342,145.34149 C -121.96706,144.73514 -121.50126,144.36032 -120.94603,144.21702 C -120.55328,144.12074 -119.45652,144.25118 -117.65575,144.60835 L -114.5072,145.23287 L -115.37712,153.8978 M -109.28229,175.30294 L -105.57635,141.21303 L -101.57282,142.07292 L -103.03144,155.4903 L -95.156737,157.18166 L -93.698127,143.76428 L -89.678054,144.62772 L -93.383995,178.71765 L -97.404068,177.8542 L -95.783663,162.94857 L -103.65837,161.25722 L -105.27876,176.16284 L -109.28229,175.30294 M -75.189795,169.73372 L -71.519846,172.65459 C -72.525637,176.34627 -73.827362,178.93076 -75.425039,180.40804 C -77.021124,181.8698 -78.851273,182.3877 -80.915495,181.96177 C -83.509598,181.42649 -85.46582,179.58836 -86.784151,176.44739 C -88.299974,172.82187 -88.770251,168.25499 -88.194972,162.74677 C -87.587288,156.92825 -86.17891,152.56675 -83.96982,149.66225 C -82.048967,147.14215 -79.719741,146.16453 -76.982134,146.72938 C -74.752328,147.18952 -72.998608,148.64508 -71.720951,151.09605 C -70.809021,152.83761 -70.26106,155.25692 -70.077051,158.354 L -74.221133,159.1632 C -74.282203,157.26441 -74.642517,155.74767 -75.302082,154.61296 C -75.949017,153.46506 -76.785779,152.78519 -77.812362,152.57333 C -79.280522,152.27041 -80.572209,152.92321 -81.687424,154.53172 C -82.802663,156.14028 -83.576613,159.01595 -84.009272,163.15872 C -84.458159,167.45669 -84.324803,170.60676 -83.60922,172.60891 C -82.893653,174.61108 -81.812831,175.76136 -80.366751,176.05974 C -79.307048,176.27841 -78.330883,175.89337 -77.438246,174.90461 C -76.544009,173.90035 -75.794531,172.17673 -75.189795,169.73372 M -64.673214,184.55631 L -62.15096,156.12474 L -68.079625,155.08559 L -67.566056,149.29658 L -51.706463,152.07635 L -52.220024,157.86538 L -58.132083,156.82915 L -60.654345,185.26071 L -64.673214,184.55631 M -50.132989,152.38553 L -42.109163,153.2935 C -39.918338,153.54145 -38.394186,153.99712 -37.536725,154.66051 C -36.679288,155.32396 -35.985474,156.40153 -35.455273,157.89322 C -34.925106,159.38496 -34.711496,161.02964 -34.814436,162.82727 C -34.909358,164.48427 -35.256653,165.95535 -35.856319,167.24052 C -36.455127,168.5101 -37.18991,169.41813 -38.060677,169.96464 C -36.904772,170.69332 -36.034358,171.81446 -35.449446,173.32809 C -34.853451,174.843 -34.614536,176.63214 -34.7327,178.69553 C -34.875969,181.19663 -35.425445,183.26629 -36.381122,184.90452 C -37.33594,186.52712 -38.408839,187.47557 -39.59981,187.74986 C -40.427773,187.93935 -42.320844,187.86674 -45.279025,187.53199 L -52.101783,186.75993 L -50.132989,152.38553 M -46.423739,158.56359 L -46.879009,166.51238 L -44.209958,166.81441 C -42.608543,166.99565 -41.616529,167.06858 -41.233924,167.03319 C -40.535478,166.95491 -39.972831,166.60951 -39.545982,165.99701 C -39.118258,165.3689 -38.871713,164.48428 -38.80634,163.34313 C -38.748159,162.3271 -38.862416,161.48818 -39.149096,160.82638 C -39.423792,160.15026 -39.784636,159.70823 -40.231628,159.50029 C -40.66753,159.29366 -41.953095,159.06952 -44.088324,158.82787 L -46.423739,158.56359 M -47.206691,172.23363 L -47.733136,181.42515 L -43.979784,181.84988 C -42.33388,182.03614 -41.270674,182.03845 -40.790141,181.85682 C -40.308749,181.65958 -39.892207,181.22685 -39.540517,180.55865 C -39.176835,179.87609 -38.963655,178.98769 -38.900968,177.89346 C -38.836521,176.76797 -38.956067,175.82619 -39.259623,175.0681 C -39.551187,174.29567 -39.97294,173.74447 -40.524876,173.41455 C -41.064829,173.07026 -42.202233,172.79995 -43.937106,172.60362 L -47.206691,172.23363 M -32.435643,171.76586 C -32.378809,167.65787 -31.902596,164.2907 -31.007004,161.66433 C -30.100043,159.02263 -28.940382,157.07013 -27.528003,155.80683 C -26.115641,154.54358 -24.416676,153.93909 -22.43109,153.99333 C -19.553137,154.07203 -17.231979,155.68049 -15.467607,158.81871 C -13.692111,161.95729 -12.843845,166.38022 -12.922784,172.08751 C -13.002641,177.85757 -14.024331,182.33917 -15.987862,185.53236 C -17.711965,188.35565 -20.018571,189.72781 -22.907674,189.64883 C -25.819109,189.56926 -28.097387,188.08744 -29.742508,185.20342 C -31.616245,181.90534 -32.51396,177.42615 -32.435643,171.76586 M -28.249296,171.64502 C -28.304193,175.61194 -27.809975,178.60566 -26.766643,180.62621 C -25.723117,182.6311 -24.40935,183.6552 -22.825349,183.69848 C -21.230208,183.7421 -19.894798,182.79827 -18.819104,180.867 C -17.743224,178.92006 -17.177073,175.90826 -17.120652,171.83159 C -17.065351,167.83335 -17.537589,164.86375 -18.53735,162.92279 C -19.525996,160.98218 -20.845776,159.9893 -22.496691,159.94414 C -24.147622,159.89903 -25.505129,160.82657 -26.56921,162.72676 C -27.633309,164.62699 -28.193337,167.59975 -28.249296,171.64502"
             style="font-size:40.70055771px;font-style:normal;font-variant:normal;font-weight:bold;font-stretch:normal;text-align:start;line-height:100%;writing-mode:lr-tb;text-anchor:start;fill:#00cc00;fill-opacity:1;stroke:#00cc00;stroke-width:1.15352511px;stroke-linecap:butt;stroke-linejoin:miter;stroke-opacity:1;font-family:Arial Narrow" />
          <path
             sodipodi:nodetypes="cscsc"
             d="M -414.51699,191.40238 C -389.64999,190.35495 -378.47223,192.55955 -332.21143,186.1698 C -285.95062,179.78004 -246.89753,171.18157 -199.50896,171.02146 C -152.12039,171.18158 -110.94011,179.78005 -64.67936,186.16981 C -18.41849,192.55955 -7.24079,190.35496 17.62622,191.40237"
             style="fill:none;fill-opacity:1;fill-rule:evenodd;stroke:none;stroke-width:1px;stroke-linecap:butt;stroke-linejoin:miter;stroke-opacity:1"
             id="path11116" />
        </g>
        <path
           id="path39827"
           style="fill:#00cc00;fill-opacity:1;stroke:#fffa00;stroke-width:20;stroke-miterlimit:4;stroke-opacity:1"
           d="M -190.9569,751.1423 C -231.86769,738.26798 -249.20097,731.84707 -285.43952,710.46626 C -320.99381,689.48916 -403.16808,613.41088 -416.2622,565.56655 C -421.77098,528.64417 -414.04767,452.46358 -415.29521,405.92927 C -415.88097,384.0798 -416.1509,332.93929 -453.60476,278.10421 L -399.96671,217.39723 C -362.75674,227.12246 -342.45685,225.14267 -319.71042,221.62044 C -286.89787,216.53949 -237.33492,203.75231 -189.00589,203.67443 C -140.67682,203.75231 -91.11392,216.53949 -58.30132,221.62044 C -35.55492,225.14267 -15.25502,227.12246 21.95498,217.39723 L 75.59298,278.10421 C 38.13918,332.9393 37.86918,384.07981 37.28348,405.92928 C 36.03588,452.46359 43.75918,528.64418 38.25048,565.56656 C 25.15628,613.41089 -57.01792,689.48917 -92.57222,710.46627 C -128.81082,731.84708 -146.14408,738.26799 -190.9569,751.1423 z "
           sodipodi:nodetypes="cscsccscsccscsc" />
        <path
           style="fill:#fffa00;fill-opacity:1;stroke:#fffa00;stroke-opacity:1"
           d="M -353.3328,438.65473 C -354.18373,437.8038 -354.1902,427.60209 -353.34183,424.43214 C -352.71405,422.08645 -352.57114,422.06013 -343.98365,422.7084 L -335.26299,423.36672 L -333.63482,416.88495 C -332.73933,413.31998 -332.00665,409.76943 -332.00665,408.99485 C -332.00665,408.06714 -334.65149,406.94283 -339.75665,405.70036 C -348.84115,403.48943 -349.25162,402.7167 -345.98267,393.97966 C -343.98322,388.63567 -343.67213,388.31421 -340.4999,388.31421 C -338.65022,388.31421 -335.87005,388.81231 -334.32175,389.42111 C -326.12487,392.64412 -326.42347,392.73862 -322.55278,385.69675 C -320.60241,382.14849 -319.00665,378.85996 -319.00665,378.38891 C -319.00665,377.91786 -321.92999,376.02085 -325.50295,374.17333 C -333.20185,370.19237 -333.66757,368.45396 -328.83713,361.72769 C -324.89372,356.23659 -322.8562,356.10775 -314.43524,360.81702 L -308.17163,364.31983 L -303.07692,358.60369 C -300.27483,355.45981 -298.1002,352.57398 -298.24443,352.19073 C -298.72632,350.91018 -333.25359,318.81846 -334.46607,318.52417 C -335.1233,318.36464 -339.6763,321.84281 -344.58384,326.25343 C -349.49139,330.66405 -354.34704,334.28207 -355.37417,334.29347 C -358.30561,334.32602 -373.00665,320.56428 -373.00665,317.78759 C -373.00665,316.02863 -368.14454,311.21014 -352.75665,297.71923 C -341.61915,287.95474 -331.69459,279.27707 -330.70207,278.43552 C -329.51848,277.43198 -326.59343,276.85926 -322.20207,276.77125 C -318.51959,276.69744 -311.42878,276.27829 -306.44472,275.83979 C -296.71301,274.98361 -293.00665,275.8897 -293.00665,279.12497 C -293.00665,280.10567 -298.90854,286.06493 -306.52749,292.77725 C -313.96396,299.32879 -319.92646,304.94229 -319.77749,305.25168 C -318.92216,307.02817 -283.98876,340.46202 -283.29443,340.16866 C -280.80111,339.11524 -270.00665,331.92359 -270.00665,331.31588 C -270.00665,330.92314 -271.58165,328.5391 -273.50665,326.018 C -278.78769,319.10164 -278.32947,317.09076 -270.60601,313.28851 C -262.85101,309.47074 -261.56688,309.89315 -256.82452,317.82183 C -255.0177,320.84264 -253.0569,323.31421 -252.46719,323.31421 C -249.85718,323.31421 -238.80361,318.94868 -238.3374,317.73375 C -238.0535,316.99391 -238.57061,314.13236 -239.48654,311.37475 C -242.23266,303.10697 -241.67165,302.10291 -233.1223,299.98427 C -224.24749,297.78499 -223.71231,298.10688 -221.76692,306.81421 L -220.42639,312.81421 L -213.23641,312.67883 C -202.91446,312.48448 -203.00665,312.55926 -203.00665,304.38078 C -203.00665,298.4873 -202.70178,297.22142 -201.07239,296.34939 C -198.3331,294.88337 -181.70616,295.0147 -180.20665,296.51421 C -179.51067,297.21019 -179.00665,300.54554 -179.00665,304.45519 C -179.00665,308.16273 -178.57971,311.46004 -178.05789,311.78254 C -177.53607,312.10505 -173.53682,312.64439 -169.17067,312.98108 L -161.23222,313.59325 L -160.11944,308.40451 C -159.5074,305.5507 -159.00665,302.57875 -159.00665,301.80017 C -159.00665,301.0216 -158.12035,299.91025 -157.0371,299.33051 C -154.45088,297.9464 -141.11911,300.85756 -140.30288,302.98463 C -139.9907,303.79816 -140.58384,307.24262 -141.62096,310.63899 C -142.65809,314.03536 -143.50665,317.19881 -143.50665,317.66887 C -143.50665,318.56899 -131.69739,323.31421 -129.45731,323.31421 C -128.73909,323.31421 -126.52633,320.63897 -124.54007,317.36922 C -122.55381,314.09948 -120.05275,311.14623 -118.98217,310.80644 C -116.40868,309.98964 -104.62879,316.20225 -104.1775,318.61429 C -103.99227,319.60434 -105.67805,322.79591 -107.92368,325.70667 C -110.16931,328.61742 -112.00665,331.25455 -112.00665,331.56694 C -112.00665,332.27812 -99.35326,340.31421 -98.23346,340.31421 C -96.35992,340.31421 -71.00665,313.56497 -71.00665,311.58828 C -71.00665,308.67964 -72.83327,308.22049 -87.50665,307.44073 C -99.06448,306.82654 -100.86719,306.483 -103.75665,304.344 C -105.77104,302.85279 -107.00665,301.07048 -107.00665,299.65603 C -107.00665,297.4139 -106.78352,297.36907 -94.25665,297.09409 C -83.71437,296.86267 -81.50665,296.55448 -81.50665,295.31421 C -81.50665,294.04925 -84.56221,293.73586 -101.00665,293.31421 C -119.37926,292.84312 -120.69455,292.68019 -123.75665,290.49612 C -127.2289,288.0195 -128.01642,284.91567 -125.42486,283.9212 C -124.55488,283.58735 -114.17188,283.31421 -102.35154,283.31421 C -82.42182,283.31421 -80.88447,283.18703 -81.19666,281.56421 C -81.50677,279.95223 -83.84769,279.79329 -110.87778,279.54893 L -140.22224,279.28366 L -144.61444,276.12941 C -147.64528,273.95283 -149.00665,272.25284 -149.00665,270.64469 L -149.00665,268.31421 L -100.90665,268.31421 L -52.80665,268.31421 L -49.46559,271.65527 C -47.62801,273.49285 -45.84552,276.30535 -45.5045,277.90527 C -42.84244,290.39453 -37.44322,290.23634 -34.06262,277.57003 C -33.2466,274.51261 -32.11563,272.9048 -30.01791,271.82003 C -26.67379,270.09072 -18.78737,269.82601 -15.94417,271.34765 C -13.26095,272.78366 -10.00665,279.54592 -10.00665,283.68548 C -10.00665,287.98749 -14.60758,292.31421 -19.18225,292.31421 C -22.30037,292.31421 -28.59376,294.83712 -29.62075,296.49882 C -31.06966,298.84322 -22.28633,304.65961 -13.18871,307.38023 C -4.68426,309.92346 -5.00665,308.04792 -5.00665,354.98045 C -5.00665,401.76107 -4.83496,400.81718 -12.06096,393.76118 L -15.97417,389.94003 L -16.24041,363.87712 L -16.50665,337.81421 L -18.75665,337.49466 L -21.00665,337.17511 L -21.00665,357.62803 C -21.00665,377.15117 -21.0964,378.10442 -22.98094,378.59724 C -24.3793,378.96292 -25.95351,378.00855 -28.37733,375.32567 L -31.79943,371.53781 L -32.5329,354.3777 C -33.17582,339.33615 -33.46639,337.25572 -34.88651,337.52655 C -36.21811,337.7805 -36.5957,339.70363 -37.00665,348.32487 C -37.49734,358.6188 -37.55328,358.81966 -40.0099,359.10682 C -41.9456,359.33309 -43.24927,358.44166 -45.7599,355.17504 C -49.39933,350.43972 -49.93771,345.82404 -47.78809,337.78683 C -46.50489,332.98912 -47.08072,330.93164 -50.26961,328.92014 C -52.8636,327.28389 -57.97193,330.3395 -71.04776,341.34882 C -77.56317,346.83453 -83.11165,351.67509 -83.37774,352.10562 C -83.64382,352.53615 -81.40354,355.42593 -78.39933,358.52736 L -72.93715,364.16632 L -66.87583,360.74027 C -58.37416,355.93484 -56.79514,356.15742 -52.39721,362.78119 C -50.39307,365.79963 -49.02382,368.91657 -49.34001,369.74054 C -49.65498,370.56134 -52.29632,372.42955 -55.20966,373.89213 C -63.52411,378.0662 -63.36873,377.64515 -59.45946,385.40792 C -57.54658,389.20638 -55.83261,392.31421 -55.65063,392.31421 C -55.46865,392.31421 -52.67943,391.40581 -49.45238,390.29554 C -38.38253,386.48695 -37.67148,386.78579 -34.40518,396.6197 C -32.35426,402.79444 -33.20642,403.83834 -41.96606,405.88182 C -45.42393,406.68849 -48.61039,407.56931 -49.04709,407.83921 C -49.4838,408.1091 -49.45715,409.78889 -48.98789,411.57207 C -48.51863,413.35525 -47.63819,416.72798 -47.03136,419.06702 L -45.92805,423.31984 L -37.52237,422.67373 C -29.23538,422.03674 -29.10962,422.06141 -28.61626,424.42091 C -27.15615,431.404 -26.94352,436.53322 -28.05846,437.87664 C -29.07327,439.09941 -38.84097,439.31421 -93.42909,439.31421 C -142.01164,439.31421 -157.89825,439.02261 -158.80665,438.11421 C -159.46665,437.45421 -160.01105,435.99171 -160.01642,434.86421 C -160.03637,430.67685 -164.78114,422.4917 -168.68082,419.91734 C -179.47296,412.79294 -201.7589,412.62927 -212.10048,419.59846 C -216.41176,422.50383 -219.8025,427.55942 -220.53609,432.17596 C -221.68142,439.38358 -215.87211,438.78708 -287.69168,439.07139 C -323.42368,439.21284 -352.96218,439.02534 -353.3328,438.65473 z "
           id="path1516" />
        <path
           style="fill:#00cc00;fill-opacity:1;stroke:#00cc00;stroke-opacity:1"
           d="M -238.85646,423.06421 C -238.01361,422.37671 -236.1525,419.75157 -234.72066,417.23057 C -229.96798,408.86261 -220.43002,401.87569 -209.50665,398.76035 C -206.20665,397.81919 -203.17604,396.54628 -202.77196,395.93168 C -201.75419,394.38364 -201.84294,347.12063 -202.86665,345.5065 C -203.98847,343.73766 -218.39578,346.22048 -230.23806,350.22342 C -239.70865,353.42468 -252.81315,359.92477 -257.50665,363.74917 L -260.50665,366.19366 L -250.25665,376.52101 C -244.61915,382.20105 -240.00665,387.64863 -240.00665,388.62674 C -240.00665,390.93737 -244.40007,395.31421 -246.71946,395.31421 C -247.7115,395.31421 -253.46946,390.8275 -259.51491,385.34375 C -265.56037,379.86 -271.03747,375.36 -271.68625,375.34375 C -273.73623,375.29241 -285.87209,391.44571 -290.46594,400.34024 C -295.23759,409.57905 -298.6541,420.18459 -297.67805,422.72813 C -297.14218,424.12461 -293.68158,424.31421 -268.72916,424.31421 C -247.54094,424.31421 -240.00217,423.99876 -238.85646,423.06421 z "
           id="path1510" />
        <path
           style="fill:#00cc00;fill-opacity:1;stroke:#00cc00;stroke-opacity:1"
           d="M -84.1258,423.40901 C -82.16325,422.16601 -85.85031,410.34533 -91.6464,399.29799 C -96.04467,390.9149 -106.8055,376.71236 -109.55958,375.65553 C -110.40384,375.33155 -115.19257,378.85935 -121.51733,384.46468 C -127.31958,389.60692 -133.22384,394.25458 -134.6379,394.79282 C -136.87979,395.64615 -137.58004,395.35609 -140.10779,392.52704 C -141.70216,390.74263 -143.00665,388.42366 -143.00665,387.37378 C -143.00665,386.20746 -138.75242,381.66277 -132.07043,375.69086 C -126.05552,370.31514 -121.33071,365.59888 -121.57087,365.2103 C -122.56198,363.60665 -138.0619,355.23813 -145.43877,352.32384 C -154.25417,348.84125 -167.12735,345.59673 -174.00665,345.12366 L -178.50665,344.81421 L -178.50665,370.72155 L -178.50665,396.62889 L -171.97928,398.83074 C -168.38922,400.04177 -163.93098,401.8191 -162.07207,402.78038 C -157.14599,405.32775 -149.25702,413.02984 -145.39314,419.06421 L -142.03149,424.31421 L -113.76907,424.2989 C -98.22474,424.29048 -84.88527,423.89003 -84.1258,423.40901 z "
           id="path1506" />
        <path
           style="fill:#fffa00;fill-opacity:1;stroke:none;stroke-opacity:1"
           d="M -201.95082,695.70363 L -206.19273,691.40085 L -217.0906,690.15116 C -236.19412,687.9605 -279.67739,682.03486 -288.76111,680.38432 C -294.92733,679.2639 -297.81061,678.27301 -298.46557,677.04919 C -299.61161,674.90781 -283.32953,573.72476 -281.48038,571.49666 C -280.0467,569.76918 -264.58189,564.6489 -252.48847,561.89766 C -247.81347,560.8341 -238.33628,559.68433 -231.42806,559.34261 C -216.17801,558.58825 -206.85527,560.31986 -196.04271,565.91511 L -188.87061,569.62651 L -184.42954,566.86151 C -181.98695,565.34076 -176.83847,563.06373 -172.98847,561.80146 C -166.86625,559.7942 -164.04482,559.51325 -150.48847,559.56096 C -137.11509,559.60802 -133.50167,559.98554 -124.15186,562.31254 C -111.35872,565.49652 -98.47768,569.75618 -96.78292,571.36324 C -95.62645,572.45987 -79.48847,668.31107 -79.48847,674.08328 C -79.48847,675.62608 -79.9006,677.14309 -80.40432,677.45441 C -80.90804,677.76572 -102.15809,681.1299 -127.62664,684.93036 C -160.22292,689.79444 -174.06371,692.23213 -174.37425,693.16374 C -174.61688,693.89163 -176.05722,695.72901 -177.57501,697.24679 C -180.16427,699.83606 -180.87088,700.00641 -189.02177,700.00641 L -197.70891,700.00641 L -201.95082,695.70363 z "
           id="path1560" />
        <path
           style="fill:#00cc00;fill-opacity:1;stroke:#00cc00;stroke-opacity:1"
           d="M -195.48847,624.57899 L -195.48847,577.15157 L -198.12641,575.07656 C -202.12572,571.93071 -212.79579,569.02717 -224.48847,567.90293 C -238.75559,566.53115 -251.96115,567.99151 -263.21712,572.18579 C -267.82682,573.90349 -268.55782,574.57049 -269.39227,577.82027 C -271.12733,584.57753 -284.94922,669.879 -284.39833,670.42988 C -284.10005,670.72816 -282.31081,670.51515 -280.42224,669.95652 C -262.70939,664.71717 -224.26012,664.71844 -204.63932,669.95901 C -200.98135,670.93603 -197.42597,671.79638 -196.73847,671.87091 C -195.75414,671.97761 -195.48847,661.92653 -195.48847,624.57899 z "
           id="path1554" />
        <path
           style="fill:#00cc00;fill-opacity:1;stroke:#00cc00;stroke-opacity:1"
           d="M -174.71197,670.03745 C -153.69078,664.67851 -115.78978,664.64518 -97.5547,669.96959 C -95.66613,670.52103 -93.92848,670.77975 -93.69325,670.54452 C -92.97431,669.82559 -108.89114,576.83798 -109.99049,575.33454 C -111.72152,572.96721 -123.96602,569.11082 -133.38954,567.96503 C -150.29903,565.90904 -174.69114,569.75782 -180.83448,575.45128 L -183.48847,577.91091 L -183.48847,624.95866 C -183.48847,650.83492 -183.25155,672.00641 -182.96197,672.00641 C -182.6724,672.00641 -178.9599,671.12038 -174.71197,670.03745 z "
           id="path1552" />
        <rect
           style="fill:#fffa00;fill-opacity:1;fill-rule:nonzero;stroke:#fffa00;stroke-width:1.00000036;stroke-linecap:square;stroke-linejoin:miter;stroke-miterlimit:4;stroke-dasharray:none;stroke-dashoffset:0;stroke-opacity:1"
           id="rect5820"
           width="443.74347"
           height="94.012192"
           x="-410.87769"
           y="458.23941" />
        <path
           style="fill:#00cc00;fill-opacity:1;stroke:#00cc00;stroke-opacity:1"
           d="M -306.99023,515.49296 C -313.95981,513.80787 -330.88768,506.58777 -341.99217,500.56388 C -354.23845,493.92059 -363.76059,489.7993 -372.23608,487.47394 C -378.94433,485.63345 -381.02716,485.48302 -392.10499,486.03899 C -408.37514,486.85553 -408.54032,486.75577 -408.54032,476.11162 C -408.54032,470.89365 -408.09446,467.84561 -407.21493,467.0507 C -405.01853,465.06564 -379.46381,464.86346 -371.28131,466.76641 C -362.68718,468.76508 -349.91243,474.18909 -337.26612,481.20886 C -325.37079,487.81178 -312.94095,493.19313 -304.52362,495.38434 C -299.82015,496.60877 -295.9838,496.85351 -287.17337,496.49121 C -272.12488,495.8724 -264.16359,493.42056 -237.07888,481.0636 C -209.42876,468.4487 -203.80918,466.77472 -189.1105,466.77472 C -174.62242,466.77472 -167.5533,468.89372 -140.90671,481.22404 C -115.48465,492.98772 -105.90031,495.95601 -91.47953,496.53175 C -82.25573,496.90001 -79.46748,496.65541 -73.15902,494.92461 C -64.39321,492.5196 -53.49829,487.69462 -38.6244,479.63041 C -32.70128,476.41906 -23.03273,472.00536 -17.13875,469.82221 L -6.4224,465.85283 L 10.24382,465.85283 C 30.19893,465.85283 29.80904,465.64089 29.80904,476.48787 C 29.80904,486.5637 29.36943,486.82774 13.86917,486.06145 C 4.20215,485.58355 0.42919,485.77354 -4.73192,486.99814 C -13.42118,489.05988 -25.33489,494.16131 -39.91407,502.06308 C -60.56028,513.25311 -72.81931,517.02165 -88.5403,517.01121 C -105.98442,516.99964 -117.88604,513.50027 -148.79665,499.29433 C -159.18129,494.52174 -170.90567,489.71204 -174.85084,488.60612 C -191.49748,483.93964 -205.04231,486.85095 -234.69501,501.46892 C -257.23429,512.58017 -273.45443,517.06717 -290.59974,516.93391 C -296.554,516.88762 -303.88894,516.24279 -306.99023,515.49296 z "
           id="path1524" />
        <path
           style="fill:#00cc00;fill-opacity:1;stroke:#00cc00;stroke-opacity:1"
           d="M -306.27141,543.52789 C -313.24099,541.8428 -330.16886,534.6227 -341.27335,528.59881 C -353.51963,521.95552 -363.04177,517.83423 -371.51726,515.50887 C -378.22551,513.66838 -380.30834,513.51795 -391.38617,514.07392 C -407.65632,514.89046 -407.8215,514.7907 -407.8215,504.14655 C -407.8215,498.92858 -407.37564,495.88054 -406.49611,495.08563 C -404.29971,493.10057 -378.74499,492.89839 -370.56249,494.80134 C -361.96836,496.80001 -349.19361,502.22402 -336.5473,509.24379 C -324.65197,515.84671 -312.22213,521.22806 -303.8048,523.41927 C -299.10134,524.6437 -295.26498,524.88844 -286.45455,524.52614 C -271.40606,523.90733 -263.44477,521.45549 -236.36006,509.09853 C -208.70994,496.48363 -203.09036,494.80965 -188.39168,494.80965 C -173.9036,494.80965 -166.83448,496.92865 -140.18789,509.25897 C -114.76583,521.02265 -105.18149,523.99094 -90.76071,524.56668 C -81.53691,524.93494 -78.74866,524.69034 -72.4402,522.95954 C -63.67439,520.55453 -52.77948,515.72955 -37.90558,507.66534 C -31.98246,504.45399 -22.31391,500.04029 -16.41993,497.85714 L -5.70359,493.88776 L 10.96264,493.88776 C 30.91775,493.88776 30.52786,493.67582 30.52786,504.5228 C 30.52786,514.59863 30.08824,514.86267 14.58799,514.09638 C 4.92097,513.61848 1.148,513.80847 -4.0131,515.03307 C -12.70236,517.09481 -24.61607,522.19624 -39.19525,530.09801 C -59.84147,541.28804 -72.10049,545.05658 -87.82148,545.04614 C -105.2656,545.03457 -117.16722,541.5352 -148.07783,527.32926 C -158.46247,522.55667 -170.18685,517.74697 -174.13202,516.64105 C -190.77866,511.97457 -204.32349,514.88588 -233.9762,529.50385 C -256.51547,540.6151 -272.73561,545.1021 -289.88092,544.96884 C -295.83518,544.92255 -303.17012,544.27772 -306.27141,543.52789 z "
           id="path3556" />
      </g>
    </g>
  </g>
</svg>
