<?xml version="1.0" encoding="UTF-8" standalone="no"?>
<svg
   width="158.75mm"
   height="264.58334mm"
   viewBox="0 0 158.75 264.58335"
   version="1.1"
   id="svg8"
   inkscape:version="1.1.2 (0a00cf5339, 2022-02-04, custom)"
   sodipodi:docname="Flag_of_Dobrich.svg"
   xmlns:inkscape="http://www.inkscape.org/namespaces/inkscape"
   xmlns:sodipodi="http://sodipodi.sourceforge.net/DTD/sodipodi-0.dtd"
   xmlns="http://www.w3.org/2000/svg"
   xmlns:svg="http://www.w3.org/2000/svg"
   xmlns:rdf="http://www.w3.org/1999/02/22-rdf-syntax-ns#"
   xmlns:cc="http://creativecommons.org/ns#"
   xmlns:dc="http://purl.org/dc/elements/1.1/">
  <defs
     id="defs2">
    <inkscape:path-effect
       effect="fillet_chamfer"
       id="path-effect2615"
       is_visible="true"
       lpeversion="1"
       satellites_param="F,0,0,1,0,0,0,1 @ F,0,0,1,0,0,0,1 @ F,0,0,1,0,0,0,1 @ F,0,0,1,0,0,0,1 @ F,0,0,1,0,0,0,1 @ F,0,0,1,0,73.674842,0,1 @ F,0,0,1,0,0,0,1"
       unit="px"
       method="auto"
       mode="F"
       radius="0"
       chamfer_steps="1"
       flexible="false"
       use_knot_distance="true"
       apply_no_radius="true"
       apply_with_radius="true"
       only_selected="false"
       hide_knots="false" />
  </defs>
  <sodipodi:namedview
     id="base"
     pagecolor="#ffffff"
     bordercolor="#666666"
     borderopacity="1.0"
     inkscape:pageopacity="0.0"
     inkscape:pageshadow="2"
     inkscape:zoom="0.37953666"
     inkscape:cx="674.50665"
     inkscape:cy="739.05904"
     inkscape:document-units="mm"
     inkscape:current-layer="layer1"
     inkscape:document-rotation="0"
     showgrid="false"
     inkscape:window-width="1920"
     inkscape:window-height="1001"
     inkscape:window-x="-9"
     inkscape:window-y="-9"
     inkscape:window-maximized="1"
     fit-margin-top="0"
     fit-margin-left="0"
     fit-margin-right="0"
     fit-margin-bottom="0"
     units="mm"
     inkscape:pagecheckerboard="0"
     showguides="true"
     inkscape:guide-bbox="true" />
  <metadata
     id="metadata5">
    <rdf:RDF>
      <cc:Work
         rdf:about="">
        <dc:format>image/svg+xml</dc:format>
        <dc:type
           rdf:resource="http://purl.org/dc/dcmitype/StillImage" />
      </cc:Work>
    </rdf:RDF>
  </metadata>
  <g
     inkscape:label="Слой 1"
     inkscape:groupmode="layer"
     id="layer1"
     transform="translate(-781.2481,379.50945)">
    <g
       id="g20373">
      <g
         id="g48454"
         transform="matrix(0.52916614,0,0,0.5291667,1029.6582,-83.329438)">
        <path
           id="path48448"
           d="m -169.43657,-159.71035 h -300.0003 v 100.00009 h 300.0003 z"
           style="fill:#00966e;fill-opacity:1;fill-rule:evenodd;stroke:none;stroke-width:1.45829;stroke-linecap:round;stroke-linejoin:round;stroke-miterlimit:4;stroke-dasharray:none" />
        <path
           id="path48450"
           d="m -169.43657,-559.71023 h -300.0003 v 100.00009 h 300.0003 z"
           style="fill:#00966e;fill-opacity:1;fill-rule:evenodd;stroke:none;stroke-width:1.45829;stroke-linecap:round;stroke-linejoin:round;stroke-miterlimit:4;stroke-dasharray:none" />
        <rect
           y="169.43657"
           x="-459.71014"
           height="300.00027"
           width="299.99979"
           id="rect48452"
           style="fill:#e8a20d;fill-opacity:1;fill-rule:evenodd;stroke:none;stroke-width:1.455;stroke-linecap:round;stroke-linejoin:round;stroke-miterlimit:4;stroke-dasharray:none"
           transform="rotate(90)" />
      </g>
      <path
         id="path20674"
         style="color:#000000;fill:#ffffff;stroke-width:0.999956;-inkscape-stroke:none"
         d="m 860.62054,-302.78132 -0.11316,0.006 c -4.94625,0.21347 -7.7795,2.46487 -10.06585,3.31603 -2.28635,0.85113 -4.56008,1.18357 -10.79806,-1.88823 l -2.1563,-1.06245 -8.36066,13.5328 3.08176,1.09966 c 3.01417,1.07472 4.94295,1.90103 5.67729,2.42564 0.73434,0.52461 0.53435,0.11189 0.45731,0.94722 -0.005,0.0582 -0.004,0.095 -10e-4,0.12351 -0.0155,0.002 -0.0338,0.007 -0.0594,0.0191 -0.22225,0.10411 -1.05496,0.26885 -2.19712,0.19895 -2.28433,-0.13979 -5.6234,-1.02191 -8.48209,-1.82571 l -3.36286,-0.94566 v 52.47759 c -2.3e-4,13.67429 7.44379,26.30765 19.47701,33.12455 l 16.90319,9.576 16.9032,-9.576 c 12.03335,-6.8169 19.47713,-19.45028 19.47702,-33.12455 v -52.47759 l -3.36339,0.94566 c -2.85882,0.80381 -6.19737,1.68592 -8.48156,1.82571 -1.1421,0.0699 -1.97288,-0.0948 -2.19506,-0.19895 -0.0261,-0.0122 -0.0453,-0.0178 -0.061,-0.0196 0.003,-0.0285 0.004,-0.0653 -0.002,-0.12299 -0.0771,-0.83553 -0.27735,-0.42269 0.45678,-0.94722 0.73413,-0.52452 2.66308,-1.35094 5.67728,-2.42564 l 3.08177,-1.09966 -8.36065,-13.5328 -2.15579,1.06245 c -6.23806,3.0718 -8.51171,2.73936 -10.79806,1.88823 -2.28633,-0.85116 -5.11749,-3.10256 -10.06378,-3.31603 z" />
      <g
         id="g6422"
         transform="matrix(0.53333279,0,0,0.53333336,7.9151728,-171.03707)"
         style="stroke-width:0.992187">
        <path
           id="path1651-2"
           style="fill:#b71924;fill-opacity:1;stroke:none;stroke-width:0.262518px;stroke-linecap:butt;stroke-linejoin:miter;stroke-opacity:1"
           d="m 1598.8294,-242.05759 c -15.7409,0.67925 -16.825,14.41984 -41.6859,2.17923 l -10.1223,16.38259 c 11.4651,4.08741 15.3444,5.95629 14.8332,11.49726 -0.7983,8.65405 -15.7302,4.57616 -26.5254,1.54126 v 92.19556 c -4e-4,23.931339 13.0126,46.0442 34.1373,58.00977 l 29.3631,16.631824 29.362,-16.631824 c 21.1248,-11.96557 34.1378,-34.078431 34.1376,-58.00977 v -92.19556 c -10.7955,3.0349 -25.7264,7.11279 -26.5247,-1.54126 -0.511,-5.54097 3.3669,-7.40985 14.8323,-11.49726 l -10.1212,-16.38259 c -24.8612,12.24061 -25.945,-1.49998 -41.686,-2.17923 z" />
        <path
           id="path40232-9"
           style="fill:#e8a20d;fill-opacity:1;stroke-width:0.992185"
           d="m 1602.4263,-218.82785 c -0.2769,-0.0102 -0.6017,0.17066 -0.8439,0.56041 -0.5493,0.88443 0.8566,2.2374 3.4942,3.36195 2.5722,1.09676 2.8617,1.6286 1.4992,2.75334 -0.7286,0.60087 -0.9658,0.58894 -1.3859,-0.0713 -0.2786,-0.43815 -0.5153,-1.08196 -0.5153,-1.43102 -0.01,-0.73302 -1.4113,-1.39275 -1.9068,-0.89983 -0.1845,0.18236 -0.3338,2.28786 -0.3338,4.67863 v 0.002 c 0,3.9362 0.1028,4.3469 1.0855,4.3469 0.8969,0 1.1142,-0.45257 1.2551,-2.60363 0.1576,-2.41062 0.3025,-2.63732 1.9561,-3.06098 0.9821,-0.25162 1.9463,-0.7175 2.1447,-1.0352 0.6551,-1.05469 -0.2879,-3.21005 -1.5607,-3.56704 -2.8925,-0.81101 -4.3223,-1.56763 -4.3223,-2.28676 0,-0.4784 -0.2522,-0.73551 -0.5661,-0.74705 z m -16.9497,3.31016 c -4.7208,0 -6.9632,5.69949 -3.4312,8.72149 1.3925,1.19162 2.0217,1.35136 4.4157,1.12236 2.0042,-0.19149 3.0762,-0.6171 3.8028,-1.50947 1.004,-1.23329 1.3306,-4.08726 0.665,-5.81227 -0.4947,-1.2825 -3.1744,-2.52211 -5.4523,-2.52211 z m 41.5084,0.86754 c -0.4533,0.0177 -0.5605,0.3848 -0.5605,1.37257 0,0.86915 -0.231,1.72092 -0.5132,1.89555 -0.6336,0.38973 -2.2765,-1.1742 -2.2765,-2.16679 0,-0.40044 -0.5021,-0.85952 -1.1157,-1.01827 -0.8374,-0.21769 -1.1157,-0.0172 -1.1157,0.80396 0,1.85816 1.0223,3.12457 3.0641,3.79469 1.7409,0.5715 1.957,0.85699 1.957,2.58261 0,1.549 0.1968,1.90338 0.9763,1.75455 0.81,-0.15399 1.0033,-0.90437 1.1382,-4.40997 0.1473,-3.85524 0.062,-4.25013 -0.9767,-4.5202 -0.2369,-0.0617 -0.4263,-0.0946 -0.5773,-0.0887 z m -41.2884,0.24252 c 0.3068,0 0.5583,0.24957 0.5583,0.55477 0,0.30519 -0.2515,0.55528 -0.5583,0.55528 -0.307,0 -0.5579,-0.25009 -0.5579,-0.55528 0,-0.3052 0.2509,-0.55477 0.5579,-0.55477 z m 6.6952,0 v 4.06951 c 0,2.23818 0.1671,4.2358 0.3717,4.43919 0.7126,0.70902 5.0636,0.37909 5.743,-0.4353 1.0893,-1.30512 0.4341,-2.72216 -1.5156,-3.27838 -1.497,-0.42704 -1.8094,-0.78957 -1.8094,-2.10064 0,-1.34243 0.2248,-1.58433 1.4726,-1.58433 0.8102,0 1.7641,0.39617 2.1201,0.88035 0.5673,0.77173 0.7283,0.70333 1.3044,-0.55477 l 0.6578,-1.43563 h -4.1721 z m 25.9665,0 c -0.6007,5.2e-4 -2.0445,0.92593 -3.2081,2.05603 l -2.1155,2.05501 v -2.05501 c 0,-1.68493 -0.2009,-2.05449 -1.1157,-2.05449 -1.0228,0 -1.1162,0.36963 -1.1162,4.43919 0,4.02212 0.1018,4.4397 1.0813,4.4397 0.6479,0 1.8218,-1.03008 2.9287,-2.56876 l 1.8479,-2.56774 0.2794,2.42417 c 0.1935,1.68176 0.5647,2.47951 1.2116,2.60056 0.7977,0.15061 0.9589,-0.47198 1.1157,-4.29666 0.1691,-4.13365 0.1004,-4.47319 -0.9091,-4.472 z m -45.7106,0.0508 c -0.6162,-0.0101 -0.9594,0.0742 -0.8076,0.22508 0.5205,0.51793 -1.1807,5.41945 -2.1498,6.19375 -0.5341,0.42644 -0.7287,1.36002 -0.5779,2.77488 0.1973,1.85757 0.2829,1.9682 0.6655,0.85933 0.4072,-1.17912 0.7117,-1.26036 4.1341,-1.10954 3.4592,0.152 3.7086,0.25049 3.907,1.54946 v 0 c 0.2003,1.3079 0.2538,1.27661 0.9342,-0.55477 0.9478,-2.54774 0.9501,-2.77488 0.03,-2.77488 -0.4336,0 -1.3933,-1.53423 -2.1694,-3.4686 -1.2831,-3.19921 -1.5364,-3.4815 -3.2661,-3.65216 -0.2578,-0.0253 -0.4934,-0.0392 -0.6988,-0.0425 z m 15.1993,1.22183 c 0.2829,-0.001 0.4956,0.15158 0.6962,0.46658 0.6583,1.03167 0.623,3.10151 -0.073,4.39612 -0.4864,0.90388 -0.7438,0.96311 -1.674,0.38506 v -0.007 c -0.8553,-0.53241 -1.3356,-0.53699 -2.1653,-0.0221 -1.2269,0.7622 -1.7369,0.0234 -1.7151,-2.52159 0.013,-2.22508 0.7472,-3.09895 2.0274,-2.41751 0.7229,0.39211 1.3898,0.38973 2.0898,0 0.3323,-0.18457 0.5952,-0.27887 0.8153,-0.27995 z m -14.4246,2.53287 c 0.2675,0 0.5352,0.62775 0.8521,1.88376 0.333,1.31941 0.2185,1.52536 -0.8521,1.52536 -1.0704,0 -1.1848,-0.20556 -0.8516,-1.52536 0.3169,-1.25601 0.5841,-1.88376 0.8516,-1.88376 z m 22.4964,1.82018 c 0.073,0.003 0.1533,0.0126 0.2389,0.0292 0.537,0.10278 0.9763,0.55497 0.9763,1.00443 0,0.44946 -0.4393,0.90124 -0.9763,1.00443 -0.6852,0.13117 -0.9762,-0.16861 -0.9762,-1.00443 0,-0.73117 0.2226,-1.05357 0.7373,-1.03366 z m -10.4191,1.26541 c 0.01,2e-5 0.016,5.2e-4 0.024,0.001 0.1162,-0.001 0.235,0.0341 0.3323,0.099 0.1798,0.10061 0.2452,0.34258 0.1589,0.52554 -0.1098,0.22414 -0.392,0.31588 -0.6255,0.262 -0.2075,-0.0401 -0.3978,-0.21693 -0.3979,-0.43735 0.01,-0.25763 0.2622,-0.45074 0.5086,-0.45018 z" />
        <path
           id="path42927-0"
           style="color:#000000;fill:#e8a20d;fill-opacity:1;stroke-width:0.992187;-inkscape-stroke:none"
           d="m 1598.8311,-238.06713 c -6.5955,0.33991 -9.9198,3.38512 -16.0383,5.66256 -5.5916,2.08123 -13.0747,2.15636 -24.0336,-2.53798 l -5.8247,9.42903 c 3.3015,1.25278 6.1537,2.45849 8.3011,3.99211 3.1016,2.21559 4.9132,6.16173 4.5695,9.88741 -0.3062,3.31868 -2.5451,6.2911 -5.2319,7.54939 -2.6868,1.25908 -5.5339,1.38194 -8.4765,1.20133 -4.1881,-0.25611 -8.5872,-1.30129 -12.7977,-2.41751 v 87.04005 c 0,22.492688 12.2141,43.278595 32.1225,54.555192 l 27.4096,15.526394 27.4054,-15.526394 c 19.9085,-11.276597 32.1217,-32.062504 32.1215,-54.555192 v -87.04005 c -4.2095,1.1158 -8.6109,2.1614 -12.7977,2.41751 -2.9425,0.18003 -5.7886,0.0573 -8.4755,-1.20133 -2.6866,-1.2585 -4.9267,-4.23071 -5.2329,-7.54939 -0.3435,-3.72526 1.4683,-7.67182 4.5695,-9.88741 2.1481,-1.53425 5.0032,-2.73875 8.3062,-3.99211 l -5.8297,-9.42903 c -10.9578,4.69334 -18.4382,4.61921 -24.0297,2.53798 -6.1184,-2.27744 -9.4416,-5.32265 -16.0371,-5.66256 z m 0,2.02321 c 5.9396,0.34511 8.8661,3.08725 15.348,5.50004 5.6849,2.11593 13.4353,2.18628 23.9097,-1.9422 l 3.6778,5.95326 c -2.4354,0.99675 -4.594,2.03957 -6.4917,3.39528 -3.4826,2.48782 -5.7825,7.48287 -5.3949,11.68557 0.3593,3.89611 3.1777,7.66789 6.3676,9.16193 3.1897,1.49421 6.3195,1.57814 9.4378,1.38742 3.562,-0.21807 7.1804,-0.95658 10.693,-1.81761 v 84.45999 c 2e-4,21.773339 -11.818,41.897759 -31.1181,52.829882 l -26.4251,14.968022 -26.4287,-14.968022 c -19.3002,-10.932123 -31.119,-31.056543 -31.1186,-52.829882 v -84.45999 c 3.5127,0.86103 7.1312,1.59954 10.6935,1.81761 3.1183,0.19051 6.251,0.1074 9.4409,-1.38742 3.1898,-1.49404 6.0046,-5.26561 6.364,-9.16193 0.3877,-4.2033 -1.9081,-9.19796 -5.3909,-11.68557 -1.8979,-1.35571 -4.0601,-2.39853 -6.4957,-3.39528 l 3.6819,-5.95326 c 10.4735,4.1277 18.221,4.05795 23.9055,1.9422 6.4804,-2.41221 9.4075,-5.15375 15.344,-5.50004 z" />
        <g
           id="g6287"
           style="stroke-width:0.992187">
          <rect
             style="fill:#e8a20d;fill-opacity:1;stroke:none;stroke-width:9.92185;stroke-linecap:round;stroke-linejoin:round;paint-order:fill markers stroke"
             id="rect34663-6"
             width="1.9843853"
             height="59.531189"
             x="1569.063"
             y="-139.45381" />
          <rect
             style="fill:#e8a20d;fill-opacity:1;stroke:none;stroke-width:9.92185;stroke-linecap:round;stroke-linejoin:round;paint-order:fill markers stroke"
             id="rect34967-4"
             width="1.9843853"
             height="59.531189"
             x="1576.2563"
             y="-139.45381" />
          <rect
             style="fill:#e8a20d;fill-opacity:1;stroke:none;stroke-width:9.92185;stroke-linecap:round;stroke-linejoin:round;paint-order:fill markers stroke"
             id="rect35049-1"
             width="1.9843853"
             height="59.531189"
             x="1583.4498"
             y="-139.45381" />
          <rect
             style="fill:#e8a20d;fill-opacity:1;stroke:none;stroke-width:9.92185;stroke-linecap:round;stroke-linejoin:round;paint-order:fill markers stroke"
             id="rect35051-6"
             width="1.9843853"
             height="59.531189"
             x="1590.6432"
             y="-139.45381" />
          <rect
             style="fill:#e8a20d;fill-opacity:1;stroke:none;stroke-width:9.92185;stroke-linecap:round;stroke-linejoin:round;paint-order:fill markers stroke"
             id="rect35053-7"
             width="1.9843853"
             height="59.531189"
             x="1597.8368"
             y="-139.45381" />
          <rect
             style="fill:#e8a20d;fill-opacity:1;stroke:none;stroke-width:9.92185;stroke-linecap:round;stroke-linejoin:round;paint-order:fill markers stroke"
             id="rect35055-3"
             width="1.9843853"
             height="59.531189"
             x="1605.0302"
             y="-139.45381" />
          <rect
             style="fill:#e8a20d;fill-opacity:1;stroke:none;stroke-width:9.92185;stroke-linecap:round;stroke-linejoin:round;paint-order:fill markers stroke"
             id="rect35057-9"
             width="1.9843853"
             height="59.531189"
             x="1612.2236"
             y="-139.45381" />
          <rect
             style="fill:#e8a20d;fill-opacity:1;stroke:none;stroke-width:9.92185;stroke-linecap:round;stroke-linejoin:round;paint-order:fill markers stroke"
             id="rect35059-2"
             width="1.9843853"
             height="59.531189"
             x="1619.4171"
             y="-139.45381" />
          <rect
             style="fill:#e8a20d;fill-opacity:1;stroke:none;stroke-width:9.92185;stroke-linecap:round;stroke-linejoin:round;paint-order:fill markers stroke"
             id="rect35061-5"
             width="1.9843853"
             height="59.531189"
             x="1626.6105"
             y="-139.45381" />
          <g
             id="g4792"
             style="stroke-width:0.992187">
            <g
               id="g4693"
               transform="matrix(0.26458333,0,0,0.26458333,1535.329,-231.88696)"
               style="stroke-width:0.992187">
              <path
                 id="path4691"
                 style="color:#000000;fill:#e8a20d;stroke-width:1.125;stroke-linecap:round;stroke-linejoin:round;-inkscape-stroke:none"
                 d="m 111.06121,219.85156 c -0.0719,-0.004 -0.14483,-0.002 -0.21838,0.006 a 0.58159244,0.56698584 0 0 0 0,0.002 c -0.58983,0.0629 -1.07074,0.52735 -1.14797,1.14843 v 0.002 c -1.16857,9.54799 -1.55299,18.97583 -0.53693,24.95117 v 0.002 c 1.34208,7.88274 4.72662,12.41787 8.28223,14.99805 3.56165,2.58521 7.27301,3.30619 9.02149,3.93359 l -0.002,-0.002 c 0.82092,0.29151 1.66714,-0.27349 1.71094,-1.18555 0.41854,-8.47127 0.26192,-13.66545 -0.42674,-17.25976 -0.68888,-3.57854 -2.05378,-5.63875 -3.63625,-7.19922 -1.60416,-1.58225 -3.31844,-2.75564 -5.29108,-5.27344 -1.97193,-2.5168 -4.22139,-6.3902 -6.62337,-13.24805 -0.18003,-0.51328 -0.62851,-0.84362 -1.13195,-0.875 z m 40.37535,0 c -0.50346,0.0314 -0.95192,0.36172 -1.13195,0.875 -2.40199,6.85785 -4.65146,10.73125 -6.62339,13.24805 -1.97301,2.51777 -3.68732,3.69122 -5.29107,5.27344 -1.58248,1.56047 -2.94736,3.62068 -3.63625,7.19922 -0.69255,3.59356 -0.84573,8.78714 -0.42673,17.25976 0.0439,0.91207 0.89002,1.47707 1.71094,1.18555 l -0.002,0.002 c 1.74875,-0.62734 5.45983,-1.34837 9.02149,-3.93359 3.55562,-2.58018 6.94013,-7.11531 8.28223,-14.99805 1.01641,-5.97515 0.63013,-15.40417 -0.53892,-24.95312 -0.0764,-0.62155 -0.55609,-1.0869 -1.14598,-1.15039 a 0.58159244,0.56698584 0 0 0 0,-0.002 c -0.0736,-0.008 -0.14645,-0.0103 -0.21836,-0.006 z" />
            </g>
            <path
               id="path12292-4"
               style="fill:#e8a20d;fill-opacity:1;stroke:none;stroke-width:0.262516px;stroke-linecap:butt;stroke-linejoin:miter;stroke-opacity:1"
               d="m 1570.0552,-195.01638 c -1.2654,5.58681 -4.8848,13.42071 0,15.87499 4.8848,-2.45428 1.2655,-10.28818 0,-15.87499 z" />
            <g
               id="path1175"
               transform="matrix(0.26458333,0,0,0.26458333,1535.329,-242.05759)"
               style="stroke-width:0.992187">
              <path
                 id="path4141"
                 style="color:#000000;fill:#e8a20d;stroke-width:1.125;stroke-linecap:round;stroke-linejoin:round;-inkscape-stroke:none"
                 d="m 111.06121,219.85156 c -0.0719,-0.004 -0.14483,-0.002 -0.21838,0.006 a 0.58159244,0.56698584 0 0 0 0,0.002 c -0.58983,0.0629 -1.07074,0.52735 -1.14797,1.14843 v 0.002 c -1.16857,9.54799 -1.55299,18.97583 -0.53693,24.95117 v 0.002 c 1.34208,7.88274 4.72662,12.41787 8.28223,14.99805 3.56165,2.58521 7.27301,3.30619 9.02149,3.93359 l -0.002,-0.002 c 0.82092,0.29151 1.66714,-0.27349 1.71094,-1.18555 0.41854,-8.47127 0.26192,-13.66545 -0.42674,-17.25976 -0.68888,-3.57854 -2.05378,-5.63875 -3.63625,-7.19922 -1.60416,-1.58225 -3.31844,-2.75564 -5.29108,-5.27344 -1.97193,-2.5168 -4.22139,-6.3902 -6.62337,-13.24805 -0.18003,-0.51328 -0.62851,-0.84362 -1.13195,-0.875 z m 40.37535,0 c -0.50346,0.0314 -0.95192,0.36172 -1.13195,0.875 -2.40199,6.85785 -4.65146,10.73125 -6.62339,13.24805 -1.97301,2.51777 -3.68732,3.69122 -5.29107,5.27344 -1.58248,1.56047 -2.94736,3.62068 -3.63625,7.19922 -0.69255,3.59356 -0.84573,8.78714 -0.42673,17.25976 0.0439,0.91207 0.89002,1.47707 1.71094,1.18555 l -0.002,0.002 c 1.74875,-0.62734 5.45983,-1.34837 9.02149,-3.93359 3.55562,-2.58018 6.94013,-7.11531 8.28223,-14.99805 1.01641,-5.97515 0.63013,-15.40417 -0.53892,-24.95312 -0.0764,-0.62155 -0.55609,-1.0869 -1.14598,-1.15039 a 0.58159244,0.56698584 0 0 0 0,-0.002 c -0.0736,-0.008 -0.14645,-0.0103 -0.21836,-0.006 z" />
            </g>
            <g
               id="g4777"
               transform="matrix(0.26458333,0,0,0.26458333,1535.329,-221.71634)"
               style="stroke-width:0.992187">
              <path
                 id="path4775"
                 style="color:#000000;fill:#e8a20d;stroke-width:1.125;stroke-linecap:round;stroke-linejoin:round;-inkscape-stroke:none"
                 d="m 111.06121,219.85156 c -0.0719,-0.004 -0.14483,-0.002 -0.21838,0.006 a 0.58159244,0.56698584 0 0 0 0,0.002 c -0.58983,0.0629 -1.07074,0.52735 -1.14797,1.14843 v 0.002 c -1.16857,9.54799 -1.55299,18.97583 -0.53693,24.95117 v 0.002 c 1.34208,7.88274 4.72662,12.41787 8.28223,14.99805 3.56165,2.58521 7.27301,3.30619 9.02149,3.93359 l -0.002,-0.002 c 0.82092,0.29151 1.66714,-0.27349 1.71094,-1.18555 0.41854,-8.47127 0.26192,-13.66545 -0.42674,-17.25976 -0.68888,-3.57854 -2.05378,-5.63875 -3.63625,-7.19922 -1.60416,-1.58225 -3.31844,-2.75564 -5.29108,-5.27344 -1.97193,-2.5168 -4.22139,-6.3902 -6.62337,-13.24805 -0.18003,-0.51328 -0.62851,-0.84362 -1.13195,-0.875 z m 40.37535,0 c -0.50346,0.0314 -0.95192,0.36172 -1.13195,0.875 -2.40199,6.85785 -4.65146,10.73125 -6.62339,13.24805 -1.97301,2.51777 -3.68732,3.69122 -5.29107,5.27344 -1.58248,1.56047 -2.94736,3.62068 -3.63625,7.19922 -0.69255,3.59356 -0.84573,8.78714 -0.42673,17.25976 0.0439,0.91207 0.89002,1.47707 1.71094,1.18555 l -0.002,0.002 c 1.74875,-0.62734 5.45983,-1.34837 9.02149,-3.93359 3.55562,-2.58018 6.94013,-7.11531 8.28223,-14.99805 1.01641,-5.97515 0.63013,-15.40417 -0.53892,-24.95312 -0.0764,-0.62155 -0.55609,-1.0869 -1.14598,-1.15039 a 0.58159244,0.56698584 0 0 0 0,-0.002 c -0.0736,-0.008 -0.14645,-0.0103 -0.21836,-0.006 z" />
            </g>
            <g
               id="g4781"
               transform="matrix(0.26458333,0,0,0.26458333,1535.329,-211.54571)"
               style="stroke-width:0.992187">
              <path
                 id="path4779"
                 style="color:#000000;fill:#e8a20d;stroke-width:1.125;stroke-linecap:round;stroke-linejoin:round;-inkscape-stroke:none"
                 d="m 111.06121,219.85156 c -0.0719,-0.004 -0.14483,-0.002 -0.21838,0.006 a 0.58159244,0.56698584 0 0 0 0,0.002 c -0.58983,0.0629 -1.07074,0.52735 -1.14797,1.14843 v 0.002 c -1.16857,9.54799 -1.55299,18.97583 -0.53693,24.95117 v 0.002 c 1.34208,7.88274 4.72662,12.41787 8.28223,14.99805 3.56165,2.58521 7.27301,3.30619 9.02149,3.93359 l -0.002,-0.002 c 0.82092,0.29151 1.66714,-0.27349 1.71094,-1.18555 0.41854,-8.47127 0.26192,-13.66545 -0.42674,-17.25976 -0.68888,-3.57854 -2.05378,-5.63875 -3.63625,-7.19922 -1.60416,-1.58225 -3.31844,-2.75564 -5.29108,-5.27344 -1.97193,-2.5168 -4.22139,-6.3902 -6.62337,-13.24805 -0.18003,-0.51328 -0.62851,-0.84362 -1.13195,-0.875 z m 40.37535,0 c -0.50346,0.0314 -0.95192,0.36172 -1.13195,0.875 -2.40199,6.85785 -4.65146,10.73125 -6.62339,13.24805 -1.97301,2.51777 -3.68732,3.69122 -5.29107,5.27344 -1.58248,1.56047 -2.94736,3.62068 -3.63625,7.19922 -0.69255,3.59356 -0.84573,8.78714 -0.42673,17.25976 0.0439,0.91207 0.89002,1.47707 1.71094,1.18555 l -0.002,0.002 c 1.74875,-0.62734 5.45983,-1.34837 9.02149,-3.93359 3.55562,-2.58018 6.94013,-7.11531 8.28223,-14.99805 1.01641,-5.97515 0.63013,-15.40417 -0.53892,-24.95312 -0.0764,-0.62155 -0.55609,-1.0869 -1.14598,-1.15039 a 0.58159244,0.56698584 0 0 0 0,-0.002 c -0.0736,-0.008 -0.14645,-0.0103 -0.21836,-0.006 z" />
            </g>
          </g>
          <g
             id="g5698"
             transform="translate(14.386882)"
             style="stroke-width:0.992187">
            <g
               id="g5682"
               transform="matrix(0.26458333,0,0,0.26458333,1535.329,-231.88696)"
               style="stroke-width:0.992187">
              <path
                 id="path5680"
                 style="color:#000000;fill:#e8a20d;stroke-width:1.125;stroke-linecap:round;stroke-linejoin:round;-inkscape-stroke:none"
                 d="m 111.06121,219.85156 c -0.0719,-0.004 -0.14483,-0.002 -0.21838,0.006 a 0.58159244,0.56698584 0 0 0 0,0.002 c -0.58983,0.0629 -1.07074,0.52735 -1.14797,1.14843 v 0.002 c -1.16857,9.54799 -1.55299,18.97583 -0.53693,24.95117 v 0.002 c 1.34208,7.88274 4.72662,12.41787 8.28223,14.99805 3.56165,2.58521 7.27301,3.30619 9.02149,3.93359 l -0.002,-0.002 c 0.82092,0.29151 1.66714,-0.27349 1.71094,-1.18555 0.41854,-8.47127 0.26192,-13.66545 -0.42674,-17.25976 -0.68888,-3.57854 -2.05378,-5.63875 -3.63625,-7.19922 -1.60416,-1.58225 -3.31844,-2.75564 -5.29108,-5.27344 -1.97193,-2.5168 -4.22139,-6.3902 -6.62337,-13.24805 -0.18003,-0.51328 -0.62851,-0.84362 -1.13195,-0.875 z m 40.37535,0 c -0.50346,0.0314 -0.95192,0.36172 -1.13195,0.875 -2.40199,6.85785 -4.65146,10.73125 -6.62339,13.24805 -1.97301,2.51777 -3.68732,3.69122 -5.29107,5.27344 -1.58248,1.56047 -2.94736,3.62068 -3.63625,7.19922 -0.69255,3.59356 -0.84573,8.78714 -0.42673,17.25976 0.0439,0.91207 0.89002,1.47707 1.71094,1.18555 l -0.002,0.002 c 1.74875,-0.62734 5.45983,-1.34837 9.02149,-3.93359 3.55562,-2.58018 6.94013,-7.11531 8.28223,-14.99805 1.01641,-5.97515 0.63013,-15.40417 -0.53892,-24.95312 -0.0764,-0.62155 -0.55609,-1.0869 -1.14598,-1.15039 a 0.58159244,0.56698584 0 0 0 0,-0.002 c -0.0736,-0.008 -0.14645,-0.0103 -0.21836,-0.006 z" />
            </g>
            <path
               id="path5684"
               style="fill:#e8a20d;fill-opacity:1;stroke:none;stroke-width:0.262516px;stroke-linecap:butt;stroke-linejoin:miter;stroke-opacity:1"
               d="m 1570.0552,-195.01638 c -1.2654,5.58681 -4.8848,13.42071 0,15.87499 4.8848,-2.45428 1.2655,-10.28818 0,-15.87499 z" />
            <g
               id="g5688"
               transform="matrix(0.26458333,0,0,0.26458333,1535.329,-242.05759)"
               style="stroke-width:0.992187">
              <path
                 id="path5686"
                 style="color:#000000;fill:#e8a20d;stroke-width:1.125;stroke-linecap:round;stroke-linejoin:round;-inkscape-stroke:none"
                 d="m 111.06121,219.85156 c -0.0719,-0.004 -0.14483,-0.002 -0.21838,0.006 a 0.58159244,0.56698584 0 0 0 0,0.002 c -0.58983,0.0629 -1.07074,0.52735 -1.14797,1.14843 v 0.002 c -1.16857,9.54799 -1.55299,18.97583 -0.53693,24.95117 v 0.002 c 1.34208,7.88274 4.72662,12.41787 8.28223,14.99805 3.56165,2.58521 7.27301,3.30619 9.02149,3.93359 l -0.002,-0.002 c 0.82092,0.29151 1.66714,-0.27349 1.71094,-1.18555 0.41854,-8.47127 0.26192,-13.66545 -0.42674,-17.25976 -0.68888,-3.57854 -2.05378,-5.63875 -3.63625,-7.19922 -1.60416,-1.58225 -3.31844,-2.75564 -5.29108,-5.27344 -1.97193,-2.5168 -4.22139,-6.3902 -6.62337,-13.24805 -0.18003,-0.51328 -0.62851,-0.84362 -1.13195,-0.875 z m 40.37535,0 c -0.50346,0.0314 -0.95192,0.36172 -1.13195,0.875 -2.40199,6.85785 -4.65146,10.73125 -6.62339,13.24805 -1.97301,2.51777 -3.68732,3.69122 -5.29107,5.27344 -1.58248,1.56047 -2.94736,3.62068 -3.63625,7.19922 -0.69255,3.59356 -0.84573,8.78714 -0.42673,17.25976 0.0439,0.91207 0.89002,1.47707 1.71094,1.18555 l -0.002,0.002 c 1.74875,-0.62734 5.45983,-1.34837 9.02149,-3.93359 3.55562,-2.58018 6.94013,-7.11531 8.28223,-14.99805 1.01641,-5.97515 0.63013,-15.40417 -0.53892,-24.95312 -0.0764,-0.62155 -0.55609,-1.0869 -1.14598,-1.15039 a 0.58159244,0.56698584 0 0 0 0,-0.002 c -0.0736,-0.008 -0.14645,-0.0103 -0.21836,-0.006 z" />
            </g>
            <g
               id="g5692"
               transform="matrix(0.26458333,0,0,0.26458333,1535.329,-221.71634)"
               style="stroke-width:0.992187">
              <path
                 id="path5690"
                 style="color:#000000;fill:#e8a20d;stroke-width:1.125;stroke-linecap:round;stroke-linejoin:round;-inkscape-stroke:none"
                 d="m 111.06121,219.85156 c -0.0719,-0.004 -0.14483,-0.002 -0.21838,0.006 a 0.58159244,0.56698584 0 0 0 0,0.002 c -0.58983,0.0629 -1.07074,0.52735 -1.14797,1.14843 v 0.002 c -1.16857,9.54799 -1.55299,18.97583 -0.53693,24.95117 v 0.002 c 1.34208,7.88274 4.72662,12.41787 8.28223,14.99805 3.56165,2.58521 7.27301,3.30619 9.02149,3.93359 l -0.002,-0.002 c 0.82092,0.29151 1.66714,-0.27349 1.71094,-1.18555 0.41854,-8.47127 0.26192,-13.66545 -0.42674,-17.25976 -0.68888,-3.57854 -2.05378,-5.63875 -3.63625,-7.19922 -1.60416,-1.58225 -3.31844,-2.75564 -5.29108,-5.27344 -1.97193,-2.5168 -4.22139,-6.3902 -6.62337,-13.24805 -0.18003,-0.51328 -0.62851,-0.84362 -1.13195,-0.875 z m 40.37535,0 c -0.50346,0.0314 -0.95192,0.36172 -1.13195,0.875 -2.40199,6.85785 -4.65146,10.73125 -6.62339,13.24805 -1.97301,2.51777 -3.68732,3.69122 -5.29107,5.27344 -1.58248,1.56047 -2.94736,3.62068 -3.63625,7.19922 -0.69255,3.59356 -0.84573,8.78714 -0.42673,17.25976 0.0439,0.91207 0.89002,1.47707 1.71094,1.18555 l -0.002,0.002 c 1.74875,-0.62734 5.45983,-1.34837 9.02149,-3.93359 3.55562,-2.58018 6.94013,-7.11531 8.28223,-14.99805 1.01641,-5.97515 0.63013,-15.40417 -0.53892,-24.95312 -0.0764,-0.62155 -0.55609,-1.0869 -1.14598,-1.15039 a 0.58159244,0.56698584 0 0 0 0,-0.002 c -0.0736,-0.008 -0.14645,-0.0103 -0.21836,-0.006 z" />
            </g>
            <g
               id="g5696"
               transform="matrix(0.26458333,0,0,0.26458333,1535.329,-211.54571)"
               style="stroke-width:0.992187">
              <path
                 id="path5694"
                 style="color:#000000;fill:#e8a20d;stroke-width:1.125;stroke-linecap:round;stroke-linejoin:round;-inkscape-stroke:none"
                 d="m 111.06121,219.85156 c -0.0719,-0.004 -0.14483,-0.002 -0.21838,0.006 a 0.58159244,0.56698584 0 0 0 0,0.002 c -0.58983,0.0629 -1.07074,0.52735 -1.14797,1.14843 v 0.002 c -1.16857,9.54799 -1.55299,18.97583 -0.53693,24.95117 v 0.002 c 1.34208,7.88274 4.72662,12.41787 8.28223,14.99805 3.56165,2.58521 7.27301,3.30619 9.02149,3.93359 l -0.002,-0.002 c 0.82092,0.29151 1.66714,-0.27349 1.71094,-1.18555 0.41854,-8.47127 0.26192,-13.66545 -0.42674,-17.25976 -0.68888,-3.57854 -2.05378,-5.63875 -3.63625,-7.19922 -1.60416,-1.58225 -3.31844,-2.75564 -5.29108,-5.27344 -1.97193,-2.5168 -4.22139,-6.3902 -6.62337,-13.24805 -0.18003,-0.51328 -0.62851,-0.84362 -1.13195,-0.875 z m 40.37535,0 c -0.50346,0.0314 -0.95192,0.36172 -1.13195,0.875 -2.40199,6.85785 -4.65146,10.73125 -6.62339,13.24805 -1.97301,2.51777 -3.68732,3.69122 -5.29107,5.27344 -1.58248,1.56047 -2.94736,3.62068 -3.63625,7.19922 -0.69255,3.59356 -0.84573,8.78714 -0.42673,17.25976 0.0439,0.91207 0.89002,1.47707 1.71094,1.18555 l -0.002,0.002 c 1.74875,-0.62734 5.45983,-1.34837 9.02149,-3.93359 3.55562,-2.58018 6.94013,-7.11531 8.28223,-14.99805 1.01641,-5.97515 0.63013,-15.40417 -0.53892,-24.95312 -0.0764,-0.62155 -0.55609,-1.0869 -1.14598,-1.15039 a 0.58159244,0.56698584 0 0 0 0,-0.002 c -0.0736,-0.008 -0.14645,-0.0103 -0.21836,-0.006 z" />
            </g>
          </g>
          <g
             id="g6038"
             transform="translate(28.773762)"
             style="stroke-width:0.992187">
            <g
               id="g6022"
               transform="matrix(0.26458333,0,0,0.26458333,1535.329,-231.88696)"
               style="stroke-width:0.992187">
              <path
                 id="path6020"
                 style="color:#000000;fill:#e8a20d;stroke-width:1.125;stroke-linecap:round;stroke-linejoin:round;-inkscape-stroke:none"
                 d="m 111.06121,219.85156 c -0.0719,-0.004 -0.14483,-0.002 -0.21838,0.006 a 0.58159244,0.56698584 0 0 0 0,0.002 c -0.58983,0.0629 -1.07074,0.52735 -1.14797,1.14843 v 0.002 c -1.16857,9.54799 -1.55299,18.97583 -0.53693,24.95117 v 0.002 c 1.34208,7.88274 4.72662,12.41787 8.28223,14.99805 3.56165,2.58521 7.27301,3.30619 9.02149,3.93359 l -0.002,-0.002 c 0.82092,0.29151 1.66714,-0.27349 1.71094,-1.18555 0.41854,-8.47127 0.26192,-13.66545 -0.42674,-17.25976 -0.68888,-3.57854 -2.05378,-5.63875 -3.63625,-7.19922 -1.60416,-1.58225 -3.31844,-2.75564 -5.29108,-5.27344 -1.97193,-2.5168 -4.22139,-6.3902 -6.62337,-13.24805 -0.18003,-0.51328 -0.62851,-0.84362 -1.13195,-0.875 z m 40.37535,0 c -0.50346,0.0314 -0.95192,0.36172 -1.13195,0.875 -2.40199,6.85785 -4.65146,10.73125 -6.62339,13.24805 -1.97301,2.51777 -3.68732,3.69122 -5.29107,5.27344 -1.58248,1.56047 -2.94736,3.62068 -3.63625,7.19922 -0.69255,3.59356 -0.84573,8.78714 -0.42673,17.25976 0.0439,0.91207 0.89002,1.47707 1.71094,1.18555 l -0.002,0.002 c 1.74875,-0.62734 5.45983,-1.34837 9.02149,-3.93359 3.55562,-2.58018 6.94013,-7.11531 8.28223,-14.99805 1.01641,-5.97515 0.63013,-15.40417 -0.53892,-24.95312 -0.0764,-0.62155 -0.55609,-1.0869 -1.14598,-1.15039 a 0.58159244,0.56698584 0 0 0 0,-0.002 c -0.0736,-0.008 -0.14645,-0.0103 -0.21836,-0.006 z" />
            </g>
            <path
               id="path6024"
               style="fill:#e8a20d;fill-opacity:1;stroke:none;stroke-width:0.262516px;stroke-linecap:butt;stroke-linejoin:miter;stroke-opacity:1"
               d="m 1570.0552,-195.01638 c -1.2654,5.58681 -4.8848,13.42071 0,15.87499 4.8848,-2.45428 1.2655,-10.28818 0,-15.87499 z" />
            <g
               id="g6028"
               transform="matrix(0.26458333,0,0,0.26458333,1535.329,-242.05759)"
               style="stroke-width:0.992187">
              <path
                 id="path6026"
                 style="color:#000000;fill:#e8a20d;stroke-width:1.125;stroke-linecap:round;stroke-linejoin:round;-inkscape-stroke:none"
                 d="m 111.06121,219.85156 c -0.0719,-0.004 -0.14483,-0.002 -0.21838,0.006 a 0.58159244,0.56698584 0 0 0 0,0.002 c -0.58983,0.0629 -1.07074,0.52735 -1.14797,1.14843 v 0.002 c -1.16857,9.54799 -1.55299,18.97583 -0.53693,24.95117 v 0.002 c 1.34208,7.88274 4.72662,12.41787 8.28223,14.99805 3.56165,2.58521 7.27301,3.30619 9.02149,3.93359 l -0.002,-0.002 c 0.82092,0.29151 1.66714,-0.27349 1.71094,-1.18555 0.41854,-8.47127 0.26192,-13.66545 -0.42674,-17.25976 -0.68888,-3.57854 -2.05378,-5.63875 -3.63625,-7.19922 -1.60416,-1.58225 -3.31844,-2.75564 -5.29108,-5.27344 -1.97193,-2.5168 -4.22139,-6.3902 -6.62337,-13.24805 -0.18003,-0.51328 -0.62851,-0.84362 -1.13195,-0.875 z m 40.37535,0 c -0.50346,0.0314 -0.95192,0.36172 -1.13195,0.875 -2.40199,6.85785 -4.65146,10.73125 -6.62339,13.24805 -1.97301,2.51777 -3.68732,3.69122 -5.29107,5.27344 -1.58248,1.56047 -2.94736,3.62068 -3.63625,7.19922 -0.69255,3.59356 -0.84573,8.78714 -0.42673,17.25976 0.0439,0.91207 0.89002,1.47707 1.71094,1.18555 l -0.002,0.002 c 1.74875,-0.62734 5.45983,-1.34837 9.02149,-3.93359 3.55562,-2.58018 6.94013,-7.11531 8.28223,-14.99805 1.01641,-5.97515 0.63013,-15.40417 -0.53892,-24.95312 -0.0764,-0.62155 -0.55609,-1.0869 -1.14598,-1.15039 a 0.58159244,0.56698584 0 0 0 0,-0.002 c -0.0736,-0.008 -0.14645,-0.0103 -0.21836,-0.006 z" />
            </g>
            <g
               id="g6032"
               transform="matrix(0.26458333,0,0,0.26458333,1535.329,-221.71634)"
               style="stroke-width:0.992187">
              <path
                 id="path6030"
                 style="color:#000000;fill:#e8a20d;stroke-width:1.125;stroke-linecap:round;stroke-linejoin:round;-inkscape-stroke:none"
                 d="m 111.06121,219.85156 c -0.0719,-0.004 -0.14483,-0.002 -0.21838,0.006 a 0.58159244,0.56698584 0 0 0 0,0.002 c -0.58983,0.0629 -1.07074,0.52735 -1.14797,1.14843 v 0.002 c -1.16857,9.54799 -1.55299,18.97583 -0.53693,24.95117 v 0.002 c 1.34208,7.88274 4.72662,12.41787 8.28223,14.99805 3.56165,2.58521 7.27301,3.30619 9.02149,3.93359 l -0.002,-0.002 c 0.82092,0.29151 1.66714,-0.27349 1.71094,-1.18555 0.41854,-8.47127 0.26192,-13.66545 -0.42674,-17.25976 -0.68888,-3.57854 -2.05378,-5.63875 -3.63625,-7.19922 -1.60416,-1.58225 -3.31844,-2.75564 -5.29108,-5.27344 -1.97193,-2.5168 -4.22139,-6.3902 -6.62337,-13.24805 -0.18003,-0.51328 -0.62851,-0.84362 -1.13195,-0.875 z m 40.37535,0 c -0.50346,0.0314 -0.95192,0.36172 -1.13195,0.875 -2.40199,6.85785 -4.65146,10.73125 -6.62339,13.24805 -1.97301,2.51777 -3.68732,3.69122 -5.29107,5.27344 -1.58248,1.56047 -2.94736,3.62068 -3.63625,7.19922 -0.69255,3.59356 -0.84573,8.78714 -0.42673,17.25976 0.0439,0.91207 0.89002,1.47707 1.71094,1.18555 l -0.002,0.002 c 1.74875,-0.62734 5.45983,-1.34837 9.02149,-3.93359 3.55562,-2.58018 6.94013,-7.11531 8.28223,-14.99805 1.01641,-5.97515 0.63013,-15.40417 -0.53892,-24.95312 -0.0764,-0.62155 -0.55609,-1.0869 -1.14598,-1.15039 a 0.58159244,0.56698584 0 0 0 0,-0.002 c -0.0736,-0.008 -0.14645,-0.0103 -0.21836,-0.006 z" />
            </g>
            <g
               id="g6036"
               transform="matrix(0.26458333,0,0,0.26458333,1535.329,-211.54571)"
               style="stroke-width:0.992187">
              <path
                 id="path6034"
                 style="color:#000000;fill:#e8a20d;stroke-width:1.125;stroke-linecap:round;stroke-linejoin:round;-inkscape-stroke:none"
                 d="m 111.06121,219.85156 c -0.0719,-0.004 -0.14483,-0.002 -0.21838,0.006 a 0.58159244,0.56698584 0 0 0 0,0.002 c -0.58983,0.0629 -1.07074,0.52735 -1.14797,1.14843 v 0.002 c -1.16857,9.54799 -1.55299,18.97583 -0.53693,24.95117 v 0.002 c 1.34208,7.88274 4.72662,12.41787 8.28223,14.99805 3.56165,2.58521 7.27301,3.30619 9.02149,3.93359 l -0.002,-0.002 c 0.82092,0.29151 1.66714,-0.27349 1.71094,-1.18555 0.41854,-8.47127 0.26192,-13.66545 -0.42674,-17.25976 -0.68888,-3.57854 -2.05378,-5.63875 -3.63625,-7.19922 -1.60416,-1.58225 -3.31844,-2.75564 -5.29108,-5.27344 -1.97193,-2.5168 -4.22139,-6.3902 -6.62337,-13.24805 -0.18003,-0.51328 -0.62851,-0.84362 -1.13195,-0.875 z m 40.37535,0 c -0.50346,0.0314 -0.95192,0.36172 -1.13195,0.875 -2.40199,6.85785 -4.65146,10.73125 -6.62339,13.24805 -1.97301,2.51777 -3.68732,3.69122 -5.29107,5.27344 -1.58248,1.56047 -2.94736,3.62068 -3.63625,7.19922 -0.69255,3.59356 -0.84573,8.78714 -0.42673,17.25976 0.0439,0.91207 0.89002,1.47707 1.71094,1.18555 l -0.002,0.002 c 1.74875,-0.62734 5.45983,-1.34837 9.02149,-3.93359 3.55562,-2.58018 6.94013,-7.11531 8.28223,-14.99805 1.01641,-5.97515 0.63013,-15.40417 -0.53892,-24.95312 -0.0764,-0.62155 -0.55609,-1.0869 -1.14598,-1.15039 a 0.58159244,0.56698584 0 0 0 0,-0.002 c -0.0736,-0.008 -0.14645,-0.0103 -0.21836,-0.006 z" />
            </g>
          </g>
          <g
             id="g6058"
             transform="translate(43.160638)"
             style="stroke-width:0.992187">
            <g
               id="g6042"
               transform="matrix(0.26458333,0,0,0.26458333,1535.329,-231.88696)"
               style="stroke-width:0.992187">
              <path
                 id="path6040"
                 style="color:#000000;fill:#e8a20d;stroke-width:1.125;stroke-linecap:round;stroke-linejoin:round;-inkscape-stroke:none"
                 d="m 111.06121,219.85156 c -0.0719,-0.004 -0.14483,-0.002 -0.21838,0.006 a 0.58159244,0.56698584 0 0 0 0,0.002 c -0.58983,0.0629 -1.07074,0.52735 -1.14797,1.14843 v 0.002 c -1.16857,9.54799 -1.55299,18.97583 -0.53693,24.95117 v 0.002 c 1.34208,7.88274 4.72662,12.41787 8.28223,14.99805 3.56165,2.58521 7.27301,3.30619 9.02149,3.93359 l -0.002,-0.002 c 0.82092,0.29151 1.66714,-0.27349 1.71094,-1.18555 0.41854,-8.47127 0.26192,-13.66545 -0.42674,-17.25976 -0.68888,-3.57854 -2.05378,-5.63875 -3.63625,-7.19922 -1.60416,-1.58225 -3.31844,-2.75564 -5.29108,-5.27344 -1.97193,-2.5168 -4.22139,-6.3902 -6.62337,-13.24805 -0.18003,-0.51328 -0.62851,-0.84362 -1.13195,-0.875 z m 40.37535,0 c -0.50346,0.0314 -0.95192,0.36172 -1.13195,0.875 -2.40199,6.85785 -4.65146,10.73125 -6.62339,13.24805 -1.97301,2.51777 -3.68732,3.69122 -5.29107,5.27344 -1.58248,1.56047 -2.94736,3.62068 -3.63625,7.19922 -0.69255,3.59356 -0.84573,8.78714 -0.42673,17.25976 0.0439,0.91207 0.89002,1.47707 1.71094,1.18555 l -0.002,0.002 c 1.74875,-0.62734 5.45983,-1.34837 9.02149,-3.93359 3.55562,-2.58018 6.94013,-7.11531 8.28223,-14.99805 1.01641,-5.97515 0.63013,-15.40417 -0.53892,-24.95312 -0.0764,-0.62155 -0.55609,-1.0869 -1.14598,-1.15039 a 0.58159244,0.56698584 0 0 0 0,-0.002 c -0.0736,-0.008 -0.14645,-0.0103 -0.21836,-0.006 z" />
            </g>
            <path
               id="path6044"
               style="fill:#e8a20d;fill-opacity:1;stroke:none;stroke-width:0.262516px;stroke-linecap:butt;stroke-linejoin:miter;stroke-opacity:1"
               d="m 1570.0552,-195.01638 c -1.2654,5.58681 -4.8848,13.42071 0,15.87499 4.8848,-2.45428 1.2655,-10.28818 0,-15.87499 z" />
            <g
               id="g6048"
               transform="matrix(0.26458333,0,0,0.26458333,1535.329,-242.05759)"
               style="stroke-width:0.992187">
              <path
                 id="path6046"
                 style="color:#000000;fill:#e8a20d;stroke-width:1.125;stroke-linecap:round;stroke-linejoin:round;-inkscape-stroke:none"
                 d="m 111.06121,219.85156 c -0.0719,-0.004 -0.14483,-0.002 -0.21838,0.006 a 0.58159244,0.56698584 0 0 0 0,0.002 c -0.58983,0.0629 -1.07074,0.52735 -1.14797,1.14843 v 0.002 c -1.16857,9.54799 -1.55299,18.97583 -0.53693,24.95117 v 0.002 c 1.34208,7.88274 4.72662,12.41787 8.28223,14.99805 3.56165,2.58521 7.27301,3.30619 9.02149,3.93359 l -0.002,-0.002 c 0.82092,0.29151 1.66714,-0.27349 1.71094,-1.18555 0.41854,-8.47127 0.26192,-13.66545 -0.42674,-17.25976 -0.68888,-3.57854 -2.05378,-5.63875 -3.63625,-7.19922 -1.60416,-1.58225 -3.31844,-2.75564 -5.29108,-5.27344 -1.97193,-2.5168 -4.22139,-6.3902 -6.62337,-13.24805 -0.18003,-0.51328 -0.62851,-0.84362 -1.13195,-0.875 z m 40.37535,0 c -0.50346,0.0314 -0.95192,0.36172 -1.13195,0.875 -2.40199,6.85785 -4.65146,10.73125 -6.62339,13.24805 -1.97301,2.51777 -3.68732,3.69122 -5.29107,5.27344 -1.58248,1.56047 -2.94736,3.62068 -3.63625,7.19922 -0.69255,3.59356 -0.84573,8.78714 -0.42673,17.25976 0.0439,0.91207 0.89002,1.47707 1.71094,1.18555 l -0.002,0.002 c 1.74875,-0.62734 5.45983,-1.34837 9.02149,-3.93359 3.55562,-2.58018 6.94013,-7.11531 8.28223,-14.99805 1.01641,-5.97515 0.63013,-15.40417 -0.53892,-24.95312 -0.0764,-0.62155 -0.55609,-1.0869 -1.14598,-1.15039 a 0.58159244,0.56698584 0 0 0 0,-0.002 c -0.0736,-0.008 -0.14645,-0.0103 -0.21836,-0.006 z" />
            </g>
            <g
               id="g6052"
               transform="matrix(0.26458333,0,0,0.26458333,1535.329,-221.71634)"
               style="stroke-width:0.992187">
              <path
                 id="path6050"
                 style="color:#000000;fill:#e8a20d;stroke-width:1.125;stroke-linecap:round;stroke-linejoin:round;-inkscape-stroke:none"
                 d="m 111.06121,219.85156 c -0.0719,-0.004 -0.14483,-0.002 -0.21838,0.006 a 0.58159244,0.56698584 0 0 0 0,0.002 c -0.58983,0.0629 -1.07074,0.52735 -1.14797,1.14843 v 0.002 c -1.16857,9.54799 -1.55299,18.97583 -0.53693,24.95117 v 0.002 c 1.34208,7.88274 4.72662,12.41787 8.28223,14.99805 3.56165,2.58521 7.27301,3.30619 9.02149,3.93359 l -0.002,-0.002 c 0.82092,0.29151 1.66714,-0.27349 1.71094,-1.18555 0.41854,-8.47127 0.26192,-13.66545 -0.42674,-17.25976 -0.68888,-3.57854 -2.05378,-5.63875 -3.63625,-7.19922 -1.60416,-1.58225 -3.31844,-2.75564 -5.29108,-5.27344 -1.97193,-2.5168 -4.22139,-6.3902 -6.62337,-13.24805 -0.18003,-0.51328 -0.62851,-0.84362 -1.13195,-0.875 z m 40.37535,0 c -0.50346,0.0314 -0.95192,0.36172 -1.13195,0.875 -2.40199,6.85785 -4.65146,10.73125 -6.62339,13.24805 -1.97301,2.51777 -3.68732,3.69122 -5.29107,5.27344 -1.58248,1.56047 -2.94736,3.62068 -3.63625,7.19922 -0.69255,3.59356 -0.84573,8.78714 -0.42673,17.25976 0.0439,0.91207 0.89002,1.47707 1.71094,1.18555 l -0.002,0.002 c 1.74875,-0.62734 5.45983,-1.34837 9.02149,-3.93359 3.55562,-2.58018 6.94013,-7.11531 8.28223,-14.99805 1.01641,-5.97515 0.63013,-15.40417 -0.53892,-24.95312 -0.0764,-0.62155 -0.55609,-1.0869 -1.14598,-1.15039 a 0.58159244,0.56698584 0 0 0 0,-0.002 c -0.0736,-0.008 -0.14645,-0.0103 -0.21836,-0.006 z" />
            </g>
            <g
               id="g6056"
               transform="matrix(0.26458333,0,0,0.26458333,1535.329,-211.54571)"
               style="stroke-width:0.992187">
              <path
                 id="path6054"
                 style="color:#000000;fill:#e8a20d;stroke-width:1.125;stroke-linecap:round;stroke-linejoin:round;-inkscape-stroke:none"
                 d="m 111.06121,219.85156 c -0.0719,-0.004 -0.14483,-0.002 -0.21838,0.006 a 0.58159244,0.56698584 0 0 0 0,0.002 c -0.58983,0.0629 -1.07074,0.52735 -1.14797,1.14843 v 0.002 c -1.16857,9.54799 -1.55299,18.97583 -0.53693,24.95117 v 0.002 c 1.34208,7.88274 4.72662,12.41787 8.28223,14.99805 3.56165,2.58521 7.27301,3.30619 9.02149,3.93359 l -0.002,-0.002 c 0.82092,0.29151 1.66714,-0.27349 1.71094,-1.18555 0.41854,-8.47127 0.26192,-13.66545 -0.42674,-17.25976 -0.68888,-3.57854 -2.05378,-5.63875 -3.63625,-7.19922 -1.60416,-1.58225 -3.31844,-2.75564 -5.29108,-5.27344 -1.97193,-2.5168 -4.22139,-6.3902 -6.62337,-13.24805 -0.18003,-0.51328 -0.62851,-0.84362 -1.13195,-0.875 z m 40.37535,0 c -0.50346,0.0314 -0.95192,0.36172 -1.13195,0.875 -2.40199,6.85785 -4.65146,10.73125 -6.62339,13.24805 -1.97301,2.51777 -3.68732,3.69122 -5.29107,5.27344 -1.58248,1.56047 -2.94736,3.62068 -3.63625,7.19922 -0.69255,3.59356 -0.84573,8.78714 -0.42673,17.25976 0.0439,0.91207 0.89002,1.47707 1.71094,1.18555 l -0.002,0.002 c 1.74875,-0.62734 5.45983,-1.34837 9.02149,-3.93359 3.55562,-2.58018 6.94013,-7.11531 8.28223,-14.99805 1.01641,-5.97515 0.63013,-15.40417 -0.53892,-24.95312 -0.0764,-0.62155 -0.55609,-1.0869 -1.14598,-1.15039 a 0.58159244,0.56698584 0 0 0 0,-0.002 c -0.0736,-0.008 -0.14645,-0.0103 -0.21836,-0.006 z" />
            </g>
          </g>
          <g
             id="g6078"
             transform="translate(57.547518)"
             style="stroke-width:0.992187">
            <g
               id="g6062"
               transform="matrix(0.26458333,0,0,0.26458333,1535.329,-231.88696)"
               style="stroke-width:0.992187">
              <path
                 id="path6060"
                 style="color:#000000;fill:#e8a20d;stroke-width:1.125;stroke-linecap:round;stroke-linejoin:round;-inkscape-stroke:none"
                 d="m 111.06121,219.85156 c -0.0719,-0.004 -0.14483,-0.002 -0.21838,0.006 a 0.58159244,0.56698584 0 0 0 0,0.002 c -0.58983,0.0629 -1.07074,0.52735 -1.14797,1.14843 v 0.002 c -1.16857,9.54799 -1.55299,18.97583 -0.53693,24.95117 v 0.002 c 1.34208,7.88274 4.72662,12.41787 8.28223,14.99805 3.56165,2.58521 7.27301,3.30619 9.02149,3.93359 l -0.002,-0.002 c 0.82092,0.29151 1.66714,-0.27349 1.71094,-1.18555 0.41854,-8.47127 0.26192,-13.66545 -0.42674,-17.25976 -0.68888,-3.57854 -2.05378,-5.63875 -3.63625,-7.19922 -1.60416,-1.58225 -3.31844,-2.75564 -5.29108,-5.27344 -1.97193,-2.5168 -4.22139,-6.3902 -6.62337,-13.24805 -0.18003,-0.51328 -0.62851,-0.84362 -1.13195,-0.875 z m 40.37535,0 c -0.50346,0.0314 -0.95192,0.36172 -1.13195,0.875 -2.40199,6.85785 -4.65146,10.73125 -6.62339,13.24805 -1.97301,2.51777 -3.68732,3.69122 -5.29107,5.27344 -1.58248,1.56047 -2.94736,3.62068 -3.63625,7.19922 -0.69255,3.59356 -0.84573,8.78714 -0.42673,17.25976 0.0439,0.91207 0.89002,1.47707 1.71094,1.18555 l -0.002,0.002 c 1.74875,-0.62734 5.45983,-1.34837 9.02149,-3.93359 3.55562,-2.58018 6.94013,-7.11531 8.28223,-14.99805 1.01641,-5.97515 0.63013,-15.40417 -0.53892,-24.95312 -0.0764,-0.62155 -0.55609,-1.0869 -1.14598,-1.15039 a 0.58159244,0.56698584 0 0 0 0,-0.002 c -0.0736,-0.008 -0.14645,-0.0103 -0.21836,-0.006 z" />
            </g>
            <path
               id="path6064"
               style="fill:#e8a20d;fill-opacity:1;stroke:none;stroke-width:0.262516px;stroke-linecap:butt;stroke-linejoin:miter;stroke-opacity:1"
               d="m 1570.0552,-195.01638 c -1.2654,5.58681 -4.8848,13.42071 0,15.87499 4.8848,-2.45428 1.2655,-10.28818 0,-15.87499 z" />
            <g
               id="g6068"
               transform="matrix(0.26458333,0,0,0.26458333,1535.329,-242.05759)"
               style="stroke-width:0.992187">
              <path
                 id="path6066"
                 style="color:#000000;fill:#e8a20d;stroke-width:1.125;stroke-linecap:round;stroke-linejoin:round;-inkscape-stroke:none"
                 d="m 111.06121,219.85156 c -0.0719,-0.004 -0.14483,-0.002 -0.21838,0.006 a 0.58159244,0.56698584 0 0 0 0,0.002 c -0.58983,0.0629 -1.07074,0.52735 -1.14797,1.14843 v 0.002 c -1.16857,9.54799 -1.55299,18.97583 -0.53693,24.95117 v 0.002 c 1.34208,7.88274 4.72662,12.41787 8.28223,14.99805 3.56165,2.58521 7.27301,3.30619 9.02149,3.93359 l -0.002,-0.002 c 0.82092,0.29151 1.66714,-0.27349 1.71094,-1.18555 0.41854,-8.47127 0.26192,-13.66545 -0.42674,-17.25976 -0.68888,-3.57854 -2.05378,-5.63875 -3.63625,-7.19922 -1.60416,-1.58225 -3.31844,-2.75564 -5.29108,-5.27344 -1.97193,-2.5168 -4.22139,-6.3902 -6.62337,-13.24805 -0.18003,-0.51328 -0.62851,-0.84362 -1.13195,-0.875 z m 40.37535,0 c -0.50346,0.0314 -0.95192,0.36172 -1.13195,0.875 -2.40199,6.85785 -4.65146,10.73125 -6.62339,13.24805 -1.97301,2.51777 -3.68732,3.69122 -5.29107,5.27344 -1.58248,1.56047 -2.94736,3.62068 -3.63625,7.19922 -0.69255,3.59356 -0.84573,8.78714 -0.42673,17.25976 0.0439,0.91207 0.89002,1.47707 1.71094,1.18555 l -0.002,0.002 c 1.74875,-0.62734 5.45983,-1.34837 9.02149,-3.93359 3.55562,-2.58018 6.94013,-7.11531 8.28223,-14.99805 1.01641,-5.97515 0.63013,-15.40417 -0.53892,-24.95312 -0.0764,-0.62155 -0.55609,-1.0869 -1.14598,-1.15039 a 0.58159244,0.56698584 0 0 0 0,-0.002 c -0.0736,-0.008 -0.14645,-0.0103 -0.21836,-0.006 z" />
            </g>
            <g
               id="g6072"
               transform="matrix(0.26458333,0,0,0.26458333,1535.329,-221.71634)"
               style="stroke-width:0.992187">
              <path
                 id="path6070"
                 style="color:#000000;fill:#e8a20d;stroke-width:1.125;stroke-linecap:round;stroke-linejoin:round;-inkscape-stroke:none"
                 d="m 111.06121,219.85156 c -0.0719,-0.004 -0.14483,-0.002 -0.21838,0.006 a 0.58159244,0.56698584 0 0 0 0,0.002 c -0.58983,0.0629 -1.07074,0.52735 -1.14797,1.14843 v 0.002 c -1.16857,9.54799 -1.55299,18.97583 -0.53693,24.95117 v 0.002 c 1.34208,7.88274 4.72662,12.41787 8.28223,14.99805 3.56165,2.58521 7.27301,3.30619 9.02149,3.93359 l -0.002,-0.002 c 0.82092,0.29151 1.66714,-0.27349 1.71094,-1.18555 0.41854,-8.47127 0.26192,-13.66545 -0.42674,-17.25976 -0.68888,-3.57854 -2.05378,-5.63875 -3.63625,-7.19922 -1.60416,-1.58225 -3.31844,-2.75564 -5.29108,-5.27344 -1.97193,-2.5168 -4.22139,-6.3902 -6.62337,-13.24805 -0.18003,-0.51328 -0.62851,-0.84362 -1.13195,-0.875 z m 40.37535,0 c -0.50346,0.0314 -0.95192,0.36172 -1.13195,0.875 -2.40199,6.85785 -4.65146,10.73125 -6.62339,13.24805 -1.97301,2.51777 -3.68732,3.69122 -5.29107,5.27344 -1.58248,1.56047 -2.94736,3.62068 -3.63625,7.19922 -0.69255,3.59356 -0.84573,8.78714 -0.42673,17.25976 0.0439,0.91207 0.89002,1.47707 1.71094,1.18555 l -0.002,0.002 c 1.74875,-0.62734 5.45983,-1.34837 9.02149,-3.93359 3.55562,-2.58018 6.94013,-7.11531 8.28223,-14.99805 1.01641,-5.97515 0.63013,-15.40417 -0.53892,-24.95312 -0.0764,-0.62155 -0.55609,-1.0869 -1.14598,-1.15039 a 0.58159244,0.56698584 0 0 0 0,-0.002 c -0.0736,-0.008 -0.14645,-0.0103 -0.21836,-0.006 z" />
            </g>
            <g
               id="g6076"
               transform="matrix(0.26458333,0,0,0.26458333,1535.329,-211.54571)"
               style="stroke-width:0.992187">
              <path
                 id="path6074"
                 style="color:#000000;fill:#e8a20d;stroke-width:1.125;stroke-linecap:round;stroke-linejoin:round;-inkscape-stroke:none"
                 d="m 111.06121,219.85156 c -0.0719,-0.004 -0.14483,-0.002 -0.21838,0.006 a 0.58159244,0.56698584 0 0 0 0,0.002 c -0.58983,0.0629 -1.07074,0.52735 -1.14797,1.14843 v 0.002 c -1.16857,9.54799 -1.55299,18.97583 -0.53693,24.95117 v 0.002 c 1.34208,7.88274 4.72662,12.41787 8.28223,14.99805 3.56165,2.58521 7.27301,3.30619 9.02149,3.93359 l -0.002,-0.002 c 0.82092,0.29151 1.66714,-0.27349 1.71094,-1.18555 0.41854,-8.47127 0.26192,-13.66545 -0.42674,-17.25976 -0.68888,-3.57854 -2.05378,-5.63875 -3.63625,-7.19922 -1.60416,-1.58225 -3.31844,-2.75564 -5.29108,-5.27344 -1.97193,-2.5168 -4.22139,-6.3902 -6.62337,-13.24805 -0.18003,-0.51328 -0.62851,-0.84362 -1.13195,-0.875 z m 40.37535,0 c -0.50346,0.0314 -0.95192,0.36172 -1.13195,0.875 -2.40199,6.85785 -4.65146,10.73125 -6.62339,13.24805 -1.97301,2.51777 -3.68732,3.69122 -5.29107,5.27344 -1.58248,1.56047 -2.94736,3.62068 -3.63625,7.19922 -0.69255,3.59356 -0.84573,8.78714 -0.42673,17.25976 0.0439,0.91207 0.89002,1.47707 1.71094,1.18555 l -0.002,0.002 c 1.74875,-0.62734 5.45983,-1.34837 9.02149,-3.93359 3.55562,-2.58018 6.94013,-7.11531 8.28223,-14.99805 1.01641,-5.97515 0.63013,-15.40417 -0.53892,-24.95312 -0.0764,-0.62155 -0.55609,-1.0869 -1.14598,-1.15039 a 0.58159244,0.56698584 0 0 0 0,-0.002 c -0.0736,-0.008 -0.14645,-0.0103 -0.21836,-0.006 z" />
            </g>
          </g>
        </g>
      </g>
    </g>
  </g>
</svg>
