<?xml version="1.0" encoding="utf-8"?>
<!-- Generator: Adobe Illustrator 20.0.0, SVG Export Plug-In . SVG Version: 6.00 Build 0)  -->
<svg version="1.1" id="Layer_1" xmlns="http://www.w3.org/2000/svg" xmlns:xlink="http://www.w3.org/1999/xlink" x="0px" y="0px"
	 viewBox="0 0 999.9 666.9" style="enable-background:new 0 0 999.9 666.9;" xml:space="preserve">
<style type="text/css">
	.st0{fill:#FFFFFF;}
	.st1{fill:#1F772E;}
	.st2{fill:#D62612;}
	.st3{fill:#FFFF00;}
	.st4{fill:#00966E;}
</style>
<g>
	<g>
		<path class="st0" d="M502,66c87-5.6,155.4,30.1,198,70c44.1,41.4,81.8,98.7,87,179c5.5,86.7-27.7,153.2-69,198
			c-42.8,46.3-99.7,80.4-180,86c-84.1,5.8-153.1-27.2-197-68c-47.2-43.9-81-98.3-87-179c-6.2-84,26-153,67-198
			C360.4,110.7,423.1,71.1,502,66z M339,175c-36.1,40.9-64.4,101.6-58,180c5.8,70.8,37.8,120.3,80,159c39.3,36,104.1,64.2,180,58
			c72.1-5.9,120.4-37.6,159-80c37.7-41.4,65.7-101.8,60-180c-2.5-33.4-12.9-66.2-27-92C693.7,148,615.4,84.4,499,94
			C425.8,100,375,134.3,339,175z"/>
		<path class="st1" d="M504,120c2.7-2.3,9.6-0.4,14-1C515.3,121.3,508.3,119.3,504,120z"/>
		<path class="st2" d="M518,119c1.3,0,2.7,0,4,0c2.7,2.3,9.6,0.4,14,1c61.1,5.7,105.6,30.3,139,67c32.1,35.4,59,81.7,59,146
			c0,63.8-26.8,111.9-59,147c-33.4,36.3-78.7,59.9-139,66c-4,0.6-10.6-1.3-13,1c-2,0-4,0-6,0c-2.4-2.3-9-0.4-13-1
			c-61.1-5.7-105.6-30.3-139-67c-32.1-35.4-59-81.7-59-146c0-63.8,26.8-111.9,59-147c33.4-36.3,78.7-59.9,139-66
			C508.3,119.3,515.3,121.3,518,119z M347,402.9c-0.5,3.1,1.4,3.9,2,6c1.5,2.2,2,5.4,4,7c0.3,3.1,2.2,4.5,3,7c0.9,2.7,3.1,4.3,4,7
			c0,0.3,0,0.7,0,1c3,0.6,2,5.4,5,6c1.1,2.3,2.3,4.4,4,6c0,0.3,0,0.7,0,1c2.6,0.7,2.1,4.6,5,5c1.2,3.1,3.3,5.4,6,7c1,4,4.4,5.6,7,8
			c2.2,3.1,4.9,5.8,8,8c3.5,1.9,4.6,6,9,7c2.9,3.4,6.4,6.2,11,8c0,0.3,0,0.7,0,1c3.9,2.4,7.7,5,12,7c4.3,3.3,10.1,5.2,15,8
			c4.7,2.3,9.4,4.6,15,6c5.4,2,10.5,4.1,17,5c4.7,2.3,11.5,2.5,17,4c6.1,0.9,13.2,0.8,19,2c6,0,12,0,18,0c5.7-1,12.8-0.6,18-2
			c6.9-0.1,11.9-2.1,18-3c5.6-1.8,11.5-3.2,17-5c5-2,10.4-3.6,15-6c4.9-2.8,10.7-4.7,15-8c4.6-1.8,8.3-4.4,12-7
			c4.1-2.9,8.7-5.3,12-9c0.3,0,0.7,0,1,0c3.2-2.5,5.8-5.5,9-8c3.4-2.6,6.4-5.6,9-9c2.9-2.1,5.6-4.4,7-8c2.7-1.6,4.8-3.9,6-7
			c0.3,0,0.7,0,1,0c0.9-1.8,2.4-2.9,3-5c1.7-1.6,2.9-3.7,4-6c0.3,0,0.7,0,1,0c1-2,2-4,3-6c1.6-2.1,3.3-4.1,4-7c1.6-1.4,2.6-3.4,3-6
			c2-1.6,2.5-4.8,4-7c0.8-2.5,2.7-3.9,3-7c33.3-73.7,2.6-161.3-41-204c-33.7-32.9-81.5-57.6-143-54c-95.3,5.5-171,80-176,177
			C331.4,354.1,336.7,377.6,347,402.9z"/>
		<path class="st1" d="M522,119c4.4,0.6,11.3-1.3,14,1C531.6,119.3,524.7,121.3,522,119z"/>
		<path class="st1" d="M693,403.9c-2.1-2.9-6.5-3.5-12-3c-0.4,2.7,6,7.3,9,10c-1.5,2.2-2,5.4-4,7c-6.7-6.6-9.2-17.4-23-17
			c2.9,7.4,13.6,15.8,20,23c-0.7,2.9-2.4,4.9-4,7c-4.1-6.3-9.9-11.6-15-17c-4.6-4.9-8.7-14.5-19-13c5.8,12.2,21.1,23.6,30,36
			c-1.1,2.3-2.3,4.4-4,6c-6.7-7.8-13-16.3-20-24c-6.2-6.9-12.9-17.7-25-18c10.3,15.1,27.3,32,41,47c-1.2,3.1-3.3,5.4-6,7
			c-11.9-14.9-24.1-28.6-37-44c-3.6-4.3-7.5-12.4-16-10c11.5,20.5,30.9,41.8,46,62c-2.6,3.4-5.6,6.4-9,9c-12.2-18.8-25.9-37.4-39-57
			c-3.8-5.6-6.5-16.8-17-14c12.1,25.6,31.5,52.5,46,79c-3.3,3.7-7.9,6.1-12,9c-13.6-30.4-29.7-58.3-44-88c-3,0-6,0-9,0
			c12.9,32.4,26.8,63.9,41,95c-4.3,3.3-10.1,5.2-15,8c-10.8-35.6-23.6-69.1-36-103c-2.7,0-5.3,0-8,0c7.2,34.8,19.9,72.8,29,109
			c-5.5,1.8-11.4,3.2-17,5c-6.5-38.8-14.8-75.9-22-114c-3,0-6,0-9,0c3.6,39.7,9.7,77,13,117c-5.2,1.4-12.3,1-18,2
			c-0.5-38.4-3.4-79.7-4-118c-1.4-2.3-7-0.4-10-1c-0.6,41.6-3.4,76.4-4,119c-5.8-1.2-12.9-1.1-19-2c5.5-37.9,9.6-77.1,14-116
			c-0.7-2.3-5.6-0.4-8-1c-9.3,36-15.5,75.1-23,113c-6.5-0.9-11.6-3-17-5c10.3-35.7,19.9-72.1,30-108c-2.7,0-5.3,0-8,0
			c-14.2,32.1-25.2,67.5-37,102c-4.9-2.8-10.7-4.7-15-8c14.9-29.7,27.4-62,41-93c-0.7-2.3-5.6-0.4-8-1c-16.1,27.5-29.5,57.8-45,86
			c-4.6-1.8-8.1-4.6-11-8c15.8-25.5,30.9-51.7,46-78c-11.5-3.2-15.1,9.6-20,17c-11.8,17.6-25.5,37.4-35,54c-3.1-2.2-5.8-4.9-8-8
			c14.8-20.8,30.3-41,44-63c-8.5-2.3-13.1,5.1-17,10c-11.3,14.4-22.5,30.1-34,45c-2.7-1.6-4.8-3.9-6-7c13.6-15.4,26.5-31.5,39-48
			c-13.7-1.2-18.2,12-24,19c-6.6,8-13.3,15.5-20,23c-1.7-1.6-2.9-3.7-4-6c9.9-12.1,20.1-23.9,30-36c-18.6-1.1-23,22-35,29
			c-0.9-2.7-3.1-4.3-4-7c7.5-6.5,14.1-13.9,20-22c-14.1-1.4-15.8,9.5-23,15c-2-1.6-2.5-4.8-4-7c3.1-2.6,7-4.4,9-8
			c-3.7,0.6-10.3-1.6-11,2c-10.3-25.4-15.6-48.9-14-80c5-97,80.7-171.5,176-177c61.4-3.6,109.3,21,143,54
			C695.5,242.6,726.3,330.2,693,403.9z"/>
		<path class="st3" d="M349,408.9c-0.6-2.1-2.5-2.9-2-6c0.7-3.6,7.3-1.4,11-2C356,404.6,352.1,406.4,349,408.9z"/>
		<path class="st3" d="M356,422.9c-0.8-2.5-2.7-3.9-3-7c7.2-5.5,8.9-16.4,23-15C370.1,409.1,363.5,416.4,356,422.9z"/>
		<path class="st3" d="M365,436.9c-3-0.6-2-5.4-5-6c0-0.3,0-0.7,0-1c12-7,16.4-30.1,35-29C385.1,413.1,374.9,424.9,365,436.9z"/>
		<path class="st3" d="M374,448.9c-2.9-0.4-2.4-4.3-5-5c0-0.3,0-0.7,0-1c6.7-7.5,13.4-15,20-23c5.8-7,10.3-20.2,24-19
			C400.5,417.4,387.6,433.6,374,448.9z"/>
		<path class="st3" d="M387,463.9c-2.6-2.4-6-4-7-8c11.5-14.9,22.7-30.6,34-45c3.9-4.9,8.5-12.3,17-10
			C417.3,423,401.8,443.1,387,463.9z"/>
		<path class="st3" d="M404,478.9c-4.4-1-5.5-5.1-9-7c9.5-16.6,23.2-36.4,35-54c4.9-7.4,8.5-20.2,20-17
			C434.9,427.2,419.8,453.4,404,478.9z"/>
		<path class="st3" d="M427,494.9c-4.3-2-8.1-4.6-12-7c0-0.3,0-0.7,0-1c15.5-28.2,28.9-58.5,45-86c2.4,0.6,7.3-1.3,8,1
			C454.4,433,441.9,465.2,427,494.9z"/>
		<path class="st3" d="M457,508.9c-5.6-1.4-10.3-3.7-15-6c11.8-34.5,22.8-69.9,37-102c2.7,0,5.3,0,8,0
			C476.9,436.9,467.3,473.2,457,508.9z"/>
		<path class="st3" d="M491,517.9c-5.5-1.5-12.2-1.8-17-4c7.5-37.9,13.7-76.9,23-113c2.4,0.6,7.3-1.3,8,1
			C500.6,440.9,496.5,480.1,491,517.9z"/>
		<path class="st3" d="M528,519.9c-6,0-12,0-18,0c0.6-42.6,3.4-77.4,4-119c3,0.6,8.6-1.3,10,1C524.6,440.3,527.5,481.5,528,519.9z"
			/>
		<path class="st3" d="M564,514.9c-6.1,0.9-11.1,2.9-18,3c-3.3-40-9.4-77.3-13-117c3,0,6,0,9,0C549.2,439,557.5,476.1,564,514.9z"/>
		<path class="st3" d="M596,503.9c-4.6,2.4-10,4-15,6c-9.1-36.2-21.8-74.2-29-109c2.7,0,5.3,0,8,0
			C572.4,434.9,585.2,468.4,596,503.9z"/>
		<path class="st3" d="M623,488.9c-3.7,2.6-7.4,5.2-12,7c-14.2-31.1-28.1-62.6-41-95c3,0,6,0,9,0C593.3,430.7,609.4,458.5,623,488.9
			z"/>
		<path class="st3" d="M645,471.9c-3.2,2.5-5.8,5.5-9,8c-0.3,0-0.7,0-1,0c-14.5-26.5-33.9-53.4-46-79c10.5-2.8,13.2,8.4,17,14
			C619.1,434.6,632.8,453.1,645,471.9z"/>
		<path class="st3" d="M661,454.9c-1.4,3.6-4,5.9-7,8c-15.1-20.2-34.5-41.5-46-62c8.5-2.4,12.4,5.7,16,10
			C636.8,426.4,649.1,440,661,454.9z"/>
		<path class="st3" d="M671,442.9c-0.6,2.1-2.1,3.2-3,5c-0.3,0-0.7,0-1,0c-13.7-15-30.7-31.9-41-47c12.1,0.3,18.8,11.1,25,18
			C657.9,426.6,664.2,435.2,671,442.9z"/>
		<path class="st3" d="M679,430.9c-1,2-2,4-3,6c-0.3,0-0.7,0-1,0c-8.9-12.4-24.2-23.8-30-36c10.3-1.5,14.4,8.1,19,13
			C669,419.4,674.9,424.7,679,430.9z"/>
		<path class="st3" d="M686,417.9c-0.4,2.6-1.4,4.6-3,6c-6.4-7.2-17.1-15.5-20-23C676.7,400.5,679.2,411.3,686,417.9z"/>
		<path class="st3" d="M693,403.9c-0.3,3.1-2.2,4.5-3,7c-3-2.7-9.4-7.3-9-10C686.5,400.4,690.9,401,693,403.9z"/>
		<path class="st1" d="M504,545.9c4,0.6,10.6-1.3,13,1C513,546.3,506.3,548.2,504,545.9z"/>
		<path class="st1" d="M523,546.9c2.4-2.3,9-0.4,13-1C533.6,548.2,527,546.3,523,546.9z"/>
		<path class="st1" d="M1,0C334,0,667,0,999.9,0c0,222.3,0,444.6,0,666.9c-333.3,0-666.6,0-999.9,0C0,445.6,0,224.3,0,3
			C0,1.6-0.1,0.2,1,0z M321,154c-41,45-73.2,114-67,198c6,80.7,39.7,135.1,87,179c43.9,40.7,112.9,73.8,197,68
			c80.3-5.6,137.2-39.7,180-86c41.3-44.7,74.5-111.3,69-198c-5.1-80.3-42.9-137.6-87-179C657.4,96.1,589,60.4,502,66
			C423.1,71.1,360.4,110.7,321,154z"/>
		<path class="st4" d="M499,94c116.4-9.6,194.7,54.1,234,126c14.1,25.7,24.5,58.5,27,92c5.8,78.2-22.3,138.5-60,180
			c-38.6,42.4-86.8,74.1-159,80c-75.9,6.2-140.7-22-180-58c-42.2-38.6-74.2-88.2-80-159c-6.4-78.4,21.9-139.1,58-180
			C375,134.3,425.8,100,499,94z M504,120c-60.3,6.1-105.6,29.6-139,66c-32.2,35.1-59,83.2-59,147c0,64.3,26.9,110.6,59,146
			c33.4,36.7,77.9,61.3,139,67c2.4,2.3,9,0.4,13,1c2,0,4,0,6,0c4-0.6,10.6,1.3,13-1c60.3-6.1,105.6-29.6,139-66
			c32.2-35.1,59-83.2,59-147c0-64.3-26.9-110.6-59-146c-33.4-36.7-77.9-61.3-139-67c-2.7-2.3-9.6-0.4-14-1c-1.3,0-2.7,0-4,0
			C513.6,119.6,506.7,117.7,504,120z"/>
	</g>
</g>
<g>
	<path class="st3" d="M518.4,325.2c0-1.3-0.1-2.6,0-3.9c0.2-2.2-0.4-4-2.5-5.2c-2.3-1.4-4.5-2.8-6.8-4.1c-1.5-0.8-3-0.7-4.6,0
		c-0.6,0.3-1.4,0.4-2.1,0.4c-1.3-0.1-1.8-1-1.2-2.1c0.7-1.5,1.7-2.8,1-4.6c-0.7-1.9-1.8-3.4-3.6-4.5c-2.3-1.5-4.6-2.9-7-4.3
		c-5.7-3.3-12-5.2-18.5-6.8c-2.1-0.5-4.3-0.9-6.6-1.3c-0.6-3.5-0.9-7.2-1.8-10.8c-0.9-3.3-2.4-6.5-3.8-9.8c-0.1-0.3-0.8-0.7-1.1-0.7
		c-0.4,0.1-0.9,0.5-1,0.9c-0.2,0.9-0.1,1.8-0.1,2.7c0,0.3,0.2,0.7,0.1,1c-1.8,4.6-2.4,9.5-5.1,13.9c-1.6,2.6-3.1,5.3-5.1,7.7
		c-2.5,3.1-6.3,4.5-10.4,5.6c-3.3,0.8-6.4,2.2-8.2,4.9c-1.3,1.8-1.6,4-1.1,6.1c0.4,2,1.2,4,1.8,6c0.6,2.1-0.6,3.5-3,3.1
		c-4.9-0.7-9.8-1.3-14.5-2.5c-5.6-1.4-10.2-4.3-14.3-8c-2.1-1.9-2.4-3.6-1.2-6c1.2-2.4,2.5-4.8,3.5-7.3c0.9-2.2,0.8-4.4-0.3-6.6
		c-2.4-4.9-4.8-9.8-6-15c-0.7-3.1-1.3-6.2-0.7-9.3c0.5-3,0.6-6,1.5-8.9c1.4-4.4,4.1-8.1,9-10.1c2.7-1.1,4.1-3.3,5.6-5.3
		c0.2-0.3-0.1-0.8-0.3-1.2c-1.2-2.1-2.1-4.3-3.6-6.2c-2.7-3.6-4-7.5-4.2-11.7c-0.3-4.5-0.2-9.1,2.4-13.1
		c4.3-6.6,10.4-11.1,19.3-12.3c9-1.3,17.6,0,26,2.8c5.7,1.9,11.5,3.7,17.3,5.5c8.4,2.7,16.7,5.3,25.1,8.1c4.9,1.6,10,2.1,15.1,1.2
		c6-1.1,11.8-0.2,17.5,1.6c1.8,0.5,3.5,1.1,5.3,1.7c1.9,0.6,3.4,1.5,4.7,2.9c1.9,2,4.6,3.6,6.2,5.7c1.8,2.3,3.8,4.8,2.1,8
		c-0.2,0.3-0.6,0.8-0.9,0.9c-4.4,1-8.9,1.7-13.4,1.6c-8.4-0.2-16.2-2.2-23.5-6c-0.4-0.2-0.8-0.9-0.7-1.1c0.5-0.7,1.1-1.7,1.8-1.8
		c1.8-0.3,3.7-0.3,5.5-0.1c2.4,0.3,2.7,0.2,2.5-1.8c-10-2.9-19.9-5.8-29.8-8.7c-12.6-3.7-25.1-7.4-37.8-10.9c-4-1.1-8.3-2-12.5-2.2
		c-10.8-0.4-20.8,4.2-22.8,15.4c-0.9,5.4,1.3,10.2,6.6,13.4c2.4,1.5,5,2.8,7.8,3.8c3.4,1.2,7,1.9,10.4,3c6.7,2.1,13.4,3.9,20.3,5.1
		c5.4,1,10.6,2.5,16,3.7c8.8,1.9,17.7,3.8,26.6,5.5c3,0.6,6.2,1,9.3,1.1c5.2,0.3,10.3,0.6,15.5,0.6c3.5,0,6.9-0.4,10.4-0.9
		c1.7-0.2,2.9-1.3,4-2.6c3.5-4,4.6-8.6,5.8-13.3c0.2-1,1-1.8,1.4-2.7c2.1-4.5,4.1-9.1,6.9-13.3c2.8-4.1,6.4-7.5,11.4-9.5
		c1.4-0.6,2.7-1.4,4-2.2c0.8-0.5,1.3-0.3,1.6,0.4c0.2,0.4,0.5,0.8,0.5,1.2c0.1,3.3,1.7,6.2,3.1,9.1c3,6.2,4.5,12.7,4.8,19.5
		c0.2,4.2,1.1,8.3,3.7,11.9c2.1,2.8,5.1,4.5,8.6,5.8c0.5,0.2,1.1,0.4,1.6,0.6c1.8,0.7,2.3,1.5,1.9,3.2c-0.6,2.6-1.4,5.1-1.8,7.7
		c-0.6,3.4-0.7,6.9-1.3,10.3c-0.7,4.7-1.6,9.4-4.2,13.7c-0.7,1.1-1.5,2.1-2.4,3c-1.1,1.2-2.5,1.3-3.8,0.4c-5-3.4-10.1-6.7-14.2-11
		c-0.9-0.9-1.8-0.7-2.7-0.3c-0.3,0.1-0.7,0.8-0.6,1c1.1,3.2,2.1,6.5,3.6,9.6c3.8,7.5,10.4,12.4,18.8,15.6c1.8,0.7,3.7,1.2,5.6,1.7
		c10.1,2.8,20.1,5.8,29.6,10.1c3.7,1.7,7.7,3.1,11.3,4.9c6.2,3.3,11,8,14.7,13.5c1.7,2.6,3.9,4.8,7.3,5.7c2,0.5,4.1,0.9,6.2,1.3
		c4.9,0.8,9.4,2.3,12.9,5.7c2.2,2.1,3.5,4.6,4.3,7.4c0.6,2.1-1.6,3.5-4.2,2.9c-2.1-0.5-3.6-1.7-4.6-3.4c-2.1-3.2-5.1-5.5-8.7-7.2
		c-0.6-0.3-1.6-0.2-2.3,0.1c-0.7,0.3-0.8,0.9,0.1,1.5c1.9,1.4,3.7,2.9,5.2,4.6c0.6,0.6,0.4,2,0.1,3c-0.3,1.2-1.7,1.4-2.9,1.5
		c-1,0.1-2,0.2-3,0c-0.5-0.1-1.1-0.5-1.3-1c-1.4-2.3-3.2-4.2-5.8-5.5c-0.4-0.2-0.9-0.3-1.4-0.3c-1.3,0-1.8,0.7-1.1,1.7
		c0.5,0.7,1.2,1.4,1.9,2c1.2,1.1,1.2,2.8-0.5,3.3c-1.7,0.5-3.6,0.8-5.3,0.5c-1-0.2-1.8-1.6-2.4-2.6c-0.8-1.5-1.3-3.1-2.1-4.5
		c-1.7-2.9-3.4-5.9-5.4-8.6c-2.5-3.3-6.3-5.4-10.2-7.3c-9.7-4.7-20-8.2-30.8-10.3c-3.9-0.8-7.8-1.2-11.7-1.7
		c-7.5-1-15.1-0.4-22.7-0.6c-2.7-0.1-5.5-0.5-8.2-0.8c-1.2-0.1-2-0.7-2.3-1.8c-0.5-1.9-0.9-3.7-1.3-5.6c-1.8-7.4-4.9-14.2-12.4-18.6
		c-0.2-0.1-0.5-0.3-0.7-0.4c-0.7-0.4-1.6-0.6-2.1,0.1c-0.3,0.5-0.2,1.5,0.2,1.8c3.7,3.3,4.6,7.6,5.6,11.8c0.5,2,0.2,4.2-0.9,6.2
		c-0.7,1.3-1,1.4-2.4,0.6c-0.5-0.2-0.9-0.5-1.4-0.8c-4.3-2.6-5.7-2.5-9.6,0.5c-1.1,0.8-2.4,1.4-3.5,2.1
		C518.8,325.5,518.6,325.3,518.4,325.2z M468.9,283.2c1.5-0.5,2.6-1.2,3.2-2.5c0.9-2.1,1.1-4.2,1.1-6.4c0-2.3,0.2-4.6-2.1-6.3
		c-0.5-0.3-0.9-0.6-1.4-0.9c-0.3,0.5-0.8,1.1-0.8,1.6c0.1,2,0.4,4,0.4,6C469.3,277.5,469.1,280.2,468.9,283.2z M487.3,269.3
		c-0.2,0-0.4,0-0.6,0c-0.2,0.7-0.4,1.5-0.5,2.2c-0.3,2.6-0.4,5.2-0.9,7.7c-0.4,2-1.2,4-1.6,6c-0.1,0.4,0.4,1,0.6,1.4
		c0.4-0.2,1-0.3,1.3-0.6c0.8-0.9,1.6-1.9,2.3-2.9c2.2-3.2,1.6-6.7,1.5-10.1C489.3,271.6,488.4,270.4,487.3,269.3z M477.1,284.3
		c0.6-0.6,1.3-1.1,1.7-1.7c2.2-3,2.5-6.4,2.2-9.9c-0.1-1.5-1.2-3-2-4.5c-0.1-0.3-1-0.5-1.3-0.4c-0.4,0.2-0.7,0.8-0.6,1.1
		c0.9,3.8,0.1,7.6-0.6,11.3C476.3,281.6,475.3,283,477.1,284.3z"/>
	<path class="st3" d="M429.1,348.8c-0.4,0.7-0.8,1.3-1.1,2c-1.1,2.7-2,5.5-3.4,8c-0.7,1.3-2.3,2.4-3.6,3.4c-2.8,2-4.5,4.7-6.1,7.4
		c-0.7,1.1,0,2,0.5,2.9c1.5,2.8,3.3,5.4,4.8,8.2c0.8,1.3,1.9,1.9,3.5,1.8c3.7-0.2,7.1,0.6,9.9,2.9c1.4,1.1,2,4.9,1,6.2
		c-0.4,0.6-1,0.8-1.6,0.3c-0.7-0.6-1.2-1.3-1.8-2c-0.6-0.7-1.2-1.5-2-2.2c-0.2-0.2-1-0.2-1.3,0c-0.3,0.3-0.5,0.8-0.4,1.2
		c0.2,0.9,0.7,1.8,1,2.6c-1.7,0.9-2.8,0.8-3.9-0.6c-0.2-0.3-0.4-0.7-0.7-0.8c-0.6-0.2-1.5-0.5-2-0.3c-0.4,0.2-0.7,0.9-0.8,1.5
		c-0.1,0.4,0.2,0.9,0.3,1.3c-3.8,0.6-5.5-0.7-6.1-3.9c-0.8-4.3-3.1-8.1-7.1-11c-2.4-1.7-4.6-3.6-6.8-5.5c-0.5-0.4-0.3-1.6-0.1-2.4
		c0.4-1.5,1-3.1,1.5-4.6c0.7-2-0.3-3.6-1.2-5.2c-1.9-3.5-4-7-5.7-10.5c-0.9-1.8-1.1-3.8-1.8-5.7c-0.2-0.5-0.7-1.1-1.1-1.1
		c-0.4,0-1.2,0.5-1.3,0.9c-0.5,2.1-1.2,4.3-1.2,6.4c-0.1,5.9,0,11.9,0.1,17.8c0,3,0,6,0,9.1c0,1.1,0.3,2.2,0.5,3.5
		c1.2-0.5,2-0.8,2.7-1.2c1.3-0.6,1.6-0.5,1.8,0.8c0.3,3.3,0.2,6.5-1,9.7c-0.4,1.1-0.6,2.2-1.1,3.3c-0.4,1-0.9,1.9-1.7,2.7
		c-1.5,1.6-3.3,1.3-3.9-0.7c-0.8-2.4-1.3-4.8-1.6-7.3c-0.4-3.1-0.6-6.2-0.6-9.3c0-2.9,0.6-5.7,0.8-8.6c0.2-2.4,0.3-4.7,0.4-7.1
		c0.1-2.5,0.2-5,0-7.5c-0.2-3.2-0.7-6.3-1.1-9.5c-0.7-5.5,0.8-10.5,4.8-14.9c2.6-2.8,5.9-4.4,9.7-5.3c1.5-0.4,3.2-0.4,4.9-0.4
		c3.7,0.1,7.3,0.2,11,0.4c1.8,0.1,3.7,0,5.5,0.3c3.8,0.6,7.6,1.5,11.5,2.2c5.4,0.9,10.7,1.8,16.1,2.6c2.7,0.4,5.4,0.7,8,0.8
		c5.3,0.2,10.3-2.4,12.3-7.5c1.2-3.1,2.2-6.3,3.6-9.3c1.1-2.3,1.5-4.5,0.7-7c-0.2-0.7,0.5-1.9,1.2-2.4c0.9-0.6,2.2-0.4,3.2,0.5
		c0.4,0.4,1.3,0.7,1.7,0.6c0.8-0.2,1-0.9,0.7-1.8c-0.4-1,0.5-2,1.8-2c0.8,0,1.8,0,2.3,0.4c2.1,1.6,4.3,1.2,6.7,0.8
		c2-0.4,3.9-0.2,5.6,1.1c2.4,1.9,2.2,4.8-0.4,6.4c-1.1,0.7-2,1.6-2.9,2.4c-0.6,0.6,0,1.8,1.1,2.5c0.9,0.5,2.4,0.4,2.9-0.4
		c0.3-0.4,0.4-1,0.7-1.4c0.4-0.6,0.8-1.1,1.3-1.6c0.9,0.7,2.2,1.2,2.5,2c0.5,1.7-0.4,4.1-2.4,5.2c-2.5,1.4-4.9,3.1-6.8,5
		c-2,2.1-3.1,4.7-3.5,7.5c-0.3,2.6-2.4,4.1-5.3,4.2c-1.4,0-2.8,0.1-4.1,0.3c-1,0.1-1.7,0.5-1.9,1.5c-0.2,1,0.1,1.5,1.2,1.4
		c1.6-0.2,2.8,0.2,3.7,1.4c1.4,1.9,3.5,2.1,5.8,1.7c3.4-0.6,6.8-1.4,10.3-2.1c1.6-0.3,3.3-0.7,4.9-0.8c0.7-0.1,1.5,0.2,2.2,0.4
		c1.6,0.4,3.2,0.9,4.8,1.1c2.5,0.3,5,0.4,7.5,0.6c1.3,0.1,2.1-0.4,2.2-1.5c0.2-2.6,1.6-4.9,3.3-6.8c1.3-1.4,3.6-2,5.8-1.9
		c0.3,0,0.8,0.6,0.7,0.7c-0.3,0.7-0.6,1.5-1.2,2.1c-1.4,1.3-3,2.4-4.5,3.6c-0.8,0.6-0.8,1.4,0,2c0.9,0.7,1.6,0.1,2.2-0.4
		c0.5-0.4,0.9-0.9,1.5-1.3c0.9-0.6,2-0.2,2,0.8c0,0.7-0.4,1.5-0.9,2.1c-0.7,0.9-1.8,1.6-2.4,2.6c-0.8,1.1-0.5,1.5,0.9,2
		c0.5,0.1,1,0.5,1.4,0.8c1,1.1,0.7,2-0.9,2.2c-2.6,0.3-5.3,0.5-8,0.7c-8.6,0.5-16.9,1.8-24.6,5.6c-1.3,0.7-2.6,1.4-3.8,2.2
		c-2.9,2.2-5.9,2.6-9.5,1.5c-5.3-1.5-9.7-3.9-12.3-8.5c-0.6-1.1-1.7-1.2-3.3-0.6c0,1.8,0,3.7,0,5.5c0,1.5-1,2.4-2.7,2.5
		c-1.7,0.1-3.1-0.5-4.6-1.3c-5-2.6-10.1-5.2-15.9-6.3c-3-0.6-6.1-0.5-9.1,0.1c-1.2,0.3-2.3,1-2.1,2.2c0.4,3.8-1.8,6.9-3.4,10.1
		c-0.8,1.6-2,3-2.9,4.5c-2.6,3.9-0.9,8.3,3.6,9.7c2.3,0.7,4.7,1.3,6.9,2.1c2.9,1,4.9,2.7,5.6,5.5c0.3,1,0.2,2-0.9,2.5
		c-1.1,0.5-2.6,0-3.2-1.2c-1.6-3-4.1-5-7.7-5.7c-1.7-0.3-3.5-0.4-5.3-0.4c-2,0-3.2-0.7-3.9-2.2c-0.5-1.1-0.9-2.2-1.1-3.3
		c-0.2-1.9-0.3-3.8-0.3-5.7c0-0.6,0.3-1.2,0.8-1.6c1.8-1.8,3.6-3.5,5.4-5.2c2.2-2.2,3.2-4.9,3.7-7.7c0.3-1.3,0.3-2.7,0.3-4
		c0-0.5-0.5-1.1-0.8-1.6C429.5,348.8,429.3,348.8,429.1,348.8z"/>
	<path class="st3" d="M384,372.3c-4.2,0.3-5.5-0.3-7-3.3c-1.7-3.4-4.2-6.1-8.4-7.2c-0.9-0.2-1.6-0.6-2.2,0.5c-0.5,1,0.2,1.2,0.8,1.7
		c1.8,1.5,3.6,3,5.2,4.6c1.1,1.2-0.7,4-2.6,4.2c-1.5,0.2-2.4-0.4-3.1-1.5c-0.7-1.2-1.6-2.4-2.4-3.6c-1.1-1.5-2.8-2.2-4.7-2.4
		c-0.6-0.1-1.5,0.2-1.7,0.6c-0.3,0.4-0.1,1.2,0.3,1.6c0.7,1,1.9,1.6,1.9,3.1c0,1.5-0.4,2.5-2,2.6c-2.6,0.1-5.3,0.2-8-0.1
		c-2.3-0.2-3-1-3.1-3.1c-0.2-2.6-0.2-5.2-0.2-7.7c-0.1-12.4-0.1-24.8-0.1-37.2c0-3.3,0-6.6,0.4-9.8c0.3-2,1.2-3.9,2-5.8
		c0.2-0.4,0.8-0.8,1.3-1c5.2-1.7,9.7-4.4,13.3-8.2c3.1-3.2,5.3-6.9,7-10.8c1.1-2.7,2.2-5.4,3-8.2c0.6-1.9,0.6-4,0.9-6
		c0.3-2.8,0.7-5.6,0.9-8.5c0.3-3.9,1.7-7.4,3.6-10.8c3.5-6,8.5-10.7,15.2-14c1.8-0.9,3.6-1.7,5.4-2.6c1.5-0.7,2.4-0.3,2.8,1.1
		c0.1,0.3-0.1,0.9-0.4,1.1c-4.6,3-8.5,6.6-11.4,10.9c-2.4,3.6-3.6,7.5-4.6,11.5c-0.5,2.1-1,4.2-1,6.3c0,2.5,0.3,5.1,0.7,7.6
		c0.7,3.6,1.9,7.2,2.4,10.8c0.4,2.8,0.1,5.7,0,8.5c-0.1,5.2-1.7,10.2-1.1,15.4c0.1,0.9-0.5,2-1.1,2.8c-4.7,6.4-9.7,12.6-14.3,19
		c-3.8,5.2-6.9,10.7-9.5,16.5c-0.8,1.9-0.3,2.8,1.9,3.4c2.5,0.6,5,0.9,7.4,1.7c6.4,2.1,10.6,6.1,12.3,12
		C384.3,369.5,384,371,384,372.3z"/>
	<path class="st3" d="M666.3,252.7c1.1,0.6,1.6,0.2,2.4-0.5c1.2-1.1,2.6-2,4.1-2.8c1-0.6,3,0.6,3,1.9c0,1.6-0.8,2.9-2.4,3.6
		c-1.8,0.9-3.2,2-4.1,3.6c-0.5,0.8-0.3,1.5,0.3,2.1c0.8,0.7,1.4,0.1,1.9-0.2c1.1-0.7,2.2-1.2,3.7-0.6c0.1,1.7,0.3,3.4,0.3,5.1
		c0,2.3-1.2,3.2-3.7,3.4c-2.4,0.1-4.9,0.7-7.3,0.7c-3.7,0-7.2,1-10.8,1.4c-11.9,1.3-22.8,5.1-32.5,11.4c-6,4-10.5,9-13.9,14.9
		c-1.3,2.3-3,4.5-4.6,6.7c-0.9,1.2-1.9,1.9-3.9,1.5c-2.5-0.5-4.8-1.2-6.7-2.7c-0.7-0.5-1.3-1-1-2c2.1-7.3,4.2-14.5,6.2-21.8
		c0.6-2,1-4,1.7-5.9c0.3-0.8,0.8-1.6,1.4-2.2c4.7-4.2,10.6-6.2,16.8-7.9c5.4-1.5,10.9-2.2,16.5-2.7c6.4-0.5,12.8-1,19.2-1.6
		c2.8-0.2,4.3-1.6,4.4-4.2c0.3-5,2.8-9,6.6-12.5c1.9-1.8,3.8-3.4,6.7-3.9c0.6-0.1,1.3-0.2,1.9-0.3c3.3-0.4,3.1-0.2,3,2.5
		c-0.1,1.3-0.7,2.4-2.4,2.9C669.9,243.7,665.7,248.6,666.3,252.7z"/>
	<path class="st3" d="M603.8,227.6c1.2-2.7,2.1-5.5,3.6-8c3.2-5.2-2.8-13.1-9.3-13.3c-5.3-0.2-10.4,0.3-14.8,3.3
		c-2.5,1.6-2.6,3.6-0.2,5.4c4,3.1,8.6,3.7,13.6,2.4c1-0.3,2.1-0.5,3.2-0.6c1.5-0.1,2.3,0.6,2,1.9c-0.8,3.7-2,7.3-4.6,10.4
		c-2.3,2.7-2.1,3.2,1.6,4.2c2.2,0.6,4.4,1.3,6.6,2c1.9,0.7,2.2,1.9,0.7,3.2c-0.3,0.2-0.5,0.4-0.7,0.6c-2.9,2.6-3.1,3.9-0.7,6.8
		c0.3,0.4,1.1,0.5,1.6,0.9c0.5,0.4,1.1,0.9,1.1,1.3c-0.1,0.6-0.7,1.4-1.2,1.6c-4,0.9-8,1.9-12.2,1.2c-2.5-0.4-4.3-1.6-4.9-3.6
		c-1.2-3.5-2.2-7-2.9-10.6c-1-4.9-1.8-9.7-5.3-13.9c-2.5-3-3.4-6.6-3.3-10.3c0.1-3.8-0.1-7.7,0.3-11.5c0.2-2.6,1-5.1,1.8-7.6
		c1-3.2,2.1-6.3,3.3-9.5c1-2.7,2.7-3,5.3-1.3c3,2.1,5.8,4.4,7,7.8c0.6,1.6,3.8,2.8,5.7,2.5c2.3-0.3,4.2-1.1,5-3.2
		c1.7-4.5,5.2-7.8,9.2-10.7c0.9-0.7,4,0.1,4.5,1.1c2,4.3,4,8.6,5.9,12.9c0.8,1.7,1.7,3.3,3.3,4.6c1.1,1,2.1,2.2,3,3.3
		c0.4,0.5,0.6,1.3,0.6,2c0,0.9-0.5,1.4-1.7,1.4c-2.7,0-5.3,0-8,0.2c-3.1,0.3-5.3,1.9-6.9,4.2c-2.9,3.9-3.2,8.1-2.6,12.6
		c0.2,1.7,0.2,3.5,0.1,5.2c0,0.6-0.5,1.4-1.1,1.7c-1.6,1.1-5.3,0.9-6.9-0.2C604.5,228.1,604.2,227.8,603.8,227.6z M596,199.7
		c-4.5,0-7.9,1-10.6,3.4c-0.3,0.2-0.3,1-0.1,1.3c0.6,0.7,1.4,1.1,2.6,0.8c1.4-0.4,2.9-0.6,4.4-0.6c3.4,0.1,6.8,0.3,10.2,0.8
		c4.5,0.7,8.7,0.2,13-0.8c3.9-0.9,7.5-3.2,12-2.2c1,0.2,1.5-0.7,0.8-1.5c-0.4-0.4-0.9-0.9-1.4-1.1c-3.9-1.4-7.8-2.1-12-0.5
		c-3.8,1.5-7.8,1.9-12,1.3C600.3,200.2,597.8,199.9,596,199.7z M617.7,191.7c1-2.3-0.2-4-1-5.8c-0.4-1-1.3-1.3-2.5-1
		c-2.6,0.8-3.6,2.8-4.8,4.7c-0.1,0.2,0.1,0.5,0.2,0.7c0.9,1.3,2.1,2.2,3.8,2C614.9,192.3,616.4,192,617.7,191.7z M587.2,187.5
		c-0.8,0.6-1.6,0.9-1.8,1.5c-0.4,1.2-0.8,2.6-0.7,3.8c0.1,1,0.7,2,1.5,2.8c0.3,0.3,1.6-0.2,2.5-0.4c0.5-0.2,1-0.5,1.5-0.8
		c1.7-1,2-2.3,0.8-3.8c-0.4-0.5-0.7-1.1-1.2-1.5C589.1,188.5,588.3,188.1,587.2,187.5z"/>
	<path class="st3" d="M630.8,213.8c1.6,1.4,1.3,3.1,1.1,4.6c-0.9,5.9-1,11.8-0.6,17.8c0.2,3,0.4,5.9-1.6,8.6c-4,5-8.3,5.2-14.6,3.8
		c-0.2-0.1-0.6-0.8-0.4-1c0.5-0.9,1.2-1.7,1.9-2.4c1.9-1.9,1.9-3-0.1-4.8c-0.9-0.8-1.9-1.7-2.8-2.5c-1-0.9-1.1-1.7-0.1-2.7
		c0.5-0.4,1.1-0.7,1.7-1c2.2-1.1,4.4-2.1,6.6-3.2c1.6-0.8,1.8-1.9,0.8-3.5c-1.4-2.3-2.9-4.7-4.1-7.1c-0.5-1-0.5-2.3-0.4-3.4
		c0.1-1.4,1.3-2,2.8-1.5C624.5,216.7,627.8,216.4,630.8,213.8z"/>
	<path class="st3" d="M436.6,375.8c-4.1-0.1-3.7,0.1-4.9-3.3c-1.3-3.9-0.5-7.3,2.9-10.1c1.5-1.2,2.1-2.8,2.2-4.5
		c0.1-1.8,1.2-2.5,3.2-2.2c2,0.3,4,0.3,6,0.5c0.9,0.1,1.8,0.2,2.7,0.5c3.4,1,6.7,2.4,9.1,4.7c3.2,3,6.4,6.2,6.6,10.7
		c0,0.9,0.1,1.9-1.2,2.1c-1.2,0.3-2.3,0-3-1.1c-1.8-2.9-3.7-5.8-6.6-7.9c-0.4-0.3-0.8-0.6-1.3-0.9c-0.9-0.5-1.9-0.6-2.6,0.2
		c-0.7,0.8-0.5,1.6,0.3,2.2c1.8,1.5,2.7,3.4,3.3,5.4c0.2,0.6,0.1,1.3,0,1.9c0,0.6-0.3,0.8-1.1,0.8c-2.7,0.3-4.2-0.4-5.2-2.7
		c-1.1-2.6-2.6-4.9-5.3-6.4c-0.4-0.2-0.8-0.5-1.2-0.5c-0.5,0-1.1,0-1.4,0.3c-0.3,0.2-0.4,0.9-0.2,1.2c0.6,1.2,1.5,2.2,2,3.4
		c0.5,1.4,0.6,3,0.7,4.5c0,0.3-0.5,0.9-0.8,0.9C439.6,375.7,438.1,375.7,436.6,375.8z"/>
	<path class="st3" d="M476.1,363.3c4.3,0,6.5,1.4,7.8,4.8c0.7,1.8,1.5,3.7,2.3,5.4c1.6,3.4,4.6,5.2,8.7,5.7
		c4.9,0.6,8.2,3.2,10.8,6.8c0.7,0.9-0.1,1.6-0.9,2c-0.7,0.4-1.6,0.7-2.2-0.3c-0.5-0.9-1.3-1.7-2-2.6c-0.6-0.7-1.5-0.9-2.3-0.5
		c-1,0.5-0.7,1.3-0.2,1.9c1,1.2,0.2,1.9-0.9,2.5c-1.1,0.6-1.8,0-2.5-0.7c-0.5-0.6-0.8-1.3-1.5-1.8c-0.6-0.4-1.5-0.7-2.2-0.7
		c-1.4,0-1.7,0.7-1,1.8c0.6,0.8,0.5,1.4-0.7,1.5c-0.9,0.1-1.8,0.3-2.6,0.2c-0.6-0.1-1.4-0.4-1.6-0.8c-0.7-1.4-1.3-2.9-1.9-4.5
		c-1.3-3.8-3.7-6.9-6.4-10c-2.1-2.4-4.3-4.8-6.3-7.2c-0.9-1.1-0.1-2.7,1.6-3.2c0.5-0.1,1-0.2,1.4-0.3
		C474.5,363.4,475.4,363.3,476.1,363.3z"/>
	<path class="st3" d="M623.8,209.2c0.5-0.1,1.2-0.2,1.9-0.2c0.7,0,1.4,0,2,0.3c0.5,0.2,0.9,0.8,1.1,1.3c0.1,0.2-0.6,0.7-1.1,0.8
		c-1.6,0.4-3.3,0.8-5,1c-1.4,0.1-2.4-0.6-2.4-1.6c0-0.8,1.2-1.7,2.4-1.7C623.1,209.1,623.3,209.1,623.8,209.2z"/>
	<path class="st3" d="M593.8,214.1c-0.6,0-1.3,0.1-1.9,0c-0.5-0.1-1.2-0.3-1.3-0.5c0-0.5,0.2-1.4,0.5-1.5c2-0.6,4.1-1.1,6.2-1.4
		c0.5-0.1,1.3,0.6,1.7,1c0.6,0.7,0.4,1.3-0.6,1.6c-1.5,0.4-3,0.6-4.5,1C593.8,214.2,593.8,214.1,593.8,214.1z"/>
</g>
</svg>
