<?xml version="1.0" encoding="UTF-8" standalone="no"?>
<svg
   version="1.1"
   width="1950"
   height="1300"
   id="svg13"
   sodipodi:docname="Bandeira_do_Piauí.svg"
   inkscape:version="1.3 (0e150ed6c4, 2023-07-21)"
   xmlns:inkscape="http://www.inkscape.org/namespaces/inkscape"
   xmlns:sodipodi="http://sodipodi.sourceforge.net/DTD/sodipodi-0.dtd"
   xmlns:xlink="http://www.w3.org/1999/xlink"
   xmlns="http://www.w3.org/2000/svg"
   xmlns:svg="http://www.w3.org/2000/svg">
  <sodipodi:namedview
     id="namedview13"
     pagecolor="#ffffff"
     bordercolor="#000000"
     borderopacity="0.25"
     inkscape:showpageshadow="2"
     inkscape:pageopacity="0.0"
     inkscape:pagecheckerboard="0"
     inkscape:deskcolor="#d1d1d1"
     inkscape:zoom="0.51025641"
     inkscape:cx="975"
     inkscape:cy="649.67337"
     inkscape:window-width="1920"
     inkscape:window-height="1007"
     inkscape:window-x="-9"
     inkscape:window-y="-9"
     inkscape:window-maximized="1"
     inkscape:current-layer="svg13" />
  <desc
     id="desc1">Bandeira do Piauí</desc>
  <defs
     id="defs5">
    <g
       id="star"
       transform="scale(200)">
      <g
         id="cone">
        <polygon
           id="triangle"
           fill="#ffffff"
           points="0,0 0,1 .5,1"
           transform="translate(0,-1) rotate(18)" />
        <use
           xlink:href="#triangle"
           transform="scale(-1,1)"
           id="use1" />
      </g>
      <use
         xlink:href="#cone"
         transform="rotate(72)"
         id="use2" />
      <use
         xlink:href="#cone"
         transform="rotate(-72)"
         id="use3" />
      <use
         xlink:href="#cone"
         transform="rotate(144)"
         id="use4" />
      <use
         xlink:href="#cone"
         transform="rotate(-144)"
         id="use5" />
    </g>
    <rect
       id="stripe"
       fill="#56A134"
       width="100%"
       height="100" />
  </defs>
  <rect
     fill="#FFD500"
     width="100%"
     height="1300"
     id="rect5" />
  <use
     xlink:href="#stripe"
     id="use6" />
  <use
     xlink:href="#stripe"
     y="200"
     id="use7" />
  <use
     xlink:href="#stripe"
     y="400"
     id="use8" />
  <use
     xlink:href="#stripe"
     y="600"
     id="use9" />
  <use
     xlink:href="#stripe"
     y="800"
     id="use10" />
  <use
     xlink:href="#stripe"
     y="1000"
     id="use11" />
  <use
     xlink:href="#stripe"
     y="1200"
     id="use12" />
  <rect
     width="750"
     height="500"
     fill="#0B1097"
     id="rect12" />
  <path
     d="m 68.891602,470 h -5.273438 v -33.60352 q -1.904297,1.81641 -5.009766,3.63282 -3.076171,1.8164 -5.537109,2.72461 v -5.09766 q 4.423828,-2.08008 7.734375,-5.03906 3.310547,-2.95899 4.6875,-5.74219 h 3.398438 z m 13.535156,-11.33789 5.273437,-0.70313 q 0.908203,4.48243 3.076172,6.47461 2.197266,1.96289 5.332031,1.96289 3.720704,0 6.269532,-2.57812 2.57812,-2.57813 2.57812,-6.38672 0,-3.63281 -2.37304,-5.97656 -2.37305,-2.37305 -6.035158,-2.37305 -1.494141,0 -3.720704,0.58594 l 0.585938,-4.62891 q 0.527344,0.0586 0.849609,0.0586 3.369141,0 6.064455,-1.75782 2.69531,-1.75781 2.69531,-5.41992 0,-2.90039 -1.96289,-4.80469 -1.96289,-1.90429 -5.068359,-1.90429 -3.076172,0 -5.126953,1.93359 -2.050781,1.93359 -2.636719,5.80078 l -5.273437,-0.9375 q 0.966796,-5.30273 4.394531,-8.20312 3.427734,-2.92969 8.52539,-2.92969 3.515625,0 6.474607,1.52344 2.95899,1.49414 4.51172,4.10156 1.58203,2.60742 1.58203,5.53711 0,2.7832 -1.49414,5.06836 -1.49414,2.28515 -4.42383,3.63281 3.8086,0.87891 5.91797,3.66211 2.10938,2.75391 2.10938,6.91406 0,5.625 -4.10156,9.55078 -4.10157,3.89649 -10.371098,3.89649 -5.654297,0 -9.404297,-3.36914 -3.720703,-3.36914 -4.248047,-8.73047 z M 134.5752,470 v -42.94922 h 14.79492 q 5.00976,0 7.64648,0.61524 3.69141,0.8496 6.29883,3.07617 3.39844,2.87109 5.06836,7.35351 1.69922,4.45313 1.69922,10.19532 0,4.89257 -1.14258,8.67187 -1.14258,3.7793 -2.92969,6.26953 -1.78711,2.46094 -3.92578,3.89649 -2.10937,1.40625 -5.12695,2.13867 Q 153.96973,470 150.07324,470 Z m 5.68359,-5.06836 h 9.16992 q 4.24805,0 6.65039,-0.79102 2.43164,-0.79101 3.86719,-2.22656 2.02148,-2.02148 3.13476,-5.41992 1.14258,-3.42773 1.14258,-8.29102 0,-6.73828 -2.22656,-10.34179 -2.19727,-3.63281 -5.36133,-4.86328 -2.28515,-0.87891 -7.35351,-0.87891 h -9.02344 z M 178.02246,470 v -42.94922 h 31.05469 v 5.06836 h -25.3711 v 13.1543 h 23.75977 v 5.03906 h -23.75977 v 14.61914 h 26.36719 V 470 Z m 56.39649,0 v -42.94922 h 8.55468 l 10.16602,30.41016 q 1.40625,4.24804 2.05078,6.35742 0.73242,-2.34375 2.28516,-6.88477 l 10.2832,-29.88281 h 7.64648 V 470 h -5.47851 V 434.05273 L 257.44629,470 h -5.12695 L 239.89746,433.4375 V 470 Z m 45.43945,0 16.49414,-42.94922 h 6.12305 L 320.05371,470 h -6.47461 l -5.00976,-13.00781 H 290.61035 L 285.89355,470 Z m 12.39258,-17.63672 h 14.56054 l -4.48242,-11.89453 q -2.05078,-5.41992 -3.04687,-8.90625 -0.82032,4.13086 -2.31446,8.20312 z M 324.68262,470 v -42.94922 h 19.04297 q 5.74218,0 8.73046,1.17188 2.98829,1.14257 4.7754,4.07226 1.7871,2.92969 1.7871,6.47461 0,4.57031 -2.95898,7.70508 -2.95898,3.13476 -9.14062,3.98437 2.25585,1.08399 3.42773,2.13868 2.49023,2.28515 4.7168,5.71289 L 362.53418,470 h -7.14844 l -5.68359,-8.93555 q -2.49024,-3.86718 -4.10156,-5.91797 -1.61133,-2.05078 -2.90039,-2.87109 -1.25977,-0.82031 -2.57813,-1.14258 -0.9668,-0.20508 -3.16406,-0.20508 h -6.5918 V 470 Z m 5.68359,-23.99414 h 12.2168 q 3.89648,0 6.09375,-0.79102 2.19726,-0.82031 3.33984,-2.57812 1.14258,-1.78711 1.14258,-3.86719 0,-3.04687 -2.22656,-5.00976 -2.19727,-1.9629 -6.97266,-1.9629 h -13.59375 z m 68.20313,8.93555 5.68359,1.43554 q -1.78711,7.00196 -6.44531,10.69336 -4.62891,3.66211 -11.33789,3.66211 -6.94336,0 -11.3086,-2.8125 -4.33593,-2.8418 -6.62109,-8.20312 -2.25586,-5.36133 -2.25586,-11.51368 0,-6.70898 2.54883,-11.68945 2.57812,-5.00976 7.29492,-7.58789 4.74609,-2.60742 10.42969,-2.60742 6.44531,0 10.83984,3.28125 4.39453,3.28125 6.12305,9.22851 l -5.59571,1.31836 q -1.49414,-4.6875 -4.33593,-6.82617 -2.8418,-2.13867 -7.14844,-2.13867 -4.95117,0 -8.29102,2.37305 -3.31054,2.37304 -4.6582,6.38672 -1.34766,3.98437 -1.34766,8.23242 0,5.47851 1.58204,9.58008 1.61132,4.07226 4.98046,6.09375 3.36915,2.02148 7.29493,2.02148 4.77539,0 8.08593,-2.75391 3.31055,-2.7539 4.48243,-8.17382 z m -17.10938,19.57031 1.52344,-5.18555 h 3.92578 l -0.9668,3.13477 q 2.49024,0.29297 3.75,1.52343 1.25977,1.25977 1.25977,2.78321 0,2.19726 -2.10938,3.86719 -2.10937,1.69921 -6.35742,1.69921 -2.40234,0 -4.21875,-0.35156 l 0.32227,-3.42773 q 1.875,0.11718 2.7539,0.11718 2.75391,0 3.86719,-0.76171 0.84961,-0.58594 0.84961,-1.43555 0,-0.52734 -0.35156,-0.9375 -0.32227,-0.41016 -1.23047,-0.70313 -0.9082,-0.29296 -3.01758,-0.32226 z m 28.06641,-25.42969 q 0,-10.69336 5.74218,-16.72851 5.74219,-6.06446 14.82422,-6.06446 5.94727,0 10.72266,2.8418 4.77539,2.8418 7.26562,7.93945 2.51954,5.06836 2.51954,11.51367 0,6.53321 -2.63672,11.68946 -2.63672,5.15625 -7.47071,7.82226 -4.83398,2.63672 -10.42968,2.63672 -6.06446,0 -10.83985,-2.92969 -4.77539,-2.92968 -7.23633,-7.99804 -2.46093,-5.06836 -2.46093,-10.72266 z m 5.85937,0.0879 q 0,7.76367 4.16016,12.2461 4.18945,4.45312 10.48828,4.45312 6.41602,0 10.54687,-4.51172 4.16016,-4.51172 4.16016,-12.80273 0,-5.24414 -1.78711,-9.14063 -1.75781,-3.92578 -5.18555,-6.06445 -3.39843,-2.16797 -7.64648,-2.16797 -6.03516,0 -10.40039,4.16016 -4.33594,4.13086 -4.33594,13.82812 z M 474.59473,470 v -42.94922 h 14.79492 q 5.00976,0 7.64648,0.61524 3.69141,0.8496 6.29883,3.07617 3.39844,2.87109 5.06836,7.35351 1.69922,4.45313 1.69922,10.19532 0,4.89257 -1.14258,8.67187 -1.14258,3.7793 -2.92969,6.26953 -1.78711,2.46094 -3.92578,3.89649 -2.10937,1.40625 -5.12695,2.13867 Q 493.98926,470 490.09277,470 Z m 5.68359,-5.06836 h 9.16992 q 4.24805,0 6.65039,-0.79102 2.43164,-0.79101 3.86719,-2.22656 2.02148,-2.02148 3.13477,-5.41992 1.14257,-3.42773 1.14257,-8.29102 0,-6.73828 -2.22656,-10.34179 -2.19726,-3.63281 -5.36133,-4.86328 -2.28515,-0.87891 -7.35351,-0.87891 h -9.02344 z M 518.04199,470 v -42.94922 h 31.05469 v 5.06836 h -25.37109 v 13.1543 h 23.75976 v 5.03906 h -23.75976 v 14.61914 h 26.36718 V 470 Z m 74.29688,0 h -5.27344 v -33.60352 q -1.9043,1.81641 -5.00977,3.63282 -3.07617,1.8164 -5.53711,2.72461 v -5.09766 q 4.42383,-2.08008 7.73438,-5.03906 3.31055,-2.95899 4.6875,-5.74219 h 3.39844 z m 21.62109,-23.29102 q -3.28125,-1.20117 -4.86328,-3.42773 -1.58203,-2.22656 -1.58203,-5.33203 0,-4.6875 3.36914,-7.88086 3.36914,-3.19336 8.96484,-3.19336 5.625,0 9.05274,3.28125 3.42773,3.25195 3.42773,7.93945 0,2.98828 -1.58203,5.21485 -1.55273,2.19726 -4.74609,3.39843 3.95507,1.28907 6.00586,4.16016 2.08007,2.87109 2.08007,6.85547 0,5.50781 -3.89648,9.25781 -3.89648,3.75 -10.25391,3.75 -6.35742,0 -10.2539,-3.75 -3.89649,-3.7793 -3.89649,-9.4043 0,-4.18945 2.10938,-7.00195 2.13867,-2.8418 6.06445,-3.86719 z m -1.05469,-8.93554 q 0,3.04687 1.96289,4.98047 1.96289,1.93359 5.09766,1.93359 3.04688,0 4.98047,-1.9043 1.96289,-1.93359 1.96289,-4.71679 0,-2.90039 -2.02148,-4.86329 -1.99219,-1.99218 -4.98047,-1.99218 -3.01758,0 -5.00977,1.93359 -1.99219,1.93359 -1.99219,4.62891 z m -1.69922,19.83398 q 0,2.25586 1.05469,4.36524 1.08399,2.10937 3.19336,3.28125 2.10938,1.14257 4.54102,1.14257 3.77929,0 6.24023,-2.43164 2.46094,-2.43164 2.46094,-6.18164 0,-3.80859 -2.54883,-6.29883 -2.51953,-2.49023 -6.32812,-2.49023 -3.72071,0 -6.18164,2.46094 -2.43165,2.46094 -2.43165,6.15234 z m 55.72266,7.32422 V 470 h -28.38867 q -0.0586,-1.9043 0.61523,-3.66211 1.08399,-2.90039 3.45703,-5.71289 2.40235,-2.8125 6.91407,-6.50391 7.00195,-5.74218 9.46289,-9.08203 2.46094,-3.36914 2.46094,-6.35742 0,-3.13477 -2.25586,-5.27344 -2.22657,-2.16797 -5.83008,-2.16797 -3.8086,0 -6.09375,2.28516 -2.28516,2.28516 -2.31446,6.32813 l -5.41992,-0.55665 q 0.55664,-6.06445 4.18946,-9.22851 3.63281,-3.19336 9.75586,-3.19336 6.18164,0 9.78515,3.42773 3.60352,3.42774 3.60352,8.4961 0,2.57812 -1.05469,5.06836 -1.05469,2.49023 -3.51563,5.24414 -2.43164,2.7539 -8.11523,7.55859 -4.74609,3.98438 -6.09375,5.41992 -1.34766,1.40625 -2.22656,2.8418 z m 5.68359,-6.26953 5.27344,-0.70313 q 0.90821,4.48243 3.07617,6.47461 2.19727,1.96289 5.33204,1.96289 3.7207,0 6.26953,-2.57812 2.57812,-2.57813 2.57812,-6.38672 0,-3.63281 -2.37305,-5.97656 -2.37304,-2.37305 -6.03515,-2.37305 -1.49414,0 -3.7207,0.58594 l 0.58593,-4.62891 q 0.52735,0.0586 0.84961,0.0586 3.36914,0 6.06446,-1.75782 2.69531,-1.75781 2.69531,-5.41992 0,-2.90039 -1.96289,-4.80469 -1.96289,-1.90429 -5.06836,-1.90429 -3.07617,0 -5.12696,1.93359 -2.05078,1.93359 -2.63671,5.80078 l -5.27344,-0.9375 q 0.9668,-5.30273 4.39453,-8.20312 3.42773,-2.92969 8.52539,-2.92969 3.51563,0 6.47461,1.52344 2.95898,1.49414 4.51172,4.10156 1.58203,2.60742 1.58203,5.53711 0,2.7832 -1.49414,5.06836 -1.49414,2.28515 -4.42383,3.63281 3.80859,0.87891 5.91797,3.66211 2.10937,2.75391 2.10937,6.91406 0,5.625 -4.10156,9.55078 -4.10156,3.89649 -10.37109,3.89649 -5.6543,0 -9.4043,-3.36914 -3.7207,-3.36914 -4.24805,-8.73047 z"
     id="text12"
     style="font-size:60px;font-family:Arial;text-anchor:middle;fill:#ffffff"
     aria-label="13 DE MARÇO DE 1823" />
  <use
     xlink:href="#star"
     x="375"
     y="225"
     id="use13" />
</svg>
