<?xml version="1.0" encoding="UTF-8"?>
<svg width="500" height="250" version="1.1" viewBox="0 0 132.29 66.146" xmlns="http://www.w3.org/2000/svg">
 <g transform="translate(-108.48 -47.5)">
  <rect x="108.48" y="47.5" width="132.29" height="66.146" fill="#4980bc" stop-color="#000000"/>
  <path d="m144.42 47.5v66.146h60.409v-66.146h-15.102v6.3201h-7.5508v-6.3201h-15.103v6.3201h-7.5508v-6.3201z" fill="#c00021" stop-color="#000000"/>
  <g transform="matrix(.78075 0 0 .78075 52.798 45.957)">
   <g fill="#ede13f" stroke="#000">
    <g stroke-width=".26458">
     <path d="m149.5 62.754s0.53812 0.3355 0.55641 0.60164c0.0183 0.26614-0.11245 0.61266 0.11267 1.4075 0.13752 0.48555 0.43501 0.84187 0.82828 0.97891 0 0 0.0639 0.35657-0.0305 0.75398-0.0945 0.39741-0.77603 1.8391-0.77603 2.4533s0.0274 0.95522 0.0274 0.95522l0.66015 0.67062 1.936-0.49075 1.497-4.5927-0.71556-4.2016-2.3446-2.3577s-3.1124 1.6686-1.7514 3.8215z" stop-color="#000000"/>
     <path d="m176.11 59.847s-0.50494 1.8839-1.1687 2.8625c0 0-0.39843 0.99618-0.6761 2.0563-0.27766 1.0601-0.26029 1.7229-0.24359 2.5161 0.0167 0.79325 0.0956 1.7384-0.0297 2.1058-0.12528 0.36739-0.32889 0.47139-0.64206 0.45468-0.31317-0.0167-0.75461 0.4494-1.1246 0.4661-0.37003 0.0167-3.4085-0.17419-3.5077-1.0325-0.0992-0.85828 0.77556-2.1675 1.3518-3.0249 0.57629-0.8574 0.57208-1.4254 0.69465-1.9719 0.12257-0.54655 0.4159-2.0215 0.11374-2.651-0.30216-0.62942-1.602-2.992-1.5521-4.4359s5.2481-3.2673 5.2481-3.2673l3.6008 2.5767z" stop-color="#000000" style="font-variation-settings:normal"/>
     <path d="m126.31 44.744s-0.10884-0.51469-0.80397-0.58556c-0.69512-0.07087-0.94729 0.04936-1.2437 0.15144-0.29645 0.10209-0.78651 0.30471-1.216-0.32059-0.42947-0.6253-0.68143-0.35503-0.72998-0.14565-0.0485 0.20937 0.34919 0.74827 0.60891 1.0787 0.25971 0.33044 0.7807 1.0701 1.2478 1.2709s0.70693 0.06553 1.1676-0.04078c0.46066-0.1063 0.9694-1.4085 0.9694-1.4085z" stop-color="#000000" style="font-variation-settings:normal"/>
    </g>
    <path transform="matrix(.26458 0 0 .26458 115.68 -4.7106)" d="m120.58 129.89c-1.13 0.0274-2.2841 0.16544-3.5566 0.41406-4.5244 0.88388-8.6332 1.0849-10.854 2.1875-2.2204 1.1026-1.5099 1.1007-3.7227 1.3594s-4.4096 0.25337-10.488 3.4336c-6.0787 3.1802-8.8978 7.4217-10.402 10.615-1.5046 3.1936-1.2305 3.0822-6.6699 5.4336s-8.6484 14.615-8.6484 14.615c-10.162 4.0036-10.587 8.8195-15.918 11.209-5.3311 2.3895-10.261 6.8076-13.244 9.6855-2.9836 2.8779-3.0381 5.1636-1.5977 11.695 1.4405 6.5318 7.0547 7.6543 7.0547 7.6543 0.01429 2.484 2.8836 17.549 8.9551 21.924 5.7216 4.1228 5.8064 5.2639 5.7988 5.3867-0.41702 0.68518-0.56063 1.3547-0.30664 1.9531 0.70322 1.657 4.0066 3.7159 6.0547 4.8047 1.5706 0.83499 3.6953 0.90932 5.3848 0.25586l0.96289 2.2559c0.91189-0.92145 3.887 0.0762 5.0234-0.68164 1.1366-0.75783 0.92188 0.71875 0.92188 0.71875-1.2238 0.78821-0.84404 1.0854-1.0391 3.0195-0.19484 1.9341 0.72486 2.0496 1.1973 3.4316s1.0938 1.2363 1.0938 1.2363c0.31529-1.6954 2.0332-2.7969 2.0332-2.7969 0 6e-5 -0.3881 2.2621 0.08203 5.334 0.47014 3.0719 3.6173 4.1748 3.7852 5.6348 0.16789 1.4599 0.92773 1.748 0.92773 1.748 0.08901-0.84554 0.71646-1.0762 1.375-1.9668 0.65873-0.89054 0.85547-1.9902 0.85547-1.9902 0.0023 6.1343 3.9568 8.3281 5.8789 9.3809 1.5845 0.86778 1.6426 3.4648 1.6426 3.4648s0.82522-1.2724 1.3105-2.0293c0.45687-0.71252 1.1172-0.9336 1.1172-0.9336 0.18047 1.7823 1.1716 1.3643 2.4531 3.1465s0.58203 4.2598 0.58203 4.2598c3.1883-0.78918 5.6382-4.3499 5.8906-5.7168 0.25275-1.3669-2e-3 -2.6191-2e-3 -2.6191s0.92134-0.33196 1.7012 1.1797c0.77987 1.5116 1.6133 2.0586 1.6133 2.0586s0.25423-3.5911 2.9199-5.502c2.6657-1.9108 4.1133-4.9726 4.1133-4.9726s0.34869 0.4365 0.16992 1.5039c-0.17858 1.0674 0.55664 2.5469 0.55664 2.5469 0.26347-1.0531 1.9115-3.4569 4.8633-5.1875 2.9526-1.7306 2.9785-4.7891 2.9785-4.7891s1.1029 0.78899 0.98047 2.0273c-0.12242 1.2384 0.79687 2.5918 0.79687 2.5918 0-1.6441 2.2607-3.2296 4.8652-5.7637 2.6044-2.5341 2.9805-5.3516 2.9805-5.3516l0.0137-2e-3c0.13176 0.10783 0.2624 0.21766 0.40429 0.3125 3.1919 2.1334 4.1328 4.4141 4.1328 4.4141l0.23046-0.25195s-0.26888 3.182 2.2774 5.1133c0 0-1.5312 7.3453 3.0273 9.3438 0.269 1.0507-0.0897 4.097-1.334 6.3809-1.2489 2.2921-1.4434 9.623-1.4434 9.623l7.7598 3.9863s7.3211-1.6734 7.3672-2.7207c0.046-1.0473-0.1-2.0032 0.875-2.3457 0.97493-0.34248 2.0866-0.90282 2.002-1.9004-0.0845-0.99758 0.15198-5.874-0.66406-10.156-0.816-4.2823-0.21355-8.5268 0.47852-10.283 0.6921-1.7564 2.0242-2.9247 1.3965-5.7383s-0.95689-7.8384 1.9297-9.5352c2.8866-1.6968 4.0781-5.8066 4.0781-5.8066 5.8227 1.0558 12.306-4.7249 18.271-4.3672s6.459 4.959 6.459 4.959c12.155 0.77498 23.288-9.792 23.672-10.16 2.1505 2.2737 4.8662 4.5868 7.9434 6.1855 1.7278 6.0158 10.808 12.964 12.604 15.111 1.8045 2.158 1.5718 4.0986 1.6641 6.3691 0.0924 2.2705 0.85125 10.026-2.293 13.65-3.1442 3.6249-2.8125 9.7949-2.8125 9.7949l1.4512 2.0254 13.465 0.27148c5.7338-0.75979 3.9153-7.8375 3.291-10.125-0.62408-2.2875 0.22461-15.18 0.22461-15.18 3.2368-3.914 6.6014-18.803 2.9394-19.965s-3.5407-3.4915-4.9727-8.8574c-1.432-5.366-3.6104-4.5575-4.3281-6.6191-0.7177-2.0617 3.4262-6.5746 5.1309-10.713 1.7046-4.1383 0.96132-10.365 0.64648-14.387-0.31483-4.0216-4.2261-10.267-4.8574-14.857-0.63137-4.5905-4.7594-17.498-12.143-21.385-0.67039-0.3529-1.6172-1.0566-1.6172-1.0566-0.46612-0.5804-0.60938-1.3103-0.4961-1.7461 0.59384-2.0512 3.6778-6.1362 5.8125-6.957 5.0358-1.7843 8.0348 0.68167 8.1816 4.9453-0.42538 8.8712-1.9665 19.32 0.85157 28.469 2.968 8.0477 7.4643 15.201 11.732 21.201-0.81721 0.99448-3.2844 8.4668 3.0605 14.262 6.3449 5.795 11.895 6.2891 11.895 6.2891-4.761-5.8585-3.2475-9.585-3.1621-12.203 0.10537-3.2275-0.19151-6.446-2.916-9.5098-2.7245-3.0638-5.4141-1.6992-5.4141-1.6992-5.8881-6.4723-8.3566-13.426-9.8867-20.172-1.5301-6.7464 0.0925-16.477 0.65625-25.967 0.37568-4.1232-1.4793-9.8114-5.6856-11.953-2.1032-1.0708-4.3336-1.6098-6.5273-1.6191-2.1937-9e-3 -4.3502 0.51198-6.3027 1.5586-3.905 2.0932-8.9138 6.5678-9.6758 11.965-0.1008 0.57968-0.50152 1.091-1.1621 1.0488-5.3308-0.78174-9.8146-0.30649-13.48 0.73047-6.0293 1.7055-9.2848-0.47186-19.312-1.166-10.028-0.69415-11.863 1.5573-18.748-0.84375-6.8848-2.4011-14.004-8.9274-18.723-11.322-4.7186-2.3949-14.763-10.494-20.611-12.373-3.655-1.1746-6.2006-1.8195-8.7012-1.9219-0.37508-0.0154-0.74832-0.0183-1.125-0.01z" stop-color="#000000" style="paint-order:fill markers stroke"/>
   </g>
   <path d="m170.75 53.218c-0.17879-0.34752-0.46288-0.63812-0.82103-0.66794-0.22558-0.01196-0.39714 0.08071-0.49278 0.17468-0.048 0.04784-0.0795 0.09546-0.0992 0.13078-0.0257 0.04666-0.0337 0.07341-0.0337 0.07341s0.0143-0.02251 0.0505-0.05839c0.0272-0.02741 0.0676-0.06322 0.12185-0.09551 0.10456-0.06244 0.25712-0.09813 0.43201-0.05849 0.26674 0.05044 0.41774 0.31542 0.61173 0.63107 0.11441 0.20358 0.23148 0.4541 0.36583 0.74964 0.29581 0.65074 1.6537 2.5067 3.4464 3.438 1.0059 0.52439 2.0554 0.42486 2.0554 0.42486s-1.0171-0.18534-1.9334-0.65965c-1.7531-0.91075-3.0558-2.7151-3.3275-3.3127-0.13483-0.2966-0.25591-0.55602-0.37603-0.76977z" stop-color="#000000" style="paint-order:fill markers stroke"/>
   <path d="m152.01 62.014c-0.049 0.58133 0.30408 1.1016 0.30408 1.1016 0.0893 0.13036 0.20362 0.25607 0.35059 0.36754l-0.0495-0.13255c-0.10083 0.48085-0.0597 1.0259-0.0597 1.0259 0.0267 0.36683 0.11702 0.7822 0.34869 1.1145 0.14719 0.2111 0.3507 0.38849 0.62687 0.49973 1.3356 0.538 2.0807-0.38294 2.1354-1.2105 0.0125-0.18827 0.0123-0.33638 2e-3 -0.4532-0.0215-0.20276-0.11165-0.38633-0.25235-0.52687-0.12332-0.08667-0.099-0.32435-0.10144-0.53905-7e-3 -0.16494 0.14923-0.35065 0.24614-0.52659 0.38216-0.6855 0.17557-1.2754 0.17557-1.2754s0.0979 0.62058-0.31492 1.1871c-0.10606 0.1445-0.28681 0.33387-0.32625 0.59842-0.0343 0.21014-0.0574 0.5036 0.14082 0.73692 0.10007 0.09856 0.16101 0.22838 0.16881 0.36808 9e-3 0.10056 9e-3 0.233-3e-3 0.4132-0.0424 0.64083-0.60371 1.4533-1.7726 0.9825-0.55802-0.22478-0.75525-0.79077-0.80521-1.3239 0 0-0.0491-0.54656 0.0495-1.0165a2.1583 2.1583 0 0 1 0.0193-0.08365 1.3568 1.3568 0 0 1-0.0688-0.0489c-0.24427-0.18528-0.38206-0.42022-0.45847-0.63569 0 0-0.11532-0.32883-0.0924-0.60048z" stop-color="#000000" style="paint-order:fill markers stroke"/>
   <path d="m135.44 57.953c-0.0732 0-0.74603 0.15732-1.2781-0.60808-0.53202-0.7654-1.0474-1.231-1.9388-0.80774s-1.6742 1.0904-1.4666 1.5798c0.18606 0.43841 1.0599 0.98308 1.6018 1.2712 0.59632 0.31702 1.5005 0.2301 1.9219-0.26512 0.42139-0.49522 1.1597-1.17 1.1597-1.17z" fill="#ede13f" stop-color="#000000" stroke="#000" stroke-width=".26458" style="font-variation-settings:normal;paint-order:fill markers stroke"/>
   <path d="m139.87 43.765c-0.0563-0.09663-0.11339-0.1927-0.17092-0.28798-0.45674-0.79027-0.6756-1.4315-0.41516-1.9878 0.20885-0.45645 0.5408-0.56314 0.5408-0.56314s-0.35628 0.04462-0.63523 0.51336c-0.33092 0.56643-0.2047 1.358 0.28465 2.1704 0.0554 0.09592 0.11129 0.19236 0.16728 0.28842 1.0922 1.8738 1.3716 2.6115 1.3422 3.1706l-0.0158 0.30036 0.23208-0.19132c0.0915-0.07541 0.30517-0.15522 0.43867-0.18973 0.20668-0.05343 0.49092-0.08992 0.85764-0.05787 0.25272 0.02209 0.4782-0.0047 0.67821-0.06763 0.88407-0.28736 0.98171-1.1614 0.98171-1.1614s-0.37995 0.70325-1.0611 0.90904c-0.16516 0.05197-0.35609 0.07563-0.57575 0.05643-0.46558-0.04069-1.1527 0.03092-1.4876 0.30702l0.21626 0.10904c0.0334-0.63367-0.28159-1.437-1.3778-3.3177z" stop-color="#000000" style="paint-order:stroke fill markers"/>
   <path d="m142.47 46.693c-0.43804 0.31028-0.70606 0.72503-0.70606 0.72503-0.27276 0.42622-0.76985 1.4503 0.65084 3.7674 0.68439 1.1162 0.95121 1.7278 1.0454 2.0711 0.0371 0.13519 0.046 0.22397 0.0448 0.28237-2e-3 0.09927-0.0244 0.11024-0.0391 0.16774a0.27813 0.27813 0 0 0 0.0116 0.17296 1.0025 1.0025 0 0 0 0.13442-0.0091c0.44031-0.05989 0.66987-0.38929 0.66987-0.38929 0.06-0.0864 0.1045-0.18871 0.12419-0.31128l-0.24856 0.03894c0.14853 0.29234 0.14891 0.7858 0.14519 0.871-0.0265 0.6081 0.0406 0.88183 0.80067 1.5411 0.70905 0.61496 0.80199 0.84164 0.95906 1.2602a40.619 40.619 0 0 1 0.0793 0.21324 4.6044 4.6044 0 0 1 0.14399-0.17248c0.27628-0.31501 0.49407-0.4766 0.49407-0.4766 0.0615-0.04868 0.12029-0.09007 0.1743-0.12075 0.0297-0.01688 0.056-0.02938 0.0791-0.03795 0.0943-0.03492 0.20251-0.108 0.30281-0.19836 0.70626-0.62462 0.48359-1.397 0.48359-1.397s-3e-3 0.19017-0.10114 0.43432c-0.10482 0.25966-0.2939 0.52164-0.55955 0.76608-0.0876 0.07896-0.16153 0.12607-0.21755 0.14681-0.0757 0.02803-0.15847 0.07703-0.23404 0.13048 0 0-0.24109 0.14589-0.62051 0.57849l0.22332 0.04075c-0.16051-0.42776-0.28999-0.72237-1.0334-1.3672-0.69228-0.60047-0.7332-0.79039-0.70969-1.3297 6e-3 -0.13943-6.6e-4 -0.6619-0.17365-1.0024a0.94848 0.94848 0 0 0-0.3639-0.38743 0.53741 0.53741 0 0 1 0.11534 0.42637c-0.0256 0.15956-0.11683 0.26773-0.22044 0.34036 0 0-0.16219 0.11473-0.34804 0.14002l0.14601 0.16381c3e-3 -0.01119 0.0219-0.05223 0.0343-0.11051 0.0529-0.24895-0.0134-0.81583-1.1162-2.6145-1.3566-2.2125-0.87948-3.1334-0.65354-3.4865 0 0 0.24045-0.37147 0.63614-0.65174z" stop-color="#000000" style="paint-order:stroke fill markers"/>
   <path d="m146.8 56.284c0.28178 0.34841 0.32618 0.69916 0.32618 0.69916 0.0464 0.43039 0.32563 0.85257 0.91958 1.3118 0.53937 0.41705 0.84241 1.2049 0.76553 1.8011a1.3508 1.3508 0 0 1-0.0362 0.18158 0.51795 0.51795 0 0 0 0.22058-0.04353c0.26101-0.11457 0.71675-0.57159 1.1106-1.2999l-0.24795-0.04926c0.0416 0.40034 0.18272 0.82362 0.18868 0.84194 0.14768 0.4532 0.41512 1.0039 0.86855 1.307 0.32716 0.21867 0.56084 0.44258 0.72289 0.63116 0.10759 0.12519 0.26055 0.32879 0.32173 0.47712a0.60563 0.60563 0 0 1 0.0454 0.20968 3.1003 3.1003 0 0 0 0.17303-0.16924c0.56706-0.59969 0.54944-1.0607 0.33911-2.4518-0.20588-1.3618-0.19228-2.4128 1.6563-3.5309 0.51456-0.31121 0.90902-0.62537 1.211-0.92025 0.36021-0.35057 0.58994-0.72996 0.71861-1.0661 0.10993-0.26953 0.11383-0.42993 0.1149-0.46471-1.8e-4 -0.0016-1.6e-4 -0.0013-1.6e-4 -0.0013s1.1e-4 -1.95e-4 -6.2e-4 0.0012c-0.0249 0.07233-0.0494 0.14108-0.21766 0.41222-0.20163 0.30825-0.44452 0.58126-0.79991 0.9294-0.28672 0.27994-0.66494 0.58185-1.1631 0.88317-1.9772 1.1959-1.9938 2.3896-1.781 3.7969 0.20833 1.378 0.20667 1.7267-0.26975 2.2305l0.21842 0.04045c-0.20424-0.49513-0.82606-1.0161-1.1422-1.2274-0.30872-0.20634-0.52147-0.552-0.66774-0.9068 0 0-0.21987-0.53486-0.27335-1.0495a2.4573 2.4573 0 0 1 0.01-0.58749 6.0314 6.0314 0 0 1-0.25753 0.53824c-0.217 0.40127-0.42271 0.67285-0.58912 0.85328-0.15954 0.17298-0.31411 0.29468-0.39512 0.33024l0.18438 0.13805c0.0897-0.69603-0.24986-1.5678-0.86611-2.0443-0.56165-0.43429-0.78279-0.80112-0.81836-1.1309 0 0-0.0465-0.42042-0.38352-0.83717z" stop-color="#000000" style="paint-order:stroke fill markers"/>
   <path d="m133.15 48.073c-0.5594-0.45618-0.89136-1.1156-0.89136-1.1156s0.0513 0.77829 0.72508 1.3208l-1.3e-4 1.6e-4c0.0619 0.05011 0.12789 0.0985 0.19831 0.14442 0.77252 0.50364 1.3103 1.161 1.2027 1.5433a0.34014 0.34014 0 0 1-0.12231 0.17918 0.829 0.829 0 0 0 0.27854-0.01425c0.28406-0.06356 0.49229-0.26726 0.49229-0.26726 0.26057-0.24988 0.12576-0.54959 0.12576-0.54959s-0.15742 0.21511-0.30842 0.35818c0 0-0.16515 0.15522-0.36741 0.20047l0.15623 0.16494c0.15916-0.56551-0.51232-1.3148-1.3129-1.8367-0.0625-0.04077-0.12123-0.08378-0.17627-0.12837z" stop-color="#000000" style="paint-order:stroke fill markers"/>
   <path d="m134.81 49.742c-0.0486 0.23858-0.0631 0.42836-0.0701 0.50648-0.0259 0.28853-0.0353 0.66311 0.0375 0.9785 0.13834 0.59976 0.25453 0.96289-0.0582 1.3827a1.3254 1.3254 0 0 1-0.10284 0.12198 0.48764 0.48764 0 0 0 0.17647 0.0853c0.29927 0.07574 0.59629-0.15147 0.66909-0.21926 0.0791-0.07364 0.15591-0.16822 0.22704-0.28918l-0.24624-0.06211c0.0168 0.44852 0.035 0.54282 0.0547 0.7329 0.0107 0.1031 0.0233 0.21213 0.0381 0.32355 0.0185 0.13919 0.0407 0.28261 0.0669 0.42282 0.0146 0.07797 0.0305 0.15518 0.0478 0.23036 0.0348 0.15116 0.0625 0.30003 0.081 0.44417 0.0387 0.3801 0.0708 0.6701 0.01 0.94233-0.054 0.24087-0.17446 0.38235-0.17446 0.38235s0.16533-0.0878 0.29527-0.33719c0.13789-0.26466 0.19203-0.63043 0.13187-1.0212-0.0198-0.154-0.0492-0.31172-0.0856-0.46981-0.0164-0.07116-0.0315-0.14474-0.0456-0.21963-0.0252-0.13494-0.0466-0.2734-0.0647-0.40913-0.0145-0.10851-0.0268-0.21495-0.0372-0.31586-0.0188-0.18119-0.037-0.27454-0.0535-0.71555l-0.0169-0.45205-0.22931 0.38994c-0.11729 0.19947-0.24592 0.29761-0.34616 0.34392 0 0-0.16042 0.06658-0.25697 0.04215l0.0736 0.20728c0.39335-0.52805 0.2392-1.0133 0.10382-1.6002-0.0252-0.10931-0.0395-0.22947-0.0459-0.35347 0 0-0.0315-0.47193 0.08-1.0192z" stop-color="#000000" style="paint-order:stroke fill markers"/>
   <path d="m135.51 58.065c0.24788-0.15348 0.5804-0.15499 0.5804-0.15499 0.2049 0.0023 0.44916 0.07603 0.66299 0.31509 0.52677 0.58893 0.40764 0.77795 0.11863 1.2142-0.23715 0.35796-0.0747 0.81264 0.24969 1.1565 0.17026 0.18017 0.3745 0.31507 0.58696 0.4064v1e-6c0.37986 0.1765 0.62485 0.28661 0.79642 0.48504 0.14576 0.16857 0.16098 0.33086 0.16098 0.33086s0.028-0.16076-0.0919-0.37841c-0.13047-0.2368-0.3922-0.45688-0.76476-0.64511-0.18006-0.09905-0.35017-0.22628-0.4952-0.38033-0.27476-0.29126-0.36573-0.61125-0.22158-0.82883 0.2773-0.41859 0.54678-0.76669-0.142-1.5367-0.13456-0.15044-0.27903-0.25066-0.42729-0.31416-0.11794-0.05051-0.23534-0.07626-0.3473-0.08532 0 0-0.44129-0.03456-0.80528 0.19082z" stop-color="#000000" style="paint-order:stroke fill markers"/>
   <path d="m131.44 44.787c0.3596 0.11064 0.53987-0.10126 0.53987-0.10126 0.0523-0.06084 0.0828-0.13908 0.0907-0.23259 0.033-0.39065-0.14933-1.1355 0.20203-1.5552 0.37606-0.44912 1.1668-0.93829 1.6758-1.183 0.50288-0.24174 0.59284-0.30008 0.62787-0.32483l-0.18462-0.03205c0.10865 0.15482 0.14873 0.23071 0.18763 0.2977 0.10283 0.17708 0.21768 0.40063 0.27803 0.60347 0.12629 0.42444 0.37172 1.7038 0.19908 2.0656-0.17219 0.36081-0.9734 0.62058-1.3319 1.3426-0.0303 0.05386-0.0388 0.1027-0.0424 0.12388-0.0124 0.0744-7e-3 0.17952 0.0808 0.26637 0.042 0.04146 0.0965 0.07128 0.16168 0.09074 0.0786 0.02348 0.18018 0.03331 0.30349 0.02758 0.5779-0.02686 0.95984-0.06257 1.2522 0.26382 0.34261 0.38245 1.1912 1.403 1.5832 1.5693 0.18502 0.07856 0.45368 0.27587 0.61859 0.56322 0.12955 0.22607 0.17952 0.48757 0.13973 0.7237-0.0545 0.31782-0.081 0.56947-0.0931 0.7709-5e-3 0.15089-6e-3 0.24073-5e-3 0.26495 6.3e-4 0.0034 5.5e-4 0.0029 5.5e-4 0.0029s-1.8e-4 4.56e-4 1e-3 -0.0028c5e-3 -0.02362 0.0243-0.10947 0.0702-0.25349 0.0725-0.2487 0.11339-0.37353 0.22551-0.73472 0.0846-0.28278 0.0557-0.61541-0.10963-0.90318-0.19179-0.33419-0.51278-0.57661-0.74467-0.67506-0.33043-0.1403-1.1442-1.1169-1.4895-1.5024-0.39552-0.44151-0.89488-0.37792-1.4616-0.35158-0.2482 0.01154-0.27268-0.05116-0.27268-0.05116s-9e-3 -0.02671 0.0151-0.06942c0.33126-0.66686 1.114-0.88536 1.3369-1.3523 0.22238-0.466-0.0527-1.813-0.18426-2.255 0 0-0.0798-0.37517-0.50268-0.97771a5.4124 5.4124 0 0 0-0.0822-0.11402 1.0922 1.0922 0 0 1-0.10237 0.08196c-0.02 0.0141-0.0883 0.06135-0.58985 0.30247-0.52301 0.25142-1.36 0.76896-1.7641 1.2516-0.42882 0.51212-0.23657 1.3916-0.26281 1.7028 0 0-3e-3 0.19112-0.28912 0.10322z" stop-color="#000000"/>
   <path d="m133.02 43.8c0.0103-0.13582-0.0282-0.24169 0.0132-0.29239 0.0491-0.07313 0.11431-0.16212 0.15094-0.21311 0.073-0.07265 0.0971-0.13286 0.0971-0.13286s-0.0657 8e-3 -0.15116 0.06853c-0.0638 0.03104-0.15115 0.0771-0.23721 0.13997-0.12966 0.12342-0.15727 0.30442-0.13731 0.43864 6e-3 0.17073 0.0366 0.35776 0.068 0.48814 0.0441 0.1831 0.0802 0.59249 0.0566 0.76669-5.2e-4 0.0038-1e-3 0.0074-2e-3 0.01081-4.9e-4 3e-3 -9.9e-4 0.0059-1e-3 0.0085-4.5e-4 0.0024-9e-4 0.0045-1e-3 0.0065-3.9e-4 0.0018-7.8e-4 0.0034-1e-3 0.0049-3.4e-4 0.0013-6.5e-4 0.0025-9.4e-4 0.0035-2.6e-4 9.29e-4 -4.9e-4 0.0017-7e-4 0.0024-1.9e-4 6.02e-4 -3.5e-4 0.0011-4.8e-4 0.0015 0 0 0.0208-0.02521 0.0208-0.02523 0 0 8e-3 -5e-3 -0.0242-6.96e-4 -0.18533 0.02246-0.4687 0.15458-0.4687 0.15458s0.24338 0.1441 0.5035 0.10771c0.0488-0.0065 0.1104-0.01773 0.15949-0.05891 0.1506-0.1264 0.0783-0.79153 0.0175-1.0442-0.0282-0.11733-0.0557-0.28342-0.0608-0.43501z" stop-color="#000000"/>
   <path d="m128.52 49.978c0.0141-0.11704 0.0167-0.21932 0.0684-0.26906 0.1535-0.17309 0.2538-0.37044 0.32028-0.51293 0.0414-0.08897 0.0726-0.16586 0.094-0.22148 0.0296-0.06623 0.0386-0.1051 0.0386-0.1051s-0.0282 0.02797-0.0723 0.08495c-0.0385 0.04461-0.0927 0.10715-0.15638 0.17877-0.0998 0.11275-0.24557 0.28158-0.39209 0.40632-0.1232 0.12346-0.16557 0.2859-0.16479 0.42483-0.0196 0.37732 0.12289 1.2503 0.21516 1.4334 0.0849 0.16844 0.36932 0.31513 0.61458 0.44284 0.19485 0.10938 0.38627 0.14122 0.48387 0.24325 0.2156 0.20857 0.23234 0.47242 0.23234 0.47242s0.12015-0.25563-0.0828-0.58818c-0.12933-0.19288-0.3347-0.27871-0.51119-0.36217-0.24385-0.12698-0.46358-0.25398-0.5005-0.32723-0.0719-0.1427-0.2047-0.96333-0.18721-1.3007z" stop-color="#000000"/>
   <path d="m132.37 50.468c-2e-3 -0.08424-9e-3 -0.16818-0.0208-0.24946-0.0279-0.20757-0.14631-0.35154-0.24967-0.42943-0.10954-0.11184-0.21213-0.10901-0.21213-0.10901s0.0659 0.08775 0.1367 0.17638c0.0547 0.09999 0.0949 0.23326 0.0847 0.3742-3e-3 0.07897-5e-3 0.16139-3e-3 0.24326 5e-3 0.22303 3e-3 0.46603-8e-3 0.64239-6e-3 0.07993-5e-3 0.14557-0.0171 0.20001-3e-3 0.08701-0.14663 0.20865-0.2296 0.31286-0.1415 0.16882-0.21576 0.25761-0.2394 0.28662-7.5e-4 0.0015-6.4e-4 0.0013-6.4e-4 0.0013s-2.2e-4 4.9e-5 1e-3 -2.63e-4c0.0194-0.0083 0.15661-0.06639 0.33431-0.177 0.10102-0.05591 0.28643-0.14259 0.37318-0.35334 0.0304-0.09139 0.0382-0.17801 0.0419-0.253 0.0121-0.18673 0.0138-0.43818 9e-3 -0.66549z" stop-color="#000000"/>
   <path d="m132.32 51.348-0.23047 0.13086s0.24327 0.43511 0.49414 0.9043c0.12544 0.2346 0.25286 0.47757 0.35157 0.67774 0.0987 0.20016 0.17076 0.37658 0.17578 0.40039 0.049 0.23244 0.0506 0.99545 0.0254 1.1504-0.025 0.15331-0.1265 0.23475-0.32031 0.39062-0.10715 0.08617-0.21125 0.18497-0.22852 0.33594-9e-3 0.07548 0.0141 0.1585 0.0625 0.22461s0.11829 0.1191 0.20899 0.16992c0.15448 0.08658 0.23811 0.15145 0.27539 0.22656 0.0373 0.07511 0.0471 0.19161-0.01 0.41797l0.25586 0.06445c0.0638-0.25369 0.0677-0.44361-0.01-0.59961-0.0774-0.156-0.21738-0.24713-0.38281-0.33984-0.0693-0.03883-0.10671-0.07339-0.12305-0.0957-0.0163-0.02231-0.0168-0.02652-0.0156-0.03711 2e-3 -0.02118 0.0459-0.0903 0.13281-0.16016 0.19421-0.15619 0.37457-0.30007 0.41602-0.55469 0.0412-0.25299 0.0405-0.92622-0.0273-1.248-0.0242-0.11476-0.0963-0.25812-0.19726-0.46289-0.10098-0.20478-0.22926-0.44951-0.35547-0.68555-0.25242-0.47208-0.49805-0.91016-0.49805-0.91016z" color="#000000" color-rendering="auto" dominant-baseline="auto" image-rendering="auto" shape-rendering="auto" solid-color="#000000" stop-color="#000000" style="font-feature-settings:normal;font-variant-alternates:normal;font-variant-caps:normal;font-variant-east-asian:normal;font-variant-ligatures:normal;font-variant-numeric:normal;font-variant-position:normal;font-variation-settings:normal;inline-size:0;isolation:auto;mix-blend-mode:normal;shape-margin:0;shape-padding:0;text-decoration-color:#000000;text-decoration-line:none;text-decoration-style:solid;text-indent:0;text-orientation:mixed;text-transform:none;white-space:normal"/>
   <path d="m159.61 58.352c0.18968-0.57406 0.13169-1.2815 0.13169-1.2815-0.0151-0.17583-0.0461-0.36035-0.10007-0.54623-0.26834-0.92318-0.80845-1.5841-0.21643-1.9398 0.35489-0.21322 0.75685-0.33649 1.0652-0.51436 0.31134-0.17652 0.50614-0.50671 0.47179-0.84326-0.11371-0.68366-0.23807-1.2155-0.24695-1.2533-4.6e-4 -0.0012-4e-4 -1e-3 -4e-4 -1e-3s2e-5 -1.82e-4 -1.2e-4 0.0011c-3.3e-4 0.03842-4e-3 0.58656 0.0354 1.2742 0.0149 0.2329-0.15892 0.45561-0.39192 0.59308-0.28741 0.1658-0.69627 0.29266-1.0692 0.51675-0.81433 0.48924-0.14595 1.3991 0.0986 2.2405 0.0973 0.33494 0.11257 0.66865 0.0951 0.95172-3e-3 0.04759-0.0287 0.43092-0.12388 0.71913z" stop-color="#000000"/>
   <path d="m157.28 64.697c-0.51252 0.20398-0.78165 0.62397-0.78165 0.62397-0.0688 0.10818-0.12242 0.23212-0.14655 0.37183-0.0415 0.24025-0.0753 0.54658-0.0913 0.83941-0.0397 0.34458-0.10631 0.75516 0.14721 1.0526 0.31287 0.26367 0.13623 0.87746 0.13623 0.87746s0.32988-0.50275 0.0106-0.99971c-0.16791-0.20881-0.0306-0.5149-0.0299-0.9159 0.0156-0.28518 0.048-0.57858 0.0878-0.8088 0.0348-0.2015 0.15733-0.36798 0.30138-0.49881 0 0 0.21585-0.19747 0.46394-0.2962z" stop-color="#000000"/>
   <path d="m161.2 36.516c-0.20193 0.03997-0.15227 0.03148-0.31425 0.07063-0.19185 0.04637-0.45537 0.11533-0.74162 0.2056-0.14319 0.04516-0.29241 0.09576-0.44137 0.15163-0.18609 0.0698-0.37281 0.14821-0.54736 0.23487-0.0971 0.04819-0.19095 0.09921-0.27915 0.15294-0.098 0.0597-0.18985 0.12326-0.27204 0.19073-0.82963 0.68108-0.66934 1.7102-0.45512 2.3687l0.0683-0.16008c-0.11674 0.0563-0.34441 0.04215-0.42441 0.02989-0.18777-0.02876-0.43704-0.11402-0.72937-0.32497a2.5406 2.5406 0 0 1-0.42283-0.38438 10.938 10.938 0 0 0 0.22449 0.5453c0.26317 0.59328 0.3773 0.70811 0.3773 0.70811 0.16822 0.25146 0.60066 1.1474 0.39442 1.6305-0.2443 0.57231-0.3964 1.4027 0.13112 1.958l0.0253-0.20296c-0.0725 0.04581-0.16902 0.07356-0.19156 0.08017-0.59161 0.19295-1.1128-0.32501-1.1128-0.32501s0.31975 0.81227 1.1872 0.57892c0.0556-0.0163 0.15712-0.04637 0.25846-0.11038a0.74903 0.74903 0 0 0 0.13182-0.10581 1.0058 1.0058 0 0 1-0.10655-0.09715c-0.42462-0.44697-0.30492-1.144-0.0796-1.6718 0.2634-0.61704-0.2237-1.5913-0.41786-1.8815-0.0342-0.05109-0.0687-0.10798-0.10274-0.1676 0 0-0.10481-0.16749-0.2526-0.50067l-0.19834 0.16092c0.36828 0.26577 1.0018 0.52224 1.4235 0.31885a0.64974 0.64974 0 0 0 0.10191-0.06122 4.0621 4.0621 0 0 1-0.0336-0.09886c-0.19954-0.61341-0.32881-1.5075 0.3714-2.0823 0.0708-0.05812 0.15208-0.11461 0.24181-0.16927 0.0808-0.0492 0.16767-0.09649 0.25915-0.14191 0.16483-0.08183 0.34265-0.15662 0.52263-0.22412 0.1439-0.05397 0.28851-0.10303 0.42803-0.14703 0.27915-0.08804 0.53652-0.1554 0.7242-0.20076 0.15865-0.03834 0.10589-0.02914 0.30347-0.06826z" stop-color="#000000"/>
   <path d="m169.76 38.927c-0.21648-0.08557-0.44439-0.11868-0.66213-0.10803-0.8615 0.03088-1.0808 0.63863-1.0808 0.63863s0.35755-0.43894 1.0808-0.40887c0.18961 0.01063 0.38177 0.05164 0.5647 0.12427 0 0 0.35843 0.14714 0.53627 0.36032l0.12304-0.21528c-0.21328-0.03507-0.47999 0.02497-0.53226 0.03846-0.3002 0.07746-0.66569 0.26885-0.9451 0.71787-0.57178 0.91884 4e-3 1.4331 0.4091 2.0856 0.40453 0.6516 0.83293 2.0845 0.31192 3.7637-0.52545 1.6935-1.31 3.0034-0.14808 4.5265 0.40797 0.53484 0.86212 0.87424 1.321 1.0878 1.0781 0.49476 2.2302 0.21495 2.2302 0.21495s-1.1664-0.0047-2.1186-0.45482c-0.41995-0.19549-0.84047-0.50792-1.2222-1.0084-1.0638-1.3947-0.34781-2.553 0.19042-4.2877 0.54267-1.749 0.10607-3.2634-0.33984-3.9817-0.44541-0.71736-0.87236-1.062-0.40924-1.8062 0.19042-0.30601 0.42579-0.46781 0.63347-0.55124 0 0 0.32348-0.12538 0.57633-0.0838a0.55894 0.55894 0 0 1 0.30816 0.15996 0.89115 0.89115 0 0 0-0.18512-0.37524c-0.21681-0.2599-0.60245-0.42116-0.642-0.43682z" stop-color="#000000"/>
   <path d="m171.81 51.685c-0.0679 0.16349-0.0588 0.6068 0.33155 1.3269 0.30874 0.56958 1.1687 1.5511 1.9938 2.2247 0.39758 0.3322 0.81969 0.64973 1.333 0.72509 1.3586 0.16349 1.9791-0.98617 1.9791-0.98617s-0.77777 1.0247-1.9439 0.77212c-0.43623-0.08088-0.79418-0.39163-1.2009-0.716-0.8112-0.66224-1.6386-1.611-1.9285-2.1458-0.37362-0.68928-0.34132-1.0475-0.31981-1.0993z" stop-color="#000000"/>
   <path d="m181.96 58.959c-0.23501-0.18242-0.51613-0.16424-0.70191-0.137-0.11988 0.01463-0.22276 0.03899-0.29696 0.05968-0.0396 0.01106-0.0714 0.02118-0.0946 0.02902-0.0276 0.0096-0.0422 0.01532-0.0422 0.01532s0.0152 0.0015 0.0436 0.0049c0.0243 0.0027 0.0558 0.0063 0.0962 0.01118 0.0737 9e-3 0.17746 0.02239 0.29069 0.04162 0.18352 0.03525 0.41971 0.06643 0.53483 0.17765 0.0306 0.02578 0.0499 0.05703 0.0566 0.09087 7e-3 0.03483 0.013 0.06883 0.0182 0.10213 0.0947 0.57397-0.29986 1.0224-0.29986 1.0224s0.68096-0.25584 0.5613-1.063c-6e-3 -0.03733-0.0126-0.07495-0.02-0.11274-0.0204-0.10312-0.0734-0.18107-0.14574-0.242z" stop-color="#000000"/>
   <path d="m181.61 63.114c-0.55558 0.46676-0.92734 1.3322-0.95207 1.3928-0.0285 0.06965-0.0545 0.14016-0.0782 0.21132-0.41195 1.2234-0.23875 2.3237-0.23875 2.3237s0.0914-1.1193 0.48653-2.2383c0.0236-0.06602 0.0488-0.13159 0.0754-0.1967 0.1724-0.422 0.39338-0.74594 0.57117-0.96447 0.0795-0.09775 0.18956-0.2278 0.30617-0.32577z" stop-color="#000000"/>
   <path d="m133.15 57.615c-0.17918-0.05209-0.35308-0.03679-0.4994 0.0081-0.2794 0.0791-0.44787 0.27557-0.51839 0.43941-0.11002 0.18016-0.0594 0.3101-0.0594 0.3101s0.0811-0.12048 0.16898-0.23622c0.11101-0.10345 0.27376-0.17735 0.47149-0.19076 0.11849-0.0066 0.23334-0.0051 0.32604 0.02689 0.10056 0.03115 0.14982 0.09018 0.16556 0.11268l0.0724-0.05035c0.0902-0.0023 0.10167-0.02274 0.10167-0.02274s0.0504 0.0027 0.0608-0.09034l0.0725-0.05035c-0.0522-0.07499-0.16208-0.19457-0.36216-0.25648z" stop-color="#000000"/>
   <path d="m133.57 58.015c0.0331 0.23796-0.0268 0.38804-0.26479 0.42118-0.23796 0.03314-0.56379-0.06321-0.59693-0.30116-0.0331-0.23796 0.13289-0.45773 0.37085-0.49087s0.45773 0.1329 0.49087 0.37085z" stop-color="#000000"/>
   <path d="m151.01 65.747c0.25896 0.09035 0.56216 0.09369 0.89647-0.01202 0.85915-0.27167 0.92614-0.64886 0.92614-0.64886" fill="none" stop-color="#000000" stroke="#000" stroke-width=".26458"/>
   <g fill="#ede13f" stroke="#000" stroke-width=".26458">
    <path d="m148.65 72.357s0.26433 0.29211 1.0532 0.41023c0.78886 0.11812 2.2733-0.2478 2.2733-0.2478l0.81102-2.1082s-0.34999-0.56384-1.4253-0.61108c-1.0753-0.04725-1.0556-0.0093-1.2172 0.18879-0.16167 0.19805-1.0901 1.6908-1.495 2.3681z" stop-color="#000000" style="font-variation-settings:normal"/>
    <path d="m151.21 72.59s0.44929 0.2095 1.1222 0.29063c0.67287 0.08113 2.57 0.06753 3.5399-0.02246 0 0 0.85453-0.63475 1.0197-1.2618 0.10465-0.39724 0.15103-0.74788-0.13275-0.90529-0.28378-0.15742-1.947-0.75484-2.825-0.82706-0.87801-0.07222-0.9125-0.0055-1.1245 0.23394-0.21198 0.23944-1.4303 2.1341-1.5996 2.4921z" stop-color="#000000" style="font-variation-settings:normal"/>
    <path d="m175.1 71.774s0.10125 0.30365 1.4118 0.44404c1.3105 0.1404 3.2566-0.0328 3.424-0.15857 0.16742-0.12577 1.0225-0.80736 0.9278-1.4783-0.0947-0.67098-0.21504-0.69641-1.1714-0.9484-0.95634-0.25199-2.5761-0.52298-2.8698-0.33029-0.29371 0.19269-1.22 1.9201-1.7223 2.4716z" stop-color="#000000" style="font-variation-settings:normal"/>
    <path d="m167.02 71.716s0.4606 0.47755 1.3769 0.52456c0.91633 0.047 3.0937 0.0067 3.4032-0.23257 0.30951-0.23925 0.9099-0.72398 0.9693-1.105 0.0594-0.38098 0.13406-0.60473-0.0418-0.8838-0.17584-0.27907-3.5586-1.0174-4.0596-0.55823-0.70619 0.63696-1.0278 1.5803-1.6481 2.255z" stop-color="#000000" style="font-variation-settings:normal"/>
   </g>
   <path d="m174.83 62.635c-0.26849 0.39588-0.63267 0.67543-0.98222 1.0841-1.1483 1.3582-0.8564 3.1295-0.8564 3.1295s0.025-0.41073 0.15725-1.01c0.13456-0.60971 0.38066-1.3478 0.9002-1.9475 0.33921-0.39654 0.71692-0.68995 1.0002-1.1075z" stop-color="#000000"/>
   <path d="m130.39 49.56c0.25049-0.25286 0.21738-0.59132 0.21738-0.59132s-0.21801 0.22236-0.403 0.40613l-8.4e-4 -8.42e-4c-0.0306 0.03071-0.0621 0.05709-0.0946 0.07849l0.14544 0.22103c0.05-0.03291 0.0957-0.07176 0.13648-0.11265z" stop-color="#000000"/>
   <path transform="matrix(.26458 0 0 .26458 115.68 -4.7106)" d="m54.922 210.81c0.14548 1.3011 0.39844 2.5098 0.39844 2.5098s0.49796-1.1256 0.54688-2.5098z" stop-color="#000000"/>
   <path transform="matrix(.26458 0 0 .26458 115.68 -4.7106)" d="m55.035 204.53c-1.7759 0.0877-3.0625 1.2551-3.0625 3.0332s1.2907 3.2547 3.0625 3.4043c2.1465 0.18124 3.0324-1.4505 3.2188-3.2188 0.21558-2.0466-1.3643-3.3103-3.2188-3.2188zm-0.86719 0.65039c0.54146-0.12038 1.0931 0.25503 1.166 0.99414 0.06312 0.63859-0.09086 1.2618-0.73633 1.2988-0.53314 0.0306-1.0122-0.4351-1.1309-1.0684-0.11868-0.63327 0.18262-1.1093 0.70117-1.2246zm2.6582 2.8398c0.2211 0.3564 0.42844 1.001 0.14648 1.373-0.28176 0.37202-0.52407 0.73459-1.2617 0.82031-0.73765 0.0857-1.6211-0.93164-1.6211-0.93164 0.6508 0.10749 1.2172 0.23274 1.5566 0.16406 0.33929-0.0687 0.6426-0.29287 0.77148-0.49609 0.12862-0.20323 0.31825-0.54024 0.4082-0.92969z" stop-color="#000000"/>
   <path d="m124.48 41.388s-0.18345 0.50271 0.70044 1.2441 2.0176 1.1695 2.5786 1.0738c0.41523-0.07087 0.67861-0.16235 0.90992 0.0052 0 0-0.1789 0.24534-0.33613 0.38392s-0.106 0.59597-0.0534 0.93441 0.62965 0.9777 1.2287 1.008c0.59907 0.03029 1.1558-0.03145 1.5931-0.67554 0.43728-0.64409 0.5558-0.83471 0.3637-1.7095s-0.9758-1.5194-1.518-1.7776-1.2979-0.45558-2.3631-0.2905c-1.0668 0.16532-2.1067 0.46302-2.3431 0.08279-0.23644-0.38023-0.66296-0.67985-0.76064-0.27897z" fill="#ede13f" stop-color="#000000" stroke="#000" stroke-width=".26458" style="font-variation-settings:normal"/>
   <path d="m128.6 43.822c0.0935 0.06001 0.10362 0.07442 0.12603 0.09282 0.0466 0.03915 0.0886 0.0727 0.12099 0.10886 0.12244 0.14305 0.19628 0.25678 0.21953 0.39021 6e-3 0.09552-3e-3 0.18644-9e-3 0.20575-2.1e-4 0.0035-2.1e-4 3e-3 -2.1e-4 3e-3s-4e-4 2.83e-4 3e-3 -0.0014c0.0153-0.01349 0.0908-0.08418 0.10705-0.20241 0.0356-0.15016 0.01-0.35592-0.12062-0.54618-0.0447-0.06554-0.0981-0.11875-0.1522-0.1623-0.0324-0.02662-0.0498-0.04603-0.15104-0.11102z" stop-color="#000000"/>
  </g>
 </g>
</svg>
