
<svg width="1800" height="1200" version="1.1" xmlns="http://www.w3.org/2000/svg" xmlns:xlink="http://www.w3.org/1999/xlink">
<path d="m0 0h1800v1200h-1800" fill="#336fb7"/>
<path d="m627 470c-2-16-23-56-21-78 0-3 1-17 0-19-16-8-17 17-17 34-3-14-3-28-3-42 0-6-2-23-11-15-15 19-5 74 3 107-12-20-13-60-18-71-5-6-10 13-11 16-6 34 8 63 19 92-14-16-18-45-26-37-14 20 22 72 45 95-24-14-24-25-36-31-15 4 12 46 27 54l-14-7c-6-2-8 2-7 9 4 11 16 13 22 19-4 2-3 3-2 8 4 6 12 7 18 8 0 3-2 5 1 8 4 3 10 1 17 1 2.623 5.533 11.61 7.051 17 5 3-2 6-2 9-4l32-58z"/>
<path d="m1159 628c10 4 18 5 22-4 10 1 22 1 16-10 11 0 28 0 28-12-1-2-1-3-2-3-6 0-14 2-19 0 39-4 46-29 31-25-2 0-7 4 0-2 3-3 10-8 13-18 1-8-6-7-11-5 16-15 31-58 15-60l-24 32c27-36 42-101 26-114-6-4-8-1-8 5-2 21-8 38-17 56 8-23 26-106-3-114-5 0-4 0-5 4 0 33 0 59-13 86 5-20 15-41 3-63-3-4-10-10-12-6 0 39-12 78-29 110l-34 87"/>

<g id="a">
<path d="m639.9 487.1c-7-18-8-38-7-56 0-6 2-20 12-16 3 1 4 9 5-1 2-12 8-33 19-35 4-1 2 3 2 6-1 5-2 11-3 16 5-24 10-30 18-39 4-4 12-3 11 4-1.78 9.36-7 17-9 25 0 2-3 10-1 4 3-7 8-16 14-19s12 3 9 7c-11 22-12 49-13 71"/>
<path d="m708 199c-25 0-46 21-46 46s21 46 46 46 46-21 46-46-21-46-46-46z" fill="#fff200"/>
<path d="m750 264c8-19 2-32 4-38 5-17 53-32 71-45 5-3 5 0 4 3-2 4-6 7-10 11 31-16 16 6-11 14 10-2 19-5 28-10 17-4-4 13-8 15 8-2 15-6 22-11 20-1-8 19-26 26 5-1 9-3 12-4 17-6 8 5-11 16 12 5-11 16-21 18 8 0 4 8 0 10-6 3-14 5-21 7 8 0 11 4 7 8s-11 6-18 7c12 1 16 15 5 15-4 0-9-1-13-2 17 17 1 19-13 7 7 6 10 24-2 17-4-2-6-5-9-8 10 23-6 26-13 5 1 10-2 20-10 13-2-2-3-6-4-9-3 14-11 16-15 0-2 13-16 15-17 6 0-5-1-8 0-12-2 5-4 9-9 13-8 6-10 2-9-5-10 18-28 26-22 13-18 19-28 22-12-2-9 22-33 25-23 12 3-3 6-7 9-12-3 3-6 6-10 8-18 4 4-21 6-26-4 13-34 17-23 7 6-5 7-4 17-16-6 14-32 14-22 7 4-3 5 1 25-24 26-37 37-41 63-26 10 6 17 12 26 15"/>
<path d="m666 271c-2-2-5-3-9-5-16-6-28 7-37 18-10 13-19 29-36 38-3 2 0 5 3 3 16-5 33-32 28-21-6 8-14 18-26 27-3 3-1 4 2 4 8-1 16-9 22-18 16-24 23-51 53-46zm84-7c4-4 6-11 6-20 5-34 66-31 79-43 4-3 7-2 4 2-8 11-23 16-38 22-2 1-1 2 1 1 20-6 36-12 48-21 4-3 6 0 4 3-8 11-26 18-45 26-2 1-1 2 1 1 10-2 20-5 29-9 3-2 5 0 2 2-10 10-26 15-43 21-2 1-1 1 1 1 8-2 16-5 24-7 3-1 4 1 2 4-5 6-21 11-39 16-2 1-2 1 0 1 6-1 12-3 18-3 4 0 3 4 0 6-6 3-16 6-29 10-3 1-3 2 0 1 5-2 9 0 13 0 3 1 3 4 0 6-5 4-12 6-20 6-2 0-2 1 0 1 5 0 8 2 12 6 2 3 1 7-4 7-4 0-10-1-15-3-1 0-1 1 0 2 4 2 6 5 8 9 2 5 0 6-5 4-6-2-11-6-15-9-1-1-2-1-1 1 3 5 6 10 8 15 1 4-3 5-7 2s-7-6-11-10c-1-1-2 0-1 1 3 5 6 12 5 17-1 3-5 4-8 0s-5-8-7-13-2 13-2 14c-1 4-4 4-6 1s-4-6-4-10c0-2-2-2-2 0-1 4-1 8-3 10-3 2-6 2-8-1s-2-6-2-8c0-1-1-2-2-1-1 4-3 8-6 11s-8 1-9-3c-2-6 0-10 1-15 0-2 0-2-1-1-3 6-7 12-14 17-4 2-5 1-4-2 1-4 1-7 2-11 0-2 0-2-1 0-3 8-9 15-18 24-3 3-6 3-5-2 2-6 5-12 8-18 0-2 0-2-1 0-7 12-14 24-23 29-5 3-5 1-3-2 6-8 10-18 13-28 0-2 0-2-1 0-8 16-15 27-23 33-4 3-10 1-6-3 13-13 19-29 26-44 1-2 0-2-1 0-10 20-19 35-27 38-5 2-8 0-5-4 10-13 18-26 24-40 7-15 15-27 26-31 22-7 29 10 46 15 2 0 3 0 3-1m58-52c-1-8 0-13 4-16 5-5 11-9 20-13 17-8 32-16 45-24 3-2 4 0 2 2-5 6-13 11-23 17 2 2 22-8 26-10 3-2 5 0 3 2-32 25-64 20-77 42z" fill="#d1d3d4"/>
<path d="m712 290c14 6 25 1 27-14 5 5 10 6 15 4 1-3-2-6-4-9 1-4 0-7-3-10 0-5-2-9-4-12-3-18-14-29-21-30-25-5-47 10-44 38 1 5 3 10 10 17 0 6 4 11 9 15 4 3 2 12 10 14 1-1 1-2 1-3 0 1 1 3 2 4 0-5 4-10 2-14z"/>
<path d="m641 487c-6-15-5-32-6-45-1-22 4-27 9-25 4 4 4 30 4 44 1-15 4-82 22-80-6 27-7 44-6 66 4-24 4-49 14-70 3-6 7-14 13-15 5-1 6 3 4 6-12 27-10 29-14 69 6-23 3-42 18-57 3-3 12-4 9 1-10 22-15 53-12 74" fill="#d1d3d4"/>
<path d="m708 288c1 0 2 1 3 3 0 3-1 6-2 9 0-4 0-9-1-12zm-7-5c6 5 9 15 4 17-3-4-5-12-4-17zm-2-6c2 3 1 5 0 8v3c-1-2-2-3-3-4v-3c1-1 2-4 2-5zm22-32 6-3c1-1-1-2-1-1-5 3-11 5-15 5-5-1-4-5-1-6 5-4 18-3 18-3-3-1-5-1-8-1-1-1-1-2.618-3-2.618 2-3 7-2.382 7-4.382-3 0-4 0-9 3h-5c0-3 6-5 4-6-3 2-5 4-6 6h-4c-1-2 2-4 0-5-1 0-2 2-2 6 0 1-2 1-2 1-2-1-2-2-3-1 0 1 1 1 2 2-1 1-1 2-2 2 0-1-5-3-4-1 1 1 2 1 3 2l-3 3c-4-2-7 1-6 1 2-1 3-1 5 0 0 1 0 5-1 5-2 0-7 2-5 3 1-2 3-2 5-2 0 2-4 12-2 10 2-6 6-10 12-13 2-1 4-1 3 2-3 10-7 12-13 13-2 0-4 2-2 2 1-2 4-1 7-2 0 4-3 8-7 9-1 0-1 1 0 1 2 0 4-2 6-2 0 0 1 0 1 1 1 4 0 8.719-2 12.72-2-2-4-3.719-4-8.719 0 0 1 0 2 1 0 0 1 0 0-1-8-5-12-12-12-21 0-19 12-28 21-30 23-8 33 4 39 21-2-1-3-3-5-3-1 0-1 1 0 1 3 2 4 3 6 6-7 2-11 4-16 0zm23 15c0-6-1-9-4-10-2 1-6 1-9 1 1 2 3 5 5 6 3 1 5 1 8 3zm-8-1c6 0 12 3 11 11-9-4-10-7-11-11zm16 20c-7 0-13-2-13-10 7 1 12 2 13 10z" fill="#884532"/>
<path d="m716.9 234.1c1 0 1 1 2 2-6 0-11 2-12 7 0 1-1 1-2 1-3-1-7 0-11 5-1 1-1 1-1-1 2-12 14-18 24-14z" fill="#bcbec0"/>
<path d="m720.9 246.3c2 2 5 4 8 5 5 5 9 11 9 20 0 17-8 25-26 17-6-3-11-8-15-18-1-3 0-6 0-9 4-3 7-7 9-14 0-1 0-2 1-1 3 2 8 2 14 0z" fill="#fdc581"/>
<path d="m708.9 260.6c1-.4.8-.8-.3-.8-3.1.1-6.1 1.7-9.3 5-.6.7-1.1 1.6-.9 2.8.3 1.5 1 1.6 1.2.2.6-3.2 4.3-5.4 9.3-7.2zm2.5 5.5c.8 0 1-.3.2-.6-1.6-.2-3.2-1-5.1.7-1 .9-1.5 2.2-1.9 3.4-.1.5-.9.7-.8.2.9-4.5 3.3-6 6.7-5.6.7.1 1.1-.4.6-.6-4.9-.7-7.5 1.5-8 6.5.1.3-.1.6-.7 1-.5.3-.3.7.2.7 1.1-.1 2.1-.8 2.8-2.2.3-.8.5-1.6.8-2.3 1.2 1.7 1.9 2 2.7 1.5 1-.7.8-1.7-.2-2.9.9 0 1.8 0 2.6.1zm16.7 14.4c.8-.3 1.2.6.6.7-.1 0-2.1 1.6-2.4 1.9-.4.4-1.5-.1-1.3-.4.9-1 1.9-1.8 3.1-2.2zm.8-2.7c.8-.3.6-.7-.5-.8-3.3-.4-5.7 1.1-7 4.4-.3.9.1 1 .7.6 2.6-2 4.8-3.4 6.8-4.2zm-6.8-4.1c-.1.5.6.7 1.1.4 1.3-.8 1.6-1.6 1-2.6-3-3.3-5.8-6.6-8.2-10-.3-.7.2-1.7 0-2.4-.2-.8-.8-.8-1-.1-.3 2.1-.3 2.6.6 3.9 2.4 3 4.8 6 7 8.9.3.7 0 1.4-.5 2zm4.3-20.9c.6.2 1-.5.5-.9-3.2-1.4-6.1-1.2-8.4.7-1.6 1.9-3.4 3.5-5.4 4.5-.7.4-.3 1.3.2 1 2.6-1.4 4.6-3.1 6.3-4.7 1.9-2.2 4.3-1.6 6.8-.6zm1 4.5c-.8.2-1.7.3-2.5.5.6 1.1.9 2.1-.2 2.8-1.1.5-1.8-.3-2.4-1.3-.6-.5-1.1.4-1.4 2.5-.6.3-1 .1-1.4-.5.7-1.6 1.4-3.3 3.3-4.1 1.5-.6 3.1-.7 4.7-.7.6.3.6.5 0 .8zm-8.6 3.2c1.7-3.7 4-5 6.8-4.8.4-.2.4-.5 0-.7-3.2-.2-5.8 1.3-7.7 4.8-1.2 1.1.9 2.2 1 .8z"/>
<path d="m709.9 309.1c1-2 0-2-1-1-8 11-21 8-26-7-20 2-28-6-26-20 0-1 0-1-1 0-5 15 8 27 26 21 5 17 21 20 28 7zm61-77c15 10 11 25-6 34 11 0 5 16-10 20 1 10-3 17-16 18-2 11-18 13-27 4 0 0 0-1 1 0 8 6 24 4 25-4-1-1-3-1-5-2-1 0-1-1 1-1 18 2 20-7 21-15-1 0-2 1-4 1 9-4 19-9 18-16 0-4-4-5-8-4v-1c17-10 23-24 9-34-1-1 0-1 1 0z"/>
</g>
<path d="m623 462c-8-25-18-44-20-70l1-16c-3-4-6-2-9 2-13 29 8 90 10 94-15-43-23-70-22-111 0-15-7-12-11-1-7 27 0 79 15 118-18-26-23-52-26-80 0-8-4-15-8-2-10 37 6 76 33 120-19-18-30-30-38-54-3-5-5 0-6 5 4 38 28 62 52 92-16-8-29-22-39-33-4-2-6-1-6 3 8 29 23 39 45 56-10-4-19-9-28-14-5-2-7-1-7 4 2 12 24 20 35 22-9 2-13 1-14 4-2 5 21 11 38 8l-21 4c-4 7 14 7 28 2l-10 5c4 8 21-1 28-4l10-46z" fill="#d1d3d4"/>
<use transform="matrix(-1 0 0 1 1800 0)" xlink:href="#a"/>
<path d="m1168 494c8-17 19-34 24-52 5-16 8-34 9-51 0-5-1-14 1-14 29 5-7 102-7 102 29-48 30-80 29-120 2-4 6-3 8 0 16 36 1 91-14 139 17-22 30-73 30-88 0-5 6-3 7 0 9 26-5 80-41 129 16-12 28-32 39-46 4 1 5 4 4 8-10 44-28 52-41 64 18-12 26-17 30-15 2 15-26 29-29 32 9-4 14-6 18-6 4-2 6 3 3 7-9 12-29 14-42 15 8 6 18 3 26 3 3 16-33 11-39 9 27 6 10 19-12 6 16 14 0 16-15 8l-18-47" fill="#d1d3d4"/>

<g fill="#fff200">
<path d="m902 232c42 0 76 34 76 76s-34 76-76 76-76-34-76-76 34-76 76-76z"/>
<path d="m1112 452c37 0 66 30 66 66s-30 66-66 66-66-30-66-66 30-66 66-66z"/>
<path d="m675 448c37 0 66 30 66 66s-30 66-66 66-66-30-66-66 30-66 66-66z"/>
</g>
<path d="m898 259c-18 0-37 17-40 39-2 25 3 43 6 67-5 6-12 11-17 17-25 20-32 35-38.8 63.2-3.8 20.5-7.4 40.9-11 61.5-1.3 10.8-2.6 21.7-3.9 32.6-3.6 3.6-6.3 6.6-8.8 11.9-6.6 10-16.5 17.6-26 24.5-.6-.5-1.3-.9-1.9-1.3-6.9 0-7.5 1.4-11.3 6.1-1.2 1.4-2.4 2.9-3.4 4.3-.8.4-1.5.8-2.1 1.3-4.5 4.5-9.6 6.7-15 8.8-5.7-11.7-14.7-24.8-22.5-33.6.1-1.1.3-2.2.4-3.2 3.6-1 7.5-1.9 8.3-6.2 0-2.4 0-4.8.1-7.1.5-.8 1.2-1.6 1.8-2.2.1-3.1-.5-3.5.9-4.9 0-.6 0-1.1.1-1.6-3-6 1.4-4.2 3.2-7.8 1.1-4.2-3.7-8.1-5.4-10.4-2.4-5.4-1-9 1.9-13 1.1-8.2-1.3-15.2-8.6-17.6-1.7-1.5-3.4-2.2-5.4-2.8-3-.3-5.9-.5-8.8-.8-2.7-1.1-5.4-2-8-2.9-25.5-4.1-44.2 6.2-48.8 31.5-2 18.6 7.1 37 22.5 44.9-.5 2.2-1 4.6-1.4 6.9-3 3.5-4.4 5.8-6.1 10.5-.1 3-.3 6-.4 9.1-8.6 14.4-11 33.3-11.1 47.5-4.4 17.4-2.5 37.6-1.3 53.3-1.1 14-2.3 26.2-1.9 38.9.6.3 1.1.5 1.6.9.4 5.1.9 10.3 1.4 15.5.2 13.9 10.4 24.7 14.7 36.7-10.8-4.9-18-1.5-26.4 1.5-8.3-3.7-15.6-3.8-23.1-.6-1.5 1-3.1 2.1-4.5 3.1-5.1-1.6-8.9 2.7-10.2 6.1-1.2 6.6-2.3 13.4-3.5 20.1-3.3 11.7-7.4 22.2-6.8 33.5 1.2 4.7 4.1 9.4 7.8 11.5 1.3-.2 2.6-.4 3.9-.5 1.5 2 3.7 3.6 7.1 1.9 2.6-3 2.2-8.1 2.6-11.7 3.5-5.8 7.1-24.4 13-26.1 3 8.6 5.5 18.3 7.8 26 9.163 24.29 22.67 33.82 46.8 35.2 17.6 2.4 34.6-5.2 50.4-5.4 10 1 19 3.5 27.6.5 12.17-7.899 18.98-23.54 23.4-35.4 9.2-38.3-6.2-75.4-21.9-110.9-1.7-4.8-3.3-9.4-4.9-14.1 0-4 .4-7.6 1.7-11.1 9.9-3.5 21.6-9.9 24.5-22 .1-2.2.3-4.4.4-6.5 3.9-3.5 7.8-6.8 11.8-10.2 3.2-4.1 7.8-8.1 11.2-11.2 3.6-2.6 7.5-6.4 12.4-6.4.2 1.9.6 3.9 1 5.8 5.1 42 1 84.6 1 127.7.2 7.6.5 15.3.9 22.9.1 9.4-2.2 17.5-2.5 26.1 5.8 10.7 11.4 23.2 17.1 35.6-7.5 3.6-15 9.7-20.2 16-24.2-4.4-45.4 10.1-54.4 30.1-25 15-24.1 40.6 4.2 52 10.3 28 37.6 28.9 64.5 25.8 20.8 31.5 49.3 28.9 78.6 16.9 42.9 35.7 69 2.3 86.3-9 23.4 15.4 46.1 9.6 62.7-13.6 52.9-6 55.7-75.1 1.7-86.1-4-29-38-24.1-56.5-25.1.2-27.4.6-54.7 1-82 2.3-51.4 7.3-107.1 11-153.3 13 .5 27.3 5.9 35.2 15.8.6 5.2 1.4 10.5 2.2 15.8 3.9 16 6.7 25.8 25.2 31.1 4 8-.4 19.4-4 28.5-16.8 29-25.2 49.4-27.5 85.2 0 14-.6 30 5.4 44 17 19 41.5 22.68 64 16 53 17 74-15 84-44 4.8 7.2 6.3 15.7 8.2 23.4v4.1c-.4 1.8-1.4 5.7-.1 8.3 2.2.7 3.7.6 6.7.6 1.6-1.2 1.5-3.7 3-3.5.2.7 1.1 1.7 3.2 1.7 2.3-1.8 4.8-4.5 6.6-6.7 2.5-4.9 3.4-9.8 2.6-14.2-3.9-7.9-2.6-16.7-4.4-24.1-1-6.1.6-12.2-1.8-17.3-3.2-4.3-8.3-3.1-11.7-2.6-9.1-5.3-19.4-7-28.9-4.5-10.36-1.961-19.34-2.249-28.1 1.6 15.57-21.56 25.21-37.97 27.7-63.8-.1-4.9-.1-9.8-.1-14.6-2.1-17.1-4.2-34.2-6.1-51.2-1.1-12.3-1.8-24.2-1.8-35.2-3-16-2-33-23-55 2-3 0-8-2-10 0-5-1-6-4-8 0-.9.9-2.1 1-3 13-5 17-17 19-30 0-10-1-19-7-27-8-8-16-11-26-13-2 0-4-1-6-1-5-3-8 0-12 1h-8c-7 3-10 7-11 14v13c-2 3-4.4 6.6-7 10-2 2-3 3 0 7l1 1c0 3-2 4 1 7 1 1-2 1 1 4-.1.6-1 2-1 2-1 1-1 3-1 5 2 6 7 10 13 12v2c-3 4-7.1 8.9-10.6 13.3-3.9-.9-8-2.9-11.6-4.1-.7.1-1.2.3-1.7.4.2-1.8-1.9-3.1-2.9-4.2-2.3-1.8-4.5-3.6-6.7-5.3-4.5-8.1-12.2-11.3-19.8-11.3-3.6 1.6-5.3 3.7-6.8 5.4-4.6-3.2-9.1-6.5-13.5-9.7-1.7-1.1-7.4-4.7-7.4-5.1v-11.7c-2.3-31.3-11.6-62.4-18.5-91.8-1.8-5.7-3.5-11.2-5.2-16.8-3.9-8.6-8.4-17-13.1-23.6-5.3-5.3-11.5-10.6-16.5-15-5.2-4.8-10.6-11.7-14-15.8-1.5-18.6 8.3-39.7 5.3-61.7-6-33-23-43-46-43zm106.4 304.5c5 4.3 9.5 7.8 15 13 3.1 2.5 7.8 6.2 11.7 9.8 0 5.2.1 10.9 1.3 17.2 1.2 5.5 4.1 10.3 4.1 15.3-1.2.9-2.3 1.9-3.5 3-7.9-2.9-15-7.8-20.8-13.4-2.7-3.4-8.2-5.8-10.6-6.7.8-12.4 1.7-24.4 2.4-36.7.1-.4.2-1.3.4-1.5zm-211.3 10.2c.4 0 .8 0 1.2.1 1.2 11.5 2.3 23.2 3.6 34.8-4.81 4.105-7.578 10.32-9.5 15.6-5.4 4.8-13.4 8.8-21.8 12.5-3.6-2.2-8.6-1-9.4-1.8 3.1-4.8 7.4-10.7 9.3-15.8.9-5 0-9.2.1-13.3 3.5-5.3 7-10.6 10.6-15.9 4.7-6 9.3-12.4 15.9-16.2z"/>
<path d="m917.7 461.7c.1-5.1.3-10.1.4-15-.4-2.7-3.2-14.1-.3-14.1 2.7 2.2 3 10.4 3.2 14.4.1 4.9.3 9.8.4 14.8.1-.7.4-1.3.6-1.8.1-2.6.3-5.1.5-7.5-.5-4.9-.9-9.7-1.3-14.5.3 0 .5 0 .8.1 2.6 5.3 3.4 14.9 3.6 22.1-.3 2.5-.4 4.9-.5 7.4-2.2-.8-5-4.4-7.4-5.9zm-43-5.9c-1-5.6-.3-10.1 0-14.8-.3-4.3-.5-8.4-.6-12.6 2.6-1.3 3.2 2.1 3.9 5 0 6.6-.8 13 .1 20.2-1.3.6-2.5 1.5-3.4 2.2zm12-75.2c0-6.2.9-11.9.9-17.1-.4-2.5-.8-4.8-1-7.1 4 3.4 6 4.9 11.9 5.4-7.4-2.1-11-7.5-14-12.6-1.6-3.9-3.1-7.8-4.5-11.7-.6-2.7-1.2-5.4-1.7-8-.4-3.9-.6-7.8-.9-11.7.6-4 1.3-8 1.9-11.9.9-.6 1.9-1.3 3-1.8 9.2 0 19.4 1.5 30.3 1.5 3-.5 5.9-1.9 9 2.2.5 3.9 1.3 7.4 1.7 12.8-.5 7.4-.9 15.3-3.2 23.6-2.1 4.8-4.7 9.7-8.3 14 2.1 0 4.5-3.1 5.8-4.7.1-.1.4-.1.6-.1 0 8.5.4 16.1-.8 25.2-1.7 5.1-26.6 4.6-30.7 1.8zm-19.3 123c-2.5-6.2-2.9-11.1-2.2-16.4 1.8-2.7 2.1-.4 3.2 2.3 1.7 1.9 3.1 2.5 6.5 2.5 2.9-.9 2.9-5.3 3-7-1.2 2.1-.4 5.1-3.7 6.1-4.1 0-5.1-4.3-5.7-5.8-1-6-2.1-11.9-3-17.9-.1-3.8-.3-7.5-.3-11.1.5-5 1.2-11.3 3.6-14.6.3 5.3-.1 10 .9 16.2.1.1.3.4.5.6-.3-2.6-.4-5.2-.5-7.8.1-6.7.5-12.4 2.3-18.9.3 0 .5.1.8.3v16.1c.1 2.7.4 5.6.6 8.4-.1.1-3.4 3.5-3 4.4 2.5-2.5 6.2-4.7 8.7-7.1-1.3-1.3-.1-15.7-.1-17.7-.4-2.2-.6-4.4-.9-6.5.4-.1.8-.3 1.3-.4 3.2 3.2 2.5 16.3 2.5 21.6.5 4.7 1.8 10.6 3.4 16.8.9.9 1.3.9 1.3 2.7-2.5 3.2-2.3 7.9-3 12.6-.4 1-.8 2.2-1 3.4 2.6-4.3 2.2-8.8 3-13 .5-1 1.2-2.1 1.8-3 .5-.4 1-.6 1.7-.9.9-3.9.6-6.5.8-9.6.4-3.5.5-6.9 2.2-9.2 2.7-.9 2.5-.4 2.9 3.5-.8 7.3-1.6 14.6-2.2 22-1.8 6.6-5.8 11.7-10.6 17.5-3.543 3.501-7.037 5.269-11.5 7.5-1 .8-2.1 1.6-3.1 2.5zm52.3-2c-1.9-1.6-3.8-3.1-5.6-4.7-3.4-4.8-6.7-10-8.8-13.7-2.3-7.3-3.7-13.9-5.2-20.3-.3-4-.5-8-.6-12 2.297-1.009 2.49-.4279 3.7 1.7 0 4 .6 9.8 1.4 14.9 1.3 1.4 2.7 2.9 4.1 4.3.8 3.9-.8 8.5 1 13.6.1.1 1.4 3.2 1.7 3.4-2.7-6.4-1.7-13.1-1.8-17.5-1.8-1.8.6-4.4 1.3-5.7.3-1.2.6-2.3 1-3.5.5-5.7 1-11.4 1.6-17-.1-2.2-1.3-13.9 1.7-12.4.1.1.3.4.4.6.5 8.2 1.3 17.9.9 27.6h-2.7c0 .3 0 .5.1.8 1.3.5 2.7 1 4.1 1.6 1.7 1.4 3.4 2.9 5.2 4.4.8 1.2 1.7 2.5 2.6 3.8-.9-4.7-.1-6.9.4-11v-11.1h.4c3.1 4.1 3 12.3 3.1 18.8-2.2 8.4.9 19.8-5.1 25-2.3.7-3.4-.7-4.8-1.9 0 0-.1.3-.1.5.9 1.9 3 3.4 6.2 2.3 1.8-1.2 2.2-4 2.9-5 1.6.5 0 14.1-.6 16.8-2.5.4-6.3-3-8.5-4.3z" fill="#fdc581"/>

<g fill="#d1d3d4">
<path d="m1028 554.8c.3-.6.5-1.2.8-1.7 1 0 1.2.9 1.6 2.9-1 .1-1.7-.7-2.4-1.2zm46.6 62.8c5-12.6 5.9-22.3 10.9-30.5 13.8-4.2 24.4-10.7 35.4-18.1-.9-3.9-3.8-7.6-5.2-11.3 2.9 3.5 12 9.5 13.3 13.3-22.6 12-36.4 26-54.4 46.6zm-20 2.5c-4.3-3.4-10.8-3-15.5-2.6-2.7-4.8-3-9.8-3.8-13.9-.4-2.7-.8-5.4-1-8.2 0-13.3 1.7-31.6-4-43 .8-3.8 4.5-2.8 7-1.7 35.8 12.6 2.3 56.3 9.4 59.8 2.7-8.1 14-39.5 7.1-47.6.6-1.1 2.8 1.7 3.6 2.4 2.3 3.9 6.6 11 12 14.1.4-4-5.2-5.6-5.7-9.3 2.9.9 6.5 2.9 10.4 4.8-6 14.2-12 28.3-15.8 42.2-5.2-2.3-5.2-16.3-5.8-20.7-.9 8.2.6 17.9 2.1 23.9zm9.9 75c-10-2.8-20.9-11.2-22.8-21-3.3-7.3-3.7-15.5-4.4-22.8.5 0 1.6.1 2.5 1 0 6.5.4 18.9 4.5 22.5-3.6-13.9.1-29.8-.7-42.4-.9-4.3-1.7-8.5-2.5-12.7 10.9-3 18.5 9 21.2 17.4 4.5 16.6-12.8 34.8-7.3 44.2.5.1 1 .4 1.7.6-3.1-12.3 5.7-24.7 8.4-36.2 1.1-5.4-1.2-11-1.3-16 1.8.4 3.6.8 5.6 1.2 4.1.3 8.4.5 12.7.8 13.6 3.8 24 6.2 29.3 18.4.5-10.8-14.6-16.1-21.5-18.5 24.7-9.6 52.8-27 41.2-35.7-4-2.4-9.9 1.3-14.3 5.3 2.8-1.2 9.7-8.5 14.5-3.5 2.3 2.6-.9 6-2.1 8.7-11.8 12.9-25.9 17.4-40.8 22 8.1-12.8 20.7-25.3 29.7-34.9-13.6 11.4-24.7 23.7-35.5 36-2.4-.8-9.7.7-10.5-1.4 12.9-24.6 35.8-43.4 57.1-55.8.5 0 1.2-.4 2.7.8 4.9 4.9 10 10.4 14.4 17.7 5.2 10 7.1 18.9 7.5 29.3-3.2 46.9-44.2 79.9-89.3 75zm6.3 8.9c-2.2-1.6-6.5-5.3-6.5-6.5 24.2 1.4 38.9-1.8 56.1-14.1 20.6-17.7 30.2-31.4 33.6-58.8 4.6 24.4-.4 31.4 4.6 58.4-4.9-4.3-9.8-9.3-15.7-7.4.6.1 5.4.5 5.8 3.5-11.1 9.6-25.1 17.2-37.7 22.9l1 1c14.6-4.8 27.6-14 38.4-22.3 2.8.3 5.5 4.9 6.5 6.7-1.7-.3-3.4-.4-5-.5-23.4 19.2-59.9 25.7-81.1 17.1zm30.7 164.2c6.2-.6 1.1-3.1-2.8-2.5-8.8 4.3-16.8 4.8-25.6 5.1-13.8-2.9-26.8-6-34.3-17.4-6.5-15.3-5.7-31.4-4.3-46.5 2.3-23.7 7.5-45.6 16.5-65.6.7 12.4-3.8 26-2.2 37.9 2.9-21 5.6-40.5 13.8-57.6 1.5 1.1 4.4 11 4.7 7.8 0-5.3-5.2-21.8-1.5-25.2 1.4 7.9 4.4 17.9 10.4 22.2-3.3-7.1-5.9-13.4-7.4-20.4 13.5 5.6 29.6 4.3 42.4 2.6-16.6 18.4-30.3 35-41.3 52.6-15.1 28.6-21.4 60.9-5.9 89.1 0-.3 0-.5.1-.6-11.4-26.4-2.6-68.8 10-90.1 13.2-19.3 28.4-36.3 42.5-52.5 13.4-4.9 24.4-9.7 34.9-16.5 1.8-.1 4.9-.9 7.8 0 1.2 1.8 1.9 5.2 2.7 8.3.6 6 1.4 12 2.2 18.1-5.7-1-14.4-8.2-19.8-5.8 5.1 1.1 11.2 2.9 13.7 6.3v6.3c-1.9 13.3-6.2 26.8-11.8 39.9h.4c7.6-12.5 12.4-27.4 14.9-40.4 1.8 0 1 13.3 1 15.5-6.1 28.2-18.4 42.4-35.6 60.7-8.9 9.9-20.1 24.8-19.2 37.5 4-10 17.7-40.5 29.7-40.8-8.9 9.9-20.3 24.6-17 37.6 2.2-11 11.7-33.2 20.3-39.5 7.3-1.6 15.1-2.5 21.6-.1-4.7 5-9.9 10.7-13.5 15.7-13.3 27-29.4 47-59.7 35.9 5.5 2.9 10.4 5 15.9 5.6 15.5-1.3 21.5-6.1 30.9-15 6.1-7.2 11.7-15.8 16.1-22.5-7.9 19.1-15.6 43-38 45.9 26.5 3.9 37.8-34.6 43.9-53.3 4.3-9.8 7.2-13.7 18.9-13.7 4.7.7 8.6 3 12.2 5.2-3.9 4.5-5.7 11.7-7.1 17-2.7 14.6-7.9 32.5-19 43.6-13 10.4-47 18.4-61.5 9.6zm-34.9-239.9c-1.4-.4-2.9-.8-4.3-1.2-1.6-2.3-2.3-3.6-2.3-4.9 6.5-20.6 13.9-43.3 25.8-59.3 1.2 3-.3 10.9-1 14.5-5.6 17.6-12.4 33.3-16.9 49.9-.2.5-1.2 1-1.3 1zm-27-2.2c-2.5-1.2-4.4-2.3-5.4-3.4.8-.8 1.9-2.2 3.7-1.7.9 1.6 1.6 4.2 1.7 5.1z"/>
<path d="m707.7 590.3c-1.8-7.8-3.6-15.4-5.4-23 .3-.1.5-.3.8-.3 16.1 19.5 24.1 47.8 30.6 69.2-16.1-5.6-22-34.2-26-45.9zm36 48.6c-2.1-8-4.4-17.3-6.9-23.8-2.3-4.8-7.4-13.2-8.4-17.6.6-.4 8.4-6.6 9.7-6-1.4 4.3-3.4 8.8-2.7 14.4 1.8-5.1 3.8-10.2 5.7-14.3-.5 10.1 5.4 34.7 11.8 37.2-6.9-12.3-9-26.3-8.2-39.9 1.7-4.9 4.3-12.3 8.8-11.7.1 1.6.3 3.2.4 4.9 2.3 9.7 8.3 21 9.3 32.2-.9 8.2-5.3 15.7-9.3 21.8-3.6.8-7.3 1.8-10.2 2.8zm-72.3 82.7c-1.9-1.3-3.9-2.5-5.8-3.6-8.2-4.1-17.5-10.2-24.9-7.7 5.9-.2 9.4 2.1 14 5-5.3.6-12.7 4.7-17.6 5.2-1.4-2.2 0-8.5.1-10.4 5.9-18-3.2-41.4 1.2-57 1.4 25.5 15.9 50.4 32.9 65.9 2.3 1.4 4.3 3.1 4.6 4.3-1 0-3.3-1.2-4.5-1.7zm3.3-1.9c-5.4-4.8-9.1-9.3-12.8-14-20.6-23.9-37.2-94.7-.9-128.7-.8-.5-2.2 0-3 .3 4.764-5.97 9.627-12.11 14.5-16.3-.1 1.4-.3 3-.3 4.5-.5.4-.9.9-1.3 1.4.8.3 1.7.5 2.6.8 9.3 6.2 19.6 14.6 30 22.3 5 12.7 10.3 25 16.2 36.2-1.3-.6-2.5-1.2-3.6-1.7-13.83-19.94-35.3-55.1-54.1-48.5 13.8-2.6 39.4 26 51.5 46.1-16.5-12.5-40.5-31.1-57.5-28.1 32 7.1 53.7 30.1 77.8 46.2.6.6.9.9 1.3 2.3-1.3.1-2.6.4-3.9.6-1-1-.6-2.3-.6-2.7-19.6-11.4-46.1-35.2-66-30.3 24.1 3.1 44.6 19.6 62.1 33.5-.1.3-.1.5-.1.8-12.8 1.5-31.1 11-35.7 21 10.4-9.7 30-18.7 43.9-19.7-3.2 13.6-1.2 27-4.3 39.8-.4 1-2.3 3.4-1 5.3 11.4-10 5-31.3 6.3-43.4.4-1 .8-2.1 1.3-3 7.4-2.6 21.5-7.5 27.5-6-5.1 12.9-9 26.7-4 38.5 1.6-.5 3.1-2.6 4.4-3.6 0 4.9-6.2 13.5-9.8 17.3-27.9 16.4-54.6 4.8-76.3-10.4-14.9-10.6-31.9-48.6-27.6-67.1 1.3-4 2.7-6.1 5.4-8.8-22.4 15.4 2.1 66.9 20.3 79.2s44.7 21.2 61 16.9c-37.8 31.1-77.1-12.6-90.9-43.6 9.7 35.8 44.8 66.3 77.6 55 5.2-2.6 9.3-6.1 13.7-10 .4-.6 1.2-2.3 2.2-1.8 0 1.9-.8 4.5-2.2 7.4-8.8 8.6-16.3 18-27.8 21-12.4 2.5-26.5-2.7-35.9-8.7zm-31.4 149.6c-17.2-10.4-24.2-36.9-27.3-54.5.5-10.8.6-21-4.5-30.4 1.4 7.3 2.2 15.2 1.9 21.5-2.2-9.1-3.6-19.9-10-25.9 3-3 11.8-1.6 16.6-1 1.6.8 3.1 1.6 4.7 2.5 1.3 1.9 2.9 3.4 4.9 6.7 1.8 3.7 3.6 7.5 5.4 11.3 1.7 5 3.4 10.1 5.2 15.2 3.8 11.2 5.2 22.1 9.2 31.7-8.4-3.4-11.8-11.7-18.6-13.6 5.6 7.6 11 13.7 20.6 19.4 24.4 12.8 50.2 12.1 75.5 8.8 4.8 0 7.6.4 13.2 2.2 3.4-.1 14-8.1 13.3-10.3-2.7 2.7-9.7 8.3-13.2 7.6-9.1-3.9-16.6-1.7-25.1-.6-22.2 1.6-43.2-.4-61.8-11-8-22.2-12-44.5-22.2-62.1-.8-.5-.8-1.2-.8-1.8 4 2.6 7.6 9.7 10.6 15.2 2.2 5.7 4.5 11.4 6.9 17.1 1.8 6.2 3.6 12.4 5.6 18.8 1.6 4.9 3.7 12.4 10 15.5-3-6.2-5.2-12.8-6.9-18.3 15.5 13.7 45.5 25.7 64 19.2-21.3 2.6-46.5-7.5-61.3-19.2-2.5-2.6-4.3-5.3-5.3-7-3.2-9.2-6.5-18.4-9.7-27.5-.6-1.2-1.3-2.3-1.8-3.5-3.9-6.2-9.1-11.9-13.6-15.5v-.8c8-2.7 17.6-1.2 23.3 3.1 10.8 12.6 17.2 28 33.8 36.3h.6c-7.7-6.4-24.9-22-25.3-31.7h.4c11.5 11.6 25 16.9 38.5 22.5 7.2 3.7 10.4 6.5 13.7 15.7.6-11-6.5-15.5-14-19.2-13.6-4.6-25.2-12-35.1-21-6.2-7.4-10.6-14.4-15.3-21.4-3.6-6-5.7-11-7.6-16.2-.6-2.3-1.2-4.5-1.7-6.7-.6-4.8-2.6-13.2-.9-16.6.9-.3 1.8-.5 2.7-.6 2.6 24.7 12.7 45.4 37.5 60.1-18.1-14.8-37.6-39.4-33.8-62.2 3.9-2.1 8.9-2.8 12.5-2.8 13.1 7.5 32.6 14.8 42 14.5s13.2-1.8 18.9-3.5c20 38.7 44 78.7 23 118.3-.1.4-.3.8-.3 1.3 34.2-41.9-11.7-93.9-21.1-120.5 4.7-3.5 9.7-7.1 13-10.4.2 4.6-1.2 9.2-2 13.2 2.1-3.7 4.4-8.3 5.9-11.3.4 13.3 2.1 27.1 7 41.3-.4-7.2-5.8-36.2-2.9-40.5 1.3 2.9 2.3 7.8 3.2 11.9 1.8 13.7 3.7 27.6 5.7 41.4.1-.1.3-.3.4-.3-.7-12.6-1.8-24-2.9-35.6 7.3 21.1 15.4 44.6 18.4 63.7 1 9.2.4 19.3-.7 27.6-3 11.8-8.2 24.9-14.3 33-7.3 5.9-18.6 10.4-27.3 6.4 3.2-1.9 6.7-3.7 10.8-5-28.1 6.5-66.4 12.2-91.6 5.5zm93.3-227.1c-.9-15.2-9.1-28.6-11.4-42 2.7 9.5 16.9 30.8 16.9 39.1-2 .9-4.2 2.1-5.5 2.9z"/>
<path d="m928.2 1015c-14.9-1.1-29.5-8.1-37.4-21.1 4.8 13.1-19.2 12-28.4 13.7-18.6-.1-36-11.8-46.6-26.4-5.4-11.1-1.9-2.5-4.8 1.3-20.2 5.4-44.5-2-55.6-20-2.7-5.3-5.6-24.2-5.2-7.7-3.6 5.7-16.9-9.5-15.7-17.5-3.3-13.2 17.3-26.7 17.2-30.2-4.3-2.1 9-13.9 14.1-17.2 10.4-7.3 23.5-9.5 36-8.1 4.6-6.9 23.9-24 22.4-6.3 2.2 12.8 1 25.4-4.4 37.2-4.9 13.3 8.1 24.3 20.2 26.3 6.7 2.8 15.6-9.7 16.7 3 10.8 9.6 21.8-13.7 32.5-4.3 17 9.3 38.2 13.2 56.1 4.1 9.6-3 17.1-14 26.5-4.1 9.9 4.7 22.8 4.5 26.9-4.5 6.4-1.4 26.7-6.4 11.4-12.2-9.1-5.3-20.1-14.6-28.4-18 3.5-9.9-3.6-29.3 10.5-30.6 15.9-1.9 35.8-.1 44.6 15.3 2.6 7.2.7 11.7 8.5 8.8 18.8 3.4 33.5 21.7 31.6 40.9 1 19.6-14.7 39.3-34.8 40-20.1 22.6-47.26 26.01-64.9 11.9-5.6-5.5-.9 3.2-5.2 6.7-12.3 10.9-27.5 19-43.8 19.1z"/>
</g>
<path d="m1193 857.8c.3-.9.5-1.8.9-2.7.5.1 1.2.3 1.8.4-.5-.4-1-.8-1.4-1.2-1.3-11.6-4-23.5-11.7-31.3.5-6.9 3.1-15.2 5.7-21 1.7 0 3.5 0 5.3.1-1.4-4.4 3.7-4.5 6.9-4.5 4.4 1.7 4.3.9 6 6.2.5 10.8.4 21.6 3.4 33 .8 2.2 1.8 5.4 1.3 9.1-1 0-1.6-.8-2.2-.8.4.9 2.7 4.5 0 5.8-.8-.7-1.6-1.7-2.3-2.2-.3-.4-.5-.8-.6-1.2.4 1.2.8 2.3 1.3 3.5.6.8 2.6 3.2-.3 4.7-2.9-2.9-3.1-4.9-4.4-7 .1 2.2.9 4.9 3.2 8.2 0 1.1 0 2.1-1 2.2-3.5 0-5.3-8.2-6.2-9.5-.1-.1-.3-.1-.4-.1.5 2.6 2.9 9.5-1.2 11.8-3.1.9-4.5-.8-4.1-3.5z" fill="#fdc581"/>
<path d="m1197 857.5c-.1-.6-.3-1.3-.3-1.9.4.4.4 1.2.3 1.9z"/>
<path d="m593.1 852.3c-2.1-1-3.1-2.5-3.1-3.5 1.6-3.1 1.9-6 1.2-8.2-.6 2.3-2.2 5.8-4 8-.8-.1-1.6-.3-2.3-.3 0-2.5.9-3.2 1.8-4.9.1-.9.3-1.8.5-2.6h-.4c-.9 1.6-1.8 3.2-2.7 4.9h-1.3c-.3-.4-.5-.6-.6-.9 0-3.5 4.7-6.2 3-9.7-.6 2.2-1.7 4.1-3.1 6.9-.4 0-.6 0-.9.1-1.4-2.2-1.2-2.2-1.2-4 .6-.8 1.4-1.6 2.2-2.3.4-1.2.8-2.1.8-3.2-.8 1.2-1.4 2.5-2.1 3.7h-.6c-1.7-4.4 1-12.3 1.9-15.7.8-1.9 1.7-3.7 2.6-5.6 2.5-9.1 4.9-19 6-27.7.9-3.1.6-4 3.4-4.8 3.5 0 7 .8 10.9 3.6 1.6 3.6 3 10.5 3.9 15.7.9 3.5 1.9 7.1 3 10.7-2.2 2.5-4.3 5-6.3 7.6-2.3 4.9-4.7 9.8-6.9 14.8-.8 1.9-1.4 3.9-2.1 6-.1.9-.1 1.9-.1 3-.7.5-1.3 1-1.9 1.6.4 0 .8 0 1.3.1 0 .9.4 4.7-.5 6.1-.7.2-1.4.3-2 .5z" fill="#fdc581"/>

<g fill="#fdc581">
<path d="m761.6 669.5c2.1-10.7-.2-24.6 6.3-30.7 5.4-3.1 10.9-6.1 16.3-9.1 2.7-2.2 5.4-4.4 8.2-6.5 1.2-3.5 2.3-6.9 3.5-10.2.4-.7.8-1 1.1-1.4 4.5-2.9 11-6.3 14.9-10.2.6 0 1.3.1 1.9.3 1.7 3.4-8.9 8.3-10 10-1.6 1.3-4.1 3.5-3.4 5.4 2.6 1.3 9.1-.8 12.2-2.2 5.3-3 10.6-6 16-8.9.4 0 .8 0 1.3.1 0 2.1-4.1 4-5 5.8-1.6 1-2.8 2.1-3.6 3.3-2.2 1.4-4.4 3-6.5 4.5v.5l5.4-2.7c3.9-2.9 8.6-6.7 12.2-10.1.4 0 .9.1 1.4.3v2.2c-5.2 5.6-11.3 10.6-17.1 15 1.1-.1 1.8-.6 2.3-1 3.6-2.3 9.5-6.6 13-9.7.8-1.3 1-1.2 1.9-1.3-.4 1.6-.8 2.9-1.5 4.2-4 3.7-9.8 10-14.6 12.6 0 .1 0 .3.1.4 3.2-1.8 8.2-6.3 11.9-8.2-1.3 5.2-8.8 11.5-13.2 14.6-6.2 3.4-13.8 3.6-19.7 6.5-11.4 7.5-23 17.2-32.5 24.7-.8.8-1.8 1.4-2.8 1.8z"/>
<path d="m1040 649.4c-8.5-7-17.4-13.5-27.4-16.9-7.6-.6-15.7-1.4-21.9-2.7-3-1.3-13.9-5.6-13.9-8.3 1.9 0 3.5 2.2 6.6 2.2-3.4-2.5-8.4-4-10.5-7.5 4.3 1.5 8.8 4.2 12.5 4.3-6.2-2.7-11.5-5.4-16.3-8-1.4-1-1.6-1.7-1.6-2.3 1.3-.9.9-1 3.5-.6 4 1.7 8 3.4 12 5.2 2.5.5 4.9 1.2 7.4 1.8.5-.9-3.7-1.8-4.9-2.2-6.1-3.4-10.5-6.9-15.8-10 0-2.6.4-1.4 2.6-1.7 6 2.3 10.3 5.3 15.7 7.8 1.9.4 9.8 1.7 13 .1 0-2.5-2.3-3.2-3.1-3.9-4.7-2.6-10.6-3.3-14.6-6.5-.1-.8-.1-1.4-.1-2.1 1.2-1.2 3.2.3 5.4 1.3 6.5 2.2 13.1 3.7 20.1 8.4 7.6 8.7 20.7 16.3 32.8 21 1.2 6 .6 13.3-.4 20.3-.4 0-.8.1-1 .3z"/>
<path d="m764.1 603.1c-1.6-7.6-8.6-15.5-8.4-22.2 10.5-10.7 23.7-16.5 30.5-28.3 1.7-3.6 3.1-7.6 6.2-10.3 2.1-1.2.8 2.9 1.2 4.1.3 8.3.5 16.5.9 24.8-1.9 1.1-4.3 1.5-5.8 3.1-9.2 5.9-16.7 23.1-24.6 28.8z"/>
<path d="m703.1 586.9c-8.5-8.4-20.7-13-28.5-21.6-.1-.3-.3-.5-.3-.8.5-4.9 2.9-19.4.4-21.9 0-1.6.5-1.2.8-2.1-3.7-.6-4-4-4-5.7 1.7-3.2 3.4-6.5 5-9.7 0-1.3 0-2.5.1-3.6 2.1-1.2 3.7-3.4 5-5.3 0-5.8.1-4.4 4.7-8.7.9-1.3 1.8-2.6 2.7-3.7 4.5-1 5.8-1.9 8.4-6h5.6c1.2 1.7 2.7 3.4 4.5 6.6.4 1 .8 2.2 1.3 3.4 0 3.4-.8 5.8.6 9.6 1.8 2.7 4 5.2 5.8 8.8v2.2c-1.4.8-2.9 1.7-4.3 2.6.3 2.1.5 4.3.8 6.5-1 1.7-4 1.7-5.4 1.9 0 .4 0 .8.1 1.3.3-.3.5-.5.9-.6.9 0 4-1.3 4 1.9-.9.6-1.7 1.3-2.5 1.9 0 3.1.4 6-.8 9.7-.5.5-1 1.2-1.6 1.8-2.9.9-5.7 1.3-7.6 1.3-2.3-.5-4.7-.9-6.9-1.3 2.3.6 4.7 1.4 7 2.2 2.1 10.1 1.1 20.4 4.2 29.3z"/>
<path d="m1090 557c2.3-.5 4.7-1 7-1.4v-.4h-5.6c-6.6-.8-14.4-5-15.5-10.1 0-2.3.1-2.6.9-3.9 2.6-2.1-.9-4.4-.9-5 1.3-1.9 1.8-1.4 4.5-.1.6-.1 1.3-.3 1.9-.3-.1-.4-.3-.6-.3-.9-3 0-4.9-1.7-6.7-2.6-.8-1.3.1-2.3.8-3.2-.1-.8-.3-1.6-.3-2.2-3.9-3.5-3-4.5-.8-7.5 2.9-3.1 5-7 6.9-10.5v-5.7c1-2.2 6.6-9.8 9.3-8.9.3.4.6 1.2 1.9 1.8 0 1.4 6.3 4.5 8.9 5.7.5.5 1.2 4.1 2.7 6.7 1.2 1.2 2.3 2.3 3.6 3.5.5 1.9 1 4 1.7 6.1 1.3 2.1 1 2.3 3.1 4.4.5 1.9 1 4 1.7 6.1 1.6 3.1 1.9 5.6.6 9.6-3 4.1-3.5 6.3-3.9 11.8.1 1.3.3 2.7.4 4.1 1.2 4.1 4.7 9.2 6.3 14.4-10.7 7.5-19.7 12.5-32 16.3 1.8-9.9 3.8-18.6 3.8-27.8z"/>
<path d="m1005 561.3c-2.2-.9-.9-3.6-1.1-5.5.2-5.1.8-10.1 1.3-15.2 8.2 5.1 16.4 12.5 23.9 16.8 1.9.1 3.2 1.7 3.4 3.5 1 7.3-.4 15.1-.8 21.9-4 .5-21.9-18-26.7-21.5z"/>
</g>
<path d="m664 517c-2.1-5.2-1-8.9-.9-13.1.8-2.7 1.7-5.3 2.6-7.9 3.1-6.3 6.9-13.3 14.9-13.3 1.6.3 4.7.4 6.3 3-4 1.7-5.2 3.2-7.2 6.9-4.4 3.2-7.3 6.1-8.5 11.9-1.3 1.7-2.5 3.4-3.6 5.2-.8 2.2-1.8 4.1-1.9 7.6-.338.1028-1.432-.2667-1.7-.3z" fill="#a7a9ac"/>
<path d="m689 515.9c1.2-5.1 6.2-6.3 11-8 .8 0 4.8-.4 4.8 3-.4.1-.6.3-.9.5-.8-4.1-10.1.4-11.5 1.2-1.19 1.06-2.623 2.543-3.4 3.3zm8.6 5.7c.4-.3.9-.5 1.4-.8-1.2-2.3-.6-2.5-.8-3.8h-.6c-.9 1.2-3.6 4.3-4.7 3.2 3.8-2.5 3.2-7.1 9.6-5.6.1.8.3 1.7.4 2.6-.4-.1-.8-.1-1-.1-.1-.3-.3-.4-.3-.5h-.5c-.3 1.3-.5 2.6-.8 4 .5-.1 1-.3 1.6-.3-1.3 1.1-2.3 1.3-3.5 1.7-.0605.0423-.6162-.2923-.8-.4zm-98.6 2.4c-6-8-12-18-6-27-2 9 3.4 18.4 6 27zm-2 3c-1 7 2 12 7 16-7-1-13-13-7-16zm2.3 20.8c-.3 10.2 10 16.9 18.5 19.3-8.8 1.9-23.8-10.1-18.5-19.3zm5.7 20.2c4 16 13 19 28 17-13 8-31-1-28-17zm15 23c3 9 11 11 19 9-9 7-19 0-19-9zm41 25.9c11.12 15.71 27.32 21.25 40.7 25-16.86-.5133-36.26-12.59-40.7-25zm42.3 69.4c1.906-.7004 6.9-.4809 6.9-2.6-13.2-4.7-44.2-28.7-48.8-46.7 15.6 21 30.6 38 52.6 44.5 5.471-1.257 11.67-6.107 15.8-9.5-5.3 7.2-13.7 12.8-21.2 16.6-.7 0-1.3 0-2 .1-1.3-.4-3.2-1.1-3.3-2.4zm5-155.4v-.5c.4-.3.9-1 2.2-.6-.9.9-1.6.9-2.2 1.2z"/>
<path d="m1123 509c-2.7-3.9-5.6-7.8-6.2-11.2-3.2-5.4-7.6-7.8-11.8-9.6-3.8-.4-4-2.1-5.1-3.9v-1.2c3-1.2 7.1-2.5 11.1-.9 1.7 1.4 3.4 2.9 5.2 4.3 4.5 4.5 6.9 11 8.3 18.6l-.5 3.9z" fill="#bcbec0"/>
<path d="m1082 498v-5c2-4 3-5 6-7 2 0 4 0 6-1 0 1 1 2 1 2-2 2-7 3-9 3-2 2-2 5-3 7zm17 0c-3-1-5-5-4-7 5-3 13 0 16 2 2 2 3 4 5 7-5 1-12 1-17-2zm14 5c3 1 5 4 9 8 0 2 1 4 1 6-7-3-17-7-17-14zm13 25-3-3c-5-3-11-6-12-11 1 0 3 1 4 2 7 3 14 5 11 12zm-6 7c-1-3-2-6-3-8 0-1 0-2-1-3 2 0 5 2 8 4 2 3 6 10 2 12-2-1-5-4-6-5zm10 15v-7c-2-1-1-2-1-3 3-3 0-8 0-10 0-1 0-2 1-3-1-4-2-8-4-9 0-2-1-9 0-11 4 2 5 4 7 9l2 1c0-6-6-10-8-14v-3c2 0 6 0 8 4 1 1 1 1 3 1-1-2-3-4-5-5s-4-1-7-2c0-2-1-3-1-3 4 0 7 2 10 2-2-2-4-2-5-3-2 0-4-1-6-1-1-3-5-7-6-8 11 1 19 5 25 14 4 8 6 20 3 31-1 3-2 6-5 10 0-2 0-6-1-6-1 4-1 8-3 12l-3 3c-1 0-2 0-3 1zm-3 0c-5-3-8-7-8-12 2 0 4 2 6 4 1 2 2 4 2 8zm-5 4c-4-3-4-4-5-8v-3c3 3 5 6 9 9 0 1 0 2 1 4-2 0-4-1-5-2zm1 7c-3-2-5-4-7-6-1-4-2-6-2-8s1-3 2-4c0 6 0 8 5 13 4 2 10 3 10 7-1.659.2967-7 0-8-2zm12 11c-4-3-6-5-9-8 3-1 7 2 8 4 0 1 3 4 1 4z" fill="#884532"/>
<path d="m698 495c-3-1-5-2-7-3-2 0-3 0-4-1h-4c2-3 3-4 7-5h7c2 0 8 2 7 7-1 2-3 2-5 2zm-24 8c0-2 5-7 7-8 1 0 1-1 2-1 4 0 8 2 13 4-1 1-2 2-2 3l-4 1c-6 0-12 0-15 2zm36 2c-2-3-3-5-4-8 0-2 0-4 1-6 2 0 2 1 4 4 1 3 1 7 0 10zm-31 6c-5 1-9 2-12 4 4-11 13-13 20-11-2 3-4 5-8 7zm-17 18c-2-10 10-16 17-16-3 6-7 10-12 13-.7254.7587-2 3-5 3zm-3 14c0-12 3-13 14-17 2 0-1 3-1 4-1 2-2 4-4 6s-4 4-5 6c-2 1-2 3-4 1zm1 11c0-3 1-5 2-8 0-1 2-5 4-4v8c-2 2-4 3-5 5zm-8-1c-3-4-5-8-5-12-2 0-1 4-1 5-2-3-7-11-5-13-1-2 0-5-1-6-1 2-1 4-2 6-3-7-3-15 0-22-2 0-2 2-3 3 0-5 3-10 5-13 8-15 17-18 26-18h5c0 1-1 2-1 2-2 1-11 1-12 4 3 0 6-2 9-1 0 1 0 1-1 1-3 1-12 3-12 6 3 0 6-2 9-2 0 2-1 3-2 5-4 1-11 4-13 7 2 0 11-5 12-4 0 1-1 2-1 3-4 2-9 5-10 9l9-6h1v6c-3 1-5 3-4.5 4s3.5-2 5.5-1c1 1 1 3 2 4-2 2-2 4-3 7 0 3 1 6-2 8-4-2-4-6-3-9-1 0-2 2-2 2 0 4 0 7 6 8-1 2-2 5-1 8-7-2-10-7-9-12h-1c-1 2-1 6 1 9 1 2 3 3 4 5 1 0 2 0 3 1 2 0 3 0 5 1-2 3-2 5 0 9-2 0-5-2-8-4zm8 8-1-1c1-2 3-4 4-6 2-1 4-3 5-6 0-3-2-9 0-10 0 1 1 2 2 3 3 1 3 7 2 11-1 1-2 2-2 3-3 2-9.136 6.864-10 6zm-6 9c2-5 8-9 12-9v2c-2 2-4 3-4 5-3 1-6 2-8 3zm-3 10c1-5 3-10 8-8-3 3-5 6-8 8z" fill="#884532"/>
<path d="m876 315c-2.4-6.1-2.9-4.9.7-6.7 0 2.4-.4 5.2-.7 6.7zm-4.7-4 1.4-.2c1.7 3.1 2.6 4.6 2.3 7-.7-2.2-4.7-4.9-3.7-6.8zm54.6 11c-.3-3.9-.5-7.6-.8-11.4.5 0 3.1.9 4.4 2.7 0 3.1-.4 6.5-3.6 8.7zm6.6-.7c3.1-3 2-7.1 2.5-11 1.6-9.4-.5-18.9-3.9-27.6-3-4-12.1-13.9-16.8-13.6 9 2.1 20.6 19.9 18.3 35.4-4.8-2.4-9-5.9-13.7-8.5-4.5-1-9.8 1.2-14.5 1.2-7.2-.1-14.5-.7-21.4-2.6-3.9 1.5-8.2 6-11.5 6.5 1.5-14.5 8.3-28.2 21.2-33.5-16.4 4.3-26.9 28.8-24.1 42 .6 3.4 4.8 6 2.3 9.4-1.8.6-3.6 4.3-4.8 6.3-1.8-14.7-2-27.6 2.3-40.5 9.2-17.8 20.9-24 39.5-21.4 11 1.8 20.3 8.2 25.8 17 6.6 10.7 7 24.7 5.7 35.9-1 5.6-1.6 11.3-2.8 16.9-3.1-1.7-5.8-9.7-4.1-11.9zm-51.6 36.3c-3.1-5.8-7.8-9.6-10-15.2.3-5.1 2-10 4.8-13.1 1.2 4.9 2.7 9.7 4.8 16.1.5 4.1.5 9.3.4 12.2zm40.1 8.1c-.6-3-1.2-6-1.7-8.9-.1-1.3-.1-2.6-.1-3.9 2.4-7.4 4.2-14.4 6.1-21.3 2.2 3.4 4.2 7.7 6.1 10.9-3.5 13.5-7.5 15.5-10.4 23.2zm-52.4 10.7c-1.3-10.4-2.5-20.7-3.6-31.1-2.1-10.7-3.8-20.3-4.1-30.4 0-12.8 1.4-27.8 8.8-37.2-2.4 5-3.9 10.5-5.2 15.5-1.5 6.8-1.4 13.8-1.4 20.1.5 7.2 1.2 15 2.6 23.4 1.7 5.1 4.3 10.9 7.3 17.1.9 4.9-1.4 13.1-2.7 18.6-.4 1.6-1.1 2.9-1.7 4zm56.3-2.3c-1.7-1.7-1.6-4.5-1.7-5.3 1.6-3.2 4.1-6.3 6.5-8.9 2.3-3.9 4.7-7.8 7-11.7h.5c-1.7 12.3-4.4 24.5-6.5 37.7-2.4-1.2-4.9-8.7-5.8-11.8zm-48.5 21.5c0-11.1 4.3-21.9 5.8-32.2-.3-4.2-.3-8.4.1-11.8.4.9.9 1.8 1.4 2.7.3 2.5.6 5.1 1 7.6-.3 7.3-1.2 15.5-1.9 23.8 0 5.4.1 10.9.3 16.3.4-1.2.8-2.3 1.2-3.4-1 1.6 5.5 15.4 8.9 19.2-5.8-7-13.3-14.6-16.8-22.2zm32.1 36.9c-3.8-3-3-3.9-2.3-7.4 5.2-13.9 9.8-28 12.7-41.6 4.5 3.4 4.5 13 4.8 18.1-1.2 2.9-2.3 5.7-3.4 8.7-2.9 5.3-6.1 10.5-8.9 16.2-1.2 1.6-1.1 5.5-2.9 6zm2.5 3.2c-2.2-2.9 2.8-6.1 3.6-9.1 2.7-4.6 5.2-9.4 6.7-14.5 1.6-4.4 3.1-9 5.7-13 1.5-2.7 3.1-5.3 4.6-8 1.2-7.6 2-15.4 4.3-22.8 1.9 3.8.5 10.1 3.4 13-.3-4.2-.4-8.4-.5-12.6 2.1 1.5 3.4 4.5 5.2 6.5 2.7 3.6 5.1 7.4 8.6 10.3 4.4 4.3 9 8.4 13.1 13 2.5 3.7 5.5 7 7.2 11.2 1.1 2.1 3.9 6.6.1 3.1-2.9-2.4-4.8-5.8-8.1-7.7-6.2-4.5-12.7-8.7-19.6-12-2.9-.4-6.7 1.2-8.6 3.2 1.7.6 4.5-.2 6.6 0 3.6-.1 7 1.1 9.8 3.3-2.1 3.4-4.7 6.6-7.1 9.8-6.2 6.7-12.4 13.4-18.5 20.1-1.5 2.1-4.5 5.5-6.8 5-.5-3.8-5.1-4.5-7.6-2.4-1.3 1.5-.8 2.8-2.1 3.6zm60.8 31.4c-10.5-4.4-22.7-8.7-31.9-13.1l.2-1.3c8.8-3.9 17.7-7.8 26.7-11.5-8.2 1.6-16.6 5.1-23.6 8-3 .9-6.2 2.2-8.5 1.7 8.2-7.9 21.9-7.6 27.6-15.1-8.8 3.8-17.6 7.6-26.3 11.5-1.8.5-7.5 2.6-7.5 0 7.8-3.9 13.6-12.6 18.5-19.4-3.9 2.6-7.2 6.6-10.7 9.8-2.7 2.1-6.9 6.3-10.1 6.7-3.4-3.4-2.2-5.3 0-7.5 3.5-5 7.1-10 10.7-14.9 6.1-7.5 12.4-15.1 17.4-21.7 7.6 4 14.5 9.8 21.6 16.6 1.2 2.9 2.3 5.8 3.6 8.8-2.4-1.4-3.9-4.2-5.8-6.1-3.9-2.5-13.5-7.3-16.8-5.6 5.6 1 10.1 3.3 14.4 6.1 4.7 3.9 9.2 9.7 12.2 16.8.5 3.1 1.7 7.1 1.7 11.3-1.2 2.7-2.3 5.4-3.5 8.2-1.9 3.6-6.1 9.4-9.8 10.6zm-124.4-15.9c-2.2-3.1-5.4-7.4-5.8-9.7-1-3.7-4.3-7-3.8-10.6 2.3-.7 4.5-1 6.7-1-.1-1.4-1.9-2-3-2.2h-6.2c-8.2 1.2-13.3 4.1-19.6 8.8 0-4 1.8-6.7 2.7-9.6 1.7-4.1 3.1-8.7 6.2-11.8 1.4-.5 4.5-3 7-2.2l9.2 9.2c8 6.2 16.1 12.4 23.1 17.5-.9-1-1.8-2.1-2.6-3.1-3.1-2.5-6.2-4.9-9.2-7.4-3.1-1.2-9.1-7.3-9.7-9.4-5.7-8.3-10-8 .6-9.7 1.6 1.3 4.4 6 6.3 8.4l5.6 5.6c5 4 8.5 6.6 13.2 10.2-.1 1.2-.1 2.3-.1 3.6-5.1 7.5-5.4 19.8-5.1 29.7-5.7-4.5-11.1-11.3-15.5-16.3zm98.4 21.8c-5.7-2.2-10.1-4.7-13.9-6.9-.4-3.8-.6-7.5-.9-11.1 2.3 0 5.7 1.7 9.3 3.8 14 5 29.1 9.6 43.1 17.7 1.4 1 3 2.1 4.5 3.2 2.5 2.3 4.1 4 6.9 7.9.5 2.2 1 4.4 1.6 6.7-16.3-15.9-30.8-16.4-50.6-21.3zm-40.3 86.9c-8.7-2.7-16-9-18.4-18-5.4-11.6-9.6-23.8-15.9-35 1-9.7 9.2 3.1 12.3 5.8 7.1 8.7 15.7 16 23.9 23.6 4.5 1.5-5.5-8-8-10.3-3.2-4.2 9.5 2.1 13.4 2 3.6 1.2 14 1.8 5.3-.3-11.7-3.3-24.4-6.9-32.3-16.8-4.1-3.6-13.5-10.3-4.7-14 3.1-5.6 10.2-8 12.6-.6 7.6 9.6 18.7 15.2 28.2 22.6-2.9-4.6-8.8-9.2-13.9-12.6-4.7-3.7-11.6-7.2-13.3-13 6.3.4 11.1 7.1 17.7 7.4-5.5-4.4-14.5-6.9-20.1-12.4-2.6-4.5 3.1-11 2.1-16.8.5-5.1-.3-12.4 2-15.5-2.9-3.8 3.4-7.6-3.9-8.9-8.8-2.4-9.2-11.2-11.6-18.1-4.3-7.2-10.3 1.4-12.2 2.7-7.3-4.3-12.8-10.8-18.9-16.5-6.4-6.7 2.9-9.2 8.5-7.4.8-5.1-12.4-3.5-16.6-1.3-5.3.9-11 6-16 5 6.7-11.9 17.5-20.8 27.1-30.3 2.6-2.3 8.1-9.3 5.2-1.9-1.8 3.1-4.4 16.3-.1 7.2 1.8-3 5.1-17.6 4.9-8.2 1.3 3.7 2.4-11.1 3.3-1.7.5 7.8-.8 16.1 3.1 23.3 8.1 17.2 22.4 31.2 39 40.3 6 1.9 2.8 21.6-4.5 12.1-1.8-7.6-8.8-.2-5.6 4.6.5 17.5 6.5 36.3 21.1 47.1 7.8 3 7.8 12 16.4 17.2 1.3 5-5.2 13.4-8.1 18.3-7.8 7.8-12.9 17-22 20.4zm-31.5 16.6c-9.1-6.8-16.4-14.1-22.6-22.9.4-8.5.8-17.1 1.2-25.5 5.6-6.9 10.6-14.8 16.7-20.2 8.3 17.5 14.5 37.4 21.6 52.2 1.8 3.2 3.1 6.9 8 9.3 1 .1 2.1.4 3.1.6-1.7-5.1-8.1-9.2-8.3-14.3 1.6 1.2 3.1 2.3 4.7 3.5 3.9 2.1 8.7 4.9 14.4 5.6 1.4 0 9.2.1 9.2-3.1-4.3-.3-8.4-.5-12.6-.8-.1-.1-.1-.3-.1-.4 6.5-4.6 11.3-9.5 16.9-14.5 1.8-2.3 3.6-4.5 5.4-6.7 3.2-3.1 4.6-12.9 8.3-14.3 2.3 1.8 4.7 3.8 7.1 5.7v8.9c-4 9.3-10.7 18.6-17.5 26.8-7.7 7.7-17 14.4-26.8 16.8-10.2 1.9-20.3-2.1-28.7-6.7zm101.1 25.5c-1.2-.4-2.3-.6-3.4-.9-.5-3.9-.9-7.6-1.3-11.4-.7-15.1-2.7-28.2-2.7-41.8 6 14.2 8.6 27.1 16.8 37.6 1 1 1.6 1.6 2.5 1.6 1.7-2.2-1.2-5-2.4-6.9 1.8-6.3 3.6-12.4 5-18.8.9-7.1.9-14.9-.2-21.5-.2-1.8-1-3.8-1.6-4.8.8 8.3 1.4 18.4-.4 27.5-1.4 3-2.4 12.7-5.4 13.1-4.5-8.2-8.4-16.2-11-23.4-.9-3-1.8-6-2.6-8.9-2.6-13.2-4.3-25.6-7.2-37.6-.8-2.2-1.4-4.4-2.1-6.6.5.1 1.3.3 2.2 1.7 7.6 17.1 10.9 34 18.6 48.1-4.9-16.2-11-31.6-15.3-46.2 26.3 13.2 30.3 40.2 32.9 54.7.4-25.5-13.2-47.7-35.6-61.6 1.3-2.4 4.8-3.8 7.3-4.3 9.5 3.7 19.1 8.5 24.8 15.9-3-8.8-15.2-13.8-22.1-17.4 0-1.6 5.4-3.6 7-4.4 7.5 0 13.3 6.1 17.9 12.4 2.2 7.3 2.9 14.6 3.9 21.6.8 18.6-.4 37.9-1.9 57.4-.9 7.6-1.7 15.3-2.5 22.9-4.9 0-10.9-3.9-14.8-3.9-3.4 2.2.5 5.7 3.5 7.6 2.9 1 6.3 2.2 10.6 4.3v1.2c-6.8 1.6-15.5-4.4-20.5-7.2zm-160.5-1.4c-6.3-.1-7.7-7.7-2.8-11.3 11.2-24.4 19.1-48.1 22.7-72.7-8.2 25.1-15.6 54.9-28.2 74.5-3.8-5.4-4.8-12.2-7.3-18.3-1.7-8.4-3.3-16.8-2.9-25.5-.4-10.9 1.3-21.6 3.3-32.3 4.4-25 9.2-49.8 14.5-74.6 3.8-3.6 11.4-8.3 12.8-.3 6.8 12.6 13.3 25.6 23.2 36.1 2.3 2.7 7.7 7.4 1.2 7.7-4.7 2.7-10.5 6.2-13.6-.4-4.9-4.7-10.4-9.5-17.2-11.2-4.9-.6-9 3.5-2.3 2.4 4.1.3 14.9 6.6 5.5 7.1-7.2 1.8-14.3 5.4-18.5 11.7 6.9-4.3 14-8.9 22.3-10.1 4.6-2 9.1 4 11.5 6.7-12.1 6.8-25.3 13.7-32.9 25.8-3.6 7.1-7.1 14.8-5.5 22.9.5 3.4.8 12.5 1.5 12.1 1.3-8.2-2.2-16.9 1.8-24.7 2.7-6.9 6.7-13.4 12-18.5 9.6-7.5 20.5-13 31.2-18.6 1 4.5-1.4 10.5-1.9 15.6-4.8 29.7-9.2 59.4-13.2 89.2.5 5.2-2.2 13.6-6.8 10.1.2-13.9 3-27.6 4.3-41.4-4.3 13.7-4.4 28.4-5.5 42.3-4.6 5.7-13.1 7.2-19.8 9.6 3.5-5.9 12.4-8.4 10.6-13.9zm9.3 258c-6.5-10.1-12.1-19.8-17.1-30-.6-5.4 2-10.7 3.5-15 1-6.2 1.4-10.9 1.7-16.2 2.2-16.2 4.4-32.4 6.7-48.6 3.6-41.3 7.5-83 11.7-123.4 3.8-5 5.3-12.3 5.4-18.2-1.4-1.4-2.1-1.4-3.1-1.6 1.7-22.1 5.3-44.9 7.8-64 2.9-17.6 5.7-35.1 8.7-52.6 1-2.1 4.9-5 7.4-3.9-.9.6-1.8 1.3-2.6 1.9-1.3 5.7-2.6 11.4-3.7 17.2-.9 20.2-1.8 40.4-2.6 60.7-.6 54.1-1.2 108.3-1.7 162.5.6 29 1.4 58 2.2 87.2-9.7-3.7-14.8-12.3-24-12.6 1.2 1.4 3.4 2 3.4 3.9-5.3 6.3-12.4 9.1-15.5 15.5 0 2.9-.5 6.1 1 9.3 1-7.1 3.9-15.2 10.2-15.9.5 15.3.6 31 .6 43.8zm151.5.6c-15.3-36.6-21.3-78.6-22.2-114.7 0-66.2.5-132.6-.8-197.7-.6-15.2-1-30.3-3.9-44-.9-3.2-2.3-7.4-3.6-9.2-4.9-2.9-9.7-5.7-14.5-8.6.4-3.5.8-7 1.3-10.5 2.2 0 4.9 1 7.9 1.9 6.4 2.6 14.6 1.4 19.7 4.4-.4 2.7-2.7 7-4.1 10.2-2.7-1.2-5.4-2.3-8-3.5-2.3-.6-6.6-2.5-8.2-1.7 5.3 3.5 12 6.5 16.1 10.5 5.4 19.9 7.7 41.3 10.4 60 1.2 15.5 2.6 30.4 4.3 44.8-.8.8-2.3 1.2-2.3 3.1.1.1 3 1.7 3 3.4-3.6.4-4.3.4-5.4 3.2.4.9 2.6 2.3 4.4 3.8.6 1 1.3 2.1 1.9 3.1.4 4.1.8 8.4 1.3 12.7 4.5 35.2 2.2 70.6 6.5 101-.3-33.4-2.3-78.4-4.9-108.9 3 2.7 6.9 5.3 11.7 8 2.7.8 5.4 1.7 8.2 2.6-2.3 31.1-4.7 62.2-7 93.4-2.2 50.8-4.7 101.3-5.9 153.1-2.4-6.7-4.2-14.4-5.9-20.4zm-9.9 72.4c1-3.2 8.3-4.5 12-5.2 4.7.6 9.3 3.4 12.7 5.4.5 1.7 1.2 3.4 1.8 5-8.5 3.6-18.7-1.1-26.5-5.2zm-104.1 10.5c-3.9-1.9-4-6.5-4.5-8.8 2.4-2.4 21.6-4.2 21.6.7-4.9 3.7-11 7.4-17.1 8.1zm23.2-491.6c-.4-2.1-.6-4-.9-6 1.6 0 4.7 1.8 7.8 3.6-.8 1.4-1.6 2.7-2 4.1-1.6.6-3.2-1-4.9-1.7zm23.9 11c-3.2-2.3-3.6-3-3.6-5.7.9 0 2.7.9 4.7 1.9-.1 1.2-.1 2.5-.1 3.7-.3-.1-.7.1-1 .1zm-1.1 6.9c-2.2-3.4-1.4-3.6-1.7-6.2 1.2 0 1.8.1 3.2.8-.4 1.7-.6 3.4-.9 5.2-.2.1-.4.1-.6.2zm-20.3.4c-.3-.3-.5-.5-.6-.8-.9-5.3-1.9-10.7-1.9-15.4.8 0 2.6 0 4.4 1.4-.3 4.1-.4 8.4-.5 12.7-.1 1.2-.7 1.6-1.4 2.1zm89.6.6c0-2.9 3.2-6.5 4.5-8.8 1.3-4 3.3-8.2 4.9-11 .6 3.4 2.5 8 2.5 12-2.3 2.6-4.9 4.7-7.6 7-1.7.2-2.9 1.9-4.3.8zm-44.8 2.6v-2.1c4.9 2.3 12.9 3.3 15.9 6.3-5.4 0-11.1-2.4-15.9-4.2zm61.4 10.3c-2.1-2.2-4.1-4.4-6.1-6.5-1.8-1.2-3.4-2.7-5.3-3.3 0-2.5 4.5-7.2 7-9.3 2.1 6.1 3.6 13 4.4 19.1zm-134.8.6c-5.3-3.8-8.9-8.8-12.5-13.6-3.5-5.8-6.9-11.7-10.2-17.5-2.3-5.6-7.1-12-7.4-18.1.8-.8 2.1-1.6 4.1-1 1.3 3.1 2.7 6.9 5.2 10.8 1.9 2.7 4 5.4 6.1 8.3 4.5 4.4 9.7 9.1 14.9 15.2 1.4.9 2.9 1.9 4.3 3 .8 3.7 1.6 7.5 2.3 11.3-2.2.6-5.4 1.4-6.8 1.6zm100.3 10.5c0-4.3 1.8-8.8 2.6-12 2.2-.5 11.8 2.6 14.9 3.4-5.2 4.2-12 6.2-17.5 8.6zm-158.2 113.3c-.9-9.1-2.3-18.4-2.3-26 2.6 5.8 4.8 13.2 7.7 18.1.8 1 1.7 2.1 2.6 3.2-2.3 2-5.1 3.8-8 4.7zm5.6 36.4c4.3-1 8.5-3 12.2-4.9-2.5 17.4-4.9 34.7-7.3 52.2-.3-1.6-4-38.7-4.9-47.3zm5 131.2c0-18.8-.8-38.1.7-55.9 3.1-27.5 6.3-54.9 9.6-82.2 2.3-2.5 4.5-6 7-7.1-4.9 50.7-11.4 102.1-17.3 145.3z" fill="#ed1c24"/>
<path d="m918.5 314.6c-1.2-1-2.3-2.1-3.4-3-.8-.3-1.4-.5-2.1-.6h-3.2c-2.3.4-6.1 2.2-6.6 1.9v-1c3.4-1.7 9.1-4 13.6-.6.8 1 1.7 2.2 2.6 3.4h-.9zm-8.3 4c-.9-.5-1.5-1.5-1.3-2.3-1 0-1.9.6-2.9 1-.1-.1-.1-.3-.1-.3 2.9-2.1 3.1-2.4 7.6-1.8.5.1 1 .4 1.6.6-.1-.3-.3-.5-.4-.8-3.4-1.7-6.5-1.6-8.8.8h-.8c1-2.7 3.8-2.8 6.5-2.7 3 .6 4.1.9 5.8 4.9-.6-.1-1.3-.3-1.9-.4-1.3-1.3-1.8-1.2-2.7-1.3 0 .6-.3 1.3-.8 1.9-.6.3-1.1.3-1.8.3zm-20.4-5.3c-3.7-0-7.2 1.1-7.1 5.3 1.8-.4 1.4-2.1 4.5-2.1 0 .1-.6 1.4 1.3 2.3h.1c.5.1 1.1-0 1.5-.4.5-.4.8-1.1.9-1.8 1.1 0 1.4.9 3 .9 0-.2.2-.5.3-.6-1.1-2.6-2-2.9-2.9-3.5-.5-0-1.1-.1-1.6-.1zm-.6 1c1 0 2.1.3 2.7.7v.5c-.3-.1-.5-.3-.8-.3-1.8-.2-3.6-.1-5.4.5v.1-.1c.1-1 1.8-1.4 3.5-1.4zm-.1 6c-.4-.2-1-.4-1.1-.5.4.1 2 0 2.5 0 0 .1-.3.3-.4.5-.4.1-.7.1-1 .1zm22.6.2c-.3.1-1.5-.3-1.6-.4.8.1 2.4 0 2.9-.1-.3.3-1 .4-1.3.5zm-16.5 14.1c-1.3-1.1-1.3-1.4-1.6-2.3.9-6.3 2.7-14.5 1.8-19.6-.4-.4-.8-.8-1.2-1-1.7-.4-3.2-.6-4.8-.9-2.5 0-4.7-.3-6.2.5-1 .6-2.1 1.3-3.1 2.1v-.8c3.4-3.1 3.5-3.8 8.8-3.8 1.9.4 3.9.8 6 1.3.4.4.8.9 1.2 1.4 0 1.9 0 3.9.1 6-.3 4.7-.5 9.3-.7 14 .5.4 1 .9 1.6 1.4-.3.1-.5.3-.6.4v1.3zm-2 8c-.1-.3 0-.7 0-.9 0-.8 2-1.1 3.8-1.8 1.4.3 2.9 0 3.4 0 1 .8 1.9 1.2 4.8 1.2 0 1-2.5 1.2-2.7 1.2-.5 0-1-.3-1.5-.3-1.4-.1-2.7 0-4 0-.4 0-.8 0-1.2-.1-.9.1-1.7.5-2.5.8zm5.1 3.5c-.9-.4-2-1.1-2.1-1.4.1.4 4 .1 4.7.3-.7.7-2.2 1.1-2.6 1.1zm-2.2 4.8c-.3-.6-.4-1.2-.5-1.7 1.4-1.4 3.8-1 5.8.1 0 .4.1.9.3 1.4-1-.3-2.1-.4-3-.5-.9.1-1.8.4-2.6.6zm3.6-16.6c-.1-.5-.3-.9-.3-1.3.6 0 1.3.1 1.9.3v.6c-.7.1-1.2.3-1.7.4z"/>
<path d="m933 312c-4-4-11-7-15-9-6 0-12 1-19 1-6 0-13-2-18-1-1 1-8 6-10 6-1-3 0-5 1-7 4-2 7-4 11-6 6 1 12 2 18 2 5 0 12-1 18-1 5 3 9 5 14 10zm-11 55c1-4 4-8 6-11 1-6 5-10 5-15-3-5-7-10-7-16 2-3 4-6 5-9 0-1 0-2 1-2 0 0 0 1 1 2 0 1-4 7-4 9 2 3 3 6 5 8 1 2 3 6 3 10-2 4-4 8-6 11s-4 6-6 8c-2 3-1 4-3 5zm-37 23 1-8c7 4 28 4 31 0 0 2-2 6-2 8-6 4-24 4-30 0zm41 1c-1-4-4-8-6-11 0-4 1-6 1-9 3 6 5 13 8 20 0 2-3 6-4 8-1 3 1-7 1-8zm-27 41c-3-4-14-10-16-15-5-7-9-13-12-19-1-3-2-6-2-9 2-11 6-23 6-34-4-7-7-14-9-21 0-6 3-11 6-15 1 2 4 6 2 8-2 4-4 8-5 12 0 4 5 10 8 14 2 4 2 8 2 12-2 7-4 14-5 22 0 4-2 7-2 10 1-1 1-2 2-2 5 8 9 18 18 26 5 4 10 10 17 14 1 1 0 2 0 3-3 0-9-5-12-8zm-36 79c-6-5-5-16-5-21 0-2 0-2 1-4 2-1 3-3 6-3-1 3-2 5-2 9 1 3 1 7 2 10 0 1 2 2 2 3s-2 5-4 5zm70 4c-3-2-6-4-6-7l2-2c0-1 1-3 1-4l1-7c0-3-1-6 0-8 2 0 3 2 5 3 0 0 1 3 1 4 0 3-1 18-3 19z" fill="#fff200"/>
<path d="m1163 591c6-1 25-4 15.7-11.8 5.2-1.3 19.3-7.2 8.3-13.2 15.7 2.5 2 13-5 14 8 6-8.4 12.9-19 11zm-72.1 89.8c-7.8-4.9-22.4-24-20-23.9 5.2 6.3 9.5 13.2 18.4 17.6 15.8 2.2 27.8-4.1 38.1-13.5 10.8-9.8 23.5-31.9 21.5-42.9-.6 2.1-2.3 7.2-3.9 9.6.9-8.5 4.6-19.1 1.9-26.4-9.8-25-37.3-9.5-50.4 2.6 15-18.6 42.6-26.9 52.7-4.5 2.1 7.2 1.9 15.5.6 23.8-1.6 9.5-5.4 16.9-9.5 24.6-13.3 19.2-25.8 29.1-50.5 29.1 1 2.1 3.5 4.1 5 5.3-1.3.9-2.8-.7-3.9-1.4zm-27.5-19.7c2.1 11.1 7.1 19.5 14.1 27.7-10.4-4.4-15.2-18.4-14.1-27.7zm20.6 98.3c10.2-15.3 33.2-44.5 71.9-58.4 1.2 1.3 2.3 2.6 3.5 4-38.2 8.3-53 31.5-75.4 54.4zm-29 90.3c-25.4-46.3 9.9-101.1 36.8-134.3-8.8 19.6-61.8 69.6-36.7 134.3zm56.4 19.3c-2.1-5.2-3-6.3-7-7.9-9.2-1-17.9-.9-26-.1-15.7-.2-32.4-7.4-39.1-21.2 8.3 12.1 26.7 20.7 42 17.9-5-3.6-18.7-17.5-16.6-23.5 4.4 11.2 14.4 20.7 22.8 23.7 6.1.4 12.6.6 19.7 2.6 3.6 1.4 5 1.8 5.7 7 2.5 1.7 9.5.9 13.1.1.5-.3 1-.4 1.6-.5-5.3 4.8-10.5 4.1-16.2 1.9zm-14.8-358.9-3.1-3.1c-1.4-1.4-2.5-1.2-3.2-1.4-2.9 0-3.1.6-4.7 1.4 0-2.5 1-2.1 2.7-3.2 4 0 6.7 1.2 9.5 5.6 1.2 2.3 2.3 4.7 3.6 7-1.493-1.52-4.383-4.264-4.8-6.3zm-7.6 8.8c-.9-.6-2.9-1.7-2.9-2.6.5.1 1 .3 1.6.5v-2.6c.4-.9.8-1.7 1.2-2.5h-2.9v-.5c2.2-1 3.6-1.9 6.3-.3 1.2 1.2 2.3 3 3.4 6.1.3.4.6.9 1 1.4-.9-.5-1.8-.9-2.6-1.3-3.9-6.9-2.1-3-4.9-.1 0 .1 0 .3.1.5.8 0 1.6.1 2.5.3v.4c-.941.0123-2.403.5491-2.8.7zm-10 8.8-1.6-1.6c.3 0 1.6-.8 2.2 1.3-.3 0-.5.1-.6.3zm-11.4 122.4c.5 1.2 1.2 2.5 1.8 3.7-1.1-.5-2.2-2.8-1.8-3.7z"/>
<path d="m902 427c-8-6-13-22-17-31 0-2-1-3-1-4h1c8 4 15 3 24 2 2 0 3-1 5-2 0 1 0 1-1 2-2 5-3 10-5 16-3 5-3 15-6 17zm-50 93v-7c1-8 2-16 2-24 0-1 0-2 2-2-1 8 0 16 4 25-3 2-6 5-8 8zm82-4c4-7 3-17 4-23 2 1 3 2 5 3 2 5 6 27 5 31-4-2-11-11-14-11zm-32 406c-11-7-3-25-6-36 0-10-1-19-1-29-3-59-5-122-10-175-2-19-4-38-7-57-1-15-5-30-7-44 0 11 4 24 5 36 4 26 6 52 9 78 4 45 6 90 8 135 1 30 2 60 2 90-11 0-9-12-9-19-2-11-2-23-3-34 0-5-2-15-2-22-1-17-2-34-4-51-1-11-2-20-4-31-1-11-3-22-4-32-2-11-3-22-5-33-3-13 1 16 2 22 6 48 12 96 15 145 2 14 2 28 3 42-5-9-9-20-12-30-4-8-6-21-10-27 4 14 9 28 14 42 0 8 15 28-1 21-9-3-8-19-15-27-2-5-12-26-6-11 5 12 10 25 15 37-8-3-23 6-27 4-1-27-3-56-4-82 0 28 1 57 2 85-14 9-10-19-11-27 0-10 0-21-1-31 0-16-1-32-1-48 5-16 23 22 22 1 2-84-2-181 2-257 6 9 16 20 26 24 10 6 23 8 35 3-1 12-1 35-10 39-4-6-9-20-12-21 1 11 16 20 8 31 5 4 13-26 10-6-1 6-6 25-11 21-6-15-8-29-14-44-2-6-8-18-3-5 5 14 8 29 12 44 2 6 6 13-1 16 10 1 12-21 15-19-3 49-4 99-4 148v118c-1 4 2 15-1 16zm24 23c-12-1-23-4-32-10-12-7-26-11-38-4-9 11-25 8-32-4-6-4 0-29 2-20-2 10 10 27 18 22-15 1-3-15 7-14 20-4 40 3 55 14 6 7 16 12 6 2 16 2 32-2 45-10-13 6-26 9-40 9-18 2-12-18-13-30-1-17 0-34-1-51v-38c0-14 0-30 1-46 0-16 1-32 1-46 1-25 2-49 3-74 1-4 1-12 2-17 0-12 3-24 3-35-2-8 10-19 5-5-8 44-6 88-4 133 1 21 7 43 21 60 9 8-1-3-3-8-4-8-8-15-10-25-3-7-4-24 1-8 5 11 11 22 21 29 2 0-11-14-13-19-6-11-10-23-12-36-4-33-3-67-2-99-1-9 15-22 14-26-6 1-14 24-12 12s3-28 15-34c6-3 13-24 15-19 1 17 0 37 0 54-2-4-14-25-11-17 9 13 12 29 11 44 0 30 0 60 1 91 2 11-1 27-3 34 7-9 3 17 6 22 2 29 10 57 20 84 5 14 3 30 8 45-12 0-20 2-23-11-8-18-16-38-21-55-2-8-7-19-2-4 7 24 15 49 27 72-17 16-18-14-23-23-16-40-19-65-30-128 3 30 7 60 14 89 6 22 12 45 23 65 11 4-17 18-6 12 10-7 21-15 34-14 14-2 26 14 33 14 2-2 11 7-1 6-12 7-18-10-31-4-14 3-22 17-37 19-4 1-8 2-12 2z" fill="#4f4b6a"/>
</svg>
