<?xml version="1.0" encoding="UTF-8" standalone="no"?>
<!-- Created with Inkscape (http://www.inkscape.org/) -->
<svg id="svg4042" xmlns:rdf="http://www.w3.org/1999/02/22-rdf-syntax-ns#" xmlns="http://www.w3.org/2000/svg" height="300" width="600" version="1.1" xmlns:cc="http://creativecommons.org/ns#" xmlns:dc="http://purl.org/dc/elements/1.1/">
 <defs id="defs4044">
  <linearGradient id="linearGradient3086" x1="0.13832" gradientUnits="userSpaceOnUse" y1="0.31556" gradientTransform="matrix(-15.278928,20.473768,21.337778,15.923714,314.97463,242.83527)" x2="0.94762" y2="0.26253">
   <stop id="stop3230" stop-color="#C93" offset="0"/>
   <stop id="stop3232" stop-color="#FF6" offset="1"/>
  </linearGradient>
  <linearGradient id="linearGradient3089" x1="0.19771" gradientUnits="userSpaceOnUse" y1="0.32991" gradientTransform="matrix(-14.93566,20.013789,20.566641,15.348239,372.15399,242.0008)" x2="0.95647" y2="0.29566">
   <stop id="stop3210" stop-color="#C93" offset="0"/>
   <stop id="stop3212" stop-color="#FF6" offset="1"/>
  </linearGradient>
  <linearGradient id="linearGradient3092" x1="0.23852" gradientUnits="userSpaceOnUse" y1="0.25809" gradientTransform="matrix(-14.323166,19.193042,19.828531,14.79741,267.23673,247.34803)" x2="0.93831" y2="0.29234">
   <stop id="stop3190" stop-color="#C93" offset="0"/>
   <stop id="stop3192" stop-color="#FF6" offset="1"/>
  </linearGradient>
  <linearGradient id="linearGradient3095" x1="0.17585" gradientUnits="userSpaceOnUse" y1="0.3367" gradientTransform="matrix(-14.072766,18.857505,19.315048,14.414215,226.77006,239.70732)" x2="0.91563" y2="0.31074">
   <stop id="stop3170" stop-color="#C93" offset="0"/>
   <stop id="stop3172" stop-color="#FF6" offset="1"/>
  </linearGradient>
  <linearGradient id="linearGradient3098" gradientUnits="userSpaceOnUse" x2="0.72" x1="0.28" gradientTransform="matrix(0.47965693,-28.779437,-21.41256,-0.35687377,253.58755,152.51953)">
   <stop id="stop3148" stop-color="#C93" offset="0"/>
   <stop id="stop3150" stop-color="#FF6" offset="1"/>
  </linearGradient>
  <linearGradient id="linearGradient3101" gradientUnits="userSpaceOnUse" x2="0.72" x1="0.28" gradientTransform="matrix(1.5176913,-91.061365,-85.265394,-1.4210893,266.01067,211.22046)">
   <stop id="stop3128" stop-color="#C93" offset="0"/>
   <stop id="stop3130" stop-color="#FF6" offset="1"/>
  </linearGradient>
  <linearGradient id="linearGradient3105" gradientUnits="userSpaceOnUse" x2="0.78" x1="0.22" gradientTransform="matrix(3.120466,-31.192234,-18.484875,-1.8492262,217.6669,155.86846)">
   <stop id="stop3108" stop-color="#C93" offset="0"/>
   <stop id="stop3110" stop-color="#FF6" offset="1"/>
  </linearGradient>
  <linearGradient id="linearGradient3108" gradientUnits="userSpaceOnUse" x2="0.72" x1="0.28" gradientTransform="matrix(2.1835885,-131.01549,-98.583333,-1.643055,307.2396,232.62656)">
   <stop id="stop3086" stop-color="#C93" offset="0"/>
   <stop id="stop3088" stop-color="#FF6" offset="1"/>
  </linearGradient>
  <linearGradient id="linearGradient3114" gradientUnits="userSpaceOnUse" x2="0.98" x1="0.02" gradientTransform="matrix(121.89534,0,0,-45.652392,239.05231,85.91747)">
   <stop id="stop3500" stop-color="#C93" offset="0"/>
   <stop id="stop3502" stop-color="#FF6" offset="0.5"/>
   <stop id="stop3504" stop-color="#C93" offset="1"/>
  </linearGradient>
  <linearGradient id="linearGradient3124" gradientUnits="userSpaceOnUse" x2="0.97" x1="0.03" gradientTransform="matrix(131.63536,0,0,-61.707945,234.18231,84.22819)">
   <stop id="stop3464" stop-color="#C93" offset="0"/>
   <stop id="stop3466" stop-color="#FF6" offset="0.5"/>
   <stop id="stop3468" stop-color="#C93" offset="1"/>
  </linearGradient>
  <linearGradient id="linearGradient3131" gradientUnits="userSpaceOnUse" x2="0.73" x1="0.27" gradientTransform="matrix(0,-180.61811,-150.4646,0,385.59061,272.06601)">
   <stop id="stop3066" stop-color="#C93" offset="0"/>
   <stop id="stop3068" stop-color="#FF6" offset="1"/>
  </linearGradient>
  <linearGradient id="linearGradient3134" gradientUnits="userSpaceOnUse" x2="0.87" x1="0.13" gradientTransform="matrix(25.355329,91.669266,74.535538,-20.616213,341.01017,149.56084)">
   <stop id="stop3026" stop-color="#C93" offset="0"/>
   <stop id="stop3028" stop-color="#FF6" offset="1"/>
  </linearGradient>
  <linearGradient id="linearGradient3137" gradientUnits="userSpaceOnUse" x2="0.74" x1="0.26" gradientTransform="matrix(-3.04556,-92.382032,-53.450569,1.7621041,352.16388,268.92921)">
   <stop id="stop3046" stop-color="#C93" offset="0"/>
   <stop id="stop3048" stop-color="#FF6" offset="1"/>
  </linearGradient>
 </defs>
 <metadata id="metadata4047">
  <rdf:RDF>
   <cc:Work rdf:about="">
    <dc:format>image/svg+xml</dc:format>
    <dc:type rdf:resource="http://purl.org/dc/dcmitype/StillImage"/>
    <dc:title/>
   </cc:Work>
  </rdf:RDF>
 </metadata>
 <path id="path3029" class="fil0" fill="#a90000" d="m371.75,142.03c2.9349,0,5.315,2.38,5.315,5.315v5.3142c0,2.9349-2.38,5.315-5.315,5.315h-5.315v-15.944zm0,21.259c5.8698,0,10.63-4.7601,10.63-10.63v-5.3142c0-5.8698-4.7601-10.63-10.63-10.63h-10.63v26.574zm-21.26-26.574,5.315,0,0,26.574-5.315,0zm-10.63,0,5.315,0,0,26.574-5.315,0-10.63-16.684,0,16.684-5.315,0,0-26.574,5.315,0,10.63,16.684zm-79.724,0.00036,15.945,0,0,5.315-10.63,0,0,5.3146,10.63,0,0,5.315-10.63,0,0,5.3146,10.63,0,0,5.315-15.945,0zm-21.26-0.00071,5.315,0,0,21.26,10.63,0,0,5.315-15.945,0zm55.808,21.26,5.3135,0c4.4022,0,7.9724-3.5702,7.9724-7.9724s-3.6365-7.9572-7.9724-7.9724h-5.3135v5.315h5.3135c1.4673,0,2.6575,1.1902,2.6575,2.6575s-1.1902,2.6575-2.6575,2.6575h-5.3135zm5.31-26.58c10.272,0,18.602,8.3303,18.602,18.602s-8.3303,18.602-18.602,18.602-18.602-8.3303-18.602-18.602,8.3303-18.602,18.602-18.602zm-13.287,18.602c0,7.3371,5.9503,13.287,13.287,13.287,7.3371,0,13.287-5.9503,13.287-13.287,0-7.3371-5.9503-13.287-13.287-13.287-7.3371,0-13.287,5.9503-13.287,13.287z"/>
 <rect id="rect2985" height="300" width="600" y="-0.0021946" x="0" fill="#d40028"/>
 <path id="path3012" stroke-linejoin="miter" d="m238.19,215.74c-1.0485,4.3774-1.7472,8.6548,0,12.233,0.29841,1.9393,0,3.8788-0.89509,5.8184-1.6949,2.3373-3.0401,4.6743-1.9394,7.0119-0.34798,4.3263-2.4252,7.9794-6.354,10.715-2.0459-0.4307-2.7738,1.0889-3.5253,2.5583-1.3702,2.6795-3.0558,4.8566-5.2926,7.3151,0.94837,0.3667,2.973,0.4488,4.4402,0.047-0.2476,0.859-0.6357,1.8425-0.90502,2.6383,3.4094,0.267,10.886-0.056,12.444-4.2445,0.43617-1.1727,0.52529-2.5321-0.21074-4.4084l0.10129-2.878,0.67154-0.5803c4.7328,3.3106,5.395-0.1136,5.6538-3.786,0.33912-4.8137,3.4788-8.4206,7.0004-11.852,1.442-1.094,1.8896-2.5859,1.3427-4.4756-0.15225-2.589,0.74397-4.1295,1.7902-5.52l-10.891-17.903-3.4314,7.3103z" fill-rule="evenodd" stroke="#4f2d15" stroke-linecap="butt" stroke-miterlimit="10" stroke-dasharray="none" stroke-width="1" fill="#C93"/>
 <path id="path3050" stroke="#4f2d15" fill-rule="evenodd" fill="url(#linearGradient3137)" d="m321,217.96c0.71612,5.0907,3.3801,10.151,6.8207,15.272,2.9711,4.4223,2.4141,7.7409,0.5931,10.379-3.2522,4.712-6.7386,8.4188-9.9345,12.455-3.9317-0.6775-6.2077,5.7973-11.121,9.638,1.384,0.9785,3.2044,0.5341,4.5884,0.6693-0.47233,0.9114-0.91607,1.6539-1.1862,2.3724,10.381,1.0141,16.765-0.4955,15.281-7.7865,0.54363-0.7908,1.0873-1.5817,1.631-2.3725,1.9786,1.5899,3.8085,2.4847,4.5966-1.4827,1.4385-6.8647,6.0845-10.605,10.972-13.938,2.1586-1.4719,1.5895-3.7049,0.29658-4.7448-1.0196-0.82014-2.3224-2.929-1.4828-7.8586,0.95336-5.598,4.3984-9.0619,7.1172-12.9l-6.6724-11.714-22.835,8.4517,1.3345,3.5586z"/>
 <path id="path3030" stroke="#4f2d15" fill-rule="evenodd" fill="url(#linearGradient3134)" d="m362.29,157.28c4.0416-4.8886,10.461-9.6594,17.147-8.3105,7.1172,1.436,13.119,9.9651,10.931,33.33-0.83399,8.9083-2.5844,21.062,5.282,23.496,1.6686,0.55356,3.0072,1.0106,4.587,3.0531-1.0658,0.139-2.2704,0.27801-3.336,0.69498,2.41,1.9767,5.1384,4.0324,6.3939,6.394-0.93769,0.0351-1.8696,0.26192-2.641,0.83399,2.7818,2.756,3.0128,6.2311,1.39,9.73-2.7383-2.1207-1.5079-7.9134-7.506-10.008-0.0928,0.69498-0.18542,1.39-0.27802,2.085-2.6284-2.3038-4.8496-1.6273-6.4341-4.2516-1.7956-2.9742-2.5403-7.6876-2.6008-14.791-0.076-8.9188,2.3605-18.862,2.0681-26.819-0.21336-5.8068-1.1906-10.85-3.4581-14.603-3.7069-4.5406-7.4135-4.8186-11.12-0.83399-2.363,3.0116-4.726,6.0232-7.089,9.035l-3.336-9.035z"/>
 <path id="path3070" stroke="#4f2d15" fill-rule="evenodd" fill="url(#linearGradient3131)" d="m262.57,225.95c1.3456,2.4325,2.4841,5.0721,3.416,7.9189-0.42061,6.7973,0.28971,8.9018,2.7949,9.6269,2.1764,4.6572,3.2641,9.6772,0.46584,15.993-2.3025,0-3.3943,2.2721-4.6415,4.1388-1.359,2.0343-2.4731,3.6075-4.2921,6.0108,1.0644,0.3365,2.8252,0.4918,4.796-0.2181-0.15532,0.5727-0.56896,1.8692-0.52057,2.6456,3.5312-0.2309,7.2567-0.4961,9.9821-2.2374,2.5581-1.6344,3.7686-4.0169,2.2053-7.7665l0.58918-1.5305c3.4776,0.7397,2.4977-3.3111,1.819-8.8063-1.6564-3.6231-2.0706-6.8322-1.2422-9.6269,0.67658-1.6564-0.10129-3.3127-1.087-4.9687,1.3169-4.141,0.83844-8.2815,0.46584-12.422,1.708-0.67282,3.416-1.3456,4.9687-2.6396,4.0207,3.7052,11.294,2.5653,19.875,0.46579v3.8818c8.2811-5.5897,11.972-2.601,23.757-11.801,1.5045-1.1744,9.1659,2.0717,14.751-4.9687,4.2579,4.6062,8.658,9.3135,12.111,13.861,1.579,2.0791,3.5297,2.738,5.5898,2.9502,3.2464,0.33424,5.6765,0.87702,8.9875,0.98743,2.5507,0.085,6.8226,4.2298,7.9371,7.826,1.276,4.1174,0.94686,7.9517,0.86456,12.262-0.0415,2.176-1.3354,4.4507-2.8831,6.9872-1.0825,0.1907-1.6528,0.8819-2.2118,1.9476-1.6858,3.2141-3.6639,6.0133-5.9946,8.8121,1.0864,0.3972,3.1497,0.3491,4.8089,0.1144-0.34551,0.6997-0.56891,1.6543-0.51263,2.4844,8.056-0.3564,12.603-2.3142,13.183-6.1229,0.22721-1.4899-0.0505-3.0117-1.317-5.1156l1.0869-1.708c2.6514,0.7038,3.0268-0.9566,2.7577-4.2056-0.46852-5.6549-0.46536-11.517,0-17.479,0.23043-2.9521,0.92235-5.8555,0.15527-8.6952-0.43173-1.5982-1.9226-2.0859-3.7265-2.0186-1.2422,0.0464-2.4071-0.32222-3.7265-1.3974-5.4032-4.403-8.5204-8.7962-6.2109-13.664,3.0917-8.4559,4.7842-13.915,4.0616-20.113-0.40527-3.4769-1.857-7.1867-3.5521-11.788-1.666-4.5226-3.1263-8.9557-4.7018-13.438-1.748-4.973-4.8916-8.0102-8.6525-9.7052-4.084-1.8407-9.2914-1.9378-14.601-1.9937-5.5407-0.0584-11.775,0.86183-17.649,0.12624-3.0768-0.38537-6.0557-1.4756-8.7839-2.6173-8.9511-3.7458-17.806-11.801-26.396-15.933-9.5751,31.313-19.15,62.627-28.725,93.94"/>
 <path id="path3238" stroke-linejoin="miter" d="m330.16,173.96c1.7446,3.1587,2.5461,6.3172,1.2729,9.476m-4.243,14.143c4.1015-0.23574,8.2031,1.4143,12.305,4.9502m-9.9003-0.2829c3.6773-0.84858,7.3545,0.9429,11.032,5.3745m14.285,14.426c3.3247,3.1385,11.245,4.0829,12.729,0.28284m-0.14142-22.771c1.8857,2.2158,2.0743,5.9402,0.56574,11.173m-24.326-55.866c-9.5291,4.9458-21.609,3.4177-9.7589,21.498,2.1773,3.322,2.737,6.7415,2.4043,9.7589m47.239,45.4c-1.5098,1.6362-1.2738,5.9034-0.99005,10.466m-44.551-6.9302c0.42432,6.5059-3.3944,7.3545-3.8187,11.456m-99.003-5.7988c1.7916,1.6555,3.5831,2.8378,5.3744,0.70716m8.2031-11.456c-2.452,2.0033-3.9604,4.5961-3.3944,8.486m23.336,5.0916c1.8995-0.45747,3.8649-0.79692,4.5499-1.8225,1.0008-1.4989,0.18187-3.9936-0.024-5.9563m2.1215-7.6374c0.89863,2.358,0.94456,5.0919,0.70716,7.0717" stroke="#630" stroke-linecap="butt" stroke-miterlimit="10" stroke-dasharray="none" stroke-width="0.50000000000000000" fill="none"/>
 <path id="path3446" stroke-linejoin="miter" d="m258.98,84.288c27.417-10.636,54.834-10.636,82.251,0l-0.86242,1.617h-80.742l-0.64678-1.617z" fill-rule="evenodd" stroke="#630" stroke-linecap="butt" stroke-miterlimit="9.60000038000000090" stroke-dasharray="none" stroke-width="0.50000000000000000" fill="#963"/>
 <path id="path3448" stroke-linejoin="miter" d="m260.97,45.468-4.2948-10.598-4.6941-5.0139-0.0296,0.01,6.0298,16.433c0.99608-0.28718,1.992-0.5641,2.9887-0.83082z" fill-rule="evenodd" stroke="#630" stroke-linecap="butt" stroke-miterlimit="9.60000038000000090" stroke-dasharray="none" stroke-width="0.50000000000000000" fill="#963"/>
 <path id="path3450" stroke-linejoin="miter" d="m284.11,41.118-1.1726-11.667-2.2537-5.8101-0.0198,0.002,2.3099,17.602c0.37875-0.0439,0.75723-0.0863,1.1361-0.12723z" fill-rule="evenodd" stroke="#630" stroke-linecap="butt" stroke-miterlimit="9.60000038000000090" stroke-dasharray="none" stroke-width="0.50000000000000000" fill="#963"/>
 <path id="path3470" d="m340.44,84.228,15.312-28.63c-18.468-7.1038-37.052-10.652-55.755-10.652-18.702,0-37.286,3.5482-55.754,10.652l15.312,28.63c26.732-10.576,53.686-10.912,80.885,0zm-32.738-43.761,1.0948-17.715c-2.9036-0.15244-5.8072-0.23223-8.7994-0.23223s-5.8958,0.0798-8.7994,0.23223l1.0948,17.715c2.566-0.13409,5.134-0.20213,7.7044-0.20213s5.1388,0.0678,7.7049,0.20213zm-55.757-10.6c-5.9216,1.8944-11.844,4.1874-17.765,6.9152l7.9945,14.948c5.2572-2.0981,10.524-3.9084,15.8-5.4304l-6.0298-16.433zm28.721-6.2179c-6.0126,0.71193-12.026,1.7741-18.038,3.2245l4.4765,17.082c5.281-1.1888,10.572-2.0902,15.872-2.7044l-2.3099-17.602zm67.384,6.2179c5.9216,1.8944,11.844,4.1874,17.765,6.9152l-7.9945,14.948c-5.2572-2.0981-10.524-3.9084-15.8-5.4304l6.0298-16.433zm-28.721-6.2179c6.0126,0.71193,12.026,1.7741,18.038,3.2245l-4.4765,17.082c-5.281-1.1888-10.572-2.0902-15.872-2.7044l2.3099-17.602z" fill-rule="evenodd" stroke="#630" stroke-dasharray="none" stroke-miterlimit="9.60000038000000090" stroke-width="0.50000000000000000" fill="url(#linearGradient3124)"/>
 <path id="path3474" stroke-linejoin="miter" d="m306.86,56.538-0.516,19.221-12.697,0-0.516-19.221c1.3844-2.3502,3.9401-3.9284,6.8644-3.9284s5.4802,1.5782,6.8646,3.9284z" fill-rule="evenodd" stroke="#630" stroke-linecap="butt" stroke-miterlimit="9.60000038000000090" stroke-dasharray="none" stroke-width="0.50000000000000000" fill="#963"/>
 <path id="path3476" stroke-linejoin="miter" d="m306.85,56.998-0.50361,18.759-12.697,0-0.50356-18.758c1.6772-1.6604,4.1253-2.7073,6.8521-2.7073,2.7266,0,5.1749,1.0466,6.852,2.7066z" fill-rule="evenodd" stroke="#630" stroke-linecap="butt" stroke-miterlimit="9.60000038000000090" stroke-dasharray="none" stroke-width="0.50000000000000000" fill="#d40029"/>
 <path id="path3478" stroke-linejoin="miter" d="m269.9,80.238-4.8055-15.037c-3.2352-10.121,10.468-12.403,12.7-4.4968l4.6699,16.542-12.565,2.9916z" fill-rule="evenodd" stroke="#630" stroke-linecap="butt" stroke-miterlimit="9.60000038000000090" stroke-dasharray="none" stroke-width="0.50000000000000000" fill="#963"/>
 <path id="path3480" stroke-linejoin="miter" d="m277.45,59.738c0.13687,0.30358,0.25613,0.62445,0.35261,0.96597l4.6699,16.542-10.275,2.4464-4.3605-14.577c-1.9075-6.3773,6.0625-9.1236,9.6125-5.3773z" fill-rule="evenodd" stroke="#630" stroke-linecap="butt" stroke-miterlimit="9.60000038000000090" stroke-dasharray="none" stroke-width="0.50000000000000000" fill="#d40029"/>
 <path id="path3482" stroke-linejoin="miter" d="m359.75,56.598-3.3395,1.5914c-18.686-7.2747-37.489-10.907-56.414-10.907s-37.729,3.6326-56.414,10.907l-3.313-1.5824c39.931-18.31,79.143-18.319,119.48-0.009z" fill-rule="evenodd" stroke="#630" stroke-linecap="butt" stroke-miterlimit="9.60000038000000090" stroke-dasharray="none" stroke-width="0.50000000000000000" fill="#963"/>
 <path id="path3484" stroke-linejoin="miter" d="m330.1,80.238,4.8055-15.037c3.2352-10.121-10.468-12.403-12.7-4.4968l-4.6699,16.542,12.565,2.9916z" fill-rule="evenodd" stroke="#630" stroke-linecap="butt" stroke-miterlimit="9.60000038000000090" stroke-dasharray="none" stroke-width="0.50000000000000000" fill="#963"/>
 <path id="path3486" stroke-linejoin="miter" d="m322.55,59.738c-0.13683,0.30358-0.25614,0.62445-0.35256,0.96597l-4.6699,16.542,10.275,2.4464,4.3605-14.577c1.9075-6.3773-6.0626-9.1236-9.6126-5.3773z" fill-rule="evenodd" stroke="#630" stroke-linecap="butt" stroke-miterlimit="9.60000038000000090" stroke-dasharray="none" stroke-width="0.50000000000000000" fill="#d40029"/>
 <path id="path3506" d="m300,78.318c-13.507,0-26.946,2.5136-40.318,7.5291-1.7177,0.0707-2.4398-1.9302-1.4175-3.2735,13.84-5.3759,27.751-8.0702,41.735-8.0702s27.895,2.6943,41.735,8.0702c1.0222,1.3432,0.30013,3.3442-1.4175,3.2735-13.372-5.0154-26.811-7.5291-40.318-7.5291zm-0.00014-33.371c-18.951,0-37.78,3.6426-56.49,10.936-1.388,0.54113-3.4628,1.5412-4.2574-0.19154-0.79461-1.7327,0.93545-3.1604,2.2507-3.6916,19.371-7.8225,38.869-11.734,58.497-11.734s39.126,3.912,58.497,11.734c1.3153,0.5312,3.0453,1.9589,2.2507,3.6916-0.79466,1.7327-2.8694,0.73267-4.2574,0.19154-18.71-7.2937-37.54-10.936-56.49-10.936" fill-rule="evenodd" stroke="#630" stroke-dasharray="none" stroke-miterlimit="9.60000038000000090" stroke-width="0.50000000000000000" fill="url(#linearGradient3114)"/>
 <path id="path3510" stroke-linejoin="miter" d="m355.12,37.298-1.7528,3.9403m-1.7575,3.951-1.6121,3.624m-2.7176,6.1093-2.0613,4.634m-1.8736,4.2118-1.8702,4.2045m-1.8671,4.1971-1.8638,4.1899m10.287-46.433-6.0048,16.364m-2.3351,6.3636-1.6894,4.6038m-6.7166-6.6463-1.0706,4.619m-2.5792-25.677-0.93391,4.4623m-0.92366,4.4136-0.82583,3.9458m-1.42,6.7849-0.94919,4.5355m-0.92729,4.4302-0.92697,4.4296m-1.3946-38.907-2.3088,17.593m-0.90771,6.9174-0.59249,4.5144m-0.58708,4.4742-0.58712,4.4732m-0.5868,4.4716-0.58684,4.472m-5.5777-23.091-0.24915,4.4906m4.122,0.29906-0.36514,4.4877m-0.36552,4.4919-0.36543,4.4914m-0.36538,4.4914-0.38206,4.6955m-5.1127-52.29-0.1374,4.4748m-0.14041,4.5731-0.14042,4.5732m-0.47756,15.557-0.0501,1.6302m20.549-29.158-0.79861,4.5863m-0.77639,4.4581-0.77704,4.4619m-2.674,15.354-0.77536,4.452m-0.77509,4.4506-0.77494,4.4499m-0.77452,4.4474-0.80365,4.6146m17.71-49.685-1.047,4.583m-0.99766,4.3666-0.99902,4.373m22.888-7.7522-1.8226,4.3523m-1.6781,4.0076-1.6852,4.0241m-6.068,14.491-1.7754,4.2398m-1.7729,4.2335-1.7701,4.2273m-1.7675,4.221-1.7523,4.1845m28.773-44.596-1.9972,4.1529m-1.8478,3.8426-1.8576,3.8628m-6.8261,14.195-2.0053,4.17m-2.0014,4.1618-1.9973,4.1533m-1.9936,4.1457-1.9299,4.0134m-5.0519-25.371-0.38178,1.6113m-7.284-3.388-0.41958,2.1524m-80.951-19.245,1.7581,3.9522m1.7574,3.951,1.6121,3.624m2.7176,6.1093,2.0613,4.634m1.8736,4.2118,1.8702,4.2045m1.8671,4.1971,1.8638,4.1899m-1.9469-23.705,1.6894,4.6038m6.7166-6.6463,1.0706,4.619m2.5793-25.677,0.93386,4.4623m0.92371,4.4136,0.82578,3.9458m1.42,6.7849,0.94915,4.5355m0.9273,4.4302,0.92701,4.4296m4.6111-14.397,0.59248,4.5144m0.58712,4.4742,0.58708,4.4732m0.5868,4.4716,0.58685,4.472m5.5777-23.091,0.24915,4.4906m7.3473-24.959,0,4.6133m0,4.5776,0,4.0607m0,7.0208,0,4.482m-11.469,0.50347,0.36515,4.4877m0.36552,4.4919,0.36542,4.4914m0.36543,4.4914,0.38202,4.6955m5.1127-52.29,0.13739,4.4748m0.14042,4.5731,0.14042,4.5732m0.4776,15.557,0.05,1.6302m-20.549-29.158,0.79857,4.5863m0.77638,4.4581,0.77709,4.4619m2.674,15.354,0.77532,4.452m0.77508,4.4506,0.77494,4.4499m0.77457,4.4474,0.8036,4.6146m-17.71-49.685,1.047,4.583m0.99767,4.3666,0.99901,4.373m-22.888-7.7522,1.8226,4.3523m1.6782,4.0076,1.6851,4.0241m6.068,14.491,1.7754,4.2398m1.7729,4.2335,1.7701,4.2273m1.7675,4.221,1.7523,4.1845m-28.773-44.596,1.9972,4.1529m1.8478,3.8426,1.8576,3.8628m6.8261,14.195,2.0053,4.17m2.0014,4.1618,1.9973,4.1533m1.9936,4.1457,1.93,4.0134m5.0519-25.371,0.38183,1.6113m7.284-3.388,0.41958,2.1524m78.06,5.6467c-17.308-6.938-34.719-10.417-52.232-10.417-17.514,0-34.923,3.4789-52.232,10.417m102.27,4.102c-4.8988-1.9709-9.8055-3.651-14.721-5.0408m-11.976-2.807c-5.5011-1.0245-11.013-1.6868-16.535-1.9852m-13.628,0.00094c-5.5168,0.29882-11.023,0.96056-16.519,1.9841m-11.975,2.807c-4.9158,1.3899-9.8234,3.0701-14.722,5.0411m97.887,4.0928c-4.3736-1.765-8.7536-3.2871-13.141-4.5663m-13.075-3.0888c-4.9563-0.89723-9.9211-1.4855-14.895-1.7648m-13.491,0.00093c-4.9687,0.27959-9.9284,0.86783-14.88,1.7642m-13.075,3.0888c-4.3871,1.2792-8.7678,2.8014-13.141,4.5663m93.514,4.0834c-4.1086-1.6617-8.2228-3.0983-12.344-4.3098m-12.922-3.0571c-4.5861-0.8222-9.1801-1.3668-13.781-1.6332m-13.25,0.00093c-4.5964,0.26681-9.185,0.81097-13.766,1.6324m-12.922,3.0573c-4.1208,1.2115-8.2358,2.6481-12.344,4.3097m89.151,4.0738c-3.8446-1.5567-7.6945-2.9066-11.55-4.0491m-12.771-3.0217c-4.2162-0.74665-8.4392-1.2464-12.669-1.4993m-13.008,0.00094c-4.2245,0.25325-8.4422,0.75261-12.654,1.4983m-12.771,3.0217c-3.8557,1.1425-7.706,2.4925-11.551,4.0494m89.897-44.222c5.7681,1.8133,11.526,3.9659,17.274,6.4564m-18.784-2.3455c5.6063,1.7045,11.203,3.7287,16.79,6.0726m-18.305-1.9489c5.4424,1.5982,10.875,3.498,16.3,5.6986m-40.949-20.02c5.8213,0.73347,11.632,1.8096,17.433,3.2269m-18.016,1.2783c5.639,0.6884,11.268,1.6982,16.888,3.028m-17.471,1.4785c5.456,0.64454,10.903,1.5906,16.341,2.8356m-25.392-12.783c-2.8371-0.16209-5.6768-0.24412-8.5188-0.24412-2.8421,0-5.6817,0.0822-8.5188,0.24426m16.756,4.561c-2.7432-0.15151-5.4889-0.22775-8.2368-0.22775-2.7481,0-5.4937,0.0764-8.237,0.22789m16.192,4.5624c-2.6494-0.14135-5.3012-0.2127-7.955-0.2127-2.6539,0-5.3054,0.0713-7.955,0.2127m-10.781-8.1883c-5.8213,0.73347-11.632,1.8096-17.433,3.2269m18.016,1.2783c-5.639,0.6884-11.268,1.6982-16.888,3.028m17.471,1.4785c-5.456,0.64454-10.903,1.5906-16.341,2.8356m-12.5-5.7604c-5.7681,1.8133-11.526,3.9659-17.274,6.4564m18.784-2.3455c-5.6064,1.7045-11.203,3.7287-16.79,6.0726m18.305-1.9489c-5.4424,1.5982-10.876,3.498-16.3,5.6986" stroke="#630" stroke-linecap="butt" stroke-miterlimit="9.60000038000000090" stroke-dasharray="none" stroke-width="0.50000000000000000" fill="none"/>
 <path id="path3512" stroke-linejoin="miter" d="m339.03,45.468,4.2948-10.598,4.6941-5.0139,0.0296,0.01-6.0298,16.433c-0.99608-0.28718-1.9921-0.5641-2.9887-0.83082z" fill-rule="evenodd" stroke="#630" stroke-linecap="butt" stroke-miterlimit="9.60000038000000090" stroke-dasharray="none" stroke-width="0.50000000000000000" fill="#963"/>
 <path id="path3514" stroke-linejoin="miter" d="m315.89,41.118,1.1726-11.667,2.2536-5.8101,0.0199,0.002-2.3099,17.602c-0.37875-0.0439-0.75723-0.0863-1.1361-0.12723z" fill-rule="evenodd" stroke="#630" stroke-linecap="butt" stroke-miterlimit="9.60000038000000090" stroke-dasharray="none" stroke-width="0.50000000000000000" fill="#963"/>
 <path id="path3090" stroke="#4f2d15" fill-rule="evenodd" fill="url(#linearGradient3108)" d="m234.24,135.81c6.7114-5.7585,17.184-3.7616,24.725-7.7466,4.6795-2.4734,9.8658-6.3287,19.473-4.7178,22.515,3.7752,24.592,24.627,28.784,43.709,0.32786,3.7186-1.29,6.0865-1.4925,10.021-0.79761-1.5161-2.0369-2.3696-2.5586-4.3823-1.4215,8.7418,2.2742,16.109-2.3453,23.358-0.49004-2.0915-1.2559-2.7477-2.077-4.1215,0.67508,10.181-3.4312,17.82-10.716,22.884-0.21321-0.71081-0.42641-1.4214-0.63961-2.1321-4.1933,4.1221-3.4826,7.1781-4.2643,11.727-6.3964-5.2593,2.3454-12.651-3.8378-16.417,0.71065,10.945-4.3354,10.803-6.8229,13.646-0.30505-1.7643,0.55603-3.2694,0.63967-4.9039-3.6246,1.1251-5.5648,7.433-10.874,9.5946-0.4646-1.4735,0.36654-2.6974-0.42641-4.0511-4.316,2.8664-1.9758,5.3068-4.9039,8.7418-3.873-5.7262-12.507-3.1167-15.991-17.697-0.48499,1.3044-1.6178,2.22-1.0661,4.6907-5.1568-3.7311-6.9745-10.497-8.3154-17.697l-2.1277-32.119,4.8364-32.387z"/>
 <path id="path3112" stroke="#4f2d15" fill-rule="evenodd" fill="url(#linearGradient3105)" d="m211.49,142.97c-1.7082-1.4028-1.7887-3.8657-1.268-5.4867,0.79778-2.483,3.3214-4.2915,5.3399-5.8051,2.1966-1.6475-2.9315-0.78136-3.5401-0.55812-5.2047,1.9103-9.1678,5.8404-9.7849,11.598-0.50994,4.7578,1.0848,10.004,5.9782,11.596l3.0885-5.6398,0.18633-5.7046z"/>
 <path id="path3094" stroke-linejoin="miter" d="m265.78,149.77c-2.9195,10.002-8.6055,13.457-16.447,10.939l-2.9068-7.8026,1.0709-2.3713,18.282-0.76499z" fill-rule="evenodd" stroke="#630" stroke-linecap="butt" stroke-miterlimit="10" stroke-dasharray="none" stroke-width="0.50000000000000000" fill="#C93"/>
 <path id="path3132" d="m208.29,154.21c-0.21932-2.7573,0.16926-5.1593,0.99413-7.2957,1.0588-2.7432,3.1366-6.0512,5.3968-7.9346,7.8492-6.5409,23.48-4.744,28.326,2.7227,2.58,2.5175,5.16,5.0352,7.7402,7.5528,5.0945,0.33837,10.189,0.19191,15.284,0.0303-1.6628,4.1592-8.3649,4.0543-16.478,2.7557-0.66091,3.05-0.82363,6.2226,1.2703,8.8251,3.4992,4.3493,3.1112,8.2609,2.704,12.582-0.39465,4.1878-0.6673,8.7827-6.1719,13.135,0.45474-2.0626,0.7849-4.1252,0.24454-6.1876-0.88249,8.8814-4.0258,10.845-6.9456,13.607-0.26997-1.6654-0.29642-3.8197-1.0947-4.4277-0.0423,2.4615-0.84966,3.5425-1.6377,3.9125,0.29974,1.6575,0.29958,3.6522,0,5.3099-0.69804-0.43628-1.3959-1.2096-2.0938-1.6458,0.10054,2.2682-1.3723,4.1993-1.0469,6.8049-1.8706-0.61075-2.1677-2.5694-4.3755-3.18,0.74745,3.8006,0.56193,7.748-1.5196,9.0504-0.91988-2.5702-2.1764-5.4756-4.4494-6.8303-3.8996-2.3243-5.7977-5.5954-6.6952-10.852-1.5086-0.266-3.2505-0.0426-4.5255,0.32469-1.8239,0.52529-3.5941-1.5956-2.8971-3.6789-2.7625-0.31649-1.8541-4.0642-3.1535-4.7931-2.7669-2.0215-1.0551-5.1054,2.2298-7.952-0.24866-2.0416-0.66778-3.6321-1.2852-5.5545-0.60346-1.8784-0.69273-3.7696-0.84129-5.6887-4.3657-1.0714-8.2711-3.61-8.7984-8.6352-0.11191-1.0671-0.44754-2.3949,2.297-1.6753,2.4482,0.64192,4.6541,0.144,7.4205,0.34824l0.10172-0.62942z" fill-rule="evenodd" stroke="#4f2d15" stroke-dasharray="none" stroke-miterlimit="10" stroke-width="1" fill="url(#linearGradient3101)"/>
 <path id="path3152" stroke="#4f2d15" fill-rule="evenodd" fill="url(#linearGradient3098)" d="m241.41,143.78c5.746-4.5608,3.0197-11.94-3.4455-13.854-1.134-0.33563-1.791-0.88238-0.7724-1.2309,1.4178-0.48511,3.2958-0.20301,4.7395,0.007,12.449,1.8077,15.834,14.287,5.7233,23.405-5.4536,0.74214-7.9618-5.4569-6.245-8.3266z"/>
 <path id="path3174" d="m236,255.44c-2.4765,0.3104-4.9021-3.6524-7.1097-3.9246-2.0459-0.4306-2.6664,1.1003-3.4178,2.5697-1.3702,2.6793-3.0558,4.8566-5.2926,7.3151,0.94837,0.3667,2.973,0.4488,4.4402,0.047-0.2476,0.859-0.6357,1.8425-0.90502,2.6383,3.4094,0.267,10.886-0.056,12.444-4.2445,0.43617-1.1725,0.57668-2.5248-0.15934-4.4011" fill-rule="evenodd" stroke="#630" stroke-dasharray="none" stroke-miterlimit="4" stroke-width="0.50000000000000000" fill="url(#linearGradient3095)"/>
 <path id="path3194" d="m276.78,262.04c-2.1356-1.6054-5.0909-2.4104-7.5292-2.5732-2.3025,0-3.3943,2.2721-4.6415,4.1388-1.359,2.0343-2.4731,3.6075-4.2921,6.0108,1.0644,0.3365,2.8252,0.4918,4.796-0.2181-0.15532,0.5727-0.56896,1.8692-0.52057,2.6456,3.5312-0.2309,7.2567-0.4961,9.9821-2.2374,2.5581-1.6344,3.7686-4.0169,2.2053-7.7665" fill-rule="evenodd" stroke="#630" stroke-dasharray="none" stroke-miterlimit="4" stroke-width="0.50000000000000000" fill="url(#linearGradient3092)"/>
 <path id="path3214" d="m381.24,256.64c-2.7-1.4201-5.3883-2.2312-8.0874-2.0964-1.0825,0.1907-1.5217,0.8583-2.0806,1.924-1.6858,3.214-3.6639,6.0133-5.9946,8.8121,1.6871,0.3972,3.1497,0.4091,4.8089,0.1144-0.34551,0.6997-0.56891,1.6543-0.51263,2.4844,8.056-0.3564,12.603-2.3142,13.183-6.1229,0.22721-1.4899-0.0505-3.0117-1.317-5.1156" fill-rule="evenodd" stroke="#630" stroke-dasharray="none" stroke-miterlimit="4" stroke-width="0.50000000000000000" fill="url(#linearGradient3089)"/>
 <path id="path3234" d="m318.43,256.04c3.1047,0.726,5.5795,2.492,7.6015,4.9336,1.4997,7.2632-4.8844,8.7728-15.265,7.7587,0.27013-0.7185,0.71387-1.461,1.1862-2.3724-1.3839-0.1352-3.2044,0.3092-4.5884-0.6693,4.913-3.8407,7.1891-10.316,11.066-9.6506" fill-rule="evenodd" stroke="#630" stroke-dasharray="none" stroke-miterlimit="4" stroke-width="0.50000000000000000" fill="url(#linearGradient3086)"/>
 <path id="path3156" stroke-linejoin="bevel" d="m207.28,164.88-0.006-0.0773c-4.3657-1.0714-8.2711-3.61-8.7984-8.6352-0.11191-1.0671-0.44754-2.3949,2.297-1.6753,0.28912,0.0759,0.57529,0.13536,0.85894,0.18236,1.9061,1.9531,5.2778,4.0678,7.8401,4.2039-1.3437,1.0816-1.9387,3.2852-2.1916,6.0014z" fill-rule="evenodd" stroke="#630" stroke-linecap="butt" stroke-miterlimit="10" stroke-dasharray="none" stroke-width="0.50000000000000000" fill="#C93"/>
 <path id="path3240" stroke-linejoin="miter" d="m390.56,204.51c-0.0472,3.3944,1.0372,5.8459,3.253,7.3545-2.4044,0.37716-3.8658-0.56574-4.3844-2.8286" stroke="#630" stroke-linecap="butt" stroke-miterlimit="10" stroke-dasharray="none" stroke-width="0.50000000000000000" fill="none"/>
 <path id="path3242" stroke-linejoin="miter" d="m295.86,169.12c-1.4832,1.9125,1.2492,4.645-2.6933,7.4944m5.2695,2.1078c-2.186,5.2304,2.4202,10.461-6.9089,15.809m-0.93678-9.251c-2.2459,2.9315,5.1375,8.2443-2.5762,13.467m5.9722-1.2881c0.96918,4.3511-2.5598,4.8044-3.8644,7.6115m-15.926-5.7379c1.0932,3.63,1.2493,7.1037,0.46842,10.422m-5.2696-14.872c-0.56375,4.083,5.1462,9.8101-1.2881,14.286m-1.6394-6.4406c3.8658,7.1439,0.39164,13.584-4.2156,14.052,2.2841-3.5719,1.7766-6.0701,0-8.0799m-11.476,1.6394c-0.35119,6.2453,0.54669,10.773,2.6933,13.584m-7.3773-15.809c-0.47679,3.7495-0.24776,7.303,4.9182,9.4851m-9.368-12.413c-0.51526,3.3606-0.36407,6.4074,4.4498,7.2602" stroke="#630" stroke-linecap="butt" stroke-miterlimit="10" stroke-dasharray="none" stroke-width="0.50000000000000000" fill="none"/>
 <path id="path3244" stroke-linejoin="miter" d="m225.02,197.23c-0.7878,2.7945,1.5978,3.2214,2.342,5.738,1.2892-3.0448-0.77927-5.504,1.7565-7.026" stroke="#630" stroke-linecap="butt" stroke-miterlimit="10" stroke-dasharray="none" stroke-width="0.50000000000000000" fill="none"/>
 <path id="path3246" stroke-linejoin="miter" d="m224.67,261.54c1.3461-2.5973,2.9843-6.2538,3.9324-6.5762" stroke="#630" stroke-linecap="butt" stroke-miterlimit="10" stroke-dasharray="none" stroke-width="0.50000000000000000" fill="none"/>
 <path id="path3248" stroke-linejoin="miter" d="m265.12,269.44c1.6094-2.8693,3.0093-6.2368,4.4928-6.5978" stroke="#630" stroke-linecap="butt" stroke-miterlimit="10" stroke-dasharray="none" stroke-width="0.50000000000000000" fill="none"/>
 <path id="path3250" stroke-linejoin="miter" d="m312.03,266.54c1.7541-2.5274,2.9263-4.1347,4.2525-4.6434" stroke="#630" stroke-linecap="butt" stroke-miterlimit="10" stroke-dasharray="none" stroke-width="0.50000000000000000" fill="none"/>
 <path id="path3252" stroke-linejoin="miter" d="m369.94,265.64c1.199-2.1308,2.6087-5.2416,3.6688-5.8931" stroke="#630" stroke-linecap="butt" stroke-miterlimit="10" stroke-dasharray="none" stroke-width="0.50000000000000000" fill="none"/>
 <path id="path3254" stroke-linejoin="miter" d="m240.13,156.7c-12.438-1.0302-17.046,6.3874-16.296,21.803m-1.3486,10.452c2.5178-0.36739,2.3365-3.3673,1.5451-6.7431m-16.492,2.1353c1.7246,0.29931,3.1859-0.4115,3.484-2.0229" stroke="#630" stroke-linecap="butt" stroke-miterlimit="10" stroke-dasharray="none" stroke-width="0.50000000000000000" fill="none"/>
 <path id="path3256" stroke-linejoin="miter" d="m218.1,181.77c0.99875,2.8274,3.8183,3.0196,5.8889,0.48891,1.0298-1.5924,0.73747-3.04-0.71918-4.4224-2.2571-1.8532-4.9022-2.759-7.9649-2.9131-1.8371-0.0924-3.7133-0.0501-5.8585,1.0025,0.29958-2.5848,0.82411-5.2822,1.1239-7.867,0.15006-3.1217,0.59218-6.2923-1.1239-9.1033-0.58081-1.728-0.92997-3.34-1.0787-4.8521" stroke="#630" stroke-linecap="butt" stroke-miterlimit="10" stroke-dasharray="none" stroke-width="0.50000000000000000" fill="none"/>
 <path id="path3258" stroke-linejoin="miter" d="m246,156.78c0.85427-1.9831,2.0691-3.7874,3.4863-4.9585" stroke="#630" stroke-linecap="butt" stroke-miterlimit="10" stroke-dasharray="none" stroke-width="0.50000000000000000" fill="none"/>
 <path id="path3260" stroke-linejoin="miter" d="m242.66,163.11c-0.46203,2.918-3.0736,5.1538-6.2249,5.1538-3.4774,0-6.2976-2.7224-6.2976-6.0793,0-2.2553,1.2109-4.2244,3.1632-4.962" stroke="#630" stroke-linecap="butt" stroke-miterlimit="10" stroke-dasharray="none" stroke-width="0.50000000000000000" fill="none"/>
 <path id="path3262" stroke-linejoin="miter" d="m232.5,162.46c2.5101,2.4439,6.7805,1.925,8.4176-1.4964-2.3347-2.702-7.0475-2.2444-8.4176,1.4964z" stroke="#630" stroke-linecap="butt" stroke-miterlimit="10" stroke-dasharray="none" stroke-width="0.50000000000000000" fill="none"/>
 <path id="path3264" stroke-linejoin="miter" d="m236.84,159.78c1.0158,0,1.8394,0.82363,1.8394,1.8394,0,1.0157-0.82364,1.8394-1.8394,1.8394-1.0157,0-1.8394-0.82369-1.8394-1.8394,0-1.0158,0.82369-1.8394,1.8394-1.8394z" stroke="#630" stroke-linecap="butt" stroke-miterlimit="10" stroke-dasharray="none" stroke-width="0.50000000000000000" fill="none"/>
 <path id="path3266" stroke-linejoin="miter" d="m210.68,188.48c3.7545-1.5654,7.6706-0.58871,11.697,0.47431,2.0978,1.2736,0.11223,4.87-1.2363,4.0459-1.8798-1.4098-5.7822-1.1528-7.9172-0.53789-1.8239,0.52529-3.5941-1.5956-2.8971-3.6789l0.35312-0.30339z" fill-rule="evenodd" stroke="#630" stroke-linecap="butt" stroke-miterlimit="10" stroke-dasharray="none" stroke-width="0.50000000000000000" fill="#e3c24a"/>
</svg>
