<svg width="2200" height="1100" stroke="#000" stroke-linecap="round" stroke-width="4" version="1.1" xmlns="http://www.w3.org/2000/svg" xmlns:xlink="http://www.w3.org/1999/xlink">

<clipPath id="shield-trim">
<use xlink:href="#shield"/>
</clipPath>

<path id="banner" d="m0 0h2200v1100H0" fill="#f00" stroke="none"/>

<path id="branches" d="m708 144c-14 3-10 18-17 13-11-15-17-2-21 7-17-4 4 26-3 26s-5 5-1 10c4 4 7 6 8 11 1 6 0 4 6 8 6 5 9 9 8 15-1 5-1 6-4 14-2-7-5-8-10-7-3-3 0-17-15-13-10-22-25-2-18 10 1 1-13-3-3 18-16 6 11 27 12 34-9-7-25-8-17 13-1 0-17 0 1 21-7 0-8 9 5 21-6-5-20-6-9 20-13 1-16 16-5 23 4 17 0 14-3 11-10-4-12 11 2 26-15-5-13 21-5 26-18-11-31 3-19 23-17-1-10 16 4 26 0 0-14 10 10 25l-5 38c-17-21-30 11-21 26-17-6-8 17 2 24-10 2-15 11 13 17-6 2-9 7 6 14 1 0 2 1 2 1-1 0-1-1-2-1-5-1-16 2-10 16-28-9-22 17-2 24 0 0-17 11 13 16-5 16 18 5 27 10-6 6 8 7 24 3l-11 12c-7-2-14-1-10 15-21-19-56 1-16 23-18 12 10 20 20 23-12 10-11 14 20 15 0 0-14 6-4 15-27 2-25 15-5 24-11 13 6 11 18 8-4 6 2 9 8 7 8 24 43 17 67 20l86-25c-1-4-2-10-1-20s-9-7-6-14c2-6 5-16-3-21-5-3-7 12-14-5-3-8-6-5-1-11 4-6 9-3 8-13l-15-46c-8-1-12 5-14 24-3 9-1 1-7 3-6 3-3 15-3 23 1 7-6 3-4 9s6 16 5 20c-1 5-6 7-9 0-17-46 13-93 22-113 1-8 8-19-13-20 0 0 13-10 1-16 0 0 28-18 0-24 1-14-17-8-19-6 7-6 20-9 29-14 15-9-4-16-11-16 7-20-5-20-13-24-2-12-15-9-16-9 12-7 5-10 0-14 25-7 5-10 10-14 10-6 18-21 6-20-13 0-10 0-13-8-4-8-18 9-18 9-7 13-8-10-20 2-5 6-8 8-8 8s-8-10-13 3c1-4-7-9-8-9 4-29 22-16 41-22 6-2 19-7 17-15 34 3 31-8 26-13 12-6 23-16 0-18 20-14 20-36-6-26 1-13-12-6-28 6h-15c-5 0 40-18 29-30 9-5 18-14 12-18 35-50-17-5 10-38 13-17-22-4-27 0-3-20-16 2-18 15-2-4-6-12-12-5l-5 3c-3 3 11.42-16.38 13-19 6-9 19-25 45-33-2-6-4-9-10-10 2-6 1-9-18-1-1-9-7-17-17 6-14-9-10 12-16 31-3 1-9 1-7-9 2-11-1-24 9-30 42-30 27-27 27-30 4-6 14-20 3-23 3-27-9-23-20-9 0 0-9-15-12 5 0 0 0 7-7 7-18-1 7-19 5-22-3-4 4-8 13-12 4-2 11-10 6-13-4-3-5-6-2-11 3-4 8-22-3-18-13 6 4-18-11-18zm126 706c4 8 12 4 14-4zm14-4 29-9c-5-8 3-38 7-44l-50-13c-7 13 6 18 6 27 0 6-8 6-4 12 11 10 13 20 12 27zm595-40 10 3c-9 16-42 22-41 38-1-16 31-41 31-41zm59 57 2-6s34-6 50-26c0 0-17-6-37-6 0 0 34-2 57-35 0 0-63-11-116 26l2-25s102 6 132-33c0 0-42-14-68-8 0 0 51-12 75-59-38 9-103 21-112 61-2-16 10-34 15-40l5-2 6-8-8 1s8-33 42-37c-13 9-26 25-34 42 45-9 79-32 100-68 0 0-13-6-41 11 0 0 33-19 45-61-37 16-57 26-78 57 0 0 3-31 18-45 15-13 30-13 42-28 13-14 23-32 24-38 0 0-24 2-42 16 0 0 29-32 34-72 0 0-16 3-29 15 0 0 19-18 24-62 0 0-18 4-24 11 0 0 7-25 4-61 0 0-17 14-25 29 0 0-1-13-6-20 0 0 19-12 21-30 0 0-27-2-52 20 0 0 23-32 25-72-55 17-43 60-54 98-14-31 7-61 7-61s-2-22 17-33c18-10 37-26 35-75-4 2-8 4-11 7 0 0 6-17-2-49 0 0-24 22-31 58-2 23-5 38-12 58-2-33 4-32 4-47 0-21-1-38 8-55 11-16 2-49 2-49-4 6-8 13-14 18 0 0-11-24-25-34 0 0-6 21-5 31 0 0-7-7-16-10 0 0-7 31 15 48 6 5 16 13 19 23 4 11 0 14 0 26 0 13 3 34 3 36-11-36-16-61-47-85-3 6-9 43 13 67 28 32 24 37 23 76-7-36-20-59-45-71 0 0 0 38 18 62 0 0-18-13-40-14 12 40 50 41 62 57-7 2-27-8-27-8l-3 3c25 15 38 13 46 63-29-34-31-53-74-61 0 0 9 31 31 50 0 0-27-12-40-12 0 0 14 49 84 82 0 0 11 16 19 24 4 8 8 35 10 55 10 31 12 65-8 74 0-1-1-9 0-9 8-16 12-39 5-64-7-12-15-27-20-42-10-38-45-72-97-72 1 16 21 36 37 47 0 0 3 40 23 60 0 0-24-24-56-27 0 0-1 30 36 59 0 0-15 16-5 54 0 0-22-27-39-31 0 0-2 34 15 56 16 23 26 36 26 48 0 11-3 39-14 51-10 12-8 5-5-9 2-13 6-42-28-76l-7 55c14 24 23 40 18 50l-15 29-22-5c1-18 23-49 7-61l-32 11c3 17 3 32 9 48m189-425 16 1c0 4-2 11-7 18-1-5-5-16-9-19zm-4 7c7 11 0 38-8 50-2-15-3-35-11-48zm-51 138c16 7 34 34 33 53 0 24-1-8-5-4-6 6-4 33-8 38-9-13-17-29-17-45 1-14 0-30-3-42zm-790 16c5-5 9-6 13-6 8 0 15 6 14 7-22-3-14 21-22 25l-4-1m851-13c4 7-5 20-6 21-1-5-2-8-3-14zm-93 38c25 14 44 37 41 65l-21 7c11 24-12 61-24 83 21-60 38-99 4-155zm-694 55c-22 11-17 22-17 22l-28 10c4-14 9-20 22-25zm-42 52 23 3c-12 5 4 23 8 47-15-16-32-31-31-50zm182 162c8 7 2 11 2 11-18 0-20 10-20 10-14-6-30-15-30-14l-4 22s10 5 19 9c-7 2 0 7-1 9-7 8-24 0-25 10 17 14-4 10-9 17s-2 21 8 18c28-9 7 2 12 8 6 6 14 2 14 2 5 14 18 11 24 8 20-17 11-6 18-4 12 0 10-12 19-23 13 20 56 29 70 9 5-7 23-14 23-14l-24-35 11 17c-15 6-30 9-46 10 4-12 22-9 46-10l-40-47c-2-8-8-10-17-7-12 4-7-1-15-6zm424 2c-8 15-17 20-28 25-29 12-55 2-90 15l-31 37c45 7 29 20 57 24 29 4 47-19 47-19-8-6-28-12-34-14 5-2 17-3 20-5 12-4 20 6 31 13 55 47 74 40 74 40-1-10-5-21-9-24 8 0 45-5 42-9-11-18-38-24-53-28 8-3 20-6 27-20-19-7-55-4-55-4 10-15 34-15 48-21z" fill="#fc0"/>

<path id="shield-bg" d="m802 112v660h596v-662" clip-path="url(#shield-trim)" fill="#fc0"/>


<g id="hills" clip-path="url(#shield-trim)" fill="#094">
<path d="m925 790c26-217 320-220 350 0"/>
<path d="m785 870c26-217 320-220 350 0"/>
<path d="m1065 870c26-217 320-220 350 0"/>
</g>

<path id="sheaf" d="m1060 705s0 29-19 42c0 0-5-53 23-52 0 0-3-32-51-33 5-6 10-11 23-14 1-6 4-8 8-9 8 7 18 17 23 25 0 0 4-14 15-17-4 16 1 38 0 53 0 0 7 5 11 13 4-43 1-71-19-106 0 0 17 2 19 11l7-5 7 5c-1 14 0 26 1 38 2-4 7-13 22-12-6 5-17 6-21 72 0 0 6-9 13-15-5-28 27-60 18-84 0 0 18 14 6 35 2-1 11-12 16-14l7 4 2 7c-11 10-21 23-31 48 34 3 30 23 51 41 0 0-18 1-32-14s-22-19-27 1-4 39-4 39c3-6 7-9 12-11 0 0-6 13-2 26s2 23-6 28c0 0-4 3-9 3s-55-1-55-1c3-14 3-29 4-43 0 0-6-10-20-9 0 0 9-7 20-4 0 0 2-30-4-46" fill="#fc0"/>

<path id="ribbon" d="m1359 899s5 37 30 59c7 15 24 33 39 24 18-11 8-29 6-40 0 0-1-14-22-9 0 0 7 22 2 28-12 4-23-39-21-54m115-51c-16 16-23 74-56 66-106-26-190-67-275 44-10 14-16 12-31 8-16-3-52-9-104 2 0 0-12 4-25-13-15.19-19.86-28-36-38-41-11-5-14-15-11-24-59-20-111-4-162 19-30 13-53 21-62 8-8-22-21-24-28-50 81-9 184-82 296-18 20 13-26 53 13 53 45-17 109-17 147 1 35 0-10-43 29-61 34-16 71-32 145-23 54 9 106 34 162 29zm-656 44s0 22-17 46c-17 14-29 42-44 44-18 2-6-28-6-46 1-7 14-18 21-10 0 0-5 28 2 25 19-10 22-27-2-42" fill="#5ad"/>

<path id="madonna-shield" d="m948 280a152 129 0 1 0 0-1" fill="#5ad"/>

<path id="madonna-contour" d="m1188 360c-1-9-6-40-15-49 0 0-4-6-3-18s-6-23-6-23 1-14-10-16l2-3c11-15 5-36-11-43 0 0-3-2-6-2s-5-1-5-1c-1-1-2 0-2 0-4-8-13-18-21-21 0 0-2-12-15-6-4-1-8-1-12-1 0 0-9-6-16 2-44 16-44 63-22 84-33 15-40 61-28 92 0 0-5 25-5 30 50 33 135 31 180-3-2-7-4-16-5-22z" stroke-width="2"/>

<path id="shield" d="m802 112v610a72 72 0 0 0 72 72h130a98 98 0 0 1 96 76 98 98 0 0 1 96-76h130a72 72 0 0 0 72-72v-610z" fill="none"/>

<g id="madonna" transform="matrix(.1 0 0 .1 1046 272.1)">
<path d="m377-234s88 72 146 5c77-88 73-186 78-287 0 0-171-57-291-7-13 136-9 245 27 382 0 0 85 19 151 4 32-7 26-27 24-48 0 0-105 5-135-49zm399-260s23 14 39 9c71-23 117 4 106 78 42-25 24 38 11 50-12 12-13-2-14 18 0 20 2 69 30 110-24 13-82 21-144 4 0 0 2-34 11-36 10-1 23 0 37-8 13-7 37-31 17-22-21 9-48 30-73 13-66-44-72-195-20-216zm-542 858s12-4 34-38 40-66 81-91c42-25 50-31 64-44 13-13 24-12 14 9-9 21-14 23-39 37-26 14-29 39-38 46 0 0 68-22 92-32 25-10 75-47 99-68 23-23 23 7 3 27 0 0 67-59 45-15-22 45-42 128-139 176-96 49-102 56-161 75 0 0-26 6-49-22-23-29-31-44-6-60zm773-585c-29 55-201 83-261 2-58 49-88 125-114 183-19 45 24 13 57-1l12-8c-1-53 13-78 47-116 26-20 21 9 23 23-2 9-10 20 0 21 8 1 8 7 15 10 6 2 7 15 8 37 3 39 13 52 20 78s22 9 22-2c0-10-13-37-13-76 0-40 14 21 18 51 3 31 17 35 30 22 12-14 13-30 28-89s15-20 15-9-7 37-18 76c-10 40 2 26 18 9 16-18 18-59 30-88 11-28 14-14 13-3-1 12-4 49-13 84-10 35-4 30 22 8 25-22 15-29 20-76 4-47 15-65 15-65 15-4 10 11 10 11s-7 26-4 64c3 39 8 32 30 21 22-12 58-48 58-48-25-80-88-119-88-119zm109 88s16 21-4 49c-38 52-130 75-159 127-8 17-23 58-1 46 23-12 30-20 35-33s31-38 20-36-11-16 14-18c25-1 85-21 106-28 22-7 35-19 29-36-5-18-11-3-13-33-1-31-19-54-27-38zm-69 174s36-31 70-41c35-11 50-28 51 2 1 31 9 49 0 69-8 21-20 37-4 31 16-7 19-11 23-22 3-11 8-22 5 6-3 29-1 48-9 61 0 0 13 7 21-7 7-15 15-22 13 1-1 36-40 64-19 60 21-5 44-30 29-1-15 28-29 32-54 17-26-15-55-33-68-51-13-17-18-33-40-43s-78-31-49-41c29-11 59-22 75-22s21-2 3-11c-19-8-9-12-1-17 15-15-64 30-46 9zm-81 65s39-22 62 18c24 41 36 50 41 74 4 24 13 43 15 25 2-17 6-28 17-14 10 14 41 39 43 52 3 13 5 24-28 19-61-5-65-82-93-104-17-12-42-48-61-53-8-2-8-10 4-17zm132 80c55 17 165 147 123 151-23 1-50 1-55-33-6-54-35-77-68-118zm-385-192c5-44 2-120 32-136 5-3 20-6 8 7-7 8-2 11 3 11s10 5 1 13c-17 20-18 32-16 54 15-25 24-5 28-26 1-13 15-36 13-9-3 27-7 49-18 59s-28 21-40 26c-12 4-11 1-11 1zm-62 16c-85 27-83 122 11 144 32 6 41 5 31-22-18-39-21-84-42-122zm42-23c4 51 29 100 23 146-2 14-5 21-15-16-6-37-46-81-33-118 5-11 4-19 25-12zm40 23s12-17 20-12c17 33 1 69-12 108-5 12-13 18-16-25s-8-57 8-71zm81 24c28 15 58 12 93 10 12 0 27-8 24 12s-21 19-41 19c-23 0-78 0-80-20 0-12 4-21 4-21zm107 110c-7-2 4-24 23-13 13 7 16 13 24 19 9 6 15 14 10 26-4 12-5 20-14 25-15 9-59 10-58-10 18-8 23-21 15-47zm72 40c76 27-11 62-11 21 6-8 11-21 11-21zm-145-54s6-14 18-6 41 24 41 24 7 7 5 16-2 21-22 11c-21-9-46-22-46-22s-3-13 4-23zm67 7 1-43s-43 2-58 2c-16 1-41-19-53-1-11 17-13 35-8 53s14 34 14 34 1 21-11 5c-12-17-14-28-19-18-4 10-8-2-6-17 2-16-4-35-12-9-9 26-9 47 2 57 10 10 18 18 46 16 28-3 50-7 64-8 13-2 32-6 3-19-29-14-56-28-49-47s15-39 25-34c11 4 56 35 61 29zm-56 87c-31 73-220 62-179-47h32s13 54 46 68c0 0-26-33-5-23 43 21 65 9 106 2zm-202-14s31 70 79 71 102-23 86 1c-17 25-45 57-65 72-21 16-80 55-63 25 46-58 35-103 17-55-4 9-6 31-21 7-32-57-90-6-76-45 9-29 21-55 43-76zm-58 140c22-66 109-48 86 28-5 14-35 41-8 31 28-10 78-36 92-41 18-6 36-9 28 7-18 49-49 83-75 127-4 7-12 42 20 4 24-27 75-148 90-149 12 2 1 21-12 52-22 49-76 242-40 159 26-59 50-153 45-102s-4 82-10 103c-5 22-24 43-13 59 12 17 29 53 29 53s-37 14-46 22c-10 8-22 25 0 15 21-10 62-27 64-11-13 45-57 46-100 43-13-1-36-10-25-19 10-10 9 10 23 3 14-6 23-6 14-26-10-19-32-45-54-49-22-5-87-10-97-8-20-75-39-202-11-301zm16 348c3-48-6-34 98-23 15 2 22 15 24 24s18 31 0 20c-17-11-10-20-50-19-39 1-72-2-72-2zm62 16c12 0 27 1 18 14-15 21-35 29-57 39-9 4-20-5-6-14s-18 6-19-13c-2-36 43-26 64-26zm271-500c47 9 86 40 121 65 19 10 47 21 36 34-10 13-49 48-52 43-19-38-36-92-68-115-17-12-51-30-37-27zm-98 256c-4-56 14-254 69-245 24 3 56 13 80 53 25 36 52 95 29 110-27 13-131 69-58 70 29 0 64-17 36 6-12 12-142 85-109 100 40 4 76 55 41 51-42-10-124 23-102-12 17-25 32-29 22-45-14-29 64-231 25-174-15 25-24 117-33 86zm-5 164s11-9 40-8 45-6 50 13c4 18 1 26-7 31s-12 11-18 1-12-10-9 3c4 13-8 15-23 1-16-13-34-35-33-41zm130-21c122 44 70-25 135-63 14-7 29-14 23 11-5 26-1 55-17 75-41 54-156 53-145-7 3-13 4-16 4-16zm-13-176s73-44 96-48c44-12 61-12 73 19 27 50 27 112-32 135-22 8-69 37-102 39-32 1-81-14-81-31s37-27 61-42c20-12 139-108 84-86-18 4-126 43-99 14z" fill="#fff"/>

<path d="m514-7c0-62-57-64-57-11 0 54 57 74 57 12zm9-95c-1-17-40-14-40 3 0 16 39 15 40-2zm-56 7c-1-17-40-16-40 1 0 16 39 17 40 0zm-55-1c-1-17-40-17-40 0 0 16 39 18 40 1zm-50 869c185 158 488-31 375 60-80 76-323 68-375-60zm42 96s95 64 191 61c0 0-42 11-49 30 98 8 286-122 226-68-28 35-108 94-53 69 201-94 274-292 258-215-91 293-542 363-573 123zm20 141c278 107 557-42 598-292l20-21c1 206-191 402-498 367-132-16-137-44-120-54zm934 23c-71-173-24-758-202-673 114 81 78 335 145 713zm-219-657c96 12 92 466 122 710l-26 20c-22-238-12-548-96-730zm-159 817c60-121 63-201 128-369 12-23 21-55-14 7-35 61-123 255-137 310-15 56-47 172 23 52zm-562 96s34-113 53-147c19-35 15-38-7-31-31 12-108 168-76 176 21 6 30 2 30 2zm-117-19s16-114 14-147c-2-34-8-84-25-32-8 28-38 188-12 178 18 2 23 1 23 1zm-103-664c50 146 133 288 245 386-142 4-228-151-299-336 0 0 43-25 54-50zm-65-197 45-22c4 34 21 92 72 90l-43 45c-51 24-98-42-74-113zm-71 812c19-206-11-590 62-819-66-29-83 614-80 813zm-38-784 57-31c-42 77-70 483-68 803l-69-27c13-202-1-532 80-745zm-231 444s13-202 131-414l72-26c-76 208-132 521-107 686-30-34-48-314 8-509 0 0-98 211-104 263zm-16-73s4-192 47-246 48-61 35-26c-34 91-51 182-82 272zm-49-286c9 52 7 69-36 122-6-70 7-72 36-122zm14-118c30-426 245-555 522-133 9 31-17 51-37 74 0 0-75-147-132-202-58-54-27 4-18 18 10 13 139 185 105 200l-39 17c-26 11-27 1-47-80-12-32-75-233-110-221 0 0 48 90 54 236-73-21-175-13-224 13 0 0 9-140 20-175 0 0 12-70-14-9s-39 222-39 222-32 21-41 40zm331-403c86 18 159 109 247 227 0 0-15 9-17 17-90-129-127-161-230-244zm-103-38s73-44 134-39c71 86 182 130 255 217 34 42 35 78-2 39-87-88-240-230-321-222 0 0-68 19-66 5zm222-80c80 103 225 212 381 225l2 15c-121 8-393-140-383-240zm96-624s48-3 62-33c0 0 47 6 69-9s23-19 36-8 25 17 43 17c19 0 24-6 38 7s21 21 38 23l-13 39s-73-39-187-22c0 0-52 12-69 18zm2-33s-68-113 9-138c52-11 94 74 67 114l-32 1c-5-30-31-21-18 10 0 0-21 26-26 13zm226-21s-19-119 61-111c59 10 43 62-1 130 0 0-29 0-22-18 7-17 6-18-5-20-12-2-12 26-22 24-9-2-11-5-11-5zm312 190c5 47-67 43-76 18-17-61 68-57 76-18zm139 12c-9 56-87 24-84-6 9-57 86-32 84 6zm-191 66s79-12 152 9c0 0 15-3 13-32 0 0-70-7-81-31 15-25 32-59-3-61-46 0-17 48-14 61-25 22-44 17-75 22zm-477-80c76-152 281-114 325 6 0 0-154-57-325-6zm-20 49s171-49 355 10c0 0 0-33-9-38-10-4-114-54-333-8zm363 305s-18 61-14 86c0 0-39-38-58-42 0 0 54-23 72-44zm-25-91s40-43 41-34c2 9-1 81-8 93zm18-164 24 44-1 49s-20-27-35-38zm-401 232s14 30 30 38 25 15 10 23-30 23-36 34c-7 11-11 10-8-27 2-37 4-68 4-68zm1-125c0-1-9 51-3 96 0 0 54-42 41-59-13-18-33-33-38-37zm4-35s18-109 33-71c0 0 14 29 5 40-10 11-37 45-38 31zm128 366s121 8 162-12l-1 9c-44 21-153 12-154 12zm183-82s53 5 69 28c0 0-47 162-69 205h-21s21-157 21-233zm-314 21s-1-20 64-26c0 0 37 118 187 226-85-35-225-102-251-200zm-236 31c-218-211-206-670 224-830 0 0-30 68 9 143 0 0 47 78 26 96-154 151-102 379-120 532-37 34-85 34-139 59zm994-540c160 70 210 290 110 420 0 0-27 35-56 13-38-29-83-31-83-31s-36-45-28-65c51-55 85-155 21-202 25-38 33-110 36-135zm-140-40s-12 2-19 14c-9 10-38-9-65 1-73 42-48 76-30 109 19 33 8 49 8 49-80 141 45 242 45 242l-4 29c-31-6-51 11-89 54-42 47-42 20-42 20 12-43 21-134 29-209s-5-94-20-181-57-109-68-133c-10-23-6-44 28-83 34-40 27-112 27-112 70 30 160 120 200 200zm155 455s-38 54-139 52c-101-3-123-51-123-51s14-11 25-11c0 0 28 27 81 30s76-5 92-13c16-7 28-17 28-17 15 2 25 6 36 10zm-737-438c-66 114-90 265-86 512-8 7-67-430 86-512zm159-148s-3-54-18-69c10-34 43-47 62-5-14 19 4 82-17 78-12-7-20-12-27-4zm-616 1157c50-26 153-34 226-10l3 55c-67-13-164-13-230 14zm-69 157s26-48 39-61v-54c-32 29-53 27-39 115zm468-129s-16 65 62 88c0 0-62 47-89-77zm222 54s101 116 127 188c-3 19-89-99-127-188zm-74 9 34-12c73 128 141 239 179 381l-41-5s-98-251-172-364zm-63 24 38-11c22 91 114 209 119 302 0 28 5 72-47-30-51-102-111-215-110-261zm-78 119s41-38 54-77c0 0 59 156 67 229 0 0-108-93-121-152zm-27 498 46-81s-25-49-48-47c0 0-9 94 2 128zm24 178 36-161s16-47-15-22c-30 24-55 38-55 71s-2 100-2 100 0 19 36 12zm173-148s-1-33 15-23c17 9 10 27 0 38-9 11-15 21-15-15zm172 181s-2-138-54-154c0 44-14 162 54 154zm43-30s34-50 45-77c10-27 19-42-10-41s-37-5-39 36c-1 40 4 82 4 82zm69 25s18-47 22-95c5-48-1-65-21-23s-3 54-15 104c0 0-8 26 14 14zm90-25s6-60 9-93c4-34-11-47-18 0-7 46-19 77-13 104zm71-12s-7-118-20-129l-26 134zm280-75 29-220s16-146-22-29c-37 116-60 279-60 279z" fill="#fc0"/>

<path d="m453-830a5 5 0 1 0 0 1zm0-50a10 10 0 1 0 0 1zm-115 20a25 25 0 1 0 0 1zm250 5a25 25 0 1 0 0 1zm-91 168-5 15-14-7 7 15-14 6 15 5-6 15 14-7 5 15 5-15 14 7-7-15 14-6-15-5 6-15-14 7zm-90 169c-22 1-44 9-64 25 43-21 98-25 136 8l12-7c-27-17-56-27-84-26zm168 17c-19 0-37 6-49 19-17 19-13 61-12 84 0 20 7 57-7 75-12 2-24-2-36-8l-12 7c24 10 40 10 60-4 10-7 7-61 7-91 32 12 52 5 64-8l-6 3c-22 19-44 2-58 0 1-7 1-14 2-21 5-1 10-2 16-2-5 2-9 8-9 12 0 15 40 13 40 0 0-2 0-5-1-6 5 2 9 5 14 8 10 11 9-1 9-1-20-23-38-30-69-19 1-5 2-10 3-14 22-9 47-8 64 11l6-3c-18-21-47-20-70-9 6-25 22-35 63-19l13-8c-10-4-21-6-32-6zm-152 13c-20 0-41 7-56 20 18-7 56-23 81-8l6-4c-9-5-20-8-31-8zm-6 16c-23 0-48 11-65 26-6 4 26-5 39-8-4 1-7 6-7 10 0 17 42 20 44 0 0-5-4-11-12-12 20-1 35 10 49 24-6-29-26-40-48-40zm-46 36-6 4c15 8 32 14 49 16 18 1 30-14 48-10 1 0 4-5 6-4-16-3-28 9-44 10-18 1-37-7-53-16zm378 4-6 4c16 0 34 6 36 25 0 3 1 5 1 8-5-1-7-3-17-7-13-5-17 7-17 7s-3 2-1 2h6c-1 2-2 3-2 5 0 12 23 11 23 0v-1c4 0 6-1 8-2-1 15-5 30-3 44 3 16 25-2 34 6l6-3c-10-10-25 8-33-4-4-18 1-39 1-55 2-21-19-29-36-29zm93 1c-15 0-30 6-43 16l12-3c21-16 46-10 64 8l12-4c-14-12-30-17-45-17zm-7 33c-15-1-22 8-22 8s0 2 6 0c2-1 6-1 11 0-2 1-3 3-3 5 0 14 24 15 24 0 0-1-1-3-1-4 8 1 22 1 22 1-2-6-9-4-18-4-8-1-5-5-19-6zm-32 67c-2 1-5 2-9 1-7-2-10 8-10 8 0 8 20 5 32 5 12-1 10-5 6-5-5-1-6-3-12-7-2-2-4-2-7-2zm4 20c-6 0-12 0-17 1-4 8 1 8 12 9s14-3 15-8c0-1-5-2-10-2zm-325 10c-20 2-18 15-45 14 0 0-2-1 1 7 2 7 40 0 62 1 23 2 17-10 17-10-10-2-7-9-22-9-6 3-6-2-13-3zm18 32c-1 1-3 1-5 2-6 3-36-1-36-1 4 14 17 14 32 13s15-9 15-12c-2-2-4-2-6-2zm363-346a10 10 0 1 1 0-1zm75 10a15 15 0 1 1 0-1zm-140 0a15 15 0 1 1 0-1z" stroke="none"/>
</g>


<g id="spica" stroke-width="0">
<path d="m1100 607v-76" stroke-width="16"/>
<path id="c" d="m1100 536c17-13 10-38 0-46-10 8-17 33 0 46z" fill="#f00" stroke-width="3"/>
<path d="m1100 486c0-5 7-37 0-37-6 0-1 31 0 37"/>
<g id="e">
<path d="m1127 504c2-9 14-35 13-37-7 3-15 35-13 37zm-9 0c2-8 12-42 11-42-7 4-13 36-11 42zm-8-10c1-5 11-37 9-38-9 5-9 28-9 38"/>
<use transform="rotate(30,1069,552)" xlink:href="#c"/>
<use transform="rotate(30,1012,567)" xlink:href="#c"/>
<use transform="rotate(30,955,582)" xlink:href="#c"/>
</g>
<use transform="matrix(-1,0,0,1,2200,0)" xlink:href="#e"/>
</g>

<use transform="rotate(50,1104,701)" xlink:href="#spica"/>
<use transform="rotate(-50,1099,695)" xlink:href="#spica"/>


<g id="lief-viens" fill="none">

<path d="m1443 614 11 6m-184 332s34-8 61-5c10 1 22-2 22-2m-95-22c11 1 32 6 36 13-4 7-29 18-29 18m10-2c26 17 60 22 86 31m-81-33c6 2 5 1 11 1 10 0 21-1 30 2 15 3 44 24 59 17m-190-19c21 1 37 2 55 8-18-6-42 10-32 25m-572-469c12 18 7 21 9 35m39 17c12-25 29-25 46-35m20 114c-20 10-26 17-40 30m-42-54c-3 13-5 14-3 29m-31-77c7 4 6 19 7 28 15-14 4 22 11 25 7 2 5 4 7 37m-50-62c20 13 36 50 50 62 5-2 18 42 16 44m-57-29c29 10 31 11 42 31m8 66c17 2 20 1 36 9 8 4 19 8 26 11m48-7c4-20 27-23 22-46m-112 76c29-11 53 18 74 22m-86 14c38 25 53-6 90 7m32-30c2 11 7 10 9 17m163 101c15-2 15-13 7-26m-115-89c-3-16 1-25 5-40m10 115c-1 5-1 14 3 18m-18-1c3 0 6-1 10-1 9 1 9 4 15 3s15 0 18 5c4 7 13 7 13 7m-57 50c8-4 14-18 18-16s1 15 11 1c7-14 11-9 13-19 0-10 8-14 13-16m47-21c-9-5-19-4-31-2m-57 35c15-10 24-9 38-11 19-3 17-1 27-1 6-1 7 0 19-9 6-4 12-7 17-8m16 57s6-20-35-22c-16 0-31 8-35 11-7 1-8-6-9-7-7-1-10-5-10-6m526-15c1 2-14 30-45 16m-689-258v-29c0-6 7-16 8-26s3-13 10-14 10-6 13-12c3-7 4-11 13-8 10 3 12 0 16-6s7 5 28 2m798-112c-8 7-17 17-23 26m-4 52c8-7 15-14 22-21m-126 194c1-6 1-15 0-21-3-9-4-18-4-27-1-14-8-21-13-30m-653 276c-2 2 5 34 50 2m182-77c-13 15-40 4-49 29m57 12s-46 17-54 6m214-45c16 18 56 11 45 41-10 20-39 7-58-1m-393-245s-9 0-15 6c0 4-6 3-18 5-5 6-12 3-23 0-6 4-7 7-7 15-5 12-2 20-1 28m34 56c7 15 9 11 20 26m10-3c1-8 15-30 27-16m-112-260c-3 5 2 14-1 16-6 3-9 17-11 25m-43-219c-3 7 10 10 25 9 10 3 2 17 9 22m-4 137c-5-12 21-56 9-57 9-16 9-30-1-33l-31-31c-6-13-20-18-21-4m136 232c-16-16-20 23-31 15-6 3-6 22-19 31m-20-22c5 20-1 24 9 56m-56-120s5-2 4-3c-7-18 4-22 11-17 11-14 23-5 24 10 12-7 15 1 12 26 21 8-5 21-5 34 6 1 14 2 0 15-4 4-10 5-14 11-2 10 1 17 0 20s0 12 1 16m8 38c5 15 27 38 36 49 13 13 18 23 28 36m-138-170s5 1 9 7c4-9 19-4 25 12 5-4 11-4 15 21 5-2 7-5 10 22m39-67c-3-10-1-17 1-23 3-17 12-20 17-14 17-28 26-14 23-8 25-20 19-2 27-5m-27-33s-7 5-11 4c-11-4-11 9-17 10-22-3-13 21-21 25m-15-82s-7 29-9 40m-57-102c12-10 13-6 20 22 6-7 15-10 14 16 5-4 8-4 8 19-18 65 4 8-2 49m57-210c-4 1-7 16-7 22-16-11-11 14-8 25 0 8-7 5 4 22 7 10-4 15-4 20 1 2-12 5-9 26-7-5-9 23-9 30-3 3-7 9-7 13 6-6 17-19 23-22 7-6 20-15 26-22m-29-100c8-25-5-37 4-35 17 9 13-33 41-19 5-16 22-9 24-8m-116-10c2-11 16 3 16 14 3-3 12-16 14 13 4-3 13-4 5 29-9 9-8 24-2 30m16-138c-3-1-10 2-5 10 2 5 6 12 2 20-8 10-7 18-2 21m-10-41c3 13 0 17 0 20 9 5-19 28 8 32 2 4 5 6 8 13m-13-86c0-14-3-20-10-35-5-18 9-12 9-12-10-19 2-24 5-23m-10 698c-1-1 4-4 14-4-19-19 11-5 25-11-11-12 18 1 27 3-1-11 7 5 38 12m3 1c-7-8-18-7-20-16-2-6 6-6 4-15-3-6-14-25 1-22m-109-2c11-3 18 6 26 1-9-17 26 1 33 1 10-1 12-3 17 2s6 7 9 10c3 4 9 14 21 18m552 89s-15 0-28 14m179-548c6 3 7 8 7 8m22-216s5 25-5 58m-79 606c53-3 46-17 99-19m-38-56s7-9 8-18m85-100c-7 5-16 10-25 15m-72 106c16-11 34-22 53-23m-33-63c-9 11-11 30-11 30m-21-134c3 3 15 13 18 25s6 20 12 30c5 9 12 24 11 34m-18-113c-7-25-16-50-41-64-6 9-5 28-5 28m88-140s-16 16-19 28m58-1s-12 23-16 42c-3 19-4 30-2 39m38-49c-19 52-67 73-42 112m-46-146s12 1 18 11m-18-10c-6 19-7 36-5 48s6 41 16 56 6 6 8 12m29-278c-5 37-37 45-43 86m-49 17c9 13 21 14 25 29m-8-201s24 21 24 59c0 0 1 27 0 36m-3 28c-1 11 3 14 0 25s-10 17-11 29c0 12 1 21-2 24m-731 399c13-13-13-47 2-49 5-1 11 16 14-19 1-28 7-7 27-23m747-39s-5 10-15 16" stroke-linejoin="round"/>

<path d="m1425 666c0 3-2 10-2 10m-3-18c0 3-2 9-2 10m-7 10s6 1 12 1m28 31s-2 6-4 10m2-18c-1 3-3 8-5 12m-1-24c-1 3-3 8-5 12m2-17c-1 3-3 8-5 12m1-20c-1 3-3 8-5 12m70 154c0-3 1-7 4-10m-12 11c0-3 1-7 4-10m10-23c2-4 5-7 6-8m6 4c2-4 5-7 6-8m-29 16c2-4 5-7 6-8m-828-633c2 2 3 5 4 6m675 625s2 4 5 6c4-4 10-6 10-6m0 9c-2 2-7 3-10 4-3-1-6-5-6-5m13-16c-2 1-6 5-6 5m1-16s-4 19 0 44m-24 146c5 5 10 19 10 19m-14-20c2 8 2 13 2 13m-7-14c2 4 1 8 1 8m-27-30c0 2 2 6 2 6m4-6c0 3 1 7 3 8m19-9s-4 0-8 2m6 3c4 4 5 14 5 14m18-13s-6 0-11 4c0 3 3 8 3 7m-10-35c1 3 5 7 8 9m-2-10c0 3 15 6 16 8m-25-13c-1 3-6 7-6 7m-1-6c0 2-5 7-7 8m-52-6c-9 6-15 8-15 8 9 2 16 7 16 7m-18-16c-4 4-5 5-7 10m-2-8s-4 6-4 8c3 4 9 9 9 9m-15-15-7 8s4 5 6 7m-603-448c2 4 8 4 11 7m42 96c0-3 3-3 4-3m-37-162c5 0 9 2 13 4m74 20c4 0 7 2 10 2m-110-44c5 5 12 5 15 10m82-180c2-1 5-3 5-3m-11-14c1 2 6 17 1 23m-29-73c3 5 4 10 4 10 4-2 10-2 14-6m2-16c0 3-7 10-11 10l-3-6m-55 75c4 3 7 9 16 12-1-10 6-15 6-22m-11 70c-2 3-2 5-2 8m76-18c-2 1-2 6-2 6m13-10c-1 2-5 8-3 10m3 42c1 4 1 10 1 10 4-1 7-1 7-1m-15 17s11-7 15-8m25 266s-4 5-3 10c3 1 5 3 5 3m2 46s1-8 5-12m6 97c-1-3-4-4-4-4m-78 86c3 2 8 5 8 7m77-56s7 1 10 10m110 162s-1-4-1-8m3-63c3 4 4 6 11 9m572-680c-3-18-26-32-29-53m26 26c1-17-9-32-10-47m20 50c4-10 7-23 6-34m-67 231c18 13 40 45 54 53m48 85c-1-7 4-14 9-18m-6 136c-2 5-4 8-4 13m18-4c-3 0-6 0-9-1m13-3c-2 1-4 1-7 0m6-12c-2 3-3 6-4 9m12-14c-1 1-2 5-2 8 7-1 12-2 18-2m4-7c-2 1-6 2-8 0m-144-6c5 1 10 4 15 7 0-4 5-7 7-10m-22 11c5 4 12 9 18 8m0-3c4-2 4-6 7-9m-5 22c-4 1-10 0-13-2m3 9c3 3 7 4 10 4m1 4c1-4 5-6 7-7m-75 69c3 1 8 6 11 4 2-4 6-11 6-11m-17 13c4 2 8 7 12 7l9-16m-7 27c4-2 8-13 8-18m137-54c-3 6-7 13-6 19m-5-12c0 5-1 15-6 18m35-13c-6 0-12 0-16 2m-14 9c3-1 7 1 11 1m-20 4c3-1 6 0 9 0m-8 4h-9m-9-2c-1 2-2 5-2 8m12-2h-7m8 16c-5 5-12 11-16 17m1 9c-4-1-10-3-13-7m40 3c-4-3-8-5-13-7m25 3c-5-1-11-2-15-5m20 3s-7-3-10-5m-19 77c-5 1-11 2-17-2m-30-675s5 2 6 4m-6 3s5 6 8 7c2-2 5-11 5-11m2 4s-4 7-5 12m8 1s0 9-3 13m-14-4s-1 7-3 9m-4 3 6 2m7-5-3 9m34-22s-7 2-8 6m5 6s-6 1-8 6m40 11s-6 4-8 8m-7-3s3 7 5 10m-7-5s2 7 5 9m-9 4s3 9 5 10m10-3s-11 9-13 14m20 9s-8 7-10 4m-13 16s8 1 16-2m-88-45s5 4 10 6m6-3s1 9-2 13m-8 6s7 3 12 3m-5 6s5 3 8 2m6-2-1 8m-30 27s5 3 9 3m-8 2s7 3 11 3m-7 4c1 0 6 3 9 1m-6 3s6 4 9 3m-5 10s7 4 11 3m59-15s-2 10-1 13m11 2s-11 3-14 5-5-10-5-10m-4 15 1 8m7 2s-6 0-8 3m9 2s-9-1-11 2m18 28s6-7 13-11 14-10 17-14m-14 1s-2 8-1 12m-6-7s-4 7-1 11m21-10c-1 1-5 2-8 2m19 28s1 6 3 7m4 8-9 3-5-10m-5 13 9 9s11-3 12-4m-3 8-11 6-9-11m1 8s1 8 6 10m-50-22s-1 6-4 8m8-1c0 1-4 6-6 7m-12 2s7 7 13 7m-14-1s9 7 14 7m9 3s-5 4-6 8c-4 1-14-4-14-4m4 11s4 2 10 3m75-12s-4 4-11 4m1 12s-6-1-9 0m5 3s-6 1-8 1m-4-3s-3 5-2 8c3 1 11-1 11-1m-5 5s-6 2-10 2m-5-3s-1 7 1 9c2 1 10-1 10-1m-124-162s1 5 0 7m4-6s2 8 0 10m-6 3s6 1 10-1c3-1 1-7 1-9m8 6s0 8-2 9m9 0c0 1 2 3 0 5m0 51s1 7-2 9m5-1s-1 3 0 6m-3 7s4 1 8 0m-4 5s3 2 7-1m-2 5s3 3 7 0m-48-16s1 4 2 9l-7 4m7 7 10-4m6-6s1 7 0 9m6-3s1 5 0 7m-6 12s8 2 16-3m-11 8s11-2 14-6m-8 10s10-2 12-6m5-2s-1 5 0 7m-7 7s7 0 11-3m-68 11s4-1 6-3m3 10s5 0 9-4m-3 8s7-1 9-6m146 2s2 11 5 13m13-13s-7 3-9 6m-12-2s3 12 4 13m-8-11s2 14 4 17m-10 52s8 3 15 1m13-31v6l8 2m-12-7v9m-14 12 12 1m-8-17v13m7-46s-6 0-8 2m-128 37s6 5 16 4m6-15s-3 9-8 10m-17-4s12 3 16 1m5-16s-3 8-7 9c-3 2-16-1-16-1m19-16s-2 9-5 12m2-19s-2 12-4 15m0-20s-1 12-3 14m-14-10s8 5 11 4c2-3 1-14 1-14m-14 3s8 5 11 5m25 299c3 2 7 3 9 3" stroke-width="2"/>

<g stroke-width="3">
<g id="nuts" fill="#e97">
<path d="m1371 822c0-6 5-11 11-11s11 5 11 11-5 11-11 11-11-5-11-11zm70-22c0-6 5-11 11-11s11 5 11 11-5 11-11 11-11-5-11-11zm66-88c0-6 5-11 11-11s11 5 11 11-5 11-11 11-11-5-11-11zm-36-27c0-6 5-11 11-11s11 5 11 11-5 11-11 11-11-5-11-11zm74-105c0-6 4-10 10-10s10 5 10 10c0 6-4 10-10 10s-10-4-10-10zm8-51c0-6 5-10 10-10 6 0 10 5 10 10 0 6-4 10-10 10-5 0-10-4-10-10zm-47 67c0-6 5-11 11-11s11 5 11 11-5 11-11 11-11-5-11-11zm19-100c0-6 5-10 10-10 6 0 10 5 10 10 0 6-4 10-10 10-5 0-10-4-10-10zm15-96c0-6 5-11 11-11s11 5 11 11-5 11-11 11-11-5-11-11zm-23 10c0-6 5-10 10-10 6 0 10 5 10 10 0 6-4 10-10 10-5 0-10-4-10-10zm-83-29c0-6 5-11 11-11s11 5 11 11-5 11-11 11-11-5-11-11zm60-36c0-6 5-11 11-11s11 5 11 11-5 11-11 11-11-5-11-11zm-26-22c0-6 5-11 11-11s11 5 11 11-5 11-11 11-11-5-11-11zm31-69c0-6 5-10 10-10 6 0 10 5 10 10 0 6-4 10-10 10-5 0-10-4-10-10zm-25 4c0-6 5-10 10-10 6 0 10 5 10 10 0 6-4 10-10 10-5 0-10-4-10-10zm-740 168c16 3 28 16 28 16s-11 22-44 20c0 0-16 1-18-13-2-23 15-26 34-23zm-86 324s-10-19 14-38c27-15 35 17 18 28-2-2-8 15-32 10zm87-20c45-7 34-45-4-30-31 2-15 41 4 30zm-75-310c-14-9-23-39-13-48 28-10 53 26 38 44-5 10-18 9-25 4zm-49 146c-16-28-2-40-2-40s24-7 35 28c12 21-20 34-33 12z"/>

<path d="m683 718c10-6 15-6 18 6l6-2c-4-16-16-19-28-9"/>
</g>

<path d="m1475 526c5 4 13 13 13 13m-805-154c-1 20-21 27-31 27 14 6 31-9 31-27m38 41c-11 8-9 29-4 36m14 238c-13 8-3 24 6 29m-75-17c0 16 8 29 18 28m-69-174c13 8 31-7 32-12m635 372c12-1 23-4 32-9 14-8 28-14 41-20m-61 43c13 0 26-4 38-7 11-3 25 3 31-2m-161 12c27-2 54-7 82-7m-44 32c6 1 29 7 27 2-14-2-37-8-46 11m-503-387c1 4 2 9 0 11m-56-242s2 3 2 7m-23-10s2 5 12 11m45-81c3-4 20-13 22-13m-10-20c1 3 1 10-1 17m5-30c5 5 8 14 6 20 5-1 11 0 14-4m-36 43c-12-22 40-44 36-68m-44-42c1 3 3 10 6 13 3-2 12-6 12-6m-16 29c2-33 17-39 18-69m-36 100c4 8-1 21-1 21-5-6-12-6-15-7m-14 500c8 2 12-3 20-4m-48-280c3 3 14 4 14 4 0-4 1-11 4-14m48-148s-4 5-7 14c-9-3-12-3-12-3m6-26c-1 4-2 10-2 16-9-3-13-3-13-3m66-20v7m6 53c1 10 1 18 4 21 3-1 17-11 17-11m-29 8c0 7 6 15 6 15 4-1 15-3 15-3m21-55c-17 4-24 34-30 46-8 10-11 22-12 33m-46 9c2 8 0 18-4 23m-5-29c-1 4 1 14-3 15m-7 13c3 4 12 13 17 13m-25-52c2 5 3 12 7 16 16 17 25 40 21 65-1 5-1 15 0 16m-35-17c-2 3 0 11 0 11m-14 3s18 3 22 7c0-8 4-11 4-11m-30-34c4 2 6 9 10 22 3 10 12 18 15 21m59-45c1 1 1 12 0 13m9-19c0 8-1 12 2 12 6-2 12-2 16 1m25-23c3 0 8 3 8 3m1-17s7-6 11-8m-37 100c10-3 19-10 19-10m-14-4c-2 4-4 11-5 14h13m-30-6c-1 7-1 9-1 14 2 0 15 4 19 6m-30-10c1 3-1 10-3 14 6 0 15 1 19 6m-107 47c-2-9 1-13 1-13m139-17c-4 3-4 12-8 14m-12-8c-3 3 0 11-2 16m46 6c0 3-5 5-5 5m-6-8c-2 3-3 5-3 5m-28 0c-1 4-4 8-3 10m-11-2c-3 5-1 13 1 17m4 24s3 3 1 11c6-1 7 0 13 2m-1-21c1 2 1 4 0 10 8-1 14 6 14 6m2-26c0 3 0 7-3 13 8 1 12 4 12 4m15-12c-4-1-22 6-26 7m-91-52s8 6 11 14m-11-27c2 3 10 8 12 11 1-5 6-8 6-8m2 27c-1 1-9 6-12 13-3-8-8-9-8-9m8-47c0 6 2 18 3 23 2 9-1 25-2 31m-31 0c-3 3-3 10-2 10-8-2-15 0-16 0m6 16s15-5 22 2m-42-35c4-1 10-1 16 0 0-2 4-11 4-25m-30 13c5-1 8-2 15 0-4-6-12-14-15-23m90 210c6-4 17-5 22-3-11-4-22-23-22-27m-69-82c-3-2-14-5-17-8m55 30c-5-3-10 2-9 4m-16-37c1 8 10 21 10 21-14 0-20 6-20 6m-4-24s3 7 4 10c-9 2-14 7-14 7m56 73c4 8 2 14 9 16-8 0-11 5-18 8m-23-26c11 4 29 15 41 18m88-76c-2-8-1-12 4-16m-14 11c0-3 2-5 2-5m50 83c-3-1-9-1-14 1 1-5-6-11-6-11m9-17c2 1 4 4 7 15 5 1 11-3 11-3m-83 55 9 14c-10-3-15 1-15 1m-20-20c9 3 9 6 17 11-1 0-9 3-11 9m-34-10c9 2 20 0 20 0-2 2-7 4-9 11m-26-3c15-1 21-4 34-8m58 33c4 0 8 7 8 8m-24-8c4 2 6 5 8 8m-26-10c4 2 10 9 11 12m74-29c-2-12-4-29-2-35m-6 45c9-2 15 3 15 3 0-9 5-11 7-15m-7-14c-4 6-6 10-7 18-4-5-13-11-20-12m188 145c-6 1-29 7-26 2 13-2 36-8 45 11m-124-158c-1-3-7-7-11-7m12-4c-2-7-9-10-11-12m114 130c-4 3-9 9-9 16m-103 15c9 1 13-5 21-6m19-8c-5 4-7 11-7 18m8-19c-6-1-11-1-15-4m-2 11c-5 1-9 1-15-3m12 5c-6 11-10 16-11 18m47-10c-3 9-9 18-20 23m40-44c-9 1-12 7-13 9m30-10c-5 2-8 7-12 11m-4-33c-7 2-22 2-32-1m20-9c4 6 9 9 13 10m1-12s5 8 12 10m4 1c-12 5-8 10-15 13m-1-12c-10 4-13 10-13 10m617-722c-6 37-19 56-22 88m-31 25c0-26-29-49-32-82m51 159c3-27 20-54 37-74m-98-18c14 13 23 48 35 60m-50-19c8 20 43 26 50 42m24 46c11 30 13 64 13 92m27-29c21-21 19-45 26-69 2-6 5-11 8-16m-37 138c2-40 43-65 59-103m5 42c-14 28-33 49-51 68-5 6-10 8-16 12m26 14c7-2 38-30 43-36m-82 122c37-18 53-48 81-70m-197-114c11 7 19 14 31 18m8 3c10 27 31 66 40 107m105 35c-24 16-48 34-72 45m51 14c-27 16-54 33-81 45m77 11c-37 7-73 13-110 17m-4 49c36-6 40-18 77-24m-1 29c-22 11-49 13-74 14m-61-111c5 10 8 35 10 41 2 9 1 17 3 26s7 5 10-1m35-56c4-32 13-69-3-97-4-9-5-20-7-29m85-90c7-13 12-29 5-23-1 6-4 11-8 16m-849-218c-4-15-13-29-18-43-4-10-8-20-10-30m443 386s3 32 2 57m33 87s-4 13 1 47m14-98c-7-1-25 2-25 25v73m22-112s-13 0-21 7m31-55c-7 6-22 26-28 51m-14-45v154m-47-114s14 0 24 7m-13 51c9 4 18 9 21 56v-95m-22 50c7 6 11 22 10 45m-33-105c39-7 36 44 35 57m-16-98s9 19 10 34m-42-49s21 12 28 41m-393-329c10-14-17-35-23-55m906 336-1 11m6-15v9m5-16s0 9 1 11m31-19s-10 0-14 2m4 8s-9 0-14 3m31-22h-10m-5-5v10h9m-12-80s-5 4-13 3m21-14s-5 2-9 2m-64-4s10 21 10 30m-66 64s12 2 17-1m-23-4s13 1 16-2m-6-17s2 9 0 12-15 2-15 2m-8-5s14 3 16-5c2-7 2-10 2-10m-18-14s2 10 0 13m-17-1s5 0 9-4m-15-3s3 1 9-2m25 168c1-22-40-80-40-80m139-76s-5 10-6 15m-129-38c19 21 55 38 69 60m-65-188c33 17 65 46 82 72 4 8 7 13 15 17m-90 309s26-5 28-21m-8-377s27 18 44 45c15 26 14 26 20 33m14-51c-1 20-10 44-1 60 4 6 7 17 7 34 0 5-2 29 3 15 2-11 15-36 21-37m-8-111c-8 17-10 40-10 59m-45-136c2 5-2 11-2 11"/>
</g>
</g>

<path id="crosses" d="m1135 200h-6m3-3v8m-46-34h8m-4-4v10" stroke-width="1.2"/>
</svg>
