<svg width="800" height="400" version="1.1" viewBox="0 0 800 400" xmlns="http://www.w3.org/2000/svg" xmlns:xlink="http://www.w3.org/1999/xlink"><radialGradient id="a" cx="0" cy="0" r=".74" gradientTransform="matrix(35.16 0 0-35.16 370.8 202.7)" gradientUnits="userSpaceOnUse"><stop stop-color="#FFF" offset="0"/><stop stop-color="#f2f2f2" offset=".53"/><stop stop-color="#e5e5e5" offset="1"/></radialGradient><radialGradient id="b" cx="0" cy="0" r=".99" gradientTransform="matrix(79.34 0 0-79.34 428.6 214.3)" gradientUnits="userSpaceOnUse"><stop stop-color="#FFF" offset="0"/><stop stop-color="#e5e5e5" offset=".32"/><stop stop-color="#FFF" offset=".5"/><stop stop-color="#FFF" offset="1"/></radialGradient><linearGradient id="d" x1=".34" x2=".66" gradientTransform="matrix(37.9-47.62-50.06-39.84 400.1 250.4)" gradientUnits="userSpaceOnUse"><stop stop-color="#CCC" offset="0"/><stop stop-color="#FFF" offset="1"/></linearGradient><linearGradient id="e" x1=".19" x2=".81" gradientTransform="matrix(14.87 19.66 20.16-15.25 387.3 200.9)" gradientUnits="userSpaceOnUse"><stop stop-color="#CCC" offset="0"/><stop stop-color="#FFF" offset="1"/></linearGradient><linearGradient id="f" x1=".46" x2=".54" gradientTransform="matrix(-15.03-14.31-14.29 15 417.4 204.7)" gradientUnits="userSpaceOnUse"><stop stop-color="#CCC" offset="0"/><stop stop-color="#e5e5e5" offset="1"/></linearGradient><linearGradient id="g" x1=".28" x2=".72" gradientTransform="matrix(18.08 15.63 15.43-17.86 381.2 201.9)" gradientUnits="userSpaceOnUse"><stop stop-color="#CCC" offset="0"/><stop stop-color="#FFF" offset=".62"/><stop stop-color="#CCC" offset="1"/></linearGradient><linearGradient id="h" x1=".04" x2=".96" gradientTransform="matrix(1.371 7.449 4.845 -.8917 385.6 238.7)" gradientUnits="userSpaceOnUse"><stop stop-color="#e5e5e5" offset="0"/><stop stop-color="#FFF" offset=".42"/><stop stop-color="#e5e5e5" offset="1"/></linearGradient><linearGradient id="i" x1=".33" x2=".67" gradientTransform="matrix(2.626-11-9.453-2.256 387 250.6)" gradientUnits="userSpaceOnUse"><stop stop-color="#CCC" offset="0"/><stop stop-color="#FFF" offset="1"/></linearGradient><linearGradient id="j" x1=".31" x2=".69" gradientTransform="matrix(-4.473-8.947-8.967 4.484 399.4 244.3)" gradientUnits="userSpaceOnUse"><stop stop-color="#CCC" offset="0"/><stop stop-color="#FFF" offset="1"/></linearGradient><linearGradient id="k" x1=".29" x2=".71" gradientTransform="matrix(-1.906 32 5.017 .2988 386.9 216.3)" gradientUnits="userSpaceOnUse"><stop stop-color="#e5e5e5" offset="0"/><stop stop-color="#FFF" offset="1"/></linearGradient><linearGradient id="l" x1=".16" x2=".84" gradientTransform="matrix(11.71 .3394 1.265-43.64 386.9 238.6)" gradientUnits="userSpaceOnUse"><stop stop-color="#CCC" offset="0"/><stop stop-color="#FFF" offset=".41"/><stop stop-color="#CCC" offset="1"/></linearGradient><linearGradient id="m" x1=".16" x2=".84" gradientTransform="matrix(13.04-3.668-5.486-19.51 385.3 158)" gradientUnits="userSpaceOnUse"><stop stop-color="#CCC" offset="0"/><stop stop-color="#FFF" offset=".54"/><stop stop-color="#CCC" offset="1"/></linearGradient><linearGradient id="n" x1=".15" x2=".85" gradientTransform="matrix(.9136-20.81-22.16 -.9728 407.8 166.9)" gradientUnits="userSpaceOnUse"><stop stop-color="#CCC" offset="0"/><stop stop-color="#FFF" offset="1"/></linearGradient><linearGradient id="o" x1=".04" x2=".96" gradientTransform="matrix(-11.98 28.42 23.75 10.01 398.5 145.6)" gradientUnits="userSpaceOnUse"><stop stop-color="#CCC" offset="0"/><stop stop-color="#FFF" offset="1"/></linearGradient><linearGradient id="p" x1=".47" x2=".53" gradientTransform="matrix(-18.33-61.09-105.2 31.56 453.8 146.2)" gradientUnits="userSpaceOnUse"><stop stop-color="#e5e5e5" offset="0"/><stop stop-color="#FFF" offset="1"/></linearGradient><linearGradient id="q" x1=".26" x2=".74" gradientTransform="matrix(-3.369-6.739-8.528 4.264 388.5 136.2)" gradientUnits="userSpaceOnUse"><stop stop-color="#CCC" offset="0"/><stop stop-color="#FFF" offset="1"/></linearGradient><linearGradient id="r" x1=".12" x2=".88" gradientTransform="matrix(1.018 17.43 23.44-1.369 394.2 183.8)" gradientUnits="userSpaceOnUse"><stop stop-color="#CCC" offset="0"/><stop stop-color="#FFF" offset="1"/></linearGradient><linearGradient id="s" x1=".31" x2=".69" gradientTransform="matrix(-8.266-11.92-12.37 8.58 450.8 143.6)" gradientUnits="userSpaceOnUse"><stop stop-color="#CCC" offset="0"/><stop stop-color="#FFF" offset="1"/></linearGradient><linearGradient id="t" x1=".25" x2=".75" gradientTransform="matrix(3.842-9.106-7.322-3.089 445 150.5)" gradientUnits="userSpaceOnUse"><stop stop-color="#CCC" offset="0"/><stop stop-color="#FFF" offset="1"/></linearGradient><linearGradient id="u" x1=".31" x2=".69" gradientTransform="matrix(8.493-8.304-8.321-8.51 442.4 156.7)" gradientUnits="userSpaceOnUse"><stop stop-color="#CCC" offset="0"/><stop stop-color="#FFF" offset="1"/></linearGradient><linearGradient id="v" x1=".25" x2=".75" gradientTransform="matrix(-3.429-9.859-8.58 2.984 446 150.2)" gradientUnits="userSpaceOnUse"><stop stop-color="#CCC" offset="0"/><stop stop-color="#FFF" offset="1"/></linearGradient><linearGradient id="w" x1=".12" x2=".88" gradientTransform="matrix(9.648-3.584-2.844-7.657 437.2 156.6)" gradientUnits="userSpaceOnUse"><stop stop-color="#CCC" offset="0"/><stop stop-color="#FFF" offset="1"/></linearGradient><linearGradient id="x" x1=".21" x2=".79" gradientTransform="matrix(6.225-7.812-7.703-6.138 437.9 156.6)" gradientUnits="userSpaceOnUse"><stop stop-color="#CCC" offset="0"/><stop stop-color="#FFF" offset="1"/></linearGradient><linearGradient id="y" x1=".21" x2=".79" gradientTransform="matrix(-10.72-3.854-2.382 6.625 444.2 152.1)" gradientUnits="userSpaceOnUse"><stop stop-color="#CCC" offset="0"/><stop stop-color="#FFF" offset="1"/></linearGradient><linearGradient id="z" x1=".19" x2=".81" gradientTransform="matrix(-10.84 4.383 3.577 8.848 438 142.3)" gradientUnits="userSpaceOnUse"><stop stop-color="#CCC" offset="0"/><stop stop-color="#FFF" offset="1"/></linearGradient><linearGradient id="aa" x1=".23" x2=".77" gradientTransform="matrix(-10.02 .189 .06333 3.357 436.8 146.4)" gradientUnits="userSpaceOnUse"><stop stop-color="#CCC" offset="0"/><stop stop-color="#FFF" offset="1"/></linearGradient><linearGradient id="ab" x1=".22" x2=".78" gradientTransform="matrix(-12.59-5.84-4.866 10.49 437.6 143.2)" gradientUnits="userSpaceOnUse"><stop stop-color="#CCC" offset="0"/><stop stop-color="#FFF" offset="1"/></linearGradient><linearGradient id="ac" x1=".25" x2=".75" gradientTransform="matrix(-6.778-12.56-12.15 6.558 429.2 144.7)" gradientUnits="userSpaceOnUse"><stop stop-color="#CCC" offset="0"/><stop stop-color="#FFF" offset="1"/></linearGradient><linearGradient id="ad" x1=".15" x2=".85" gradientTransform="matrix(-6.423-11.34-10 5.666 436.7 153.6)" gradientUnits="userSpaceOnUse"><stop stop-color="#CCC" offset="0"/><stop stop-color="#FFF" offset="1"/></linearGradient><linearGradient id="ae" x1=".24" x2=".76" gradientTransform="matrix(-12.78-7.068-6.747 12.2 443.5 150.8)" gradientUnits="userSpaceOnUse"><stop stop-color="#CCC" offset="0"/><stop stop-color="#FFF" offset="1"/></linearGradient><linearGradient id="af" x1=".21" x2=".79" gradientTransform="matrix(-9.294-16.83-14.78 8.162 436.2 150.6)" gradientUnits="userSpaceOnUse"><stop stop-color="#CCC" offset="0"/><stop stop-color="#FFF" offset="1"/></linearGradient><linearGradient id="ag" x1=".23" x2=".77" gradientTransform="matrix(-10.5-4.789-3.816 8.365 432.2 139.7)" gradientUnits="userSpaceOnUse"><stop stop-color="#CCC" offset="0"/><stop stop-color="#FFF" offset="1"/></linearGradient><linearGradient id="ah" x1=".19" x2=".81" gradientTransform="matrix(-7.17-6.355-6.22 7.017 421.8 138.3)" gradientUnits="userSpaceOnUse"><stop stop-color="#CCC" offset="0"/><stop stop-color="#FFF" offset="1"/></linearGradient><linearGradient id="ai" x1=".37" x2=".63" gradientTransform="matrix(-12.29 3.964 2.028 6.288 416.8 129.8)" gradientUnits="userSpaceOnUse"><stop stop-color="#CCC" offset="0"/><stop stop-color="#FFF" offset="1"/></linearGradient><linearGradient id="aj" x1=".21" x2=".79" gradientTransform="matrix(-14.99-5.229-3.451 9.892 429.1 135.1)" gradientUnits="userSpaceOnUse"><stop stop-color="#CCC" offset="0"/><stop stop-color="#FFF" offset="1"/></linearGradient><linearGradient id="ak" x1=".1" x2=".9" gradientTransform="matrix(-6.145-8.367-8.43 6.192 410 141)" gradientUnits="userSpaceOnUse"><stop stop-color="#CCC" offset="0"/><stop stop-color="#FFF" offset="1"/></linearGradient><radialGradient id="c" cx="0" cy="0" r=".72" gradientTransform="matrix(11.7 0 0-11.7 406.2 139.1)" gradientUnits="userSpaceOnUse"><stop stop-color="#FFF" offset="0"/><stop stop-color="#CCC" offset="1"/></radialGradient><linearGradient id="al" x1=".02" x2=".98" gradientTransform="matrix(.06161 8.935 5.05 -.03483 409.4 144.1)" gradientUnits="userSpaceOnUse"><stop stop-color="#CCC" offset="0"/><stop stop-color="#FFF" offset=".63"/><stop stop-color="#e5e5e5" offset="1"/></linearGradient><linearGradient id="am" x1=".11" x2=".89" gradientTransform="matrix(4.134 9.27 9.148-4.08 400.3 144.1)" gradientUnits="userSpaceOnUse"><stop stop-color="#CCC" offset="0"/><stop stop-color="#FFF" offset=".49"/><stop stop-color="#CCC" offset="1"/></linearGradient><linearGradient id="an" x1=".06" x2=".94" gradientTransform="matrix(9.044-1.89-1.579-7.556 402.4 156.7)" gradientUnits="userSpaceOnUse"><stop stop-color="#CCC" offset="0"/><stop stop-color="#FFF" offset=".5"/><stop stop-color="#CCC" offset="1"/></linearGradient><linearGradient id="ao" x1=".25" x2=".75" gradientTransform="matrix(3.412-9.261-6.777-2.497 340.1 168.7)" gradientUnits="userSpaceOnUse"><stop stop-color="#e5e5e5" offset="0"/><stop stop-color="#FFF" offset="1"/></linearGradient><linearGradient id="ap" x1=".24" x2=".76" gradientTransform="matrix(3.908-14.8-11.26-2.972 345.3 167.1)" gradientUnits="userSpaceOnUse"><stop stop-color="#e5e5e5" offset="0"/><stop stop-color="#FFF" offset="1"/></linearGradient><linearGradient id="aq" x1=".28" x2=".72" gradientTransform="matrix(5.772-7.146-7.08-5.719 344.4 164.4)" gradientUnits="userSpaceOnUse"><stop stop-color="#e5e5e5" offset="0"/><stop stop-color="#FFF" offset="1"/></linearGradient><linearGradient id="ar" x1=".22" x2=".78" gradientTransform="matrix(-9.486-6.166-5.567 8.565 360.2 151.1)" gradientUnits="userSpaceOnUse"><stop stop-color="#e5e5e5" offset="0"/><stop stop-color="#FFF" offset="1"/></linearGradient><linearGradient id="as" x1=".26" x2=".74" gradientTransform="matrix(-6.112-7.779-7.692 6.043 363.9 152.5)" gradientUnits="userSpaceOnUse"><stop stop-color="#e5e5e5" offset="0"/><stop stop-color="#FFF" offset="1"/></linearGradient><linearGradient id="at" x1=".28" x2=".72" gradientTransform="matrix(-5.947-8.326-8.614 6.153 368.6 153.5)" gradientUnits="userSpaceOnUse"><stop stop-color="#e5e5e5" offset="0"/><stop stop-color="#FFF" offset="1"/></linearGradient><linearGradient id="au" x1=".3" x2=".7" gradientTransform="matrix(-15.63-8.835-7.286 12.89 379.4 150.8)" gradientUnits="userSpaceOnUse"><stop stop-color="#e5e5e5" offset="0"/><stop stop-color="#FFF" offset="1"/></linearGradient><linearGradient id="av" x1=".24" x2=".76" gradientTransform="matrix(-18.35-3.058-1.396 8.374 381.9 153.2)" gradientUnits="userSpaceOnUse"><stop stop-color="#e5e5e5" offset="0"/><stop stop-color="#FFF" offset="1"/></linearGradient><linearGradient id="aw" x1=".22" x2=".78" gradientTransform="matrix(-21.15-1.442 -.5893 8.643 387.3 156.8)" gradientUnits="userSpaceOnUse"><stop stop-color="#e5e5e5" offset="0"/><stop stop-color="#FFF" offset="1"/></linearGradient><linearGradient id="ax" x1=".25" x2=".75" gradientTransform="matrix(-20.44-5.24-3.431 13.38 392.2 161.1)" gradientUnits="userSpaceOnUse"><stop stop-color="#e5e5e5" offset="0"/><stop stop-color="#FFF" offset="1"/></linearGradient><linearGradient id="ay" x1=".28" x2=".72" gradientTransform="matrix(-21.7-12.06-11.03 19.85 401.4 168.4)" gradientUnits="userSpaceOnUse"><stop stop-color="#e5e5e5" offset="0"/><stop stop-color="#FFF" offset="1"/></linearGradient><linearGradient id="az" x1=".23" x2=".77" gradientTransform="matrix(-20.41-17.01-17.12 20.54 407 178.4)" gradientUnits="userSpaceOnUse"><stop stop-color="#e5e5e5" offset="0"/><stop stop-color="#FFF" offset="1"/></linearGradient><linearGradient id="ba" x1=".38" x2=".62" gradientTransform="matrix(-10.69 19.12 16.54 9.241 345.8 140.8)" gradientUnits="userSpaceOnUse"><stop stop-color="#e5e5e5" offset="0"/><stop stop-color="#FFF" offset="1"/></linearGradient><linearGradient id="bb" x1=".3" x2=".7" gradientTransform="matrix(-34.18-20.58-20.07 33.34 377.2 165.9)" gradientUnits="userSpaceOnUse"><stop stop-color="#e5e5e5" offset="0"/><stop stop-color="#FFF" offset="1"/></linearGradient><linearGradient id="bc" x1=".19" x2=".81" gradientTransform="matrix(8.955-16.2-16.64-9.194 341.9 195.7)" gradientUnits="userSpaceOnUse"><stop stop-color="#e5e5e5" offset="0"/><stop stop-color="#FFF" offset="1"/></linearGradient><linearGradient id="bd" x1=".16" x2=".84" gradientTransform="matrix(39.02 13.09 13.4-39.95 341.5 181.7)" gradientUnits="userSpaceOnUse"><stop stop-color="#e5e5e5" offset="0"/><stop stop-color="#FFF" offset="1"/></linearGradient><linearGradient id="be" x1=".27" x2=".73" gradientTransform="matrix(27.35 55.14 47.89-23.75 401.5 230.7)" gradientUnits="userSpaceOnUse"><stop stop-color="#e5e5e5" offset="0"/><stop stop-color="#FFF" offset="1"/></linearGradient><linearGradient id="bf" x1=".27" x2=".73" gradientTransform="matrix(-16.27 0 0 8.628 456.7 269.6)" gradientUnits="userSpaceOnUse"><stop stop-color="#CCC" offset="0"/><stop stop-color="#FFF" offset="1"/></linearGradient><linearGradient id="bg" x1=".3" x2=".7" gradientTransform="matrix(-16.98 -.2952 -.1772 10.19 471.8 269.2)" gradientUnits="userSpaceOnUse"><stop stop-color="#CCC" offset="0"/><stop stop-color="#FFF" offset="1"/></linearGradient><linearGradient id="bh" x1=".28" x2=".72" gradientTransform="matrix(-13.21 1.809 2.655 19.38 330.2 233.1)" gradientUnits="userSpaceOnUse"><stop stop-color="#CCC" offset="0"/><stop stop-color="#FFF" offset="1"/></linearGradient><linearGradient id="bi" x1=".29" x2=".71" gradientTransform="matrix(-13.97 3.582 5.391 21.03 334.1 248.5)" gradientUnits="userSpaceOnUse"><stop stop-color="#CCC" offset="0"/><stop stop-color="#FFF" offset="1"/></linearGradient><linearGradient id="bj" x1=".17" x2=".83" gradientTransform="matrix(-45.2 0 0 47.25 364.7 197.6)" gradientUnits="userSpaceOnUse"><stop stop-color="#CCC" offset="0"/><stop stop-color="#FFF" offset="1"/></linearGradient><linearGradient id="bk" x1=".07" x2=".93" gradientTransform="matrix(84.84-26.23-24.96-80.74 326.8 283.2)" gradientUnits="userSpaceOnUse"><stop stop-color="#FFF" offset="0"/><stop stop-color="#CCC" offset=".32"/><stop stop-color="#FFF" offset=".69"/><stop stop-color="#ededed" offset="1"/></linearGradient><linearGradient id="bl" x1=".2" x2=".8" gradientTransform="matrix(5.007 15.53 19.37-6.244 389.2 177.5)" gradientUnits="userSpaceOnUse"><stop stop-color="#CCC" offset="0"/><stop stop-color="#FFF" offset=".34"/><stop stop-color="#CCC" offset="1"/></linearGradient><linearGradient id="bm" x1=".23" x2=".77" gradientTransform="matrix(-14.53 -.8608 -.8117 13.7 402.4 204.9)" gradientUnits="userSpaceOnUse"><stop stop-color="#CCC" offset="0"/><stop stop-color="#FFF" offset="1"/></linearGradient><linearGradient id="bn" x1=".1" x2=".9" gradientTransform="matrix(-15.16-2.514-2.698 16.27 402.6 203.9)" gradientUnits="userSpaceOnUse"><stop stop-color="#CCC" offset="0"/><stop stop-color="#FFF" offset=".56"/><stop stop-color="#CCC" offset="1"/></linearGradient><linearGradient id="bo" x1=".47" x2=".53" gradientTransform="matrix(63.71-22.78-35.28-98.67 388.4 248.3)" gradientUnits="userSpaceOnUse"><stop stop-color="#e5e5e5" offset="0"/><stop stop-color="#FFF" offset="1"/></linearGradient><linearGradient id="bp" x1=".22" x2=".78" gradientTransform="matrix(-5.711 42.74 39.37 5.261 394.3 146.5)" gradientUnits="userSpaceOnUse"><stop stop-color="#FFF" offset="0"/><stop stop-color="#e5e5e5" offset=".51"/><stop stop-color="#FFF" offset="1"/></linearGradient><linearGradient id="bq" x1=".08" x2=".92" gradientTransform="matrix(-8.902 35.12 28.43 7.207 405.7 150.2)" gradientUnits="userSpaceOnUse"><stop stop-color="#FFF" offset="0"/><stop stop-color="#e5e5e5" offset=".5"/><stop stop-color="#FFF" offset="1"/></linearGradient><rect y="3.815e-6" width="800" height="400" fill="#579945"/><g stroke="#000"><g stroke-width=".75"><path d="m357.4 95.06c27.9-10.82 55.81-10.82 83.72 0l-.8776 1.646c-4.85 9.095-78.71 8.675-82.18 0z" fill="#de212b"/><path d="m407 50.46 1.114-18.03c-2.955-.1551-5.91-.2363-8.956-.2363s-6.001.0812-8.957.2363l1.114 18.03c2.612-.1372 5.226-.206 7.842-.206s5.23.0684 7.842.206z" fill="#f7e63d"/><path d="m440.4 95.06 15.58-29.14c-18.8-7.23-37.71-10.84-56.75-10.84s-37.95 3.611-56.75 10.84l15.58 29.14c27.21-10.76 54.64-11.11 82.33 0z" fill="#f7e63d"/><path d="m406.2 66.86-.5253 19.56h-12.92l-.5249-19.56c1.409-2.392 4.01-3.998 6.987-3.998s5.578 1.606 6.987 3.998z" fill="none"/><path d="m406.2 67.26-.5125 19.09h-12.92l-.5121-19.09c1.707-1.69 4.199-2.756 6.974-2.756s5.267 1.065 6.974 2.755z" fill="#de212b"/></g><path d="m460 66.86-3.399 1.62c-19.02-7.41-38.15-11.1-57.42-11.1-19.26 0-38.4 3.698-57.42 11.1l-3.372-1.611c40.64-18.64 80.55-18.65 121.6-.009z" fill="#f7e63d" stroke-width=".75"/><path d="m399.2 55.06c-19.29 0-38.45 3.707-57.5 11.13-1.413.5511-3.524 1.569-4.333-.1947-.8089-1.764.952-3.217 2.291-3.757 19.72-7.962 39.56-11.94 59.54-11.94s39.82 3.982 59.54 11.94c1.339.5404 3.1 1.993 2.291 3.757-.8084 1.764-2.921.7457-4.334.1947-19.04-7.423-38.21-11.13-57.5-11.13z" fill="#f7e63d" stroke-width=".75"/><path d="m487.1 270v-171.2h-174.7v171.2c0 11.38 9.231 20.61 20.61 20.61h34.92c13.93 0 25.98 8.012 31.82 19.68 5.834-11.66 17.89-19.68 31.82-19.68h34.92c11.38 0 20.61-9.231 20.61-20.61z" fill="#de212b" stroke-miterlimit="10" stroke-width="1.5"/><g fill="#1763ab" stroke-width=".75"><path d="m281.2 137.6c1.506-2.856 4.33-4.141 8.189-3.483-.4079-5.036-4.392-9.992-8.283-12.61l.0133 2.209c-.3723-.1999-.8473-.3197-1.425-.3261l-14.21 3.106c-4 1.758-3.404 5.22 1.224 5.648 4.807.4441 9.599-.7139 14.12-4.424.1133-.0927.2188-.1887.3171-.2865l.0593 10.17z"/><path d="m280.2 122c10.95 6.694 11.38 18.62-2.824 31.06 19.6-13.06 16.52-23.12 4.706-32.57l-1.883 1.506z"/><path d="m263.2 190.5c2.324 3.761 14.22 4.446 19.89 9.268 4.694 3.996 9.103 10.04 11.84 16.3l-9.336 12.2-21.16-26.27c-2.091-1.051-3.647-3.005-4.094-6.303l2.864-5.198zm17.65 51.43c3.374 6.406 5.272 13.63 6.105 21.45 1.83-2.02 3.758-3.991 5.702-6.026 8.398-8.791 12.25-15.79 8.416-24.61l-1.605-1.72-18.62 10.9z"/></g><path d="m301.1 232.7c3.876 8.85.0295 15.86-8.389 24.67-6.337 6.634-12.5 12.6-15.67 21.73l25.33-29.58c1.355-8.408.1448-13.56-1.269-16.83l-.004.005z" fill="#1763ab" stroke-width=".75"/></g><g fill="#f7e63d" stroke="#000" stroke-width=".75"><path d="m265 268.9c-2.429-2.045-4.878-4.117-7.054-6.363-4.92-5.076-8.464-5.396-11.36-3.262-4.396-5.022-11.74-7.269-13.8-1.673-4.681-2.964-10.2-2.422-9.774 1.763-6.312-.9808-7.291 1.986-7.372 3.251-.0809 1.267 1.174 4.404 6.931 3.542-1.429 3.504 2.348 5.497 8.94 4.206-1.109 5.121 6.876 6.043 13.36 1.2.8473 3.143 4.342 4.138 10.06.8409 2.332-1.346 8.537-1.216 10.98-1.193-3.096-1.229-9.172-3.072-12.44-3.93-1.345 2.244-3.513 3.377-5.794 2.95 1.788-.8425 3.264-2.122 3.931-3.424-3.1-.7665-6.3-1.445-9.465-2.025-1.042 2.868-3.308 4.522-5.876 4.262 2.082-1.207 3.648-3.022 3.869-4.618-3.346-.5729-6.619-1.033-9.652-1.368-.6047 1.796-1.9 3.091-3.665 3.544.9763-1.172 1.672-2.504 1.965-3.722-2.526-.2471-4.851-.4013-6.867-.4539 1.696-.5408 4.098-.7608 6.955-.7241-.4861-.954-1.222-1.915-2.124-2.75 1.724.2101 3.125 1.235 3.973 2.806 2.9.1349 6.166.4921 9.58 1.016.0525-1.561-.9575-3.565-2.547-5.171 2.502.4161 4.237 2.537 4.538 5.494 3.2.5424 6.49 1.219 9.694 1.986-.2983-1.111-.9-2.296-1.725-3.366 1.792.5315 3.058 1.931 3.572 3.82 4.033 1.018 7.874 2.169 11.16 3.36z"/><path d="m263.6 243.2c-1.352 1.99-4.784 2.258-7.666.5975-2.881-1.66-4.122-4.621-2.77-6.612 1.351-1.991 4.784-2.258 7.665-.5976 2.881 1.66 4.121 4.621 2.77 6.612z"/><path d="m265 244.2c-1.429 2.149-4.4 2.796-6.635 1.447-.5587-.338-1.018-.7684-1.371-1.258 4.206.5484 6.989-3.351 4.769-7.171.6149.0956 1.22.3084 1.778.6456 2.235 1.35 2.888 4.187 1.459 6.336z"/><path d="m286.5 210.5c-.9215-2.175.7412-5.124 3.711-6.586 2.971-1.462 6.126-.884 7.047 1.29.9208 2.174-.7404 5.124-3.712 6.586-2.97 1.462-6.126.884-7.046-1.29z"/><path d="m284.9 211.1c-1.011-2.323.0801-5.099 2.436-6.2.5889-.2748 1.201-.4188 1.804-.4445-2.768 3.142-1.038 7.512 3.373 7.752-.4176.4505-.9279.8312-1.516 1.107-2.356 1.101-5.086.1089-6.096-2.214z"/></g><path d="m298 323.4c6.354 8.162 19.58 3.279 29.45-.1139l18.73 1.484 4.962 4.239-5.884 7.021-16.83 3.956c-16.44 9.736-30.65 9.028-43.66-.4709l13.22-16.12z" fill="#1763ab" stroke="#000" stroke-width=".75"/><g id="br" stroke="#000" stroke-width=".75"><path d="m368.6 90.96-4.891-15.31c-3.294-10.3 10.66-12.62 12.93-4.578l4.753 16.84-12.79 3.046z" fill="none"/><path d="m376.2 70.06c.1395.3088.2608.6353.3591.9827l4.753 16.84-10.46 2.49-4.438-14.84c-1.942-6.491 6.17-9.287 9.784-5.473z" fill="#de212b"/><path d="m350.3 39.66c-6.027 1.928-12.05 4.262-18.08 7.038l8.154 15.21c6.271-2.502 12.56-4.602 18.85-6.299l-3.805-10.37-5.118-5.578z" fill="#f7e63d"/><path d="m356.4 56.36-6.138-16.72" fill="none"/><path d="m379.5 33.36c-6.12.7243-12.24 1.805-18.36 3.282l4.43 17.41c5.822-1.316 11.66-2.288 17.5-2.918l-1.212-11.3-2.358-6.483z" fill="#f7e63d"/><path d="m343.1 47.27 1.79 4.022m1.789 4.021 1.641 3.689m2.766 6.218 2.098 4.717m1.907 4.287 1.904 4.28m1.9 4.272 1.896 4.264m-1.982-24.13 1.72 4.686m6.836-6.765 1.09 4.702m2.625-26.13.9505 4.542m.94 4.492.8405 4.016m1.445 6.906.966 4.616m.9439 4.509.9437 4.508m4.693-14.65.6032 4.595m.5975 4.554.5976 4.553m.5971 4.551.5976 4.552m5.677-23.5.2532 4.57m7.479-25.4v4.696m0 4.659v4.133m0 7.146v4.562m-11.67.5125.3719 4.568m.372 4.571.3719 4.572m.3715 4.571.3889 4.779m5.204-53.22.1399 4.555m.1429 4.654.1428 4.655m.4864 15.84.0503 1.659m-20.92-29.68.8125 4.668m.7907 4.538.7907 4.542m2.722 15.63.7892 4.531m.7888 4.53.7884 4.529m.7888 4.527.8175 4.697m-18.03-50.57 1.066 4.665m1.016 4.444 1.017 4.452m-23.3-7.89 1.855 4.43m1.708 4.078 1.716 4.096m6.176 14.75 1.806 4.316m1.805 4.309 1.802 4.303m1.799 4.296 1.784 4.259m-29.29-45.39 2.033 4.227m1.881 3.912 1.891 3.932m6.947 14.45 2.041 4.244m2.037 4.236 2.033 4.228m2.029 4.219 1.964 4.085m5.142-25.82.3885 1.64m7.414-3.448.4267 2.191m26.29-4.853c-17.83 0-35.55 3.541-53.16 10.6m46.23-5.832c-5.615.3043-11.22.9777-16.81 2.02m-12.19 2.857c-5.004 1.415-9.998 3.125-14.98 5.132m44.05-5.421c-5.058.2837-10.11.8832-15.14 1.795m-13.31 3.145c-4.466 1.302-8.924 2.851-13.38 4.647m41.95-5.002c-4.678.2717-9.349.8259-14.01 1.662m-13.15 3.111c-4.195 1.234-8.383 2.696-12.56 4.387m39.84-4.576c-4.3.2569-8.592.766-12.88 1.525m-13 3.076c-3.924 1.162-7.843 2.537-11.76 4.122m44.24-52.42c-2.893 0-5.784.0836-8.671.2491m8.667 4.41c-2.797 0-5.592.0771-8.384.2312m8.384 4.428c-2.702 0-5.4.0729-8.097.2165m-11.08-8.321c-5.89.7461-11.77 1.836-17.64 3.271m18.13 1.326c-5.671.7-11.33 1.719-16.98 3.057m17.48 1.541c-5.452.6551-10.89 1.606-16.33 2.85m-12.72-5.864c-5.871 1.846-11.73 4.037-17.58 6.572m19.12-2.388c-5.706 1.735-11.4 3.796-17.09 6.181m18.63-1.99c-5.539 1.627-11.07 3.561-16.59 5.8" fill="none"/><path d="m381.4 51.36-1.928-17.96" fill="none"/><g fill="#f7e63d"><path d="m274.7 158c-.6553-1.714-1.018-3.428-1.229-5.23-.8395-7.171-2.594-10.51-6.192-9.653-.9291-6.978-5.89-9.613-8.703-7.12-1.327-4.007-5.81-6.939-7.532-3.405-2.369-3.636-5.366-2.684-6.185-2.09-1.054.7641-1.696 3.592 1.665 6.969-2.627 2.29.3583 5.61 4.747 7.988l21.76 14.12 1.665-1.575z"/><path d="m269.4 156.4c-3.191-4.845-6.437-9.201-10.14-12.68-1.554 1.07-3.17 1.185-4.906.2725 1.59-.2321 2.838-.6815 3.727-1.342-1.371-1.21-2.753-2.364-4.141-3.476-1.365.8881-2.832.9932-4.45.2683 1.33-.2796 2.406-.6996 3.219-1.254-1.584-1.275-3.169-2.598-4.672-4.188 1.837.7575 3.732 1.856 5.651 3.21.404-.8201.678-1.843.8185-3.062.7669 1.36.8815 2.662.3799 3.938 1.41 1.067 2.83 2.262 4.246 3.554.7068-.7892 1.27-1.917 1.683-3.369.6079 1.659.4041 3.111-.568 4.406 1.684 1.599 3.36 3.322 5.003 5.114.7101-.6149 1.372-1.487 1.978-2.608.1973 1.489-.1447 2.704-1.007 3.681 1.882 2.101 3.716 4.281 5.468 6.456l-2.285 1.083z"/><path d="m275.4 157.5c-3.032-2.955-4.858-8.168-9.161-5.643-2.788-5.505-8.7-9.367-11.62-5.272-1.966-2.447-7.593-6.11-8.558-.1392-6.774-2.951-7.842.3455-7.99 1.406-.1477 1.06-.426 3.436 5.427 4.562-2.136 2.326.1768 6.384 5.888 5.73-.9967 3.525 2.773 5.712 9.142 4.722.1312 2.692 2.651 3.803 9.797 1.232l7.074-6.599z"/><path d="m274.7 145.2c.9499 3.841 1.208 7.682.7767 11.52l4.144-3.626c.1724-2.676 0-5.352-.5181-8.028l-4.402.1296z"/><path d="m270 162.6c-1.198-.8421-2.402-1.66-3.611-2.453-1.443 1.302-3.061 1.625-4.925.904 1.567-.4157 2.763-1.012 3.571-1.78-1.676-1.068-3.362-2.087-5.062-3.054-1.621 1.772-3.435 2.278-5.548 1.422 1.916-.4757 3.288-1.228 4.08-2.241-2.546-1.396-5.123-2.675-7.733-3.821-1.199 1.716-2.781 2.412-4.841 2.032 1.601-.7655 2.726-1.661 3.354-2.67-2.242-.9369-4.509-1.778-6.806-2.513 2.271.1413 4.758.6811 7.371 1.516.1312-1.035-.0317-2.263-.4868-3.667 1.484 1.079 2.117 2.462 1.968 4.166 2.646.9384 5.403 2.152 8.184 3.539.3533-1.23.1655-2.775-.5576-4.6 1.933 1.225 2.574 3.004 2.065 5.368 1.738.9029 3.479 1.866 5.203 2.867.4215-.9921.5809-2.268.4777-3.81 1.195 1.431 1.46 2.952.8648 4.598 1.412.8387 2.81 1.698 4.18 2.565l-1.748 1.631z"/><path d="m277.2 204.2c.009-7.482.4169-14.25 4.528-14.41.3685-6.433.3739-13.43 6.566-10.77 2.025-5.668 5.693-7.774 7.391-5.116 3.062-4.547 5.901-4.054 6.912-3.339 1.011.7151 2.869 3.393-.8469 7.631 3.66 1.755 1.923 6.856-2.268 8.878 5.1 4.922-3.451 9.5-7.776 9.824 1.244 2.845-.4524 5.29-6.303 7.533-2.235.8568-4.228 2.412-6.174 4.116.1856-.966.4668-1.94.8092-2.901l-1.018-3.081c-.4769.8531-.9293 1.704-1.353 2.549-.1636-.3061-.3201-.6127-.4691-.92z"/><path d="m271.2 179.5c1.104 9.61.5 18.42-3.755 17.09v.9067c2.957.7328 3.733 5.394 4.014 11.65l6.475 26.67 6.604-9.323c-4.576-3.582-3.67-12.39 1.684-15.28l-.5181-1.554c-1.985 1.08-3.798 3.021-5.438 5.827-3.538-5.198.8951-13.02 3.57-17.65 2.079.946 3.89.7151 5.488-.8127-1.972.2661-3.534.0659-4.646-.5956 1.408-2.27 2.994-4.432 4.61-6.558 2.451 1.36 4.523 1.248 6.294-.5109-2.318.3579-4.077.0581-5.216-.8939 1.627-2.103 3.23-4.11 4.638-5.977 2.055.7185 3.786.3432 5.237-1.239-1.718.3477-3.143.3137-4.245-.1001 1.835-2.529 3.2-4.756 3.616-6.559-1.306 1.671-2.898 3.613-4.64 5.752-.6656-.8768-1.129-2.11-1.385-3.682-.8889 1.761-.7423 3.383.3715 4.928-1.534 1.89-3.159 3.913-4.796 6.023-1.223-.8945-1.919-2.572-2.068-4.966-1.369 2.152-.9917 4.244.9683 6.395-1.58 2.074-3.152 4.22-4.641 6.397-.6621-.9997-1.002-2.409-1.014-4.204-1.312 1.831-1.262 3.69.0351 5.656-1.804 2.721-3.453 5.475-4.809 8.182-2.014-3.774-2.995-7.586-1.642-11.73 1.658-5.078 1.381-11.65.5181-17.35l-5.31 3.496z"/><path d="m284.3 242.4c-4.22.6524-7.031 4.366-10.07 7.299 1.998-8.502 3.114-19.87 7.76-20.91.7559-8.428 4.508-9.51 7.369-8.224.6765-3.587 3.762-7.216 6.454-5.115 2.505-4.77 5.678-3.832 6.711-3.206 1.033.6263 3.672 3.082-.5125 6.964 3.614 1.13 3.215 5.16-1.867 8.743 5.111 3.054-1.587 8.869-8.177 8.353 2.082 2.522-.5332 4.992-7.668 6.094z"/><path d="m273 231.5-14.44-19.77c-3.289-4.316-7.203-5.374-8.663-2.508-1.933-3.09-6.497-6.221-8.34-2.013-4.996-3.41-7.215-1.781-7.829-.8659-.6141.9155-1.898 3.659 4.211 6.225-3.943 1.967.0861 7.052 5.77 7.366-1.812 4.333 2.397 7.015 9.816 6.041-.9985 3.342 2.487 5.414 8.778 4.676 3.602-.4225 7.131-.2729 10.7.8451z"/><path d="m270.1 229.7c-2.026-1.781-4.073-3.492-6.144-5.123-2.05 2.059-4.118 2.536-6.332 1.278 2.43-.2733 4.088-1.077 4.904-2.388-2.645-2.026-5.331-3.922-8.064-5.671-1.543 2.536-5.412 4.14-7.885 2.362 2.432.2532 5.022-1.402 6.168-3.437-2.18-1.163-4.67-2.234-7.195-3.405-1.234 1.03-2.665 1.31-4.346.7993 1.248-.432 2.289-.7752 3.043-1.413-2.11-1.011-4.213-2.117-6.147-3.43 1.998.5047 4.391 1.387 6.889 2.399.3855-1.086.2215-2.49-.0836-4.186 1.403 1.344 1.812 2.896 1.312 4.69 2.418 1.004 4.888 2.092 7.157 3.046.5688-1.272.4804-2.959-.2593-5.012 2.009 1.364 2.544 3.306 1.774 5.865 5.679 3.268 11.46 7.388 16.58 11.35l-1.367 2.278z"/><path d="m277 239c.3205-3.714 1.224-7.555 1.765-11.14 1.264-8.37-1.013-9.861-3.736-10.36.7105-5.083-1.478-11.44-6.433-10.23-.8579-7.056-6.175-8.004-7.792-4.714-3.285-5.06-6.648-4.222-7.648-3.473-1 .7487-3.115 3.549 1.717 8.033-4.686.8407-2.057 5.316 2 7.539-3.871 4.335.3511 7.275 6.839 9.824-1.824 3.091.9559 4.834 6.704 7.132 2.919 1.166 5.058 4.37 6.584 7.392z"/><path d="m266.7 270.1c-2.418-2.466-4.391-5.834-4.515-7.484-.4067-5.408-2.69-7.426-5.356-7.455-1.11-6.814-5.156-10.57-9.248-7.431-1.286-6.867-6.26-6.595-7.592-3.756-3.795-3.96-6.355-2.65-7.274-1.712-.9464.9652-3.685 3.177 2.183 7.06-3.139 1.618-1.072 5.582 2.364 6.55l29.19 14.72.2487-.4883z"/><path d="m260 269.2-14.82.2287-4.418 3.771c-5.417 2.828-9.4 5.51-6.971 9.323-6.724 1.86-7.307 5.782-4.102 7.195-4.619 3.75-3.006 6.209-2.193 7.128 1 1.129 4.272 2.335 8.678-2.658 2.018 4.002 7.061 1.66 9.146-4.085 2.55 2.978 7.655-.5873 10.07-6.73 2.96 1.485 5.974-.1712 6.426-6.069.1588-2.07 2.308-4.386 5.481-4.991l-4.12-1.979c-1.016-.3893-2.078-.7665-3.176-1.132z"/><path d="m256.8 258.1c-.2989 2.292-1.299 4.36-2.608 5.246-1.373-2.4-2.882-4.728-4.488-6.884 1.774-1.818 2.324-4.136 1.394-6.208-.4147 2.009-1.368 3.801-2.535 4.729-1.676-2.088-3.478-3.928-5.319-5.478.296-1.362.0737-2.729-.6984-3.912-.0488 1.033-.2412 2.033-.5492 2.912-2.219-1.694-4.468-2.958-6.603-3.716 1.822 1.417 3.7 2.93 5.53 4.585-.8576.8257-2.051 1.549-3.384 2.032 1.606.4573 3.228.1048 4.587-.9157 1.63 1.552 3.201 3.228 4.642 5.064-1.257.78-3.23 1.093-5.234.8447 1.673 1.554 4.061 1.772 6.362.6557 2.01 2.763 3.831 5.746 5.432 8.858l1.847-.7911c2.207-2.061 2.843-4.767 1.623-7.022z"/><path d="m276.6 283.2c-1.705-4.656-3.893-7.52-6.848-9.608-1.796-1.267-3.191-1.784-5.434-1.539-3.015.3292-6.074 1.383-9.072 2.866.8443 1.921.6957 3.924-.4975 5.494.0428-1.783-.3469-3.498-1.059-4.683-2.253 1.23-4.458 2.675-6.572 4.209 1.15 2.53.7911 5.086-.9975 6.718.4423-2.119.2393-4.255-.5639-5.558-2.36 1.794-4.582 3.661-6.601 5.41 1.178 1.568 1.506 3.429.8232 5.172-.4184-1.624-1.189-3.088-2.119-4.042-2.889 2.532-5.284 4.705-6.95 5.868 1.318-1.718 3.212-3.824 5.46-6.062-1.074-.4128-2.39-.6233-3.742-.584 1.446-1.109 3.266-1.329 5.052-.6961 2.163-2.075 4.586-4.219 7.103-6.238-1.283-.7737-3.38-.8451-5.501-.59 1.768-1.117 4.565-1.639 6.92-.5261 2.174-1.679 4.394-3.239 6.557-4.561l-1.578-1.353 1.452-1.243 1.636 1.58c2.826-1.406 5.825-2.296 9.074-2.938-2.943-1.128-6.262-2.157-9.752-3.073-1.345 2.244-3.513 3.377-5.794 2.95 1.788-.8425 3.264-2.122 3.931-3.424-3.1-.7665-6.3-1.445-9.465-2.025-1.042 2.868-3.308 4.522-5.876 4.262 2.082-1.207 3.648-3.022 3.869-4.618-3.346-.5729-6.619-1.033-9.652-1.368-.6047 1.796-1.9 3.091-3.665 3.544.9763-1.172 1.672-2.504 1.965-3.722-2.526-.2471-4.851-.4013-6.867-.4539 1.696-.5408 4.098-.7608 6.955-.7241-.4861-.954-1.222-1.915-2.124-2.75 1.724.2101 3.125 1.235 3.973 2.806 2.9.1349 6.166.4921 9.58 1.016.0525-1.561-.9575-3.565-2.547-5.171 2.502.4161 4.237 2.537 4.538 5.494 3.2.5424 6.49 1.219 9.694 1.986-.2983-1.111-.9-2.296-1.725-3.366 1.792.5315 3.058 1.931 3.572 3.82 5.577 1.408 10.79 3.068 14.68 4.744l.2653-.2312c-2.029-5.87-2.158-11.91-.3885-18.13-.0427-3.41-1.985-5.87-4.791-7.898l.9064-1.684c2.331 1.295 4.144 3.281 5.438 5.957 2.842-3.974 4.756-7.882 4.869-11.66.0968-3.248-1.851-6.432-3.28-9.244-2.095.5993-3.803.1236-5.162-1.541 1.782.4701 3.264.5012 4.414.0919-1.357-2.595-2.744-5.169-4.317-7.641-2.404.8121-4.301.3597-5.734-1.508 1.971.5831 3.586.6077 4.8.0717-1.572-2.369-3.185-4.576-4.648-6.582-1.948.5352-3.575.0783-4.918-1.47 1.552.3597 2.869.3976 3.933.1141-2.028-2.804-3.638-5.161-4.227-6.949 1.586 1.718 3.389 3.822 5.26 6.161.7423-.7979 1.327-1.962 1.746-3.474.6663 1.78.3904 3.328-.7723 4.705 1.654 2.114 3.34 4.388 4.959 6.726 1.133-.7789 1.944-2.238 2.412-4.335.9351 2.157.4136 4.031-1.456 5.735 1.646 2.443 3.18 4.944 4.632 7.506.9396-.8696 1.579-2.289 1.904-4.226 1.032 2.071.6391 3.944-1.066 5.72 3.109 5.606 4.705 9.222 3.558 16.27 1.742-2.412 3.815-4.609 5.962-6.749-.7192-1.594-.5707-3.128.5076-4.646.0156 1.411.2325 2.584.6483 3.506 1.738-1.705 3.497-3.392 5.144-5.143-1.458-2.379-1.435-4.448.2371-6.293-.2389 2.203.0857 3.88.9679 4.982 1.668-1.841 3.264-3.68 4.755-5.527-1.801-1.845-2.217-3.769-1.127-5.881.3333 2.17 1.068 3.7 2.188 4.542 1.414-1.82 2.719-3.648 3.882-5.496-.3969 1.927-1.408 4.04-2.816 6.235 1.057.6097 2.518.8475 4.354.7076-1.608 1.368-3.342 1.544-5.254.6304-1.37 1.954-3.012 3.956-4.779 5.936 1.078.6849 2.608.9427 4.556.7707-1.712 1.492-3.584 1.608-5.686.4736-1.728 1.867-3.566 3.688-5.302 5.542.9464.4173 2.156.6153 3.614.5908-1.512 1.139-3.069 1.316-4.711.6005-3.222 3.548-6.148 7.271-8.243 11.7-.4423 1.82-.9971 3.662-1.662 5.518.5193-.6225 2.271-1.353 4.008-1.819l.7657 1.573c-5.76 1.264-5.226 4.555-5.458 8.133-.2128 3.271 1.028 6.783 3.533 9.206l1.295-1.554.5177-.1289c.5609 2.33 1.64 4.316 3.237 5.956l-5.309 7.122z"/><path d="m359.6 370.6c7.612-6.663 11.78-15.9 15.86-25.66l14.57-8.382 1.032 9.155c-3.396 1.204-6.233 3.612-8.124 7.221 1.246-.9339 2.493-1.429 3.74-1.676l.7737 1.806c-4.954 1.569-7.984 4.835-8.382 11.48l-12.92 5.987-6.553.074z"/><path d="m359 370.6c3.324-1.987 6.256-4.727 9.761-6.462 2.533-1.254 5.613-2.381 8.026-1.949 3.542.6339 2.48 3.67.5103 5.194-7.11 5.502-13.38 6.594-18.3 3.217z"/></g><path d="m373.7 318.8c-.2683 3.586 1.974 6.978 5.56 9.452l2.335 6.784c-4.282-.2415-7.136.9445-9.342 2.78.4623 4.648 1.51 9.297 3.144 13.94l.7479-.2668c2.428-4.355 6.802-8.952 12.46-11.68l.2223-7.006c-.9015-8.026-1.252-16.88-1.557-25.8l-2.369-1.867-1.746.4213c-4.013 2.742-7.404 7.561-9.452 13.23z" fill="#1763ab"/><path d="m379.2 336.2c2.847-.0647 6.307 1.482 10.19 3.482v-8.382c-7.183-3.693-14.09-6.196-20.24-5.416l-.1281 6.706c3.824-.3012 7.65.0419 11.48 1.805l-1.418.6448.1292 1.161z" fill="#f7e63d"/><g fill="#f7e63d"><path d="m272.3 292.3c-2.208-3.29-4.322-2.955-6.229-1.136-3.113-4.389-6.114-3.445-7.198-2.688-1.084.7563-3.184 3.354.8024 7.114-3.435 1.71-3.246 5.298 3.614 8.173-2.575 2.607-1.206 5.028 4.331 7.034l4.68-18.5z"/><path d="m258.8 311.3-34.64 9.181c-2.13 2.677-3.732 5.279-1.64 7.353-3.863 2.784-5.698 5.493-2.011 7.564-3.888 4.851-2.045 7.051-1.234 7.944 1.076 1.184 4.2 1.912 7.684-4.236 3.006 2.736 5.729 2.373 7.833-4.808 4.84 3.857 8.108-3.844 8.53-9.442 2.826 2.149 5.328.4331 7.126-5.272 1.565-4.965 5.04-6.4 8.349-8.285z"/><path d="m227.9 323.7c1.449.5288 3 1.246 4.265 2.104-1.632 1.863-3.162 3.712-4.528 5.543-1.929-.2959-3.884.0688-5.087 1.194 1.292-.1603 2.787-.0989 4.107.1584-1.794 2.551-3.233 5.063-4.145 7.526 1.711-2.413 3.518-4.771 5.407-7.074 1.063 1.026 2.07 2.427 2.698 3.759.308-1.619-.4317-3.47-1.716-4.942 1.608-1.914 3.068-3.448 4.783-5.281 1.306 1.025 2.835 2.41 3.6 4.032.3515-1.848-.7292-3.929-2.357-5.474 1.821-1.902 3.763-3.827 5.683-5.636l-1.361-1.497c-2.065 2.184-4.11 4.356-6.038 6.511-1.797-1.05-3.713-1.633-5.312-.9237z"/><path d="m254.2 310.6c-2.228-.5208-4.389-1.558-6.365-3.256-5.251-4.516-8.454-4.526-10.78-.8724-8.037-1.932-14.94-2.846-13.93 3.366-4.474-.1224-9.294-.57-8.25 4.519-6.139 1.92-5.741 4.362-5.768 5.495-.0351 1.456 2.881 4.236 7.377 1.657.6017 3.329 4.922 4.196 9.805.2359 1.348 5.014 7.186 3.94 12.67-1.755 2.225 2.688 6.317 2.683 10.79-2.532 1.567-1.828 3.481-3.376 5.718-4.666l-1.259-2.192z"/><path d="m267.4 298.4c-1.748 1.054-4.646 1.079-6.072.0521 1.63-.1444 3.816-.542 5.02-1.439-1.397-1.919-3.493-3.881-4.948-5.8 2.152 1.258 4.53 2.933 6.249 4.534 1.122-1.25 1.915-2.002 2.506-2.862-.0461 1.419-.6176 2.888-1.409 4.328l-.2779 2.49-1.068-1.302z"/><path d="m275.1 333.7c-1.91 2.405-2.506 5.45-.2083 6.654-3.741 3.089-3.256 6.762.7793 7.184-2.257 5.045 1.346 6.972 2.695 7.133 1.349.1622 4.614.1368 5.4-6.161 4.531 2.039 7.897-2.42 7.058-6.954 5.198.9169 7.691-3.575 5.452-9.08 4.033.02 5.154-3.226 4.604-7.713l-13.32 3.094-12.46 5.844z"/><path d="m287.7 331.9c2.314 1.484 3.963 4.202 3.546 6.478-.9985-2.082-3.026-4.032-4.636-4.738-1.683 2.279-3.171 4.403-4.067 7.022 1.907 1.281 3.29 3.302 3.216 5.223-.9732-1.452-2.488-2.922-3.902-3.754-1.166 2.578-2.22 5.347-3.17 8.359.0555-2.836.5052-5.524 1.271-8.091-1.314.276-2.712.8001-3.838 1.449.6899-1.546 2.427-2.662 4.385-3.116 1.263-3.522 3.117-6.816 5.357-9.951l1.838 1.12z"/><path d="m309.6 316.7c-3.411-1.109-6.585-2.37-10.15-3.813-7.68-3.11-11.73-1.282-11.87 2.414-8.514-1.854-17.98-.0707-13.76 6.379-6.354 1.136-9.347 3.382-6.497 7.073-5.435 2.393-3.894 5.431-3.298 6.4.7669 1.247 3.51 3.231 8.67-.7839 1.135 4.058 6.394 1.836 9.409-1.927 1.974 5.711 9.433.6588 12.57-4.838 2.308 2.64 6.106-.0559 10.53-4.7 1.712-1.798 3.989-3.134 6.114-4.122l-1.719-2.082z"/><path d="m253.8 304.6 2.063-1.16c.4876 4.222 2.755 6.503 7.034 6.773 1.427.09 3.076.0711 4.958-.3257l-.1293 3.481c-1.582-.0587-2.846-.3133-4.032.0725-2.608.8481-4.341 3.31-4.736 7.278l-1.934-.2581c.3223-3.439 1.74-5.932 4.255-7.738-5.042 0-9.818.1115-14.81.7369-.7639 2.118-2.334 3.913-4.174 4.329.9989-1.14 1.906-2.678 2.415-4.096-3.748.4979-7.462.9072-11.25.8803-.6116 2.475-2.35 4.717-4.434 5.188 1.268-1.446 2.386-3.532 2.734-5.203-2.781.0639-5.514.8088-8.236 1.637-.2305 2.55-1.622 5.041-3.623 5.82.9891-1.539 1.758-3.628 1.916-5.295-2.94.9048-5.878 1.76-8.859 1.81 3.396-1.193 5.696-2.216 7.858-3.079-.9964-.7079-2.158-1.321-3.252-1.704 1.519-.4559 3.352.0309 4.912 1.071 3.045-1.082 6.04-1.653 9.257-1.88-.8688-1.42-2.444-2.943-3.979-3.891 2.173-.1648 4.544 1.536 5.84 3.788 3.583-.1932 7.06-.522 10.61-1.029-.7328-1.21-1.783-2.428-2.855-3.308 1.712.0997 3.39 1.36 4.507 3.063 3.718-.5348 7.439-.804 11.16-1.289-1.418-1.548-2.494-3.439-3.224-5.674z"/><path d="m286.9 298.4 4.411-7.016c1.375 4.943 3.954 8.682 7.737 11.22.3001-5.137 1.403-8.961 3.741-10.86l1.417 5.963c-4.91 6.72 1.455 15.08 10.19 16.76 3.084 4.18 7.704 6.264 14.57 5.287 4.679.1263 10.06 1.663 15.5 2.557-2.091-1.39-4.232-2.888-6.344-4.455-1.989 1.314-4.516 1.808-6.301.9165 1.685-.2819 3.596-1.028 4.934-1.943-2.1-1.598-4.156-3.258-6.094-4.943-1.97 1.133-4.358 1.487-6.041.5957 1.588-.2717 3.386-.9551 4.725-1.761-1.952-1.76-3.758-3.54-5.333-5.296-1.841.4495-3.754.2756-5.032-.6905 1.263.0231 2.694-.1813 3.952-.5548-1.718-2.05-3.09-4.056-3.978-5.948 1.314 1.385 3.06 3.248 5.163 5.366.6108-1.219 1.075-2.67 1.264-3.98.7517 1.423.6127 3.351-.136 5.103 1.662 1.642 3.519 3.404 5.538 5.192.9804-1.162 1.864-2.744 2.347-4.201.5117 1.605-.034 3.582-1.183 5.219 1.864 1.608 3.857 3.223 5.953 4.777.7083-1.381 1.215-3.245 1.338-4.872.9513 1.549.8111 3.813-.0789 5.788 3.204 2.287 6.633 4.406 10.22 6.13l2.024.0972c-3.396-1.591-4.728-4.728-3.997-9.413l1.805.6444c-1.333 3.524.5151 6.791 5.158 8.64l.1289 7.479c-11.36.2435-19.9-4.895-26.95 1.418l-1.29-1.16c1.16-1.204 2.493-2.235 3.998-3.095-7.196-2.822-13.12-1.712-16.12 4.126l-1.161-.5159c.9888-2.837 2.535-4.642 4.9-5.416-3.258-1.29-6.45-3.112-9.605-5.226.9808-.6211 2.002-1.155 2.988-1.614-1.549.0423-3.184.1463-4.88.3095l-4e-4-.00026c-1.807.1745-3.691.4001-5.612.6901-.3327 1.939-1.311 3.696-2.774 4.479.6084-1.256 1.051-2.817 1.208-4.23-3.43.5748-6.95 1.357-10.36 2.408.5764 3.003-.3719 6.25-2.843 6.942 1.038-1.974 1.342-4.488.8621-6.288-3.497 1.238-6.818 2.864-9.807 4.334.4759 2.026-.004 3.598-1.218 4.825.3765-1.408.3636-2.732-.0967-4.132-2.297 1.223-4.035 2.167-6.076 3.524 1.041-1.594 2.795-3.071 4.84-4.274-1.202-.8636-2.965-1.432-4.282-1.597 1.542-.7383 4.079-.4911 5.644.6871 2.9-1.798 6.407-3.529 10.16-4.911-1.188-1.373-4.173-2.67-6.486-3.011 2.267-1.188 6.379.1209 8.482 2.318 3.378-1.11 6.902-1.97 10.33-2.63-.8656-.9279-1.94-1.786-2.99-2.376 1.609-.1621 3.352.6996 4.696 2.062 3.136-.5519 6.303-.9917 9.48-1.211-3.411-1.109-6.585-2.37-10.15-3.813-.7408-.2997-1.448-.5541-2.121-.7647-.61-.4864-1.22-.9728-1.83-1.458-3.482-1.935-6.964-1.032-10.44 1.161l-.3873-3.868c1.591-1.053 3.526-1.526 5.803-1.548 1.533-.014 1.956-1.321.7163-2.263-1.964-1.491-3.237-3.5-4.224-5.68z"/><path d="m302.9 291.6c.4309.9423 1.353 1.808 1.9 3.089.4219.9876.6345 2.579-.5 2.944-1.255.404-1.907-.5461-2.153-1.754-.3243-1.593-.0892-3.038.7528-4.278z"/><path d="m257.5 320.7c2.302.5476 3.632 3.526 2.971 6.651-.6615 3.125-3.065 5.216-5.368 4.668-2.302-.548-3.633-3.526-2.971-6.651.6613-3.125 3.065-5.216 5.368-4.668z"/><path d="m258 319.1c2.476.5643 4.02 3.005 3.449 5.449-.1429.6112-.4048 1.165-.7559 1.643-.8032-3.941-5.356-5.134-8.263-1.884-.1032-.5813-.0923-1.192.0499-1.803.5723-2.444 3.044-3.969 5.52-3.405z"/><path d="m254 304.3c-2.02 1.291-5.126.1636-6.937-2.519-1.811-2.683-1.641-5.906.3791-7.197 2.02-1.292 5.126-.1636 6.937 2.519 1.811 2.682 1.641 5.905-.3795 7.197z"/><path d="m254.8 305.8c-2.155 1.406-5.02.8133-6.398-1.324-.3447-.5348-.564-1.115-.6645-1.707 3.436 2.189 7.512-.2868 7.191-4.694.4955.3341.9335.7727 1.278 1.307 1.378 2.137.7484 5.011-1.406 6.418z"/><path d="m313.5 331.6c2.048 1.185 2.469 4.42.9384 7.224-1.53 2.804-4.432 4.117-6.481 2.932-2.048-1.186-2.469-4.42-.9385-7.224 1.53-2.804 4.433-4.117 6.481-2.932z"/><path d="m314.4 330.3c2.21 1.25 2.99 4.031 1.741 6.209-.3125.5443-.7219.9993-1.195 1.356.3605-4.005-3.658-6.455-7.376-4.175.0684-.5863.2536-1.169.5655-1.713 1.249-2.178 4.054-2.929 6.265-1.678z"/><path d="m348.3 313.2c-1.909-1.462-1.947-4.822-.0828-7.504 1.865-2.683 4.926-3.672 6.835-2.211 1.91 1.461 1.947 4.821.0824 7.504-1.864 2.683-4.925 3.673-6.835 2.212z"/><path d="m347.2 314.4c-2.064-1.548-2.514-4.487-1.006-6.563.3768-.5193.8409-.9351 1.357-1.243-.8357 4.053 2.896 7.047 6.888 5.167-.1379.5911-.3923 1.164-.7695 1.684-1.508 2.076-4.406 2.504-6.47.9555z"/><path d="m339.5 355.6c-3.431 4.709-3.8 9.888 1.26 9.563-.7816 4.774 2.531 6.769 3.739 6.661 1.204-.1082 4.596-.5171 3.401-6.522 4.082 1.365 6.172-2.717 3.904-6.159 7.288.3601 5.594-8.434 3.235-11.06 1.305-.2419 2.498-.7468 2.898-3.099l-.9748-10.44-16.32 12.31-1.141 8.744z"/><path d="m344 366.6c.3463-1.461.7876-4.048 1.318-6.903 1.345.6539 2.76 1.702 3.78 2.8-.2097-1.748-1.64-3.387-3.479-4.392.4641-2.409.9883-4.893 1.569-6.971 1.68.4411 3.803 1.844 5.191 3.341-.254-2.122-2.304-4.08-4.703-4.943l-1.951-.3871c-.3904 2.159-1.12 5.647-1.58 9.112-1.756.548-3.258 1.637-3.864 3.073 1.074-.6477 2.406-1.184 3.675-1.492-.2741 2.575-.3451 5.02.0445 6.763z"/><path d="m355.7 329c-13.64.7377-21.35 3.448-18.06 7.792-6.202 1.501-13.2 5.154-8.924 9.756-4.81 3.591-6.625 7.962-2.684 9.45-2.197 3.562-1.259 5.672.3871 6.686 2.254 1.388 5.921-.703 6.753-5.083 1.978 4.089 7.223.9843 7.735-4.807 4.064 3.176 9.424-.3045 8.306-8.81 2.844.582 5.388-1.54 7.631-6.367l-1.148-8.619z"/><path d="m355.4 333.5c-1.588.864-3.138 1.762-4.648 2.697.7457 1.556.6388 3.082-.384 4.619-.0657-1.577-.3741-2.848-.9211-3.795-2.617 1.684-5.102 3.483-7.428 5.403 1.952 1.58 2.58 3.411 1.784 5.612-.6795-2.348-1.751-3.844-3.18-4.428-2.424 2.112-4.658 4.368-6.668 6.773 1.836 1.324 2.53 3.002 2.009 5.139-.8043-1.961-1.834-3.255-3.059-3.842-1.666 2.123-3.161 4.359-4.463 6.715.3564-2.371 1.476-4.822 3.138-7.274-1.372-.1973-2.936-.1697-4.265.081 1.182-1.254 3.241-1.73 5.274-1.484 1.754-2.31 3.953-4.61 6.411-6.836-1.674-.446-4.182-.2967-6.116.2941 1.476-1.958 4.888-2.544 7.638-1.635 2.398-2.06 4.994-4.043 7.631-5.897-1.55-.7604-3.998-1.118-5.986-.9408 1.79-1.563 5.095-1.49 7.577-.1591 1.513-1.029 3.03-2.012 4.522-2.94l1.132 1.898z"/><path d="m347.5 321.8c-1.798-1.951-3.086-4.065-3.387-6.514-.9367-7.61-4.34-7.935-6.56-6.934.3949-7.22-5.258-10.12-7.945-7.685-1.217-2.442-3.974-5.444-7.039-3.245-2.443-3.565-5.4-3.794-6.98-2.368-1.394 1.258-1.738 3.806.6481 6.487-2.611 1.06-2.704 5.585 2.431 7.659-3.7 3.797.6584 7.275 8.679 7.502-.8164 3.284 1.358 6.171 8.424 5.286 2.994-.3753 6.059-.1501 9.191.6107-2.065-1.377-4.853-3.275-6.847-4.755-1.989 1.314-4.516 1.808-6.301.9165 1.685-.2819 3.596-1.028 4.934-1.943-2.1-1.598-4.156-3.258-6.094-4.943-1.97 1.133-4.358 1.487-6.041.5957 1.588-.2717 3.386-.9551 4.725-1.761-1.952-1.76-3.758-3.54-5.333-5.296-1.841.4495-3.754.2756-5.032-.6905 1.263.0231 2.694-.1813 3.952-.5548-1.718-2.05-3.09-4.056-3.978-5.948 1.314 1.385 3.06 3.248 5.163 5.366.6108-1.219 1.075-2.67 1.264-3.98.7517 1.423.6127 3.351-.136 5.103 1.662 1.642 3.519 3.404 5.538 5.192.9804-1.162 1.864-2.744 2.347-4.201.5117 1.605-.034 3.582-1.183 5.219 1.864 1.608 3.857 3.223 5.953 4.777.7083-1.381 1.215-3.245 1.338-4.872.9513 1.549.8111 3.813-.0789 5.788 2.641 1.886 5.436 3.658 8.345 5.188z"/></g><g fill="#1763ab"><path d="m359.1 349.6c-7.672-9.215-9.971-36.45 4.337-47.26 2.856 1.398 5.896 3.613 10 3.539 3.319-.0605 6.979-.8039 10.12-2.315l.1368.1073c-3.566 1.425-8.336 8.157-10.2 12.72-4.628 11.31-2.646 23.81 1.155 35.06l-.0941.034c-1.397.3818-2.185.3435-3.114 0-4.344-1.608-8.396-2.923-12.34-1.891z"/><path d="m383.7 304.2 2.122 1.672c-4.249-.6001-8.536 6.768-10.69 11.4-3.948 8.498-3.527 19.92 1.014 34.13l-.0367.065-1.462.5223c-3.801-11.25-5.784-23.75-1.155-35.06 1.869-4.567 6.638-11.3 10.2-12.72z"/><path d="m287.6 314.4c-2.287-15.61 12.23-30.29 15.81-35.05 1.866-2.479 1.455-4.752.3243-7.334-4.917-11.22-.4089-23.79-.9184-28.14-.7333 5.666-6.023 10.8-10.66 15.54-4.676 4.778-9.104 9.439-12.79 15.01-12.92 19.51-16.26 37.72-11.68 49.23 1.298-.8973 3.377-1.572 6.054-2.051-4.226-6.449 5.242-8.232 13.76-6.379.0107-.2851.0465-.5579.1036-.8195z"/><path d="m289 171.7c-10.11 8.302-30.42 18.15-27.41 27.54h-.0139c-.7049-1.247-1.289-2.525-1.696-3.846l.1719-4.892c7.122-8.452 19.99-15.37 28.95-18.8z"/><path d="m282.3 121.7.9411-.8469c6.726 5.767 13.47 12.28 21.74 15.72 1.866 8.852.6289 16.3-2.972 22.62-4.629 8.13-13.63 13.33-24.04 19.46-9.447 5.558-17.64 11.74-18.16 16.7h-.0192c-.7904-3.282-1.384-6.515-2.452-9.666-.8349-2.463-1.832-4.884-3.089-7.224-.6444-1.2-.708-2.604.2823-3.953 5.984-8.15 15.04-15.4 24.19-22.68 13.19-10.49 15.99-19.85 3.577-30.12z"/><path d="m283.1 125.5c-.988 6.432-1.696 12.67-1.177 19.1-2.973 4.981-9.326 5.028-12.33.9419-.1391-3.318-3.048-9.446-5.794-13.52 6.971 1.739 15.55-.4279 19.3-6.53z"/><path d="m264.6 125.8c-4.409 2-3.933 6.616 1.21 7.276 5.49.7056 10.97-.1543 16.22-4.942 2.249-2.049 1.487-5.646-1.95-5.682l-.3421.9411c2.761.0313 3.192 2.636 1.13 4.33-4.52 3.71-9.312 4.868-14.12 4.424-4.628-.4285-5.224-3.891-1.224-5.648l-.9285-.6988z"/></g><g fill="#f7e63d"><path d="m277.6 98.26 6.795-22.51c-1.084-5.037 3.815-8.579 6.729-5.587 1.174-4.442 5.278-4.457 6.36-3.893 1.082.5643 4.088 3.448-.0499 7.004 4.753 1.947 3.644 6.184-.5775 8.314 3.006 2.146.6772 7.726-7.672 9.048 2.544 1.857.3817 4.373-3.691 5.638-2.099.652-4.182 1.799-6.268 3.111l-1.627-1.128z"/><path d="m275.1 128.2-26.04-17.16c-4.56-2.473-9.036-1.484-8.993 1.956-5.424-.3587-5.571 2.195-5.633 3.356-.0628 1.161 1.1 3.336 5.259 3.483-1.141 3.658 3.1 5.626 7.404 3.122-.3408 4.514 5.062 5.818 11.64 2.014.3371 2.128 2.004 3.04 6.776 2.391 3.17-.4304 6.39-.009 9.584.8409z"/><path d="m274 99.36c-1.144-1.982-2.38-4.015-4.068-5.934-4.982-5.667-4.811-8.67-1.834-11.16-3.45-6.042-4.015-12.02 2.06-12.78.0453-5.83 3.021-8.211 6.454-6.228.8796-4.602 4.156-5.17 5.726-4.762 1.386.3599 4.458 1.196 3.057 6.956 3.349.1912 4.743 3.39 1.253 9.412 2.784 1.388 6.055 6.173-3.001 11.34 2.923 2.906-.4372 5.754-2.959 8.293-1.444 1.456-2.712 3.181-3.919 4.927l-2.77-.0676z"/><path d="m255 118.4c-.6448 2.034-1.906 3.253-3.806 4.051 1.254-1.83 1.872-3.092 2.084-4.404-2.306-.4513-4.612-.818-6.915-1.093-.714 1.371-1.824 2.276-3.338 2.912.8372-1.222 1.391-2.191 1.73-3.089-1.85-.1863-3.7-.3137-5.55-.3757 1.595-.3469 3.351-.5264 5.228-.5668-.2396-.8271-.6341-1.745-1.209-2.873 1.27.7389 2.19 1.648 2.752 2.87 2.928.0488 6.106.3988 9.396.9565l-.3712 1.612z"/><path d="m276.2 129.3-.5757-10.14c.6512-5.4 2.042-8.9 5.058-8.219-1.132-10.99 3.697-12.73 6.538-10.71 3.471-5.288 6.603-6.65 9.398-3.83 3.385-3.293 5.798-1.266 6.606-.2521.8084 1.014 1.533 3.674-2.008 6.082 2.388 2.552 1.354 5.317-2.845 7.404 2.018 4.179-2.234 6.268-9.338 7.406.8696 1.732-.8061 3.066-5.31 4.817-3.218 1.252-6.253 4.675-7.524 7.442z"/><path d="m274.2 112.8c-1.532-2.345-3.04-2.478-4.313-2.308-.6131-5.48-4.606-10.53-9.072-7.278-3.982-5.982-6.951-6.899-8.906-2.749-3.442-3.982-5.791-2.279-6.668-1.68-1.127.7703-2.901 3.655 1.976 6.688-3.472 2.405-.1017 6.668 4.282 7.721-1.707 3.154.9153 7.299 8.88 7.117-.8152 3.358 1.415 4.998 6.674 5.515 2.106.2064 4.717 1.516 8.015 4.314l-.1984-6.51c.474-3.534.4555-7.126-.6689-10.83z"/><path d="m275.2 131c-.1107-1.646-.432-3.089-1.702-5.143-1.233-1.994-2.601-3.961-4.074-5.872-1.875.4781-3.49.1131-5.121-.9233 1.748-.0107 2.982-.144 4.012-.4812-1.546-1.911-3.192-3.756-4.909-5.504-1.729 1.658-4.009 1.71-6.474.9155 2.318-.3553 4.139-1.094 4.991-2.386-1.981-1.91-4.04-3.685-6.13-5.279-1.973 1.423-3.854 1.615-5.986.9431 2.174-.5949 3.468-1.166 4.484-2.053-1.888-1.35-3.793-2.548-5.683-3.558 2.082.4464 4.274 1.4 6.506 2.731.1595-.8727.2097-1.902.1811-3.225.8867 1.314 1.321 2.629 1.214 4.101 2.242 1.477 4.51 3.304 6.737 5.351.7507-1.058 1.119-2.634 1.214-4.496.9143 2.086 1.162 4.096.2041 5.834 1.752 1.696 3.469 3.514 5.116 5.389.2468-.8913.3791-1.959.4464-3.362.9063 1.568 1.224 3.097.802 4.81 1.362 1.608 2.667 3.245 3.895 4.873.4199-3.747.3848-7.394-.6679-10.81-.1368-2.48-.2635-4.971-.3756-7.475-.1335-2.956-4.931-5.939-7.425-6.936l1.036-1.554c1.899.9493 4.1 2.288 6.345 4.273.3152-3.259.4225-6.498.6296-9.76-2.628-.7169-3.778-2.556-4.235-4.981 1.454 1.684 2.924 2.743 4.386 2.863.2128-2.738.4969-5.481.8735-8.147-3.22-.6039-5.449-2.998-5.086-6.398 1.215 2.718 3.069 4.028 5.435 4.109.3923-2.381.8652-4.678 1.435-6.832-2.474-.9845-3.414-2.911-3.627-5.338 1.304 2.006 2.702 3.209 4.197 3.341.8463-2.753 1.874-5.214 3.121-7.233-.7793 2.472-1.436 4.947-1.984 7.423 1.539.5923 3.716-.0987 5.789-1.608-1.141 2.344-3.218 3.945-6.24 3.768-.4365 2.222-.7895 4.447-1.07 6.674 2.351.4275 4.662-.2313 6.686-2.374-.6265 3.34-3.611 5.019-6.958 4.761-.2721 2.646-.4468 5.294-.542 7.949 1.428-.1096 2.905-1.028 4.398-2.651-.5624 2.404-1.791 4.192-4.449 4.794-.0212 2.8.1292 5.606.1924 8.417.3148-.6079.6429-1.222.9819-1.844.9116-1.254 1.872-2.46 2.926-3.523 2.276-2.292 5.234-4.835 3.64-7.445.4645-.7332.926-1.456 1.38-2.163 3.089-2.228 4.015-4.333 3.863-6.06l.5873-.9427c-1.478-1.162-2.065-2.665-1.716-4.589.7352 1.525 1.588 2.617 2.544 3.255 1.566-2.525 2.732-4.396 3.278-4.934-.5288 1.762-1.273 3.572-2.16 5.419 1.108.404 2.534.4215 4.252.0533-1.373 1.532-3.016 1.959-4.965 1.381-1.025 1.998-2.193 4.032-3.418 6.089 1.141 1.079 2.976 1.416 5.429 1.005-1.766 1.799-3.861 1.923-6.363.5503-1.063 1.761-2.152 3.536-3.211 5.313 1.073.3545 2.431.3715 4.053.0507-1.372 1.481-2.984 1.895-4.877 1.336-2.609 4.356-6.22 10-6.14 15.05.0748 4.673.2237 9.346.48 14.02 1.011-1.648 2.061-3.278 3.147-4.868-.692-1.191-.7733-2.503-.212-3.967.2868 1.066.6565 1.961 1.107 2.677 1.362-1.931 2.776-3.792 4.232-5.538-1.588-2.522-1.561-5.194.6376-7.337-.6327 2.352-.3375 4.242.7669 5.705 1.792-2.017 3.642-3.846 5.534-5.41-.9475-1.824-.8371-3.528.4237-5.172-.0457 1.758.2355 3.158.8379 4.173 2.044-1.543 4.132-2.765 6.246-3.57-1.8 1.396-3.603 2.917-5.374 4.548.9967.632 2.387.954 4.145.9608-1.732 1.25-3.494 1.274-5.351.1728-1.891 1.813-3.736 3.752-5.486 5.796 1.143.7075 2.766.8916 4.827.5492-1.665 1.692-3.62 1.898-5.929.768-1.447 1.77-2.82 3.612-4.09 5.518.9399.2487 2.079.2903 3.405.1243-1.286 1.206-2.698 1.587-4.267 1.203-1.204 1.904-2.302 3.867-3.266 5.877-.5916 1.232-.7428 3.276-.6928 5.489-.9219.536-1.852.9779-2.79 1.334z"/><path d="m266.3 97.06c-1.373 1.922-4.756 2.046-7.554.2777-2.799-1.768-3.954-4.761-2.582-6.682 1.373-1.922 4.756-2.046 7.554-.2775 2.799 1.769 3.955 4.761 2.582 6.682z"/><path d="m267.6 98.06c-1.452 2.076-4.39 2.596-6.559 1.164-.5423-.3587-.9853-.8055-1.322-1.306 4.126.7177 6.948-3.041 4.847-6.927.6028.1205 1.193.3564 1.735.7147 2.17 1.433 2.751 4.279 1.299 6.354z"/></g></g><path d="m398.2 220.9 3.771 9.477c.5113 1.24 1.007 2.388 1.49 3.626 2.128 5.458 5.016 11.59 10.86 13.09 1.425-3.015 1.152-7.875.2627-11.89 2.174 3.536 4.915 7.029 8.892 8.296 1.678-3.96.8263-8.382.1021-12.11 2.205 3.078 4.599 6.834 8.943 8.405.5443-1.023 1.105-3.458 1.149-5.048.0963-3.498-.7593-7.1-2.008-10.01l-10.83-25.25-.9361 12.38c-.2532 3.339-3.699 6.121-7.218 5.828l-14.08-1.174c.0237 1.582-.13 3.021-.3935 4.39" fill="#1763ab"/><path d="m420.5 203.8 9.261 21.7c1.584 3.71 2.332 7.628 1.81 11.95-2.913-1.766-5.277-4.679-6.84-8.275l-3.378 1.436c1.225 3.589 1.815 7.108 1.013 10.47-2.928-1.576-5.179-4.616-6.756-8.107l-3.462 1.605c1.218 3.209 1.824 6.924 1.182 10.39-5.403-3.702-6.246-7.598-8.61-13.26l-6.327-15.16 14.27 1.19c3.52.2929 6.965-2.489 7.218-5.828l.6131-8.109z" fill="#f7e63d"/><path d="m388.2 204c-16.42-1.018-29.03.6157-33.47 6.934-.3459-2.96-.2832-5.79 1.978-8.421-1.76-4.794-1.424-9.313-.6543-13.63l.4268-1.932c8.598 1.196 18.18.7952 27.05-.8648l6.196-1.023-.3727 4.2-1.161 14.74z" fill="url(#a)"/><path d="m449.5 241.1c7.433 2.093 12.31 7.892 14.06 19.51.412 2.736-2.101 2.96-1.253 6.14.5216 1.959-1.037 3.407-2.972 3.796-.0717.1561-.1447.3125-.2184.4683l-.0295.0616c2.156 1.594 4.752 2.472 7.67 1.611l.005-.0517.0521-.4505c-1.096-.6815-1.23-1.651-.5121-2.971.4155-.7639.8512-1.422 1.537-1.742 1.385.1213 2.166-.3051 2.561-1.229.8452-1.979.5069-3.883-.3855-5.715-3.381-6.934-6.305-13.55-6.274-18.47.012-1.984-.5768-2.962-1.243-3.702-.1823-2.443-.8648-3.354-3.266-3.252-2.358.0991-5.391 1.068-5.84-1.96-.3943-2.66-1.012-5.328-1.844-7.992 3.596-9.196 1.539-17.41-4.886-24.6 3.181.5548 7.591-.3455 11.01 1.762 2.414 1.487 3.577 4.05 3.202 7.984-.3712 3.886-.9229 8.832 2.209 10.67.6935 5.008 3.518 12.34 8.037 13.51 2.725 3.517 6.014 6.157 9.836 6.762-3.721-5.226-4.638-10.85-3.733-16.85 3.943-7.708-.9439-16.23-5.065-20.91-.5767-3.18-2.899-5.734-5.67-7.612-4.518-3.064-9.313-2.762-14.06-.0673-4.424 2.512-9.091 1.966-13.68.392-5.773-1.979-11.83-1.859-17.65-.4116l-.2805 3.7 10.83 25.25c1.348 3.142 2.111 6.66 2.006 10.09 1.306.2771 2.711.4252 4.014.2971 3.595 2.036 6.645 4.396 11.84 5.939l-.003.0431z" fill="url(#b)"/><path d="m389.4 213.8c-16.62-1.043-27.52-.5541-33.48 4.932-.2767-1.528-.4543-3.298-.6844-4.348-.1384-1.16-.3216-2.305-.4491-3.429 4.408-6.334 17.02-7.974 33.46-6.954l-.362 4.598c-.1611 2.041.3723 3.857 1.512 5.2" fill="#1763ab"/><path d="m355.7 217c4.635-4.853 16.51-6.278 32.49-5.368-.2839-.91-.3904-1.918-.3057-2.987l.2037-2.585c-16.25-.966-28.67.4664-32.98 6.793l-.0544.2155c.0623.4509.1239.9044.178 1.36.1428.6508.2653 1.577.4032 2.552l.0659.0201z" fill="#f7e63d"/><path d="m390.7 189.1-1.04 21.77 2.483 3.696 21.66 1.675 4.042-3.465 1.56-16-12.01-.1731-9.587-3.581-7.103-3.927z" fill="#de212b"/><path d="m392.7 190.8-1.258 18.34c-.1757 2.555 1.748 4.217 4.304 4.371l14.3.8607c3.119.1877 6.242-.4219 6.556-4.106l1.258-14.77 3.245-.1988-1.258 16.62c-.2532 3.339-3.699 6.121-7.218 5.828l-18.28-1.524c-4.422-.3681-6.807-3.52-6.49-7.549l1.523-19.34 3.311 1.457z" fill="url(#d)" stroke="#000" stroke-width=".75"/><path d="m399.2 207.4 8.477.7952c1.792.1675 3.176-.5099 3.245-1.987l.3973-8.543 3.245.0665c-.2876 3.399-.5741 6.799-.8607 10.2-.4864 2.428-2.12 3.532-4.901 3.311l-11.12-.8605 1.523-2.98z" fill="url(#e)" stroke="#000" stroke-width=".75"/><path d="m410.4 198.5c-3.84 4.257-7.834 8.376-11.53 11.84-.1252.0193-.2435.0564-.3512.1081-.4229-.6137-.8469-1.224-1.279-1.816l10.04-10.64c1.038.2299 2.081.3988 3.127.4985" fill="url(#f)"/><path d="m391.1 203.5 1.192-2.334-.1104-.0541 1.4-2.937-.1176-.0548 1.533-2.986-.1292-.0659.8787-1.758c3.611 1.998 7.372 3.685 11.2 4.57l.1584.1928-9.657 10.23-.3883.0929c-1.742-2.358-3.612-4.369-5.942-4.905l-.0133.007z" fill="url(#g)"/><path d="m390.4 244.2c-.3341-2.101-.8248-4.162-1.472-5.772l-2.061.2359c.1735 1.95.5945 4.015.4773 5.857l.0544.8747 3.103-.3267-.1005-.8692z" fill="url(#h)"/><path d="m387.4 244.5c-1.02.2188-2.038.4368-3.055.6541-1.276.4268-2.475.3327-3.596-.1667-.9732-.336-1.145-1.233-.2419-1.737.7717-.4316 1.42.0416 2.893-.9975 1.075-.7573 2.236-1.702 3.51-3.114l.0519-.0651c.1875 1.812.5396 3.723.4384 5.426" fill="url(#i)"/><path d="m394.5 238.3c.2324.7268.4845 1.537.872 2.263.5861 1.525.5457 2.714-.872 3.16-1.344.1092-2.7.2181-4.055.3255-.3416-2.071-.8115-4.035-1.442-5.6 1.833.3527 3.706.2128 5.496-.1485" fill="url(#j)"/><path d="m389 238.5-2.038.2332.4951-6.118 1.931-16.12c.4347 6.201-.2703 14.19-.3881 22" fill="url(#k)"/><path d="m394.4 238.3c.1271-11.24 5.69-15.23 3.792-25.65-2.451 2.154-6.064 3.8-8.782 3.936l-.0291.003c.412 6.178-.2819 14.09-.3991 21.85 1.806.3473 3.652.2161 5.418-.1331" fill="url(#l)"/><path d="m394.9 232.9c.8465-4.652 2.514-8.041 3.276-12.01l.001 4e-4 3.771 9.477c.2985.7245.5923 1.418.8803 2.115-2.606.6029-5.213.7461-7.82.4297l-.1092-.0165z" fill="#e6e6e6"/><path d="m393 145.9c-1.043-3.33-3.185-6.43-3.743-8.689-1.366.7099-2.732 1.206-4.098 1.198.1879 3.04.3923 6.367.7173 9.406 1.844.3599 5.451-.7717 7.124-1.915" fill="url(#m)"/><path d="m392.6 146.1c.9128 1.472 1.484 3.012 1.716 4.62 1.878.9563 3.757 1.912 5.636 2.869.9221.034 1.896.068 2.818.102-1.856 2.574-3.335 5.522-4.356 9.017-.5121-.6149-1.024-1.23-1.536-1.844-2.914-.0367-5.058-2.383-7.377-4.201-.7173-.3761-1.025-1.162-.9225-2.356-1.54-1.843-1.88-4.09-2.049-6.482 2.024-.004 4.048-.5793 6.072-1.726" fill="url(#n)"/><path d="m399 178c-3.018-8.484-1.291-17.14 3.811-24.33.0295.005.0597.009.0907.0147l.0152.003c.0317.004.0645.009.0967.0136l.003 4e-4c.0305.004.0616.008.0925.012l.0177.003.0904.0107.0133.001.0836.008.0324.003.0733.007.0317.003.0824.007.0295.001c.0325.003.0659.004.0995.005h.001c.0325.001.0655.004.0991.005l.0219 4e-4.082.003.0344.001.0776.001.0404.00066.0857 4e-4h.1017l.0529-4e-4.0639-.001.0435-8e-4.0748-.003.0533-.001.0744-.003.0303-.001.0828-.004.1182-.007.0507-.003.0668-.004.0613-.005.0631-.005.0499-.004.0764-.007.0503-.005.0729-.008.048-.005.0669-.008.0763-.009.0405-.005.0707-.009.0623-.008.0659-.009.0573-.008.0688-.0107.0507-.008.0843-.0137.0408-.007.0681-.012.0699-.012.0511-.009.0737-.0133.0559-.0107.0643-.0133.0657-.0133.0635-.0133.0552-.012.0669-.0144.0711-.0163.0513-.012.0696-.0159.0579-.014.0703-.0171.0548-.014.0624-.0159.0668-.0173.0533-.0144.0707-.0189.0544-.0155.0711-.02.0568-.0167.0657-.0192.0513-.0152.0756-.0235.0375-.012.0892-.0287.0303-.009.0843-.0279.0627-.0208.0575-.0201.0575-.0196.0657-.0231.0601-.0223.0559-.02.0972-.0367.0155-.007c.0329-.012.0651-.0256.0979-.0381l.0257-.0107.0843-.0332.0344-.0144.0813-.034.0377-.0155.0859-.0371.0275-.012c.0364-.0161.0723-.0324.1077-.048l.005-.003.1069-.0495.008-.004.0861-.0412.0321-.0152.0628-.0309.0505-.0253.0869-.0443.0201-.009.0733-.0385.0404-.0216.004-.003c.0328-.0177.0661-.0363.0993-.0552l.003-.001.0612-.0341.0428-.0245.007-.004c.0336-.0189.0668-.0389.1005-.0583l.005-.003.0173-.0107c.062-.0375.1244-.0752.1848-.1133l.003-.001c.0329-.0216.0665-.0428.0991-.0643l.001-8e-4c.0333-.0219.0665-.0435.0983-.0657.5212.576 1.27.8179 2.15.6092-6.098 1.787-10.68 9.38-10.68 18.48 0 1.944.2089 3.819.5975 5.584-1.111.4268-2.224.8671-3.322 1.318zm13.81-25.5.0321.007c-.0643.0155-.1273.0329-.192.0499.0533-.0169.1059-.0363.1599-.0563" fill="url(#o)"/><path d="m383.5 136.4c.4105.9565.9571 1.64 1.64 2.049 1.367-.0464 2.733-.4565 4.098-1.23.7173-.6829 1.232-1.71 1.402-2.939l-1.5-4.932c-.3057-1.006-1.948-1.008-2.156.0937-.6796-.2423-1.406.0185-1.732.5869-.5775-.1837-1.22-.0692-1.649.7919-.7891.4508-1.054 1.244-1.024 2.198l-.0505.3515.6345 1.376.3375 1.653z" fill="#fc9"/><path d="m392.5 133.3 46.02-15.92c2.062-.8473 3.879-1.922 5.517-3.45-2.282-.2268-4.341-.2503-6.543.4693l-46.22 15.1 1.23 3.791z" fill="url(#p)"/><path d="m390.6 134.3.8995 2.047c.7851 1.787 4.035.6527 3.027-2.012-.9139 1.188-1.61.2869-2.049-1.025l-1.23-3.791-.8477-2.096c-.746-1.844-3.916-1.265-3.456 2.002.3591-.8848 1.419-1.155 2.102-.2204l1.554 5.094z" fill="#f7e63d"/><path d="m386.6 134.7-4.444 2.364c-1.139-.7631-1.541-2.152-1.34-3.723l1.741-.3451-.012.3741.4645 1.079c.3589.8349 1.442.4979 1.488-.2793.3697.5323 1.224.3811 1.573-.1957.0995.1527.3893.3236.7185.2933l.0404.1568c-.0847.0896-.1617.1815-.2309.2759" fill="url(#q)"/><path d="m417.5 189.6c-.7628.1891-1.548.288-2.349.288-3.939 0-7.482-2.382-9.94-6.175-1.92.2971-3.84.5677-5.761.8133l-4.297 8.438c7.086 3.987 14.96 6.917 22.57 4.905l-.2248-8.268z" fill="url(#r)"/><path d="m442.4 144.1c.2121-1.232.4456-2.588.2729-4.226-.0469-.1119-.0979-.2211-.1508-.3265-.0888-.1753-.1864-.3409-.2903-.4977-.5348-.8039-1.258-1.358-2.028-1.637-.3243-.1172-.7067-.1727-1.118-.1739-.8552-.003-1.831.2303-2.653.6304-1.01.4917-2.092 1.412-1.756 2.627.0317.1153.0756.2328.132.3511.26.5405.7884 1.094 1.67 1.481l.0133-.0284c.5477.2616 1.193.3669 1.863.4759 1.389.2256 2.89.4697 3.907 2.156.0431-.2783.0899-.5548.1379-.8315" fill="url(#s)"/><path d="m444.2 145.3c.7484-.5651 1.354-1.022 1.562-1.738l.004.001c.0552-1.012-.1871-1.772-.6199-2.322-.5635-.7139-1.443-1.053-2.321-1.154l-.0385-.004c.1265 1.535-.0945 2.821-.2964 3.993-.0536.3121-.1077.6236-.1535.9361-.1016.6969-.1572 1.365-.0777 2.036.6535-.7764 1.342-1.297 1.941-1.749" fill="url(#t)"/><path d="m442.6 149.4c.6535-.1712 1.304-.3416 2.209-.9625 1.618-1.359 1.921-2.717.9081-4.073l-.007-.008.001-.012c.0272-.1489.0483-.2944.0645-.4349.007-.0564.012-.1123.0167-.1675-.2528.6368-.8263 1.07-1.522 1.596-1.772 1.252-2.933 2.699-3.593 4.83.7604-.4645 1.342-.6168 1.922-.7684" fill="url(#u)"/><path d="m438.8 145.9c.754.3439 1.323 1.048 1.587 1.864.1648.5111.2101 1.065.1067 1.602-.0915.4767-.3009.9384-.6468 1.345.2643-.206.5088-.3765.7371-.5183l-.008-.003c.4399-1.374 1.023-2.354 1.641-3.102-.0904-.7003-.0325-1.396.0756-2.123-1.006-1.713-2.512-1.958-3.904-2.185-.5957-.0968-1.17-.1901-1.679-.3935.0269.1633.0609.3281.1036.4932.0435.1693.0945.338.1549.5061.3119.8655.8679 1.723 1.78 2.47l.0532.0432z" fill="url(#v)"/><path d="m437.9 152.8c1.123.4528 2.277.9173 3.728.8463 1.3-.2909 2.158-.8757 2.642-1.71.4973-.8599.5975-1.987.3741-3.33-.8372.5469-1.457.7091-2.079.872-.8353.2188-1.676.4384-3.06 1.608l-.00027-.00026c-.7109.6171-1.821 1.044-3.422 1.082.6248.1524 1.217.3908 1.818.6327" fill="url(#w)"/><path d="m437.6 147c.4408 1.415.0288 2.997-1.053 4.003-.5243.4868-1.182.8103-1.882.9433.4369-.0136.8481.0313 1.246.1141 1.858-.004 4.164-.6331 4.567-2.725.1016-.5287.0573-1.074-.1055-1.577-.2721-.842-.8743-1.564-1.672-1.882l4e-4-.00027c-.3541-.0171-.5923.1088-.7627.3193-.1671.2071-.2719.4955-.3553.8096l.0173-.005z" fill="url(#x)"/><path d="m437.5 155.2c.8819.1667 1.683.1844 2.357-.0319.6891-.2215 1.247-.6889 1.623-1.494-1.382.0292-2.494-.4191-3.579-.856-.6652-.2676-1.321-.5311-2.02-.6773-1.201-.2433-2.419.0261-3.604-.3529.0375.0165.0756.0324.1137.0487l.003 8e-4.0477.02c1.162.4948 2.264.9623 3.197 1.844.5956.644 1.1 1.212 1.862 1.499" fill="url(#y)"/><path d="m434.6 148.2c-.3228.3924-.7152.714-1.15.9623-.7657.4369-1.662.6471-2.53.6157-.5624-.0204-1.113-.1417-1.61-.3685.2801.5568.8621 1.202 1.808 1.795.1889.1179.3916.234.61.3469l.0503.0265c1.264.5344 2.397.5725 3.326.2831.55-.1712 1.028-.4573 1.422-.8228.3931-.3648.7008-.8096.9079-1.298.3383-.7995.4083-1.717.1463-2.6l-.007.0249-.005.0181-.0181.001c-.4929.0404-.9857.1599-1.479.3371-.4895.1761-.9804.4097-1.471.6784" fill="url(#z)"/><path d="m426.8 146.6c.4073.4668.7639.9797 1.084 1.517.1845.2728.4041.5079.6513.7064.6447.5192 1.474.7884 2.332.8189.8591.0303 1.746-.1765 2.504-.6096.4213-.2404.8028-.5507 1.118-.9283-.5568-.4211-1.113-.6516-1.669-.6912-.714-.0579-1.405-.0787-2.124.0691-1.284.1293-2.522.2532-3.896-.8821" fill="url(#aa)"/><path d="m424.6 144.3c.1447.2593.2831.5228.4164.7904 1.122.6255 1.887 1.763 3.114 2.2.8867.316 1.738.2305 2.61.1428.6353-.0641 1.282-.1288 1.964-.0431-.8375-1.928-2.531-3.198-4.363-4.107-.5779-.1984-1.231-.2536-1.903-.3107-1.191-.1005-2.443-.206-3.468-1.117.6255.7917 1.159 1.599 1.63 2.444" fill="url(#ab)"/><path d="m421.9 145.2c-.3553-.7899-.5187-1.624-.6675-2.472-.2929-1.67-.5844-3.328-2.949-5.189-.9087-.6883-1.86-1.3-3.421-1.379 1.722.7793 2.356 2.608 2.882 4.126.3217.9287.5189 1.908.9899 2.779.686 1.267 1.729 1.978 3.128 2.135l.0371.001z" fill="url(#ac)"/><path d="m431.4 154.7c-.8444-.8296-1.444-2.17-2.092-3.618-.4328-.9688-.8879-1.986-1.451-2.928-.0451-.0669-.0881-.1357-.1289-.2079l.001-8e-4c-.6903-1.106-1.542-2.096-2.704-2.763.8913 1.808 1.556 3.819 2.204 6.23.5733 2.08 1.917 3.307 4.135 3.33l.0344-.0416z" fill="url(#ad)"/><path d="m431.4 154.7c-.8409-.8224-1.441-2.163-2.088-3.611-.3821-.8541-.7805-1.746-1.256-2.592.1297.1489.2715.2845.4223.4063.2093.1681.4376.3125.6811.4287l.008.0181c.2763.5725.8693 1.24 1.846 1.853.1897.1191.3941.2363.6131.3496.2192.1133.4531.2245.7029.3304l.001.00067.0472.02c1.159.4925 2.256.9589 3.182 1.834.1361.1277.2585.2517.3776.3716.3969.4009.7507.7585 1.402 1.089-1.068.8799-2.665 1.194-4.221.644-.3047-.1073-.6071-.2479-.9037-.4229-.2971-.1753-.5881-.3863-.8681-.6341l-.007-.005.0608-.0793z" fill="url(#ae)"/><path d="m427.2 151.4c-.7777-2.794-1.541-5.024-2.658-7.029-1.124-2.021-2.609-3.816-4.847-5.735-.2367-.1528-.46-.3133-.6773-.4767 1.736 1.632 1.997 3.117 2.26 4.614.344 1.96 1.231 5.156 2.335 6.605.8255 1.084 1.959 1.823 3.588 2.022" fill="url(#af)"/><path d="m424.8 139.6c-2.373.2748-3.791-.1655-4.892-.8133.9839.8599 1.818 1.698 2.538 2.545l.003-.003c1.083 1.382 2.544 1.505 3.921 1.622.6123.0515 1.209.1021 1.75.26-.0903-.4433-.2637-.8663-.4965-1.254-.6085-1.009-1.647-1.832-2.824-2.366l8e-4.008z" fill="url(#ag)"/><path d="m411.8 135.9c-.2389.0192-.4808.0223-.7245.004.0639.0695.1259.1413.1856.2139.7275.48 1.406 1.215 2.118 1.985 1.282 1.386 2.67 2.888 4.627 3.206-.1244-.3047-.2423-.6448-.3663-1.002-.5344-1.542-1.182-3.408-2.983-4.148l-.007-4e-4v-.003c-.9291-.3797-1.89-.3344-2.85-.2561" fill="url(#ah)"/><path d="m414.6 135.1c1.161-.4283 2.286-.8428 3.392-.6576-2.688-1.766-4.596-.7053-6.292.2388-.4093.228-.8073.4495-1.201.6233.2091.1644.4056.3447.5873.5389 1.213.1061 2.381-.3251 3.514-.7435" fill="url(#ai)"/><path d="m414.6 135.2c-.6621.2441-1.336.4924-2.024.6372.8572-.0431 1.56.0793 2.143.3175 1.647.0507 2.63.6743 3.566 1.382l4e-4-4e-4.0159.0133c.4607.3492.9093.7144 1.394 1.029l.003-.003.0193.0163c1.126.7249 2.555 1.26 5.076.9777-.3552-.8327-.8141-1.625-1.397-2.319-1.285-1.528-2.967-2.348-4.876-2.646-.5552-.0861-1.086-.1659-1.61-.1012-.7657.0933-1.518.4036-2.31.6965" fill="url(#aj)"/><path d="m398.9 141.3c.2581-1.95.7367-3.552 1.446-5.028l.7664.4981c1.117 1.374 2.595 2.647 4.132 3.651l-.007 2.603c-2.294-.5377-4.536-1.145-6.337-1.724" fill="url(#ak)"/><path d="m401.1 136.8c1.772-2.152 5.194-3.494 8.242-2.087 3.565 1.646 3.862 5.999 3.134 9.636-2.156-.2245-4.741-.7159-7.26-1.307l.007-2.603c-1.532-1.002-3.005-2.27-4.122-3.639" fill="url(#c)"/><path d="m409.5 148.9c-.2975 2.73 1.209 4.398 3.327 3.577-1.388-1.472-1.767-3.465-.9959-5.652.2645-.7509.5027-1.596.6784-2.48-.5733-.0672-1.182-.1393-1.762-.2267l-.7556 3.604c-.0975.4629-.2695.85-.4924 1.177" fill="url(#al)"/><path d="m410.7 144.1-.7556 3.604c-.3216 1.534-1.459 2.226-2.593 2.727-.856.3779-1.524.1916-2.012-.5372-.7713-1.149-1.145-2.218-.8943-3.397l.7537-3.548-4e-4.0695c1.865.4365 3.766.8201 5.502 1.08" fill="url(#am)"/><path d="m410.2 152c-2.113 1.436-5.37 2.034-7.522 1.646-.009-.4544-.009-1.064-.009-1.566.9831-.256 2.33-.9715 2.826-1.971.4721.5593 1.09.6765 1.862.3364.7911-.3497 1.584-.7923 2.101-1.549-.1471 1.353.1489 2.445.7427 3.103" fill="url(#an)"/><path d="m405.2 143c-2.282-.528-4.514-1.144-6.322-1.711-.2159 1.249.1405 1.422.1995 2.302.028.4145-.136.7933-.3095 1.156-.2513.5239-.4151.9559-.7624 1.479-.5008.7551-.2116 1.13.2627 1.492-.0604.5548.11 1.033.5125 1.434.008.418.2468.7601.7173 1.025-.59 2.037.9317 2.377 3.17 1.879.9843-.2552 2.338-.9725 2.834-1.975-.0595-.0653-.1071-.1285-.1524-.1977-.7713-1.149-1.145-2.218-.8943-3.397l.7449-3.487z" fill="#f5c491"/><path d="m398.3 147.6c.198.2075 1.619.2493 1.762-.0484.4637 1.114 1.512 1.895 2.88 1.365-.4289 1.475-2.496 1.158-3.054.2513h-1.118l-.4221-.6221-.048-.946z"/><path d="m399.2 143.5c.7872-.5995 1.914-.1795 2.858.2884m-1.982.3163c.6157-.2841 1.154.2948 1.659.3432" fill="none" stroke="#000" stroke-miterlimit="10" stroke-width=".75"/><path d="m400.4 144c.186 0 .3376.198.3376.4425s-.1516.4431-.3376.4431c-.1859 0-.3371-.1985-.3371-.4431 0-.2445.1512-.4425.3371-.4425"/><path d="m340.1 158.4c-1.175.7359-2.291 1.68-1.984 4.098.1217.9569-.3745 1.999-.8239 2.772.8057-.1572 1.728-.5929 2.348-1.169.266-.5636.5877-1.158.9505-1.756-.2713-1.272-.2929-2.645-.4903-3.945" fill="url(#ao)"/><path d="m342.3 159.9c.2299-1.196.1901-4.578 3.563-5.304-.4256-.9637-.7288-2.059-.8531-3.184-4.65-.3137-5.458 3.462-4.917 6.886.2093 1.323.226 2.727.5031 4.026.5072-.8451 1.083-1.66 1.704-2.424" fill="url(#ap)"/><path d="m342.3 159.9c.8844-1.084 1.863-2.046 2.84-2.686.5295-.3477 1.112-.6399 1.728-.8848-.3792-.4985-.7197-1.086-1.006-1.733-3.372.7253-3.333 4.107-3.563 5.304" fill="url(#aq)"/><path d="m356.2 155.2c-.6093-.0484-1.219-.0692-1.83-.0657-.7252.004-1.494.0303-2.296.0997-.6611-2.255-3.246-3.04-4.136-4.034 1.396-1.173 3.292-1.914 5.792-1.034 1.486 1.15 2.733 2.505 2.471 5.034" fill="url(#ar)"/><path d="m356.2 155.2c.3519.0204.7048.0537 1.059.0952 1.349-1.125 2.144-3.28 1.328-4.349-1.361-1.42-3.281-1.659-4.858-.7801 1.486 1.15 2.733 2.505 2.471 5.034" fill="url(#as)"/><path d="m359.9 155.8c-.8848-.2056-1.778-.3605-2.674-.4641 1.349-1.125 2.144-3.28 1.328-4.349 2.15-.8129 4.529-.3424 5.189 2.179-.5791 1.118-2.094 2.45-3.844 2.634" fill="url(#at)"/><path d="m372.3 154.1c-1.93-3.72-5.345-3.413-8.607-.9293-.5791 1.118-2.094 2.45-3.844 2.634 1.072.2419 2.131.5579 3.172.9431 3.103.3801 5.219-2.922 9.279-2.648" fill="url(#au)"/><path d="m378.7 158.4c-1.405-2.392-3.561-4.099-6.348-4.307-4.06-.2748-6.176 3.028-9.279 2.648 1.027.3745 2.036.8163 3.02 1.319 3.946 1.504 8.038-.4403 12.61.3399" fill="url(#av)"/><path d="m383.9 164c-.4773-2.974-2.287-5.058-5.229-5.638-4.57-.7801-8.661 1.164-12.61-.3399 1.55.7881 3.043 1.727 4.46 2.8 5.343 3.508 9.746 1.949 13.38 3.178" fill="url(#aw)"/><path d="m386.4 169.8c-.2173-2.064-.8663-4.045-2.455-5.834-3.631-1.229-8.034.3304-13.38-3.178 1.574 1.188 3.056 2.541 4.421 4.037 4.071 3.752 7.271 2.454 11.41 4.975" fill="url(#ax)"/><path d="m375 164.9c1.527 1.674 2.908 3.528 4.108 5.53 4.002 6.056 8.242 5.845 11 8.159.0843-3.556-.7692-6.8-3.695-8.715-4.14-2.521-7.34-1.222-11.41-4.975" fill="url(#ay)"/><path d="m394 185.2c-.2868-2.915-.534-5.182-3.964-6.651-2.755-2.314-6.996-2.103-11-8.159 1.303 2.174 2.394 4.524 3.231 7.02 1.427 2.618 4.384 3.362 6.074 5.872 1.886.2635 3.771.7465 5.656 1.918" fill="url(#az)"/><g fill="#e6e6e6"><path d="m388.4 183.3c-1.691-2.51-4.648-3.254-6.074-5.872.5707 1.698 1.024 3.467 1.342 5.291l4.732.5809z"/><path d="m388.4 183.3c1.01 1.385 1.866 2.995 2.497 4.029 1.384.8383 3.283 3.003 4.775 5.332.5315-3.698-.2887-6.522-1.616-7.443-1.886-1.211-3.771-1.645-5.656-1.918"/><path d="m395.6 192.7c-.0375.1723-.0793.3465-.1255.5215-3.123-2.498-6.004-2.433-7.016-4.377l.8447-2.034 1.521.5527c1.742.6591 3.807 2.741 4.775 5.332l8e-4-.003v.008z"/></g><path d="m356.5 187-.4287 1.933c-3.526-.7257-7.372-2.402-10.86-4.41l-.2499-.3923c3.496 1.351 7.403 2.295 11.54 2.869" fill="#f7e63d"/><path d="m345.1 149c-.4312 2.507.4332 5.584 1.777 7.346-1.223.5023-2.357 1.204-3.334 2.178l9.816 5.923.9615-9.301c-.7456.004-1.502.028-2.296.0604-.8716-2.799-4.932-3.677-6.924-6.206" fill="url(#ba)"/><path d="m358.2 167.2c.001.7124.0863 1.524.2091 2.404.2608 1.873.3723 3.875-.6621 5.634-1.795 2.93-6.338 4.492-8.275 4.198-.4384 1.36-1.961 2.454-4.33 3.447l-10.19-6.282c2.082-3.918 4.211-8.394 4.716-12.41.8493-1.829 2.227-3.982 3.794-5.571l14.74 8.576z" fill="url(#bb)"/><path d="m345.2 183.6c.0208 4.862-.5163 5.054-3.853 5.922-.5492.1424-1.326-.3545-.9808-1.566.4619-1.623.8644-3.197 1.09-4.796-1.09 1.302-2.179 2.851-3.269 4.468-.8568 1.192-3.312 1.482-3.814.5451-.3081-1.314-.8879-2.527-1.635-3.706-.7949-1.253-.9767-2.6 0-4.032.4063-.6679 1.315-2.162 1.792-3.226l10.67 6.39z" fill="url(#bc)"/><path d="m357.7 175.3c-.43 2.875-.6727 6.477-.7781 9.301 8.44.9021 18.8.6304 26.89-1.136l-.1656-.7719c-2.686-15.38-14.88-26.91-28.07-27.54-.1168 2.676-.2623 6.354-.9221 8.871l3.618 2.162c-.0457.3016-.0655.6308-.0647.9839h.00066c8e-4.4236.0303.8813.0809 1.368l.003.0325.00067.005.008.0779.001.0139.003.0247.0177.1564.001.0163.003.0231.008.0684.001.008c.0245.1992.0515.4028.0801.61.2608 1.873.3723 3.875-.6621 5.634-.0181.0295-.0375.0589-.0564.0888" fill="url(#bd)"/><path d="m433.6 234.8c1.307.2771 2.711.4252 4.014.2971 3.595 2.036 6.645 4.396 11.84 5.939-.4176 6.197 3.714 13.55 6.1 19.44.5907 1.562.7521 3.072-.1092 4.687-.6989 1.31-1.44 1.864-2.507 1.525-.3995.8356-.8323 1.656-1.198 2.506-.4373 1.017-.1127 1.83.8719 2.398-.007.0971-.0144.1943-.0223.2913l-.003.0371c-3.57.8341-6.318.0253-7.787-1.683l.0336-.0699c.0515-.1069.1013-.2132.1501-.3201 2.065-.4596 3.043-1.777 2.725-3.923-.1841-1.237-.1829-2.364.6535-3.27.7155-.7737.808-1.526.7635-2.288-.6652-7.54-4.475-14.11-10.4-19.08-2.109-1.77-4.521-2.866-5.514-3.806l-.005-.007c.2091-.9108.3587-1.89.3879-2.677" fill="url(#be)"/><path d="m452.6 272c-.0684.8349-.1885 1.67-.5196 2.505-2.436 4.872-10.18 4.188-11.68 2.636 1.65-2.032 3.283-4.486 4.407-6.824 1.469 1.708 4.218 2.517 7.787 1.683" fill="url(#bf)"/><path d="m466.8 272.7-.2501 2.162c-.9981 5.036-10.05 4.857-11.64 2.984 1.653-2.081 3.09-4.396 4.216-6.758 2.156 1.594 4.752 2.472 7.67 1.611" fill="url(#bg)"/><path d="m326.5 241.6c.0173.0253.0352.0511.0544.0764.7449.7503 1.254 1.659 1.526 2.725.5869 3.612-3.354 7.776-7.679 8.41.1349-1.53.0393-4.376-.6039-6.231-.2163-.6224-.3277-1.22-.3195-1.783 2.477.2816 4.884-.7751 7.022-3.198" fill="url(#bh)"/><path d="m331.8 258.8.012.0143c.6553.6493 1.365 1.83 1.744 2.834.5223 3.395-2.278 7.685-6.648 9.114-.3435-2.166-.5944-4.522-1.634-6.825-.1947-.4312-.324-.8595-.3539-1.281 2.316.41 4.928-1.162 6.88-3.856" fill="url(#bi)"/><path d="m356.8 221.5c-.9509-.9695-1.194-5.164-1.607-7.049-4.286-.2231-10.74.7612-12.86.2177-4.471-1.144-7.628-.0284-8.808 3.715-2.065 4.21-5 8.485-8.728 12.92-1.209 1.438-2.773 2.337-2.625 5.489.094 1.997-.3405 3.864-2.012 5.994-.4641.5911-.686 1.26-.7049 1.989l-8e-4.0419c2.477.2816 4.884-.7751 7.022-3.198l-.0227-.0336c-.762-1.169.0317-2.442.7309-3.604 2.47.5647 3.398-1.819 3.16-3.914-.5107-4.5 6.531-10.61 10.35-11.88 1.278-.4245 2.603-.8448 4.795.218 2.137.9476 4.353 1.855 6.695 2.198 1.512-1.198 3.051-2.215 4.612-3.104" fill="url(#bj)"/><path d="m389.3 216.5c-.618-.8273-.6984-1.831-.3409-2.71-16.4-1.028-27.18-.4905-33.08 4.957.2203 1.214.5023 2.268.9215 2.695-1.937 1.104-3.844 2.362-5.512 3.819-2.45 2.142-4.604 4.278-7.03 4.74-2.316.4415-3.972 1.376-4.868 3.791-2.818 5.588-6.378 10.72-10.14 15.8-1.93 2.61-2.531 4.217-2.615 6.103-.0869 1.952-.3848 3.771-1.417 5.449-.2828.4592-.3844.9309-.3561 1.411l.003.0325c2.316.41 4.928-1.162 6.88-3.856-.0133-.0156-.0264-.0311-.0389-.0476-.7525-.9563-.3719-2.566.7552-3.108 1.677.3621 3.235-1.414 2.724-3.587-.2979-1.267-.1017-2.615.822-3.814 1.723-2.239 4.13-5.431 6.128-8.151 2.733-.8337 5.606-3.152 7.259-5.819 6.03-.9279 12.19-2.419 18.22-5.32 1.211.9929 3.073.6831 5.231-.218 4.726 1.985 9.466 3.304 14.51 3.876l1.948-16.04z" fill="url(#bk)"/><g stroke="#000" stroke-miterlimit="10"><g fill="none"><g stroke-linejoin="round"><path d="m346.3 182.4c1.416-.7087 2.726-1.56 3.164-2.92 1.937.2941 6.48-1.268 8.275-4.198-.4925 3.098-.6849 6.19-.8516 9.126-3.509-.0847-7.079-.6213-10.59-2.008z" stroke-width=".75"/><path d="m386.9 239.2c-1.275 1.412-2.436 2.356-3.51 3.114-1.473 1.039-2.121.5659-2.893.9975-.9029.5039-.7313 1.401.2419 1.737 1.122.4993 2.321.5935 3.596.1667 1.017-.2173 2.034-.4353 3.052-.6535l.0575.9295 3.103-.3267-.1089-1.038c1.344-.1092 2.688-.2181 4.032-.3273 1.418-.4464 1.458-1.635.872-3.16-.3875-.7264-.6396-1.453-.872-2.179-.0461-2.012.1247-3.908.5447-5.45 2.616.3172 5.231.172 7.847-.4357 2.194 5.781 5.049 12.97 11.44 14.6 1.425-3.015 1.152-7.875.2627-11.89 2.174 3.536 4.915 7.029 8.892 8.296 1.678-3.96.8263-8.382.1021-12.11 2.205 3.078 4.599 6.834 8.943 8.405.3511-.5695.5669-1.41.7635-2.288.9929.9399 3.405 2.036 5.514 3.806 5.923 4.972 9.732 11.54 10.4 19.08.0445.7627-.048 1.514-.7635 2.288-.8364.9056-.8376 2.033-.6535 3.27.3185 2.146-.66 3.464-2.725 3.923-1.125 2.453-2.848 5.069-4.591 7.214 1.492 1.552 9.238 2.236 11.68-2.636.3745-.9448.4788-1.889.5449-2.834-.9845-.5684-1.309-1.382-.8719-2.398.3661-.8504.7989-1.671 1.198-2.506 1.067.3393 1.808-.2155 2.507-1.525.8613-1.615.6999-3.124.1092-4.687-2.386-5.896-6.517-13.22-6.103-19.4 7.434 2.093 12.31 7.891 14.06 19.51.412 2.736-2.101 2.96-1.253 6.14.5216 1.959-1.037 3.407-2.972 3.796-1.16 2.544-2.687 5.051-4.464 7.287 1.585 1.872 10.64 2.052 11.64-2.984.1024-.8881.2052-1.776.3072-2.664-1.096-.6815-1.23-1.651-.5121-2.971.4155-.7639.8512-1.422 1.537-1.742 1.385.1213 2.166-.3051 2.561-1.229.8452-1.979.5069-3.883-.3855-5.715-3.381-6.934-6.305-13.55-6.274-18.47.012-1.984-.5768-2.962-1.243-3.702-.1823-2.443-.8648-3.354-3.266-3.252-2.358.0991-5.391 1.068-5.84-1.96-.3943-2.66-1.012-5.328-1.844-7.992 3.596-9.196 1.539-17.41-4.886-24.6 3.181.5548 7.591-.3455 11.01 1.762 2.414 1.487 3.577 4.05 3.202 7.984-.3712 3.886-.9229 8.832 2.209 10.67.6935 5.008 3.518 12.34 8.037 13.51 2.725 3.517 6.014 6.157 9.836 6.762-3.721-5.226-4.638-10.85-3.733-16.85 3.943-7.708-.9439-16.23-5.065-20.91-.5767-3.18-2.899-5.734-5.67-7.612-4.518-3.064-9.313-2.762-14.06-.0673-4.424 2.512-9.086 1.953-13.68.392-5.788-1.965-11.68-1.883-17.52-.4491v-.5121c-1.264-.009-2.47.0587-3.734.2045.2015-1.939.0628-3.879-.0367-5.818 6.306-1.555 11.1-9.287 11.1-18.59 0-10.42-6.018-18.88-13.44-18.88-.802 0-1.587.0991-2.35.2884-1.36-1.497-1.739-3.489-.968-5.676 1.356-3.844 1.972-10.07-2.458-12.12-3.048-1.408-6.471-.0647-8.243 2.089l-.7748-.512c-.7095 1.476-1.188 3.067-1.434 5.007-.2264 1.272.1341 1.442.1939 2.328.028.4145-.136.7933-.3095 1.156-.2513.5239-.4151.9559-.7624 1.479-.5008.7551-.2116 1.13.2627 1.492-.0604.5548.11 1.033.5125 1.434.008.418.2468.7601.7173 1.025-.59 2.037.9317 2.377 3.176 1.889v1.594c-.9219-.034-1.844-.068-2.766-.102-1.879-.9567-3.757-1.913-5.636-2.869-.2309-1.608-.8027-3.148-1.716-4.62l.4376-.2157c-1.043-3.33-3.185-6.43-3.743-8.689.7173-.6829 1.161-1.639 1.332-2.868l.9691 2.012c.8467 1.759 4.035.6527 3.027-2.012-.9139 1.188-1.61.2869-2.049-1.025l46.02-15.92c2.062-.8473 3.879-1.922 5.517-3.45-2.282-.2268-4.341-.2503-6.543.4693l-46.22 15.1-.8477-2.096c-.746-1.844-3.916-1.265-3.456 2.002-.6796-.2423-1.406.0185-1.732.5869-.5775-.1837-1.22-.0692-1.649.7919-.7891.4508-1.054 1.244-1.024 2.198l-1.742.3072c-.2393 1.572.2388 3.074 1.434 3.893l1.23-.8197c.4105.9565.9571 1.64 1.64 2.049.1879 3.04.3923 6.335.7173 9.374l.6149.0264c.1685 2.392.5088 4.638 2.049 6.482-.1021 1.195.2052 1.98.9225 2.356 2.32 1.818 4.463 4.164 7.377 4.201.5121.6145 1.024 1.229 1.536 1.844-1.435 5.828-.9845 10.76.5783 15.28-2.231.9188-4.4 1.883-6.367 2.868-.4596-.6592-2.094-2.021-2.51-2.271.0859-3.552-.7676-6.797-3.688-8.709-.2223-2.066-.8712-4.048-2.459-5.84-.4785-2.972-2.288-5.055-5.226-5.636-1.41-2.39-3.566-4.098-6.353-4.303-1.93-3.723-5.345-3.416-8.607-.9223-.6603-2.532-3.04-3.002-5.188-2.184-1.362-1.425-3.282-1.664-4.852-.7865-2.507-.8788-4.372-.1611-5.762 1.008-.9219-.3605-1.858-1.171-2.78-2.34-.3243.8537-.1985 1.708-.1675 2.562-4.687-.3163-5.448 3.522-4.881 6.967-1.175.7359-2.291 1.68-1.984 4.098.1217.9569-.3745 1.999-.8239 2.772.8057-.1572 1.728-.5929 2.348-1.169-.5171 4.205-2.249 8.116-4.324 11.92l-.2453-.1141-1.255 2.109.2868.1765c-.4259.7377-.8964 1.523-1.329 2.257-.9767 1.432-.7949 2.779 0 4.032.7468 1.179 1.326 2.391 1.635 3.706.5023.9369 2.958.6469 3.814-.5451 1.09-1.618 2.18-3.166 3.269-4.468-.2252 1.598-.6277 3.172-1.09 4.796-.3451 1.212.4313 1.709.9808 1.566 3.395-.8829 3.832-1.338 3.855-4.995 3.486 2.008 7.332 3.684 10.86 4.41-.7703 4.319-1.106 8.838.6543 13.63-3.123 3.633-2.031 7.648-1.526 11.87-4.286-.2231-10.74.7612-12.86.2177-4.471-1.144-7.628-.0284-8.808 3.715-2.065 4.21-5 8.485-8.728 12.92-1.209 1.438-2.773 2.337-2.625 5.489.094 1.997-.3405 3.864-2.012 5.994-.8304 1.058-.8875 2.368-.3863 3.814.6432 1.856.7388 4.701.6039 6.231 4.325-.6337 8.266-4.798 7.679-8.41-.2717-1.066-.7805-1.975-1.526-2.725-.8889-1.198-.0676-2.516.6539-3.714 2.47.5647 3.398-1.819 3.16-3.914-.5107-4.5 6.531-10.61 10.35-11.88 1.278-.4245 2.603-.8448 4.795.218 2.137.9476 4.353 1.842 6.648 2.18-2.813 2.362-5.18 4.957-7.883 5.472-2.316.4415-3.972 1.376-4.868 3.791-2.818 5.588-6.378 10.72-10.14 15.8-1.93 2.61-2.531 4.217-2.615 6.103-.0869 1.952-.3848 3.771-1.417 5.449-.5368.872-.4215 1.791 0 2.725 1.04 2.303 1.291 4.66 1.634 6.825 4.37-1.429 7.17-5.719 6.648-9.114-.3791-1.004-1.088-2.185-1.744-2.834-.8205-.9456-.4475-2.615.7041-3.17 1.677.3621 3.235-1.414 2.724-3.587-.2979-1.267-.1017-2.615.822-3.814 1.723-2.239 4.13-5.431 6.128-8.151 2.733-.8337 5.606-3.152 7.259-5.819 6.03-.9279 12.19-2.419 18.22-5.32 1.211.9929 3.073.6831 5.231-.218 4.736 1.989 9.487 3.309 14.54 3.879l-.5311 6.562zm7.142-53.93c1.504 1.109 2.022 3.377 1.553 6.656l3.826-7.3c-1.784.2287-3.567.4359-5.351.6233l-.028.02z"/><path d="m411.3 136.2c2.04 1.343 3.708 4.708 6.77 5.199.5695 2.376 1.833 3.675 3.791 3.893.7721 3.178 2.086 5.749 5.328 6.148.5843 1.88 1.608 3.354 4.201 3.382 2.015 1.784 4.55 1.65 6.045.4093 1.838.3651 3.339.1031 4.098-1.537 2.78-.5605 3.636-2.403 3.176-5.123 1.73-1.4 2.071-2.8 1.025-4.2.5189-2.857-.9969-4.074-2.869-4.29-.514-1.391-1.498-2.316-2.576-2.705-1.862-.6728-5.621.6724-5.627 2.639-.003.7699.57 1.809 2.055 2.397.1943 1.196.776 2.454 2.049 3.497-.7964-.0741-1.052.5295-1.229 1.229-.9905.0816-1.981.4808-2.972 1.025-.6145-.4703-1.229-.7095-1.844-.7173-.8615-1.984-2.566-3.245-4.508-4.187-.3175-1.611-1.715-2.932-3.381-3.675-1.386-3.253-3.834-4.724-6.762-5.048-3.412-2.291-5.574-.0556-7.626.8325.3228.2499.6077.53.8564.8343z"/><path d="m345.1 149c-.61 3.55 1.376 8.241 3.642 8.728 1.109-.6277 1.209-1.976.314-2.763-1.897-1.666-3.119-3.621-3.956-5.965z" stroke-width=".75"/></g><g stroke-width=".75"><path d="m347.8 151.1c1.067 1.371 5.484 2.229 4.082 6.907"/><path d="m388.5 188.8c.9943 1.91 3.597 1.733 6.651 4.098m-55.04-34.61c.3873 1.499.1848 2.79.5023 4.151m5.24-7.849c-3.454.7443-3.329 4.272-3.578 5.385m11.36-9.781c1.502 1.152 2.774 2.478 2.512 5.023m2.386-4.264c.8156 1.074.0208 3.229-1.325 4.354m6.537-2.226c-.5616 1.137-2.093 2.503-3.865 2.694m3.17.9416c3.134.3817 5.262-2.949 9.402-2.602m-6.384 3.92c3.985 1.516 8.116-.4233 12.73.4161m-8.273 2.384c5.377 3.527 9.8 1.93 13.44 3.202m-9.02.8327c4.151 3.827 7.366 2.52 11.62 5.238m-7.514.2925c4.08 6.174 8.368 5.92 11.12 8.38m-7.89-1.353c1.509 2.762 3.987 3.135 4.594 4.093m8.524 10.83c-1.358-1.887-2.843-3.962-4.546-5.028m-51.29-22.88c1.376-3.16 4.401-7.392 7.347-8.038m5.024-1.13c14.5-1.555 28.76 10.65 31.69 27.43"/><path d="m459.2 197.1c4.106.2759 9.245 2.911 13.04 6.651m-9.106 17.38c-.6803-2.52.6421-5.416.1131-8.01m13.9 11.34c-1.995-3.959-.3484-7.74-6.65-15.76m.7559 25.92c-2.049-4.358-3.04-8.413-3.136-13.07m-25.08-18.12c5.672 7.148 8.542 14.16 4.522 23.61 2.052 2.163 1.586 4.898 2.944 6.362m-16.98 1.42c1.332.2888 2.77.4468 4.101.3156 3.638 2.061 6.718 4.475 12.04 5.993m6.425-3.911c.7956-.9561 4.696-.8235 4.617 1.353-.3451 1.778.0393 3.197.8357 4.776m-20.32 32.68c3.902 2.046 8.094.7499 10.9-1.584m-7.317-4.186c1.463 1.734 4.181 2.541 7.845 1.697m6.374-.8673c2.2 1.589 4.727 2.51 7.732 1.584m-11.09 4.036c2.876 1.568 7.282 1.662 10.64-1.17m-134.4-48.47c1.764-2.579 3.578-5.046 6.328-5.476 1.456-.2279 2.514-.7303 3.164-1.582m-4.563 24.58c1.829-2.837 3.42-6.154 6.266-6.694 2.434-.4603 3.42-2.026 4.198-3.589m25.49-5.598c.6675-3.004.9487-3.935 2.372-4.441 1.62-.5764 6.598-3.702 7.485-5.354m-32.49 13.87c1.866-1.245 5.17-2.148 8.336-2.616 4.713-.6973 11.62-3.419 11.56-7.727m-23.97-1.643c2.393.2124 3.874 1.47 7.24 2.86m3.346-21.17c3.28-2.084 6.431-4.694 9.797-7.909 1.221-1.167 3.179-2.12 5.536-2.069m-11.62 7.362c-2.226-7.663-.7927-14.57.9127-22.39.3943-1.807.4864-3.447.2431-4.928m-14.6-3.164c-.1013.974-.7624 2.024-1.947 3.59-.5812.7684-.5008 1.375.0609 2.19 1.133 1.642 2.951 3.778 4.502 4.32m-30.12 65.29c2.514.3043 4.867-.7703 7.058-3.225m-6.085 9.857c3.088-.6036 5.714-2.723 7.667-7.058m-3.225 18.25c2.373.4777 4.949-1.245 6.937-3.894m-5.111 10.65c2.58-.5723 5.363-3.776 6.814-7.91m18.5-36.69c4.061-3.326 8.391-5.256 12.78-6.936m-7.988 3.644c-.9513-.9691-1.148-5.385-1.561-7.27m1.27-27.2-.4395 2.072m1.57-13.44c1.191-2.009 1.032-4.03.7536-6.028-.3273-2.35-.3877-4.197.6909-5.024"/></g></g><g stroke-width=".75"><path d="m344.4 181.7c7.396 3.737 27.48 4.756 40.59 1.55l.4264 2.549c-14.34 2.999-30.85 2.7-42.23-2.373l-1.134-.5805-8.14-4.826 1.251-2.084 7.374 4.686 8.969-15.62-8.99-5.324c.5481-.6633 1.134-1.272 1.739-1.782l8.329 4.976c.4687-2.517.6577-5.091.6581-7.649.7816-.0387 1.561-.0379 2.337-4e-4-.1255 2.703-.2332 6.128-.9524 8.87l3.618 2.162c-.1165.7669-.0636 1.711.0649 2.778l-4.826-2.858-9.087 15.53z" fill="#f7e63d"/><g fill="none"><path d="m387 129.4c.0261-1.021 1.791-1.083 2.05-.2435l1.694 5.491m.4017-5.364 1.367 4.13m-.6833-2.05 52-17.38"/><path d="m417.6 195.3c-8.102 1.359-16.28-1.407-21.18-4.995l-1.262 2.672c7.086 3.987 14.96 6.917 22.57 4.905l-.1327-2.583z"/><path d="m395.7 193.3-.8545 1.77c3.328 1.704 6.543 3.563 9.218 6.166m-9.096-6.105-1.526 2.991c3.068 1.436 5.996 3.254 8.363 5.555m-8.241-5.525-1.404 2.961c2.642 1.315 5.12 2.928 7.356 4.975m-8.445-2.584 1.211-2.36m6.513 9.142c3.698-3.467 7.693-7.587 11.53-11.84m-13.16 10.14 10.04-10.64"/><path d="m389.8 131.6c-.7136-.5449-1.664-1.268-2.378-1.812-.7627.1881-.9003.9425-.3568 1.753.26.3871.624.6928.9509.9211-.0295.3867-.0192.7431.0299 1.1-2.36 1.051-2.236 3.131-1.754 4.695m.7729-4.101c-.4357.2181-.8813-.009-1.01-.2377l-.6244-1.753v-2.408m-2.882 2.942-.0192.6452.4645 1.079c.3589.8349 1.442.4979 1.486-.2971m-.8024-3.507.2083 2.111.5 1.25c.2896.7233 1.252.6028 1.669-.001m-2.764 2.437 3.327-1.753m-1.217-2.526.802-.2676m-2.318.8621.7128-.3568m-2.08.9804.7132-.3568"/><path d="m355.7 217c4.603-4.82 16.35-6.258 32.17-5.386m-32.76 1.239c4.312-6.326 16.73-7.759 32.98-6.793"/><path d="m355.9 218.8c5.888-5.423 16.62-5.964 32.91-4.968m-34.09-2.734c4.36-6.396 17.01-8.054 33.52-7.03"/><path d="m398.2 220.9 3.789 9.522c.5113 1.24 1.007 2.388 1.49 3.626 2.128 5.458 5.016 11.59 10.86 13.09 1.425-3.015 1.152-7.875.2627-11.89 2.174 3.536 4.915 7.029 8.892 8.296 1.678-3.96.8263-8.382.1021-12.11 2.205 3.078 4.599 6.834 8.943 8.405.5443-1.023 1.105-3.458 1.149-5.048.0963-3.498-.7593-7.1-2.008-10.01l-10.83-25.25" stroke-linejoin="round"/><path d="m420.5 203.8 9.261 21.7c1.584 3.71 2.332 7.628 1.81 11.95-2.913-1.766-5.277-4.679-6.84-8.275l-3.378 1.436c1.225 3.589 1.815 7.108 1.013 10.47-2.928-1.576-5.179-4.616-6.756-8.107l-3.462 1.605c1.218 3.209 1.824 6.924 1.182 10.39-5.403-3.702-6.246-7.598-8.61-13.26l-6.11-14.67"/></g><path d="m352.1 166.3c-.0321.4997.3469.9305.8465.9631.4997.0321.9309-.3473.9631-.8467l.0393-.6149c.0736-.0389.1444-.0839.2112-.1333l.5723.2275c.4649.1856.9925-.042 1.178-.5076.1848-.4648-.0424-.9925-.508-1.177l-.5723-.2275c-.0143-.0828-.0348-.1633-.0616-.2419l.3935-.4736c.3197-.3859.2661-.9571-.1191-1.277-.3855-.3197-.9565-.2668-1.276.1187l-.3935.4744c-.0768-.0107-.1547-.0163-.2348-.0163h-.0143l-.3288-.5208c-.268-.4229-.8281-.5492-1.252-.2812-.4229.2676-.5492.8277-.2808 1.251l.3292.5204c-.0363.0752-.0673.1523-.0923.2321l-.5968.1527c-.4852.1236-.7781.6172-.6549 1.103.1244.4845.618.7775 1.103.6539l.5968-.1523c.0601.0575.124.1107.192.1595l-.0396.6145z" fill="#f7e63d"/><path d="m353.2 163.4c.5008 0 .9072.4059.9072.9059 0 .5012-.4064.9071-.9072.9071-.5004 0-.9067-.4059-.9067-.9071 0-.5.4063-.9059.9067-.9059z" fill="none"/><path d="m341.5 168c.2639-1.278 1.575-1.599 2.86-.7915 1.185.7453 1.806.0835 2.252-.6077m-4.442 2.555c.9635.6697 2.424.4668 3.225-.6689m-10.77 13.75c-.4059-1.095.6203-1.8 1.278-1.095.4788.5136-.2645 2.069-.0616 3.102m5.047 2.128c.8579-.4604 1.422-1.444 1.946-3.076" fill="none"/></g></g><path d="m344.7 167.4c-.2279 1.818-2.9 1.285-2.383-.4971l.7132-.1424c-.2223.6659.7287.8209.7975.1617l.8723.4777z"/><g stroke="#000" stroke-width=".75"><g stroke-miterlimit="10"><path d="m343 180.5c.9212 0 1.668.7464 1.668 1.667 0 .9208-.7468 1.667-1.668 1.667-.9203 0-1.667-.7464-1.667-1.667 0-.9207.7468-1.667 1.667-1.667" fill="#f7e63d"/><path d="m398.9 141.3c3.837 1.204 9.582 2.63 13.7 3.038m-3.099 4.522c-.3111 2.747 1.199 4.43 3.353 3.582m-10.13 1.156c2.154.4301 5.393-.1485 7.506-1.601m-9.23-15.37c1.138 1.439 2.662 2.762 4.248 3.8v2.504l-.7601 3.577c-.2509 1.179.1229 2.248.8943 3.397.4876.7288 1.156.9151 2.012.5372 1.134-.5012 2.271-1.194 2.593-2.727l.7601-3.621m-8.245 8.018c.9985-.1947 2.503-.94 3.042-2.002m-19.97-4.495c2.22.1825 4.441-.5552 6.662-1.923m-5.857 4.069c2.087.0253 4.441-.5775 6.394-1.834m-.3659 4.056c.2045.0133.9801.3375 1.961.7899m1.168 8.268 1.434 1.896m1.248 2.59c.9892-3.716 2.481-7.077 4.58-9.806m-17.76-15.39c1.406.1141 3.081-.4304 4.279-1.188" fill="none"/><path d="m392.8 180.8c-1.438.4532-2.984.7321-4.215.6679-1.12-.1897-1.912-.0968-2.52.1527-.5919.2435-.9589.6055-1.624.7688-.5805.1424-1.101.3205-1.062 1.177.3885-.1164 1.256-.4151 1.748-.1553l-1.594 2.836c-.4769.8504.48 1.748 1.361.6607.0257.5439.8549.9456 1.399.5439.1549.8032.7892.9196 1.399.6607 0 .5699.7381 1.036 1.32.4275l1.166-1.204c1.496.2449 2.53-1.078 4.052-2.223-.2203-1.748-.5892-3.186-1.43-4.313z" fill="#fc9"/><path d="m387.6 188.2 1.204-1.71m-2.603 1.049 1.321-2.021m-2.72 1.477 1.516-2.604" fill="none"/></g><path d="m406.2 183.6c-4.093.6547-8.186 1.186-12.28 1.615 0-1.573-.4532-3.032-1.36-4.377 3.143-1.574 6.802-3.096 10.41-4.461z" fill="url(#bl)"/><path d="m400.4 177.4c1.387 1.848 2.182 4.067 2.385 6.656" fill="none" stroke-miterlimit="10"/><path d="m387.4 244.7c.1368-1.865-.2952-3.966-.4716-5.948l2.061-.2359c1.688.2755 3.416.2359 5.418-.1176.1229-11.3 5.738-15.27 3.77-25.8m-10.78 20.14 2.002-16.49c.4911 7.211-.4652 14.92-.4123 22.26.6477 1.61 1.138 3.671 1.472 5.772" fill="none" stroke-miterlimit="10"/><path d="m389.2 214.2c-2.362-2.356-1.396-6.061.8243-8.12l1.816-1.284 7.082 6.745-8.43 4.327-1.292-1.669z" fill="url(#bm)"/><path d="m398.5 212.4c.1547.0668.3281.1043.5113.1043.6569 0 1.19-.4849 1.19-1.084 0-.5983-.5329-1.084-1.19-1.084-.1995 0-.3881.0447-.5529.124-2.161-3.139-4.384-6.217-7.353-6.9-.9528.4716-1.266 1.39-1.16 2.594 2.37.4259 5.535 2.348 7.112 4.365-3.022-.3549-6.013-.8119-8.791-1.984-.9199.6209-1.124 2.411-.4271 3.235 2.98-.3817 6.016-.0935 9.096.2135-2.39 1.735-5.118 2.183-7.996 2.046-.3457.8747-.2037 1.75.4271 2.625 2.852-.1425 6.688-1.948 9.134-4.256z" fill="url(#bn)"/><path d="m399.1 187.3 17.04 43.02c.986 2.491 2.102 4.621 3.344 5.986.6648.7305 1.598.3877 1.503-.5896-.2192-2.276-.8436-4.434-1.615-6.6l-15.54-43.6-4.726 1.785z" fill="url(#bo)"/><path d="m402 194.5 4.452-1.781" fill="none" stroke-miterlimit="10"/><path d="m428.6 171.1c0 10.42-6.018 18.87-13.44 18.87-7.421 0-13.44-8.451-13.44-18.87s6.018-18.88 13.44-18.88c7.421 0 13.44 8.452 13.44 18.88z" fill="url(#bp)"/><path d="m425.8 171.1c0 8.617-4.793 15.61-10.7 15.61s-10.7-6.989-10.7-15.61c0-8.618 4.794-15.61 10.7-15.61 5.911 0 10.7 6.988 10.7 15.61z" fill="url(#bq)"/><path d="m408.4 173.7v-2.052h4.169v-.4017l.6255-.6248h.9139v-4.233h-.9139l-.6255-.6255v-.4011h-2.726v-2.052h2.726v-.4011l.6255-.6251h.9139v-4.682h1.796v4.682h.9145l.6252.6251v.4011h2.726v2.052h-2.726v.4011l-.6252.6255h-.9145v4.233h.9145l.6252.6248v.4017h4.169v2.052h-4.169v.4015l-.6252.6251h-.9145v9.556h-1.796v-9.556h-.9139l-.6255-.6251v-.4015z" fill="#f7e63d" stroke-miterlimit="10"/><path d="m418.2 134.6c-2.251-.5831-4.595 1.556-7.146 1.348m13.76 3.667c-6.072.704-5.862-3.293-10.14-3.41m3.563 1.377c3.578 2.806 2.453 5.149 3.678 7.764m5.312 6.164c-1.605-5.678-3.071-9.032-7.577-12.89m8.909 4.811c-1.785-.7921-4.407.1273-6.11-2.046m9.054 13.46c-2.218-2.018-2.75-7.542-6.552-9.662m9.6 2.959c-1.71 2.124-5.481 2.198-6.82-.1467m-9.664-6.563c-.8852-2.116-1.389-6.048-6.017-5.513m20.93 11.62c-2.329-.4679-4.236 1.06-6.566-1.251m11.08 8.978c-.9351-.444-1.281-.9357-1.897-1.518-.9419-.8896-2.059-1.358-3.238-1.859-1.779-.756-2.768-1.731-3.15-2.52m8.32-2.303c.9071 2.909-1.795 6.224-5.823 4.519m10.12 2.073c-3.089.2536-4.826-1.93-7.646-1.595m4.482-6.15c2.587 1.029 3.141 6.27-2.887 6.232m8.998-3.659c-2.075 1.424-2.814.4913-5.29 2.581m6.292-7.472c-.542 1.855-3.694 1.974-5.189 6.642m2.134-10.42c.3455 3.132-.7959 5.233-.4815 7.394m.0877-2.17c-1.495-2.608-4.112-1.905-5.818-2.72m5.788 2.538c-.8541-3.98-3.064-5.77-6.91-5.332" fill="none" stroke-miterlimit="10"/></g><use transform="matrix(-1 0 0 1 798.3 .009373)" width="100%" height="100%" xlink:href="#br"/><path d="m408.5 348.6c4.457-8.641 3.85-23.27-.5511-30.54-3.436.59-5.549 1.881-8.586 1.881-3.036 0-5.15-1.291-8.586-1.881-4.402 7.276-5.008 21.9-.5515 30.54 5.717-2.514 12.56-2.514 18.27 0z" fill="#1763ab" stroke="#000" stroke-width=".75"/><path d="m399.2 88.96c-13.75 0-27.43 2.558-41.04 7.663-1.748.0721-2.484-1.965-1.443-3.332 14.09-5.472 28.25-8.214 42.48-8.214s28.39 2.742 42.48 8.214c1.04 1.367.3057 3.404-1.443 3.332-13.61-5.105-27.29-7.663-41.04-7.663z" fill="#f7e63d" stroke="#000" stroke-width=".75"/></svg>
