<?xml version="1.0" encoding="UTF-8" standalone="no"?>
<svg
   xmlns:dc="http://purl.org/dc/elements/1.1/"
   xmlns:cc="http://creativecommons.org/ns#"
   xmlns:rdf="http://www.w3.org/1999/02/22-rdf-syntax-ns#"
   xmlns:svg="http://www.w3.org/2000/svg"
   xmlns="http://www.w3.org/2000/svg"
   width="282.22223mm"
   height="188.14815mm"
   viewBox="0 0 1000 666.66666"
   id="svg4325"
   version="1.1">
  <defs
     id="defs4327">
    <radialGradient
       fx="0"
       fy="0"
       cx="0"
       cy="0"
       r="1"
       gradientUnits="userSpaceOnUse"
       gradientTransform="matrix(45.15,0,0,-45.15,79.897,18.88)"
       spreadMethod="pad"
       id="radialGradient3073">
      <stop
         style="stop-opacity:1;stop-color:#859dbc"
         offset="0"
         id="stop3075" />
      <stop
         style="stop-opacity:1;stop-color:#003360"
         offset="1"
         id="stop3077" />
    </radialGradient>
    <clipPath
       id="clipPath3404"
       clipPathUnits="userSpaceOnUse">
      <path
         id="path3406"
         d="m 1089.221,797.102 109.834,0 0,53.291 -109.834,0 0,-53.291 z" />
    </clipPath>
    <clipPath
       id="clipPath3412"
       clipPathUnits="userSpaceOnUse">
      <path
         id="path3414"
         d="m 1108.309,841.132 71.658,0 0,-34.769 -71.658,0 0,34.769 z" />
    </clipPath>
    <clipPath
       id="clipPath3420"
       clipPathUnits="userSpaceOnUse">
      <path
         id="path3422"
         d="m 1108.309,841.132 71.658,0 0,-34.769 -71.658,0 0,34.769 z" />
    </clipPath>
    <clipPath
       id="clipPath3428"
       clipPathUnits="userSpaceOnUse">
      <path
         id="path3430"
         d="m 1100.541,852.026 85.323,0 0,-60.917 -85.323,0 0,60.917 z" />
    </clipPath>
    <clipPath
       id="clipPath4823"
       clipPathUnits="userSpaceOnUse">
      <path
         id="path4825"
         d="m 0,0 841.89,0 0,595.276 L 0,595.276 0,0 Z" />
    </clipPath>
    <clipPath
       id="clipPath4803"
       clipPathUnits="userSpaceOnUse">
      <path
         id="path4805"
         d="m 0,0 841.89,0 0,595.276 L 0,595.276 0,0 Z" />
    </clipPath>
    <clipPath
       id="clipPath4789"
       clipPathUnits="userSpaceOnUse">
      <path
         id="path4791"
         d="m 0,0 841.89,0 0,595.276 L 0,595.276 0,0 Z" />
    </clipPath>
    <clipPath
       id="clipPath6664"
       clipPathUnits="userSpaceOnUse">
      <path
         id="path6666"
         d="m 431.716,24.674 132.449,0 0,68.948 -132.449,0 0,-68.948 z" />
    </clipPath>
    <radialGradient
       fx="0"
       fy="0"
       cx="0"
       cy="0"
       r="1"
       gradientUnits="userSpaceOnUse"
       gradientTransform="matrix(45.15,0,0,-45.15,79.897,18.88)"
       spreadMethod="pad"
       id="radialGradient3073-4">
      <stop
         style="stop-opacity:1;stop-color:#859dbc"
         offset="0"
         id="stop3075-2" />
      <stop
         style="stop-opacity:1;stop-color:#003360"
         offset="1"
         id="stop3077-4" />
    </radialGradient>
    <clipPath
       id="clipPath3404-4"
       clipPathUnits="userSpaceOnUse">
      <path
         id="path3406-3"
         d="m 1089.221,797.102 109.834,0 0,53.291 -109.834,0 0,-53.291 z" />
    </clipPath>
    <clipPath
       id="clipPath3412-8"
       clipPathUnits="userSpaceOnUse">
      <path
         id="path3414-9"
         d="m 1108.309,841.132 71.658,0 0,-34.769 -71.658,0 0,34.769 z" />
    </clipPath>
    <clipPath
       id="clipPath3420-0"
       clipPathUnits="userSpaceOnUse">
      <path
         id="path3422-2"
         d="m 1108.309,841.132 71.658,0 0,-34.769 -71.658,0 0,34.769 z" />
    </clipPath>
    <clipPath
       id="clipPath3428-9"
       clipPathUnits="userSpaceOnUse">
      <path
         id="path3430-5"
         d="m 1100.541,852.026 85.323,0 0,-60.917 -85.323,0 0,60.917 z" />
    </clipPath>
  </defs>
  <metadata
     id="metadata4330">
    <rdf:RDF>
      <cc:Work
         rdf:about="">
        <dc:format>image/svg+xml</dc:format>
        <dc:type
           rdf:resource="http://purl.org/dc/dcmitype/StillImage" />
        <dc:title></dc:title>
      </cc:Work>
    </rdf:RDF>
  </metadata>
  <rect
     y="0"
     x="0"
     height="666.66669"
     width="1000"
     id="rect6654"
     style="color:#000000;clip-rule:nonzero;display:inline;overflow:visible;visibility:visible;opacity:1;isolation:auto;mix-blend-mode:normal;color-interpolation:sRGB;color-interpolation-filters:linearRGB;solid-color:#000000;solid-opacity:1;fill:#ffffff;fill-opacity:1;fill-rule:nonzero;stroke:none;stroke-width:15;stroke-linecap:butt;stroke-linejoin:miter;stroke-miterlimit:4;stroke-dasharray:none;stroke-dashoffset:0;stroke-opacity:1;color-rendering:auto;image-rendering:auto;shape-rendering:auto;text-rendering:auto;enable-background:accumulate" />
  <g
     id="layer1"
     transform="translate(282.85715,-1136.1716)">
    <rect
       style="color:#000000;clip-rule:nonzero;display:inline;overflow:visible;visibility:visible;opacity:1;isolation:auto;mix-blend-mode:normal;color-interpolation:sRGB;color-interpolation-filters:linearRGB;solid-color:#000000;solid-opacity:1;fill:#ffffff;fill-opacity:1;fill-rule:nonzero;stroke:none;stroke-width:15;stroke-linecap:butt;stroke-linejoin:miter;stroke-miterlimit:4;stroke-dasharray:none;stroke-dashoffset:0;stroke-opacity:1;color-rendering:auto;image-rendering:auto;shape-rendering:auto;text-rendering:auto;enable-background:accumulate"
       id="rect4268"
       width="1000"
       height="600"
       x="-282.85715"
       y="1169.505" />
    <g
       transform="matrix(0.80080079,0,0,0.80080079,123.65204,1487.1479)"
       id="layer1-4">
      <g
         id="g2993"
         transform="matrix(1.25,0,0,-1.25,-792.3701,538.95985)">
        <g
           id="g3400"
           transform="matrix(11.160003,0,0,11.160003,-12041.06,-8742.7039)">
          <g
             clip-path="url(#clipPath3404-4)"
             id="g3402">
            <g
               id="g3408">
              <g
                 clip-path="url(#clipPath3412-8)"
                 id="g3410">
                <g
                   id="g3416">
                  <g
                     clip-path="url(#clipPath3420-0)"
                     id="g3418">
                    <g
                       id="g3424">
                      <g
                         clip-path="url(#clipPath3428-9)"
                         id="g3426">
                        <path
                           id="path3432"
                           style="fill:#785d47;fill-opacity:1;fill-rule:nonzero;stroke:none"
                           d="m 1113.326,812.141 c -0.658,0 -1.06,-0.111 -1.351,-0.231 l 0,-3.666 -0.683,0 0,4.444 0.624,0 0.042,-0.368 c 0.299,0.24 0.881,0.436 1.291,0.436 0.119,0 0.436,-0.008 0.649,-0.034 l 0,-0.581 -0.572,0 z" />
                        <path
                           id="path3434"
                           style="fill:#785d47;fill-opacity:1;fill-rule:nonzero;stroke:none"
                           d="m 1117.411,811.483 c 0,0.607 -0.317,0.743 -0.881,0.743 l -0.606,0 c -0.658,0 -0.889,-0.29 -0.889,-0.837 l 0,-0.53 2.376,0 0,0.624 z m 0.068,-1.137 -2.444,0 0,-0.803 c 0,-0.538 0.213,-0.821 0.871,-0.821 l 2.043,0 0,-0.324 c -0.179,-0.154 -0.53,-0.257 -0.897,-0.257 l -1.163,0 c -0.794,0 -1.538,0.368 -1.538,1.445 l 0,1.658 c 0,1.247 0.752,1.546 1.718,1.546 l 0.393,0 c 0.863,0 1.615,-0.265 1.615,-1.452 l 0,-0.889 -0.598,-0.103 z" />
                        <path
                           id="path3436"
                           style="fill:#785d47;fill-opacity:1;fill-rule:nonzero;stroke:none"
                           d="m 1122.273,811.902 c -0.205,0.136 -0.615,0.29 -1.128,0.29 l -0.641,0 c -0.239,0 -0.521,-0.119 -0.521,-0.632 l 0,-2.043 c 0,-0.512 0.359,-0.547 0.624,-0.547 l 0.521,0 c 0.564,0 0.957,0.103 1.145,0.154 l 0,2.778 z m -0.82,-5.538 -1.043,0 c -0.273,0 -0.752,0.025 -0.974,0.205 l 0,0.401 2.094,0 c 0.538,0 0.743,0.274 0.743,0.795 l 0,1 c -0.324,-0.333 -0.735,-0.419 -1.188,-0.419 l -0.606,0 c -0.77,0 -1.18,0.308 -1.18,1.094 l 0,2.111 c 0,0.829 0.547,1.239 1.333,1.239 l 0.659,0 c 0.35,0 0.811,-0.153 1.034,-0.435 l 0.094,0.333 0.538,0 0,-4.871 c 0,-1.017 -0.513,-1.453 -1.504,-1.453" />
                        <path
                           id="path3438"
                           style="fill:#785d47;fill-opacity:1;fill-rule:nonzero;stroke:none"
                           d="m 1124.606,812.688 0.684,0 0,-4.444 -0.684,0 0,4.444 z m 0,1.812 0.684,0 0,-0.855 -0.684,0 0,0.855 z" />
                        <path
                           id="path3440"
                           style="fill:#785d47;fill-opacity:1;fill-rule:nonzero;stroke:none"
                           d="m 1129.811,811.432 c 0,0.41 -0.197,0.811 -0.658,0.811 l -1.111,0 c -0.496,0 -0.692,-0.358 -0.692,-0.811 l 0,-1.923 c 0,-0.453 0.196,-0.821 0.692,-0.821 l 1.111,0 c 0.461,0 0.658,0.402 0.658,0.812 l 0,1.932 z m -0.778,-3.291 -0.854,0 c -0.923,0 -1.513,0.487 -1.513,1.436 l 0,1.778 c 0,0.948 0.59,1.435 1.513,1.435 l 0.854,0 c 0.94,0 1.462,-0.564 1.462,-1.487 l 0,-1.675 c 0,-0.923 -0.522,-1.487 -1.462,-1.487" />
                        <path
                           id="path3442"
                           style="fill:#785d47;fill-opacity:1;fill-rule:nonzero;stroke:none"
                           d="m 1134.682,808.244 0,3.47 c 0,0.367 -0.299,0.461 -0.572,0.461 l -0.693,0 c -0.47,0 -0.854,-0.077 -1.025,-0.128 l 0,-3.803 -0.684,0 0,4.444 0.65,0 0.025,-0.308 c 0.308,0.291 0.778,0.41 1.18,0.41 l 0.683,0 c 0.573,0 1.12,-0.247 1.12,-1 l 0,-3.546 -0.684,0 z" />
                        <path
                           id="path3444"
                           style="fill:#36220f;fill-opacity:1;fill-rule:nonzero;stroke:none"
                           d="m 1142.365,808.244 0,3.47 c 0,0.367 -0.299,0.461 -0.573,0.461 l -0.453,0 c -0.444,0 -0.846,-0.077 -1.025,-0.128 l 0,-3.803 -0.684,0 0,3.47 c 0,0.367 -0.299,0.461 -0.573,0.461 l -0.504,0 c -0.402,0 -0.735,-0.068 -0.974,-0.128 l 0,-3.803 -0.684,0 0,4.444 0.65,0 0.025,-0.308 c 0.308,0.291 0.769,0.41 1.171,0.41 l 0.453,0 c 0.427,0 0.838,-0.136 1.017,-0.512 0.265,0.342 0.786,0.512 1.29,0.512 l 0.428,0 c 0.572,0 1.119,-0.247 1.119,-1 l 0,-3.546 -0.683,0 z" />
                        <path
                           id="path3446"
                           style="fill:#36220f;fill-opacity:1;fill-rule:nonzero;stroke:none"
                           d="m 1144.527,812.688 0.684,0 0,-4.444 -0.684,0 0,4.444 z m 0,1.812 0.684,0 0,-0.855 -0.684,0 0,0.855 z" />
                        <path
                           id="path3448"
                           style="fill:#36220f;fill-opacity:1;fill-rule:nonzero;stroke:none"
                           d="m 1149.398,811.902 c -0.205,0.136 -0.615,0.29 -1.128,0.29 l -0.641,0 c -0.239,0 -0.521,-0.119 -0.521,-0.632 l 0,-2.256 c 0,-0.513 0.359,-0.547 0.624,-0.547 l 0.521,0 c 0.564,0 0.957,0.102 1.145,0.153 l 0,2.992 z m 0.068,-3.658 -0.059,0.325 c -0.317,-0.325 -0.77,-0.428 -1.197,-0.428 l -0.709,0 c -0.487,0 -1.077,0.222 -1.077,1.026 l 0,2.376 c 0,0.812 0.53,1.247 1.273,1.247 l 0.641,0 c 0.402,0 0.838,-0.145 1.06,-0.393 l 0,2.103 0.684,0 0,-6.256 -0.616,0 z" />
                        <path
                           id="path3450"
                           style="fill:#36220f;fill-opacity:1;fill-rule:nonzero;stroke:none"
                           d="m 1152.834,808.141 c -0.761,0 -1.223,0.205 -1.223,0.94 l 0,2.974 -0.786,0 0,0.513 0.786,0 0,1.239 0.684,0.094 0,-1.333 1.538,0 0,-0.513 -1.538,0 0,-2.862 c 0,-0.214 0.017,-0.496 0.419,-0.496 l 1.119,0 0,-0.385 c -0.205,-0.111 -0.7,-0.171 -0.999,-0.171" />
                        <path
                           id="path3452"
                           style="fill:#785d47;fill-opacity:1;fill-rule:nonzero;stroke:none"
                           d="m 1155.235,814.5 0.684,0 0,-0.855 -0.684,0 0,0.855 z m -0.701,-8.136 c -0.085,0 -0.41,0.017 -0.666,0.085 l 0,0.479 0.547,0 c 0.589,0 0.82,0.111 0.82,0.88 l 0,4.88 0.684,0 0,-4.914 c 0,-1.068 -0.539,-1.41 -1.385,-1.41" />
                        <path
                           id="path3454"
                           style="fill:#785d47;fill-opacity:1;fill-rule:nonzero;stroke:none"
                           d="m 1158.585,806.432 -0.649,0 0.7,1.88 -1.743,4.376 0.718,0 1.358,-3.495 0.026,0 1.214,3.495 0.666,0 -2.29,-6.256 z" />
                        <path
                           id="path3456"
                           style="fill:#785d47;fill-opacity:1;fill-rule:nonzero;stroke:none"
                           d="m 1161.755,814.5 0.684,0 0,-6.256 -0.684,0 0,6.256 z" />
                        <path
                           id="path3458"
                           style="fill:#785d47;fill-opacity:1;fill-rule:nonzero;stroke:none"
                           d="m 1163.986,814.5 0.684,0 0,-6.256 -0.684,0 0,6.256 z" />
                        <path
                           id="path3460"
                           style="fill:#785d47;fill-opacity:1;fill-rule:nonzero;stroke:none"
                           d="m 1168.832,810.346 -1.607,0 c -0.393,0 -0.632,-0.137 -0.632,-0.572 l 0,-0.539 c 0,-0.384 0.282,-0.53 0.606,-0.53 l 0.906,0 c 0.368,0 0.727,0.163 0.727,0.727 l 0,0.914 z m 0.17,-2.102 c -0.017,0.145 -0.017,0.154 -0.051,0.427 l -0.025,0 c -0.146,-0.282 -0.445,-0.53 -0.983,-0.53 l -0.889,0 c -0.658,0 -1.145,0.385 -1.145,1.009 l 0,0.513 c 0,0.846 0.496,1.196 1.265,1.196 l 1.658,0 0,0.752 c 0,0.479 -0.265,0.564 -0.71,0.564 l -1.914,0 0,0.419 c 0.248,0.154 0.752,0.196 1.051,0.196 l 0.949,0 c 0.709,0 1.307,-0.247 1.307,-1.119 l 0,-1.957 c 0,-0.684 0.034,-1.034 0.086,-1.47 l -0.599,0 z" />
                        <path
                           id="path3462"
                           style="fill:#785d47;fill-opacity:1;fill-rule:nonzero;stroke:none"
                           d="m 1173.985,808.244 0,3.47 c 0,0.367 -0.299,0.461 -0.573,0.461 l -0.692,0 c -0.47,0 -0.855,-0.077 -1.026,-0.128 l 0,-3.803 -0.683,0 0,4.444 0.649,0 0.026,-0.308 c 0.308,0.291 0.778,0.41 1.179,0.41 l 0.684,0 c 0.573,0 1.12,-0.247 1.12,-1 l 0,-3.546 -0.684,0 z" />
                        <path
                           id="path3464"
                           style="fill:#785d47;fill-opacity:1;fill-rule:nonzero;stroke:none"
                           d="m 1178.959,811.902 c -0.205,0.136 -0.616,0.29 -1.128,0.29 l -0.641,0 c -0.24,0 -0.522,-0.119 -0.522,-0.632 l 0,-2.256 c 0,-0.513 0.359,-0.547 0.624,-0.547 l 0.521,0 c 0.564,0 0.958,0.102 1.146,0.153 l 0,2.992 z m 0.068,-3.658 -0.06,0.325 c -0.316,-0.325 -0.769,-0.428 -1.196,-0.428 l -0.71,0 c -0.487,0 -1.077,0.222 -1.077,1.026 l 0,2.376 c 0,0.812 0.53,1.247 1.274,1.247 l 0.641,0 c 0.402,0 0.837,-0.145 1.06,-0.393 l 0,2.103 0.683,0 0,-6.256 -0.615,0 z" />
                        <path
                           id="path3466"
                           style="fill:#92082e;fill-opacity:1;fill-rule:nonzero;stroke:none"
                           d="m 1119.025,834.934 c -0.967,0 -1.915,-0.004 -2.822,-0.011 -2.856,-0.022 -6.089,-0.059 -7.482,-0.24 -0.238,-0.028 -0.325,-0.213 -0.344,-0.412 -0.02,-0.2 -0.068,-1.075 -0.066,-1.273 0.01,-0.198 0.122,-0.37 0.338,-0.41 0.181,-0.035 2.71,-0.505 2.71,-2.097 l 0,-12.91 c 0,-0.189 0.074,-0.403 0.396,-0.416 0.631,-0.03 1.385,-0.047 2.127,-0.047 0.681,0 1.351,0.014 1.907,0.047 0.324,0.017 0.414,0.233 0.414,0.423 l 0,13.248 c 0,0.244 0.187,0.35 0.405,0.379 0.133,0.017 0.64,0.034 1.275,0.034 0.472,0 1.014,-0.009 1.526,-0.034 1.219,-0.061 1.76,-0.554 1.76,-2.121 l 0,-11.515 c 0,-0.187 0.048,-0.397 0.416,-0.414 0.693,-0.031 1.351,-0.048 2.027,-0.048 0.643,0 1.303,0.015 2.028,0.048 0.351,0.017 0.412,0.227 0.412,0.414 l 0,13.237 c 0,0.262 0.2,0.37 0.423,0.399 0.165,0.022 0.403,0.033 0.787,0.033 0.374,0 0.886,-0.011 1.604,-0.033 1.467,-0.048 2.254,-0.48 2.254,-2.215 l 0,-9.047 c 0,-1.818 0.162,-2.742 2.219,-2.81 0.488,-0.017 0.893,-0.023 1.226,-0.023 0.716,0 1.095,0.029 1.242,0.04 0.209,0.02 0.362,0.164 0.38,0.406 0.015,0.24 0,6.198 0,10.074 0,6.213 -0.157,6.799 -7.349,7.122 -2.811,0.125 -6.423,0.172 -9.813,0.172" />
                        <path
                           id="path3468"
                           style="fill:#92082e;fill-opacity:1;fill-rule:nonzero;stroke:none"
                           d="m 1141.49,834.72 c -1.32,0 -2.59,-0.039 -3.385,-0.12 -0.277,-0.039 -0.327,-0.229 -0.342,-0.436 -0.018,-0.205 -0.068,-1.057 -0.061,-1.251 0,-0.177 0.122,-0.356 0.335,-0.41 0.181,-0.046 2.71,-0.582 2.71,-2.154 l 0,-12.772 c 0,-0.19 0.118,-0.382 0.41,-0.412 0.69,-0.042 1.396,-0.063 2.111,-0.063 0.724,0 1.456,0.021 2.188,0.063 0.281,0.015 0.379,0.222 0.379,0.412 l 0,16.587 c 0,0.19 -0.105,0.373 -0.438,0.421 -1,0.089 -2.483,0.135 -3.907,0.135" />
                        <path
                           id="path3470"
                           style="fill:#92082e;fill-opacity:1;fill-rule:nonzero;stroke:none"
                           d="m 1179.488,819.143 c -0.648,0.172 -1.104,0.159 -2.694,0.541 -1.911,0.46 -1.84,0.791 -1.926,2.797 -0.063,1.481 -0.129,5.665 -0.056,7.792 0.06,1.72 3.079,2.026 3.296,2.084 0.216,0.058 0.319,0.187 0.337,0.403 0.018,0.217 -0.044,1.106 -0.075,1.322 -0.031,0.216 -0.166,0.318 -0.344,0.344 -0.609,0.089 -2.208,0.191 -3.107,0.245 -0.309,0.018 -0.448,0.226 -0.498,0.408 -0.064,0.238 -0.189,0.981 -0.384,2.156 -0.16,0.965 -0.107,1.368 -1.312,1.608 -2.782,0.555 -2.754,0.293 -2.772,-0.563 -0.017,-0.856 -0.126,-13.864 -0.126,-15.993 0,-3.934 0.738,-5.25 5.07,-5.25 0.935,0 2.966,0.077 3.972,0.156 0.958,0.076 0.943,0.095 1.029,1.098 0.053,0.63 0.069,0.726 -0.41,0.852 m -18.988,1.788 c 0,-0.6 -0.434,-0.629 -0.805,-0.674 -0.37,-0.045 -0.532,-0.039 -1.784,-0.03 -2.355,0 -4.073,0.601 -4.073,5.656 0,5.056 1.189,5.725 3.997,5.725 0,0 1.143,0.006 1.869,-0.08 0.427,-0.056 0.744,-0.166 0.762,-0.624 0.086,-2.25 0.046,-6.267 0.034,-9.973 m 7.869,-1.485 c -1.656,0.511 -2.687,0.294 -2.787,1.813 -0.1,1.519 -0.035,15.501 -0.141,17.666 -0.058,1.195 0.177,1.248 -2.41,1.719 -2.683,0.488 -2.395,0.105 -2.439,-0.808 -0.048,-0.997 -0.072,-3.928 -0.106,-4.472 -0.024,-0.393 -0.132,-0.522 -0.497,-0.506 -1.249,0.054 -2.687,0.091 -3.777,0.091 -3.022,0 -7.29,-1.006 -7.29,-9.302 0,-8.538 5.037,-8.417 6.969,-8.544 1.342,-0.089 7.885,-0.174 12.219,0.031 0.285,0.031 0.372,0.178 0.429,0.418 0.057,0.239 0.118,1.316 0.112,1.505 -0.01,0.188 -0.055,0.319 -0.282,0.389" />
                      </g>
                    </g>
                  </g>
                </g>
              </g>
            </g>
          </g>
        </g>
      </g>
    </g>
  </g>
</svg>
