<?xml version="1.0" encoding="UTF-8" standalone="no"?>
<svg xmlns="http://www.w3.org/2000/svg" width="282.22223mm" height="188.14815mm" viewBox="0 0 1000 666.66666">
  <path fill="#0081ab" d="M-282.85715 1102.8384h1000v666.66669h-1000z" color="#000" overflow="visible" style="isolation:auto;mix-blend-mode:normal;solid-color:#000;solid-opacity:1" transform="translate(282.85715 -1102.8384)"/>
  <path fill="#fff" d="M549.166199 326.39026098c3.82957434 27.3007867-15.15818632 52.53328008-42.49897472 56.37618335-27.27405436 3.8296488-52.50656264-15.19826248-56.33613698-42.48564578-3.84291817-27.2739799 15.17151526-52.54653455 42.44558452-56.37618336 27.32742967-3.85630667 52.54660901 15.17160462 56.38952718 42.48564579m-14.64301925-197.72097761c2.36179795 16.66608355-9.26037824 32.1044158-25.9530601 34.43958567-16.70602567 2.32176647-32.1044009-9.27381143-34.45285502-25.93974605-2.3351103-16.69274142 9.27372207-32.13107366 25.96640391-34.479498 16.70602568-2.33516988 32.11774473 9.27366249 34.4395112 25.97965838m-81.45933309 36.42909678c2.88219235 20.5088379-11.42201878 39.5099424-31.93093114 42.39211985-20.54895874 2.86892299-39.55006323-11.43533282-42.40556792-31.97082859-2.89553618-20.5356447 11.39533112-39.52349471 31.95761879-42.40567217 20.49558343-2.85551959 39.49668792 11.44873622 42.37888027 31.98438091M436.05885072 268.8706188c3.29583612 23.67129531-13.18335937 45.54117386-36.81465298 48.85032403-23.64463744 3.30929909-45.4879028-13.15662704-48.8237704-36.78786109-3.29583613-23.64463744 13.143313-45.52791939 36.78796532-48.82381508 23.65798127-3.36261483 45.52793429 13.14337257 48.85045806 36.76135214m171.64520196-114.87799679c1.7613406 12.47603225-6.93861176 24.004891-19.4414508 25.77950097-12.52951182 1.76135549-24.05828122-6.92523815-25.84630947-19.45473507-1.7613406-12.51624245 6.9519556-24.09826802 19.46813847-25.83296564 12.51616798-1.76135549 24.0983127 6.93864155 25.8196218 19.50819974M464.9608372 537.98167106c-2.34843924-16.67933802 9.27370717-32.07775793 25.97974773-34.42618227 16.65265037-2.33516987 32.06436942 9.2736625 34.43949631 25.93974604 2.3351103 16.71925037-9.27370717 32.13107367-25.96638902 34.47949801-16.66600908 2.34842435-32.1044009-9.3004693-34.45285503-25.99306178m81.46734535-36.42492684c-2.90888-20.50898682 11.40867495-39.47003005 31.94427497-42.3656109 20.5356149-2.85537067 39.51003175 11.42207834 42.3922241 31.93106517 2.88219235 20.54889916-11.40867495 39.50994239-31.93094603 42.43218112-20.54894385 2.85551958-39.52336069-11.42207835-42.40555304-31.99763539m17.55455016-103.7881738c-3.32252378-23.65804084 13.143313-45.47460365 36.78795044-48.8105606 23.63129361-3.32240464 45.4879177 13.14337256 48.79709764 36.77475553 3.34921143 23.67129531-13.12998406 45.54117386-36.78796533 48.83706955-23.64463744 3.33580804-45.47455898-13.15662704-48.79708275-36.80126448M391.7786686 512.72117946c-1.78802826-12.52949691 6.9519407-24.07161014 19.46812357-25.8730269 12.50283904-1.70789082 24.07163993 6.96529942 25.83296563 19.52160313 1.72130912 12.47618118-6.97862835 24.07161015-19.46812357 25.81956224-12.51618288 1.74810102-24.11165652-6.93864155-25.83296564-19.46813847m-36.05812049-57.67839798c-1.334353-9.3938463 5.17727116-18.05378207 14.59776044-19.37476146 9.39380163-1.32097939 18.02703485 5.2171984 19.37471678 14.58438683 1.32100917 9.42050418-5.23063158 18.09369442-14.61110427 19.37476146-9.3804578 1.33423386-18.06706633-5.19068946-19.36137296-14.58438683"/>
</svg>