<?xml version="1.0" encoding="UTF-8" standalone="no"?>
<svg
   xmlns:dc="http://purl.org/dc/elements/1.1/"
   xmlns:cc="http://creativecommons.org/ns#"
   xmlns:rdf="http://www.w3.org/1999/02/22-rdf-syntax-ns#"
   xmlns:svg="http://www.w3.org/2000/svg"
   xmlns="http://www.w3.org/2000/svg"
   width="282.22223mm"
   height="188.14815mm"
   viewBox="0 0 1000 666.66666"
   id="svg4325"
   version="1.1">
  <defs
     id="defs4327">
    <radialGradient
       fx="0"
       fy="0"
       cx="0"
       cy="0"
       r="1"
       gradientUnits="userSpaceOnUse"
       gradientTransform="matrix(45.15,0,0,-45.15,79.897,18.88)"
       spreadMethod="pad"
       id="radialGradient3073">
      <stop
         style="stop-opacity:1;stop-color:#859dbc"
         offset="0"
         id="stop3075" />
      <stop
         style="stop-opacity:1;stop-color:#003360"
         offset="1"
         id="stop3077" />
    </radialGradient>
    <clipPath
       id="clipPath3404"
       clipPathUnits="userSpaceOnUse">
      <path
         id="path3406"
         d="m 1089.221,797.102 109.834,0 0,53.291 -109.834,0 0,-53.291 z" />
    </clipPath>
    <clipPath
       id="clipPath3412"
       clipPathUnits="userSpaceOnUse">
      <path
         id="path3414"
         d="m 1108.309,841.132 71.658,0 0,-34.769 -71.658,0 0,34.769 z" />
    </clipPath>
    <clipPath
       id="clipPath3420"
       clipPathUnits="userSpaceOnUse">
      <path
         id="path3422"
         d="m 1108.309,841.132 71.658,0 0,-34.769 -71.658,0 0,34.769 z" />
    </clipPath>
    <clipPath
       id="clipPath3428"
       clipPathUnits="userSpaceOnUse">
      <path
         id="path3430"
         d="m 1100.541,852.026 85.323,0 0,-60.917 -85.323,0 0,60.917 z" />
    </clipPath>
    <clipPath
       id="clipPath4823"
       clipPathUnits="userSpaceOnUse">
      <path
         id="path4825"
         d="m 0,0 841.89,0 0,595.276 L 0,595.276 0,0 Z" />
    </clipPath>
    <clipPath
       id="clipPath4803"
       clipPathUnits="userSpaceOnUse">
      <path
         id="path4805"
         d="m 0,0 841.89,0 0,595.276 L 0,595.276 0,0 Z" />
    </clipPath>
    <clipPath
       id="clipPath4789"
       clipPathUnits="userSpaceOnUse">
      <path
         id="path4791"
         d="m 0,0 841.89,0 0,595.276 L 0,595.276 0,0 Z" />
    </clipPath>
    <clipPath
       id="clipPath6664"
       clipPathUnits="userSpaceOnUse">
      <path
         id="path6666"
         d="m 431.716,24.674 132.449,0 0,68.948 -132.449,0 0,-68.948 z" />
    </clipPath>
  </defs>
  <metadata
     id="metadata4330">
    <rdf:RDF>
      <cc:Work
         rdf:about="">
        <dc:format>image/svg+xml</dc:format>
        <dc:type
           rdf:resource="http://purl.org/dc/dcmitype/StillImage" />
        <dc:title></dc:title>
      </cc:Work>
    </rdf:RDF>
  </metadata>
  <rect
     y="0"
     x="0"
     height="666.66669"
     width="1000"
     id="rect6654"
     style="color:#000000;clip-rule:nonzero;display:inline;overflow:visible;visibility:visible;opacity:1;isolation:auto;mix-blend-mode:normal;color-interpolation:sRGB;color-interpolation-filters:linearRGB;solid-color:#000000;solid-opacity:1;fill:#ffffff;fill-opacity:1;fill-rule:nonzero;stroke:none;stroke-width:15;stroke-linecap:butt;stroke-linejoin:miter;stroke-miterlimit:4;stroke-dasharray:none;stroke-dashoffset:0;stroke-opacity:1;color-rendering:auto;image-rendering:auto;shape-rendering:auto;text-rendering:auto;enable-background:accumulate" />
  <g
     id="layer1"
     transform="translate(282.85714,-1136.1716)">
    <rect
       style="color:#000000;clip-rule:nonzero;display:inline;overflow:visible;visibility:visible;opacity:1;isolation:auto;mix-blend-mode:normal;color-interpolation:sRGB;color-interpolation-filters:linearRGB;solid-color:#000000;solid-opacity:1;fill:#ffffff;fill-opacity:1;fill-rule:nonzero;stroke:none;stroke-width:15;stroke-linecap:butt;stroke-linejoin:miter;stroke-miterlimit:4;stroke-dasharray:none;stroke-dashoffset:0;stroke-opacity:1;color-rendering:auto;image-rendering:auto;shape-rendering:auto;text-rendering:auto;enable-background:accumulate"
       id="rect4268"
       width="1000"
       height="600"
       x="-282.85715"
       y="1169.505" />
    <g
       transform="matrix(0.8008008,0,0,0.8008008,-817.39759,1765.8282)"
       id="layer1-4">
      <g
         id="g2993"
         transform="matrix(1.25,0,0,-1.25,-792.3701,538.95985)">
        <g
           id="g6660"
           transform="matrix(6.0340434,0,0,6.0340434,-1337.1941,371.94212)">
          <g
             clip-path="url(#clipPath6664)"
             id="g6662">
            <g
               transform="translate(544.6265,51.8191)"
               id="g6668">
              <path
                 id="path6670"
                 style="fill:#6ea31b;fill-opacity:1;fill-rule:nonzero;stroke:none"
                 d="m 0,0 c -1.74,-3.69 -3.17,-5.459 -3.619,-5.526 -0.359,0.34 -0.539,0.979 -0.539,1.923 0,1.95 0.76,5.174 2.272,9.637 0,0 0.158,0.48 0.218,0.657 C -1.533,6.816 -1.08,7.23 -1.08,7.23 1.868,9.961 2.618,9.757 2.623,9.754 2.75,9.586 2.809,9.293 2.809,8.898 2.809,7.204 1.717,3.639 0,0 m -10.369,3.615 c -0.904,0.754 -1.912,2.905 -1.912,8.754 0,0.772 0.02,1.607 0.055,2.515 0.027,0.621 0.041,1.231 0.041,1.835 0,1.537 -0.094,3.001 -0.262,4.389 2.518,2.41 4.901,3.231 6.899,2.346 2.396,-1.064 3.933,-4.457 3.933,-8.564 0,-0.228 -0.004,-0.46 -0.012,-0.693 C -1.709,12.285 -2.097,9.905 -2.775,7.135 -8.091,2.497 -9.447,2.849 -10.369,3.615 M -22.406,3.614 c -3.545,-2.535 -6.426,-3.955 -8.109,-4.002 -1.449,-0.039 -2.635,0.377 -3.526,1.241 -1.252,1.221 -1.916,3.309 -1.916,6.038 0,7.268 -2.117,10.558 -3.985,13.465 -1.595,2.476 -2.971,4.616 -3.023,8.785 0.081,2.857 1.404,5.428 3.538,6.846 2.82,1.877 7.031,1.822 12.179,-0.16 7.34,-2.83 11.522,-7.504 12.797,-14.269 -4.168,-4.426 -7.439,-13.407 -7.955,-17.944 m 1.979,0.047 c 0.002,10e-4 1.408,0.959 1.408,0.959 1.598,1.029 2.004,1.029 2.098,1.002 0.029,-0.055 0.058,-0.147 0.058,-0.325 0,-0.565 -0.273,-1.942 -1.607,-5.318 -1.53,-3.89 -2.352,-4.065 -2.362,-4.065 -0.172,0.138 -0.505,0.988 -0.505,3.159 0,0.305 0.005,0.642 0.021,1.006 0.037,0.856 0.139,1.902 0.307,3.182 0.205,0.138 0.582,0.4 0.582,0.4 m 24.05,7.476 c -0.345,0.211 -1.343,0.819 -4.611,-2.183 0.715,2.785 1.086,5.338 1.086,7.557 0,4.137 -1.225,7.162 -3.613,8.591 -2.614,1.564 -6.186,0.77 -9.276,-1.99 -1.5,7.151 -7.216,13.572 -14.806,16.505 -5.647,2.186 -10.299,2.186 -13.459,-0.002 -2.634,-1.825 -4.004,-5.023 -3.962,-9.253 -0.131,-4.361 1.691,-6.995 3.616,-9.783 2.199,-3.182 4.469,-6.475 4.027,-12.843 -0.279,-4.065 -0.521,-7.575 1.352,-9.375 1.041,-1.001 2.639,-1.37 4.891,-1.129 3.414,0.372 6.927,3.308 8.55,4.767 -0.004,-0.03 -0.017,-0.155 -0.017,-0.155 -0.186,-1.559 -0.336,-3.017 -0.336,-4.261 0,-1.663 0.271,-2.936 1.09,-3.522 0.338,-0.243 0.812,-0.3 1.302,-0.157 0.936,0.275 2.362,1.394 3.856,5.186 1.523,3.864 1.783,6.855 1.256,7.7 -0.168,0.263 -0.426,0.425 -0.744,0.477 -0.879,0.134 -2.375,-0.64 -4.547,-2.369 0.84,4.119 3.205,9.826 6.592,14.254 0.072,-0.846 0.123,-1.714 0.123,-2.63 0,-0.511 -0.012,-1.027 -0.032,-1.561 -0.041,-0.928 -0.06,-1.796 -0.06,-2.615 0,-5.081 0.76,-8.123 2.345,-9.484 C -9.699,1.112 -7.425,1.7 -3.359,5.176 -3.429,4.927 -3.533,4.57 -3.533,4.57 -4.539,1.183 -5.41,-2.025 -5.41,-4.27 c 0,-1.446 0.362,-2.489 1.285,-2.915 1.774,-0.821 4.344,2.502 6.157,5.885 1.672,3.114 2.929,6.681 2.929,9.268 0,1.449 -0.394,2.587 -1.338,3.169" />
            </g>
            <g
               transform="translate(437.5235,38.567)"
               id="g6672">
              <path
                 id="path6674"
                 style="fill:#5a6771;fill-opacity:1;fill-rule:nonzero;stroke:none"
                 d="m 0,0 c 0,1.356 -0.677,2.037 -2.035,2.037 l -1.816,0 0,-4.113 1.816,0 C -0.677,-2.076 0,-1.383 0,0 m 2.057,-10.039 -2.176,0 -2.115,6.087 -1.617,0 0,-6.087 -1.956,0 0,13.969 3.931,0 c 1.119,0 2.023,-0.301 2.715,-0.898 0.785,-0.679 1.178,-1.67 1.178,-2.974 0,-1.876 -0.732,-3.1 -2.196,-3.672 l 2.236,-6.425 z" />
            </g>
            <g
               transform="translate(445.6835,34.7751)"
               id="g6676">
              <path
                 id="path6678"
                 style="fill:#5a6771;fill-opacity:1;fill-rule:nonzero;stroke:none"
                 d="M 0,0 C -0.026,0.798 -0.197,1.44 -0.509,1.926 -0.822,2.412 -1.246,2.655 -1.777,2.655 -2.789,2.655 -3.374,1.77 -3.535,0 L 0,0 Z m 1.956,-0.979 c 0,-0.318 -0.007,-0.545 -0.02,-0.678 l -5.471,0 c 0.12,-1.981 0.777,-2.973 1.969,-2.973 0.703,0 1.332,0.258 1.89,0.778 l 1.174,-1.217 c -0.839,-0.933 -1.877,-1.399 -3.115,-1.399 -1.223,0 -2.175,0.493 -2.854,1.478 -0.665,0.944 -0.997,2.254 -0.997,3.93 0,1.782 0.345,3.159 1.038,4.129 0.651,0.918 1.55,1.378 2.693,1.378 1.091,0 1.97,-0.445 2.635,-1.336 0.705,-0.971 1.058,-2.334 1.058,-4.09" />
            </g>
            <g
               transform="translate(453.6205,31.0641)"
               id="g6680">
              <path
                 id="path6682"
                 style="fill:#5a6771;fill-opacity:1;fill-rule:nonzero;stroke:none"
                 d="m 0,0 0,5.427 c -0.413,0.625 -0.966,0.939 -1.657,0.939 -1.012,0 -1.518,-1.153 -1.518,-3.454 0,-2.58 0.539,-3.87 1.617,-3.87 0.653,0 1.172,0.319 1.558,0.958 M 1.916,-1.622 C 1.916,-3.151 1.604,-4.275 0.978,-4.994 0.313,-5.75 -0.799,-6.217 -2.355,-6.39 l -0.539,1.537 c 1.144,0.146 1.913,0.427 2.304,0.84 0.394,0.412 0.59,1.118 0.59,2.117 l 0,0.078 c -0.559,-0.626 -1.211,-0.939 -1.956,-0.939 -2.102,0 -3.153,1.856 -3.153,5.568 0,1.729 0.286,3.052 0.857,3.969 0.572,0.918 1.385,1.378 2.436,1.378 0.706,0 1.31,-0.258 1.816,-0.776 l 0,0.556 1.916,0 0,-9.56 z" />
            </g>
            <path
               id="path6684"
               style="fill:#5a6771;fill-opacity:1;fill-rule:nonzero;stroke:none"
               d="m 459.169,28.528 -1.915,0 0,10.474 1.915,0 0,-10.474 z m 0.22,13.294 c 0,-0.318 -0.117,-0.594 -0.35,-0.828 -0.232,-0.233 -0.509,-0.349 -0.827,-0.349 -0.333,0 -0.616,0.116 -0.849,0.349 -0.233,0.234 -0.349,0.51 -0.349,0.828 0,0.333 0.116,0.617 0.349,0.851 0.233,0.232 0.516,0.348 0.849,0.348 0.318,0 0.595,-0.116 0.827,-0.348 0.233,-0.234 0.35,-0.518 0.35,-0.851" />
            <g
               transform="translate(466.2005,33.7581)"
               id="g6686">
              <path
                 id="path6688"
                 style="fill:#5a6771;fill-opacity:1;fill-rule:nonzero;stroke:none"
                 d="M 0,0 C 0,2.421 -0.62,3.632 -1.857,3.632 -3.07,3.632 -3.676,2.421 -3.676,0 c 0,-2.409 0.614,-3.613 1.838,-3.613 0.586,0 1.039,0.326 1.359,0.978 C -0.161,-1.983 0,-1.105 0,0 m 1.934,0.037 c 0,-1.796 -0.343,-3.159 -1.028,-4.09 -0.685,-0.932 -1.62,-1.398 -2.804,-1.398 -1.13,0 -2.022,0.446 -2.673,1.338 -0.693,0.93 -1.039,2.288 -1.039,4.07 0,1.796 0.34,3.172 1.018,4.129 0.653,0.918 1.576,1.378 2.775,1.378 1.143,0 2.048,-0.447 2.714,-1.336 C 1.588,3.169 1.934,1.806 1.934,0.037" />
            </g>
            <g
               transform="translate(476.1575,28.528)"
               id="g6690">
              <path
                 id="path6692"
                 style="fill:#5a6771;fill-opacity:1;fill-rule:nonzero;stroke:none"
                 d="m 0,0 -1.917,0 0,6.446 c 0,0.878 -0.097,1.504 -0.288,1.877 -0.193,0.373 -0.53,0.558 -1.008,0.558 -0.652,0 -1.172,-0.319 -1.557,-0.957 l 0,-7.924 -1.915,0 0,10.474 1.915,0 0,-0.715 c 0.492,0.623 1.171,0.935 2.035,0.935 0.985,0 1.687,-0.317 2.106,-0.949 C -0.21,9.115 0,8.119 0,6.763 L 0,0 Z" />
            </g>
            <g
               transform="translate(488.8885,32.1391)"
               id="g6694">
              <path
                 id="path6696"
                 style="fill:#5a6771;fill-opacity:1;fill-rule:nonzero;stroke:none"
                 d="m 0,0 c 0,-1.144 -0.333,-2.069 -0.998,-2.774 -0.665,-0.706 -1.604,-1.058 -2.814,-1.058 -1.57,0 -2.801,0.759 -3.692,2.277 l 1.537,1.237 c 0.651,-1.037 1.41,-1.557 2.274,-1.557 1.117,0 1.677,0.592 1.677,1.776 0,0.547 -0.156,1.018 -0.47,1.418 -0.312,0.398 -0.937,0.907 -1.875,1.526 -0.938,0.62 -1.6,1.18 -1.986,1.686 -0.546,0.705 -0.818,1.557 -0.818,2.555 0,1.037 0.32,1.879 0.957,2.525 0.639,0.645 1.498,0.967 2.575,0.967 1.397,0 2.528,-0.631 3.393,-1.896 L -1.677,7.405 c -0.346,0.467 -0.661,0.785 -0.947,0.959 -0.288,0.172 -0.643,0.259 -1.069,0.259 -0.971,0 -1.456,-0.491 -1.456,-1.477 0,-0.518 0.143,-0.958 0.429,-1.317 0.285,-0.36 0.821,-0.792 1.606,-1.298 C -2.077,3.866 -1.337,3.26 -0.899,2.716 -0.3,1.97 0,1.065 0,0" />
            </g>
            <g
               transform="translate(496.6995,39.0021)"
               id="g6698">
              <path
                 id="path6700"
                 style="fill:#5a6771;fill-opacity:1;fill-rule:nonzero;stroke:none"
                 d="m 0,0 -4.13,-14.161 -1.877,0 1.138,3.689 L -7.783,0 -5.747,0 -4.53,-4.968 c 0.253,-1.01 0.459,-1.96 0.619,-2.851 0.146,0.825 0.358,1.782 0.64,2.872 L -2.035,0 0,0 Z" />
            </g>
            <g
               transform="translate(502.0535,31.0641)"
               id="g6702">
              <path
                 id="path6704"
                 style="fill:#5a6771;fill-opacity:1;fill-rule:nonzero;stroke:none"
                 d="m 0,0 0,5.427 c -0.411,0.625 -0.964,0.939 -1.657,0.939 -1.01,0 -1.516,-1.153 -1.516,-3.454 0,-2.58 0.538,-3.87 1.617,-3.87 0.652,0 1.171,0.319 1.556,0.958 m 1.917,-2.536 -1.917,0 0,0.699 c -0.571,-0.613 -1.222,-0.92 -1.955,-0.92 -2.101,0 -3.153,1.856 -3.153,5.568 0,1.729 0.286,3.052 0.858,3.969 0.572,0.918 1.384,1.378 2.434,1.378 0.705,0 1.312,-0.258 1.816,-0.776 l 0,3.622 1.917,0.995 0,-14.535 z" />
            </g>
            <g
               transform="translate(510.4765,31.0641)"
               id="g6706">
              <path
                 id="path6708"
                 style="fill:#5a6771;fill-opacity:1;fill-rule:nonzero;stroke:none"
                 d="m 0,0 0,5.427 c -0.414,0.625 -0.967,0.939 -1.656,0.939 -1.014,0 -1.52,-1.153 -1.52,-3.454 0,-2.58 0.541,-3.87 1.617,-3.87 0.653,0 1.172,0.319 1.559,0.958 m 1.916,-2.536 -1.916,0 0,0.699 c -0.572,-0.613 -1.225,-0.92 -1.957,-0.92 -2.102,0 -3.152,1.856 -3.152,5.568 0,1.729 0.286,3.052 0.859,3.969 0.57,0.918 1.383,1.378 2.436,1.378 0.703,0 1.308,-0.258 1.814,-0.776 l 0,3.622 1.916,0.995 0,-14.535 z" />
            </g>
            <g
               transform="translate(518.4664,31.0221)"
               id="g6710">
              <path
                 id="path6712"
                 style="fill:#5a6771;fill-opacity:1;fill-rule:nonzero;stroke:none"
                 d="m 0,0 0,2.096 c -0.439,0.266 -0.965,0.4 -1.576,0.4 -1.012,0 -1.518,-0.552 -1.518,-1.657 0,-1.211 0.44,-1.816 1.317,-1.816 0.812,0 1.404,0.327 1.777,0.977 m 1.916,-2.494 -1.916,0 0,0.718 c -0.545,-0.626 -1.265,-0.939 -2.156,-0.939 -0.811,0 -1.475,0.294 -1.996,0.88 -0.57,0.625 -0.858,1.502 -0.858,2.633 0,1.106 0.319,1.964 0.959,2.576 0.612,0.572 1.428,0.858 2.456,0.858 0.584,0 1.115,-0.113 1.595,-0.34 l 0,1.019 c 0,0.998 -0.453,1.497 -1.357,1.497 -0.639,0 -1.324,-0.221 -2.055,-0.659 l -0.82,1.455 C -3.234,7.869 -2.23,8.2 -1.219,8.2 -0.072,8.2 0.735,7.967 1.207,7.502 1.68,7.036 1.916,6.224 1.916,5.068 l 0,-7.562 z" />
            </g>
            <g
               transform="translate(528.9025,28.528)"
               id="g6714">
              <path
                 id="path6716"
                 style="fill:#5a6771;fill-opacity:1;fill-rule:nonzero;stroke:none"
                 d="m 0,0 -1.916,0 0,6.446 c 0,0.878 -0.096,1.504 -0.289,1.877 -0.194,0.373 -0.53,0.558 -1.01,0.558 -0.65,0 -1.17,-0.319 -1.555,-0.957 l 0,-7.924 -1.916,0 0,10.474 1.916,0 0,-0.715 c 0.492,0.623 1.172,0.935 2.035,0.935 0.985,0 1.688,-0.317 2.108,-0.949 C -0.211,9.115 0,8.119 0,6.763 L 0,0 Z" />
            </g>
            <g
               transform="translate(541.7734,28.528)"
               id="g6718">
              <path
                 id="path6720"
                 style="fill:#5a6771;fill-opacity:1;fill-rule:nonzero;stroke:none"
                 d="m 0,0 -1.914,0 0,6.446 c 0,0.786 -0.029,1.303 -0.08,1.556 -0.147,0.586 -0.487,0.879 -1.018,0.879 -0.652,0 -1.172,-0.319 -1.558,-0.957 l 0,-7.924 -1.914,0 0,6.446 c 0,0.786 -0.026,1.303 -0.081,1.556 -0.146,0.586 -0.486,0.879 -1.017,0.879 -0.652,0 -1.17,-0.319 -1.557,-0.957 l 0,-7.924 -1.916,0 0,10.474 1.916,0 0,-0.715 c 0.492,0.623 1.145,0.935 1.955,0.935 0.985,0 1.692,-0.372 2.116,-1.115 0.652,0.743 1.47,1.115 2.453,1.115 1.011,0 1.711,-0.338 2.097,-1.017 C -0.172,9.066 0,8.027 0,6.565 L 0,0 Z" />
            </g>
            <g
               transform="translate(547.8245,31.0221)"
               id="g6722">
              <path
                 id="path6724"
                 style="fill:#5a6771;fill-opacity:1;fill-rule:nonzero;stroke:none"
                 d="m 0,0 0,2.096 c -0.442,0.266 -0.967,0.4 -1.577,0.4 -1.011,0 -1.517,-0.552 -1.517,-1.657 0,-1.211 0.439,-1.816 1.316,-1.816 0.813,0 1.405,0.327 1.778,0.977 m 1.914,-2.494 -1.914,0 0,0.718 c -0.547,-0.626 -1.266,-0.939 -2.157,-0.939 -0.812,0 -1.476,0.294 -1.996,0.88 -0.572,0.625 -0.857,1.502 -0.857,2.633 0,1.106 0.318,1.964 0.957,2.576 0.613,0.572 1.43,0.858 2.455,0.858 0.586,0 1.117,-0.113 1.598,-0.34 l 0,1.019 c 0,0.998 -0.453,1.497 -1.36,1.497 -0.638,0 -1.324,-0.221 -2.054,-0.659 L -4.233,7.204 C -3.235,7.869 -2.229,8.2 -1.219,8.2 -0.075,8.2 0.732,7.967 1.205,7.502 1.677,7.036 1.914,6.224 1.914,5.068 l 0,-7.562 z" />
            </g>
            <g
               transform="translate(556.7815,38.8641)"
               id="g6726">
              <path
                 id="path6728"
                 style="fill:#5a6771;fill-opacity:1;fill-rule:nonzero;stroke:none"
                 d="m 0,0 -0.459,-1.914 c -0.371,0.214 -0.817,0.32 -1.338,0.32 -0.625,0 -1.123,-0.273 -1.496,-0.818 l 0,-7.924 -1.914,0 0,10.474 1.914,0 0,-0.715 c 0.492,0.623 1.111,0.935 1.857,0.935 C -0.866,0.358 -0.385,0.239 0,0" />
            </g>
            <g
               transform="translate(564.1655,28.528)"
               id="g6730">
              <path
                 id="path6732"
                 style="fill:#5a6771;fill-opacity:1;fill-rule:nonzero;stroke:none"
                 d="m 0,0 -2.095,0 -1.737,4.891 -1.039,-1.657 0,-3.234 -1.914,0 0,13.538 1.914,0.997 0,-6.277 c 0,-0.808 -0.013,-1.56 -0.039,-2.251 0.147,0.306 0.432,0.845 0.86,1.615 l 1.576,2.852 2.174,0 L -2.554,6.842 0,0 Z" />
            </g>
          </g>
        </g>
      </g>
    </g>
  </g>
</svg>
