<?xml version="1.0" encoding="UTF-8"?>
<svg xmlns="http://www.w3.org/2000/svg" width="600" height="400">
<defs>
<linearGradient id="grad" gradientUnits="userSpaceOnUse" x1="82.288653" y1="167.23437" x2="195.41663" y2="268.60437">
<stop stop-color="#0e3e5a" offset="0"/>
<stop stop-color="#4f5f84" offset="0.436"/>
<stop stop-color="#979dc1" offset="1"/>
</linearGradient>
</defs>
<rect fill="#0e3e5a" width="600" height="400"/>
<path fill="url(#grad)" stroke="#fff" stroke-width="2" d="m35 120v160h51.7548v-53.4453h56.4905v53.4453h51.7548v-160h-51.7548v54.6077h-56.4905v-54.6077h-51.7548z"/>
<g id="region" fill="#fff">
<path d="m63.7849 262.86h11.0853v6.57363h-27.9693v-12.249c0.000026-2.25924 0.262984-4.07277 0.788874-5.44059 0.525941-1.36778 1.4924-2.50081 2.89938-3.3991 1.40702-0.89823 2.97112-1.34736 4.69228-1.34738 3.36042 0.00002 5.77145 1.6128 7.23308 4.83835l12.3557-5.14458v7.20649l-11.0853 4.28714zm-11.9049 0h7.13063v-4.00133c0.000013-1.30655-0.0922-2.25584-0.276623-2.84789-0.184393-0.59202-0.594199-1.11941-1.22942-1.58216-0.63518-0.46272-1.36259-0.69409-2.18222-0.69411-0.778612 0.00002-1.47528 0.23139-2.09001 0.69411-0.614689 0.46275-0.993757 0.96632-1.13722 1.51071-0.143406 0.54441-0.215126 1.56516-0.215145 3.06224z"/>
<path d="m52.2284 222.009v13.2902h5.73729v-10.4525h5.26601v10.4525h6.10611v-13.2902h5.53238v19.925h-27.9693v-19.925z"/>
<path d="m59.9123 196.368h5.03865c4.13278-0.0249 10.3948 3.50556 10.3496 11.514-0.000007 3.63388-1.30455 6.46135-3.91365 8.48242-2.6091 2.02109-5.98316 3.03163-10.1222 3.03163-4.45321 0-8.03218-1.07859-10.7369-3.23578-2.70469-2.15717-4.05705-5.08672-4.05708-8.78864 0.000026-3.10306 0.874257-5.60731 2.62276-7.51272 1.02967-1.12206 2.26069-1.98688 3.69302-2.59449l0.836562 6.45697c-1.2029 0.82773-1.80438 2.04447-1.80437 3.65024 0.000006 1.76931 0.802558 3.10649 2.40761 4.01154 1.6051 0.90507 3.89659 1.3576 6.8745 1.35759 2.86865 0.00001 5.06111-0.48995 6.57739-1.46987 1.51628-0.97991 2.27442-2.37493 2.27442-4.18507 0-1.17045-0.382483-2.21501-1.14746-3.1337-0.764967-0.91866-1.98755-1.378-3.66776-1.37801v5.24665h-5.22503v-11.4528z"/>
<path d="m46.9009 184.691h27.9693v6.51237h-27.9693z"/>
<path d="m75.3005 168.645c-0.000007 3.75637-1.41383 6.6621-4.24149 8.7172-2.82766 2.05511-6.24954 3.08266-10.2656 3.08266-4.08438 0-7.4926-1.04116-10.2247-3.12349-2.73202-2.08232-4.09804-5.04929-4.09806-8.90093 0.000026-3.89244 1.45825-6.82879 4.37468-8.80906 2.91648-1.98023 6.25298-2.97036 10.0095-2.97038 4.05709 0.00002 7.47897 1.02077 10.2656 3.06225 2.78668 2.04151 4.18002 5.0221 4.18002 8.94175zm-23.4819-0.18373c0.00002 3.42973 3.01892 5.14458 9.05672 5.14457 6.05147 0.00001 9.07721-1.71484 9.07721-5.14457 0-3.32082-3.0189-4.98124-9.05672-4.98125-6.05145 0.00001-9.07719 1.66043-9.07721 4.98125z"/>
<path d="m46.9009 130.959h27.9693v5.57329l-18.8921 10.922c0.478123-0.0136 0.79231-0.0272 0.942554-0.0408 0.478123-0.0544 0.881097-0.0816 1.20893-0.0817h16.7406v5.08333h-27.9693v-7.04317l16.4947-9.49296c-0.819606 0.0817-1.44114 0.12251-1.86462 0.12249h-14.6301z"/>
</g>
<g id="regionhovedstaden" fill="#fff" stroke="#fff" stroke-width="2">
<path d="m279.87 188.757h-7.29898l-5.95148-15.446h-9.71326v15.446h-6.90595v-37.5826h16.6192c4.62266 0.00004 8.01949 1.02335 10.1905 3.06995 2.17094 2.04665 3.25643 4.69441 3.25647 7.94328-0.00004 4.82748-2.30202 8.14979-6.90596 9.96696zm-22.9637-20.8701h8.59034c2.48911 0.00003 4.34193-0.51392 5.55845-1.54185 1.21647-1.02787 1.82473-2.44123 1.82475-4.24008-0.00002-1.65196-0.59892-2.98731-1.79667-4.00606-1.19781-1.01869-2.87283-1.52805-5.02507-1.52809h-9.1518z"/>
<path d="m304.602 179.891l5.78304 0.77093c-0.74865 2.51469-2.20845 4.58885-4.37939 6.22247-2.171 1.63363-4.89409 2.45044-8.16924 2.45044-3.93024 0-7.09313-1.29405-9.48868-3.88216-2.39556-2.58809-3.59335-6.09396-3.59334-10.5176-0.00001-4.20336 1.20713-7.6817 3.62141-10.435 2.41427-2.75328 5.68945-4.12993 9.82555-4.12996 4.04249 0.00003 7.16795 1.35833 9.37638 4.0749 2.20839 2.71662 3.31259 6.20413 3.31262 10.4626l-0.028 0.71586h-19.4546c-0.00001 1.89062 0.18246 3.40493 0.54742 4.54296 0.36494 1.13804 1.09016 2.12923 2.17566 2.97356 1.08547 0.84436 2.44233 1.26653 4.07059 1.26652 3.16287 0.00001 5.29642-1.50513 6.40065-4.51542zm-0.39303-8.31497c-0.0188-2.00072-0.63166-3.63434-1.83878-4.90089-1.20715-1.26649-2.6997-1.89975-4.47764-1.89978-1.75925 0.00003-3.22841 0.59199-4.40746 1.77588-1.17909 1.18394-1.87154 2.85887-2.0774 5.02479z"/>
<path d="m342.641 155.635v4.81829h-1.96511c-0.86094 0.00002-1.61423 0.10098-2.25988 0.30286-0.64571 0.20194-1.27735 0.85355-1.89493 1.95485 2.24582 1.79885 3.36874 3.79958 3.36876 6.0022-0.00002 2.45964-1.05277 4.49708-3.15821 6.11233-2.1055 1.61529-4.8894 2.42292-8.35171 2.42291-1.49725 0.00001-3.24713-0.23861-5.24966-0.71586-1.31008 0.58739-1.96511 1.49598-1.9651 2.72578-0.00001 0.67915 0.31815 1.30324 0.95448 1.87224 0.63631 0.56902 1.60014 0.85353 2.89152 0.85352h8.4219c2.88213 0.00001 5.14201 0.72963 6.77962 2.18889 1.63755 1.45925 2.45636 3.27184 2.45639 5.43777-0.00003 2.62481-1.23991 4.79993-3.71967 6.52533-2.47981 1.7254-6.15269 2.5881-11.0186 2.58811-9.15181-0.00001-13.7277-2.50552-13.7277-7.51652 0-2.47798 1.37557-4.35939 4.12674-5.64428-1.75925-1.46842-2.63888-3.00109-2.63887-4.59801-0.00001-2.4229 1.50657-4.35021 4.51976-5.78195-2.62016-1.56018-3.93024-3.70776-3.93022-6.44273-0.00002-2.31275 0.96383-4.28595 2.89151-5.91961 1.92767-1.63359 4.85662-2.45041 8.78685-2.45044 1.79666 0.00003 3.62139 0.19276 5.47424 0.5782 0.86087-3.54256 3.13478-5.31384 6.82174-5.31388zm-14.5418 17.8965c3.48102 0.00002 5.22154-1.60608 5.22158-4.81828-0.00004-1.22979-0.43516-2.26687-1.3054-3.11124-0.87028-0.84431-2.13825-1.26649-3.80389-1.26652-1.6844 0.00003-2.98979 0.44056-3.91619 1.32159-0.92642 0.88109-1.38962 1.98241-1.38961 3.30397-0.00001 1.35831 0.45851 2.45963 1.37558 3.30396 0.91703 0.84436 2.18968 1.26654 3.81793 1.26652zm-7.01826 13.7115c-0.91706 0.82599-1.37558 1.62445-1.37557 2.39537-0.00001 1.26653 0.76731 2.38161 2.30199 3.34528 1.53464 0.96364 3.97698 1.44547 7.32705 1.44547 4.92211 0 7.38317-1.23898 7.3832-3.71696-0.00003-0.91777-0.43049-1.61068-1.29136-2.07874-0.86093-0.46806-1.84348-0.70209-2.94766-0.70209h-6.79367c-1.29138 0-2.82604-0.22944-4.60398-0.68833z"/>
<path d="m352.916 157.699h-6.40065v-6.52533h6.40065zm0 31.0573h-6.40065v-27.8084h6.40065z"/>
<path d="m371.668 189.335c-4.19224 0-7.39257-1.4776-9.60096-4.43282-2.20842-2.95521-3.31263-6.34176-3.31262-10.1597-0.00001-4.11158 1.22117-7.53486 3.66352-10.2698 2.44235-2.73491 5.66606-4.1024 9.67115-4.10243 3.79919 0.00003 6.91998 1.3308 9.36234 3.9923 2.44233 2.66154 3.6635 6.12153 3.66354 10.38-0.00004 4.38694-1.268 7.91575-3.8039 10.5864-2.53595 2.67071-5.75031 4.00606-9.64307 4.00606zm0.22459-5.17621c4.30449 0.00001 6.45675-3.14794 6.45678-9.44384-0.00003-2.84507-0.5147-5.08901-1.54401-6.73182-1.02937-1.64279-2.61081-2.46419-4.74434-2.46421-2.20842 0.00002-3.84602 0.84895-4.91278 2.5468-1.06679 1.69789-1.60016 3.95101-1.60016 6.75936 0 3.02865 0.56613 5.34142 1.69842 6.93833 1.13226 1.59693 2.68096 2.39539 4.64609 2.39538z"/>
<path d="m414.48 188.757h-6.40065v-17.3734c-0.00002-1.83552-0.43047-3.21677-1.29135-4.14372-0.86093-0.92694-1.89963-1.39041-3.11611-1.39043-1.66568 0.00002-3.12548 0.71588-4.37938 2.14758-1.25394 1.43173-1.88091 3.58849-1.8809 6.47026v14.2897h-6.40064v-27.8084h5.83919v6.44273c2.03995-4.68059 4.90339-7.0209 8.59034-7.02093 2.48911 0.00003 4.61797 0.77095 6.3866 2.31278 1.76857 1.54188 2.65286 4.24929 2.6529 8.12225z"/>
<path d="m279.273 244.309h-6.90595v-16.3271h-14.626v16.3271h-6.90595v-37.5826h6.90595v15.446h14.626v-15.446h6.90595z"/>
<path d="m298.391 244.888c-4.19225 0-7.39257-1.47761-9.60097-4.43282-2.20841-2.95521-3.31262-6.34177-3.31261-10.1597-0.00001-4.11158 1.22117-7.53485 3.66352-10.2698 2.44234-2.73492 5.66605-4.1024 9.67115-4.10242 3.79919 0.00002 6.91997 1.33079 9.36234 3.99229 2.44232 2.66155 3.6635 6.12153 3.66353 10.38-0.00003 4.38694-1.26799 7.91575-3.80389 10.5865-2.53595 2.67071-5.75031 4.00606-9.64307 4.00606zm0.22458-5.17622c4.3045 0.00001 6.45676-3.14793 6.45679-9.44383-0.00003-2.84507-0.5147-5.08901-1.54402-6.73183-1.02936-1.64279-2.6108-2.46418-4.74433-2.46421-2.20843 0.00003-3.84602 0.84896-4.91278 2.54681-1.06679 1.69789-1.60016 3.951-1.60016 6.75936 0 3.02864 0.56613 5.34142 1.69842 6.93832 1.13226 1.59693 2.68096 2.39539 4.64608 2.39538z"/>
<path d="m339.069 216.501l-9.62904 27.8084h-5.3058l-9.85362-27.8084h6.68137l6.62523 18.8601 6.45679-18.8601z"/>
<path d="m361.358 235.444l5.78304 0.77092c-0.74865 2.51469-2.20844 4.58885-4.37939 6.22247-2.171 1.63363-4.89408 2.45045-8.16924 2.45045-3.93024 0-7.09313-1.29406-9.48868-3.88216-2.39557-2.58811-3.59335-6.09398-3.59334-10.5176-0.00001-4.20335 1.20713-7.68169 3.62142-10.435 2.41426-2.75328 5.68945-4.12994 9.82555-4.12996 4.04248 0.00002 7.16794 1.35833 9.37637 4.07489 2.20838 2.71661 3.31259 6.20413 3.31262 10.4626l-0.028 0.71586h-19.4546c-0.00001 1.89061 0.18246 3.40493 0.54743 4.54295 0.36493 1.13804 1.09015 2.12923 2.17565 2.97357 1.08548 0.84435 2.44234 1.26653 4.07059 1.26652 3.16287 0.00001 5.29642-1.50514 6.40064-4.51542zm-0.39302-8.31498c-0.0188-2.00071-0.63167-3.63434-1.83879-4.90088-1.20715-1.2665-2.69971-1.89976-4.47764-1.89978-1.75926 0.00002-3.22841 0.59198-4.40745 1.77588-1.17909 1.18394-1.87156 2.85887-2.07741 5.02478z"/>
<path d="m396.843 244.309h-5.97955v-5.61674c-1.64697 4.12996-4.43555 6.19494-8.36575 6.19494-3.48108 0-6.148-1.42254-8.00081-4.26762-1.85283-2.84508-2.77923-6.37849-2.77923-10.6002 0-3.92803 0.96384-7.3513 2.89152-10.2698 1.92767-2.91848 4.66947-4.37773 8.22539-4.37775 3.64948 0.00002 6.18539 1.63365 7.60779 4.90088v-13.5463h6.40064zm-6.40064-16.4097c-0.00004-2.25769-0.54745-4.01521-1.64228-5.27257-1.09487-1.25732-2.51255-1.88599-4.25306-1.88602-1.89027 0.00003-3.36878 0.80766-4.43553 2.42291-1.06679 1.61529-1.60017 4.02902-1.60016 7.24119-0.00001 6.20413 1.98381 9.30618 5.95148 9.30617 1.57207 0.00001 2.96167-0.66537 4.16883-1.99614 1.20712-1.33075 1.81068-3.03322 1.81072-5.10739z"/>
<path d="m401.082 237.922l6.00762-1.12885c0.91704 2.25772 2.9383 3.38657 6.06377 3.38656 3.96762 0.00001 5.95145-1.1472 5.95147-3.44163-0.00002-0.7342-0.30882-1.33993-0.92641-1.81718-0.61762-0.47722-1.34752-0.79845-2.18969-0.96366l-5.16543-0.96365c-5.7269-1.08296-8.59035-3.82708-8.59034-8.23238-0.00001-2.4596 0.90769-4.54752 2.72308-6.26377 1.81537-1.7162 4.51975-2.57432 8.1131-2.57434 5.98888 0.00002 9.64772 2.15679 10.9765 6.47027l-5.69882 1.12885c-0.59891-2.09248-2.302-3.13874-5.10929-3.13877-3.40619 0.00003-5.10929 1.04629-5.10928 3.13877-0.00001 1.45009 1.37557 2.45046 4.12674 3.0011l6.09183 1.23899c4.73495 0.95449 7.10245 3.61602 7.10247 7.98459-0.00002 3.06534-1.21653 5.35517-3.64949 6.86949-2.43301 1.51432-5.32453 2.27148-8.67456 2.27148-2.90088 0-5.46488-0.57361-7.69199-1.72082-2.22713-1.1472-3.67757-2.89556-4.35132-5.24505z"/>
<path d="m443.837 239.409v4.90088c-1.90898 0.40381-3.38749 0.60573-4.43553 0.60573-1.72182 0-3.20034-0.33499-4.43553-1.00496-1.23522-0.66997-2.13824-1.58773-2.70905-2.7533-0.57082-1.16557-0.85623-2.95979-0.85623-5.38272v-14.3998h-3.53719v-4.87335h3.90215l-0.0368-2.43994 5.87597-5.26931v7.70925h5.69882v4.87335h-5.69882v13.5738c-0.00002 1.74376 0.32283 2.93227 0.96851 3.56553 0.64567 0.63326 1.86685 0.94989 3.66354 0.94989 0.50529 0 1.03868-0.0183 1.60015-0.0551v-0.00001z"/>
<path d="m473.482 244.309h-6.09184c-0.54277-1.68869-0.87029-3.56094-0.98256-5.61674-1.70311 4.12996-4.90344 6.19494-9.60096 6.19494-2.82603 0-5.09526-0.81223-6.80771-2.43667-1.71245-1.62445-2.56868-3.66649-2.56867-6.12612-0.00001-6.38764 5.71752-9.58147 17.1526-9.5815 0.44914 0.00003 1.05739 0.009 1.82474 0.0275v-2.09251c-0.00002-2.88178-2.00255-4.32267-6.00762-4.32269-3.8928 0.00002-6.10121 1.44091-6.62523 4.32269l-5.44616-0.79846c0.29943-2.31275 1.51594-4.21712 3.64949-5.7131 2.13355-1.49595 5.22156-2.24393 9.26409-2.24395 2.18968 0.00002 3.97699 0.17899 5.36195 0.5369 1.38491 0.35795 2.55461 0.96368 3.50912 1.81718 0.95446 0.85355 1.61417 1.78049 1.97914 2.78083 0.36492 1.00039 0.54739 2.69367 0.54743 5.07985v12.5551c-0.00004 1.81719 0.28069 3.68943 0.84219 5.61674zm-7.0744-14.152c-8.27219 0.00002-12.4083 1.93651-12.4083 5.80947-0.00001 1.1564 0.4164 2.14301 1.24925 2.95982 0.83281 0.81682 2.09142 1.22522 3.77582 1.22521 2.43297 0.00001 4.27174-0.75716 5.51634-2.27147 1.24454-1.51431 1.86683-3.23513 1.86685-5.16245z"/>
<path d="m503.632 244.309h-5.97955v-5.61674c-1.64698 4.12996-4.43555 6.19494-8.36575 6.19494-3.48107 0-6.148-1.42254-8.00081-4.26762-1.85282-2.84508-2.77923-6.37849-2.77922-10.6002-0.00001-3.92803 0.96383-7.3513 2.89151-10.2698 1.92767-2.91848 4.66946-4.37773 8.22539-4.37775 3.64947 0.00002 6.1854 1.63365 7.60778 4.90088v-13.5463h6.40065zm-6.40065-16.4097c-0.00002-2.25769-0.54744-4.01521-1.64227-5.27257-1.09486-1.25732-2.51254-1.88599-4.25305-1.88602-1.89027 0.00003-3.36878 0.80766-4.43554 2.42291-1.06679 1.61529-1.60017 4.02902-1.60016 7.24119-0.00001 6.20413 1.98382 9.30618 5.95148 9.30617 1.57206 0.00001 2.96168-0.66537 4.16883-1.99614 1.20712-1.33075 1.81069-3.03322 1.81071-5.10739z"/>
<path d="m529.347 235.444l5.78303 0.77092c-0.74864 2.51469-2.20844 4.58885-4.37939 6.22247-2.17099 1.63363-4.89407 2.45045-8.16924 2.45045-3.93024 0-7.09312-1.29406-9.48867-3.88216-2.39557-2.58811-3.59336-6.09398-3.59335-10.5176-0.00001-4.20335 1.20713-7.68169 3.62142-10.435 2.41427-2.75328 5.68945-4.12994 9.82555-4.12996 4.04249 0.00002 7.16795 1.35833 9.37638 4.07489 2.20838 2.71661 3.31258 6.20413 3.31262 10.4626l-0.028 0.71586h-19.4546c-0.00001 1.89061 0.18246 3.40493 0.54741 4.54295 0.36495 1.13804 1.09016 2.12923 2.17567 2.97357 1.08546 0.84435 2.44233 1.26653 4.07058 1.26652 3.16287 0.00001 5.29642-1.50514 6.40065-4.51542zm-0.39302-8.31498c-0.0188-2.00071-0.63168-3.63434-1.83879-4.90088-1.20716-1.2665-2.69971-1.89976-4.47764-1.89978-1.75926 0.00002-3.22842 0.59198-4.40746 1.77588-1.17908 1.18394-1.87155 2.85887-2.07741 5.02478z"/>
<path d="m565 244.309h-6.40064v-17.3734c-0.00003-1.83551-0.43047-3.21675-1.29136-4.14371-0.86093-0.92693-1.89963-1.3904-3.11611-1.39042-1.66568 0.00002-3.12547 0.71588-4.37938 2.14757-1.25394 1.43174-1.88091 3.5885-1.88089 6.47027v14.2896h-6.40065v-27.8084h5.83918v6.44274c2.03997-4.68059 4.9034-7.02091 8.59034-7.02093 2.48913 0.00002 4.61798 0.77095 6.38661 2.31278 1.76857 1.54187 2.65287 4.24928 2.6529 8.12225z"/>
</g>
</svg>