<?xml version="1.0" encoding="UTF-8" standalone="no"?>
<svg
   xmlns:dc="http://purl.org/dc/elements/1.1/"
   xmlns:cc="http://creativecommons.org/ns#"
   xmlns:rdf="http://www.w3.org/1999/02/22-rdf-syntax-ns#"
   xmlns:svg="http://www.w3.org/2000/svg"
   xmlns="http://www.w3.org/2000/svg"
   version="1.1"
   id="svg2"
   viewBox="0 0 1000 666.66666"
   height="188.14815mm"
   width="282.22223mm">
  <defs
     id="defs4">
    <radialGradient
       id="radialGradient3073"
       spreadMethod="pad"
       gradientTransform="matrix(45.15,0,0,-45.15,79.897,18.88)"
       gradientUnits="userSpaceOnUse"
       r="1"
       cy="0"
       cx="0"
       fy="0"
       fx="0">
      <stop
         id="stop3075"
         offset="0"
         style="stop-opacity:1;stop-color:#859dbc" />
      <stop
         id="stop3077"
         offset="1"
         style="stop-opacity:1;stop-color:#003360" />
    </radialGradient>
    <clipPath
       clipPathUnits="userSpaceOnUse"
       id="clipPath3404">
      <path
         d="m 1089.221,797.102 109.834,0 0,53.291 -109.834,0 0,-53.291 z"
         id="path3406" />
    </clipPath>
    <clipPath
       clipPathUnits="userSpaceOnUse"
       id="clipPath3412">
      <path
         d="m 1108.309,841.132 71.658,0 0,-34.769 -71.658,0 0,34.769 z"
         id="path3414" />
    </clipPath>
    <clipPath
       clipPathUnits="userSpaceOnUse"
       id="clipPath3420">
      <path
         d="m 1108.309,841.132 71.658,0 0,-34.769 -71.658,0 0,34.769 z"
         id="path3422" />
    </clipPath>
    <clipPath
       clipPathUnits="userSpaceOnUse"
       id="clipPath3428">
      <path
         d="m 1100.541,852.026 85.323,0 0,-60.917 -85.323,0 0,60.917 z"
         id="path3430" />
    </clipPath>
    <clipPath
       clipPathUnits="userSpaceOnUse"
       id="clipPath4823">
      <path
         d="m 0,0 841.89,0 0,595.276 L 0,595.276 0,0 Z"
         id="path4825" />
    </clipPath>
    <clipPath
       clipPathUnits="userSpaceOnUse"
       id="clipPath4803">
      <path
         d="m 0,0 841.89,0 0,595.276 L 0,595.276 0,0 Z"
         id="path4805" />
    </clipPath>
    <clipPath
       clipPathUnits="userSpaceOnUse"
       id="clipPath4789">
      <path
         d="m 0,0 841.89,0 0,595.276 L 0,595.276 0,0 Z"
         id="path4791" />
    </clipPath>
  </defs>
  <metadata
     id="metadata7">
    <rdf:RDF>
      <cc:Work
         rdf:about="">
        <dc:format>image/svg+xml</dc:format>
        <dc:type
           rdf:resource="http://purl.org/dc/dcmitype/StillImage" />
        <dc:title></dc:title>
      </cc:Work>
    </rdf:RDF>
  </metadata>
  <g
     transform="translate(268.70056,-82.649765)"
     id="layer1">
    <rect
       y="82.649765"
       x="-268.70056"
       height="666.66669"
       width="1000"
       id="rect4268"
       style="color:#000000;clip-rule:nonzero;display:inline;overflow:visible;visibility:visible;opacity:1;isolation:auto;mix-blend-mode:normal;color-interpolation:sRGB;color-interpolation-filters:linearRGB;solid-color:#000000;solid-opacity:1;fill:#84092b;fill-opacity:0.98823529;fill-rule:nonzero;stroke:none;stroke-width:15;stroke-linecap:butt;stroke-linejoin:miter;stroke-miterlimit:4;stroke-dasharray:none;stroke-dashoffset:0;stroke-opacity:1;color-rendering:auto;image-rendering:auto;shape-rendering:auto;text-rendering:auto;enable-background:accumulate" />
    <g
       style="fill:#ffffff;fill-opacity:1"
       id="layer1-2"
       transform="matrix(0.8008008,0,0,0.8008008,185.8317,626.52131)">
      <g
         style="fill:#ffffff;fill-opacity:1"
         transform="matrix(1.25,0,0,-1.25,-792.3701,538.95985)"
         id="g2993">
        <g
           id="g4769"
           transform="matrix(7.0453948,0,0,7.0453948,326.70059,517.80591)"
           style="fill:#ffffff;fill-opacity:1">
          <path
             d="m 0,0 c -0.442,0 -0.637,-0.053 -1.067,-0.208 -0.429,-0.156 -0.793,-0.56 -0.793,-0.56 l -0.065,0.676 -1.795,0 0,-0.689 c 0,0 0.195,-0.013 0.39,-0.065 0.195,-0.053 0.468,-0.129 0.468,-0.129 l 0,-3.955 -0.754,-0.389 0,-0.509 2.627,0 0,0.495 -0.689,0.364 c 0,0 0.017,2.74 0.017,3.179 0,0.438 0.239,0.607 0.372,0.704 0.2,0.147 0.547,0.292 1.094,0.292 0.045,0 0.089,-0.003 0.132,-0.009 0.383,0.25 0.818,0.427 1.285,0.511 C 0.865,-0.069 0.372,0 0,0"
             style="fill:#ffffff;fill-opacity:1;fill-rule:nonzero;stroke:none"
             id="path4771" />
        </g>
        <g
           id="g4773"
           transform="matrix(7.0453948,0,0,7.0453948,339.62536,551.50608)"
           style="fill:#ffffff;fill-opacity:1">
          <path
             d="m 0,0 c -4.689,0 -8.503,-3.814 -8.503,-8.504 0,-4.688 3.814,-8.503 8.503,-8.503 4.69,0 8.504,3.815 8.504,8.503 C 8.504,-3.814 4.69,0 0,0 m 0,-16.37 c -4.338,0 -7.867,3.529 -7.867,7.866 0,4.338 3.529,7.868 7.867,7.868 4.339,0 7.868,-3.53 7.868,-7.868 0,-4.337 -3.529,-7.866 -7.868,-7.866"
             style="fill:#ffffff;fill-opacity:1;fill-rule:nonzero;stroke:none"
             id="path4775" />
        </g>
        <g
           id="g4777"
           transform="matrix(7.0453948,0,0,7.0453948,404.57756,395.65772)"
           style="fill:#ffffff;fill-opacity:1">
          <path
             d="m 0,0 -0.717,0 0,5.826 c 0.203,0 1.103,0.028 1.572,0.028 0.9,0 1.424,-0.064 1.783,-0.431 C 2.941,5.127 3.088,4.669 3.088,4.283 3.088,3.189 2.169,2.812 1.847,2.684 2.389,1.718 2.968,1.002 3.243,0.708 3.308,0.653 3.566,0.386 4.052,0.303 L 3.961,0.019 C 3.942,-0.045 3.878,-0.045 3.814,-0.045 2.932,-0.045 2.518,0.102 1.112,2.518 0.91,2.49 0.662,2.454 0,2.481 L 0,0 Z M 0,2.968 C 0.147,2.95 0.358,2.94 0.615,2.94 1.342,2.94 2.297,3.042 2.297,4.2 2.297,5.348 1.415,5.376 0.809,5.376 0.671,5.376 0.266,5.366 0,5.348 l 0,-2.38 z"
             style="fill:#ffffff;fill-opacity:1;fill-rule:nonzero;stroke:none"
             id="path4779" />
        </g>
        <g
           id="g4781"
           transform="matrix(7.0453948,0,0,7.0453948,444.91315,399.34746)"
           style="fill:#ffffff;fill-opacity:1">
          <path
             d="m 0,0 3.06,0 0,-0.524 -3.777,0 0,5.826 3.749,0 0,-0.514 -3.032,0 0,-1.957 2.693,0 0,-0.514 L 0,2.317 0,0 Z"
             style="fill:#ffffff;fill-opacity:1;fill-rule:nonzero;stroke:none"
             id="path4783" />
        </g>
        <g
           id="g4785"
           transform="matrix(7.0453948,0,0,7.0453948,-1817.2596,256.10676)"
           style="fill:#ffffff;fill-opacity:1">
          <g
             id="g4787"
             clip-path="url(#clipPath4789)"
             style="fill:#ffffff;fill-opacity:1">
            <g
               id="g4793"
               transform="translate(330.3753,22.6931)"
               style="fill:#ffffff;fill-opacity:1">
              <path
                 d="m 0,0 0,-2.739 c -0.698,-0.137 -1.516,-0.248 -2.141,-0.248 -1.388,0 -2.159,0.405 -2.656,1.03 -0.505,0.635 -0.597,1.351 -0.597,1.801 0,1.314 0.809,3.207 3.575,3.207 0.744,0 1.452,-0.156 1.516,-0.184 0.046,-0.019 0.11,-0.045 0.11,-0.11 l 0.028,-0.45 c 0,-0.092 -0.129,-0.156 -0.129,-0.156 -0.027,0 -0.22,0.091 -0.266,0.109 -0.46,0.194 -1.011,0.304 -1.471,0.304 -1.479,0 -2.545,-0.938 -2.545,-2.564 0,-1.379 0.845,-2.509 2.619,-2.509 0.579,0 1.002,0.102 1.231,0.156 L -0.726,0 0,0 Z"
                 style="fill:#ffffff;fill-opacity:1;fill-rule:nonzero;stroke:none"
                 id="path4795" />
            </g>
          </g>
        </g>
        <path
           d="m 521.76221,395.65497 5.0445,0 0,41.05351 -5.0445,0 0,-41.05351 z"
           style="fill:#ffffff;fill-opacity:1;fill-rule:nonzero;stroke:none"
           id="path4797" />
        <g
           id="g4799"
           transform="matrix(7.0453948,0,0,7.0453948,-1817.2596,256.10676)"
           style="fill:#ffffff;fill-opacity:1">
          <g
             id="g4801"
             clip-path="url(#clipPath4803)"
             style="fill:#ffffff;fill-opacity:1">
            <g
               id="g4807"
               transform="translate(340.3379,22.7946)"
               style="fill:#ffffff;fill-opacity:1">
              <path
                 d="m 0,0 c 0,-1.618 -1.158,-3.144 -3.152,-3.144 -1.811,0 -3.023,1.471 -3.023,3.042 0,1.334 0.983,3.097 3.244,3.097 C -1.103,2.995 0,1.552 0,0 m -4.457,2.031 c -0.551,-0.424 -0.9,-1.149 -0.9,-1.986 0,-1.405 0.982,-2.656 2.352,-2.656 1.406,0 2.187,1.268 2.187,2.445 0,1.112 -0.699,2.628 -2.169,2.628 -0.441,0 -0.964,-0.045 -1.47,-0.431"
                 style="fill:#ffffff;fill-opacity:1;fill-rule:nonzero;stroke:none"
                 id="path4809" />
            </g>
          </g>
        </g>
        <g
           id="g4811"
           transform="matrix(7.0453948,0,0,7.0453948,625.23017,395.85717)"
           style="fill:#ffffff;fill-opacity:1">
          <path
             d="m 0,0 -0.322,-0.111 -4.199,4.852 0.138,-4.769 -0.643,0 0,5.826 0.533,0 L -0.505,1.166 -0.643,5.798 0,5.798 0,0 Z"
             style="fill:#ffffff;fill-opacity:1;fill-rule:nonzero;stroke:none"
             id="path4813" />
        </g>
        <g
           id="g4815"
           transform="matrix(7.0453948,0,0,7.0453948,689.71667,395.85717)"
           style="fill:#ffffff;fill-opacity:1">
          <path
             d="m 0,0 -0.322,-0.111 -4.2,4.852 0.138,-4.769 -0.643,0 0,5.826 0.533,0 L -0.506,1.166 -0.643,5.798 0,5.798 0,0 Z"
             style="fill:#ffffff;fill-opacity:1;fill-rule:nonzero;stroke:none"
             id="path4817" />
        </g>
        <g
           id="g4819"
           transform="matrix(7.0453948,0,0,7.0453948,-1817.2596,256.10676)"
           style="fill:#ffffff;fill-opacity:1">
          <g
             id="g4821"
             clip-path="url(#clipPath4823)"
             style="fill:#ffffff;fill-opacity:1">
            <g
               id="g4827"
               transform="translate(363.3616,22.7946)"
               style="fill:#ffffff;fill-opacity:1">
              <path
                 d="m 0,0 c 0,-1.618 -1.157,-3.144 -3.152,-3.144 -1.811,0 -3.023,1.471 -3.023,3.042 0,1.334 0.983,3.097 3.243,3.097 C -1.102,2.995 0,1.552 0,0 m -4.457,2.031 c -0.552,-0.424 -0.9,-1.149 -0.9,-1.986 0,-1.405 0.983,-2.656 2.352,-2.656 1.406,0 2.187,1.268 2.187,2.445 0,1.112 -0.698,2.628 -2.168,2.628 -0.442,0 -0.965,-0.045 -1.471,-0.431"
                 style="fill:#ffffff;fill-opacity:1;fill-rule:nonzero;stroke:none"
                 id="path4829" />
            </g>
            <g
               id="g4831"
               transform="translate(365.4041,19.8074)"
               style="fill:#ffffff;fill-opacity:1">
              <path
                 d="m 0,0 -0.717,0 0,5.826 c 0.203,0 1.103,0.028 1.572,0.028 0.901,0 1.424,-0.064 1.783,-0.431 C 2.941,5.127 3.088,4.669 3.088,4.283 3.088,3.189 2.169,2.812 1.848,2.684 2.39,1.718 2.969,1.002 3.244,0.708 3.308,0.653 3.566,0.386 4.053,0.303 L 3.961,0.019 C 3.943,-0.045 3.878,-0.045 3.814,-0.045 2.932,-0.045 2.519,0.102 1.112,2.518 0.91,2.49 0.662,2.454 0,2.481 L 0,0 Z M 0,2.968 C 0.147,2.95 0.359,2.94 0.616,2.94 1.342,2.94 2.298,3.042 2.298,4.2 2.298,5.348 1.416,5.376 0.809,5.376 0.671,5.376 0.267,5.366 0,5.348 l 0,-2.38 z"
                 style="fill:#ffffff;fill-opacity:1;fill-rule:nonzero;stroke:none"
                 id="path4833" />
            </g>
            <g
               id="g4835"
               transform="translate(370.4127,25.6335)"
               style="fill:#ffffff;fill-opacity:1">
              <path
                 d="m 0,0 c 0.376,0 1.011,0.047 2.04,0.047 0.882,0 1.636,0 2.279,-0.561 0.588,-0.505 0.909,-1.37 0.909,-2.279 0,-1.232 -0.624,-2.003 -0.992,-2.325 C 3.437,-5.826 2.196,-5.826 1.727,-5.826 L 0,-5.826 0,0 Z m 0.717,-5.366 1.057,0 c 0.79,0 1.497,0.184 1.865,0.504 0.524,0.46 0.772,1.315 0.772,2.033 0,0.421 -0.083,1.111 -0.533,1.699 -0.542,0.717 -1.36,0.717 -1.939,0.717 -0.367,0 -0.478,0 -1.222,-0.037 l 0,-4.916 z"
                 style="fill:#ffffff;fill-opacity:1;fill-rule:nonzero;stroke:none"
                 id="path4837" />
            </g>
            <g
               id="g4839"
               transform="translate(377.8743,25.6335)"
               style="fill:#ffffff;fill-opacity:1">
              <path
                 d="M 0,0 0,-4.962 C 0,-5.853 0,-6.423 -0.606,-7.03 -0.9,-7.324 -1.296,-7.563 -1.81,-7.563 c -0.45,0 -0.745,0.193 -0.745,0.349 0,0.111 0,0.111 0.055,0.156 l 0.24,0.239 c 0.027,0.029 0.036,0.029 0.147,0.029 0.018,0 0.027,-0.01 0.119,-0.055 0.129,-0.074 0.294,-0.121 0.459,-0.121 0.818,0 0.818,0.718 0.818,2.04 L -0.717,0 0,0 Z"
                 style="fill:#ffffff;fill-opacity:1;fill-rule:nonzero;stroke:none"
                 id="path4841" />
            </g>
          </g>
        </g>
        <g
           id="g4843"
           transform="matrix(7.0453948,0,0,7.0453948,856.02321,436.70496)"
           style="fill:#ffffff;fill-opacity:1">
          <path
             d="M 0,0 1.645,-2.784 3.381,0 4.19,0 1.893,-3.263 l 0,-2.563 -0.726,0 0,2.528 L -0.827,0 0,0 Z"
             style="fill:#ffffff;fill-opacity:1;fill-rule:nonzero;stroke:none"
             id="path4845" />
        </g>
        <g
           id="g4847"
           transform="matrix(7.0453948,0,0,7.0453948,894.5425,436.70496)"
           style="fill:#ffffff;fill-opacity:1">
          <path
             d="m 0,0 0,-5.293 2.932,0 0,-0.533 -3.649,0 0,5.826 L 0,0 Z"
             style="fill:#ffffff;fill-opacity:1;fill-rule:nonzero;stroke:none"
             id="path4849" />
        </g>
        <g
           id="g4851"
           transform="matrix(7.0453948,0,0,7.0453948,926.45814,436.70496)"
           style="fill:#ffffff;fill-opacity:1">
          <path
             d="m 0,0 0,-5.293 2.932,0 0,-0.533 -3.649,0 0,5.826 L 0,0 Z"
             style="fill:#ffffff;fill-opacity:1;fill-rule:nonzero;stroke:none"
             id="path4853" />
        </g>
        <g
           id="g4855"
           transform="matrix(7.0453948,0,0,7.0453948,953.70127,395.65772)"
           style="fill:#ffffff;fill-opacity:1">
          <path
             d="m 0,0 -0.736,0 2.702,5.826 0.57,0 L 4.787,0 4.006,0 3.317,1.884 0.781,1.884 0,0 Z m 3.143,2.343 -1.02,2.73 -1.149,-2.73 2.169,0 z"
             style="fill:#ffffff;fill-opacity:1;fill-rule:nonzero;stroke:none"
             id="path4857" />
        </g>
        <g
           id="g4859"
           transform="matrix(7.0453948,0,0,7.0453948,1028.9996,395.85717)"
           style="fill:#ffffff;fill-opacity:1">
          <path
             d="m 0,0 -0.321,-0.111 -4.2,4.852 0.138,-4.769 -0.644,0 0,5.826 0.533,0 L -0.505,1.166 -0.643,5.798 0,5.798 0,0 Z"
             style="fill:#ffffff;fill-opacity:1;fill-rule:nonzero;stroke:none"
             id="path4861" />
        </g>
        <g
           id="g4871"
           transform="matrix(7.0453948,0,0,7.0453948,1042.078,436.70496)"
           style="fill:#ffffff;fill-opacity:1">
          <path
             d="m 0,0 c 0.376,0 1.011,0.047 2.04,0.047 0.882,0 1.636,0 2.279,-0.561 0.588,-0.505 0.91,-1.37 0.91,-2.279 0,-1.232 -0.625,-2.003 -0.993,-2.325 C 3.437,-5.826 2.196,-5.826 1.727,-5.826 L 0,-5.826 0,0 Z m 0.717,-5.366 1.056,0 c 0.791,0 1.499,0.184 1.866,0.504 0.524,0.46 0.772,1.315 0.772,2.033 0,0.421 -0.083,1.111 -0.533,1.699 -0.542,0.717 -1.36,0.717 -1.939,0.717 -0.368,0 -0.478,0 -1.222,-0.037 l 0,-4.916 z"
             style="fill:#ffffff;fill-opacity:1;fill-rule:nonzero;stroke:none"
             id="path4873" />
        </g>
        <g
           id="g4875"
           transform="matrix(7.0453948,0,0,7.0453948,339.9882,483.08684)"
           style="fill:#ffffff;fill-opacity:1">
          <path
             d="m 0,0 c 0,0 -0.018,3.051 -0.031,3.298 -0.004,0.091 -0.019,0.234 -0.052,0.395 -0.386,-0.005 -0.75,-0.098 -1.075,-0.26 10e-4,-0.014 0.003,-0.029 0.003,-0.042 0,-0.346 -0.003,-3.405 -0.003,-3.405 l -0.637,-0.389 0,-0.497 2.497,0.001 0,0.513 L 0,0 Z"
             style="fill:#ffffff;fill-opacity:1;fill-rule:nonzero;stroke:none"
             id="path4877" />
        </g>
      </g>
    </g>
  </g>
</svg>
