<svg xmlns="http://www.w3.org/2000/svg" viewBox="0 0 2400 1600"><rect width="2400" height="1600" style="fill:#1b90cb"/><path d="M337.6625,1005.9678a205.9508,205.9508,0,0,1-160.728-91.42,194.1762,194.1762,0,0,1-13.3734-23.1256,203.9814,203.9814,0,0,1-21.0466-79.9125,240.6751,240.6751,0,0,1,.5824-30.8676,206.1385,206.1385,0,0,1,91.4974-152.6909c30.0219-19.8614,62.9141-31.0359,99.5241-33.8114,6.0968-.4622,24.2107-.3949,30.1816.1125a205.7907,205.7907,0,0,1,120.4977,50.8685c4.3945,3.8234,14.6533,14.0992,18.6926,18.7235a206.27,206.27,0,0,1-140.6765,341.9166c-3.9588.3185-20.8388.4578-25.1513.207Z" transform="translate(1.1306 0.0372)" style="fill:#1b90cb"/><path d="M337.6625,1005.9678a205.9508,205.9508,0,0,1-160.728-91.42,194.1762,194.1762,0,0,1-13.3734-23.1256,203.9814,203.9814,0,0,1-21.0466-79.9125,240.6751,240.6751,0,0,1,.5824-30.8676,206.1385,206.1385,0,0,1,91.4974-152.6909c30.0219-19.8614,62.9141-31.0359,99.5241-33.8114,6.0968-.4622,24.2107-.3949,30.1816.1125a205.7907,205.7907,0,0,1,120.4977,50.8685c4.3945,3.8234,14.6533,14.0992,18.6926,18.7235a206.27,206.27,0,0,1-140.6765,341.9166c-3.9588.3185-20.8388.4578-25.1513.207ZM246.6682,850.8367c10.2815-17.6058,18.91-32.4266,19.1748-32.9348,1.1967-2.2982,7.9972-13.8237,8.1565-13.8237a2.8488,2.8488,0,0,1,.8342.5522,94.4789,94.4789,0,0,0,8.8965,6.0874,87.3777,87.3777,0,0,0,35.2974,11.9259,143.9337,143.9337,0,0,0,18.5206,0A87.2657,87.2657,0,0,0,385.23,801.7362c2.4693-2.1325,8.7942-8.5109,8.7942-8.8687,0-.0986-3.754-3.5815-8.3422-7.7382l-8.3423-7.5577-3.6046,3.6087c-1.9826,1.9846-4.4792,4.3-5.5482,5.1458a64.4812,64.4812,0,0,1-30.7531,13.3406,95.8715,95.8715,0,0,1-18.2919,0c-13.8615-2.2376-25.367-7.8719-35.0081-17.1433l-2.3207-2.2316-10.2232.0592-10.2233.0592-26.528,45.3868c-14.59,24.9627-26.5422,45.5193-26.56,45.6816-.0368.3436,19.3323,11.7634,19.55,11.5259.08-.0883,8.5581-14.5646,18.84-32.17Zm230.1268,9.489H268.725v22.8648h208.07Zm-21.3786-29.3529c6.0712-3.5273,9.1371-5.4324,9.12-5.6665-.0139-.1943-18.9466-32.8276-42.0713-72.5188L380.42,680.6218H360.5273L337.5482,720.086C324.91,741.7913,314.45,759.77,314.3051,760.0378c-.2513.464.2009.7584,9.3486,6.0879,5.2869,3.08,9.7394,5.6311,9.8943,5.6685.1633.0393,7.9524-13.1021,18.5322-31.2676,10.0377-17.2348,18.3082-31.3331,18.379-31.33.071,0,16.8926,28.7568,37.3818,63.896l37.2531,63.89.5882-.3475c.3234-.1909,4.7039-2.7386,9.7341-5.6611Z" transform="translate(1.1306 0.0372)" style="fill:#fff"/><path d="M1082.5012,1000.3508c-12.8085-1.8134-21.5705-7.3143-25.9446-16.2884a36.2,36.2,0,0,1-2.5217-7.8675c0-.2672,1.5142-.3459,6.6466-.3459h6.6469l.499,1.5909c2.5793,8.2281,10.5086,12.5078,23.1935,12.518,15.947.0166,24.8919-7.2983,26.3521-21.54.3336-3.2679.4-14.9812.0866-14.9805a4.5741,4.5741,0,0,0-1.035,1.3143c-1.2621,2.0071-5.3141,5.8428-8.1806,7.7438a31.8336,31.8336,0,0,1-20.2982,5.7926c-12.95-.4776-23.4588-6.5263-30.0531-17.2975a41.3515,41.3515,0,0,1-5.2757-15.4577,71.4649,71.4649,0,0,1,.5369-16.0684,43.1273,43.1273,0,0,1,10.7426-20.49,38.3754,38.3754,0,0,1,20.8363-10.4593,44.8619,44.8619,0,0,1,14.5366.5365,28.5318,28.5318,0,0,1,16.6961,11.1192l1.5641,2.2107.074-6.43.0741-6.43h12.8278v40.231c0,38.6958-.0411,40.3507-.5466,43.3711-2.53,14.5311-11.8737,23.5383-27.8375,26.8338-3.5778.7384-15.493.9773-19.62.3928Zm15.9083-43.5681A25.2562,25.2562,0,0,0,1116.385,939.65a34.1454,34.1454,0,0,0,1.56-11.4971c-.0026-10.4947-2.5456-17.5108-8.2955-22.8884-4.8884-4.5717-10.7689-6.5322-18.7753-6.2593-7.6576.261-12.52,2.3158-17.3512,7.3331-3.5579,3.6947-5.6658,7.915-6.9745,13.9652a32.8207,32.8207,0,0,0-.6333,7.9549c-.0412,5.4978.26,7.7448,1.4409,11.4826a25.6266,25.6266,0,0,0,6.818,11.1116,23.4693,23.4693,0,0,0,11.8205,6.2922,36.119,36.119,0,0,0,12.415-.3623Zm919.6076-12.3378V889.522h13.1074l.074,6.6828.0741,6.6826,1.4491-1.9323c4.0416-5.3894,11.1191-9.9432,18.4765-11.8876,5.53-1.4615,13.7563-1.1385,19.8246.7785a35.6119,35.6119,0,0,1,17.1728,11.903,42.3863,42.3863,0,0,1,7.828,20.0626,79.36,79.36,0,0,1,0,15.9925c-2.4141,18.2582-12.8869,30.5394-28.9352,33.9325a32.3731,32.3731,0,0,1-7.76.6164c-5.0937.0055-6.7194-.1974-10.797-1.3688a30.468,30.468,0,0,1-15.9425-11.1619l-1.4487-2.0452v41.59H2018.023V944.4444Zm44.0066,16.9972c8.6957-1.1787,14.8947-6.04,18.2235-14.2925,3.2531-8.0643,3.6634-21.41.9254-30.0969-3.0713-9.7453-9.6918-16.0118-18.7348-17.7333a33.2259,33.2259,0,0,0-10.79.1338c-11.2312,2.31-18.1028,9.9612-20.2792,22.58-.5015,2.9071-.5555,4.1121-.4327,9.684.1073,4.9411.2637,6.9207.6963,8.8541q3.4279,15.3526,16.3415,19.6424a33.4467,33.4467,0,0,0,14.05,1.2285ZM779.4078,972.3565c-8.3515-1.0556-14.0459-3.8784-18.205-9.025a29.3952,29.3952,0,0,1-5.596-12.246c-.5828-2.4445-.5953-3.0326-.6859-32.0269l-.092-29.5366h12.83l.1,27.8765c.0976,27.2945.1128,27.9306.6966,30.47,1.5859,6.895,5.3735,10.9719,11.79,12.69a38.2821,38.2821,0,0,0,12.5254,0,21.68,21.68,0,0,0,10.5356-5.896,14.3033,14.3033,0,0,0,3.6808-5.1188c2.533-5.2118,2.38-3.1637,2.4885-33.3893l.0951-26.6314h13.0962v81.6235H809.5494l-.0028-6.4332-.0027-6.433-.8724,1.3835A27.1645,27.1645,0,0,1,790.7157,971.74a56.2982,56.2982,0,0,1-11.3032.6175Zm169.8273-.1277a38.6983,38.6983,0,0,1-23.0359-10.7606c-5.4076-5.3894-9.057-12.6774-10.6565-21.2814a73.2935,73.2935,0,0,1,.0056-19.4481c2.1149-11.476,8.0549-20.9877,16.5678-26.5294A36.5372,36.5372,0,0,1,945.5,888.7764c3.3083-.7073,12.4382-.7039,16.0128.0056,12.9642,2.574,22.1409,10.5114,26.2349,22.6921a57.4382,57.4382,0,0,1,2.6481,18.2365l.0026,3.2511H928.3556l.173,2.6128a35.3158,35.3158,0,0,0,4.2839,14.9771,23.444,23.444,0,0,0,8.3258,8.0458c4.6275,2.35,7.7511,3.01,14.0941,2.9749a30.7008,30.7008,0,0,0,7.47-.6111,19.2487,19.2487,0,0,0,9.2509-4.6152,14.0444,14.0444,0,0,0,4.0927-6.63l.6237-1.9513,6.4455-.0749c7.4831-.086,6.8613-.4583,5.7372,3.4328-3.1745,10.9881-12.21,18.3618-25.2472,20.605a67.2213,67.2213,0,0,1-14.3732.5Zm27.768-49.9881a67.8864,67.8864,0,0,0-1.3069-7.39c-2.2754-8.1365-7.1632-13.1511-14.7392-15.1214a38.0691,38.0691,0,0,0-11.7519-.5359,21.3769,21.3769,0,0,0-11.76,5.6466,24.8077,24.8077,0,0,0-5.4478,7.2326,35.8673,35.8673,0,0,0-2.8924,8.8474l-.1813,1.5284h24.04c13.2223,0,24.04-.0935,24.0388-.2075ZM1270.051,972.243a44.6336,44.6336,0,0,1-13.0249-3.6144,37.0028,37.0028,0,0,1-18.5984-20.31,45.4894,45.4894,0,0,1-2.9-15.7892c-.4921-14.3657,3.4087-25.481,11.8958-33.899,7.1114-7.0539,15.8519-10.4917,26.6744-10.4917a38.2448,38.2448,0,0,1,17.3183,3.7227c9.9206,4.7879,16.1822,13.3963,18.5346,25.48a76.7379,76.7379,0,0,1,1.0741,13.2688l-.0865,2.2135-30.9516.07-30.9517.07.1816,2.8349a36.3885,36.3885,0,0,0,4.2942,14.8709,25.3674,25.3674,0,0,0,8.3082,7.94,31.2867,31.2867,0,0,0,18.2878,2.84,24.5351,24.5351,0,0,0,8.523-2.3468,12.0125,12.0125,0,0,0,4.3647-3.13,15.4841,15.4841,0,0,0,3.9167-6.8944l.3462-1.4526h6.4924c7.5172,0,6.9036-.3546,5.8134,3.3585-3.2909,11.212-12.1588,18.4917-25.2677,20.7431a67.6039,67.6039,0,0,1-14.2424.5146Zm27.4432-50.0023a38.3986,38.3986,0,0,0-.89-6.433c-1.5711-6.6226-5.3313-11.818-10.3664-14.3225a23.2169,23.2169,0,0,0-10.5452-2.4826c-5.58-.22-9.635.62-13.56,2.8068-6.31,3.5161-10.8237,10.6155-12.5505,19.74l-.1691.8992h23.9784c13.188,0,24.0344-.0934,24.1033-.2075Zm298.257,50.1239c-10.2152-1.2045-17.7962-4.6788-24.3163-11.1443-7.62-7.5562-11.469-16.8959-11.874-28.8112a46.1651,46.1651,0,0,1,2.2822-17.6107,38.1342,38.1342,0,0,1,23.9476-24.4123c4.8673-1.7026,7.4816-2.0887,14.1469-2.0887s9.2794.3861,14.1468,2.0887c13.525,4.7312,22.9888,16.0806,25.49,30.5686,2.2015,12.7532-.09,25.2134-6.3527,34.5414a38.7067,38.7067,0,0,1-25.6752,16.3439,72.8611,72.8611,0,0,1-11.7949.5248Zm8.2827-10.9223a29.7581,29.7581,0,0,0,9.3-3.1054,29.46,29.46,0,0,0,8.9141-8.8833c3.0573-5.3727,4.1945-9.9646,4.3919-17.7363.1567-6.1639-.1689-9.1917-1.4483-13.5562a26.464,26.464,0,0,0-7.7627-12.7749,23.9152,23.9152,0,0,0-9.8334-5.523c-2.3049-.6968-2.8776-.7558-7.5184-.7747-4.4183-.0221-5.3074.0563-7.3774.617q-13.14,3.56-17.704,17.2089c-1.4614,4.3814-1.9249,7.6124-1.9249,13.4195,0,7.5353,1.2662,13.3278,4.0214,18.4C1582.19,958.1176,1592.5411,963,1604.0339,961.4423Zm171.0336,10.8059a38.1652,38.1652,0,0,1-23.8385-11.2216c-5.1463-5.3367-8.2947-11.4853-10.12-19.7635-.5855-2.6551-.64-3.5842-.6354-10.7909,0-8.8132.2557-10.6628,2.25-16.6014,3.778-11.2551,12.0314-19.8764,22.599-23.6056,4.4313-1.5639,7.3152-1.9882,13.513-1.9882,6.1257,0,7.99.2511,12.664,1.7046A32.5251,32.5251,0,0,1,1811.2,906.64a50.6805,50.6805,0,0,1,3.6624,11.5386,59.7135,59.7135,0,0,1,.7388,9.0424l.1481,5.7414h-31.0163c-30.6238,0-31.0165.0056-31.0165.5427a54.7458,54.7458,0,0,0,1.4149,9.3851c1.9155,7.56,6.1174,13.13,12.1356,16.0876,7.202,3.5395,18.793,3.649,25.993.2454a15.2706,15.2706,0,0,0,8.4574-10.42l.3047-1.176h13.106l-.1731.7609c-1.4219,6.3107-3.721,10.6383-7.7606,14.6083a27.1688,27.1688,0,0,1-7.7075,5.4528c-6.3479,3.1808-16.0146,4.6848-24.4206,3.7993Zm27.2116-50.5938a43.7232,43.7232,0,0,0-1.4351-7.6453c-1.639-5.5219-5.4231-10.309-9.9172-12.5458-3.8794-1.9309-6.1319-2.387-11.8123-2.3914-4.2489,0-5.1669.0776-7.0569.62a23.0011,23.0011,0,0,0-11.5328,7.4847,34.1978,34.1978,0,0,0-6.1159,13.969l-.1978,1.3022h48.0672Zm340.0733,50.5938c-18.5077-1.9495-31.6917-14.82-34.32-33.5038a80.33,80.33,0,0,1,0-16.5374,42.3486,42.3486,0,0,1,4.24-13.7317,35.9,35.9,0,0,1,24.629-19.4167,51.6559,51.6559,0,0,1,15.4893-.5453c13.1588,2.0111,22.5408,9.1676,27.2232,20.7649,2.2448,5.56,3.0681,10.0512,3.2634,17.8044l.1481,5.88h-62.0975l.19,2.1444c1.4925,16.8916,9.7389,25.7974,24.5759,26.54,12.406.6209,20.8193-3.8384,23.19-12.2919l.4846-1.7282h6.5131c3.5822,0,6.5127.0727,6.5127.1616s-.2512,1.138-.5589,2.3318a27.6469,27.6469,0,0,1-14.2329,17.9329c-6.5386,3.4637-16.4975,5.1178-25.2579,4.195Zm27.2113-50.5938a42.9623,42.9623,0,0,0-1.4248-7.6453,33.8827,33.8827,0,0,0-1.7372-4.2886,20.5211,20.5211,0,0,0-8.3715-8.3864c-3.8043-1.8364-5.7523-2.2166-11.4916-2.2431-4.4293-.0221-5.2806.0508-7.1966.6013-7.53,2.1638-12.9166,7.3751-16.0022,15.4815a41.5241,41.5241,0,0,0-1.7738,6.9285c0,.2741,4.977.3459,23.9956.3459h24.0019Zm50.2931,50.5808c-7.3286-.8243-13.6512-3.2937-18.1173-7.0763-4.5526-3.8561-7.7566-10.331-8.4055-16.988l-.2144-2.2041h12.7014l.1769,1.0376c1.3289,7.86,4.9419,12.0327,12.0921,13.9651,1.7862.4827,2.9659.5784,7.2943.5913,4.4141.0166,5.5167-.0721,7.6-.5891,6.4661-1.604,9.5522-4.8871,10.1311-10.778a10.7344,10.7344,0,0,0-3.157-9.2617c-2.7582-2.5575-7.0255-4.1208-16.11-5.9008-10.9058-2.1372-16.4786-4.0532-20.9649-7.2079-4.4491-3.1288-6.6759-7.1772-7.3691-13.3992-.7236-6.4922.6946-11.7288,4.4433-16.4052,2.867-3.5766,8.2127-6.98,13.2853-8.4585a40.661,40.661,0,0,1,22.8016.4236,23.8519,23.8519,0,0,1,9.2057,5.2892c4.0285,3.753,6.3387,8.4665,7.5893,15.4847l.1609.8992h-12.6919l-.346-1.4526a17.2919,17.2919,0,0,0-3.736-7.0071,14.35,14.35,0,0,0-7.5493-3.8328,33.1907,33.1907,0,0,0-10.6317.0056c-4.4455.9781-7.9963,3.4605-9.6116,6.72-.6991,1.4108-.77,1.8347-.77,4.5978,0,3.6318.5858,5.2661,2.5212,7.0347,2.6771,2.4463,6.4732,3.78,16.1778,5.6859,14.8379,2.9131,19.8656,4.9075,24.348,9.6583a18.2475,18.2475,0,0,1,4.1191,7.5034,39.504,39.504,0,0,1,.2929,12.4511c-1.9246,10.1364-9.4279,16.739-21.3616,18.7977a70.9548,70.9548,0,0,1-13.898.4153Zm-1567.41-8.353c1.3832-3.9946,10.0774-29.0524,19.32-55.6838l16.8055-48.4208,9.0661-.0713,9.0658-.0714,14.2337,41.7044c7.8286,22.9374,16.3914,48.0272,19.0286,55.7552l4.7949,14.0509h-13.57l-3.11-9.0617c-1.71-4.9839-4.1917-12.2054-5.5139-16.048l-2.404-6.9865H673.6767l-5.3931,16.0479-5.3929,16.0481h-12.959l2.5149-7.263Zm63.8865-35.9478c0-.4048-19.0083-56.4659-19.233-56.7238-.1938-.2222-19.5279,56.5366-19.362,56.84.0622.1143,8.7715.2075,19.3541.2075,14.5163,0,19.2408-.0793,19.2408-.3241Zm133.47,2.6063c-8.1771-22.332-14.8648-40.6993-14.8616-40.816a59.0259,59.0259,0,0,1,7.05-.1386l7.044.074,11.7826,33.0644c6.48,18.1854,11.9261,33.4775,12.1015,33.9823s.3877.85.4713.7668,5.5032-15.375,12.0431-33.9821L897.3243,889.66l6.8-.0741c5.3945-.0592,6.7746,0,6.6782.2767-.0666.1926-6.706,18.5575-14.7539,40.81l-14.6324,40.4592-8.3728.0056-8.3728.0055L849.803,930.54Zm156.7853-.2074V889.5216h12.8289l.074,7.2169.0741,7.2168,1.6358-2.5226a27.35,27.35,0,0,1,15.425-11.8821,44.6809,44.6809,0,0,1,8.6857-1.4106h1.1862v12.0926l-2.4421.1844c-5.6016.4228-10.792,1.7637-14.3035,3.6947a22.083,22.083,0,0,0-3.94,3.0962c-3.6053,3.56-5.4781,8.2186-6.092,15.158-.1688,1.9195-.2884,12.6464-.2927,26.0231l-.0026,22.7578h-12.8383V930.335Zm145.1279,0V889.5216h12.8274l.0741,6.2947.074,6.2947,1.3573-2.0628c4.0524-6.16,11.3342-10.4228,19.8539-11.6236a50.833,50.833,0,0,1,5.4422-.28c14.1922-.0165,23.5157,6.5874,27.051,19.1636,1.5435,5.49,1.522,5.0205,1.625,35.5453l.0948,28.2915h-13.1218l-.0948-28.43c-.1072-32.0394.0412-29.9893-2.3066-34.819-2.4631-5.0925-6.6247-7.63-13.7953-8.4126-7.8361-.8547-15.3195,1.58-20.1247,6.5486a20.9185,20.9185,0,0,0-5.8261,13.0554c-.1816,1.78-.2966,12.1815-.2966,27.4614v24.596h-12.8382V930.3332Zm231.0878-14.9412V859.6392h19.65c16.3418,0,20.23.074,23.0951.44,14.853,1.8991,24.9018,8.7265,28.5982,19.43a38.5651,38.5651,0,0,1,1.48,16.5236c-1.7882,12.7457-10.0821,21.1974-24.4287,24.893-1.5007.3864-2.776.75-2.8336.8071s7.6049,11.1674,17.0281,24.6891l17.1337,24.5846-7.5571.0763c-7.0944.0718-7.5823.0455-7.9754-.44-.2305-.2844-7.8241-11.2443-16.8754-24.3559l-16.4567-23.8393H1396.48v48.6974H1382.804v-55.753Zm41.7243-4.1425c9.275-1.4955,14.7163-5.8708,16.94-13.6212.8385-2.921.9085-9.8882.1318-13.1666-1.5694-6.6351-6.0734-11.01-13.172-12.7951-4.1562-1.0453-7.2411-1.2366-19.9376-1.2366h-12.0121v41.2267h12.7686c9.8749,0,13.3377-.0926,15.28-.406Zm51.4926-.4229V850.5083h12.8353l.07,25.8014.07,25.8013,1.3194-2.0046c4.0767-6.1953,11.3752-10.4814,19.8919-11.6818a50.5025,50.5025,0,0,1,11.4587.1224q20.033,3.2211,22.4457,26.43c.16,1.5278.2761,13.8386.28,29.3982v26.77h-13.0974l-.09-28.43c-.0905-28.3792-.0905-28.4338-.712-30.7474-1.81-6.7508-5.8587-10.6715-12.4744-12.0822a36.0937,36.0937,0,0,0-11.4752-.0317c-7.609,1.6741-13.2206,6.1814-15.853,12.7335-1.7092,4.2542-1.6482,3.1436-1.7627,32.0665l-.1028,26.493h-12.8073V910.8286Zm180.2932,19.5066V889.5216h13.1171v12.5848l1.1764-1.7847c5.1743-7.8508,14.2044-12.1906,25.3373-12.1768,14.5276.0221,23.5574,6.4158,27.2005,19.2715,1.5176,5.354,1.5459,6.0132,1.5459,36.026v27.7027h-12.8383v-25.98c0-26.8152-.1073-29.9831-1.1413-33.7728-1.1273-4.1311-3.667-7.7159-6.7245-9.4923-3.403-1.977-9.4344-3.0034-14.2547-2.4259a23.06,23.06,0,0,0-8.44,2.3551,20.399,20.399,0,0,0-11.1011,13.3551c-.6077,2.13-.6123,2.3156-.6951,29.0521l-.0823,26.908h-13.0986V930.333Zm219.24,40.1944c.1073-.3453,8.7817-25.3837,19.2776-55.6411s19.0834-55.0678,19.0834-55.1343,4.096-.0878,9.1024-.0477l9.1026.0732,18.9438,55.4763c10.4186,30.512,18.9446,55.572,18.9461,55.6887a53.9575,53.9575,0,0,1-6.7474.1385l-6.75-.074-5.4605-15.9761-5.46-15.9761-23.281.0667-23.2808.0666-5.3494,15.91-5.3491,15.91-6.4863.0749-6.4858.0745.1939-.6276Zm66.2207-42.6419c-.2432-.9968-19.315-56.8883-19.3887-56.8154-.1319.1307-19.3558,56.7031-19.3558,56.96,0,.125,8.7379.2278,19.4175.2278,16.1284,0,19.4019-.0631,19.327-.3721Zm42.192-17.0591V850.5083h13.1175V971.1451h-13.1175ZM1326.7064,928.26v-6.0894h33.7812l-.074,6.0181-.0741,6.018-16.8152.0714-16.8156.0713v-6.0892Zm504.7838,5.9a52.9981,52.9981,0,0,1-.1857-6.0872v-5.9027h33.77v12.1744h-16.699C1839.1908,934.3453,1831.5928,934.2623,1831.49,934.1608ZM1585.493,864.2165l8.4438-11.1937,6.0074-.0165,6.0076-.0166,8.2264,10.9733c4.5241,6.0353,8.2678,11.078,8.3189,11.2059a23.1841,23.1841,0,0,1-4.6931.2329h-4.7862l-5.9123-5.1659c-3.2517-2.8411-6.2358-5.4587-6.6317-5.8164l-.7194-.6506-6.6477,5.8165-6.6482,5.8166H1577.05l8.4434-11.1937Zm-304.8363-36.6828c-28.6357-2.2019-45.4912-15.3393-49.0664-38.2428l-.2476-1.5909h31.99l.2966,1.1758a18.8387,18.8387,0,0,0,12.7788,13.7468c7.8061,2.5955,19.2108,2.3711,26.791-.5269a23.0164,23.0164,0,0,0,13.5778-14.44c1.3713-4.0508,1.5826-6.5779,1.4969-17.9l-.0781-10.3353-1.66,2.45a45.6264,45.6264,0,0,1-4.8838,5.6446c-9.6759,9.5881-22.33,13.9258-36.2377,12.4215-21.2384-2.2968-37.1348-16.2127-42.7825-37.4523-1.5283-5.7485-2.02-10.0252-2.0392-17.7308,0-7.3115.2017-9.7366,1.4116-15.4947,4.4562-21.2307,19.5766-36.8235,39.5916-40.8272a74.4707,74.4707,0,0,1,16.82-.5543c13.13,1.5771,22.4824,7.4162,29.5546,18.451.26.4081.3379-1.2649.35-7.851v-8.37h32.1082l-.0823,56.3755c-.0782,52.6033-.1194,56.57-.5822,59.2808a56.95,56.95,0,0,1-4.8072,15.5251,46.06,46.06,0,0,1-13.1546,15.2721c-8.02,5.6445-17.9755,9.115-30.365,10.5852a167.08,167.08,0,0,1-20.7921.3885Zm17.92-72.2965c14.2334-3.69,22.0006-16.9334,20.6112-35.1426-.51-6.6791-1.8429-11.4561-4.4989-16.12a27.8431,27.8431,0,0,0-8.7126-8.6569c-10.2951-5.7417-24.8041-4.5134-32.9677,2.7913-6.8242,6.1058-10.0055,15.4247-9.5683,28.027.23,6.7075,1.2377,11.0445,3.6881,15.91a25.2548,25.2548,0,0,0,17.7147,13.5932A36.8629,36.8629,0,0,0,1298.5765,755.2372ZM808.1542,787.3916c-15.8582-1.7913-26.5327-9.5156-30.543-22.1007a40.9459,40.9459,0,0,1-1.54-15.364c1.48-15.7647,11.7992-25.84,31.3138-30.5732,8.6039-2.0868,15.37-2.7433,30.4645-2.9557l11.6935-.1644-.1782-5.1477c-.1833-5.2821-.5507-7.7926-1.5622-10.6594-1.6563-4.6944-5-7.6481-10.2559-9.061a37.6536,37.6536,0,0,0-13.847-.0055,16.41,16.41,0,0,0-12.36,12.7809c-.2556,1.1415-.5085,2.231-.561,2.4211-.0746.2714-3.3753.3459-15.3094.3459H780.2555l.16-1.3143c1.1572-9.5152,3.9265-16.2947,9.1689-22.4465,6.4984-7.6259,17.0462-12.75,30.5708-14.8525a128.8692,128.8692,0,0,1,22.1055-.2983c20.7847,2.3893,33.0832,11.7253,37.3181,28.3285,1.5765,6.181,1.5214,4.543,1.6257,48.42l.0961,40.4659H849.7391l-.0056-6.71-.0056-6.71-.873,1.1066a54.31,54.31,0,0,1-8.7369,8.1208,41.9166,41.9166,0,0,1-18.8975,6.387,82.5946,82.5946,0,0,1-13.0585-.0165Zm19.7567-22.1211a29.6978,29.6978,0,0,0,9.5042-2.4883c4.7124-2.1846,7.8906-5.0845,9.8383-8.9769,1.8312-3.66,1.9814-4.4939,2.1307-11.8284l.1337-6.5715h-9.19c-5.0548,0-10.5625.1351-12.2394.3007-11.1262,1.0976-17.3718,4.3819-19.7263,10.3733a17.5643,17.5643,0,0,0-.7537,7.7146c1.1539,8.5148,8.6339,12.7431,20.3031,11.4765Zm320.5956,22.138c-21.5615-2.1879-38.0251-12.6418-46.6025-29.5912a57.6912,57.6912,0,0,1-5.4912-17.0164,117.0261,117.0261,0,0,1-.529-20.9865c3.0251-28.1611,22.5449-48.1272,50.6137-51.77a92.9045,92.9045,0,0,1,17.6936-.0026c26.2072,3.3842,42.8756,19.6659,46.8257,45.7395a128.6429,128.6429,0,0,1,.9823,16.2979v4.7729h-83.7278v1.356a46.2624,46.2624,0,0,0,1.972,10.3635c3.86,11.4236,12.629,17.8367,25.1037,18.3588,6.3594.2663,11.5074-.6263,15.9046-2.7572a14.9007,14.9007,0,0,0,4.7446-3.5135c2.8418-2.8321,3.66-4.3079,5.1809-9.3505.0823-.2714,3.3882-.3459,15.3166-.3459h15.212l-.1561.8992c-2.6643,15.4177-11.6832,26.6933-26.1626,32.7074a68.3723,68.3723,0,0,1-17.3093,4.4528,145.4019,145.4019,0,0,1-19.5729.3856Zm31.8376-74.3412a31.6308,31.6308,0,0,0-3.4656-12.11,16.7665,16.7665,0,0,0-3.663-4.87c-4.64-4.637-9.7793-6.4921-17.8713-6.4521-7.7809.0364-13.127,2.0823-18.0245,6.891a30.2265,30.2265,0,0,0-8.0606,15.4987c-.2636,1.2173-.5369,2.4314-.6107,2.6976-.1274.4587,1.239.4843,25.8783.4843h26.0127Zm312.0034,74.351c-11.176-1.2317-20.4975-4.3645-28.6068-9.6145-13.81-8.9408-22.3872-22.755-24.7259-39.8242a107.9809,107.9809,0,0,1-.1567-18.8988,61.9318,61.9318,0,0,1,7.67-23.38c8.8864-14.7872,22.8932-24.0272,41.3545-27.2806a101.0181,101.0181,0,0,1,19.4534-.5465c16.8164,1.74,31.0737,8.97,40.6886,20.633,6.5249,7.9149,10.72,17.9486,12.3215,29.4676a108.8255,108.8255,0,0,1-.144,19.7684c-3.8381,26.7471-22.4734,45.0614-50.132,49.2695a117.9481,117.9481,0,0,1-17.7225.4065Zm13.3611-24.5152c11.9314-2.24,19.2788-10.8817,21.8511-25.6991a90.349,90.349,0,0,0,0-19.0915c-1.5311-8.8984-4.4627-14.98-9.4991-19.7062-4.9307-4.6275-11.8988-6.9876-19.568-6.628-17.4958.82-27.2125,13.5262-27.2112,35.582,0,14.8991,4.2642,25.6664,12.457,31.4623,5.7245,4.05,13.9776,5.5824,21.9751,4.0805ZM657.4447,706.4913V627.7731h36.0028v129.491h64.47V785.21H657.4447Zm299.4654,0V627.7731l29.6535.0026c16.9676.0025,31.6831.1243,34.398.2865,19.9965,1.1966,34.5121,6.865,43.7042,17.0668,5.4146,6.0091,8.8374,13.9828,10.0063,23.31a90.0879,90.0879,0,0,1-.1318,15.7769c-2.2934,16-12.3062,27.4068-29.1573,33.217-1.4582.5028-2.6947.9458-2.7474.9843-.0537.0364,9.2725,15.007,20.7225,33.2634s20.8186,33.269,20.8186,33.3612-8.5717.1642-19.0481.16l-19.048-.0056-18.8675-30.221-18.8677-30.221-7.8553-.0735-7.8553-.0736v60.6036H956.911V706.4928Zm65.447-7.0311c10.8869-2.4037,16.3945-8.3743,17.4753-18.9447a27.6972,27.6972,0,0,0,0-6.5308c-.58-5.8753-2.1751-9.5793-5.452-12.6578a18.3636,18.3636,0,0,0-7.4555-4.3335c-4.4516-1.481-6.2695-1.6343-20.8386-1.7568l-13.4662-.1133v45.1843l13.4662-.1156c12.661-.1089,13.633-.1519,16.2573-.7318Zm359.61,28.1978V670.1065h32.0956V785.2094h-32.0955Zm203.4579,0V670.1065H1617.52v18.1144l1.1132-1.8889c5.4228-9.2,14.5123-15.3467,26.5171-17.932,2.6214-.5646,3.68-.631,10.047-.631,7.7224,0,9.6573.254,14.7036,1.929,13.8391,4.5942,22.2338,16.5907,24.0732,34.4016.1938,1.8737.2966,16.4062.2966,41.9878V785.21h-32.0957V749.6441c0-23.4019-.1027-36.4727-.2965-38.2182-1.2493-11.1072-6.8525-16.881-17.2606-17.7864a27.0488,27.0488,0,0,0-14.6853,2.4748c-6.02,2.8717-9.9508,8.0577-11.7452,15.4958-.4655,1.93-.5072,4.5845-.5912,37.8373l-.09,35.7622h-32.0793V727.6582Zm-443.6278-73.53c.1028-.2662,2.9675-8.1728,6.3652-17.57l6.1767-17.0856h16.8531c9.312,0,16.8111.1066,16.76.238-.0495.1311-5.2423,8.037-11.5357,17.5687l-11.4427,17.33H1153.291c-11.0112,0-11.6712-.0278-11.4941-.4833Zm253.3307.1975a18.0417,18.0417,0,0,1-12.5419-7.5625,14.2983,14.2983,0,0,1-2.7718-8.7523c-.2349-5.6048,1.143-9.2494,4.9317-13.0306,3.7755-3.7679,8.2505-5.4033,14.1064-5.1546,6.9643.2955,12.6817,3.77,15.486,9.41a16.8622,16.8622,0,0,1-3.0615,19.8713,18.0765,18.0765,0,0,1-12.1456,5.3086,24.462,24.462,0,0,1-4.0033-.09Z" transform="translate(1.1306 0.0372)" style="fill:#fff"/></svg>