<svg xmlns="http://www.w3.org/2000/svg" viewBox="0 0 2400 1600"><rect width="2400" height="1600" style="fill:#fff"/><path d="M595.86,1184.1394l-7.3037-.0555-3.0766,16.532,7.3175.0693c6.084.0416,10.8377-4.5452,10.8792-9.7279.0416-4.31-3.6726-6.7764-7.8164-6.8179m8.5371,45.6327L592.326,1206.935l-8.0382-.0832-4.1716,22.6986-7.8025-.0554,9.5488-51.73,16.2426.1386c7.2344.0693,13.4432,5.155,13.3739,13.1092-.0693,7.5662-5.0724,12.8736-11.7524,14.9245l13.1937,23.9042Z" transform="translate(1.1306 0.0372)" style="fill:#010101"/><path d="M639.5489,1187.1257l-2.8134-3.3535c4.56-1.2611,10.5882-3.6446,15.0092-7.1782l.2772,5.6954a40.3174,40.3174,0,0,1-12.473,4.8363m1.1918,11.7788c-5.0169-.0415-12.6948,4.4483-14.2331,12.6381,10.2279.0831,17.9889-4.7254,18.0166-8.9381.0277-2.0371-.7761-3.6722-3.7835-3.7m-14.6073,18.389c.4573,4.1433,3.437,7.095,8.87,7.15a16.8467,16.8467,0,0,0,10.8238-3.88l-1.9264,7.94a18.0216,18.0216,0,0,1-9.521,2.425c-9.341-.0831-16.0348-5.6677-15.9378-15.8114.1109-13.4,12.4591-22.7956,23.0058-22.6986,6.8325.0555,10.5328,3.8247,10.4774,9.1044-.0832,10.1576-11.503,15.9084-25.7915,15.77" transform="translate(1.1306 0.0372)" style="fill:#010101"/><path d="M673.991,1198.8006c-4.5457-.0554-8.2321,3.4921-8.2737,7.4-.0139,2.924,2.3837,5.21,5.9593,5.2382,4.0745.0415,8.2461-3.3258,8.2738-7.15.0277-2.9239-2.3006-5.46-5.9594-5.4876m-1.8155,31.4843-5.6821-1.6629c-4.9477-.0555-9.2855,3.4782-9.3132,7.7879-.0416,3.2565,3.1044,6.6932,8.1352,6.7347,7.2343.0693,11.17-4.13,11.1841-7.5385.0277-2.4389-1.4136-4.4759-4.324-5.3212m13.7481-30.9716a8.7243,8.7243,0,0,1,.9424,3.9772c-.0694,7.871-6.4583,14.3148-16.1318,14.2316-3.0767-.0138-5.28.4434-5.28,2.2311a1.1274,1.1274,0,0,0,.79,1.0531l9.4657,3.5891c4.7813,1.8292,8.3153,5.349,8.2737,10.3932-.0694,8.356-8.08,14.37-19.2916,14.287-8.6064-.0831-14.2331-5.6538-14.1915-12.153.0693-6.4853,4.4071-11.0028,10.4357-12.6657l-3.5478-3.603a10.8548,10.8548,0,0,1,5.3357-5.8756,9.8168,9.8168,0,0,1-3.8251-8.0651c.0693-8.6193,7.11-14.0792,16.0348-13.996a17.6528,17.6528,0,0,1,4.6289.5958,18.86,18.86,0,0,0,4.6288.54,9.2938,9.2938,0,0,0,4.9615-1.261l1.3305,5.6122a9.8884,9.8884,0,0,1-4.56,1.1086" transform="translate(1.1306 0.0372)" style="fill:#010101"/><path d="M705.2221,1186.8139c-1.6214-.0139-3.88-2.7161-3.8666-4.185.0277-1.7045,3.95-4.8363,5.4881-4.8224,1.6215.0138,3.88,2.7992,3.8667,4.2542-.0141,1.6352-3.95,4.767-5.4882,4.7532m-4.4487,43.8035-7.47-.0554,6.8324-36.7362,7.47.0692Z" transform="translate(1.1306 0.0372)" style="fill:#010101"/><path d="M734.8539,1199.7374c-7.2344-.0555-14.441,7.4276-14.51,16.1994-.0694,6.25,3.0767,9.2845,8.1906,9.3261,7.1513.0693,14.4411-7.3445,14.5242-16.1994.0415-6.1666-3.1737-9.2845-8.2045-9.3261m-7.1928,32.0108c-8.7727-.0693-14.9676-5.6539-14.8845-15.1462.1109-13.0815,10.7546-23.4608,22.8673-23.3638,8.7727.0832,14.9676,5.7509,14.8845,15.2433-.1109,13.0815-10.7684,23.3776-22.8673,23.2667" transform="translate(1.1306 0.0372)" style="fill:#010101"/><path d="M790.7053,1205.588l-4.7813,25.775-7.3868-.0554,4.7813-25.9413a6.2735,6.2735,0,0,0,.0971-1.1363c.014-2.3558-1.3582-4.49-4.2824-4.5037-5.5991-.0554-12.5285,4.2681-15.1756,18.5413l-2.3975,12.8875-7.3869-.0693,6.8325-36.7223,6.0841.0554-.8731,6.901.1662.0832c3.2845-4.6977,7.04-7.83,14.1915-7.76,5.1971.0554,10.3665,4.0741,10.311,10.0882a15.5106,15.5106,0,0,1-.18,1.857" transform="translate(1.1306 0.0372)" style="fill:#010101"/><path d="M560.1178,1236.5762c-6.5-3.2565-18.0582-4.8779-27.995-4.8779-38.3615,0-63.7233,27.1885-63.7233,58.839,0,26.5787,22.3267,41.6,44.8474,41.6a74.5043,74.5043,0,0,0,33.4832-8.5362l-4.2547,19.29c-8.3292,3.8524-17.06,6.2775-33.691,6.2775-28.0089,0-60.0646-19.8855-60.0646-58.4233,0-41.7942,32.8734-76.0776,84.2068-76.0776,12.1681,0,24.1423,2.0231,30.85,5.0718Z" transform="translate(1.1306 0.0372)" style="fill:#010101"/><path d="M620.57,1268.8309c-12.5839,0-31.6537,11.3631-35.3125,31.8445,25.57,0,44.8475-12.1669,44.8475-22.7124,0-5.0719-2.0373-9.1321-9.535-9.1321m-36.1163,46.2563c1.22,10.3516,8.7173,17.6545,22.3129,17.6545a42.1659,42.1659,0,0,0,26.9971-9.95l-4.67,19.8855c-6.0979,4.06-15.2171,6.2913-23.74,6.2913-23.3384,0-40.177-13.7882-40.177-39.1613,0-33.48,30.6421-57.2037,57.0156-57.2037,17.0465,0,26.3736,9.3261,26.3736,22.5184,0,25.3592-28.397,39.965-64.1114,39.965" transform="translate(1.1306 0.0372)" style="fill:#010101"/><path d="M745.75,1282.2269l-11.3643,64.5206h-18.46l11.3643-64.9363a13.9247,13.9247,0,0,0,.1941-2.8269c0-5.8895-3.4509-11.1692-10.7545-11.1692-13.9975,0-31.2381,10.9613-37.53,46.6721l-5.6822,32.26h-18.46l16.2288-91.9168H686.503l-2.0373,17.2387.4158.2217c8.1074-11.7789,17.4484-19.6915,35.3125-19.6915,12.9719,0,25.9578,9.95,25.9578,24.9574a38.4538,38.4538,0,0,1-.4019,4.67" transform="translate(1.1306 0.0372)" style="fill:#010101"/><path d="M826.6956,1268.63H797.481l-8.9251,52.1457c-1.22,7.0951,3.2429,11.3493,8.9251,11.3493a11.6591,11.6591,0,0,0,8.5232-3.0348l-3.6587,16.0193c-2.6332,1.6213-6.292,2.4389-11.1564,2.4389-13.1937,0-23.9482-10.7395-20.8993-27.9921l8.9252-50.9263H761.1568l2.4392-13.8021h18.0581l3.243-18.6661,19.8876-9.5339-4.8645,28.2h29.81Z" transform="translate(1.1306 0.0372)" style="fill:#010101"/><path d="M894.4574,1269.0332c-15.619,0-35.9084,18.2642-41.5906,51.12l-4.6705,26.5926H829.93l16.2426-91.9168H861.39l-3.2568,25.1514.4157.2078c5.6822-17.2387,19.4718-26.5648,36.31-26.5648l3.6588,15.4095Z" transform="translate(1.1306 0.0372)" style="fill:#010101"/><path d="M954.7147,1268.8309c-12.5839,0-31.6538,11.3631-35.3126,31.8445,25.57,0,44.8475-12.1669,44.8475-22.7124,0-5.0719-2.0234-9.1321-9.5349-9.1321m-36.1164,46.2563c1.22,10.3516,8.7311,17.6545,22.3129,17.6545a42.1664,42.1664,0,0,0,26.9972-9.95l-4.6705,19.8855c-6.0841,4.06-15.2171,6.2913-23.74,6.2913-23.3385,0-40.1771-13.7882-40.1771-39.1613,0-33.48,30.6421-57.2038,57.0156-57.2038,17.0465,0,26.3736,9.3261,26.3736,22.5185,0,25.3592-28.397,39.965-64.1114,39.965" transform="translate(1.1306 0.0372)" style="fill:#010101"/><path d="M1046.8432,1297.44H996.12l2.6332-14.8137H1049.49Z" transform="translate(1.1306 0.0372)" style="fill:#010101"/><path d="M1100.62,1348.567h-6.2781l-28.4108-131.2722h19.4857l13.166,61.68c1.8432,8.9242,3.8666,19.8855,5.28,30.8329h.4157c5.2665-10.7395,10.9625-21.493,16.2289-30.8329l34.7027-61.68h19.8876L1100.62,1348.567Z" transform="translate(1.1306 0.0372)" style="fill:#010101"/><path d="M1222.3707,1269.2411c-22.7287,0-44.8475,20.6892-44.8475,48.28,0,11.1553,5.6821,16.2271,14.4133,16.2271,11.96,0,28.4107-14.5919,32.86-38.5377l4.6843-25.5671a58.0009,58.0009,0,0,0-7.11-.4018m11.9741,77.505h-15.2171l2.0234-17.2526-.402-.2079c-7.7194,14.8137-20.0815,19.6915-32.6793,19.6915-14.8013,0-29.0067-10.5594-29.0067-30.237,0-40.99,33.6771-64.7284,64.929-64.7284a164.1976,164.1976,0,0,1,26.3735,1.8292Z" transform="translate(1.1306 0.0372)" style="fill:#010101"/><path d="M1283.228,1323.82a19.48,19.48,0,0,0-.4019,3.2427c0,6.707,4.2546,10.3377,9.133,11.5571l-11.7662,11.7651c-7.3175-1.4135-15.6329-8.5085-15.6329-21.9087a41.9306,41.9306,0,0,1,.61-6.9011L1286.263,1202.29h18.474l-21.5091,121.53Z" transform="translate(1.1306 0.0372)" style="fill:#010101"/><path d="M1392.6539,1269.2411c-20.8993,0-42.4083,19.47-42.4083,45.4387,0,12.3886,6.6938,19.0679,16.8386,19.0679,12.376,0,28.6048-14.5919,33.0673-38.5377l4.67-25.1652a65.7706,65.7706,0,0,0-12.1681-.8037m17.0326,77.505h-15.2032l2.0233-17.2526-.4019-.2079c-7.7055,14.8137-20.2894,19.6915-34.9106,19.6915-14.8013,0-29.4086-11.765-29.4086-34.0894,0-36.93,32.4576-60.876,62.49-60.876a103.3856,103.3856,0,0,1,13.1937.6236l9.327-52.3537h18.46Z" transform="translate(1.1306 0.0372)" style="fill:#010101"/><path d="M1493.6952,1268.8309c-12.584,0-31.6538,11.3631-35.3126,31.8445,25.57,0,44.8475-12.1669,44.8475-22.7124,0-5.0719-2.0373-9.1321-9.535-9.1321m-36.13,46.2563c1.22,10.3516,8.7312,17.6545,22.3267,17.6545a42.1576,42.1576,0,0,0,26.9834-9.95l-4.67,19.8855c-6.0841,4.06-15.2171,6.2913-23.74,6.2913-23.3245,0-40.1632-13.7882-40.1632-39.1613,0-33.48,30.6421-57.2038,57.0156-57.2038,17.0327,0,26.3736,9.3261,26.3736,22.5185,0,25.3592-28.4108,39.965-64.1253,39.965" transform="translate(1.1306 0.0372)" style="fill:#010101"/><path d="M1626.04,1346.7433h-76.6953L1572.059,1217.3h19.68L1571.865,1330.918h57.0017l-2.8273,15.8253Z" transform="translate(1.1306 0.0372)" style="fill:#010101"/><path d="M1696.2309,1268.8309c-18.0582,0-35.9084,18.86-35.9084,40.7826,0,15.6174,7.9134,23.1282,20.6913,23.1282,17.8642,0,35.9084-18.6661,35.9084-40.7826,0-15.4234-8.1074-23.1282-20.6913-23.1282m-17.2405,80.1379c-21.911,0-37.5439-13.7882-37.5439-37.54,0-32.6622,26.3875-58.8251,56.6138-58.8251,21.9109,0,37.5438,13.996,37.5438,37.7339,0,32.6622-26.3874,58.6311-56.6136,58.6311" transform="translate(1.1306 0.0372)" style="fill:#010101"/><path d="M1777.9944,1237.1817c-4.0608,0-9.7429-6.6931-9.7429-10.3515,0-4.2543,9.7429-12.1669,13.5956-12.1669,4.0607,0,9.7289,6.901,9.7289,10.5456,0,4.06-9.7289,11.9728-13.5816,11.9728M1767.85,1346.7392h-18.6681l16.2288-91.903h18.6681Z" transform="translate(1.1306 0.0372)" style="fill:#010101"/><path d="M1860.7722,1269.0332c-15.6328,0-35.9084,18.2642-41.6044,51.12l-4.6567,26.5926h-18.2659l16.2288-91.9168h15.231l-3.2568,25.1514.4158.2078c5.6821-17.2387,19.4718-26.5648,36.31-26.5648l3.645,15.4095h-4.0471Z" transform="translate(1.1306 0.0372)" style="fill:#010101"/><path d="M1921.024,1268.8309c-12.57,0-31.6539,11.3631-35.3125,31.8445,25.57,0,44.8474-12.1669,44.8474-22.7124,0-5.0719-2.0373-9.1321-9.5349-9.1321m-36.13,46.2563c1.2334,10.3516,8.7311,17.6545,22.3267,17.6545a42.1659,42.1659,0,0,0,26.9971-9.95l-4.67,19.8855c-6.0979,4.06-15.2171,6.2913-23.7542,6.2913-23.3246,0-40.1632-13.7882-40.1632-39.1613,0-33.48,30.6421-57.2038,57.0157-57.2038,17.0465,0,26.3736,9.3261,26.3736,22.5185,0,25.3592-28.3969,39.965-64.1253,39.965" transform="translate(1.1306 0.0372)" style="fill:#010101"/><path d="M1365.83,821.5786c-20.4558,0-41.0085-.9562-61.09-2.8685-46.2611-4.3928-92.3-12.153-136.8292-19.65-36.1163-6.0835-71.1517-11.9313-105.7436-16.0886,49.2685,50.5106,97.0957,102.2407,133.5862,163.4215,8.7034,14.592,2.744,28.5188-7.9966,36.0573l33.6772,40.3807c58.18-68.04,123.7324-129.2489,185.5155-194.5593,2.6748-2.827,5.35-5.7648,8.0244-8.6333-16.1595,1.1918-32.513,1.94-49.1438,1.94" transform="translate(1.1306 0.0372)" style="fill:#2eaa4d"/><path d="M978.9428,696.8833c-33.4277-36.279-64.8043-74.2208-90.7067-116.7079-43.8219-71.8789-66.7445-175.7686-.18-241.2037,71.2487-70.05,207.4958-27.3686,240.0642,60.4048,12.5285,33.7708,67.0634,19.2758,54.3963-14.869-33.2615-89.6442-120.6974-139.7114-214.8827-134.6118-104.4546,5.6539-172.46,87.1221-177.7268,187.4088-5.4466,103.765,46.5244,188.4343,114.53,266.23a497.4556,497.4556,0,0,1,74.5055-6.6516" transform="translate(1.1306 0.0372)" style="fill:#2a285f"/><path d="M1062.1435,782.9716c-29.6443-3.5614-58.9559-5.9033-88.3091-5.9449,64.9429,65.4351,131.9647,128.6115,173.1811,197.7327,18.5987,31.1655,67.41,2.9239,48.7418-28.3663-36.49-61.1809-84.3454-112.9109-133.6138-163.4215" transform="translate(1.1306 0.0372)" style="fill:#2a285f"/><path d="M1415.0707,819.6386q-4.0746,4.3443-8.1214,8.6332c-84.0682,88.8543-175.1352,170.0731-245.0535,271.3022-20.7329,29.9876,28.1059,58.2292,48.6171,28.5326,82.3359-119.1607,195.6049-211.4239,289.7209-320.6072a622.9152,622.9152,0,0,1-85.1631,12.1392" transform="translate(1.1306 0.0372)" style="fill:#2a285f"/><path d="M1283.02,716.09c35.9916-2.8408,36.3658-59.227.1109-56.3723-72.5238,5.7231-129.4563-58.34-98.731-130.0665,22.3128-52.1181,88.905-88.8266,137.4389-111.8856,51.8463-24.6386,111.5643-33.84,168.4691-30.7914,80.2571,4.31,110.7606,65.5461,99.05,138.8383-9.2716,57.9937-34.3146,111.7331-66.8138,161.3845a644.0918,644.0918,0,0,0,85.4818-39.3c48.4924-101.7418,71.7061-227.2769-29.4779-292.7536-55.214-35.7246-133.7109-27.715-194.5932-16.2548-72.496,13.65-139.0327,50.7877-194.6763,98.1388-55.9484,47.6144-83.5415,112.1072-60.702,183.9029,20.4973,64.479,90.18,100.2313,154.4438,95.1595" transform="translate(1.1306 0.0372)" style="fill:#2a285f"/><path d="M1697.0569,815.1529A530.4515,530.4515,0,0,0,1545.9947,835.08c-22.7426,6.3883-28.6326,27.77-23.0059,45.2309-23.2,10.7811-46.1641,22.13-68.8234,34.27-24.6135,13.1507-21.1487,40.8935-4.9476,55.721q-13.72,5.01-27.4546,10.0328a37.3113,37.3113,0,0,0-21.8694,50.0256l-73.7433,9.95c-29.3809,3.9771-35.659,53.1712-8.5787,64.7422q6.2365,2.6816,12.4869,5.3491c14.33,6.1388,27.9535,2.7714,38.0289-4.85q151.2147-20.412,302.4017-40.81c42.8934-5.7925,26.7755-65.449-9.2855-69.62q-28.8543-3.3467-57.7363-6.0142,28.3555-10.3723,56.7107-20.7308c34.9384-12.7766,31.9588-58.0352-.2356-67.8048,15.3557-5.5014,30.7668-10.8781,46.4-15.7975,37.89-11.9313,31.46-69.1628-9.2854-69.62" transform="translate(1.1306 0.0372)" style="fill:#82cff4"/><path d="M1117.284,1043.62a120.4484,120.4484,0,0,0-32.43-14.3841c26.0825-19.7469,8.1768-59.9059-22.8533-62.7329-2.4253-.2356-4.8506-.4434-7.276-.6652q10.3736-8.3976,20.733-16.7675c22.9227-18.5275,5.0862-64.34-24.9461-60.5157q-56.5236,7.1712-113.0611,14.37c-43.614,5.5568-45.18,73.0844-3.16,70.95-12.085,15.8391-3.4509,36.4453,11.8078,47.3095-15.6606,7.5524-31.2658,15.2433-47.12,22.4353-25.3895,11.5572-21.1209,41.0875-4.213,56.4693l-68.3523,21.0357c-43.5309,13.4-25.0846,81.8563,18.71,68.3729q131.7776-40.5747,263.569-81.1357a35.7806,35.7806,0,0,0,8.5925-64.7422" transform="translate(1.1306 0.0372)" style="fill:#82cff4"/><path d="M1275.3325,716.3918c-62.0464,1.7738-127.0725-33.5351-146.7521-95.45-22.84-71.81,4.7536-136.3024,60.7021-183.9168l-20.8161-20.8833c-14.1084,5.7093-33.497,1.7045-40.3433-16.7537-32.5685-87.7872-168.83-130.4684-240.0781-60.4187-66.5506,65.4352-43.6418,169.3249.194,241.2037,25.9024,42.501,57.3206,80.429,90.7483,116.7079,3.5617-.0556,7.0819-.1941,10.699-.1941,56.7939,0,114.6965,7.871,163.84,15.5758,46.6491,7.3029,89.0851,11.4047,129.0682,12.5133l-7.2621-8.3837Z" transform="translate(1.1306 0.0372)" style="fill:#29abe3"/><path d="M1283.124,659.7188c36.2689-2.8685,35.8807,53.5316-.1109,56.3723-2.647.208-5.3218.2218-7.9827.2911.097,0,.194.0141.3049.0141l7.1789,8.2868c7.373.2218,14.7459.43,21.9387.43q14.2192,0,28.1059-.5543c2.3006-.0971,4.5319-.2772,6.8186-.388,7.04-.3464,14.0807-.7207,21.024-1.275,2.2452-.194,4.4764-.4572,6.7354-.6513,6.9711-.6374,13.9559-1.33,20.8439-2.1894,1.9125-.2356,3.8112-.5266,5.7376-.79,7.2343-.97,14.4549-2.0093,21.62-3.2427,1.4968-.25,2.98-.5543,4.4764-.8037,7.5947-1.3581,15.1478-2.827,22.6455-4.4622,1.081-.2356,2.1343-.4988,3.2153-.7344,7.955-1.7877,15.8685-3.7139,23.7265-5.834.6514-.1662,1.3027-.36,1.94-.5266q12.4523-3.3882,24.7659-7.3168c.291-.097.5682-.1941.8593-.2771q12.8472-4.1366,25.5835-8.8827c32.4853-49.6375,57.5284-103.3908,66.8-161.3567,11.7246-73.3062-18.7789-134.5564-99.05-138.8522-49.6011-2.6607-101.35,4.0048-148.1658,22.075l-38.2645,17.53c-45.776,23.1975-99.8119,57.1483-119.4777,103.0721-30.7252,71.7264,26.2072,135.79,98.731,130.0665" transform="translate(1.1306 0.0372)" style="fill:#f5d146"/><path d="M1305.958,805.9681c19.5411,1.8569,39.581,2.8269,59.87,2.8269,137.0509,0,286.0621-43.8312,379.4711-151.1714,21.01-24.14,2.1066-63.5644-22.6038-63.5644a26.5892,26.5892,0,0,0-15.8823,5.64c-134.9443,98.9979-260.4092,138.2146-402.3522,138.2146-48.6864,0-99.2993-4.6145-152.9056-13.0121-54.618-8.55-108.8757-15.41-161.8722-15.41-95.2247,0-186.3471,22.1582-268.1009,96.476-11.1148,10.1021-.9147,28.4217,10.8516,28.4217a11.7213,11.7213,0,0,0,6.6384-2.1063c77.5268-51.8271,155.3724-68.0542,234.0911-68.0542,108.7232,0,219.11,30.9438,332.7943,41.7388" transform="translate(1.1306 0.0372)" style="fill:#82cff4"/></svg>