<svg xmlns="http://www.w3.org/2000/svg" viewBox="0 0 2400 1600"><rect width="2400" height="1600" style="fill:#fff"/><path d="M2320.3885,1078.2723c0,35.4718-29.6832,64.2234-66.2971,64.2234H143.6475c-36.6139,0-66.2972-28.7516-66.2972-64.2234V521.65c0-35.4757,29.6833-64.22,66.2972-64.22H2254.0914c36.6139,0,66.2971,28.7439,66.2971,64.22Z" transform="translate(1.1306 0.0372)" style="fill:#006faa"/><path d="M158.9472,1063.5846l26.8845-79.8778h17.3032l25.9022,79.8778H212.8214l-5.66-17.6774h-26.12l-5.769,17.6774Zm26.12-31.2074h18.5038l-8.9265-28.5879Z" transform="translate(1.1306 0.0372)" style="fill:#fff"/><path d="M237.2,1048.0939V983.7068h15.2373v60.13q0,4.1456,2.2882,5.0167a12.1953,12.1953,0,0,0,4.4593.6549h27.3172v14.0756H253.7427q-16.5412,0-16.5432-15.4906" transform="translate(1.1306 0.0372)" style="fill:#fff"/><path d="M294.6639,1010.5523v-6.8761q0-11.4543,6.2056-16.2546,5.654-4.2626,15.3464-4.37h5.4923q4.1922,0,12.3021.8771a79.2383,79.2383,0,0,1,13.0037,2.292v12.0058q-12.4015-1.0992-19.7512-1.0953h-7.8934q-4.9,0-7.18,1.31-2.292,1.3157-2.2881,6.44v3.9291c0,3.0522.6159,5.0947,1.8516,6.1121,1.2317,1.0212,3.4458,1.5241,6.6382,1.5241h12.6257q12.4073,0,16.6522,9.94a27.9135,27.9135,0,0,1,2.1751,11.2341v5.3441q0,14.6292-9.6865,19.1a28.34,28.34,0,0,1-12.2982,2.3973q-19.6986,0-30.802-3.2743v-12.0058q11.9746,1.21,20.8972,1.2045,8.9224,0,10.396-.2222a12.0452,12.0452,0,0,0,2.9936-.8693c2.1751-.9434,3.2665-2.8768,3.2665-5.7846v-4.2566q0-5.6775-3.5939-6.9814a10.1129,10.1129,0,0,0-3.594-.55h-12.189q-20.57,0-20.57-21.17" transform="translate(1.1306 0.0372)" style="fill:#fff"/><path d="M353.8745,1063.5846l26.8845-79.8778h17.3032l25.9062,79.8778H407.7527l-5.66-17.6774h-26.12l-5.7691,17.6774Zm26.12-31.2074h18.5038l-8.9264-28.5879Z" transform="translate(1.1306 0.0372)" style="fill:#fff"/><path d="M432.236,993.5259a20.6405,20.6405,0,0,1,12.08-9.4956,35.2585,35.2585,0,0,1,9.5774-1.1967,97.8663,97.8663,0,0,1,27.7538,3.6017v11.9981c-1.0876-.1442-2.0855-.25-2.99-.3274q-1.3623-.1053-3.2119-.2729-1.8535-.1578-4.0812-.3275c-1.4891-.1052-2.9586-.1987-4.4087-.265q-5.116-.3333-9.1408-.3274a30.7929,30.7929,0,0,0-6.26.4872,11.7332,11.7332,0,0,0-4.3,1.9646,8.55,8.55,0,0,0-3.0482,4.4242q-2.175,6.3265-2.1751,20.1878,0,13.8573,3.2081,20.02,3.21,6.1686,12.2475,6.1667,10.2264,0,20.6789-.6549l3.4809-.2144v11.8928q-9.7938,3.0579-25.2473,3.0522h-2.5064q-14.5826-.1053-20.8427-10.4779-6.2562-10.3549-6.2563-30.8254,0-20.4645,5.4416-29.41" transform="translate(1.1306 0.0372)" style="fill:#fff"/><path d="M496.5608,986.6537a19.7207,19.7207,0,0,1,5.387-2.292,19.0932,19.0932,0,0,1,4.2449-.6549q1.5729,0,15.7246.382a205.1205,205.1205,0,0,1,21.1154,1.3722v12.6529H511.58q-4.0287,0-5.009,1.9646a10.8526,10.8526,0,0,0-.651,4.1474v12.4385l32.217,1.0915v12.6567l-32.217.9863v12.4346q0,4.1455,2.2843,5.0167a12.2328,12.2328,0,0,0,4.4632.6549h30.3654v12.5554q-5.4435.7659-26.8806,1.5242l-7.0749.3274h-2.0153q-1.14,0-2.9936-.16a17.6933,17.6933,0,0,1-4.4593-1.15,15.4771,15.4771,0,0,1-4.5724-2.6234q-4.356-3.9234-4.354-12.1072v-47.5751q0-9.9224,5.8782-13.643" transform="translate(1.1306 0.0372)" style="fill:#fff"/><path d="M583.303,993.5259a20.64,20.64,0,0,1,12.08-9.4956,35.2585,35.2585,0,0,1,9.5774-1.1967,97.8651,97.8651,0,0,1,27.7537,3.6017v11.9981c-1.0875-.1442-2.0854-.25-2.99-.3274q-1.3624-.1053-3.212-.2729-1.8535-.1578-4.0812-.3275c-1.489-.1052-2.9586-.1987-4.4086-.265q-5.1162-.3333-9.1408-.3274a30.7923,30.7923,0,0,0-6.26.4872,11.7325,11.7325,0,0,0-4.2995,1.9646,8.5491,8.5491,0,0,0-3.0482,4.4242q-2.1752,6.3265-2.1751,20.1878,0,13.8573,3.208,20.02,3.21,6.1686,12.2475,6.1667,10.2264,0,20.6789-.6549l3.4809-.2144v11.8928q-9.7937,3.0579-25.2473,3.0522H604.96q-14.5824-.1053-20.8426-10.4779-6.2564-10.3549-6.2562-30.8254,0-20.4645,5.4416-29.41" transform="translate(1.1306 0.0372)" style="fill:#fff"/><polygon points="643.204 1063.622 643.204 983.744 658.441 983.744 658.441 1018.011 685.758 1018.011 685.758 983.744 700.999 983.744 700.999 1063.622 685.758 1063.622 685.758 1031.982 658.441 1031.982 658.441 1063.622 643.204 1063.622" style="fill:#fff"/><path d="M708.3548,1063.5846l26.8845-79.8778h17.3032l25.9023,79.8778H762.2291l-5.66-17.6774h-26.12l-5.7691,17.6774Zm26.12-31.2074H752.979l-8.9263-28.5879Z" transform="translate(1.1306 0.0372)" style="fill:#fff"/><polygon points="785.672 1063.622 792.637 983.744 813.858 983.744 827.139 1038.308 840.31 983.744 861.422 983.744 868.824 1063.622 853.805 1063.622 848.582 1010.262 835.738 1063.622 818.758 1063.622 805.372 1010.262 800.691 1063.622 785.672 1063.622" style="fill:#fff"/><path d="M877.7034,1063.5885V983.7068h34.2829q11.8637,0,17.198,6.6617,4.9,5.9931,4.8959,18.0049a42.9241,42.9241,0,0,1-1.47,11.998,22.6672,22.6672,0,0,1-3.59,7.6986,13.737,13.737,0,0,1-5.3871,4.089,22.28,22.28,0,0,1-9.4682,1.9646,121.0385,121.0385,0,0,1-12.3021-.9823q-8.4841-.9823-8.9226-1.1967v31.6439Zm33.09-66.344H892.9446v23.3491h17.8489a8.1465,8.1465,0,0,0,4.245-.9823q3.7011-2.181,3.7031-11.1288-.1111-11.238-7.9481-11.238" transform="translate(1.1306 0.0372)" style="fill:#fff"/><path d="M931.5816,1063.5846l26.8845-79.8778h17.3032l25.9023,79.8778H985.4559l-5.66-17.6774h-26.12l-5.7691,17.6774Zm26.12-31.2074h18.5037l-8.9263-28.5879Z" transform="translate(1.1306 0.0372)" style="fill:#fff"/><path d="M1007.1132,1047.5989a58.5026,58.5026,0,0,1-2.1206-11.2379q-.4911-5.619-.4912-13.0934a129.0306,129.0306,0,0,1,.5964-13.2025,54.8554,54.8554,0,0,1,2.2882-11.0235,25.5759,25.5759,0,0,1,4.623-8.7861q6.2037-7.414,18.5038-7.414a148.0006,148.0006,0,0,1,15.7285.71,115.0674,115.0674,0,0,1,14.8553,2.7792v11.9006c-.07,0-.6705-.078-1.7931-.2222q-1.69-.2163-4.4633-.495c-1.8515-.1754-3.8668-.3431-6.0419-.4873q-7.8349-.6489-14.6915-.6549-8.7121,0-11.5381,5.8393-2.8359,5.841-2.83,21.439,0,15.6114,2.6117,20.8465,2.7188,5.3442,11.1015,5.3442a19.3691,19.3691,0,0,0,6.6929-1.2552,23.7857,23.7857,0,0,0,5.1726-2.4518l1.7385-1.31v-14.2978h-11.1015V1020.82q6.4258-2.6253,18.94-2.6194,3.4789,0,7.3984.2143v45.1818H1051.41l-4.1358-5.3481a18.3747,18.3747,0,0,1-8.1624,4.6893q-11.8636,2.9469-20.028-.6548a19.0271,19.0271,0,0,1-7.5621-5.5663,26.208,26.208,0,0,1-4.4084-9.1176" transform="translate(1.1306 0.0372)" style="fill:#fff"/><polygon points="1074.529 1063.622 1074.529 983.744 1089.981 983.744 1121.547 1035.361 1121.547 983.744 1136.78 983.744 1136.78 1063.622 1121.547 1063.622 1089.876 1012.554 1089.876 1063.622 1074.529 1063.622" style="fill:#fff"/><path d="M1152.7425,986.6537a19.7464,19.7464,0,0,1,5.3832-2.292,19.152,19.152,0,0,1,4.2488-.6549q1.5786,0,15.7206.382a205.1315,205.1315,0,0,1,21.1193,1.3722v12.6529h-31.4529q-4.0227,0-5.009,1.9646a10.9311,10.9311,0,0,0-.6509,4.1474v12.4385l32.2208,1.0915v12.6567l-32.2208.9863v12.4346q0,4.1455,2.2842,5.0167a12.2328,12.2328,0,0,0,4.4632.6549h30.3692v12.5554q-5.4494.7659-26.8806,1.5242l-7.0709.3274h-2.0192q-1.14,0-2.9937-.16a17.7576,17.7576,0,0,1-4.4632-1.15,15.426,15.426,0,0,1-4.5723-2.6234q-4.356-3.9234-4.3541-12.1072v-47.5751q0-9.9224,5.8783-13.643" transform="translate(1.1306 0.0372)" style="fill:#fff"/><rect x="1205.5683" y="1025.5422" width="34.1738" height="12.879" style="fill:#fff"/><path d="M1244.4857,1063.5846l26.8846-79.8778H1288.67l25.9061,79.8778H1298.36l-5.66-17.6774h-26.12l-5.7652,17.6774Zm26.1206-31.2074H1289.11l-8.9265-28.5879Z" transform="translate(1.1306 0.0372)" style="fill:#fff"/><path d="M1356.4832,983.7068q10.4429,0,15.5608,5.348,6.21,6.3383,6.2057,19.5329,0,15.3952-6.42,20.41a14.8376,14.8376,0,0,1-3.1574,2.07c-.7328.2885-1.7775.6549-3.1613,1.0876l15.132,31.4256h-17.1979l-13.1674-30.2251-13.39-1.5319v31.7531h-15.2412V983.699h34.8364Zm-19.4823,36.1266h18.0673q4.245,0,6.0418-2.1868,1.7952-2.1809,1.7931-8.8406,0-6.66-1.9569-9.1136a7.065,7.065,0,0,0-5.8781-2.4518h-18.0673v22.5928Z" transform="translate(1.1306 0.0372)" style="fill:#fff"/><path d="M1388.8054,1063.5846V983.7068h33.85q27.65,0,27.6446,40.2663,0,24.8849-11.8616,34.49-6.3147,5.1277-15.783,5.1219h-33.85Zm46.2576-39.7167q0-19.8564-6.3148-24.5535a12.0369,12.0369,0,0,0-7.2892-2.07h-17.4162v52.7049h17.4162q13.6,0,13.604-26.0815" transform="translate(1.1306 0.0372)" style="fill:#fff"/><path d="M1464.2239,986.6537a19.741,19.741,0,0,1,5.3909-2.292,19.0277,19.0277,0,0,1,4.2449-.6549q1.5786,0,15.7245.382A205.1163,205.1163,0,0,1,1510.7,985.461v12.6529h-31.4529c-2.6818,0-4.3541.6548-5.0051,1.9646a10.7713,10.7713,0,0,0-.6548,4.1474v12.4385l32.217,1.0915v12.6567l-32.217.9863v12.4346q0,4.1455,2.2881,5.0167a12.2044,12.2044,0,0,0,4.4632.6549h30.3655v12.5554q-5.4437.7659-26.8806,1.5242l-7.0749.3274h-2.0153q-1.14,0-2.9937-.16a17.715,17.715,0,0,1-4.4631-1.15,15.4759,15.4759,0,0,1-4.5724-2.6234q-4.356-3.9234-4.3541-12.1072v-47.5751q-.0057-9.9224,5.8744-13.643" transform="translate(1.1306 0.0372)" style="fill:#fff"/><polygon points="1521.513 1063.622 1521.513 983.744 1536.969 983.744 1568.538 1035.361 1568.538 983.744 1583.772 983.744 1583.772 1063.622 1568.538 1063.622 1536.867 1012.554 1536.867 1063.622 1521.513 1063.622" style="fill:#fff"/><polygon points="1595.306 1063.622 1595.306 983.744 1610.762 983.744 1642.328 1035.361 1642.328 983.744 1657.565 983.744 1657.565 1063.622 1642.328 1063.622 1610.656 1012.554 1610.656 1063.622 1595.306 1063.622" style="fill:#fff"/><path d="M1673.5192,986.6537a19.741,19.741,0,0,1,5.3909-2.292,19.0293,19.0293,0,0,1,4.2449-.6549q1.5786,0,15.7245.382a205.2039,205.2039,0,0,1,21.1155,1.3722v12.6529h-31.453c-2.6818,0-4.3541.6548-5.005,1.9646a10.7692,10.7692,0,0,0-.6549,4.1474v12.4385l32.217,1.0915v12.6567l-32.217.9863v12.4346q0,4.1455,2.2882,5.0167a12.19,12.19,0,0,0,4.4631.6549h30.3655v12.5554q-5.4437.7659-26.8806,1.5242l-7.0749.3274h-2.0153q-1.14,0-2.9936-.16a17.7167,17.7167,0,0,1-4.4632-1.15,15.5467,15.5467,0,0,1-4.5763-2.6234q-4.35-3.9234-4.35-12.1072v-47.5751q-.0057-9.9224,5.8744-13.643" transform="translate(1.1306 0.0372)" style="fill:#fff"/><path d="M1756.8858,1048.0939V983.7068h15.2373v60.13c0,2.7637.7562,4.44,2.2842,5.0167a12.2136,12.2136,0,0,0,4.4671.6549h27.3133v14.0756h-32.755q-16.5527,0-16.5469-15.4906" transform="translate(1.1306 0.0372)" style="fill:#fff"/><path d="M1812.7792,1043.8374a72.02,72.02,0,0,1-1.2513-8.7316q-.4328-4.9115-.4326-11.8382a99.55,99.55,0,0,1,.8147-13.0934,59.1223,59.1223,0,0,1,2.23-10.4778,24.34,24.34,0,0,1,8.6536-12.1657,18.9966,18.9966,0,0,1,6.0418-2.7247,42.54,42.54,0,0,1,11.92-1.6333q6.2622,0,9.1447.2105a44.9066,44.9066,0,0,1,6.0925.9277,19.6829,19.6829,0,0,1,5.4962,2.0192,30.4191,30.4191,0,0,1,4.6231,3.3289,15.96,15.96,0,0,1,3.8668,5.1259,46.4578,46.4578,0,0,1,2.7208,7.1489,66.7692,66.7692,0,0,1,2.3934,18.8819,127.9377,127.9377,0,0,1-.8185,16.6367,64.4416,64.4416,0,0,1-2.12,10.0413,23.8548,23.8548,0,0,1-3.5394,7.2035,22.7533,22.7533,0,0,1-4.6776,4.8063,18.51,18.51,0,0,1-5.9289,2.7754q-8.0571,2.3973-21.2246,1.5319c-4.4983-.2222-7.7648-.76-9.7957-1.6372a34.0982,34.0982,0,0,1-5.2779-2.787,14.1791,14.1791,0,0,1-3.7538-3.6017,32.3716,32.3716,0,0,1-2.9391-5.122,31.0962,31.0962,0,0,1-2.2375-6.8255m14.7461-36.0643a66.7652,66.7652,0,0,0-.8731,6.9267q-.3274,4.04-.3275,10.15a104.12,104.12,0,0,0,.4366,10.4232,33.4287,33.4287,0,0,0,1.47,7.3634,9.07,9.07,0,0,0,3.1027,4.584q3.6953,2.73,11.7564,2.7325,7.6187,0,11.4289-2.8416,5.3266-4.0285,5.3325-22.9164,0-12.77-1.3643-16.9173a26.8016,26.8016,0,0,0-2.5025-5.8937,7.7057,7.7057,0,0,0-3.212-2.7248,20.447,20.447,0,0,0-7.948-1.415q-4.5666,0-6.3654.16a22.4726,22.4726,0,0,0-3.8083.7094,6.9321,6.9321,0,0,0-3.1574,1.6918,15.044,15.044,0,0,0-3.9682,7.9675" transform="translate(1.1306 0.0372)" style="fill:#fff"/><path d="M1919.0621,983.7068q10.4427,0,15.5608,5.348,6.21,6.3383,6.2057,19.5329,0,15.3952-6.42,20.41a14.8376,14.8376,0,0,1-3.1573,2.07c-.729.2885-1.7775.6549-3.1574,1.0876l15.1282,31.4256h-17.1979l-13.1674-30.2251-13.39-1.5319v31.7531h-15.2412V983.699h34.8363Zm-19.4822,36.1266h18.0673q4.245,0,6.0418-2.1868,1.7952-2.1809,1.7931-8.8406,0-6.66-1.9569-9.1136a7.065,7.065,0,0,0-5.8781-2.4518H1899.58v22.5928Z" transform="translate(1.1306 0.0372)" style="fill:#fff"/><path d="M1985.1254,983.7068q10.4428,0,15.5608,5.348,6.21,6.3383,6.2057,19.5329,0,15.3952-6.42,20.41a14.84,14.84,0,0,1-3.1574,2.07c-.7328.2885-1.7775.6549-3.1613,1.0876l15.132,31.4256h-17.1979l-13.1675-30.2251-13.39-1.5319v31.7531H1950.289V983.699h34.8364Zm-19.4822,36.1266h18.0673q4.245,0,6.0419-2.1868,1.795-2.1809,1.793-8.8406,0-6.66-1.9569-9.1136a7.065,7.065,0,0,0-5.8781-2.4518h-18.0673v22.5928Z" transform="translate(1.1306 0.0372)" style="fill:#fff"/><path d="M2014.5085,1063.5846l26.8806-79.8778h17.3032l25.9062,79.8778h-16.2157l-5.66-17.6774h-26.12l-5.7652,17.6774Zm26.1206-31.2074h18.5038l-8.9264-28.5879Z" transform="translate(1.1306 0.0372)" style="fill:#fff"/><rect x="2093.8915" y="983.744" width="15.2373" height="79.8778" style="fill:#fff"/><polygon points="2120.558 1063.622 2120.558 983.744 2136.013 983.744 2167.583 1035.361 2167.583 983.744 2182.817 983.744 2182.817 1063.622 2167.583 1063.622 2135.912 1012.554 2135.912 1063.622 2120.558 1063.622" style="fill:#fff"/><path d="M2198.7709,986.6537a19.741,19.741,0,0,1,5.3909-2.292,19.0285,19.0285,0,0,1,4.2449-.6549q1.5787,0,15.7245.382a205.1184,205.1184,0,0,1,21.1154,1.3722v12.6529h-31.4531c-2.6817,0-4.354.6548-5.005,1.9646a10.769,10.769,0,0,0-.655,4.1474v12.4385l32.2171,1.0915v12.6567l-32.2171.9863v12.4346q0,4.1455,2.2881,5.0167a12.2039,12.2039,0,0,0,4.4633.6549H2245.25v12.5554q-5.4438.7659-26.8806,1.5242l-7.0749.3274h-2.0154q-1.14,0-2.9936-.16a17.7194,17.7194,0,0,1-4.4633-1.15,15.4728,15.4728,0,0,1-4.5723-2.6234q-4.356-3.9234-4.3541-12.1072v-47.5751q-.005-9.9224,5.8749-13.643" transform="translate(1.1306 0.0372)" style="fill:#fff"/><path d="M158,701.854V700.88c0-96.9393,75.5237-176.3416,178.8207-176.3416,61.3935,0,98.4245,16.5626,133.9938,46.7643l-47.2633,56.9927c-26.3115-21.9185-49.6995-34.5831-89.1667-34.5831-54.572,0-97.9373,48.2222-97.9373,106.1933v.9745c0,62.3524,42.878,108.1422,103.297,108.1422,27.286,0,51.6485-6.8176,70.6513-20.4567V739.8518H334.8717V675.0592h148.124v148.089c-35.082,29.7144-83.32,54.073-145.6877,54.073C231.0875,877.2251,158,802.6914,158,701.854" transform="translate(1.1306 0.0372)" style="fill:#fff"/><path d="M522.9464,610.2744h74.062v52.6113c15.1048-36.0487,39.4673-59.4328,83.32-57.4838v77.4572H676.43c-49.2123,0-79.4218,29.7144-79.4218,92.0669v96.4521h-74.062Z" transform="translate(1.1306 0.0372)" style="fill:#fff"/><path d="M674.411,796.3572v-.9745c0-56.9966,43.3652-83.3,105.246-83.3a185.6809,185.6809,0,0,1,63.83,10.7156v-4.3813c0-30.689-19.0028-47.7389-56.0338-47.7389-28.26,0-48.2378,5.3559-72.113,14.1264l-18.5155-56.5093c28.7477-12.6646,57.0082-20.944,101.348-20.944,40.4418,0,69.6768,10.7156,88.1923,29.2272,19.49,19.4861,28.2605,48.2261,28.2605,83.2964v151.5H843V843.1215c-18.0282,19.9733-42.878,33.1252-78.9345,33.1252-49.2123.0039-89.654-28.2488-89.654-79.8895m170.05-17.05V766.1516c-12.6685-5.8431-29.235-9.7411-47.2633-9.7411-31.6712,0-51.1613,12.6646-51.1613,36.0487v.9745c0,19.9733,16.5665,31.6635,40.4418,31.6635,34.5948,0,57.9828-18.9989,57.9828-45.79" transform="translate(1.1306 0.0372)" style="fill:#fff"/><path d="M954.0886,610.2744h74.062v37.0232c17.0538-21.9184,38.98-41.8957,76.4983-41.8957,56.0337,0,88.68,37.0232,88.68,96.9433V871.3781h-74.062V725.7254c0-35.0742-16.5665-53.0986-44.827-53.0986s-46.2888,18.0244-46.2888,53.0986V871.3781h-74.062Z" transform="translate(1.1306 0.0372)" style="fill:#fff"/><path d="M1221.5812,741.3135v-.9745c0-87.1983,57.0082-134.9371,118.889-134.9371,39.4673,0,63.83,18.0244,81.3708,38.9722V515.7713h74.062V871.3781h-74.062v-37.51c-18.0283,24.3625-42.878,42.383-81.3708,42.383-60.9063,0-118.889-47.7427-118.889-134.9371m201.2343,0v-.9745c0-43.3575-28.7478-72.0974-63.3425-72.0974s-63.83,28.2527-63.83,72.0974v.9745c0,43.3536,29.235,72.0974,63.83,72.0974s63.3425-28.7438,63.3425-72.0974" transform="translate(1.1306 0.0372)" style="fill:#fff"/><path d="M1857.4386,833.4155l31.6713-48.7172c28.2605,20.4567,57.9827,31.1762,82.3452,31.1762,21.439,0,31.184-7.796,31.184-19.4861v-.9745c0-16.0754-25.337-21.4352-54.0847-30.2057-36.5438-10.7117-77.96-27.7654-77.96-78.4316v-.9745c0-53.0947,42.878-82.8131,95.501-82.8131,33.133,0,69.19,11.2029,97.45,30.2056l-28.26,51.1457c-25.8243-15.0969-51.6485-24.3547-70.6513-24.3547-18.0282,0-27.286,7.796-27.286,18.0244v.9745c0,14.6136,24.85,21.4351,53.11,31.18,36.5437,12.1773,78.9345,29.7144,78.9345,77.4572v.9745c0,57.9671-43.3653,84.2786-99.8863,84.2786-36.5437,0-77.4727-12.1812-112.0675-39.4594" transform="translate(1.1306 0.0372)" style="fill:#fff"/><path d="M2105.4411,793.956V670.2179h-31.184V606.8832h31.184V540.1455h74.062v66.7377h61.3935v63.3347h-61.3935V781.7748c0,17.05,7.3087,25.3292,23.8752,25.3292a75.3217,75.3217,0,0,0,36.5438-9.2539V857.283c-15.592,9.2577-33.62,15.1047-58.47,15.1047-45.3143,0-76.011-18.0283-76.011-78.4317" transform="translate(1.1306 0.0372)" style="fill:#fff"/><rect x="1690.5069" y="801.298" width="133.2999" height="66.7455" style="fill:#fff"/><rect x="1692.6586" y="663.1217" width="133.296" height="66.7377" style="fill:#fff"/><rect x="1692.6586" y="527.0269" width="133.296" height="66.7416" style="fill:#fff"/><rect x="1590.7765" y="527.0269" width="75.0716" height="341.0127" style="fill:#fff"/><rect x="157.353" y="914.2075" width="696.6078" height="27.6212" style="fill:#92d2f5"/><rect x="853.9725" y="914.2075" width="696.6195" height="27.6212" style="fill:#b5cd31"/><rect x="1550.5881" y="914.2075" width="696.6077" height="27.6212" style="fill:#fcdc03"/></svg>