<svg xmlns="http://www.w3.org/2000/svg" viewBox="0 0 2400 1600"><rect x="-1.1306" y="-0.0372" width="2400" height="1600" style="fill:#fff"/><path d="M1967.6106,442.9544a8.6114,8.6114,0,0,0,.8391-3.6358c0-3.6358-3.3562-6.992-7.831-6.992h-50.622c-4.1952,0-7.2717,3.6359-8.67,7.2717L1845.95,576.9209c-3.3562,7.831-5.8733,9.2294-8.39,9.2294-1.9577,0-4.7545-1.3984-7.831-9.2294l-55.3765-137.3226c-1.3984-3.6358-4.7546-7.2717-8.67-7.2717h-51.1813a6.99,6.99,0,0,0-7.2717,6.992,31.2007,31.2007,0,0,0,.839,3.6358l46.9862,107.6766v.28l50.622,116.6263v97.8878c0,5.0342,3.6358,9.2294,8.67,9.2294h46.1471c5.0343,0,8.67-4.1952,8.67-9.2294V667.537l29.646-68.2418,68.5215-156.3408Z" style="fill:#2061ac"/><path d="M1310.364,646.8407c-12.0262,0-30.485-1.3984-41.1129-1.9577V765.1451c0,5.0343-3.6358,9.2294-8.67,9.2294H1214.434a9.3112,9.3112,0,0,1-9.2294-9.2294V448.2683c0-9.2294,5.5935-12.3058,14.823-13.7042,24.0524-3.6359,56.4952-5.8733,90.3364-5.8733,71.0386,0,132.5681,24.8915,132.5681,106.2782v4.1952C1442.9321,620.5509,1381.1229,646.8407,1310.364,646.8407Zm69.0808-111.8717c0-38.5958-22.9337-53.4188-69.0808-53.4188-9.7888,0-32.7225.839-41.1129,1.9578V593.1423c7.2717.5593,33.2819,1.3984,41.1129,1.3984,49.7829,0,69.0808-18.4589,69.0808-55.3765Z" style="fill:#2061ac"/><path d="M1714.2211,774.3745h-48.9439c-4.1952,0-7.831-3.6358-8.67-7.831l-21.2556-87.54H1529.353l-21.2556,87.54c-.8391,4.1952-4.4749,7.831-8.67,7.831h-48.6642c-4.7546,0-8.39-3.0764-8.39-7.831,0-.5593.5594-1.3984.5594-2.2374l75.5134-288.9089c11.1872-42.7909,44.1893-46.9861,64.0466-46.9861s52.8594,4.1952,64.0466,46.9861l75.5134,288.9089a12.6892,12.6892,0,0,0,.5594,2.2374C1722.6115,771.0184,1718.9756,774.3745,1714.2211,774.3745ZM1589.7637,489.6609c-1.3983-5.5936-2.7967-7.2717-7.2716-7.2717-4.7546,0-6.153,1.9578-7.2717,7.2717l-33.2818,136.7632h81.107Z" style="fill:#2061ac"/><path d="M2094.4532,778.01c-34.4,0-59.292-3.3562-81.3867-8.39-4.4748-.839-8.67-4.1952-8.67-9.2294V727.3884a8.7106,8.7106,0,0,1,8.67-8.67h.8391c18.4588,2.2375,64.6059,4.7546,81.6664,4.7546,41.1128,0,53.4187-14.823,53.4187-41.3926,0-17.8994-8.67-27.1289-39.1551-45.308l-60.69-36.3584c-42.791-25.4508-54.2578-52.02-54.2578-84.1835,0-50.6219,29.3663-87.54,115.2279-87.54,30.485,0,72.7166,4.7545,88.3787,8.39,4.7545.839,8.39,4.1952,8.39,8.67v34.1209c0,4.4749-3.3562,8.39-7.8311,8.39h-.839c-30.2054-2.7968-60.69-4.7545-90.6161-4.7545-34.1209,0-48.3846,12.0262-48.3846,32.7224,0,15.1027,7.8311,24.3322,37.7567,41.1129l55.3766,30.7648c50.6219,27.9679,64.0466,57.6139,64.0466,93.9722,0,46.4268-29.0867,96.21-121.1012,96.21Z" style="fill:#2061ac"/><path d="M1808.78,997.7414c-12.8954,0-30.31-1.3226-35.8207-2.2043-3.0861-.5511-4.7393-1.984-4.7393-5.6211V867.795c0-3.6372,1.6532-5.07,4.7393-5.6211,5.5109-.8817,22.9253-2.2043,35.8207-2.2043,36.2615,0,56.9824,19.6187,56.9824,55.55v26.6726C1865.7625,978.1227,1845.0416,997.7414,1808.78,997.7414Zm31.9631-82.2222c0-27.2237-13.7772-34.2776-31.9631-34.2776-6.7233,0-11.4626.3306-15.21.551v94.236c3.8576.22,8.4867.5511,15.21.5511,18.1859,0,31.9631-7.054,31.9631-34.2777V915.5192Z" style="fill:#2061ac"/><path d="M1962.8641,995.2064c-5.8415.8817-12.8954,2.535-34.4981,2.535-23.5865,0-41.8826-6.3926-41.8826-37.1433v-63.375c0-30.8609,18.2961-37.2535,41.8826-37.2535,21.6027,0,28.6566,1.6532,34.4981,2.535,2.7554.3306,3.6372,1.2124,3.6372,3.8576V877.935a3.67,3.67,0,0,1-3.6372,3.6372H1925.831c-10.4706,0-14.3282,3.6372-14.3282,15.5407v19.6187h49.157a3.6694,3.6694,0,0,1,3.6371,3.6372v13.1158a3.6694,3.6694,0,0,1-3.6371,3.6372h-49.157v23.4763c0,12.0137,3.7474,15.6509,14.3282,15.6509h37.0331a3.67,3.67,0,0,1,3.6372,3.6372V991.459c0,2.535-.8818,3.4168-3.6372,3.8576Z" style="fill:#2061ac"/><path d="M2109.1227,995.2064c-5.5109,1.3226-21.272,2.535-30.8609,2.535-23.5865,0-41.8826-6.3926-41.8826-37.1433V865.15a3.5988,3.5988,0,0,1,3.6371-3.6372h17.9655a3.67,3.67,0,0,1,3.6372,3.6372v95.4483c0,12.0137,3.6371,15.6509,14.218,15.6509h33.3959a3.67,3.67,0,0,1,3.6372,3.6372V991.459c0,2.535-.8818,3.3065-3.6372,3.8576Z" style="fill:#2061ac"/><path d="M2226.9451,996.3086h-19.288a3.7386,3.7386,0,0,1-3.4168-3.0861l-8.3765-34.4981h-41.7724l-8.3765,34.4981a3.7386,3.7386,0,0,1-3.4168,3.0861H2123.12a3.0711,3.0711,0,0,1-3.3065-3.0861c0-.22.22-.5511.22-.8817l29.7587-113.8547c4.4087-16.8633,17.4144-18.5165,25.24-18.5165s20.9413,1.6532,25.24,18.5165l29.7587,113.8547a5,5,0,0,0,.22.8817A3.1358,3.1358,0,0,1,2226.9451,996.3086Zm-49.0467-112.2014c-.5511-2.2043-1.1022-2.8656-2.8657-2.8656-1.8737,0-2.3146.7715-2.8656,2.8656l-13.1159,53.8963h31.963l-13.0056-53.8963Z" style="fill:#2061ac"/><path d="M1229.831,1413.831c-13.8594,3.3942-54.589,6.5055-79.1965,6.5055-60.5288,0-107.7639-16.405-107.7639-95.3187V1080.0742a9.4167,9.4167,0,0,1,9.3339-9.3338h46.1037a9.4167,9.4167,0,0,1,9.3339,9.3338v244.9436c0,30.83,9.3338,40.1639,36.2041,40.1639h85.702a9.4167,9.4167,0,0,1,9.3338,9.3339v29.6987c0,6.5054-2.2627,8.4854-9.3338,9.9Z" style="fill:#2061ac"/><path d="M1390.4868,1420.3365c-76.9338,0-132.6542-42.71-132.6542-145.3822v-62.7916c0-102.39,56.0033-145.3822,132.6542-145.3822,76.9338,0,132.6542,42.9924,132.6542,145.3822v62.7916C1523.141,1377.3441,1467.1377,1420.3365,1390.4868,1420.3365Zm67.6-208.1738c0-61.3773-21.779-88.8132-67.6-88.8132-45.538,0-67.6,27.4359-67.6,88.8132v62.7916c0,61.3773,21.7791,88.8132,67.6,88.8132,45.538,0,67.6-27.4359,67.6-88.8132Z" style="fill:#2061ac"/><path d="M1639.39,1416.66h-46.1037a9.4168,9.4168,0,0,1-9.3339-9.3339V1079.5085c0-5.0912,4.2427-8.7681,9.3339-8.7681H1639.39c5.0912,0,9.3339,3.6769,9.3339,8.7681v327.8171A9.4168,9.4168,0,0,1,1639.39,1416.66Z" style="fill:#2061ac"/><path d="M1964.3788,1416.66H1907.527c-5.0912,0-7.0711-4.5255-9.3339-9.3339l-67.0342-124.4517h-6.5054c-12.1623,0-30.83-1.4142-41.5782-1.98v126.1488c0,5.0912-3.677,9.3338-8.7682,9.3338h-46.3865a9.4167,9.4167,0,0,1-9.3339-9.3338V1086.58c0-9.3339,5.6569-12.4452,14.9908-13.8594,24.3246-3.677,57.1346-5.94,91.3588-5.94,71.8426,0,134.0684,25.7389,134.0684,105.2183v4.2426c0,49.4979-24.6074,80.0451-62.7915,95.0359l73.2568,136.0483a6.7745,6.7745,0,0,1,.8485,3.677,5.34,5.34,0,0,1-5.6569,5.6569Zm-69.8627-244.3779c0-35.0727-23.4761-49.7807-69.8626-49.7807-9.9,0-33.0928.8486-41.5782,1.6971v104.9354c7.354.5657,33.6585,1.4142,41.5782,1.4142,48.0836,0,69.8626-13.0108,69.8626-54.0233Z" style="fill:#2061ac"/><path d="M2207.06,1413.831c-14.9908,2.2628-33.0929,6.5055-88.53,6.5055-60.5288,0-107.7639-16.405-107.7639-95.3187V1162.3821c0-79.1966,46.9523-95.6016,107.7639-95.6016,55.4375,0,73.54,4.2427,88.53,6.5055,7.0711.8485,9.3339,3.1113,9.3339,9.8995v29.6987a9.4168,9.4168,0,0,1-9.3339,9.3339h-95.0359c-26.87,0-36.77,9.3339-36.77,39.8811v50.3464h126.1488a9.4167,9.4167,0,0,1,9.3339,9.3339v33.6585a9.4168,9.4168,0,0,1-9.3339,9.3339H2075.2539v60.2459c0,30.83,9.9,40.1639,36.77,40.1639H2207.06a9.4168,9.4168,0,0,1,9.3339,9.3339v29.6987c0,6.5054-2.2628,8.7682-9.3339,9.9Z" style="fill:#2061ac"/><path d="M1663.2917,340.6193h-25.2978c-2.3,0-3.1622-2.0123-4.3121-4.3121l-29.8974-55.77H1600.91c-5.462,0-13.7988-.575-18.6859-.8625v56.6326a4.1768,4.1768,0,0,1-4.0246,4.3121H1557.501a4.2336,4.2336,0,0,1-4.3122-4.3121v-143.45c0-4.0246,2.5873-5.75,6.612-6.3244,10.924-1.7249,25.5852-2.5873,40.8214-2.5873,32.1972,0,60.0823,11.499,60.0823,47.1459v1.7248c0,22.1356-11.2116,35.9344-28.1726,42.5463l32.7722,60.9447a3.6468,3.6468,0,0,1,.2874,1.7248,2.4128,2.4128,0,0,1-2.5872,2.5873ZM1631.957,231.0914c0-15.5237-10.3491-22.4231-31.3348-22.4231-4.3121,0-14.6612.2875-18.6859.8625v46.8584c3.45.2874,14.9487.5749,18.6859.5749,21.5606,0,31.3348-5.7495,31.3348-24.1479Z" style="fill:#6e2479"/><path d="M1778.5692,291.4611h-68.1316v.575c0,12.0739,4.8871,26.4477,25.01,26.4477,15.2362,0,29.61-1.15,38.2342-2.0124h.5749c2.0124,0,3.7372,1.15,3.7372,3.1623v13.7987c0,3.45-.5749,4.8871-4.3121,5.4621-13.5113,2.5872-21.8481,3.45-40.534,3.45-20.9856,0-50.5955-11.2116-50.5955-52.32V274.5c0-32.4847,18.1109-52.8954,50.0206-52.8954,32.1972,0,49.7331,21.8481,49.7331,52.8954v11.7865c0,3.45-1.15,5.1745-4.3121,5.1745Zm-23.573-20.4107c0-16.3861-8.9117-25.5853-21.8481-25.5853s-22.423,9.1992-22.423,25.5853v.8624h44.2711Zm12.3615-89.6922-24.7229,25.8728c-1.7248,2.0123-2.5873,2.5872-4.8871,2.5872h-17.8234c-1.15,0-2.0123-.5749-2.0123-1.4373a3.1053,3.1053,0,0,1,.8624-2.0124l19.8358-25.01c2.0123-2.3,2.8747-3.1622,5.462-3.1622H1765.92c1.4374,0,2.3.5749,2.3,1.4374A3.164,3.164,0,0,1,1767.3577,181.3582Z" style="fill:#6e2479"/><path d="M1909.6577,242.0154l-6.8994,2.8748c3.45,4.887,5.1746,9.4866,5.1746,16.6735v1.4374c0,26.16-17.8235,37.9467-49.4457,37.9467-10.924,0-18.6859-1.7249-22.7105-3.45-2.5873,1.7248-3.45,3.45-3.45,5.462,0,4.3121,2.3,5.75,7.1869,6.8994l24.7228,5.7495c28.46,6.6119,46.5709,10.924,46.5709,33.3471v1.4374c0,21.2731-15.5236,32.7721-51.1705,32.7721-33.6346,0-51.7455-12.6489-51.7455-34.497v-2.0123a31.5217,31.5217,0,0,1,10.6366-22.998,24.6681,24.6681,0,0,1-9.4867-19.2608V304.11c0-6.6119,2.5873-12.9364,8.3368-16.961-6.3245-6.3245-8.6243-14.0863-8.6243-24.4354v-1.4374c0-20.6981,13.5114-38.2341,49.7332-38.2341h48.8707a5.7664,5.7664,0,0,1,5.75,5.7495v8.9117c0,3.1622-.8624,3.45-3.45,4.6ZM1883.21,348.6686c0-4.6-2.5872-7.1869-24.7228-12.3614l-18.6859-4.3121c-3.1622,4.3121-5.1745,7.1868-5.1745,14.6612v2.0123c0,8.6243,5.1745,13.7988,24.7228,13.7988,20.1233,0,23.573-4.3121,23.573-11.7865v-1.4373Zm-2.3-86.8174c0-10.0616-4.3121-17.8235-22.423-17.8235-17.8234,0-22.423,7.7619-22.423,17.8235v1.7248c0,7.7619,3.1622,16.3861,22.423,16.3861,17.2485,0,22.423-6.037,22.423-16.3861Z" style="fill:#6e2479"/><path d="M1961.1157,207.5184h-20.1232a4.4212,4.4212,0,0,1-4.3121-4.3121V184.8079a4.1768,4.1768,0,0,1,4.3121-4.0246h20.1232a4.38,4.38,0,0,1,4.3122,4.0246v18.3984A4.4213,4.4213,0,0,1,1961.1157,207.5184Zm-.5749,133.3884H1941.28a4.4213,4.4213,0,0,1-4.3122-4.3121V227.6417a4.4213,4.4213,0,0,1,4.3122-4.3121h19.2608a4.1768,4.1768,0,0,1,4.0246,4.3121v108.953A4.38,4.38,0,0,1,1960.5408,340.9068Z" style="fill:#6e2479"/><path d="M2043.0461,342.3442c-32.7722,0-49.7332-22.1356-49.7332-52.033V273.35c0-29.8974,16.961-52.033,49.7332-52.033s49.7331,22.1356,49.7331,52.033v16.961C2092.7792,320.2086,2075.8182,342.3442,2043.0461,342.3442Zm22.423-68.7065c0-16.9611-7.7618-28.1726-22.423-28.1726s-22.4231,10.9241-22.4231,28.1726v16.961c0,16.961,7.7619,28.1725,22.4231,28.1725s22.423-11.2115,22.423-28.1725Z" style="fill:#6e2479"/><path d="M2212.6563,340.6193h-19.2608a4.4213,4.4213,0,0,1-4.3122-4.3121V268.1756c0-18.1109-1.7248-23.2854-17.8234-23.2854-7.1869,0-14.6612,2.8747-23.5729,7.4743v83.9427a4.2336,4.2336,0,0,1-4.3122,4.3121H2124.114a4.4212,4.4212,0,0,1-4.3121-4.3121V227.3542a4.2335,4.2335,0,0,1,4.3121-4.3121h18.1109a4.1769,4.1769,0,0,1,4.0247,4.3121v4.3121c12.0739-7.7618,20.1232-10.0616,33.922-10.0616,29.8974,0,36.2219,20.1233,36.2219,46.8584v68.1316a4.4213,4.4213,0,0,1-4.3122,4.3121Z" style="fill:#6e2479"/><path d="M548.4428,799.8327c0-238.636-92.6439-455.4122-243.8407-618.32H98.7557c185.548,142.8693,305.2563,366.6718,305.2563,618.32,0,252.1683-119.7083,475.7106-305.2563,618.58H304.8623c151.1968-162.6472,243.8407-379.6837,243.8407-618.58Z" style="fill:#00acc4"/><path d="M652.7972,802.9555c0-231.0891-73.6466-445.5232-198.56-621.4424H738.6749A1254.5013,1254.5013,0,0,1,902.6233,802.9555a1256.1454,1256.1454,0,0,1-160.3051,615.4571H457.8808c122.8312-174.6181,194.6562-386.45,194.6562-615.4571Z" style="fill:#a9ca44"/></svg>