<svg xmlns="http://www.w3.org/2000/svg" width="1100" height="800"><style><![CDATA[.V{stroke:#646464}.W{fill-rule:evenodd}.X{fill:none}.Y{stroke:#000}.Z{stroke-linejoin:round}.a{fill:#f5f5f5}.b{fill:#eac102}.c{fill:#ed1c24}.d{stroke-width:1.573}.e{stroke-width:1.652}.f{stroke-width:1.86}]]></style><path d="M0-.004h1100v800H0v-800z" fill="#fff"/><g class="d"><path d="M391.41 181.476c-2.31-.33-2.31-.98 1.16-2.28l2.31-.98c3.86-1.3 6.17-2.6 10.02-4.23 3.86-1.95 6.94-3.9 10.41-6.18l11.95-7.16c12.34-6.51 25.83-10.74 40.1-12.69 4.63-.65 11.18-1.3 15.42-1.3.77 0 15.04-.65 15.42-.65v.33c.39 1.3.39 3.58.39 5.86-.39 1.63-.39 2.93-1.16 3.9 0 .33 0 .33-.39.33 0 0-.77-.33-2.31-.33-1.54-.33-3.47 4.88-5.78 4.56-13.11-.33-15.81-5.21-28.15-3.25-2.7.33-5.01.65-7.71 1.3s-5.4 1.63-8.48 2.28-5.78 1.95-8.48 2.93c-5.78 2.28-11.57 4.88-18.89 8.46-3.86 1.95-4.24 2.28-6.55 3.25-6.94 2.93-12.72 5.21-16.19 5.86-.77.32-1.93.32-3.09-.01z" fill="maroon" class="Y"/><g class="V W"><path d="M423.03 466.536c-.77-6.83 10.41-21.48 13.11-27.33 13.11-28.96 13.11-127.23 10.02-155.54 6.17-1.3 16.19-2.28 23.9-1.95 6.17 23.75 3.08 120.73-14.27 149.04 17.35-26.36 20.82-123.98 14.27-149.04 10.02-2.93 13.88-3.58 23.13-5.86 1.54 29.61 3.08 126.26-18.12 155.87-8.1 10.41-21.21 20.18-36.24 30.26-5 3.89-13.1 7.8-15.8 4.55h0z"/><path d="M349.77 486.706c-.77-9.44 16.58-29.94 20.82-38.4 20.82-40.35 28.92-92.74 26.99-133.42 9.64-4.56 19.28-7.48 28.92-10.41 6.94 33.84-.77 93.39-27.37 132.44 26.22-36.45 34.7-96.65 27.37-132.44 14.27-3.58 19.66-4.56 32.77-7.16-.39 42.3-1.16 100.88-33.93 141.88-12.34 14.32-31.62 27.66-53.21 41.65-7.32 5.54-18.5 10.74-22.36 5.86h0z"/><path d="M258.78 488.336c2.31-10.41 25.06-29.61 32-38.07 32.77-40.35 56.29-95.67 66.32-140.25 10.8-3.25 21.59-4.56 32-6.18-3.86 37.75-28.92 101.2-66.32 139.27 35.86-35.47 61.69-98.92 66.32-139.27 15.42-1.63 16.19-1.3 29.69-1.95-6.94 46.53-25.83 109.34-70.56 148.38-16.58 13.67-39.71 24.73-65.55 36.12-8.86 3.9-21.59 7.8-23.9 1.95h0 0z"/><path d="M234.1 438.226l15.04-22.13c10.02-13.99 20.43-28.31 32-41.98 10.8-12.69 18.89-25.71 23.13-38.72 3.08-8.79 7.33-17.9 12.34-27.01 2.31-4.56 12.34-14.32 15.81-15.29 2.31 1.95 13.11 2.28 15.04 2.28-8.48 36.45-37.79 84.93-69.4 106.08 32.77-22.45 60.92-71.26 69.4-106.08 15.04-2.93 17.35-4.88 27.37-4.56-12.72 33.52-28.53 73.87-58.99 101.53-20.43 17.25-45.88 33.84-75.57 48.81-5.78 2.6-7.71 1.3-6.17-2.93z"/><path d="M176.66 384.526c6.17-7.48 29.3-15.94 37.4-20.83 38.94-22.45 73.64-58.57 99.86-89.49 8.48.33 14.65.33 21.98 1.63-18.51 27.98-56.29 70.94-97.93 90.14 40.1-17.25 78.65-60.53 98.32-90.14 10.8 2.6 15.04 2.28 24.29 5.21-21.98 28.96-38.94 49.14-71.33 75.17-6.94 6.83-24.29 16.6-37.01 21.48-16.58 6.18-36.63 8.79-58.61 11.06-7.72.98-17.75.65-16.97-4.23z"/><path d="M156.99 342.226c6.55-6.51 29.69-12.69 37.78-16.6 39.33-17.9 76.73-49.14 105.64-76.47 7.71.98 13.49 1.63 20.05 3.58-21.59 25.06-62.85 62.8-104.1 77.45 39.33-13.02 81.35-50.76 104.1-77.45 9.25 3.58 13.11 3.58 21.21 7.16-24.68 25.71-43.57 43.6-77.5 65.08-7.71 5.86-24.68 13.67-37.4 17.25-16.19 4.56-35.09 4.88-55.52 5.21-6.93.65-16.19-.65-14.26-5.21z"/><path d="M139.64 280.396c8.1-4.88 30.84-5.53 39.33-7.16 41.26-8.46 76.73-25.06 111.81-45.88 2.7 4.23 6.17 12.37 13.11 12.37-29.69 18.87-67.86 37.42-107.19 43.28 38.17-5.53 76.34-24.08 107.19-43.28 8.87-1.63 14.27-3.9 21.59-8.79 1.54 4.56 3.86 8.79 7.33 12.04-36.63 23.43-84.05 53.04-131.09 55.32-16.19.33-33.16-3.9-51.28-8.79-6.17-1.3-13.88-4.88-10.8-9.11z"/><path d="M149.67 212.716c10.02-2.28 19.66-2.6 28.53-1.3 42.03 5.53 88.29-2.6 128.78-7.48 3.86 8.46 4.24 13.34 15.04 17.25-37.78 5.53-76.34 10.09-115.28 6.83 38.94 3.25 77.5-.98 115.28-6.83 3.47.98 13.88 5.53 18.12 7.48-48.97 11.71-101.02 27.66-147.28 14.64-14.65-4.88-27.37-12.04-43.18-20.5-5.41-3.58-5.41-6.84-.01-10.09z"/><path d="M176.66 173.666c8.87-.98 16.96-.65 23.9.98 33.93 7.81 73.26 11.39 109.11 10.74.39.98 0 2.28.77 3.25 2.31 3.25 5.78 6.18 8.1 7.48-32.39 1.63-62.08 4.23-98.32-5.86 35.09 10.41 65.93 7.48 98.32 5.86 1.93 1.63 9.64 8.14 12.72 11.39-48.2 4.88-86.37 7.81-122.61-6.51-11.18-5.21-22.75-10.41-34.32-18.87-3.46-3.58-2.69-6.18 2.33-8.46z"/><path d="M196.32 139.176c6.17 2.6 11.18 4.23 20.82 6.18 13.49 3.58 22.75 5.21 37.01 10.41 16.58 6.83 58.99 25.06 77.5 29.29-2.31 1.3-10.02 4.23-10.41 5.21-32-4.56-65.55-15.29-91.38-29.61 26.22 14.64 59.76 25.06 91.38 29.61 1.54 1.95 3.47 1.95 2.31 4.56-31.62-5.21-63.62-5.21-92.15-20.18-17.74-10.41-28.53-17.57-38.17-32.87-1.54-1.95-.38-3.9 3.09-2.6z"/><path d="M209.43 115.096c6.17 2.93 10.8 4.88 20.05 7.16 13.11 4.23 22.36 6.18 35.86 12.04 16.19 7.81 56.29 27.98 74.41 32.87-2.31 1.3-10.41 3.9-10.8 4.88-31.23-6.18-64-18.22-88.29-33.84 24.68 15.94 57.45 27.98 88.29 33.84 1.54 2.28-3.08 7.16-4.63 9.76-30.84-6.51-55.91-13.34-83.28-29.29-16.58-11.06-26.99-18.87-35.47-34.82-.77-1.95.77-3.9 3.86-2.6z"/><path d="M226.39 89.066c5.01 3.58 8.87 5.86 16.96 9.44 11.57 5.86 19.28 8.79 30.84 16.27 13.49 9.44 46.65 34.17 62.46 41.33-2.31.98-10.41 2.6-11.18 3.58-27.76-9.76-55.91-25.71-75.18-43.93 19.66 18.55 47.42 34.49 75.18 43.93.77 2.28 2.7 6.51.77 9.11-27.37-10.09-50.89-16.27-78.65-38.72-13.11-13.02-21.21-21.8-25.45-38.4-.37-2.61 1.55-4.24 4.25-2.61z"/><path d="M254.54 58.476c3.47 4.88 5.78 8.46 11.95 13.99 8.1 8.79 14.65 13.67 21.98 24.41 8.48 13.02 29.3 46.53 40.87 57.92-2.7.65-8.48-2.28-9.64-1.63-21.59-16.6-42.8-37.1-53.98-60.85 11.18 23.75 32.39 44.58 54.36 61.18 0 2.6-.77 5.86-3.47 7.81-21.21-17.25-46.65-29.61-58.99-54.99-6.94-16.6-10.41-27.98-7.71-45.88 0-2.94 2.7-4.24 4.63-1.96z"/><path d="M310.83 29.516c-10.8 15.29-11.57 34.49-6.94 49.46 3.47 11.06 11.95 20.5 18.89 29.94 3.86 5.53 7.71 11.06 11.18 16.92 1.16 2.28 2.7 10.41 1.16 12.04-1.54 2.93-2.7 2.6-5.78 2.93-2.31.98-7.33-.98-9.25-2.6-16.58-21.15-35.47-44.91-31.62-67.36-3.47 22.13 15.04 46.21 31.62 67.36 2.31 1.63 7.33 3.58 9.25 2.6-.39.98-4.24 5.86-4.63 6.18-11.95-5.21-40.48-34.49-47.04-57.27-3.08-9.44-5.39-42.31 33.16-60.2z"/><path d="M342.83 130.716c-8.87-4.88-18.12-11.39-23.9-17.25-5.01-5.21-18.51-24.73-2.7-41.33-.77 10.74 5.78 22.78 13.88 30.91 5.78 6.18 14.27 10.41 21.59 15.29 1.16.65 2.31 1.3 3.08 1.95l-8.87 7.16h0c.01.01-3.08 3.27-3.08 3.27z"/></g><path d="M318.54 100.456c6.94 11.71 19.28 18.55 30.07 25.06" class="V X"/><path d="M360.18 303.176c-10.8 30.59 22.36 44.26 42.8 25.06 6.55 30.26 48.58 24.41 50.89 3.9l-8.48-19.2c15.81-13.99 21.98-30.91 32.39-37.75l-6.55-12.37c-12.72 4.88-24.68 11.39-42.41 13.02-10.41-.65-21.98-6.51-29.3-16.27-28.92-38.72-17.74-71.91-12.34-90.46 11.95-43.93-53.21-53.04-47.42-81.35-3.47 5.53-6.94 11.06-5.78 16.92-15.04 4.56-26.6 14.97-21.59 27.98-10.02-.98-19.28 0-28.15 6.18-12.34 9.11-6.94 27.98 10.41 39.05-5.4.65-10.8 2.6-16.19 6.18-13.88 10.41-2.31 34.82 25.83 40.02-31.23 21.15-5.4 42.95 26.22 39.7-25.85 30.93.76 52.08 29.67 39.39z" class="V W"/><g stroke-linecap="round" class="X Z V"><path d="M402.98 328.236c6.55 30.26 48.58 24.41 50.89 3.9m-122.99-180.6c-32.39-20.83-18.89-40.02 3.47-46.53-1.16-5.86 2.31-11.39 5.78-16.92-5.78 28.31 59.38 37.42 47.42 81.35-5.01 18.55-16.19 51.74 12.34 90.46 20.05 27.33 45.88 13.02 70.94 3.25M362.5 135.266c25.06 22.45 1.54 50.76 4.24 78.1 6.94 62.48 50.12 92.09 103.33 64.43"/><path d="M352.86 127.786c-22.75 0-28.15 16.27-18.51 30.59 5.78 8.46 25.83 18.22 37.4 20.5m-37.4-20.5c-14.65 3.25-28.15 17.25-19.28 29.94 5.4 7.81 17.35 14.64 32 15.29"/><path d="M334.74 201.326c-12.34 6.51-20.43 17.25-16.19 26.68 3.86 8.79 15.42 11.39 21.21 12.37m8.86-10.41c-5.01 4.88-7.33 7.81-9.64 13.99-6.17 16.27 2.7 32.54 18.12 27.33 6.17-2.28 17.35-11.39 21.98-16.6"/><path d="M364.42 267.056c-3.86 10.74-.39 24.41 8.48 28.64 11.57 5.21 24.68-7.81 26.99-15.94"/><path d="M393.73 289.186c-.39 9.11.39 27.33 14.65 29.94 15.42 2.6 22.36-11.39 21.59-17.25"/><path d="M429.58 305.126c.39 2.93 8.87 8.79 16.19 7.81m-133.01-179.94c-10.02-.98-19.28 0-28.15 6.18-16.19 11.71-2.31 40.35 28.53 46.21"/><path d="M295.02 178.226c-5.4.65-10.8 2.6-16.19 6.18-16.19 11.71 1.54 42.3 38.94 40.68m-13.11-.66c-33.54 22.78-1.16 46.53 33.54 38.4m-7.32 1.3c-30.07 34.82 8.87 57.6 41.64 31.24m-12.34 7.81c-12.34 34.49 31.62 47.51 49.74 15.94m-114.9-171.48c4.24 9.11 11.95 14.64 23.52 19.52m6.17-50.11c-.77 5.86 5.4 11.71 10.8 15.62m8.09 10.74c6.55 11.71 20.05 17.25 30.46 18.87m-47.81 13.99c8.48 8.46 22.36 16.6 42.41 15.62m-38.16 36.12c6.17-11.06 21.21-15.29 35.86-19.2m-15.43 51.42c3.08-9.11 9.25-17.9 20.05-24.41m6.94 52.39c-3.86-7.16 1.16-18.22 8.1-23.1m23.9 19.85c5.4 8.14 9.25 21.15 2.7 27.33m-24.68-18.54c-3.86 8.14-3.86 24.08-2.7 29.94m-32.77-51.75c-5.4 7.48-9.64 16.27-7.33 22.78m-9.63-54.99c-7.71 5.86-23.9 10.74-32.77 11.06m-17.36-56.29c14.65 9.76 26.6 10.74 49.74 6.83m90.22 111.94c.77 8.14 6.17 20.18 8.87 24.41"/></g><g class="Y"><g class="b Z"><path d="M320.47 559.596c-5.4 1.3-13.11.65-18.12-1.3-7.33-2.6-13.88-13.02-21.21-15.62-5.4-1.95-11.57-.98-13.49 3.25-2.31 4.88 0 9.11 4.63 10.74 2.7.98 6.94-.65 10.41.65 2.31.98 3.08 3.9 5.4 5.53 1.93.98 4.63 2.28 6.94 2.28 7.7 1.3 16.57-3.25 25.44-5.53h0z"/><path d="M288.47 574.236c-11.18 1.3-23.13 1.95-26.99 6.18-3.08 3.25-1.93 8.46.39 12.69 1.93 3.58 7.71 6.51 12.72 4.23 6.17-3.25 8.1-13.02 15.04-14.97 7.33-1.95 11.95.33 18.89 1.3 5.78.98 12.34-.33 18.89-4.88 3.08 0 7.71.98 10.02 3.58s2.7 7.81 7.33 9.44 11.95.98 14.27-3.9c3.08-6.51 1.93-14.64-4.63-16.92-4.24-1.63-15.81-.65-21.59.33 16.96-6.83 44.34-12.04 64.39-19.85 4.63-1.63 18.89 2.93 26.99-.98l34.7-19.52-35.09-16.92-22.36 14.64c-21.21 12.04-52.44 21.15-81.74 30.91-15.42 5.53-21.98 4.88-30.07 5.21-8.1-2.6-18.51-9.44-24.29-6.83l-5.01 9.11c1.54 4.56 6.94 10.74 17.35 2.93 0 0 .77-.65 1.54 0 .77 1.3 5.39 4.22 9.25 4.22h0 0z"/></g><path d="M267.26 537.466c-8.1-2.6-18.12 2.93-12.34 11.71 1.16-4.88 8.48-5.86 12.72 0 3.08 0 6.94-3.58 6.17-6.51-1.15-2.59-3.85-4.22-6.55-5.2h0zm99.48 39.05c-2.31-.65-5.01-.98-7.71-.98-5.78 1.95-7.33 8.79-2.31 12.37 7.71-3.58 15.04 2.28 11.95 7.81 8.87-3.25 10.41-9.11 7.71-13.34-1.93-2.6-5.4-4.56-9.64-5.86h0 0 0zm-106.8-20.5c-.77-.33-1.16-.33-1.93-.65-4.24-.98-8.1-.65-11.18.65-5.01 2.6-7.71 10.09-.77 14.32-.39-5.86 8.1-9.44 15.04-2.93 3.47-.65 6.17-5.21 4.63-8.46-1.94-.98-3.86-2.28-5.79-2.93zm4.24 26.03c-6.94-.33-13.49 2.6-16.19 7.16-2.7 4.23-.77 11.39 7.33 13.34-3.47-5.86 3.86-11.39 11.57-8.14 4.61-3.9 3.46-10.73-2.71-12.36h0z" fill="#fc0" class="Z"/><path d="M287.7 574.236c3.86 0 10.41-1.95 16.96-4.23" class="X"/></g><g class="V"><path d="M554.51 239.726l-4.63-5.21c-3.08-8.79-.77-14.64-9.64-23.1 2.31-2.28 4.24-.98 6.55-1.3-5.01-3.9-8.48-7.81-10.8-12.37 7.33 3.9 12.34 1.95 14.27-6.18-2.31 2.6-5.4 3.58-9.25 2.93-3.86-2.6-5.4-6.18-5.01-10.74.77-6.51.39-9.76-2.31-16.27 3.08-.65 3.47-.65 6.55 0-1.93-2.28-9.64-5.86-12.34-8.14-.39-5.53-3.86-11.06-6.94-16.27 5.01-.33 5.4 2.6 7.71 2.6-5.01-8.79-14.27-16.27-25.83-22.45 4.63-1.63 6.94-3.25 8.1-6.18-3.47 1.3-11.95 3.58-15.81 3.25-13.49.98-15.42 0-28.92-1.63-12.72-.33-19.66.65-28.92 8.46l7.33 6.51 11.95 15.94c4.24 1.3 23.52 0 18.51 10.41l-5.01 6.18c20.82 0 7.33 31.89-10.41 22.78 4.63 8.46 10.02 11.39 16.58 8.79-1.93 2.28-2.7 5.21-2.31 8.79-3.08 2.6-5.01 5.21-5.4 8.14-.39 1.3-2.31 1.63-5.78 1.3 3.47 2.93 6.94 3.58 10.41 2.28 1.93-.65 3.47-1.63 4.63-2.28-4.63 3.58-20.82 22.13-19.28 28.64.39 3.25.39 6.18-.39 8.79-.39 4.88-2.7 8.46-6.55 11.06 4.63.33 8.1-.33 10.8-1.95 2.31-1.63 3.86-4.23 4.63-7.48 0 3.25-.77 6.18-2.7 9.44-.39.33-.39.65-.77 1.3-1.54 3.58-8.1 8.14-6.17 12.69 1.54-.98 2.7-1.95 4.24-2.93.77-.98 1.93-1.63 2.7-2.6-.77 1.63-1.16 3.58-1.54 5.21-.77 5.53.77 11.39 4.24 16.92.77-.65 1.54-1.3 2.31-2.28 1.16-1.3 1.54-3.25 1.93-5.86-.39 4.23-.39 7.81.39 11.39-10.8 14.97-1.93 23.43 4.24 43.6 5.78 18.87 17.35 45.56 21.21 80.7-19.28 5.53-16.58 19.2-27.76 35.79-11.57 7.48-21.21 22.78-28.92 30.59-6.55 6.51-12.34 13.34-20.43 18.87-3.86 2.6-7.33 4.88-11.18 6.83-8.87 2.28-18.51 4.56-32.77-1.63 5.78 6.83 13.88 12.69 23.9 12.69-3.47 2.93-5.01 5.53-5.01 7.81 6.94 0 13.88-2.28 20.82-5.86-6.55 3.9-9.64 8.46-13.88 12.37 8.87 1.3 16.96-2.28 27.76-9.76-1.93 2.93-8.48 15.94-8.1 19.2 2.7-1.95 8.48-10.09 13.88-11.39-3.08 5.86-4.63 15.29-3.47 21.15 10.8-21.15 47.42-30.26 65.16-50.44-.39 3.25-1.54 6.83-3.86 10.09 5.78-2.93 10.02-7.16 13.49-13.02 10.02-.65 8.1-3.25 15.42-8.14-4.63 37.75-5.78 50.44-46.27 72.24-6.17-6.18-14.65-3.9-23.52-1.95 6.55.33 12.72-.33 16.58 4.56l-17.74 8.46c-8.1-6.83-19.66-7.16-31.23-7.48 8.48 3.25 20.05 3.58 21.59 13.02-32.77 16.6-68.24 30.59-83.28 67.36-10.02 8.14-18.89-5.86-23.9-11.06 5.4 12.37 10.02 26.03 27.37 25.06 16.96 21.15 41.64 15.94 54.36-4.23 7.33-3.9 15.81-1.63 23.52-1.95-6.17-2.28-12.34-3.9-20.43-3.58 7.33-4.56 12.34-10.74 15.42-17.57-7.71 3.9-13.11 6.18-20.82 13.34.77-4.88-4.24-9.44-6.55-13.99-.77 5.53 1.93 11.71.39 17.25-25.45 41.33-64.77-12.04 2.31-36.45l3.86 14.97c5.4-12.04 11.57-22.78 31.23-30.59-1.54 10.09 1.93 18.22 7.71 25.06-1.16-9.11-3.47-19.52 3.08-28.64l46.65-24.08c3.86 4.23 1.54 9.44-.77 14.32 6.94-4.56 12.72-10.41 12.72-18.87 6.94-4.88 10.41-5.21 14.27-10.09-2.7 20.18-1.54 28.96-18.12 34.82-6.17-2.6-12.34-1.63-18.51 0 3.86.65 8.48.33 10.8 3.58-13.49 7.16-50.51 21.8-36.24 41.33 8.48 6.51 13.88 3.25 18.51 1.95-6.55 0-17.35-2.6-13.88-12.04 4.63-9.11 15.81-14.32 26.22-17.9l28.53-6.18c-13.11 16.6-18.12 32.54-42.41 45.56-22.75 11.06-52.82 17.57-58.99 34.82-6.55 16.6 5.78 31.24 18.12 31.89 23.52-1.63 18.12-10.74 25.83-16.27 5.4-4.23 14.27-5.86 21.21-9.44-8.48.65-16.58-.33-25.45 3.9.39-9.11-3.86-12.04-8.48-15.62 1.54 6.51 4.24 13.02 1.16 19.52-2.7 5.53-6.17 7.48-10.8 6.51-14.65-1.3-12.34-16.92-11.57-17.9 8.48-15.94 26.6-14.32 40.1-22.45 1.54 6.83-1.93 13.02-3.47 19.2 8.1-6.83 15.04-15.62 18.12-24.08-1.93 6.18-.39 11.71 2.31 17.25 1.54-8.46 3.08-20.18 11.57-21.15 9.25-1.63 21.98-5.86 25.45-11.06l-1.54 16.6c-.77 26.68-20.43 42.3-45.11 54.34-7.33 3.25-11.57 1.3-16.19.33 1.16 2.93 7.33 6.83 12.72 5.21-2.31 5.53-2.7 11.39 2.31 15.62 6.55 7.48 23.13 1.3 22.36-8.79-10.02 13.67-23.13 3.58-15.81-7.81 7.33-6.51 19.28-6.51 25.45-12.04 5.4 4.88.77 11.71.77 17.9 5.4-7.48 8.48-14.64 5.78-21.8 8.48-6.18 10.8-9.44 15.42-14.64 3.47 28.96-16.19 41.65-15.42 51.41 2.7-2.6 12.72-11.06 19.28-11.06-13.88 24.41-12.72 35.47 12.34 52.06h0l3.46-546.71h0z" class="W"/><path d="M548.72 638.346c-1.93 16.6-12.72 29.29-20.43 41.98m18.89-96.97c-3.08 25.38-8.87 39.05-18.89 54.67m17.73-161.08c-3.08 25.38-7.33 58.57-22.75 78.75" class="X"/><path d="M478.17 147.956c5.78.33 9.64 1.63 11.57 3.9 2.31 2.28 3.86 4.56 4.63 6.83 1.16 3.25 1.16 6.18.39 8.79.77-2.6.77-5.53-.39-8.79-.77-2.28-2.31-4.56-4.63-6.83-1.94-2.27-5.79-3.57-11.57-3.9zm22.74 153.6c-3.47 3.58-4.63 7.48-2.7 12.04-1.92-4.56-1.15-8.47 2.7-12.04zm1.93-15.95c-2.31.65-4.24 2.28-5.4 4.56 1.55-2.28 3.09-3.91 5.4-4.56zm26.99 61.83c4.24 1.3 5.01 3.58 3.08 6.18 1.93-2.6 1.16-4.88-3.08-6.18-1.16 3.58-3.47 6.18-7.71 7.81 1.93-3.25 2.31-6.83 1.54-10.41-1.93.33-3.47-.65-5.01-2.93-5.4.33-8.87-1.95-10.02-6.83-1.16-2.93-.39-5.86 1.54-8.14-1.93 2.28-2.7 5.21-1.54 8.14 1.16 4.88 4.63 7.16 10.02 6.83-1.16-1.63-1.93-3.9-2.7-7.16.77 3.25 1.54 5.53 2.7 7.16 1.16 2.28 3.08 2.93 5.01 2.93.77 3.58.39 7.16-1.54 10.41 4.24-1.63 6.94-4.23 7.71-7.81.39-1.95.39-4.56 0-7.48.77 2.92.77 5.52 0 7.48zm-22.36 25.7c-3.08 4.56-3.08 8.14 0 10.74-2.7-2.6-2.7-6.18 0-10.74zm9.25 14.97c-6.55 3.58-9.64 8.14-9.25 13.34 1.93-1.63 4.24-2.28 6.94-1.95-3.86 3.25-5.4 6.18-5.01 9.44-.39-3.25 1.16-6.18 5.01-9.44-2.7-.33-5.01.33-6.94 1.95-.39-5.2 2.7-9.43 9.25-13.34zm27.38-13.01c3.08 6.83 1.93 11.06-3.86 12.37 5.4-1.31 6.56-5.54 3.86-12.37zm-10.41.97c5.01 8.14 4.24 12.37-3.08 12.37 7.32 0 8.09-3.91 3.08-12.37zm-35.09 103.16c-.39 4.88-2.7 8.79-6.94 12.04 4.24-3.26 6.55-7.16 6.94-12.04zm16.96-.65c1.16 2.93-1.16 5.86-6.17 9.44 5.02-3.26 7.33-6.52 6.17-9.44zm-.38-50.44c-1.54-1.3-2.31-2.6-2.7-4.23-.39-1.3-.77-2.6-.39-4.23 0 1.63 0 2.93.39 4.23-2.7 7.48-6.94 12.37-11.95 14.32 5.4-1.95 9.25-6.83 11.95-14.32.39 1.62 1.16 2.93 2.7 4.23zm-.77 64.43c0 3.25-.77 6.18-3.86 8.46 5.01-1.3 8.48-4.56 11.18-8.14 9.64-3.25 29.3-30.59.39-21.8" class="W"/><path d="M549.49 450.266c-8.1-2.28-4.24-20.5-7.71-24.73-2.31-5.86 5.4-9.76 4.63-14.64" class="X"/><g class="W"><path d="M534.07 428.786c-1.16 7.16-.39 13.02 2.7 17.9-3.08-4.89-3.86-10.74-2.7-17.9zm-58.6-122.35c-1.16 8.79-7.33 14.64-16.58 18.87 11.95 2.93 18.89 2.6 21.98-8.46-1.93 3.9-.39 4.23-5.4 8.79-8.1 6.18-7.33 11.39-8.1 16.6 3.08-1.3 5.78-3.25 10.02-3.9-4.63 5.53-8.48 11.39-5.4 22.78l8.48-8.14c-5.78 9.44-4.24 17.25 0 25.06.77-4.56 10.41-8.46 8.87-15.94m10.8 28.94c-3.08 2.6-4.63 6.51-4.63 11.71-8.1-8.14-6.94-14.64-.77-20.83"/><path d="M488.96 366.956c-.77 3.25-5.4 10.41 3.08 16.92.39-2.28-.77-2.93 5.01-10.74"/></g><path d="M554.51 483.456v74.84m-18.9-78.75l13.88-19.52c4.24-5.86 7.71-2.28 8.87 0m-4.62 273.01v26.36m0-120.07v54.99m0-115.52v26.36" class="X"/><g class="W"><path d="M538.7 277.146c-2.7-1.95-3.86-4.23-3.86-6.51 0 2.28 1.16 4.56 3.86 6.51.39-1.3 1.16-2.6 2.7-3.25-1.55.65-2.32 1.95-2.7 3.25zm-14.65 18.55c-6.55 3.58-9.64 8.14-9.25 13.34 1.93-1.63 4.24-2.28 6.94-1.95-3.86 3.25-5.4 6.18-5.01 9.44-.39-3.25 1.16-6.18 5.01-9.44-2.7-.33-5.01.33-6.94 1.95-.39-5.21 2.69-9.76 9.25-13.34zm-15.43-137a9.72 9.72 0 0 1 4.24 4.56c1.93-2.6 2.31-5.21.39-8.14 1.54 2.93 1.54 5.53-.39 8.14-.77-1.63-1.92-3.26-4.24-4.56zm8.87 9.76c3.08 2.28 5.01 4.56 5.78 7.48 2.31-3.58 2.7-7.16 1.54-10.74 1.16 3.58.77 7.16-1.54 10.74-.77-2.59-2.69-5.2-5.78-7.48zm-8.48 14.65c2.31-1.95 3.08-3.9 3.08-6.18 0 2.27-.77 4.23-3.08 6.18-.39-1.3-1.16-2.28-2.31-2.93 1.15.65 1.92 1.63 2.31 2.93z"/><path d="M523.28 242.006c4.24 1.63 6.94 3.58 8.1 6.18 2.31-4.56 1.54-9.11-1.93-13.02 3.47 4.23 4.24 8.46 1.93 13.02-1.55-2.6-4.25-4.56-8.1-6.18zm5.39 13.01c-1.85 1.19-3.09 2.94-3.47 4.88-1.54-2.28-1.93-4.56-1.16-6.51-.77 2.28-.39 4.56 1.16 6.51.38-1.94 1.62-3.68 3.47-4.88z" class="c"/></g><path d="M507.47 248.506c-2.7 2.6-3.86 6.18-3.86 10.74-6.94-7.48-6.17-13.67-1.16-18.87m7.33-22.45c-.77 2.93-4.63 9.76 2.7 15.62.39-2.28-.77-2.6 4.24-9.76" class="X"/><g class="W"><path d="M510.17 202.626c3.47.98 4.63 2.6 3.47 5.53 1.54-2.6.38-4.55-3.47-5.53-.39 3.25-2.31 6.18-5.78 7.81 1.16-3.25 1.16-6.51 0-9.44-1.54.33-3.08-.33-4.63-2.28-4.63.65-7.33-.98-9.25-5.21-1.16-2.6-1.16-5.21.39-7.81-1.54 2.28-1.54 4.88-.39 7.81 1.54 4.23 4.63 6.18 9.25 5.21-1.16-1.3-1.93-3.58-3.08-6.18.77 2.93 1.93 4.88 3.08 6.18 1.54 1.95 2.7 2.6 4.63 2.28 1.16 3.25 1.16 6.51 0 9.44 3.85-1.63 5.39-4.23 5.78-7.81.39-1.95 0-4.23-.77-6.83.77 2.6 1.15 4.88.77 6.83zm15.42 7.16c6.17 2.93 9.25 6.51 9.64 11.39-1.93-1.3-3.86-1.63-6.17-1.3 3.47 2.6 5.4 5.21 5.01 8.14 0-2.93-1.54-5.53-5.01-8.14 2.31-.65 4.24 0 6.17 1.3-.39-4.56-3.47-8.46-9.64-11.39z" class="c"/><path d="M509.01 132.016c3.47 6.18 2.7 10.09-1.93 11.71 4.63-1.95 5.4-5.85 1.93-11.71z"/><path d="M498.99 131.686c5.4 7.16 4.63 11.06-1.16 11.39 6.17-.32 6.55-4.23 1.16-11.39zm-8.1 93.4c-5.4 3.9-7.33 8.14-6.55 13.02 1.54-1.63 3.47-2.28 5.78-2.28-3.08 3.25-3.86 6.18-3.08 9.11-.77-3.25.39-6.18 3.08-9.44-2.31 0-4.24.65-5.78 2.28-.78-4.56 1.15-8.79 6.55-12.69z" class="c"/></g><path d="M523.66 183.756c1.54 2.93 6.55 8.79 1.16 15.94-.77-1.95 0-2.93-6.55-8.79m-25.84 15.63c-.77 2.28-3.47 7.81 2.31 12.37.39-1.63-.39-2.28 3.47-7.81m-5.01-40.68c-.77 2.28-3.47 7.81 2.31 12.37.39-1.63-.39-2.28 3.47-7.81m20.83-33.85c1.16 1.95 5.01 6.51.77 11.71-.77-1.63 0-1.95-5.01-6.51" class="X"/></g><g class="W"><path d="M439.22 126.806c-12.72.98-33.54 11.71-16.19 21.15 0-1.95.39-3.25 1.16-4.23 1.16-1.63 2.7-2.28 5.4-2.6 4.63-.98 9.64 1.63 15.04 5.21 5.4 3.9 15.42 3.58 22.75 5.21 3.85-6.51-20.83-14.97-28.16-24.74h0 0z" class="Y b"/><path d="M455.03 130.066c5.01-.98 13.88 2.6 20.43.65-1.93 2.93-3.47 7.48-14.27 6.51-5.39-.33-8.86-3.58-6.16-7.16z" fill="#e6e6e6" class="V"/></g><path d="M455.8 130.066c-1.93 0-3.86.33-4.63.65" class="V X"/></g><g class="W"><path d="M460.04 130.716c-1.93 0-3.47 1.3-3.47 2.93s1.54 2.93 3.47 2.93 3.47-1.3 3.47-2.93-1.54-2.93-3.47-2.93z"/><path d="M458.89 132.016c-1-.06-1.86.58-1.93 1.43a.67.67 0 0 0 0 .2c0 .9.86 1.63 1.93 1.63s1.93-.73 1.93-1.63c-.39-.98-1.16-1.63-1.93-1.63z" fill="#e3e4e5"/></g><path d="M469.3 158.376c-7.33.33-12.34 4.56-18.12 6.83-5.01 1.95-11.18 2.28-15.81 1.95.77 2.6 2.31 4.88 5.01 6.18 3.47.98 6.94.33 10.02-.65l8.48-2.6 9.64-2.6 6.55-7.81c.39-1.3-.39-.98-1.54-1.3-1.92-.33-3.46 0-4.23 0z" class="Y b d"/><path d="M549.89-.004h550v800h-550v-800z" fill="#0c1c8d"/><path d="M830.88 389.136l23.86-22.19-230.69-319.9-35.43-23.72 12.29 40.94 229.97 324.87z" class="Y a e"/><path d="M840.28 374.976l-244.79-342.1 245.87 340.95-1.08 1.15h0z"/><g class="Y a"><path d="M839.2 374.206l23.5-16.07c2.17 4.21-1.08 6.12-2.53 11.1-3.98 13.78 27.84 61.61 45.2 93.37 3.62 8.04 6.87 8.42-1.45 15.69-7.23 7.65-18.08 6.12-23.5-3.44-19.16-28.32-37.6-76.15-50.26-73.85-3.98.77-5.79 4.21-8.32.38l17.36-27.18h0z" class="f"/><g class="e"><path d="M792.92 398.696c6.51-6.89 15.55-6.12 20.25 1.91.36.77.72 1.53 1.08 2.68l19.16-19.9 2.17-16.07 11.93 1.15 31.1-32.53c6.51-6.89 15.55-6.12 20.25 2.3 4.7 8.04 2.89 20.28-3.98 27.55-6.51 6.89-15.55 6.12-20.25-1.91-.36-.77-.72-1.53-1.08-2.68l-18.8 19.9-2.17 16.45-11.93-1.15-30.73 32.53c-6.51 6.89-15.91 6.12-20.25-1.91-5.43-9.19-3.62-21.43 3.25-28.32h0z"/><path d="M887.65 334.796c3.25 0 6.51 1.53 8.68 5.36 3.62 6.51 2.17 16.45-3.25 22.19s-12.66 4.97-16.27-1.53c-.36-.38-.72-1.15-.72-1.91-.72-1.91-2.17-2.3-3.62-1.53l-.36.38-18.8 19.9c-.72.77-1.08 1.53-1.08 2.3l-1.81 13.01-9.76-1.15c-.72 0-1.45.38-1.81.77l-30.73 32.53c-5.42 5.74-13.02 4.97-16.27-1.53-3.62-6.51-2.17-16.07 3.25-22.19 5.42-5.74 12.66-4.97 16.27 1.53.36.38.72 1.15.72 1.91.72 1.91 2.17 2.3 3.62 1.53l.36-.38 19.16-19.9c.72-.77 1.08-1.53 1.08-2.3l1.81-12.63 9.4 1.15c.72 0 1.45-.38 1.81-.77l30.73-32.53h0c1.45-1.53 2.89-2.3 4.34-3.06 1.08-.77 2.17-1.15 3.25-1.15h0z"/></g></g><path d="M868.85 366.556l14.46-.38c3.62.38 6 2.76 6.36 3.14 3.98 4.97 4.09 12.9 4.09 12.9l8.71 3.86s5.03 7.5 1.08 14.54l-.36 5.74 3.25 1.53s3.87 8.72-3.54 20.13c1.07.79 2.27 1.36 3.54 1.68 1.41 1.07 1.81 4.59 1.81 4.59v1.91c0 1.53-.72 3.83-1.45 6.12-.36.77-.72 1.15-1.08 1.91h0c-.36.77-.72 1.15-1.08 1.91h0c-.72 1.15-1.45 2.3-2.17 3.06h0c-1.08 1.53-3.25 3.06-4.34 4.21h0c-.36.38-2.89 1.91-2.89 1.91-1.12 3.33-7.81 6.28-10.23 4.02-3.8-3.56-2.42-8.04-2.42-8.61 0-1.53 1.81-7.27 1.81-7.27l-3.98 1.53c-2.53.38-7.38 0-8.46-1.91-.36-.38-.87-1.42-.87-2.18-.36-.77.29-2.03.65-3.18l.36-1.53c.36-1.15-.36-1.53.36-3.06v-2.3l-2.53-2.68c-.36-.77-.72-1.53-.72-2.68 0-1.53-.18-2.53.54-4.82.36 0-2.35-2.83-2.35-2.83l-1.08-3.83c0-.38-.36-4.21-.36-4.59l4.7-11.86-1.99.38c-2.17.77-6.29 1.84-8.1 1.84-1.45 0-2.96 8.46-3.69 10.37l-3.11 7.65 4.66 13.51-.65 5.51c1.81 4.59 16.85 30.34 16.56 30.92-6.15 12.02-12.94 16.49-23.61 21.24-1.81.77-16.63 9.95-17.36 11.1-7.23 4.21-11.93 8.8-18.44-4.97-6.87-8.8-9.4-35.97 2.53-55.49 0 0 3.98-1.53 5.06-5.36 0-14.54 10.12-27.93 13.74-37.5 0-.38.54-3.06 3.43-6.51 1.08-1.15 5.64-3.02 5.64-3.02 3.98-4.59 7.56-9.6 7.92-9.6l3.91-.08 1.84.19 9.85-11.16h0 0z" fill="#ec8e78"/><path d="M888.37 368.086l4.12 5.51s1.95 5.32.94 10.29c-.61 2.98-7.77 18.71-7.77 18.71l-3.22 8.07c-1.12 2.1-5.32 7.92-5.32 7.92l-2.1 1.72-1.66-.46-3.11.46-1.41 4.4c.51 2.45 1.95 1.61 3.65.92.69-.27 1.77-1.95 2.49-1.95 1.74-.23 3 .73 3.91.38 2.13-.8 2.17-1.61 3.69-2.41 3.98-3.06 6.87-6.51 8.68-10.71 7.23-7.65 10.49-16.45 9.76-23.34l-.33-2.14s3.44 2.76 4.05 6.12c.8 4.25-.83 8.65-.83 8.65l-3.25 9.18-7.23 10.33-11.03 7-1.27 1.8-4.34 1.95-4.12.31-1.3 6.12s1.08-1.53 5.24-1.68c1.41-.04 5.57 2.91 5.57 2.91 4.34-.77 5.1-3.9 7.99-6.2 11.57-5.74 14.46-15.69 16.99-21.43 0 0 1.95 7.04-3.54 16.03-1.16 1.88-5.32 7.04-5.32 7.04l-8.28 7.81-5.28 3.6s-1.59 1.88-1.81 2.68c-1.55 5.63-.54 7.77-.54 7.77l1.63-2.03c3.04-3.41 6.58-2.64 6.58-2.64 9.76-2.68 15.11-11.59 16.92-19.25 0 0 .69 3.52 0 8.42-.94 6.58-7.95 12.82-7.95 12.82l3.98 6.58c-5.24 0-9.91 4.63-14.1 6.31-4.34 1.15-6.87-.77-9.04-4.59-2.89-4.21-1.45-7.27-1.45-11.1-2.89-1.15-11.57 3.06-9.4-11.48-1.45-3.83-2.89-4.21-2.17-10.71l-2.89-4.97c-2.21 1.68-4.99 2.49-7.81 2.37-.4 0 2.39 10.06 2.39 10.06l-.65 13.28c-.18 5.47-4.23 11.98-4.3 11.9-2.35-2.1-3.15-2.49-6.62-2.83 1.81-3.83 0-6.89-.72-9.95 7.23-8.04 3.62-18.75 3.25-28.32v-2.3l4.7-10.71 2.17-8.04c2.89.38 5.42-.38 7.95-1.15 7.23-3.44 11.21-8.04 15.91-12.63l3.69-3.37-1.52 6.05c-1.12 4.82-6.87 7.12-12.29 10.56l-3.33 5.51-1.84 7.65.47 3.86c2.17 2.3 4.34.34 5.42.34 0 0-.18-.42 1.88-4.25.51-.96 2.06-2.76 2.06-2.76 1.08-2.3 2.21-3.29 4.01-5.2 5.8-13.36 11.95-26.37 9.05-34.79h0 0zm-14.35 97.92l-1.55 4.25-3.62 7.27-8.68 7.65-9.04 4.21-3.98.77-8.71 7.73-13.78 6.96-4.16-9.45-2.21-8.61 3.18-.42c10.12-1.15 23.14-7.65 24.59-14.16 3.62.38 6.87 5.36 11.93-2.68 5.13-8 5.42-16.68 4.19-25.71-.06-.54 11.84 22.19 11.84 22.19h0z" fill-opacity=".294"/><path d="M869.21 366.176c1.81-.77 4.7-1.15 9.04-1.15 4.34-.38 7.95.38 11.21 3.44 3.62 3.06 4.7 8.04 4.7 13.39 4.34.77 9.04 3.06 10.49 7.27 2.17 5.36.36 9.95-1.08 15.31 6.51 4.21 5.42 14.92.72 22.96 2.89 1.15 4.7 4.21 4.34 8.04 0 6.89-3.62 12.25-6.87 16.07-1.81 1.91-3.98 3.44-6.51 5.36-4.34 5.74-13.02 4.21-13.02-.77-1.81-2.68-.36-7.65 1.08-11.1-.36.38-.72 0-1.45 0-3.62 1.91-8.68.77-10.85-1.91-1.08-1.53-1.08-3.83 0-6.12-.36-1.53.18-4.63.9-5.78-.36 0-.9-.34-.9-.34-3.25-1.91-3.62-6.12-2.17-10.33-.72-.38-1.81-1.15-2.17-1.53-3.62-5.36-1.45-14.92 2.53-20.66-2.53 1.15-6.87 2.3-9.04 2.3-.36 1.53-.36 2.68-1.45 4.59-.72 1.91-.72 4.97-1.45 6.51-.36 2.3-1.81 4.59-2.89 6.51 1.81 3.44 3.62 7.65 4.7 11.48.72 2.68.36 6.12.36 8.8l8.32 14.54c1.45 3.06 2.89 5.36 4.34 8.04 1.45 2.3.72 2.3 1.08 2.68.72 1.15 2.53 2.3 2.17 3.83-4.34 12.63-14.82 21.81-27.48 24.49-5.06 4.59-12.33 8.11-15.91 10.14l-1.66-1.57c5.79-2.37 11.06-6.62 16.85-10.83 11.57-4.59 20.25-6.89 26.4-23.72l-13.38-25.64c0 8.04-2.53 15.31-6.51 21.05 3.62-6.89 5.06-16.84 4.7-24.11-.36-1.91-.36-3.83-1.08-6.12-.72-3.83-2.17-7.27-3.62-10.33-.36-.77-1.08-1.15-1.45-1.53-1.45-.38-2.89-1.53-3.98-2.68 1.45.77 3.25.77 4.7.38 1.45-1.15 2.17-3.83 2.89-5.74.36-1.91 1.08-3.44 1.81-5.74 4.34-10.33-2.17-2.68-1.08-9.18 1.08 1.53 2.53 2.68 4.7 2.68 2.89 0 6.51-1.15 9.76-2.68 1.45-.77 3.07-1.19 4.52-2.33 2.17-1.15 4.16-2.79 5.6-4.71.36-.38.87-1.57 1.23-1.95.72-1.53.87-3.06 1.23-4.59-3.62 3.83-8.21 3.64-12.19 1.72-.36-.38-.36-1.15-.72-1.53-.72-1.53-.72-3.06-.72-4.97l-4.7 1.15h-1.81c-2.89 0-6.87-1.53-9.4-.77-.36 0-2.46 1.91-3.18 3.06-1.81 2.68-3.4 4.13-4.85 6.43-2.89.38-5.35 1.99-7.16 4.67l-2.53 4.21c-.36.77-.36 1.91-.36 2.68-3.62 9.57-12.29 21.81-13.02 36.35 0 1.91-1.08 2.68-2.17 3.44l-3.15 2.03-.69-1.95 3.11-1.95c.72-.38 1.34-1.53 1.45-2.3.72-15.69 9.76-27.93 13.02-36.35 1.08-2.68 2.17-4.97 3.25-6.89 2.17-3.06 4.7-4.21 7.59-4.97.72-1.15 1.81-2.3 2.53-3.06l2.17-3.44c1.08-1.15 2.17-2.3 3.25-2.68 2.53-1.15 7.23-.38 10.85.38 1.45 0 2.89-.38 3.98-.77 1.45-.38 2.17-.38 3.62-.77 2.89-1.53 6.15-3.06 9.04-2.3 2.89.77 5.42 3.83 4.7 6.51v1.53c0 1.15-.76 3.06-1.12 4.21-1.45 4.21-4.7 6.89-7.59 8.8-1.45.77-3.8 1.61-5.24 2.76-2.53 3.06-3.58 6.43-4.66 9.11-2.17 6.51 1.27 14.54 5.97 12.24-1.08-1.15-1.45-2.68-1.81-4.21 2.1-7.81 8.97-11.98 11.03-5.24.04.08 1.48-3.06 2.21-4.97 2.17-8.04 7.01-13.89 8.46-21.54 1.08-5.36 0-9.57-3.25-12.63-2.89-3.06-7.38-3.94-10.99-3.56-2.89 0-9.62.19-12.15 1.72l2.86-2.87h0 0 0zm2.82 11.44c-.36 2.3-.51 4.17.22 5.32 3.62 2.3 8.1 1.19 11.72-2.64 0-4.52-4.34-4.97-4.34-4.97-1.09-.01-4.67.83-7.6 2.29zm21.77 6.92c-2.53 7.65-6.15 13.39-8.68 20.66-.72 2.3-3.25 7.27-3.25 7.27-1.45 3.06-5.42 8.8-7.59 8.42-.36 0-.72-.38-.72-.77-1.08.38-1.81.38-2.53.38-1.45 3.83-2.17 7.27.72 9.18 0-1.53 0-3.44.72-4.59 2.17-3.44 7.23-2.3 10.12.77 5.79-3.83 11.93-7.27 15.91-14.16 2.53-3.83 4.34-8.8 5.42-13.39.72-3.06.72-5.74-.36-8.42-2.53-4.58-6.51-5.35-9.76-5.35zm-21.84 30.69c.72 2.3 1.23 3.75 2.68 4.52 2.53-1.15 5.06-4.59 6.15-8.42-.72-2.68-1.23-3.75-2.68-3.75-.37-.38-5.32 3.33-6.15 7.65zm30.52-8.88h0l-2.53 5.36c-3.98 8.04-10.85 12.63-17.72 16.07-1.45 2.3-6.87 3.83-8.68 3.44-1.45 1.91-1.45 3.44-1.08 4.21 5.79-2.68 12.29 1.15 10.49 7.65 14.09-2.67 31.81-30.6 19.52-36.73h0zm-27.66 18.07c-.72.38-1.27 1.07-1.63 1.84s-.72 2.3-.36 3.83c2.89 0 6.29-.38 8.97-3.41-1.81-1.54-4.31-3.34-6.98-2.26zm28.23 4.4c-3.25 4.59-9.36 11.02-13.34 13.32-2.17 1.15-3.54 1.72-4.63 4.02-1.81 2.68-2.53 5.74-2.17 8.8 1.45-4.21 5.79-4.97 8.32-4.97s4.34 1.15 4.7 4.59c6.15-4.59 11.21-9.57 11.57-18.37.04-4.98-1.91-7.39-4.45-7.39zm-28.42 7.76c-.72 0-1.08.38-1.81.38-.72 1.53-1.45 3.06-1.08 4.21.72 3.83 7.59 4.59 10.49 2.68 1.08-6.12-3.26-8.03-7.6-7.27h0 0zm14.47 14.55c-.72 0-1.45.38-2.17.77-2.17.77-3.94 3.37-3.22 4.9 3.22 5.43 10.45 1.22 11.17-1.84-.36-2.3-1.45-3.83-2.89-3.83h-2.89 0z"/><g class="Y a f"><path d="M924.89 470.636c-7.23-12.25-22.06-14.92-32.54-6.12-10.49 8.8-13.38 25.64-6.15 37.88s22.06 14.92 32.54 6.12c10.85-8.8 13.75-25.63 6.15-37.88h0z"/><path d="M914.05 479.436c-3.25-5.36-9.4-6.51-13.74-2.68s-5.79 10.71-2.53 16.07c3.25 5.36 9.4 6.51 13.74 2.68 4.33-3.44 5.42-10.71 2.53-16.07z"/></g><path d="M574.13 450.206c3.51 5.43 21.91 32.1 26 37.92 8.06 11.14 7.27 19.94 21.77 45.34 39.23 68.76 66.39 56.02 66.39 56.02s22.49-2.72 60.78-30.12c22.71-16.22 43.9-33.44 53.26-39.26 2.68-1.61 26.68-6.2 26.68-6.2-19.45-32.45-14.07-61.57-11.72-71.86.69-2.83-.83-2.83-.83-2.83l-42.16 25.41-14.28 6.58-42.02 6.93c-4.7 1.88-10.2 2.49-13.23 4.32-4.92 2.98-6.07 6.7-6.07 6.7-3.04-4.82-4.7-15.84-6.33-20.93-3.04-9.91-4.09-11.4-6.8-18.94-.69-1.88-7.74-12.9-8.53-15.38-.58-1.88-12.29-32.95-12.29-32.95-.47-28.62-16.27-42.86-16.27-42.86s-15.44-49.94-42.16-90.8c-32.22-49.21-56.6-29.01-56.6-29.01l-.56 164.18c-.01 0 16.79 35.07 24.97 47.74z" class="a"/><path d="M661.59 485.986c-42.74-16.99-65.55-66.54-65.55-66.54 29.39 87.35 65.55 66.42 65.55 66.54zm162.17 17.1c-3.62-9.3-28.46-2.49-28.46-2.49-11.72 5.32-19.78 13.39-37.71 29.12-6.44 7.65-14.93 13.97-24.26 18.75-18.77 6.58-27.62-7.35-25.38-9.22 8.21-7.19-2.1-29.85-4.81-47.33 0 0-4.45 9.68-6.8 22.04-.36 1.61.11 9.03 0 10.79-1.63 23.95-11.79 32.3-21.8 29.89-3.07-1.38-5.89-3.06-8.28-5.2-40.97-36.81-66.39-87.09-84.18-133.09-5.6-14.62-12.66.23-18.51-23.92l.07-6.54c.18-.99.22-1.91-.04-2.83-.25-18.83-2.82-43.47-12.58-61.88l-1.59-2.73-.6 81.28c7.59 42.36 22.55 47.8 39.4 75.47 3.4 5.59 5.86 5.82 6.33 6.7.58.99 6.33 15.84 6.91 16.99 7.38 12.13 8.06 16.84 20.36 34.55 11.61 16.84 20.03 31.95 29.87 40.91 0 0 6.33 17.72 13.13 20.09 12.51 4.21 37.24-.38 85.8-29.62l78.54-50.93c-.02-.01-4.83-9.19-5.41-10.8h0zm-163.32 19.09s6.33-5.43 10.78-7.42c9.4-4.21 14.93-7.58 19.27-11.75-6.65 9.8-13.67 21.47-13.16 26.37.94 9.18 10.41-3.71 10.41-3.71-5.39-.88 13.92-38.15 13.92-38.15-5.97-3.98-28.93-6.93-28.93-6.93 12.37 11.17 20.47 11.17 24.88 9.57-10.35 6.77-36.89 24.95-37.17 32.02h0z" fill="#c4c8c9"/><path d="M699.67 530.216c-1.41 17.83-9.15 34.94-21.08 47.45-.94 1.11-2.35 2.1-3.62 2.1-.22.11-.47 0-.58 0-.22-.11-.47-.23-.58-.38-.36 0-.58-.11-.83.23 0 .11-.11.61.47 1.38.36.38.83.61 1.41.73 2.57.5 4.92-1.61 6.54-3.6 11.72-12.63 19.2-30 20.61-47.72.47-5.82.22-11.9-.36-17.72-.36-4.71.22-6.81.36-7.92.11-1.11-.11-1.22-.36-1.38-.22-.11-.58-.23-1.16.88s-1.52 3.83-1.05 8.69l.22 4.21a87.46 87.46 0 0 1 .01 13.05h0 0 0zm-47.44-47.95c4.23 2.37 8.89 4.97 9.36 3.6.11-.38.22-.61-.83-1.38-23.29-12.13-45.67-32.22-59.01-56.52-2.57-4.32-4.09-8.92-5.75-8.53-.22.11-.47.23-.11 1.49 11.28 25.41 32.94 47.84 56.34 61.34zm88.77 64.67c6.44-6.81 36.77-34.32 48.92-42.02 6.8-3.83 6.54-4.21 6.33-4.82-11.14-.5-51.38 40.03-51.85 40.26-2.82 2.72-5.5 5.59-4.56 6.81.21.27.43.42 1.16-.23h0zm-193.05-306.7c1.37-.88 3.76-2.45 5.24-2.91 45.41-14.12 78.21 80.89 92.38 115.1-11.35-14.62-19.31-35.05-34.89-45.23-1.63-.99-1.88-.73-1.99-.5-.22.23-.36.61 1.05 1.88 1.05.99 2.1 1.88 3.4 3.1 8.68 7.69 15.8 19.71 22.24 30 6.69 12.13 17.79 21.2 23.54 33.83 1.99 4.97 2.68 10.29 3.62 15.73 1.99 12.4 5.86 25.41 11.14 36.66-8.53-11.63-19.2-21.54-30.08-30.84-5.13-3.71-15.44-13.89-17.43-17.33-1.05-1.38-1.3-1.22-1.52-1.11s-.47.23.22 1.99c3.87 8.8 19.31 19.21 26.94 26.63 23.65 20.93 37.24 45.73 43.43 76.95-2.35-.61-22.71-6.58-22.6-3.6 0 .61-.11 1.11 3.04 1.61 7.74 1.11 15.44 2.98 22.82 5.59l-.94.99c-4.09 2.72-8.68 5.7-12.51 8.53-9.36 7.08-20.97 15.23-24.59 24.03-.11.88 0 .99.11.99s.22 0 .69-.61c6.8-10.18 22.13-20.43 33.48-28.39-7.16 9.03-12.29 19.71-16.63 30.5-1.3 2.72-2.82 5.93-1.52 9.03 1.52 3.1 4.7 1.22 6.22-.73 1.3-1.49 3.62-3.71 4.23-4.59 1.16-1.49 1.05-1.72.83-1.99-.83-.73-3.76 2.37-5.28 3.71-1.16.61-2.35 2.98-3.76 2.83-.83-.5-.36-3.1-.22-3.98 3.15-7.42 6.22-15.23 10.31-22.19 4.09-7.19 9.47-13.62 14.54-20.09h-.11 0l.11.11c2.24-1.99 4.92-3.71 7.85-4.32 16.27-4.09 33.27-7.08 49.86-9.03.11 0 .36-.11.36-.23 10.41-1.49 10.3-1.99 10.3-2.49 0-.38 0-.73-3.87-.5 16.85-7.31 32.43-18.33 48.23-28.01l.11-.11h.11c-6.91 24.41-.47 51.05 11.35 72.59-30.92 21.43-62.41 41.86-95.06 60.23-20.03 10.29-42.27 24.03-65.23 20.7-10.78-5.2-13.7-20.43-18.15-30.23-1.41-3.1-2.35-4.59-2.93-5.2s-.69-.61-.83-.5c-.11.11-.22.23 0 .99 1.05 2.37 3.4 8.69 4.7 12.63-3.04-2.83-6.69-8.92-9.26-13.13-11.35-16-29.29-44.85-39.7-64.17-2.35-5.32-5.5-12.9-7.16-18.44-2.1-6.2-3.15-13.74-4.56-13.51-1.41.88 1.05 9.68 2.93 15.5-7.01-9.68-13.13-20.2-18.26-31.11-5.86-13.39-7.74-28.24-8.89-42.86-.69-10.91-.36-36.93-1.88-43.51-.58-3.1-.83-2.98-1.16-2.98-.36 0-.58.11-.47 3.1 1.05 26.75-1.16 68.04 13.34 93.67-12.4-13.13-16.99-21.54-21.08-39.64-.9-3.75-1.48-6.01-1.95-7.31-.69-1.99-4.41-14.62-4.41-14.62-.11-.65-.11 6.93-.11 6.93.69 3.9 3.36 11.98 4.23 15.65 2.68 11.79 6.8 23.53 14.64 32.6 7.85 8.69 14.97 17.49 20.97 27.74 3.15 4.71 3.87 6.08 5.97 7.31.36.38.83.99.94 1.22 8.42 22.19 21.3 42.13 34.78 61.23l14.28 21.43c2.24 3.48 5.03 6.7 8.06 8.69 2.93 7.92 6.91 16.99 15.11 20.59 23.76 3.71 46.46-9.91 67.07-20.7 33.27-18.6 65.34-39.53 96.72-61.45 3.4-2.1 2.68-7.69 2.57-11.14h0 0c0-1.22-.22-2.49-.58-3.71-2.24.61-5.39 2.49-7.48 3.48-4.34-9.41-7.48-19.71-8.79-30.12-1.16-9.8-.94-19.94 1.63-29.5.11-.61.47-1.72.58-2.22.69-1.99-1.63-3.1-3.04-2.49-.22 0-.36 0-.47.11l-.22.11-.11.11c-13.13 7.92-26 16.84-39.45 23.92l-14.97 6.93c-17.68 2.6-35.58 4.97-52.79 10.18-.58.11-1.05.61-1.52.88-.83.61-1.77.99-2.68 1.72-.22.38-.69.61-1.05.99-.22.23-.36.38-.47.61l-1.16 1.22c-1.05-.5-2.46-.88-3.62-1.22-1.05-15.61-9.83-37.42-19.09-50.93-.22-2.6-2.35-6.43-3.51-9.8-4.23-10.41-7.48-21.54-9.26-32.83-1.88-15.11-6.07-23.04-15.91-34.21-11.82-33.44-50.48-139.9-96.36-120.92-1.19.61-3.29 1.76-4.66 2.68l-.05 1.7h0z"/><path d="M831.03 506.956c0 1.49-.11 2.98-.58 4.21-.36.88-.58 1.22-.83 1.49-.11-.5-.36-1.22-.94-2.37l-2.46-5.09 4.56-2.37.11.73.11 1.11v2.3l.03-.01z" fill="#c4c8c9"/><path d="M703.54 496.386c-1.41-5.2-.94-5.32-.36-5.43.58-.23 1.16-.38 2.46 4.82l4.45 19.44 1.99 9.8c.36 1.67.59 3.38.69 5.09.11 1.8-.12 3.61-.69 5.32-.36 1.11-.94 2.14-1.77 2.98-.58.61-1.05.88-1.41 1.11-.69.23-.83 0-1.05-.23-.11-.23-.22-.5.11-.99.33-.5 1.16-1.22 1.99-3.48.94-2.72.58-5.93-.11-9.18l-1.99-9.68-4.31-19.57h0 0 0z"/></svg>