<svg xmlns="http://www.w3.org/2000/svg" width="1200" height="800"><style><![CDATA[.E{stroke:#020203}.F{stroke-width:3.248}.G{fill:#ffd01e}.H{fill:#28326d}.I{fill:#dc9e00}]]></style><path d="M.04 0h1200v800H.04z" class="H"/><g transform="matrix(.535253 0 0 .583129 -375.917419 413.842456)" class="E F"><g transform="matrix(.996667 0 0 .83 -183.4789 -594.74764)"><g class="G"><path d="M1099.09 117.61l112.43 244.34h552.95c41.32-80.79 72.98-163.17 113.77-244.34l-141.19 135.64-13.07-216.84-149.9 199.31-77.57-223.3-85.41 223.3-136.83-199.3-26.15 216.84-149.03-135.65z"/><use href="#B"/><path d="M1488.43 308.78c-107.64.31-204.35 23.97-273.82 61.94-4.63 2.57-9.53-.79-11.03-8.88-1.5-8.11.99-17.41 5.62-20.04 69.77-39.54 168.98-64.36 279.25-64.78 110.3.37 209.88 25.24 279.67 64.78 4.63 2.62 7.12 11.93 5.62 20.04-1.51 8.09-6.41 11.45-11.03 8.88-69.47-37.97-166.6-61.64-274.27-61.95m.28 265.42c-98.29-.27-186.35-21.76-249.18-56.73-4.6-2.58-7.01-10.36-6.74-18.41-.08-7.83 2.29-14.92 6.74-17.4 62.84-34.92 150.89-56.41 249.18-56.68 98.28.27 186.27 21.77 249.12 56.68 4.45 2.48 6.78 9.57 6.7 17.4.24 8.05-2.13 15.83-6.7 18.41-62.84 34.97-150.83 56.47-249.12 56.73"/></g><path d="M1488.45 550.36c-88.71-.21-168.88-19.13-229.91-48.26 61.03-29.18 141.21-47.01 229.91-47.32 88.69.31 169.3 18.14 230.32 47.32-61.03 29.13-141.63 48.05-230.32 48.26" class="I"/><g class="G"><use href="#C"/><use href="#D"/><use href="#E"/></g><path d="M1488.64 391.59c-17.08 0-30.86-10.98-30.86-24.51s13.78-24.56 30.86-24.56c17.09 0 30.92 10.98 30.92 24.56 0 13.54-13.83 24.51-30.92 24.51m265.38 11.67c-1.45-.98-2.7-2.19-4.24-3.02-16.39-8.84-31.3-5.43-33.35 7.56s9.49 30.74 25.88 39.59c.99.53 1.89.59 2.86 1.04 1.31-1.81 2.67-3.35 3.84-5.48 1.08-1.97 2.08-4.1 2.92-6.33.83-2.23 1.48-4.62 1.94-7.09.47-2.49.77-5.17.92-7.94s.19-5.63.1-8.5c-.11-3.38-.55-6.55-.87-9.83h0zm-531.79 0c1.45-.98 2.7-2.19 4.25-3.02 16.39-8.84 31.3-5.43 33.35 7.56s-9.49 30.74-25.88 39.59c-.99.53-1.89.59-2.86 1.04-1.31-1.81-2.67-3.35-3.84-5.48-1.08-1.97-2.08-4.1-2.92-6.33-.83-2.23-1.48-4.62-1.94-7.09-.47-2.49-.77-5.17-.92-7.94s-.19-5.63-.1-8.5c.09-3.38.53-6.55.86-9.83h0z" class="H"/></g><g transform="matrix(.996667 0 0 .83 -183.478871 -594.74764)"><g class="G"><path d="M2150.73 117.61l112.43 244.34h552.95c41.32-80.79 72.98-163.17 113.77-244.34l-141.19 135.64-13.07-216.84-149.91 199.31-77.57-223.3-85.41 223.3-136.83-199.3-26.15 216.84-149.02-135.65z"/><path d="M2539.47 424.82c-99.47.36-188.75 23.39-251.59 59.14 5.22-4.58-2.5-45.58-8.99-76.49-7.85-37.39-19.37-42.91-19.37-42.91 69.48-37.91 172.74-64.65 280.37-64.91 107.68.25 211.47 26.13 280.96 64.04 0 0-13.74 8.3-21.59 45.69-6.49 30.9-11.77 70-6.54 74.58-62.83-35.75-153.78-58.79-253.25-59.14"/><use href="#F"/><path d="M2540.36 574.19c-98.29-.27-186.35-21.76-249.18-56.73-4.6-2.58-7-10.36-6.74-18.41-.08-7.83 2.29-14.92 6.74-17.4 62.84-34.92 150.89-56.41 249.18-56.68 98.28.27 186.27 21.77 249.12 56.68 4.45 2.48 6.78 9.57 6.7 17.4.24 8.05-2.13 15.83-6.7 18.41-62.85 34.97-150.84 56.47-249.12 56.73"/></g><path d="M2540.09 550.36c-88.71-.21-168.88-19.13-229.91-48.26 61.03-29.18 141.21-47.01 229.91-47.32 88.69.31 169.3 18.14 230.32 47.32-61.03 29.13-141.64 48.05-230.32 48.26" class="I"/><g class="G"><path d="M2540.25 402.82c-22.99 0-41.54-16-41.54-35.72s18.55-35.79 41.54-35.79c23.02 0 41.63 16 41.63 35.79 0 19.71-18.61 35.72-41.63 35.72"/><use href="#D" x="1051.64"/><path d="M2274.22 391.08c.78-.47 1.4-1.17 2.2-1.61 22.07-11.91 42.32-6.08 45.32 12.85 2.98 18.85-12.3 43.59-34.22 55.56-1.1-2.49-2.3-4.54-3.32-7.18-1.55-3.97-3.01-8-4.25-12.19s-2.24-8.47-3.02-12.76c-.73-4.03-1.31-8.16-1.74-12.19s-.73-7.93-.92-11.81c-.2-3.86-.04-7.09-.05-10.67h0z"/></g><path d="M2540.27 391.59c-17.08 0-30.86-10.98-30.86-24.51s13.78-24.56 30.86-24.56c17.09 0 30.92 10.98 30.92 24.56 0 13.54-13.82 24.51-30.92 24.51m265.38 11.67c-1.45-.98-2.7-2.19-4.24-3.02-16.39-8.84-31.3-5.43-33.35 7.56s9.49 30.74 25.88 39.59c.99.53 1.89.59 2.86 1.04 1.31-1.81 2.67-3.35 3.84-5.48 1.08-1.97 2.09-4.1 2.92-6.33s1.48-4.62 1.94-7.09c.47-2.49.77-5.17.92-7.94s.19-5.63.1-8.5c-.1-3.38-.54-6.55-.87-9.83h0zm-531.78 0c1.45-.98 2.7-2.19 4.25-3.02 16.39-8.84 31.29-5.43 33.35 7.56 2.05 12.99-9.49 30.74-25.88 39.59-.99.53-1.89.59-2.86 1.04-1.31-1.81-2.67-3.35-3.84-5.48-1.08-1.97-2.08-4.1-2.92-6.33-.83-2.23-1.48-4.62-1.94-7.09-.47-2.49-.77-5.17-.92-7.94s-.19-5.63-.1-8.5c.09-3.38.53-6.55.86-9.83h0z" class="H"/></g><g transform="matrix(.996667 0 0 .83 -183.478871 -680.047174)"><g class="G"><path d="M1624 906.82l112.43 244.34h552.95c41.32-80.79 72.98-163.17 113.77-244.34l-141.19 135.64-13.07-216.84-149.91 199.31-77.57-223.3-85.41 223.3-136.83-199.31-26.15 216.84L1624 906.82z"/><use href="#B" x="524.91" y="789.2"/><use href="#F" x="-526.73" y="789.2"/><path d="M2013.63 1363.4c-98.29-.27-186.35-21.76-249.18-56.73-4.6-2.58-7.01-10.36-6.74-18.41-.08-7.83 2.29-14.92 6.74-17.4 62.84-34.92 150.89-56.41 249.18-56.68 98.28.27 186.27 21.77 249.12 56.68 4.45 2.48 6.78 9.57 6.7 17.4.24 8.05-2.13 15.83-6.7 18.41-62.84 34.96-150.83 56.46-249.12 56.73"/></g><path d="M2013.36 1339.56c-88.71-.21-168.88-19.13-229.91-48.26 61.03-29.18 141.21-47.01 229.91-47.32 88.69.31 169.3 18.14 230.32 47.32-61.03 29.14-141.63 48.05-230.32 48.26" class="I"/><g class="G"><use href="#C" x="524.91" y="789.2"/><use href="#D" x="524.91" y="789.2"/><use href="#E" x="524.91" y="789.2"/></g><path d="M2013.55 1180.8c-17.08 0-30.86-10.98-30.86-24.51s13.78-24.56 30.86-24.56c17.09 0 30.92 10.98 30.92 24.56 0 13.53-13.83 24.51-30.92 24.51m265.38 11.67c-1.45-.98-2.7-2.19-4.24-3.02-16.39-8.84-31.3-5.43-33.35 7.56s9.49 30.74 25.88 39.59c.99.53 1.89.59 2.86 1.04 1.31-1.81 2.67-3.35 3.84-5.48 1.08-1.97 2.09-4.1 2.92-6.33s1.48-4.62 1.94-7.09c.47-2.49.77-5.17.92-7.94s.19-5.63.1-8.5c-.11-3.39-.55-6.56-.87-9.83h0zm-531.79 0c1.45-.98 2.7-2.19 4.25-3.02 16.39-8.84 31.3-5.43 33.35 7.56s-9.49 30.74-25.88 39.59c-.99.53-1.89.59-2.86 1.04-1.31-1.81-2.67-3.35-3.84-5.48-1.08-1.97-2.08-4.1-2.92-6.33-.83-2.23-1.48-4.62-1.94-7.09-.47-2.49-.77-5.17-.92-7.94s-.19-5.63-.1-8.5c.09-3.39.53-6.56.86-9.83h0z" class="H"/></g></g><defs ><path id="B" d="M1487.84 424.82c-99.47.36-188.75 23.39-251.59 59.14 5.22-4.58-2.5-45.58-8.99-76.49-7.85-37.39-19.37-42.91-19.37-42.91 69.48-37.91 172.74-64.65 280.37-64.91 107.68.25 211.47 26.13 280.96 64.04 0 0-13.74 8.3-21.59 45.69-6.49 30.9-11.77 70-6.54 74.58-62.84-35.75-153.79-58.79-253.25-59.14"/><path id="C" d="M1488.62 402.82c-22.99 0-41.54-16-41.54-35.72s18.55-35.79 41.54-35.79c23.02 0 41.63 16 41.63 35.79 0 19.71-18.62 35.72-41.63 35.72"/><path id="D" d="M1753.66 391.08c-.78-.47-1.4-1.17-2.2-1.61-22.07-11.91-42.32-6.08-45.32 12.85-2.98 18.85 12.3 43.59 34.22 55.56 1.1-2.49 2.3-4.54 3.32-7.18 1.55-3.97 3.01-8 4.24-12.19 1.24-4.19 2.24-8.47 3.02-12.76.73-4.03 1.31-8.16 1.74-12.19s.73-7.93.92-11.81c.2-3.86.04-7.09.06-10.67h0z"/><path id="E" d="M1222.58 391.08c.78-.47 1.4-1.17 2.2-1.61 22.07-11.91 42.32-6.08 45.32 12.85 2.98 18.85-12.3 43.59-34.22 55.56-1.1-2.49-2.3-4.54-3.32-7.18-1.55-3.97-3.01-8-4.25-12.19s-2.24-8.47-3.02-12.76c-.73-4.03-1.31-8.16-1.74-12.19s-.73-7.93-.92-11.81c-.19-3.86-.03-7.09-.05-10.67h0z"/><path id="F" d="M2540.07 308.78c-107.64.31-204.35 23.97-273.82 61.94-4.63 2.57-9.53-.79-11.03-8.88-1.5-8.11.99-17.41 5.62-20.04 69.77-39.54 168.98-64.36 279.25-64.78 110.3.37 209.88 25.24 279.67 64.78 4.63 2.62 7.13 11.93 5.62 20.04-1.51 8.09-6.41 11.45-11.03 8.88-69.47-37.97-166.59-61.64-274.27-61.95"/></defs></svg>