<?xml version="1.0" encoding="UTF-8"?>
<!-- Created with Inkscape (http://www.inkscape.org/) -->
<svg id="svg31" width="4e3" height="2700" version="1.1" viewBox="0 0 1058.3 714.38" xmlns="http://www.w3.org/2000/svg" xmlns:cc="http://creativecommons.org/ns#" xmlns:dc="http://purl.org/dc/elements/1.1/" xmlns:rdf="http://www.w3.org/1999/02/22-rdf-syntax-ns#">
 <title id="title995">Vestfold og Telemark fylke, flagg</title>
 <metadata id="metadata28">
  <rdf:RDF>
   <cc:Work rdf:about="">
    <dc:format>image/svg+xml</dc:format>
    <dc:type rdf:resource="http://purl.org/dc/dcmitype/StillImage"/>
    <dc:title>Vestfold og Telemark fylke, flagg</dc:title>
    <dc:date/>
   </cc:Work>
  </rdf:RDF>
 </metadata>
 <g id="layer1" transform="translate(399.14 163.2)">
  <path id="rect33" d="m-399.14-163.2h1058.3v714.37h-1058.3z" fill="#e40017" style="paint-order:stroke fill markers"/>
  <path id="path10" class="cls-2" d="m137.86 345.68a0.2902 0.2902 0 0 1 0.22386-0.33582 0.30264 0.30264 0 0 1 0.3441 0.18657c9.2946 29.182 26.483 56.05 47.874 79.378 8.8137-3.586 18.274-6.9275 27.884-10.576-36.349-31.789-67.314-73.947-76.326-122.83a0.28605 0.28605 0 0 1 0.22386-0.33164 0.29434 0.29434 0 0 1 0.3441 0.1824c14.866 46.68 49.918 87.441 90.111 117.26 11.04-4.6846 21.943-10.132 31.967-17.159-53.554-31.972-109.94-87.532-122.65-156.48a0.28605 0.28605 0 0 1 0.22386-0.33166 0.29434 0.29434 0 0 1 0.3441 0.18655c20.314 63.815 78.383 116.58 135.72 145.41a99.397 99.397 0 0 0 21.039-29.509c-61.103-25.67-141.78-89.92-157.32-174.14a0.28605 0.28605 0 0 1 0.22386-0.33166 0.29849 0.29849 0 0 1 0.3441 0.18655c23.585 74.054 97.983 133.23 163.1 157.4 3.9218-13.44 6.1398-29.227 6.1398-47.928-78.557-24.033-169.81-116.4-169.81-209.52v-58.04h-15.662v58.089c-0.0373 91.184-97.54 187.36-169.81 209.48 0 18.701 2.2179 34.488 6.1398 47.928 65.116-24.165 139.51-83.328 163.1-157.4a0.29849 0.29849 0 0 1 0.34408-0.18655 0.2902 0.2902 0 0 1 0.22388 0.33166c-15.526 84.224-96.221 148.47-157.32 174.14a99.397 99.397 0 0 0 21.039 29.509c57.335-28.837 115.39-81.6 135.72-145.41a0.29434 0.29434 0 0 1 0.34408-0.18655 0.2902 0.2902 0 0 1 0.22388 0.33166c-12.711 68.947-69.092 124.51-122.65 156.48 10.024 7.0477 20.927 12.474 31.967 17.159 40.192-29.816 75.244-70.576 90.111-117.26a0.29434 0.29434 0 0 1 0.34408-0.18242 0.2902 0.2902 0 0 1 0.22388 0.33166c-9.0128 48.886-39.977 91.039-76.326 122.83 9.6097 3.6482 19.07 6.9896 27.884 10.576 21.392-23.332 38.58-50.196 47.874-79.378a0.30264 0.30264 0 0 1 0.34408-0.18655 0.29434 0.29434 0 0 1 0.22388 0.3358c-5.6672 30.744-20.02 58.827-38.932 83.328 22.561 10.484 38.924 24.285 38.936 52.58v0.029h15.662c0-28.303 16.375-42.108 38.936-52.588-18.904-24.534-33.265-52.617-38.932-83.362z" fill="#ffcd00"/>
  <ellipse id="ellipse12" class="cls-2" transform="rotate(-89)" cx="-29.448" cy="314.65" rx="17.089" ry="17.366" fill="#ffcd00"/>
  <path id="path14" class="cls-2" d="m369.11 124.41c-26.918 64.465-143.44 65.941-164.03-8.7433 10.617 18.241 30.608 32.813 60.705 33.336 59.698 1.0447 108.99-47.829 110.06-109.16q0.0788-4.3654-0.17412-8.6603c-0.11188-2.562-0.36068-5.1282-0.71306-7.6903a112.29 112.29 0 0 0-5.2153-22.416c-6.546-21.877-15.7-44.118-12.479-67.989a13.635 13.635 0 1 0 5.1738-26.338c-7.114-0.12436-13.374 3.756-17.516 12.338-6.003 12.437-1.7495 30.91 2.9683 44.413-19.398-22.005-37.68-36.577-78.237-36.577-33.352 0-95.944 10.07-109.31-25.173a42.041 42.041 0 0 0-6.1066 20.907c-0.87474 29.725 33.655 33.949 35.446 33.58-40.023 38.53 8.0468 91.62 47.016 60.573 3.4202-2.7237 7.5161-7.2923 8.6728-11.421a26.346 26.346 0 0 1-35.168-24.833 26.624 26.624 0 0 1 0.3814-4.4856c4.5602-21.786 27.237-37.162 65.916-36.876-43.194 8.8303-39.243 48.409-29.302 50.967 0 0-0.2446-2.2179-0.22387-3.3456 0.29435-16.707 18.216-32.726 44.11-32.726 30.927 0 50.378 23.904 57.414 36.793a46.39 46.39 0 0 0-74.353 36.196c-0.16166 9.2366 4.3779 25.728 20.898 27.801-19.107-25.703-1.5588-48.952 19.418-49.284 22.051-0.35238 38.642 18.569 38.642 40.628 0 35.334-36.395 59.831-74.394 59.831-15.965 0-32.419-4.9168-42.92-13.793a25.828 25.828 0 0 0 18.481-24.31c0.24874-14.253-11.102-26.263-25.363-26.263-31.656 0-39.065 33.394-39.065 49.748 0 122.02 167.87 136.72 157.73 188.53 7.8354-4.5602 10.012-15.505 9.419-23.29-2.019-26.466-49.147-52.198-59.246-59.022 12.508 4.4152 87.88-14.829 71.368-73.242z" fill="#ffcd00"/>
  <path id="path16" class="cls-2" d="m-103.89-93.224c22.271-1.8946 29.534 33.348-1.2893 58.55-3.1134 2.5455-6.1232 2.8481-6.6746 2.7652 4.7261-3.5612 14.576-22.117 12.263-35.176-8.9547 1.2437-14.435-3.4575-16.052-9.9994-1.9402-7.8478 4.0089-15.492 11.753-16.139z" fill="#ffcd00"/>
  <path id="path18" class="cls-2" d="m105.93-77.355a42 42 0 0 0-6.1066-20.907c-13.37 35.243-75.961 25.168-109.31 25.168-62.961 0-107.26 51.606-106.18 112.93 1.0737 61.327 50.345 110.2 110.06 109.16 28.746-0.50164 48.268-13.813 59.217-30.902-18.627 68.454-132.09 71.99-161.04 6.3097-11.794 10.708-7.4084 31.404 3.9343 36.723-5.9822 26.557 37.726 43.202 61.178 34.737-16.583 8.2914-71.696 51.427-45.097 84.091-10.281-52.63 157.99-66.584 157.99-185.98 0-11.289-3.7062-52.306-39.309-52.306-14.261 0-25.612 12.023-25.363 26.263a25.828 25.828 0 0 0 18.498 24.323c-10.497 9.2946-26.947 13.793-42.92 13.793-27.229 0-76.89-14.862-76.89-63.694 0-21.172 16.492-38.625 37.655-38.994a38.227 38.227 0 0 1 29.351 12.91 18.971 18.971 0 1 0-10.712 34.409c17.188-0.30264 19.116-18.751 19.336-17.826a44.558 44.558 0 0 0-44.591-52.613 44.359 44.359 0 0 0-20.994 5.6713c19.145-29.505 44.359-31.644 54.454-31.822 25.89-0.45188 43.82 16.019 44.11 32.726a19.978 19.978 0 0 1-0.41457 4.4525c11.886-6.7989 10.364-44.67-29.02-51.788 34.944-0.85816 61.153 14.199 65.846 36.59a26.624 26.624 0 0 1 0.3814 4.4856 26.354 26.354 0 0 1-35.168 24.833c1.1566 4.1457 5.2526 8.7059 8.6728 11.421 38.97 31.039 87.06-22.043 47.02-60.573 1.7578 0.35653 36.287-3.8679 35.412-33.593z" fill="#ffcd00"/>
 </g>
</svg>
