<svg xmlns="http://www.w3.org/2000/svg" viewBox="0 0 36 44.18"><g><g><circle fill="#FFF" r="17" cx="18" cy="20"/>
  <path xmlns="http://www.w3.org/2000/svg" fill="#0085ca" d="M28.984,28.984l.022,18.48c.01,8.729,6.935,19.475,17.978,25.7,11.044-6.226,17.969-16.972,17.979-25.7l.022-18.48Zm18,36c-3.348,0-6.062-.64-6.062-.868s2.714-.868,6.062-.868,6.063.64,6.063.868S50.333,64.983,46.984,64.983Zm0-4.652c-5.144,0-9.314-.935-9.314-1.334s4.17-1.334,9.314-1.334S56.3,58.6,56.3,59,52.129,60.332,46.984,60.332Zm0-5.4c-6.315,0-11.434-1.159-11.434-1.638s5.119-1.637,11.434-1.637S58.42,52.809,58.42,53.288,53.3,54.927,46.984,54.927ZM58.86,47.95a86.2,86.2,0,0,1-11.875.713A90.088,90.088,0,0,1,35.11,47.95c-.088-.017-.163-.07-.129-.154A34.208,34.208,0,0,1,46.82,32.307a.286.286,0,0,1,.329,0A34.208,34.208,0,0,1,58.989,47.8C59.021,47.88,58.948,47.931,58.86,47.95Z" transform="translate(-28.984 -28.984)"/>
</g></g></svg>