<svg version="1.2" xmlns="http://www.w3.org/2000/svg" viewBox="0 0 900 600" width="900" height="600">
	<title>Innlandet_våpen-svg</title>
	<style>
		.s0 { fill: #008122 } 
		.s1 { fill: #ffffff } 
	</style>
	<path id="Forma 2" class="s0" d="m0 0h900v600h-900z"/>
	<path id="Layer" class="s1" d="m524.1 210.2l-73.8-73.8-71.4 71.4-23.9-23.9 95.3-95.3 97.7 97.7z"/>
	<path id="Layer" class="s1" d="m294.2 171.2l-50.3 50.4v47.8l50.3-50.4 110.6 110.6 23.9-23.9z"/>
	<path id="Layer" class="s1" d="m655.5 273.9v-47.8l-49.6-49.6-207.5 207.4 0.1 0.1c-13.4 14.1-20.8 32.4-20.8 51.8 0 20.1 7.8 39 22 53.1 14.6 14.7 33.9 22 53.1 22 19.2 0 38.4-7.3 53.1-22 29-29 29.2-76.1 0.7-105.4l-0.5-0.6q-0.1-0.1-0.2-0.2l-5.3-5.2-23.8 23.9 5.2 5.2c16.1 16.1 16.1 42.3 0 58.4-16.1 16.1-42.3 16.1-58.4 0-7.8-7.8-12.1-18.1-12.1-29.2 0-11 4.3-21.4 12.1-29.2l182.3-182.3z"/>
</svg>