<svg version="1.2" xmlns="http://www.w3.org/2000/svg" viewBox="0 0 900 600" width="900" height="600">
	<title>Vestland</title>
	<style>
		.s0 { fill: #007096 } 
		.s1 { fill: #ffffff;stroke: #ffffff;stroke-miterlimit:100;stroke-width: 0 } 
	</style>
	<path id="Forma 1" class="s0" d="m0 0h900v600h-900z"/>
	<g id="Carpeta 1">
		<path id="Layer copy 2" class="s1" d="m668.2 36c0 0 3.1 153-23.6 265-4.5 18.8-9.8 36.4-16.1 51.9-15.2 37.5-34.8 69.3-56 96.8h-0.1c-40.3 52-86.9 88.2-122.4 116.3-35.5-28.1-82.1-64.3-122.5-116.3h0.1-0.1c-21.3-27.5-40.8-59.4-56-96.8-6.3-15.5-11.6-33.1-16.1-51.9-26.6-111.6-23.6-263.9-23.6-265q0 0 0 0h436.4z"/>
		<path id="Layer copy" class="s1" d="m659.3 44c0 0 3 147.8-22.7 256-4.3 18.1-9.4 35.1-15.5 50.1-14.6 36.2-33.3 67-53.8 93.5v0.1c-38.7 50.2-83.5 85.2-117.6 112.3-34.1-27.1-78.9-62.1-117.6-112.3l-0.1-0.1c-20.4-26.5-39.1-57.3-53.7-93.5-6.1-15-11.2-32-15.5-50.1-25.6-107.8-22.7-255-22.7-256q0 0 0 0h419.2z"/>
		<path id="Layer" class="s0" d="m659.3 44h-419.2l209.6 256z"/>
		<path id="Layer" class="s0" d="m332.1 443.7c38.7 50.2 83.5 85.2 117.6 112.3 34.1-27.1 78.9-62.1 117.6-112.3z"/>
		<path id="Layer" class="s0" d="m262.8 300c4.3 18.1 9.4 35.1 15.5 50.1 14.6 36.2 33.3 67 53.8 93.6l117.6-143.7z"/>
	</g>
</svg>