<?xml version="1.0" encoding="UTF-8"?>
<svg id="Layer_1" data-name="Layer 1" xmlns="http://www.w3.org/2000/svg" width="39.8466cm" height="26.142cm" viewBox="0 0 1129.5104 741.0339">
  <defs>
    <style>
      .cls-1 {
        fill: #e01f1d;
      }

      .cls-1, .cls-2, .cls-3 {
        stroke-width: 0px;
      }

      .cls-2 {
        fill: #ead3a1;
      }

      .cls-3 {
        fill: #df1f1d;
      }
    </style>
  </defs>
  <rect class="cls-1" x="-1.1319" width="1130.6423" height="741.0339"/>
  <g>
    <path class="cls-3" d="M712.3331,306.2051c1.3534-1.6959,2.2247-3.2284,3.4885-4.2971,6.2743-5.3059,12.5954-10.5616,19.0552-15.6375.957-.752,2.8091-.819,4.132-.5763,6.8603,1.2589,13.6761,2.7586,20.5239,4.0889,1.9464.3781,3.9461.6245,5.9257.6552,2.9222.0451,5.3847-.8822,6.5805-3.9099,1.202-3.0436.5059-5.6136-1.8052-7.8086-1.1731-1.1142-2.4912-2.0859-3.594-3.2623-2.1716-2.3165-1.556-4.825,1.51-5.6638,1.5078-.4125,3.2205-.3967,4.791-.1931,3.0844.3999,6.1159,1.2304,9.2037,1.576,2.9499.3302,5.9648.5408,8.9117.3072,2.9821-.2364,4.8807-2.2219,5.8475-5.082.9091-2.6893.0888-4.9087-1.7746-6.8251-1.3006-1.3377-2.7946-2.4914-4.0589-3.8598-2.6733-2.8936-1.6876-6.4352,2.1834-7.3662,1.8898-.4545,3.9457-.2887,5.9258-.281,2.737.0105,5.4852.33,8.207.1624,3.1059-.1912,5.3311-1.8822,6.4776-4.8692,1.1492-2.9941.5649-5.679-1.5902-7.9432-1.3665-1.4357-2.9449-2.6777-4.4801-3.9437-4.1478-3.4203-4.0694-4.2037-.7584-8.4149,2.7474-3.4942,5.4925-7.1288,7.4068-11.1018,2.0955-4.3488.2313-8.7688-3.7759-11.3175-3.1918-2.0301-6.5875-1.834-9.5897-.0283-3.7104,2.2317-7.1353,4.9558-10.5882,7.5919-3.0082,2.2966-4.0777,2.3172-6.6001-.4873-1.165-1.2953-2.1719-2.7322-3.3339-4.0305-3.1361-3.5038-6.058-4.4098-9.5772-3.051-3.327,1.2846-4.908,3.8822-4.8896,8.4094.0091,2.2353.4131,4.4688.4258,6.7044.0112,1.9697.0738,4.0495-.501,5.8886-1.1367,3.6368-4.4951,4.3843-7.2845,1.7934-1.4565-1.3528-2.6605-2.9819-4.1446-4.2992-2.8818-2.5577-6.2558-2.572-9.1767-.2083-2.2479,1.8191-3.0128,4.3512-2.7424,7.0254.475,4.6967,1.3585,9.3508,1.9088,14.0418.2431,2.0725.4688,4.275.0287,6.2699-.6752,3.0599-3.3543,3.7089-5.642,1.5727-1.3608-1.2707-2.4783-2.7994-3.8199-4.0932-2.092-2.0172-4.5615-2.3925-7.2622-1.3476-2.6663,1.0317-3.8524,3.1271-3.8597,5.8276-.0058,2.1016.1534,4.2399.5561,6.2999,1.4572,7.4551,3.1228,14.8701,4.5228,22.3353.2664,1.4205.2527,3.589-.5993,4.414-7.0705,6.8465-14.284,13.5605-23.1544,18.1388-3.5568,1.8358-7.2507,2.1504-11.2256,1.9361-8.4457-.4554-16.9237-.8493-25.3701-.6135-9.2665.2588-18.3505,2.105-26.8088,6.0778-11.4169,5.3623-22.2128,11.7944-32.159,19.5958-10.8508,8.5111-19.6903,18.6488-25.448,31.3022-.6159,1.3535-1.3033,2.7179-2.2031,3.8888-1.4087,1.8333-2.7402,1.7212-3.5498-.4581-.8587-2.3117-1.657-4.7903-1.7417-7.2218-.615-17.6633-1.3147-35.3317-1.4033-53.0015-.0382-7.609,3.7745-14.0933,8.9674-19.627,5.2045-5.546,11.5868-9.3585,18.42-12.5426,1.8843-.8781,3.4309-.7707,5.261.1552,7.6697,3.8804,15.3874,7.6677,23.1313,11.3984,2.1178,1.0203,4.3408,1.8914,6.6007,2.5295,2.5642.7241,4.9677.2592,6.6924-2.0445,1.8058-2.4122,2.2149-4.9981.6907-7.6827-.8586-1.5122-1.9736-2.8786-2.8361-4.3889-1.6465-2.8832-.2468-5.3763,3.0671-5.1774,1.8143.1089,3.6568.7532,5.3618,1.4576,2.9906,1.2355,5.8301,2.8428,8.8381,4.0276,2.2964.9044,4.7184,1.6389,7.1515,2.0099,2.9453.4491,5.3576-.8252,7.0038-3.3582,1.6091-2.476,1.3443-4.9719-.0863-7.4064-.8827-1.502-1.9619-2.8935-2.7845-4.4249-1.8807-3.5015-.117-6.6425,3.8781-6.7036,1.6993-.026,3.44.4704,5.1051.9335,2.3966.6665,4.7199,1.5943,7.1132,2.2749,3.5309,1.0042,6.6854.4861,9.0046-2.671,2.1646-2.9466,2.0569-5.9845-.3699-9.7076-.7471-1.1461-1.6058-2.2198-2.4193-3.3222-3.2232-4.3683-2.9721-5.1846,1.2367-8.3844,3.4476-2.6211,6.948-5.3219,9.7956-8.5433,3.2487-3.6751,2.8276-8.3646-.2117-11.9532-2.3364-2.7587-5.494-3.7954-8.7594-2.8761-4.5155,1.2712-8.8679,3.1517-13.2356,4.9069-3.0747,1.2357-4.1926.9952-5.744-1.9283-1.1078-2.0875-1.9744-4.3048-3.1149-6.3726-1.6566-3.0035-4.2177-4.4649-7.7297-4.1091-3.559.3604-5.6445,2.4597-6.6132,5.7121-.6373,2.1397-.9332,4.3787-1.488,6.5461-.5221,2.0399-.8805,4.2042-1.8465,6.0306-1.9542,3.6945-5.7126,3.6602-7.8781.0835-.9657-1.595-1.6603-3.3609-2.6875-4.9105-2.3388-3.5286-6.9077-4.4991-10.0524-1.788-1.5845,1.366-2.9415,3.531-3.3949,5.5595-.8904,3.9836-1.0149,8.1329-1.578,12.1968-.3395,2.4502-.6624,4.9563-1.4852,7.2617-.3692,1.0346-1.9151,2.2175-2.9816,2.2723-1.0263.0528-2.3969-1.0568-3.1265-2.0246-1.1847-1.5716-1.7689-3.5974-2.9618-5.1606-3.3024-4.3271-9.514-3.4629-11.3406,1.6503-.8206,2.2969-1.0698,4.8531-1.2424,7.3151-.418,5.9631-.7142,11.9377-.8995,17.9126-.0674,2.1725-.7932,3.2974-2.9644,4.0017-8.7724,2.8458-16.5032,7.5469-23.3747,13.6864-.6677.5966-1.4965,1.013-2.5763,1.7291-.1395-1.2858-.3142-2.0108-.2811-2.7261.3641-7.8386.6-15.6878,1.1903-23.51.6959-9.2208,1.8481-18.4806,6.1477-26.7928,12.5651-24.2912,29.3139-44.5017,55.6522-54.8587,1.7027-.6696,3.9075-.8571,5.6757-.4296,7.8678,1.9023,15.6529,4.1438,23.488,6.1857,2.1604.563,4.3744,1.03,6.5922,1.2364,2.8772.2677,5.4707-.378,6.912-3.3126,1.4057-2.8623.9914-5.5638-1.4138-8.2259-1.0842-1.2-2.3793-2.2199-3.391-3.473-1.8139-2.2464-1.0122-4.8694,1.831-5.3375,2.0263-.3336,4.2221-.0744,6.2753.2939,3.0594.5489,6.031,1.5971,9.0938,2.113,2.5534.4301,5.2348.807,7.7706.492,5.8033-.7207,8.1855-6.9349,4.6121-11.5235-.6095-.7827-1.3708-1.4452-2.0243-2.1959-1.6549-1.9012-4.386-3.448-2.8419-6.6083,1.5456-3.1637,4.554-3.0629,7.4756-2.8551,1.3636.097,2.7111.4074,4.0742.5275,2.106.1857,4.2201.4166,6.3291.4006,3.0086-.0229,5.2186-1.488,6.5041-4.233,1.3355-2.8519,1.1492-5.6207-.881-8.0534-1.269-1.5205-2.7635-2.8643-4.233-4.2039-4.2426-3.8675-4.1792-4.5291-.4313-8.6772,2.7389-3.0313,5.3681-6.2228,7.5949-9.637,1.9357-2.9677,2.0862-6.3446.0905-9.5545-2.6028-4.1864-6.853-5.8753-11.655-3.6965-4.0317,1.8293-7.708,4.4957-11.4023,6.9973-3.4483,2.335-4.5202,2.2884-7.0836-1.0432-1.4411-1.873-2.7642-3.8551-4.3592-5.5867-2.0081-2.18-4.5461-2.908-7.4919-2.0351-3.0599.9067-5.0078,2.8689-5.3865,6.0119-.3108,2.5792-.1834,5.2092-.3002,7.8145-.0945,2.1065.0478,4.289-.4648,6.2975-1.0261,4.0208-4.7918,4.8871-7.63,1.8896-1.3669-1.4437-2.4636-3.1553-3.8953-4.5233-3.8297-3.6592-9.7042-2.3003-11.5386,2.6918-.5441,1.4806-.8251,3.1784-.7341,4.7481.2375,4.0958.8395,8.1698,1.1124,12.2647.1473,2.2098.2874,4.5346-.2274,6.6473-.7913,3.248-3.6011,3.8104-5.8812,1.3809-1.3595-1.4486-2.4046-3.216-3.86-4.546-3.9962-3.6519-9.9359-1.7422-10.9206,3.5593-.3775,2.0329-.2271,4.2213.0138,6.3006.7168,6.1851,1.5091,12.3649,2.4587,18.5179.3799,2.4622-.0869,3.9504-2.6341,4.8475-2.4513.8634-4.763,2.1573-7.0741,3.379-21.8881,11.5701-40.0465,27.3165-53.8087,48.0042-1.0123,1.5218-2.4393,2.7678-4.1419,4.6636-.3985-1.7636-.6544-2.4721-.7074-3.1955-.7022-9.5646-1.3252-19.1353-2.095-28.6943-.1753-2.1762.6396-3.4144,2.402-4.5524,5.9653-3.8517,11.8668-7.8043,17.7305-11.8095,1.8393-1.2563,3.6161-2.6675,5.1804-4.2465,1.8819-1.8997,2.5416-4.2301,1.397-6.8587-1.1558-2.6543-3.1439-4.1695-6.0317-4.2845-1.6084-.0641-3.2581.3947-4.8341.1914-1.3581-.1752-3.3787-.637-3.7685-1.5456-.507-1.182-.0768-3.164.6557-4.3754.8612-1.4245,2.3957-2.5039,3.7857-3.5341,2.8011-2.0761,5.8268-3.865,8.5193-6.0665,1.8949-1.5493,3.7921-3.3562,4.9862-5.4486,2.6281-4.6051-.4529-9.9456-5.7182-10.2915-1.857-.122-3.7353.1255-5.6013.0836-4.3541-.0978-6.2726-3.4718-3.925-7.1251.9886-1.5384,2.4631-2.7843,3.8044-4.0719,1.7952-1.7235,3.7831-3.2564,5.4932-5.0563,2.3263-2.4484,3.1495-5.3172,1.6773-8.5813-1.4605-3.2382-4.0554-4.6008-7.4904-4.4918-1.8656.0592-3.7279.2487-5.5894.4058-4.9288.416-5.6492-.232-6.1628-5.031-.3833-3.5811-.6506-7.2223-1.5387-10.6911-1.6023-6.2582-4.6921-8.4088-11.018-8.3804-5.9479.0267-9.1542,2.3275-10.6505,8.3912-.9182,3.7214-1.1947,7.611-1.6225,11.4404-.412,3.6876-1.2262,4.4973-4.9891,4.3101-2.3626-.1175-4.7191-.4419-7.0808-.4721-3.1341-.0401-5.5144,1.3449-6.8951,4.2414-1.4369,3.0144-1.098,5.9037,1.0821,8.3555,1.8117,2.0375,3.9739,3.7593,5.9116,5.6904,1.4031,1.3984,2.9729,2.742,3.9752,4.4068,2.15,3.5711.2648,6.7913-3.8713,6.9002-1.8654.0491-3.7436-.2111-5.6016-.0967-5.6122.3456-8.6663,6.0734-5.6565,10.8586,1.1626,1.8483,2.8694,3.4515,4.6002,4.8233,2.7282,2.1624,5.7439,3.9588,8.5246,6.06,1.5733,1.1889,3.1859,2.4882,4.3116,4.0712,2.044,2.8745.6161,5.4439-2.8945,5.5245-1.6156.0371-3.2351-.1369-4.8538-.1782-3.0663-.0782-5.2636,1.2863-6.5318,4.0759-1.3212,2.9062-.4318,5.4136,1.7184,7.4557,1.6149,1.5337,3.4173,2.9003,5.2624,4.1558,5.6649,3.8547,11.3458,7.6901,17.1181,11.3804,1.8962,1.2123,2.7361,2.5459,2.5506,4.8424-.7825,9.6828-1.4193,19.3773-2.1435,29.0649-.0486.6498-.3791,1.2786-.7773,2.5542-1.4721-1.5793-2.6511-2.6392-3.5797-3.8856-1.6356-2.1954-3.0332-4.5686-4.6781-6.7564-14.8953-19.8112-33.6088-34.9369-56.1207-45.2955-2.6671-1.2273-3.8442-2.417-3.1893-5.5481,1.018-4.8668,1.5712-9.8356,2.2047-14.7761.363-2.8311.7246-5.6964.6661-8.5377-.0566-2.7519-1.2405-5.1133-4.1475-6.0537-3.0287-.9798-5.6667-.3288-7.7518,2.142-1.0436,1.2366-1.94,2.6055-3.0465,3.7793-2.2859,2.4249-5.0512,1.8636-5.9059-1.3639-.4951-1.8697-.4334-3.9468-.2996-5.9085.1861-2.7284.8872-5.4292.9778-8.1547.1023-3.0786.3136-6.3203-.4857-9.2264-1.5202-5.5266-7.8081-6.871-11.8454-2.8043-1.3106,1.3201-2.3327,2.9232-3.6151,4.2752-2.7107,2.8577-6.3066,2.1867-7.5763-1.5357-.5875-1.7222-.6384-3.6604-.7297-5.5107-.1348-2.7329.0601-5.4866-.1578-8.2097-.2598-3.2466-1.9309-5.5714-5.1435-6.6608-3.2161-1.0905-5.9228-.2517-8.1164,2.1849-1.3273,1.4743-2.4574,3.13-3.6349,4.7345-3.0062,4.0961-3.9178,4.1067-8.1309,1.1881-3.5604-2.4665-7.1836-5.0248-11.1368-6.6971-5.072-2.1454-10.0034.2721-12.0203,5.1284-1.3657,3.2883-.7602,6.5282,1.1988,9.2417,2.4637,3.4129,5.34,6.5369,8.1386,9.6968,2.3669,2.6725,2.4506,3.7667-.0382,6.3048-1.8285,1.8647-3.8605,3.5458-5.5605,5.5166-2.0552,2.3826-2.3168,5.1556-.9338,8.0307,1.3123,2.7284,3.5008,4.2467,6.5056,4.2357,2.4794-.009,4.9555-.3936,7.437-.546,2.2297-.1369,4.5152-.5222,6.6867-.1984,4.0546.6045,5.3109,4.338,2.6755,7.4657-1.2014,1.4258-2.6786,2.6261-3.8258,4.0893-3.6068,4.6001-1.1645,10.7722,4.6605,11.5036,2.3011.2889,4.736.0322,7.0425-.3665,3.1843-.5504,6.2849-1.5709,9.4598-2.1946,1.9355-.3802,3.9729-.6955,5.9119-.505,3.5068.3445,4.5332,3.1664,2.2575,5.8327-1.2902,1.5116-2.9294,2.7559-4.0612,4.3665-3.1285,4.4519-.3965,10.1213,5.0306,10.2509,2.5651.0613,5.2036-.4861,7.7158-1.1242,7.9677-2.0236,15.8767-4.2791,23.8461-6.2957,1.4713-.3723,3.2949-.5024,4.6572.0258,11.2716,4.3698,21.3781,10.6094,30.1146,19.0488,9.1208,8.8105,16.9971,18.6304,22.994,29.755,3.0948,5.7409,5.5595,12.0076,7.1606,18.3274,3.26,12.8676,3.1317,26.1716,3.7177,39.3564.0224.5033-.3643,1.0248-.5824,1.5954-.5909-.2435-1.0028-.3011-1.2536-.5329-7.3351-6.7773-15.6814-11.8671-25.1956-14.9445-1.8778-.6074-2.0215-1.8648-2.09-3.4379-.2545-5.8487-.5253-11.6973-.8786-17.5406-.1348-2.2298-.3132-4.491-.8218-6.6557-.6598-2.8089-2.1586-5.0409-5.37-5.4897-3.2819-.4587-5.5923.6893-7.4135,3.8294-.8108,1.3979-1.3746,2.9476-2.2548,4.2951-1.5905,2.4351-4.2233,2.4851-5.6923.0023-.7956-1.3446-1.233-3.0025-1.4418-4.571-.4102-3.082-.3828-6.2251-.8449-9.2965-.4592-3.0525-.8203-6.2639-2.0694-9.0232-2.5095-5.5433-9.3299-5.7286-12.5319-.5703-.9171,1.4775-1.5554,3.1283-2.4764,4.6029-2.1738,3.4803-6.0201,3.4421-7.9441-.2302-.9582-1.8288-1.2843-4.0003-1.8159-6.0378-.6897-2.6437-.9682-5.4468-2.01-7.9361-2.4207-5.7836-9.6867-6.4149-13.2078-1.2177-1.1739,1.7327-1.9409,3.7504-2.8185,5.6723-2.1289,4.6617-3.0933,4.9176-7.6791,2.8827-3.8509-1.7088-7.7852-3.3518-11.8387-4.4468-3.744-1.0114-7.157.1952-9.5699,3.4847-2.7667,3.772-2.9375,7.9466.4154,11.6409,2.893,3.1876,6.4216,5.8431,9.8695,8.4712,3.8362,2.9241,4.0832,3.8229,1.218,7.8408-1.2993,1.8219-2.7642,3.5838-3.722,5.5801-2.7008,5.6287,1.5824,11.6087,7.778,10.762,2.8022-.3829,5.4835-1.5909,8.2526-2.2947,2.0347-.5171,4.1332-1.1973,6.1854-1.142,3.8227.1031,5.4346,3.1803,3.6354,6.5488-.9362,1.7527-2.2284,3.3212-3.1059,5.0982-2.3502,4.7595.6924,10.037,5.9912,10.1882,2.0564.0586,4.2417-.4018,6.1811-1.1265,3.3758-1.2614,6.5762-2.9834,9.9091-4.3708,1.9397-.8075,3.961-1.6678,6.0091-1.874,1.2445-.1253,3.0546.621,3.7769,1.5941.5516.7433.0491,2.5663-.4435,3.7115-.6295,1.4633-1.7856,2.6903-2.5987,4.0866-1.4584,2.5043-1.3062,4.9707.3371,7.3751,1.7185,2.5145,4.1936,3.1377,6.9078,2.439,2.2695-.5843,4.484-1.5076,6.6026-2.5298,7.7417-3.7352,15.4441-7.5527,23.1346-11.3924,1.6385-.8181,3.1784-1.4035,4.9088-.3055,5.4473,3.4561,11.3124,6.3977,16.2672,10.4525,7.5506,6.1792,11.7604,14.4922,11.8238,24.4382.0675,10.5864.0334,21.1824-.3572,31.7595-.2706,7.3272-1.0999,14.6433-1.9439,21.9337-.2354,2.0336-1.4107,3.9584-2.1547,5.9332-.4192.0157-.8383.0314-1.2575.0471-1.0868-1.7134-2.3741-3.333-3.2272-5.1557-4.6565-9.9494-10.9995-18.6336-19.0986-26.053-10.0962-9.2489-21.6332-16.3415-33.6599-22.7479-8.4879-4.5213-17.5071-7.4941-27.0264-8.0591-9.6659-.5737-19.4335-.6497-29.0781.0859-5.8662.4474-11.0349-.3696-15.5355-3.7235-6.7762-5.0497-13.2478-10.5181-19.6812-16.0049-.8455-.7211-1.166-2.6852-.9399-3.9304,1.2677-6.9824,2.8332-13.9102,4.1771-20.8797.5162-2.6765.9088-5.407,1.0069-8.1255.1014-2.8119-1.0836-5.0766-3.9155-6.18-2.8626-1.1154-5.3922-.6056-7.5398,1.5674-1.1364,1.1499-2.0334,2.5783-3.2939,3.5501-.9773.7535-2.6208,1.6522-3.4811,1.2994-1.1344-.4653-2.3001-1.9956-2.5364-3.2417-.3599-1.8981-.0822-3.9657.1919-5.924.414-2.9572,1.2372-5.8633,1.5503-8.8266.2719-2.5738.5172-5.288.0005-7.7799-1.1963-5.7692-7.5119-7.641-11.8485-3.6935-1.2849,1.1696-2.3381,2.5902-3.5901,3.8001-3.1381,3.0323-6.9021,2.0244-7.7539-2.2662-.4504-2.2691-.1026-4.6976-.105-7.0541-.0025-2.4803.3648-5.0234-.0588-7.4284-1.0576-6.0044-7.676-8.3566-12.3401-4.4528-1.6042,1.3427-2.9042,3.069-4.2476,4.6987-3.4298,4.161-4.2227,4.0691-8.4263.8362-3.7114-2.8543-7.6391-5.5512-11.8085-7.6473-3.2727-1.6453-6.5776-.3601-9.1979,2.2401-2.6291,2.609-3.5865,5.7523-2.3097,9.2261.8479,2.307,2.0607,4.5363,3.4417,6.5762,1.5291,2.2587,3.4503,4.2502,5.1746,6.3793,2.0694,2.5553,2.0152,3.8087-.4038,6.0442-1.8268,1.6882-3.854,3.1656-5.6249,4.9066-2.2224,2.1847-2.9136,4.8451-1.869,7.8833,1.0981,3.1939,3.401,4.9057,6.6658,5.1379,2.2199.1579,4.4687-.131,6.7053-.1562,2.3575-.0266,4.7905-.344,7.0575.118,4.2269.8616,5.2271,4.7039,2.2252,7.8082-1.2104,1.2516-2.6266,2.3094-3.7966,3.5942-3.9555,4.3436-2.078,10.6509,3.7021,11.831,2.4955.5095,5.2091.2625,7.7844-.0107,2.9642-.3146,5.8713-1.1363,8.8295-1.5496,1.9589-.2736,4.0273-.5495,5.9261-.1891,1.2476.2368,2.779,1.4002,3.2466,2.5345.3545.8599-.5264,2.5228-1.2922,3.4814-1.1518,1.4418-2.7786,2.4936-4.0312,3.8681-1.8574,2.038-2.0616,4.4336-1.0873,6.976.9627,2.5119,2.9233,3.7497,5.4576,3.8491,2.094.0821,4.2344-.1075,6.3036-.4675,6.9954-1.2168,13.9556-2.6402,20.9603-3.7966,1.4582-.2408,3.4644-.2095,4.5116.6045,6.3879,4.9659,12.6117,10.1469,18.7928,15.3713,1.3552,1.1454,2.3168,2.7561,3.6905,4.4345-1.4616.8052-2.3931,1.3819-3.3763,1.8498-6.7606,3.2173-13.4082,6.5883-19.1364,11.5535-.8146.7061-2.524.8142-3.7054.5926-6.9781-1.3093-13.9186-2.8177-20.8814-4.211-1.5822-.3166-3.1974-.5666-4.8062-.6333-4.2798-.1774-6.4374,1.0174-7.6068,4.0292-1.2201,3.1425-.5292,5.5113,2.4571,8.2966,1.0013.9338,2.1389,1.7362,3.0555,2.7431,1.9881,2.1838,1.447,4.6708-1.3674,5.4957-1.6104.4721-3.4605.461-5.1514.2522-3.0856-.3812-6.1151-1.2233-9.2018-1.5872-2.8265-.3333-5.7144-.5353-8.5445-.3435-2.982.2021-4.9498,2.0855-6.0004,4.916-1.0441,2.8131-.2016,5.141,1.7742,7.1594,1.3054,1.3335,2.8031,2.485,4.0571,3.8615,2.5539,2.8033,1.6879,6.1724-2.0003,7.1958-1.8648.5174-3.9323.403-5.9078.4004-2.8591-.0038-5.7324-.3855-8.5731-.2-3.0936.202-5.317,1.9288-6.4211,4.9396-1.1021,3.0052-.4829,5.6694,1.6741,7.9342,1.1966,1.2564,2.5588,2.3656,3.9104,3.4622,4.8421,3.9284,4.7853,4.4383.9725,9.1688-2.5599,3.176-5.017,6.5284-6.9082,10.1237-1.977,3.7583-1.1977,7.517,1.9411,10.5925,3.0236,2.9627,6.5558,3.4651,10.3346,1.8447,1.9287-.827,3.7773-1.9272,5.492-3.1436,2.0264-1.4375,3.8792-3.1217,5.7891-4.7206,3.2033-2.6816,4.3172-2.5985,7.1016.5992,1.471,1.6894,2.8251,3.4947,4.4128,5.065,2.3405,2.3148,5.1553,2.8813,8.2661,1.6548,2.9931-1.1801,4.5676-3.5053,4.7176-6.5915.1324-2.722-.2496-5.465-.2708-8.1998-.0153-1.975-.1424-4.0414.3635-5.9091,1.0448-3.8567,4.5294-4.7286,7.4368-2.0191,1.2724,1.1858,2.3607,2.5664,3.5894,3.802,1.9875,1.9987,4.2891,2.9258,7.1238,1.9634,3.0166-1.0241,4.9353-3.0946,5.1146-6.2402.1615-2.8327-.0712-5.7143-.4067-8.5415-.3515-2.9622-1.1324-5.8719-1.5291-8.8308-.2115-1.5773-.2898-3.2759.0668-4.8044.7627-3.2692,3.4159-4.0011,5.8312-1.7138,1.2622,1.1952,2.3093,2.6147,3.5445,3.8413,2.1703,2.1551,4.7222,2.6163,7.5638,1.473,2.6601-1.0702,3.7563-3.2199,3.7824-5.8973.0193-1.9784-.1262-3.9946-.5043-5.9343-1.4771-7.5781-2.96-15.159-4.6905-22.6815-.6284-2.7313.0327-4.3109,2.3301-5.8916,11.8929-8.183,24.9597-12.6414,39.3845-13.676,43.2203-3.0998,86.423,28.4782,95.5437,70.8127,6.1923,28.7424,6.0733,57.8772,2.8919,87.021-.1521,1.393-.6661,2.7466-1.0939,4.4455-1.6264-.7734-2.7962-1.1994-3.8311-1.8424-9.3107-5.7832-18.8317-11.2711-27.7916-17.5571-4.3898-3.0798-7.7446-7.6433-11.5257-11.5756-1.4735-1.5324-1.4686-3.1296-.4232-5.0737,3.0665-5.703,5.9687-11.4962,8.8427-17.2998.9893-1.9977,1.8426-4.0872,2.5132-6.212.8534-2.7037.4178-5.1973-1.992-7.038-2.4231-1.851-5.0195-2.1043-7.6875-.6067-1.5174.8518-2.8928,1.963-4.4297,2.7721-2.7492,1.4473-5.1431.0859-5.0191-3.0196.0722-1.8102.68-3.6748,1.3956-5.3675,1.4049-3.3235,3.2244-6.4768,4.5413-9.8305.8956-2.2806,1.67-4.7726,1.7228-7.187.1203-5.4966-5.2709-8.7256-10.2034-6.3062-1.6695.8189-3.1572,2.0009-4.7993,2.8843-3.6904,1.9854-6.9168.1436-6.811-4.0467.049-1.9422.7369-3.8885,1.2763-5.793.7116-2.512,1.6987-4.9513,2.3175-7.4829.7445-3.0459-.1627-5.6789-2.6833-7.6368-2.6336-2.0456-5.4925-2.3087-8.383-.6683-1.8343,1.041-3.5389,2.3148-5.278,3.5183-4.0049,2.7715-4.8602,2.4844-7.7947-1.4638-2.5838-3.4763-5.2129-7.0294-8.3907-9.9249-3.6258-3.3038-7.8718-3.0422-11.6364-.2221-3.1294,2.3442-4.4192,5.6457-3.4837,9.2351,1.1509,4.4153,2.9534,8.6737,4.6504,12.9297,1.3036,3.2695,1.0551,4.3821-2.0653,5.9823-2.3237,1.1916-4.7801,2.1486-7.017,3.4795-2.5577,1.5217-3.7326,3.9615-3.4829,6.963.2619,3.1485,1.855,5.4794,4.8583,6.4676,2.7075.8909,5.5503,1.3646,8.3187,2.0793,1.6805.4338,3.6038.6061,4.9232,1.5716,1.3645.9985,2.8244,2.7613,2.9411,4.2892.0952,1.2453-1.525,2.8861-2.7571,3.8984-1.4146,1.1622-3.3207,1.7032-4.8689,2.7314-2.847,1.8906-3.7395,4.6113-2.7901,7.8104.8237,2.7753,2.8037,4.518,5.4647,5.1336,3.379.7817,6.862,1.112,10.2984,1.6486,3.3104.517,6.6818.8179,9.8933,1.6989,1.1346.3112,2.5315,2.0119,2.6068,3.1571.0709,1.0773-1.244,2.5165-2.3062,3.3316-1.4587,1.1193-3.3882,1.6164-4.8794,2.7042-4.3906,3.2027-3.7049,9.4772,1.3663,11.3744,2.5098.9389,5.3272,1.2171,8.0344,1.4362,7.0776.5729,14.1724.9308,21.257,1.4236.9647.0671,2.3074.0896,2.7978.6877,2.7096,3.3045,5.2091,6.7811,7.8156,10.2453-.4817.2207-.6921.3928-.9127.4072-13.1869.8621-25.8145,3.9524-37.9469,9.2154-1.2616.5472-3.1826.3086-4.5408-.2222-7.1924-2.8107-14.291-5.8605-21.4492-8.7603-1.9549-.7919-3.9704-1.4907-6.0179-1.9846-2.86-.6899-5.4669-.2132-7.2936,2.4062-1.8419,2.6412-1.7594,5.2819.3225,8.3232.8432,1.2317,1.8862,2.3314,2.6818,3.59,1.891,2.9914.5757,5.5486-2.9726,5.5073-1.8225-.0211-3.6956-.5278-5.4431-1.1188-3.3011-1.1164-6.4794-2.6084-9.8028-3.6421-2.2275-.6927-4.6287-1.2595-6.9318-1.1917-5.6604.1668-8.6492,5.8559-5.8335,10.7473.5563.9664,1.2972,1.8252,1.9309,2.7488,1.3761,2.0059,3.5712,3.8719,1.828,6.6431-1.7864,2.8399-4.6371,2.5103-7.3918,2.0309-1.4663-.2552-2.8822-.7884-4.3336-1.1441-1.6918-.4146-3.3851-.8455-5.1001-1.1387-3.3475-.5724-6.2015.2319-8.1015,3.2703-1.9653,3.1427-1.5259,6.1824.5685,9.0582,1.0246,1.4069,2.1861,2.7148,3.2972,4.0579,3.2633,3.9447,3.0164,4.7699-.8314,8.1577-3.4299,3.02-6.9989,6.0986-9.5991,9.79-3.3619,4.7727-1.0182,11.55,4.328,13.2442,2.3301.7384,5.2957.6935,7.6247-.0642,3.7463-1.219,7.2446-3.2463,10.7721-5.0774,3.4761-1.8044,4.6338-1.5682,6.6293,1.8228,1.1988,2.037,2.2315,4.1832,3.5593,6.1301,1.7672,2.5911,4.3135,3.638,7.4701,3.1316,3.1898-.5118,5.1578-2.4228,6.0167-5.4144.5118-1.7823.6774-3.6638,1.0013-5.5001.4529-2.5684.4911-5.3192,1.5094-7.6401.6771-1.5432,2.6212-3.1156,4.2528-3.456,1.1458-.2389,2.9419,1.3651,4.0445,2.5281,1.2618,1.3311,1.9354,3.202,3.1145,4.6324,3.1337,3.8014,8.8885,3.4235,11.3711-.8511.9664-1.664,1.5418-3.7103,1.7292-5.6375.3486-3.5854.2166-7.2147.4124-10.8187.121-2.227.1809-4.5354.8432-6.6252.3826-1.2072,1.8083-2.696,2.9481-2.8725,1.0583-.1637,2.5027,1.0919,3.5098,2.0142.7887.7223,1.1429,1.9066,1.7348,2.8577,2.1847,3.5105,4.7349,4.7901,8.0122,4.0504,3.0829-.6959,4.6299-2.6837,5.1775-6.9218.2224-1.7213.2507-3.4759.2536-5.2156.0102-6.1037.0972-12.2118-.1081-18.3093-.089-2.6446.9508-4.0415,3.1817-5.2461,7.0268-3.7939,14.629-5.6004,22.4067-6.8459,25.7668-4.126,43.3931,6.9052,50.3363,31.9792,4.31,15.5649,6.4478,31.4819,5.1876,47.6913-.7678,9.8766-2.6598,19.5141-7.3627,28.3729-3.7095,6.9874-9.1146,9.5245-16.8048,7.6369-3.6018-.8841-7.142-2.2256-10.5184-3.7767-6.6762-3.067-13.1391-6.6009-19.8322-9.628-19.0301-8.6067-38.1576-8.7162-57.1208.1515-6.194,2.8965-12.1688,6.2955-18.0946,9.7225-8.0987,4.6839-16.3401,8.0687-25.9186,5.0065-.6545-.2093-1.8875.1188-2.2489.626-.3531.4958-.2163,1.7473.1948,2.3094,1.7612,2.408,3.5591,4.8197,5.6031,6.9853,10.7497,11.3901,24.0152,16.3954,40.3379,5.1455,7.7663-5.3527,16.4732-8.8331,25.7992-10.4693,17.8825-3.1374,34.1862.3807,48.4039,12.0161.9045.7402,1.2327,2.1843,1.8289,3.301-1.2409.1835-2.5669.7447-3.7087.4879-6.3225-1.4221-12.732-1.9707-18.8077.3404-5.1848,1.9721-10.1841,4.6316-14.9076,7.5632-5.4919,3.4085-10.4791,7.6197-15.8899,11.1711-10.4425,6.8539-21.5116,7.9454-33.1197,3.056-.975-.4107-2.25-.11-3.3856-.1398.1197,1.1653-.0655,2.4751.4074,3.4732,3.7559,7.926,9.6285,13.5405,18.2051,15.9967,10.1914,2.9186,19.9946,1.3052,29.5419-2.7363,7.4039-3.1342,13.9559-7.6319,20.2385-12.6043,9.1625-7.252,24.1972-7.3817,33.6141-.4572,6.8804,5.0592,7.575,12.2966,1.1973,18.0435-3.2751,2.9511-7.23,5.3112-11.2042,7.2798-4.2153,2.0879-8.832,3.358-13.2385,5.0751-.8532.3325-2.231,1.1762-2.1688,1.6136.1306.9179.8846,1.9848,1.694,2.5187,1.6511,1.089,3.4467,2.0221,5.2902,2.7459,12.6122,4.9519,27.1277,1.3428,36.0534-8.994,2.4391-2.8247,4.5001-5.98,6.9854-8.7596,3.5429-3.9623,7.5765-3.5428,10.4335.9678,1.0601,1.6737,1.986,3.4744,2.686,5.3258,1.6287,4.3073,3.16,8.6554,4.5905,13.0328,2.2818,6.9823,4.3893,14.022,6.7106,20.9907.5427,1.629,1.6475,3.0707,2.4938,4.5985l1.1656-.1478c.9976-2.2156,2.209-4.3619,2.9541-6.6593,2.6123-8.0542,4.9279-16.2063,7.6321-24.2281,1.4257-4.2292,3.1069-8.4383,5.2395-12.3475,2.963-5.4317,7.3122-5.6602,11.3187-.902,2.2447,2.6658,4.1837,5.5915,6.4624,8.2255,9.8122,11.3419,26.4677,14.4084,39.4522,7.2393,1.4108-.779,2.4575-2.217,3.6731-3.3493-1.4186-.8244-2.7479-1.9109-4.2707-2.4289-7.6969-2.6178-15.3411-5.3623-21.5954-10.7781-7.5703-6.5553-6.829-14.742,1.6515-19.979,10.08-6.2248,23.6002-5.3021,33.0065,1.8657,4.738,3.6104,9.7269,6.9796,14.9266,9.8761,8.0691,4.4948,16.7973,6.9455,26.165,6.3589,11.9487-.7483,20.7923-6.3023,26.018-17.1891.5114-1.0655.2337-2.5095.3222-3.7778-1.1502.1087-2.4208-.0626-3.4308.3717-6.3761,2.7423-12.9536,3.4647-19.7616,2.2919-6.0445-1.0412-11.2395-3.9619-16.1639-7.4331-5.5992-3.9468-11.0447-8.1243-16.7716-11.8741-8.8383-5.787-18.4965-7.7371-28.9426-5.4314-1.4226.314-3.0052-.0966-4.5137-.1718.8339-1.3596,1.3754-3.0833,2.5465-4.0227,12.3877-9.9369,26.6496-13.6712,42.3246-12.1905,11.9222,1.1261,22.6673,5.5808,32.6061,12.1168,5.7767,3.799,11.9854,6.3135,19.015,5.2936,11.6842-1.6953,19.1047-9.5075,25.5587-18.5069.3735-.5208.3271-1.861-.0805-2.2839-.4494-.4664-1.6318-.6052-2.34-.3862-8.6943,2.6889-16.4074.1202-23.9333-4.1055-6.8382-3.8395-13.6366-7.8195-20.7554-11.0761-18.7865-8.5942-37.6965-8.1581-56.4332.3458-5.4417,2.4698-10.6865,5.3717-16.1142,7.8747-4.0619,1.8731-8.1652,3.7899-12.4391,5.0426-9.1271,2.6751-15.1688.1432-18.8443-8.5566-2.6398-6.2484-4.7386-12.8984-5.8793-19.574-3.3399-19.5471-.468-38.7319,4.9639-57.5714,1.1925-4.1359,3.1606-8.1454,5.3409-11.8809,5.7225-9.8042,14.3-15.9274,25.5539-17.6705,14.6197-2.2645,28.4887.5376,41.6616,7.14,1.9278.9662,2.6007,2.2907,2.5431,4.4341-.1772,6.5989-.1804,13.2028-.2043,19.805-.0058,1.614.0246,3.2524.2871,4.8384.6468,3.9095,2.2925,5.7898,5.3642,6.3387,3.406.6086,5.7676-.9359,7.477-3.7354.7138-1.169,1.3055-2.4207,2.0954-3.5335,2.0491-2.8867,4.9503-2.5928,6.2073.7578.6409,1.7083.8435,3.6379.9345,5.4827.1655,3.3565-.0831,6.7393.1917,10.0824.2011,2.4465.5631,5.027,1.556,7.2315,2.2354,4.963,8.5777,5.59,11.9772,1.3407,1.1595-1.4494,1.9727-3.17,3.0399-4.6999,2.4928-3.5737,6.4042-3.3072,8.0794.7165.8419,2.0223.9986,4.3367,1.4113,6.529.4596,2.4416.6839,4.9416,1.328,7.3307.7765,2.8801,2.7914,4.6177,5.7999,5.1477,3.1376.5527,5.7-.4062,7.5348-2.9722,1.0804-1.5109,1.9623-3.1739,2.8364-4.82,2.7648-5.2063,3.4451-5.249,8.5999-2.6538,4.0709,2.0496,8.3142,4.0816,12.7171,5.0617,4.9748,1.1074,9.3323-2.5765,10.2577-7.5772.5657-3.0572-.4691-5.8034-2.4391-7.9489-2.6807-2.9195-5.6474-5.5997-8.6628-8.1827-3.6626-3.1376-3.8293-4.1166-.7251-7.9065,1.3396-1.6355,2.7374-3.2432,3.8932-5.005,1.7275-2.6331,1.6939-5.3829.0314-8.0979-1.6807-2.7447-4.2052-3.9554-7.2866-3.5031-2.9438.4321-5.8095,1.3716-8.7377,1.9445-1.8146.3551-3.7152.7673-5.5179.5809-3.5695-.3691-5.0224-3.4811-3.1938-6.5625.949-1.5991,2.2042-3.0134,3.2552-4.5561,1.5931-2.3385,1.9923-4.8059.5557-7.3826-1.4698-2.636-3.7526-4.0859-6.7417-3.8373-2.33.1937-4.6801.699-6.9097,1.4138-3.1974,1.0252-6.2589,2.4701-9.4461,3.5327-1.7467.5823-3.6359,1.0544-5.4549,1.0343-3.3457-.0369-4.5883-2.5674-2.7776-5.3721,1.0104-1.5652,2.3065-2.9471,3.3039-4.5194,1.5618-2.4622,1.3409-4.9692-.2031-7.3889-1.5319-2.4009-3.8596-3.2038-6.4785-2.672-2.4213.4916-4.8089,1.2926-7.108,2.2148-6.9367,2.7825-13.8587,5.6087-20.7091,8.5954-2.2621.9863-4.1462.8874-6.3688-.1203-8.6764-3.9337-17.8046-6.4072-27.2187-7.7949-3.5052-.5167-7.0424-.8171-10.841-1.2474,2.1861-3.2183,4.261-5.994,6.0134-8.9601,1.0054-1.7016,2.1611-2.4626,4.1241-2.5591,7.2175-.3547,14.4296-.8254,21.6404-1.3043,1.9822-.1317,3.992-.2716,5.919-.7135,2.9704-.6813,5.2933-2.2069,5.6859-5.6054.3909-3.3832-1.0052-5.7942-3.9769-7.3401-1.3254-.6895-2.7365-1.2294-4.0103-1.9997-2.847-1.7219-2.8411-4.4949.0722-6.097,1.1681-.6424,2.5616-1.0204,3.8944-1.1907,3.8278-.4892,7.6945-.691,11.5116-1.2428,2.3192-.3353,4.6677-.8776,6.8358-1.7447,2.7567-1.1025,4.2092-3.3714,4.3747-6.4112.1619-2.9735-1.2902-4.9789-3.7439-6.3784-1.2968-.7396-2.8549-1.1491-3.9319-2.1131-1.2876-1.1524-2.861-2.6343-3.0962-4.1605-.3499-2.2704,1.4661-3.8872,3.6327-4.6145,1.8801-.6312,3.8468-1.006,5.7785-1.4812,2.1737-.5347,4.3998-.9093,6.5153-1.6159,3.1214-1.0426,4.9196-3.2977,5.1784-6.6374.2472-3.1895-1.1434-5.5928-3.856-7.1313-1.9424-1.1017-4.0426-1.9239-6.0661-2.8843-3.8249-1.8154-4.137-2.8641-2.4983-6.6862,1.5652-3.6506,3.2823-7.2953,4.2879-11.1124,1.4339-5.4425-.285-9.2551-4.4371-11.5216-3.9695-2.1669-8.0799-1.6038-11.8707,2.2764-2.7646,2.8298-5.0418,6.1457-7.4498,9.3105-2.2508,2.958-3.3657,3.2206-6.5369,1.1958-2.2003-1.4049-4.2455-3.1379-6.596-4.2053-5.6779-2.5785-11.5948,1.9142-10.6122,8.0578.4278,2.6747,1.5948,5.2247,2.3199,7.8606.5577,2.0278,1.3129,4.097,1.3368,6.1552.0457,3.9487-3.171,5.7528-6.6414,3.9199-1.7585-.9287-3.3438-2.201-5.1351-3.0482-4.7755-2.2586-10.0196.8895-10.0652,6.1906-.0187,2.1708.5869,4.4558,1.389,6.5006,1.3614,3.4704,3.1917,6.7541,4.6499,10.1905.7691,1.8124,1.5083,3.7553,1.6584,5.6861.2552,3.284-2.2607,4.7147-5.1452,3.128-1.087-.5979-2.0584-1.4022-3.1132-2.0634-3.4367-2.1541-5.9498-2.2039-8.6506-.207-2.6016,1.9234-3.2593,4.4434-1.9633,8.3962.5786,1.7646,1.4116,3.4577,2.2476,5.1239,2.7927,5.5665,5.5098,11.1776,8.523,16.6239,1.3605,2.4592,1.3186,4.4254-.5963,6.3589-3.752,3.7884-7.0979,8.1751-11.4052,11.1766-8.7772,6.1165-18.07,11.4955-27.1799,17.1307-1.2177.7533-2.6069,1.2295-4.3027,2.0123-.4502-2.434-.9312-4.3483-1.1444-6.292-2.7441-25.0132-1.8357-49.9408.9796-74.923,4.386-38.9196,40.7017-78.5612,85.8481-80.8367,18.6496-.94,35.8753,2.9095,51.3095,13.7946,2.1248,1.4985,2.8616,2.9643,2.2633,5.5721-1.6982,7.4025-3.1852,14.8554-4.6338,22.3121-.4238,2.1817-.6168,4.4438-.5988,6.6666.0219,2.702,1.2919,4.7594,3.9572,5.7673,2.7135,1.026,5.168.6239,7.2483-1.4071,1.245-1.2154,2.2964-2.6292,3.542-3.8439,2.5261-2.4633,5.289-1.69,6.0205,1.7665.301,1.4221.2149,2.9852.0097,4.4426-.4164,2.9572-1.1717,5.8694-1.5288,8.8313-.3409,2.827-.5767,5.7037-.45,8.5403.1405,3.1452,1.9923,5.2865,4.9868,6.3537,2.9483,1.0507,5.3739.1143,7.4423-2.0397,1.1212-1.1676,2.145-2.4337,3.3134-3.55,3.0258-2.8905,6.6021-1.9226,7.5531,2.1631.4141,1.779.2779,3.7032.2643,5.5605-.0201,2.7368-.3223,5.4805-.1954,8.2069.1443,3.0968,1.7008,5.435,4.6715,6.63,3.0812,1.2395,5.9071.7333,8.2841-1.5745,1.3344-1.2957,2.5146-2.7592,3.6926-4.2054,3.6221-4.4466,4.2419-4.3729,8.6173-.8726,3.376,2.701,6.887,5.4367,10.7597,7.2634,5.0305,2.3728,10.3226-.1372,12.3658-5.0498,1.3163-3.165.7112-6.2619-1.0019-8.9439-2.201-3.446-4.7959-6.6487-7.326-9.874-2.3217-2.9595-2.3189-4.0487.4718-6.584,1.8417-1.6731,3.8488-3.1821,5.562-4.9745,2.1825-2.2833,2.5153-5.0776,1.3993-8.0002-1.1418-2.9899-3.4442-4.6077-6.5644-4.7298-2.8527-.1117-5.7198.22-8.5815.2412-1.8546.0137-3.7894.12-5.5503-.3413-3.8165-.9997-4.7435-4.5624-2.0568-7.4386,1.4423-1.5441,3.1845-2.8248,4.5232-4.4456,2.7096-3.2805,1.9-8.3791-1.886-10.2641-2.0051-.9983-4.5565-1.3788-6.8221-1.2644-3.46.1747-6.8735,1.1248-10.331,1.546-2.6949.3282-5.489.7828-8.1267.4028-3.2966-.4749-4.0258-3.3579-1.7353-5.7735,1.3673-1.4417,3.0759-2.5839,4.3204-4.1133,3.3871-4.1623,1.0805-10.0898-4.2438-10.661-2.4204-.2596-4.9728.1157-7.3944.5758-6.8524,1.3017-13.653,2.8785-20.5121,4.1398-1.2621.232-2.8913-.1851-4.0298-.8513-6.1059-3.5727-12.1013-7.3339-18.1576-10.9923-1.1348-.6855-2.3729-1.2-4.0785-2.0502Z"/>
    <path class="cls-2" d="M712.0551,306.0197c1.7056.8502,2.9437,1.3647,4.0785,2.0502,6.0563,3.6584,12.0517,7.4196,18.1576,10.9923,1.1385.6662,2.7677,1.0833,4.0298.8513,6.8592-1.2613,13.6597-2.8381,20.5121-4.1398,2.4217-.4601,4.974-.8354,7.3944-.5758,5.3242.5712,7.6309,6.4987,4.2438,10.661-1.2445,1.5294-2.9532,2.6715-4.3204,4.1133-2.2906,2.4155-1.5614,5.2986,1.7353,5.7735,2.6378.38,5.4319-.0745,8.1267-.4028,3.4576-.4212,6.871-1.3713,10.331-1.546,2.2656-.1144,4.817.2661,6.8221,1.2644,3.786,1.885,4.5956,6.9836,1.886,10.2641-1.3388,1.6208-3.081,2.9015-4.5232,4.4456-2.6867,2.8762-1.7597,6.4389,2.0568,7.4386,1.7609.4613,3.6957.355,5.5503.3413,2.8617-.0212,5.7289-.3529,8.5815-.2412,3.1202.1221,5.4226,1.7399,6.5644,4.7298,1.116,2.9227.7832,5.7169-1.3993,8.0002-1.7132,1.7924-3.7203,3.3014-5.562,4.9745-2.7907,2.5353-2.7935,3.6245-.4718,6.584,2.5301,3.2253,5.125,6.4281,7.326,9.874,1.7131,2.682,2.3182,5.7789,1.0019,8.9439-2.0432,4.9127-7.3352,7.4227-12.3658,5.0498-3.8728-1.8267-7.3837-4.5624-10.7597-7.2634-4.3754-3.5004-4.9952-3.574-8.6173.8726-1.178,1.4462-2.3582,2.9097-3.6926,4.2054-2.377,2.3078-5.2029,2.814-8.2841,1.5745-2.9707-1.195-4.5272-3.5332-4.6715-6.63-.127-2.7264.1753-5.4701.1954-8.2069.0136-1.8573.1498-3.7815-.2643-5.5605-.951-4.0857-4.5274-5.0536-7.5531-2.1631-1.1685,1.1163-2.1922,2.3824-3.3134,3.55-2.0685,2.154-4.494,3.0905-7.4423,2.0397-2.9944-1.0672-4.8463-3.2085-4.9868-6.3537-.1268-2.8366.1091-5.7132.45-8.5403.3571-2.9619,1.1124-5.8741,1.5288-8.8313.2053-1.4574.2913-3.0205-.0097-4.4426-.7315-3.4565-3.4943-4.2298-6.0205-1.7665-1.2457,1.2147-2.297,2.6284-3.542,3.8439-2.0803,2.031-4.5348,2.4331-7.2483,1.4071-2.6653-1.0078-3.9353-3.0653-3.9572-5.7673-.018-2.2227.175-4.4849.5988-6.6666,1.4486-7.4567,2.9356-14.9096,4.6338-22.3121.5983-2.6077-.1386-4.0736-2.2633-5.5721-15.4342-10.8852-32.6599-14.7347-51.3095-13.7946-45.1464,2.2755-81.4621,41.9171-85.8481,80.8367-2.8153,24.9822-3.7237,49.9098-.9796,74.923.2133,1.9437.6943,3.858,1.1444,6.292,1.6959-.7828,3.085-1.259,4.3027-2.0123,9.1099-5.6351,18.4026-11.0142,27.1799-17.1307,4.3072-3.0015,7.6531-7.3882,11.4052-11.1766,1.9149-1.9335,1.9568-3.8998.5963-6.3589-3.0132-5.4463-5.7304-11.0574-8.523-16.6239-.836-1.6662-1.669-3.3593-2.2476-5.1239-1.296-3.9529-.6383-6.4728,1.9633-8.3962,2.7007-1.9969,5.2139-1.9471,8.6506.207,1.0548.6612,2.0261,1.4654,3.1132,2.0634,2.8845,1.5866,5.4004.1559,5.1452-3.128-.1501-1.9308-.8893-3.8737-1.6584-5.6861-1.4582-3.4364-3.2885-6.7201-4.6499-10.1905-.8021-2.0447-1.4077-4.3297-1.389-6.5006.0456-5.3011,5.2897-8.4491,10.0652-6.1906,1.7913.8472,3.3766,2.1195,5.1351,3.0482,3.4704,1.8328,6.6871.0287,6.6414-3.9199-.0239-2.0582-.779-4.1275-1.3368-6.1552-.725-2.6359-1.8921-5.1859-2.3199-7.8606-.9826-6.1437,4.9343-10.6364,10.6122-8.0578,2.3504,1.0674,4.3957,2.8003,6.596,4.2053,3.1711,2.0248,4.2861,1.7622,6.5369-1.1958,2.4081-3.1648,4.6852-6.4807,7.4498-9.3105,3.7908-3.8803,7.9011-4.4433,11.8707-2.2764,4.1521,2.2665,5.871,6.0791,4.4371,11.5216-1.0056,3.817-2.7228,7.4617-4.2879,11.1124-1.6387,3.8221-1.3266,4.8708,2.4983,6.6862,2.0234.9604,4.1237,1.7826,6.0661,2.8843,2.7125,1.5385,4.1031,3.9419,3.856,7.1313-.2588,3.3397-2.0571,5.5948-5.1784,6.6374-2.1155.7066-4.3416,1.0812-6.5153,1.6159-1.9316.4752-3.8984.85-5.7785,1.4812-2.1665.7273-3.9826,2.3441-3.6327,4.6145.2352,1.5262,1.8086,3.0081,3.0962,4.1605,1.077.964,2.6351,1.3734,3.9319,2.1131,2.4537,1.3995,3.9058,3.405,3.7439,6.3784-.1655,3.0397-1.618,5.3086-4.3747,6.4112-2.1681.8672-4.5166,1.4095-6.8358,1.7447-3.8171.5519-7.6838.7536-11.5116,1.2428-1.3328.1703-2.7263.5484-3.8944,1.1907-2.9133,1.6021-2.9193,4.3751-.0722,6.097,1.2738.7703,2.6849,1.3102,4.0103,1.9997,2.9717,1.5459,4.3678,3.9569,3.9769,7.3401-.3926,3.3984-2.7154,4.9241-5.6859,5.6054-1.927.4419-3.9367.5818-5.919.7135-7.2107.479-14.4229.9496-21.6404,1.3043-1.963.0964-3.1187.8574-4.1241,2.5591-1.7525,2.9661-3.8273,5.7419-6.0134,8.9601,3.7985.4303,7.3357.7307,10.841,1.2474,9.4142,1.3878,18.5423,3.8613,27.2187,7.7949,2.2226,1.0077,4.1067,1.1066,6.3688.1203,6.8503-2.9867,13.7723-5.8129,20.7091-8.5954,2.2991-.9222,4.6867-1.7233,7.108-2.2148,2.619-.5317,4.9466.2712,6.4785,2.672,1.544,2.4197,1.7649,4.9267.2031,7.3889-.9974,1.5723-2.2935,2.9542-3.3039,4.5194-1.8106,2.8047-.5681,5.3352,2.7776,5.3721,1.819.0201,3.7082-.452,5.4549-1.0343,3.1872-1.0627,6.2486-2.5076,9.4461-3.5327,2.2295-.7148,4.5797-1.22,6.9097-1.4138,2.9891-.2485,5.2719,1.2013,6.7417,3.8373,1.4367,2.5767,1.0374,5.0441-.5557,7.3826-1.0509,1.5427-2.3061,2.957-3.2552,4.5561-1.8285,3.0813-.3756,6.1934,3.1938,6.5625,1.8027.1864,3.7033-.2258,5.5179-.5809,2.9281-.5729,5.7938-1.5124,8.7377-1.9445,3.0814-.4523,5.6059.7583,7.2866,3.5031,1.6625,2.715,1.696,5.4648-.0314,8.0979-1.1558,1.7617-2.5536,3.3694-3.8932,5.005-3.1042,3.7899-2.9375,4.769.7251,7.9065,3.0153,2.5831,5.9821,5.2633,8.6628,8.1827,1.97,2.1455,3.0048,4.8916,2.4391,7.9489-.9254,5.0007-5.2829,8.6846-10.2577,7.5772-4.4029-.9802-8.6461-3.0122-12.7171-5.0617-5.1548-2.5952-5.8351-2.5525-8.5999,2.6538-.8742,1.6461-1.756,3.3092-2.8364,4.82-1.8348,2.566-4.3972,3.5249-7.5348,2.9722-3.0085-.53-5.0234-2.2676-5.7999-5.1477-.6442-2.389-.8684-4.8891-1.328-7.3307-.4127-2.1924-.5694-4.5067-1.4113-6.529-1.6752-4.0237-5.5866-4.2901-8.0794-.7165-1.0672,1.5299-1.8804,3.2505-3.0399,4.6999-3.3995,4.2493-9.7418,3.6223-11.9772-1.3407-.9929-2.2045-1.355-4.785-1.556-7.2315-.2747-3.3431-.0261-6.726-.1917-10.0824-.091-1.8448-.2936-3.7744-.9345-5.4827-1.257-3.3506-4.1583-3.6445-6.2073-.7578-.7899,1.1128-1.3816,2.3645-2.0954,3.5335-1.7094,2.7994-4.071,4.344-7.477,3.7354-3.0717-.5489-4.7174-2.4292-5.3642-6.3387-.2625-1.5861-.2929-3.2244-.2871-4.8384.0239-6.6022.0271-13.2061.2043-19.805.0576-2.1434-.6153-3.4679-2.5431-4.4341-13.1729-6.6023-27.0419-9.4044-41.6616-7.14-11.2539,1.7431-19.8314,7.8663-25.5539,17.6705-2.1803,3.7356-4.1485,7.745-5.3409,11.8809-5.4319,18.8395-8.3038,38.0243-4.9639,57.5714,1.1407,6.6756,3.2395,13.3256,5.8793,19.574,3.6755,8.6998,9.7172,11.2317,18.8443,8.5566,4.2739-1.2527,8.3772-3.1696,12.4391-5.0426,5.4277-2.503,10.6724-5.4049,16.1142-7.8747,18.7368-8.504,37.6468-8.9401,56.4332-.3458,7.1188,3.2566,13.9172,7.2366,20.7554,11.0761,7.5259,4.2257,15.239,6.7944,23.9333,4.1055.7082-.219,1.8906-.0802,2.34.3862.4076.4229.454,1.7631.0805,2.2839-6.454,8.9994-13.8744,16.8115-25.5587,18.5069-7.0295,1.0199-13.2382-1.4947-19.015-5.2936-9.9388-6.536-20.6839-10.9907-32.6061-12.1168-15.675-1.4807-29.9369,2.2536-42.3246,12.1905-1.1711.9394-1.7127,2.6631-2.5465,4.0227,1.5085.0751,3.0911.4858,4.5137.1718,10.446-2.3057,20.1043-.3556,28.9426,5.4314,5.7269,3.7498,11.1724,7.9273,16.7716,11.8741,4.9245,3.4712,10.1195,6.3919,16.1639,7.4331,6.808,1.1728,13.3855.4504,19.7616-2.2919,1.01-.4344,2.2806-.263,3.4308-.3717-.0885,1.2683.1892,2.7123-.3222,3.7778-5.2257,10.8868-14.0694,16.4408-26.018,17.1891-9.3676.5867-18.0959-1.864-26.165-6.3589-5.1997-2.8965-10.1887-6.2657-14.9266-9.8761-9.4063-7.1678-22.9265-8.0905-33.0065-1.8657-8.4805,5.2369-9.2217,13.4237-1.6515,19.979,6.2543,5.4159,13.8984,8.1603,21.5954,10.7781,1.5228.518,2.8521,1.6046,4.2707,2.4289-1.2156,1.1323-2.2623,2.5703-3.6731,3.3493-12.9845,7.1691-29.64,4.1025-39.4522-7.2393-2.2787-2.6339-4.2177-5.5597-6.4624-8.2255-4.0064-4.7581-8.3557-4.5296-11.3187.902-2.1325,3.9092-3.8137,8.1183-5.2395,12.3475-2.7042,8.0219-5.0198,16.1739-7.6321,24.2281-.7451,2.2974-1.9565,4.4437-2.9541,6.6593l-1.1656.1478c-.8462-1.5279-1.9511-2.9696-2.4938-4.5985-2.3214-6.9687-4.4288-14.0083-6.7106-20.9907-1.4305-4.3774-2.9618-8.7255-4.5905-13.0328-.7-1.8513-1.6259-3.652-2.686-5.3258-2.857-4.5106-6.8906-4.9301-10.4335-.9678-2.4853,2.7796-4.5463,5.9349-6.9854,8.7596-8.9257,10.3369-23.4412,13.9459-36.0534,8.994-1.8436-.7238-3.6392-1.6569-5.2902-2.7459-.8095-.5339-1.5634-1.6008-1.694-2.5187-.0623-.4375,1.3156-1.2812,2.1688-1.6136,4.4064-1.7171,9.0232-2.9872,13.2385-5.0751,3.9742-1.9686,7.9291-4.3286,11.2042-7.2798,6.3776-5.7469,5.6831-12.9843-1.1973-18.0435-9.4169-6.9245-24.4516-6.7948-33.6141.4572-6.2826,4.9724-12.8345,9.47-20.2385,12.6043-9.5472,4.0415-19.3505,5.655-29.5419,2.7363-8.5767-2.4562-14.4493-8.0707-18.2051-15.9967-.473-.9981-.2877-2.3078-.4074-3.4731,1.1356.0297,2.4106-.271,3.3856.1397,11.6081,4.8894,22.6772,3.798,33.1197-3.056,5.4108-3.5514,10.3979-7.7626,15.8899-11.1711,4.7235-2.9317,9.7228-5.5912,14.9076-7.5632,6.0757-2.3111,12.4851-1.7624,18.8077-.3404,1.1418.2568,2.4678-.3044,3.7087-.4879-.5962-1.1166-.9244-2.5608-1.8289-3.3009-14.2177-11.6354-30.5214-15.1535-48.4039-12.0161-9.3261,1.6362-18.0329,5.1166-25.7992,10.4693-16.3227,11.2499-29.5883,6.2446-40.3379-5.1455-2.044-2.1656-3.8419-4.5774-5.6031-6.9853-.4111-.5621-.5479-1.8136-.1948-2.3094.3613-.5072,1.5944-.8353,2.2489-.626,9.5784,3.0622,17.8199-.3226,25.9186-5.0065,5.9258-3.4271,11.9006-6.8261,18.0946-9.7225,18.9632-8.8676,38.0907-8.7582,57.1208-.1515,6.6931,3.0271,13.156,6.561,19.8322,9.628,3.3764,1.5511,6.9166,2.8926,10.5184,3.7767,7.6902,1.8877,13.0953-.6494,16.8048-7.6369,4.7029-8.8589,6.5949-18.4963,7.3627-28.3729,1.2601-16.2094-.8776-32.1264-5.1876-47.6913-6.9431-25.0741-24.5695-36.1053-50.3363-31.9792-7.7777,1.2455-15.3799,3.0519-22.4067,6.8459-2.2309,1.2046-3.2707,2.6014-3.1817,5.2461.2053,6.0976.1183,12.2056.1081,18.3093-.0029,1.7396-.0313,3.4943-.2536,5.2156-.5476,4.2381-2.0945,6.2259-5.1775,6.9218-3.2773.7397-5.8275-.5399-8.0122-4.0504-.5919-.9512-.9462-2.1355-1.7348-2.8577-1.0071-.9223-2.4515-2.1779-3.5098-2.0142-1.1398.1765-2.5656,1.6653-2.9481,2.8725-.6623,2.0897-.7222,4.3981-.8432,6.6252-.1958,3.604-.0638,7.2333-.4124,10.8187-.1874,1.9272-.7628,3.9735-1.7292,5.6375-2.4826,4.2747-8.2374,4.6525-11.3711.8511-1.1791-1.4304-1.8527-3.3013-3.1145-4.6324-1.1026-1.163-2.8987-2.767-4.0445-2.5281-1.6315.3404-3.5757,1.9129-4.2528,3.456-1.0183,2.3209-1.0565,5.0717-1.5094,7.6401-.3239,1.8364-.4895,3.7178-1.0013,5.5001-.8589,2.9916-2.8269,4.9026-6.0167,5.4144-3.1566.5065-5.7029-.5404-7.4701-3.1316-1.3278-1.9469-2.3606-4.0931-3.5593-6.1301-1.9955-3.391-3.1532-3.6272-6.6293-1.8228-3.5276,1.8312-7.0258,3.8585-10.7721,5.0774-2.329.7578-5.2946.8026-7.6247.0642-5.3462-1.6941-7.6899-8.4715-4.328-13.2442,2.6002-3.6914,6.1691-6.77,9.5991-9.79,3.8478-3.3878,4.0947-4.213.8314-8.1577-1.1111-1.3431-2.2726-2.651-3.2972-4.0579-2.0944-2.8758-2.5338-5.9155-.5685-9.0582,1.9-3.0384,4.754-3.8426,8.1015-3.2703,1.715.2932,3.4082.7242,5.1001,1.1387,1.4514.3557,2.8673.8889,4.3336,1.1441,2.7547.4794,5.6054.809,7.3918-2.0309,1.7432-2.7712-.4518-4.6372-1.828-6.6431-.6337-.9236-1.3746-1.7824-1.9309-2.7488-2.8157-4.8914.1731-10.5804,5.8335-10.7473,2.3031-.0678,4.7043.499,6.9318,1.1917,3.3234,1.0337,6.5017,2.5258,9.8028,3.6421,1.7475.591,3.6206,1.0977,5.4431,1.1188,3.5482.0413,4.8636-2.5159,2.9726-5.5073-.7956-1.2586-1.8386-2.3582-2.6818-3.59-2.0819-3.0413-2.1644-5.682-.3225-8.3232,1.8267-2.6194,4.4336-3.0962,7.2936-2.4062,2.0475.4939,4.063,1.1927,6.0179,1.9846,7.1583,2.8999,14.2568,5.9496,21.4492,8.7603,1.3583.5308,3.2792.7694,4.5408.2222,12.1324-5.263,24.76-8.3533,37.9469-9.2154.2206-.0144.431-.1865.9127-.4072-2.6065-3.4642-5.106-6.9408-7.8156-10.2453-.4904-.5981-1.8331-.6206-2.7978-.6877-7.0845-.4928-14.1794-.8507-21.257-1.4236-2.7072-.2191-5.5246-.4974-8.0344-1.4362-5.0711-1.8971-5.7569-8.1716-1.3663-11.3744,1.4912-1.0878,3.4208-1.5848,4.8794-2.7042,1.0622-.8151,2.3771-2.2543,2.3062-3.3316-.0753-1.1453-1.4722-2.8459-2.6068-3.1571-3.2114-.881-6.5829-1.1819-9.8933-1.6989-3.4363-.5366-6.9194-.8669-10.2984-1.6486-2.6609-.6155-4.641-2.3582-5.4647-5.1336-.9494-3.1991-.0569-5.9198,2.7901-7.8104,1.5482-1.0281,3.4543-1.5692,4.8689-2.7314,1.2321-1.0123,2.8523-2.6531,2.7571-3.8984-.1167-1.5279-1.5766-3.2907-2.9411-4.2892-1.3195-.9655-3.2427-1.1378-4.9232-1.5716-2.7684-.7147-5.6112-1.1885-8.3187-2.0793-3.0033-.9881-4.5964-3.3191-4.8583-6.4676-.2498-3.0016.9252-5.4414,3.4829-6.963,2.2369-1.3309,4.6933-2.2879,7.017-3.4795,3.1204-1.6002,3.3689-2.7128,2.0653-5.9823-1.697-4.256-3.4995-8.5144-4.6504-12.9297-.9356-3.5894.3543-6.8909,3.4837-9.2351,3.7646-2.8201,8.0106-3.0817,11.6364.2221,3.1778,2.8956,5.8069,6.4486,8.3907,9.9249,2.9345,3.9482,3.7898,4.2353,7.7947,1.4638,1.7391-1.2035,3.4436-2.4773,5.278-3.5183,2.8905-1.6404,5.7495-1.3773,8.383.6683,2.5206,1.9579,3.4278,4.591,2.6833,7.6368-.6188,2.5316-1.606,4.9709-2.3175,7.4829-.5395,1.9045-1.2273,3.8509-1.2763,5.793-.1057,4.1903,3.1206,6.0321,6.811,4.0467,1.6421-.8835,3.1298-2.0654,4.7993-2.8843,4.9325-2.4195,10.3237.8096,10.2034,6.3062-.0528,2.4144-.8272,4.9064-1.7228,7.187-1.3169,3.3537-3.1365,6.507-4.5413,9.8305-.7156,1.6928-1.3233,3.5573-1.3956,5.3675-.124,3.1056,2.2698,4.4669,5.0191,3.0196,1.5369-.8091,2.9123-1.9203,4.4297-2.7721,2.668-1.4976,5.2644-1.2443,7.6875.6067,2.4098,1.8407,2.8454,4.3343,1.992,7.038-.6706,2.1248-1.5239,4.2143-2.5132,6.212-2.8741,5.8036-5.7762,11.5968-8.8427,17.2998-1.0453,1.9441-1.0503,3.5413.4232,5.0737,3.7812,3.9324,7.1359,8.4959,11.5257,11.5756,8.9598,6.286,18.4809,11.7739,27.7916,17.5571,1.035.6429,2.2048,1.0689,3.8311,1.8424.4278-1.6989.9419-3.0525,1.0939-4.4455,3.1814-29.1438,3.3004-58.2787-2.8919-87.021-9.1208-42.3345-52.3234-73.9125-95.5437-70.8127-14.4248,1.0346-27.4916,5.493-39.3845,13.676-2.2974,1.5807-2.9584,3.1603-2.3301,5.8916,1.7305,7.5225,3.2134,15.1035,4.6905,22.6815.378,1.9398.5236,3.9559.5043,5.9343-.0261,2.6775-1.1224,4.8271-3.7824,5.8973-2.8416,1.1433-5.3935.6821-7.5638-1.473-1.2352-1.2266-2.2823-2.6461-3.5445-3.8413-2.4153-2.2872-5.0685-1.5554-5.8312,1.7138-.3566,1.5285-.2783,3.2271-.0668,4.8044.3967,2.959,1.1776,5.8686,1.5291,8.8308.3355,2.8272.5682,5.7088.4067,8.5415-.1793,3.1455-2.098,5.216-5.1146,6.2402-2.8347.9624-5.1363.0353-7.1238-1.9634-1.2287-1.2357-2.317-2.6162-3.5894-3.802-2.9073-2.7096-6.392-1.8377-7.4368,2.0191-.506,1.8677-.3788,3.9341-.3635,5.9091.0212,2.7348.4032,5.4778.2708,8.1998-.1501,3.0862-1.7245,5.4114-4.7176,6.5915-3.1108,1.2265-5.9256.66-8.2661-1.6548-1.5877-1.5703-2.9418-3.3757-4.4128-5.065-2.7843-3.1977-3.8982-3.2808-7.1016-.5992-1.91,1.5989-3.7627,3.2832-5.7891,4.7206-1.7147,1.2164-3.5634,2.3166-5.492,3.1436-3.7789,1.6205-7.311,1.118-10.3346-1.8447-3.1388-3.0754-3.918-6.8342-1.9411-10.5925,1.8912-3.5952,4.3483-6.9476,6.9082-10.1237,3.8128-4.7305,3.8696-5.2404-.9725-9.1688-1.3517-1.0966-2.7138-2.2058-3.9104-3.4622-2.157-2.2647-2.7761-4.9289-1.6741-7.9342,1.1041-3.0108,3.3275-4.7376,6.4211-4.9396,2.8407-.1854,5.714.1963,8.5731.2,1.9756.0026,4.043.117,5.9078-.4004,3.6882-1.0233,4.5541-4.3925,2.0003-7.1958-1.254-1.3765-2.7517-2.5279-4.0571-3.8615-1.9758-2.0184-2.8183-4.3463-1.7742-7.1594,1.0506-2.8305,3.0184-4.7139,6.0004-4.916,2.8302-.1918,5.718.0103,8.5445.3435,3.0866.3639,6.1162,1.2061,9.2018,1.5872,1.6909.2089,3.541.2199,5.1514-.2522,2.8144-.8249,3.3554-3.312,1.3674-5.4957-.9166-1.0069-2.0542-1.8093-3.0555-2.7431-2.9863-2.7853-3.6772-5.1541-2.4571-8.2966,1.1694-3.0118,3.327-4.2066,7.6068-4.0292,1.6088.0667,3.224.3167,4.8062.6333,6.9628,1.3933,13.9033,2.9017,20.8814,4.211,1.1815.2216,2.8908.1136,3.7054-.5926,5.7282-4.9651,12.3758-8.3362,19.1364-11.5535.9833-.4679,1.9147-1.0446,3.3763-1.8498-1.3737-1.6784-2.3354-3.2891-3.6905-4.4345-6.1812-5.2243-12.4049-10.4054-18.7928-15.3713-1.0472-.814-3.0534-.8453-4.5116-.6045-7.0047,1.1564-13.9648,2.5798-20.9603,3.7966-2.0692.3599-4.2096.5496-6.3036.4675-2.5344-.0994-4.4949-1.3372-5.4576-3.8491-.9743-2.5424-.7701-4.938,1.0873-6.976,1.2527-1.3744,2.8795-2.4263,4.0312-3.8681.7658-.9586,1.6466-2.6214,1.2922-3.4814-.4676-1.1343-1.9989-2.2977-3.2466-2.5345-1.8987-.3604-3.9672-.0845-5.9261.1891-2.9582.4133-5.8653,1.2351-8.8295,1.5496-2.5753.2733-5.2889.5202-7.7844.0107-5.7801-1.1801-7.6576-7.4874-3.7021-11.831,1.17-1.2848,2.5862-2.3426,3.7966-3.5942,3.0019-3.1043,2.0017-6.9466-2.2252-7.8082-2.267-.4621-4.7001-.1447-7.0575-.118-2.2366.0252-4.4854.3141-6.7053.1562-3.2649-.2322-5.5677-1.944-6.6658-5.1379-1.0446-3.0382-.3534-5.6986,1.869-7.8833,1.771-1.741,3.7982-3.2184,5.6249-4.9066,2.419-2.2355,2.4733-3.4889.4038-6.0442-1.7243-2.1291-3.6455-4.1206-5.1746-6.3793-1.381-2.0398-2.5937-4.2692-3.4417-6.5762-1.2768-3.4738-.3194-6.6171,2.3097-9.2261,2.6203-2.6002,5.9251-3.8855,9.1979-2.2401,4.1694,2.0961,8.0971,4.793,11.8085,7.6473,4.2036,3.2329,4.9965,3.3248,8.4263-.8362,1.3434-1.6298,2.6434-3.356,4.2476-4.6987,4.664-3.9038,11.2824-1.5516,12.3401,4.4528.4236,2.4049.0563,4.9481.0588,7.4284.0024,2.3565-.3454,4.7851.105,7.0541.8518,4.2906,4.6158,5.2985,7.7539,2.2662,1.252-1.2098,2.3052-2.6304,3.5901-3.8001,4.3366-3.9475,10.6523-2.0757,11.8485,3.6935.5167,2.4919.2714,5.2061-.0005,7.7799-.3131,2.9633-1.1363,5.8694-1.5503,8.8266-.2741,1.9582-.5519,4.0259-.1919,5.924.2363,1.246,1.4021,2.7764,2.5364,3.2417.8602.3528,2.5038-.5459,3.4811-1.2994,1.2604-.9718,2.1574-2.4003,3.2939-3.5501,2.1476-2.173,4.6772-2.6828,7.5398-1.5674,2.8319,1.1034,4.0168,3.3681,3.9155,6.18-.098,2.7185-.4907,5.449-1.0069,8.1255-1.344,6.9695-2.9094,13.8973-4.1771,20.8797-.2261,1.2451.0944,3.2092.9399,3.9304,6.4334,5.4868,12.905,10.9552,19.6812,16.0049,4.5006,3.354,9.6694,4.171,15.5355,3.7235,9.6445-.7356,19.4122-.6596,29.0781-.0859,9.5194.565,18.5386,3.5378,27.0264,8.0591,12.0267,6.4064,23.5637,13.499,33.6599,22.7479,8.0991,7.4194,14.4421,16.1036,19.0986,26.053.8531,1.8227,2.1404,3.4423,3.2272,5.1557.4192-.0157.8383-.0314,1.2575-.0471.7441-1.9747,1.9193-3.8996,2.1547-5.9332.844-7.2905,1.6733-14.6065,1.9439-21.9337.3906-10.5771.4247-21.1731.3572-31.7595-.0634-9.9459-4.2732-18.259-11.8238-24.4382-4.9548-4.0548-10.8199-6.9964-16.2672-10.4525-1.7305-1.0979-3.2703-.5125-4.9088.3055-7.6906,3.8397-15.393,7.6572-23.1346,11.3924-2.1186,1.0222-4.3331,1.9455-6.6026,2.5298-2.7142.6988-5.1893.0755-6.9078-2.439-1.6433-2.4044-1.7955-4.8708-.3371-7.3751.8131-1.3963,1.9692-2.6233,2.5987-4.0866.4927-1.1453.9952-2.9683.4435-3.7115-.7223-.9731-2.5324-1.7194-3.7769-1.5941-2.0481.2062-4.0694,1.0666-6.0091,1.874-3.3329,1.3874-6.5333,3.1094-9.9091,4.3708-1.9393.7247-4.1247,1.1851-6.1811,1.1265-5.2988-.1511-8.3414-5.4287-5.9912-10.1882.8775-1.777,2.1698-3.3455,3.1059-5.0982,1.7991-3.3685.1872-6.4457-3.6354-6.5488-2.0522-.0554-4.1507.6249-6.1854,1.142-2.7691.7037-5.4504,1.9117-8.2526,2.2947-6.1956.8466-10.4788-5.1333-7.778-10.762.9578-1.9962,2.4227-3.7581,3.722-5.5801,2.8652-4.0179,2.6182-4.9167-1.218-7.8408-3.4479-2.6281-6.9765-5.2836-9.8695-8.4712-3.3529-3.6944-3.1821-7.869-.4154-11.6409,2.4129-3.2896,5.8259-4.4961,9.5699-3.4847,4.0534,1.095,7.9877,2.738,11.8387,4.4468,4.5859,2.0349,5.5502,1.779,7.6791-2.8827.8776-1.9218,1.6446-3.9396,2.8185-5.6723,3.5211-5.1971,10.7871-4.5659,13.2078,1.2177,1.0418,2.4893,1.3203,5.2924,2.01,7.9361.5316,2.0375.8577,4.2089,1.8159,6.0378,1.924,3.6723,5.7702,3.7105,7.9441.2302.921-1.4746,1.5592-3.1255,2.4764-4.6029,3.202-5.1583,10.0224-4.973,12.5319.5703,1.2492,2.7594,1.6102,5.9707,2.0694,9.0232.4621,3.0715.4347,6.2145.8449,9.2965.2088,1.5685.6462,3.2264,1.4418,4.571,1.469,2.4829,4.1018,2.4328,5.6923-.0023.8802-1.3475,1.444-2.8971,2.2548-4.2951,1.8213-3.14,4.1316-4.288,7.4135-3.8294,3.2113.4489,4.7101,2.6809,5.37,5.4897.5086,2.1647.687,4.4259.8218,6.6557.3533,5.8433.6242,11.6919.8786,17.5406.0685,1.573.2122,2.8304,2.09,3.4379,9.5143,3.0774,17.8606,8.1672,25.1956,14.9445.2509.2318.6627.2894,1.2536.5329.2181-.5706.6047-1.0921.5824-1.5954-.5861-13.1848-.4577-26.4888-3.7177-39.3564-1.6011-6.3198-4.0659-12.5866-7.1606-18.3274-5.9969-11.1246-13.8732-20.9445-22.994-29.755-8.7365-8.4394-18.843-14.679-30.1146-19.0488-1.3623-.5281-3.1859-.398-4.6572-.0258-7.9694,2.0166-15.8784,4.2721-23.8461,6.2957-2.5122.638-5.1506,1.1854-7.7158,1.1242-5.4271-.1296-8.1591-5.7991-5.0306-10.2509,1.1318-1.6106,2.771-2.8549,4.0612-4.3665,2.2758-2.6663,1.2493-5.4882-2.2575-5.8327-1.9391-.1905-3.9765.1247-5.9119.505-3.1749.6237-6.2755,1.6442-9.4598,2.1946-2.3064.3987-4.7414.6554-7.0425.3665-5.825-.7314-8.2673-6.9035-4.6605-11.5036,1.1472-1.4632,2.6245-2.6635,3.8258-4.0893,2.6354-3.1277,1.379-6.8611-2.6755-7.4657-2.1714-.3238-4.457.0615-6.6867.1984-2.4816.1524-4.9576.5369-7.437.546-3.0048.011-5.1933-1.5073-6.5056-4.2357-1.3829-2.8751-1.1214-5.6481.9338-8.0307,1.7-1.9709,3.732-3.6519,5.5605-5.5166,2.4888-2.5382,2.4051-3.6323.0382-6.3048-2.7986-3.1599-5.6749-6.284-8.1386-9.6968-1.9589-2.7135-2.5644-5.9534-1.1988-9.2417,2.0169-4.8563,6.9483-7.2738,12.0203-5.1284,3.9532,1.6723,7.5764,4.2306,11.1368,6.6971,4.2131,2.9186,5.1247,2.9081,8.1309-1.1881,1.1775-1.6044,2.3076-3.2601,3.6349-4.7345,2.1937-2.4366,4.9003-3.2754,8.1164-2.1849,3.2126,1.0893,4.8837,3.4141,5.1435,6.6608.2179,2.7231.023,5.4768.1578,8.2097.0913,1.8503.1422,3.7885.7297,5.5107,1.2698,3.7225,4.8656,4.3934,7.5763,1.5357,1.2825-1.3519,2.3046-2.9551,3.6151-4.2752,4.0374-4.0667,10.3253-2.7223,11.8454,2.8043.7993,2.906.588,6.1478.4857,9.2264-.0906,2.7255-.7917,5.4263-.9778,8.1547-.1338,1.9617-.1956,4.0388.2996,5.9085.8547,3.2276,3.6199,3.7888,5.9059,1.3639,1.1065-1.1738,2.0029-2.5427,3.0465-3.7793,2.0851-2.4707,4.7231-3.1218,7.7518-2.142,2.907.9405,4.0908,3.3019,4.1475,6.0537.0584,2.8413-.3031,5.7066-.6661,8.5377-.6335,4.9405-1.1867,9.9093-2.2047,14.7761-.6549,3.131.5222,4.3208,3.1893,5.5481,22.5119,10.3585,41.2254,25.4843,56.1207,45.2955,1.6449,2.1878,3.0425,4.561,4.6781,6.7564.9286,1.2464,2.1076,2.3063,3.5797,3.8856.3982-1.2756.7288-1.9044.7773-2.5542.7241-9.6877,1.361-19.3822,2.1435-29.0649.1855-2.2965-.6545-3.6302-2.5506-4.8424-5.7723-3.6903-11.4532-7.5258-17.1181-11.3804-1.8451-1.2555-3.6475-2.6222-5.2624-4.1558-2.1502-2.0421-3.0396-4.5495-1.7184-7.4557,1.2682-2.7896,3.4655-4.154,6.5318-4.0759,1.6187.0413,3.2382.2153,4.8538.1782,3.5106-.0806,4.9385-2.65,2.8945-5.5245-1.1257-1.583-2.7383-2.8823-4.3116-4.0712-2.7806-2.1012-5.7963-3.8976-8.5246-6.06-1.7309-1.3719-3.4377-2.975-4.6002-4.8233-3.0098-4.7852.0444-10.513,5.6565-10.8586,1.858-.1144,3.7363.1458,5.6016.0967,4.1361-.1088,6.0212-3.3291,3.8713-6.9002-1.0023-1.6648-2.5721-3.0084-3.9752-4.4068-1.9377-1.9312-4.0999-3.6529-5.9116-5.6904-2.18-2.4518-2.519-5.3411-1.0821-8.3555,1.3807-2.8965,3.7609-4.2816,6.8951-4.2414,2.3617.0302,4.7182.3546,7.0808.4721,3.763.1872,4.5772-.6225,4.9891-4.3101.4278-3.8294.7043-7.719,1.6225-11.4404,1.4963-6.0636,4.7025-8.3644,10.6505-8.3912,6.3258-.0284,9.4157,2.1222,11.018,8.3804.8881,3.4688,1.1554,7.1101,1.5387,10.6911.5137,4.799,1.234,5.447,6.1628,5.031,1.8615-.1571,3.7238-.3466,5.5894-.4058,3.435-.109,6.0299,1.2536,7.4904,4.4918,1.4722,3.2641.649,6.1329-1.6773,8.5813-1.7101,1.7999-3.698,3.3328-5.4932,5.0563-1.3413,1.2876-2.8158,2.5335-3.8044,4.0719-2.3475,3.6533-.429,7.0273,3.925,7.1251,1.8659.0419,3.7442-.2056,5.6013-.0836,5.2652.3458,8.3463,5.6863,5.7182,10.2915-1.1941,2.0923-3.0912,3.8993-4.9862,5.4486-2.6925,2.2015-5.7182,3.9904-8.5193,6.0665-1.39,1.0302-2.9245,2.1097-3.7857,3.5341-.7325,1.2114-1.1627,3.1934-.6557,4.3754.3897.9086,2.4104,1.3704,3.7685,1.5456,1.576.2033,3.2257-.2555,4.8341-.1914,2.8877.1151,4.8759,1.6302,6.0317,4.2845,1.1446,2.6286.4849,4.959-1.397,6.8587-1.5643,1.5791-3.3411,2.9902-5.1804,4.2465-5.8637,4.0052-11.7652,7.9578-17.7305,11.8095-1.7624,1.138-2.5773,2.3763-2.402,4.5524.7698,9.559,1.3928,19.1297,2.095,28.6943.0531.7234.309,1.432.7074,3.1955,1.7026-1.8957,3.1296-3.1418,4.1419-4.6636,13.7622-20.6877,31.9206-36.4341,53.8087-48.0042,2.3111-1.2217,4.6228-2.5156,7.0741-3.379,2.5472-.8972,3.0141-2.3853,2.6341-4.8475-.9495-6.1531-1.7419-12.3328-2.4587-18.5179-.241-2.0792-.3914-4.2677-.0138-6.3006.9846-5.3016,6.9243-7.2112,10.9206-3.5593,1.4554,1.33,2.5005,3.0974,3.86,4.546,2.2801,2.4295,5.0899,1.8671,5.8812-1.3809.5147-2.1127.3747-4.4375.2274-6.6473-.2729-4.0949-.8749-8.1688-1.1124-12.2647-.091-1.5697.1901-3.2675.7341-4.7481,1.8344-4.9922,7.7089-6.3511,11.5386-2.6918,1.4317,1.368,2.5284,3.0796,3.8953,4.5233,2.8382,2.9975,6.6039,2.1312,7.63-1.8896.5125-2.0086.3703-4.1911.4648-6.2975.1168-2.6053-.0106-5.2353.3002-7.8145.3787-3.143,2.3266-5.1052,5.3865-6.0119,2.9458-.8729,5.4838-.145,7.4919,2.0351,1.595,1.7316,2.9181,3.7137,4.3592,5.5867,2.5635,3.3316,3.6354,3.3782,7.0836,1.0432,3.6943-2.5016,7.3706-5.168,11.4023-6.9973,4.802-2.1788,9.0522-.4899,11.655,3.6965,1.9957,3.2099,1.8451,6.5867-.0905,9.5545-2.2268,3.4142-4.856,6.6057-7.5949,9.637-3.7479,4.148-3.8113,4.8097.4313,8.6772,1.4695,1.3396,2.9641,2.6833,4.233,4.2039,2.0302,2.4326,2.2165,5.2014.881,8.0534-1.2854,2.745-3.4955,4.2101-6.5041,4.233-2.109.016-4.2231-.2149-6.3291-.4006-1.3631-.1202-2.7106-.4305-4.0742-.5275-2.9217-.2078-5.93-.3086-7.4756,2.8551-1.5441,3.1603,1.187,4.7071,2.8419,6.6083.6535.7507,1.4148,1.4133,2.0243,2.1959,3.5734,4.5886,1.1912,10.8029-4.6121,11.5235-2.5358.3149-5.2172-.062-7.7706-.492-3.0629-.5159-6.0344-1.5641-9.0938-2.113-2.0531-.3683-4.2489-.6275-6.2753-.2939-2.8432.4681-3.645,3.091-1.831,5.3375,1.0117,1.2531,2.3068,2.273,3.391,3.473,2.4052,2.6621,2.8195,5.3637,1.4138,8.2259-1.4412,2.9346-4.0348,3.5804-6.912,3.3126-2.2178-.2064-4.4318-.6734-6.5922-1.2364-7.835-2.0418-15.6202-4.2834-23.488-6.1857-1.7682-.4275-3.9731-.24-5.6757.4296-26.3383,10.3571-43.0871,30.5676-55.6522,54.8587-4.2996,8.3122-5.4518,17.572-6.1477,26.7928-.5903,7.8222-.8261,15.6714-1.1903,23.51-.0332.7153.1416,1.4403.2811,2.7261,1.0798-.7161,1.9085-1.1325,2.5763-1.7291,6.8715-6.1395,14.6023-10.8406,23.3747-13.6864,2.1711-.7043,2.897-1.8292,2.9644-4.0017.1853-5.9749.4815-11.9495.8995-17.9126.1726-2.462.4219-5.0182,1.2424-7.3151,1.8266-5.1132,8.0382-5.9774,11.3406-1.6503,1.1929,1.5632,1.7771,3.589,2.9618,5.1606.7296.9678,2.1002,2.0774,3.1265,2.0246,1.0665-.0549,2.6123-1.2378,2.9816-2.2723.8228-2.3054,1.1457-4.8115,1.4852-7.2617.5631-4.0639.6876-8.2133,1.578-12.1968.4533-2.0285,1.8103-4.1935,3.3949-5.5595,3.1447-2.7111,7.7136-1.7406,10.0524,1.788,1.0271,1.5496,1.7217,3.3155,2.6875,4.9105,2.1656,3.5767,5.9239,3.611,7.8781-.0835.966-1.8264,1.3244-3.9907,1.8465-6.0306.5548-2.1674.8507-4.4064,1.488-6.5461.9687-3.2524,3.0543-5.3517,6.6132-5.7121,3.512-.3557,6.0731,1.1056,7.7297,4.1091,1.1405,2.0677,2.0072,4.2851,3.1149,6.3726,1.5514,2.9235,2.6693,3.1639,5.744,1.9283,4.3677-1.7553,8.7201-3.6358,13.2356-4.9069,3.2654-.9193,6.423.1174,8.7594,2.8761,3.0392,3.5886,3.4603,8.2781.2117,11.9532-2.8476,3.2214-6.348,5.9223-9.7956,8.5433-4.2088,3.1998-4.4599,4.0161-1.2367,8.3844.8135,1.1025,1.6722,2.1761,2.4193,3.3222,2.4267,3.7231,2.5344,6.761.3699,9.7076-2.3192,3.1571-5.4737,3.6752-9.0046,2.671-2.3932-.6806-4.7166-1.6085-7.1132-2.2749-1.6651-.4631-3.4059-.9594-5.1051-.9335-3.9951.0611-5.7588,3.2021-3.8781,6.7036.8225,1.5315,1.9018,2.9229,2.7845,4.4249,1.4307,2.4346,1.6955,4.9304.0863,7.4064-1.6462,2.533-4.0585,3.8073-7.0038,3.3582-2.4331-.371-4.8551-1.1055-7.1515-2.0099-3.008-1.1847-5.8475-2.7921-8.8381-4.0276-1.7051-.7044-3.5475-1.3487-5.3618-1.4576-3.3138-.1989-4.7136,2.2942-3.0671,5.1774.8625,1.5103,1.9775,2.8767,2.8361,4.3889,1.5243,2.6846,1.1152,5.2705-.6907,7.6827-1.7246,2.3037-4.1282,2.7686-6.6924,2.0445-2.2599-.6381-4.4829-1.5093-6.6007-2.5295-7.7439-3.7306-15.4616-7.518-23.1313-11.3984-1.8301-.926-3.3767-1.0333-5.261-.1552-6.8332,3.1841-13.2155,6.9965-18.42,12.5426-5.1928,5.5336-9.0055,12.0179-8.9674,19.627.0885,17.6697.7883,35.3382,1.4033,53.0015.0847,2.4315.883,4.9101,1.7417,7.2218.8096,2.1793,2.1411,2.2913,3.5498.4581.8998-1.1708,1.5872-2.5353,2.2031-3.8888,5.7577-12.6534,14.5972-22.7911,25.448-31.3022,9.9461-7.8014,20.7421-14.2335,32.159-19.5958,8.4583-3.9727,17.5423-5.819,26.8088-6.0778,8.4464-.2358,16.9244.1581,25.3701.6135,3.9748.2143,7.6687-.1003,11.2256-1.9361,8.8704-4.5783,16.0839-11.2923,23.1544-18.1388.852-.825.8657-2.9935.5993-4.414-1.4-7.4652-3.0655-14.8802-4.5228-22.3353-.4026-2.0601-.5618-4.1983-.5561-6.2999.0073-2.7005,1.1934-4.7959,3.8597-5.8276,2.7007-1.0449,5.1702-.6696,7.2622,1.3476,1.3416,1.2938,2.4592,2.8225,3.8199,4.0932,2.2877,2.1362,4.9668,1.4872,5.642-1.5727.4402-1.9949.2144-4.1974-.0287-6.2699-.5503-4.691-1.4338-9.3451-1.9088-14.0418-.2705-2.6742.4944-5.2063,2.7424-7.0254,2.921-2.3637,6.295-2.3494,9.1767.2083,1.4842,1.3173,2.6882,2.9464,4.1446,4.2992,2.7894,2.5909,6.1478,1.8435,7.2845-1.7934.5749-1.8391.5122-3.9189.501-5.8886-.0126-2.2356-.4167-4.4691-.4258-6.7044-.0184-4.5272,1.5626-7.1248,4.8896-8.4094,3.5193-1.3588,6.4411-.4529,9.5772,3.051,1.162,1.2982,2.1689,2.7352,3.3339,4.0305,2.5225,2.8045,3.5919,2.7839,6.6001.4873,3.453-2.6361,6.8779-5.3602,10.5882-7.5919,3.0022-1.8057,6.398-2.0018,9.5897.0283,4.0072,2.5487,5.8714,6.9687,3.7759,11.3175-1.9143,3.973-4.6594,7.6076-7.4068,11.1018-3.3111,4.2112-3.3894,4.9947.7584,8.4149,1.5352,1.266,3.1136,2.508,4.4801,3.9437,2.1551,2.2642,2.7394,4.9491,1.5902,7.9432-1.1466,2.9871-3.3718,4.678-6.4776,4.8692-2.7217.1676-5.47-.1519-8.207-.1624-1.9801-.0076-4.036-.1734-5.9258.281-3.871.931-4.8568,4.4726-2.1834,7.3662,1.2643,1.3684,2.7582,2.5221,4.0589,3.8598,1.8634,1.9164,2.6837,4.1357,1.7746,6.8251-.9668,2.8601-2.8654,4.8456-5.8475,5.082-2.9469.2336-5.9618.0231-8.9117-.3072-3.0878-.3456-6.1193-1.1761-9.2037-1.576-1.5705-.2036-3.2832-.2194-4.791.1931-3.0659.8388-3.6816,3.3473-1.51,5.6638,1.1028,1.1764,2.4208,2.148,3.594,3.2623,2.3111,2.195,3.0072,4.7651,1.8052,7.8086-1.1958,3.0276-3.6583,3.955-6.5805,3.9099-1.9795-.0306-3.9793-.2771-5.9257-.6552-6.8478-1.3303-13.6636-2.8299-20.5239-4.0889-1.3229-.2427-3.175-.1757-4.132.5763-6.4598,5.0759-12.7809,10.3316-19.0552,15.6375-1.2638,1.0687-2.1352,2.6012-3.4885,4.2971Z"/>
  </g>
</svg>