<?xml version="1.0" encoding="UTF-8" standalone="no"?>
<!-- Created with Inkscape (http://www.inkscape.org/) -->

<svg
   version="1.0"
   width="312.5"
   height="312.5"
   id="svg4166"
   xmlns:xlink="http://www.w3.org/1999/xlink"
   xmlns="http://www.w3.org/2000/svg"
   xmlns:svg="http://www.w3.org/2000/svg"
   xmlns:rdf="http://www.w3.org/1999/02/22-rdf-syntax-ns#"
   xmlns:cc="http://creativecommons.org/ns#"
   xmlns:dc="http://purl.org/dc/elements/1.1/">
  <defs
     id="defs4168" />
<metadata
   id="metadata1880"><rdf:RDF><cc:Work
         rdf:about=""><dc:title>Blekinge läns vapenflagga</dc:title><dc:date>2012-01-19</dc:date><dc:creator><cc:Agent><dc:title>Lokal_Profil</dc:title></cc:Agent></dc:creator><cc:license
         rdf:resource="http://creativecommons.org/licenses/by-sa/2.5/" /><dc:rights><cc:Agent><dc:title>cc-by-sa-2.5</dc:title></cc:Agent></dc:rights><dc:format>image/svg+xml</dc:format><dc:type
         rdf:resource="http://purl.org/dc/dcmitype/StillImage" /></cc:Work><cc:License
         rdf:about="http://creativecommons.org/licenses/by-sa/2.5/"><cc:permits
         rdf:resource="http://web.resource.org/cc/Reproduction" /><cc:permits
         rdf:resource="http://web.resource.org/cc/Distribution" /><cc:requires
         rdf:resource="http://web.resource.org/cc/Notice" /><cc:requires
         rdf:resource="http://web.resource.org/cc/Attribution" /><cc:permits
         rdf:resource="http://web.resource.org/cc/DerivativeWorks" /><cc:requires
         rdf:resource="http://web.resource.org/cc/ShareAlike" /></cc:License></rdf:RDF>
</metadata>
  <rect
     width="312.5"
     height="312.5"
     x="0"
     y="0"
     id="Flaggduk"
     style="fill:#003d8f" />
  <g
     id="Blekinge-oak-and-crowns"
     transform="matrix(0.95857437,0,0,0.95857437,35.948888,16.367459)">
    <g
       style="fill:#ffcd50"
       id="Generic-Oak"
       transform="matrix(0.98162871,0,0,0.91862122,1.9195063,-37.188399)">
      <path
         d="m 133.51617,326.94501 c 1.82094,1.82093 3.03489,4.24885 2.42792,6.0698 -0.60698,1.82094 -3.0349,3.03489 -4.85583,4.85583 -1.82094,1.82094 -3.0349,4.24885 -3.0349,7.28376 0,3.03489 1.21396,6.67677 1.82094,7.28375 0.60698,0.60698 0.60698,-1.82094 1.82094,-4.24886 1.21395,-2.42791 3.64187,-4.85584 5.46282,-6.0698 1.82092,-1.21396 3.03489,-1.21396 4.24885,-0.60698 1.21396,0.60698 2.42791,1.82094 2.42791,4.24887 0,2.42791 -1.21395,6.06979 0,6.67677 1.21396,0.60698 4.85584,-1.82094 5.46283,-5.46281 0.60696,-3.64189 -1.82095,-8.49772 -3.64189,-12.13959 -1.82094,-3.64189 -3.03489,-6.06981 -1.21396,-6.67678 1.82094,-0.60698 6.67677,0.60697 8.49772,1.82093 1.82094,1.21396 0.60698,2.42792 1.21396,3.03491 0.60698,0.60698 3.03489,0.60698 4.24885,-0.60699 1.21396,-1.21396 1.21396,-3.64188 1.82094,-4.85583 0.60698,-1.21396 1.82093,-1.21396 3.03489,0 1.21397,1.21395 2.42793,3.64187 1.21397,6.67678 -1.21397,3.03489 -4.85584,6.67676 -6.0698,9.71167 -1.21396,3.0349 0,5.46281 1.21396,6.06979 1.21396,0.60698 2.42791,-0.60698 3.64187,-2.42791 1.21397,-1.82094 2.42793,-4.24887 4.24887,-4.85584 1.82093,-0.60699 4.24885,0.60697 6.0698,0.60697 1.82092,0 3.03489,-1.21396 3.03489,-2.42792 0,-1.21395 -1.21397,-2.42791 -2.42793,-3.03489 -1.21395,-0.60698 -2.42791,-0.60698 -3.03489,-2.42792 -0.60698,-1.82093 -0.60698,-5.46282 -1.21396,-7.89073 -0.60698,-2.42792 -1.82093,-3.64188 -0.60698,-3.64188 1.21396,0 4.85583,1.21396 7.28376,1.82094 2.42792,0.60698 3.64188,0.60698 4.85583,1.82094 1.21396,1.21395 2.42792,3.64187 2.42792,5.46282 0,1.82094 -1.21396,3.03489 -1.21396,4.24885 0,1.21396 1.21396,2.42792 2.42792,1.82094 1.21396,-0.60698 2.42791,-3.0349 4.24886,-4.24885 1.82094,-1.21396 4.24885,-1.21396 5.46281,-1.82094 1.21396,-0.60699 1.21396,-1.82095 0,-2.42792 -1.21396,-0.60699 -3.64187,-0.60699 -5.46281,-1.82095 -1.82095,-1.21395 -3.0349,-3.64187 -2.42791,-4.24885 0.60696,-0.60698 3.03489,0.60698 4.85583,0 1.82093,-0.60698 3.03489,-3.03489 5.46281,-3.64187 2.42791,-0.60699 6.0698,0.60698 9.71167,0 3.64188,-0.60699 7.28376,-3.03491 8.49772,-4.85585 1.21396,-1.82093 0,-3.03489 -1.82094,-2.42791 -1.82094,0.60698 -4.24886,3.03489 -7.89073,3.03489 -3.64188,0 -8.49772,-2.42791 -13.35355,-1.82093 -4.85585,0.60698 -9.71168,4.24885 -14.56751,3.64188 -4.85584,-0.60699 -9.71167,-5.46282 -13.96053,-6.0698 -4.24886,-0.60698 -7.89074,3.0349 -11.53261,3.64187 -3.64188,0.60698 -7.28376,-1.82093 -9.71167,-4.85583 -2.42792,-3.0349 -4.33847,-6.63447 -4.24886,-10.92563 l 2.42792,-116.26411 c 0.0896,-4.29116 -0.76058,-9.33262 1.06035,-11.76054 1.82094,-2.42791 5.46281,-2.42791 9.1047,-1.21395 3.64187,1.21395 7.28375,3.64187 9.10469,6.06979 1.82093,2.42792 3.20183,10.26819 3.80882,11.48215 l 1.05509,-0.10191 c 0,-1.82095 -0.85161,-11.14363 -2.67254,-13.57155 -1.82095,-2.42791 -4.35817,-6.28718 -6.63909,-7.48261 -2.16602,-1.13521 -3.03492,-8.53149 0.31196,-8.39106 3.34689,0.14043 7.49535,-0.0842 11.25524,3.62614 1.155,1.13976 4.12743,1.28136 4.86527,-0.16386 0.71061,-1.39189 -1.14166,-3.38188 -2.6203,-3.8878 -6.73525,-2.3045 -14.17121,-0.75775 -12.3856,-4.61394 0.60115,-1.29824 2.57782,-4.13253 2.97625,-4.68188 0.68754,-0.94798 2.484,-2.00421 4.78454,-1.09039 l 5.99186,-3.27138 -5.99186,-1.36067 c -4.10329,1.78127 -4.69793,2.68898 -1.67847,-0.87302 1.56475,-1.73255 5.9022,-4.35399 11.03503,-5.89323 1.55786,-0.46717 3.73446,-2.377 3.01544,-3.83583 -0.84072,-1.70576 -4.52301,-1.42557 -5.70472,0.0644 -2.69957,3.40379 -3.12442,1.83483 -1.46252,-0.76392 1.07726,-1.68453 0.91767,-5.48176 -1.03579,-5.9085 -2.02386,-0.44211 -3.65137,3.04838 -3.52801,5.11628 0.19635,3.29123 -2.18689,4.99377 -3.42378,6.69402 -1.23688,1.70024 -4.88922,6.85072 -7.21731,10.38058 -3.0349,4.24885 -6.67678,9.1047 -9.1047,11.53261 -2.42791,2.42792 -3.64187,2.42792 -5.46281,2.42792 -1.82093,0 -4.24886,0 -5.46282,-1.21396 -1.21395,-1.21396 -1.21395,-3.64187 0,-5.46281 1.21396,-1.82095 2.03021,-3.84075 3.85115,-5.05471 1.82093,-1.21396 3.35722,-2.75024 4.57118,-4.57118 1.21395,-1.82095 2.75025,-3.28186 3.35724,-5.10279 0.60697,-1.82094 1.22026,-7.13887 1.22026,-8.35283 l -0.38874,-1.24801 c -1.77318,6.92849 -2.48021,10.52844 -10.18317,15.8318 -2.49974,1.72102 -5.67409,3.24191 -6.14726,2.5257 0,0 -1.45204,0.33017 -2.9655,-15.24731 -1.50846,-15.52588 -1.10354,-3.22065 -1.55583,-15.24731 0,0 -0.51872,-0.0978 -0.66153,-0.0978 -0.14281,0 -0.66153,0.0978 -0.66153,0.0978 -0.45229,12.02666 -0.0474,-0.27857 -1.55583,15.24731 -1.51346,15.57748 -2.9655,15.24731 -2.9655,15.24731 -0.47317,0.71621 -3.64752,-0.80468 -6.14726,-2.5257 -7.70296,-5.30336 -8.40999,-8.90331 -10.18317,-15.8318 l -0.38874,1.24801 c 0,1.21396 0.61329,6.53189 1.22026,8.35283 0.60699,1.82093 2.14329,3.28184 3.35724,5.10279 1.21396,1.82094 2.75025,3.35722 4.57118,4.57118 1.82094,1.21396 2.63719,3.23376 3.85115,5.05471 1.21395,1.82094 1.21395,4.24885 0,5.46281 -1.21396,1.21396 -3.64189,1.21396 -5.46282,1.21396 -1.82094,0 -3.0349,0 -5.46281,-2.42792 -2.42792,-2.42791 -6.069801,-7.28376 -9.104701,-11.53261 -2.32809,-3.52986 -5.980428,-8.68034 -7.217313,-10.38058 -1.236885,-1.70025 -3.620123,-3.40279 -3.423779,-6.69402 0.123364,-2.0679 -1.504148,-5.55839 -3.528004,-5.11628 -1.953467,0.42674 -2.113055,4.22397 -1.035794,5.9085 1.661905,2.59875 1.237053,4.16771 -1.46252,0.76392 -1.181711,-1.48997 -4.863997,-1.77016 -5.704724,-0.0644 -0.719019,1.45883 1.457584,3.36866 3.01544,3.83583 5.132831,1.53924 9.470286,4.16068 11.035035,5.89323 3.019456,3.562 2.42482,2.65429 -1.678467,0.87302 l -5.991868,1.36067 5.991868,3.27138 c 2.300541,-0.91382 4.096998,0.14241 4.784539,1.09039 0.398427,0.54935 2.375096,3.38364 2.976247,4.68188 1.785613,3.85619 -5.650348,2.30944 -12.385604,4.61394 -1.478637,0.50592 -3.330902,2.49591 -2.620292,3.8878 0.737838,1.44522 3.710271,1.30362 4.865265,0.16386 3.759895,-3.71031 7.908351,-3.48571 11.255238,-3.62614 3.346887,-0.14043 2.477984,7.25585 0.311963,8.39106 -2.28092,1.19543 -4.81814,5.0547 -6.63909,7.48261 -1.82093,2.42792 -2.67254,11.7506 -2.67254,13.57155 l 1.05509,0.10191 c 0.60699,-1.21396 1.98789,-9.05423 3.80882,-11.48215 1.82094,-2.42792 5.46282,-4.85584 9.104691,-6.06979 3.64189,-1.21396 7.28376,-1.21396 9.1047,1.21395 1.82093,2.42792 0.97074,7.46938 1.06035,11.76054 l 2.42792,116.26411 c 0.0896,4.29116 -1.82094,7.89073 -4.24886,10.92563 -2.42791,3.0349 -6.06979,5.46281 -9.711671,4.85583 -3.64187,-0.60697 -7.28375,-4.24885 -11.53261,-3.64187 -4.24886,0.60698 -9.10469,5.46281 -13.96053,6.0698 -4.85583,0.60697 -9.71166,-3.0349 -14.56751,-3.64188 -4.85583,-0.60698 -9.71167,1.82093 -13.35355,1.82093 -3.64187,0 -6.06979,-2.42791 -7.89073,-3.03489 -1.82094,-0.60698 -3.0349,0.60698 -1.82094,2.42791 1.21396,1.82094 4.85584,4.24886 8.49772,4.85585 3.64187,0.60698 7.28376,-0.60699 9.71167,0 2.42792,0.60698 3.64188,3.03489 5.46281,3.64187 1.82094,0.60698 4.24887,-0.60698 4.85583,0 0.60699,0.60698 -0.60696,3.0349 -2.42791,4.24885 -1.82094,1.21396 -4.24885,1.21396 -5.46281,1.82095 -1.21396,0.60697 -1.21396,1.82093 0,2.42792 1.21396,0.60698 3.64187,0.60698 5.46281,1.82094 1.82095,1.21395 3.0349,3.64187 4.24886,4.24885 1.21396,0.60698 2.42792,-0.60698 2.42792,-1.82094 0,-1.21396 -1.21396,-2.42791 -1.21396,-4.24885 0,-1.82095 1.21396,-4.24887 2.42792,-5.46282 1.21395,-1.21396 2.42791,-1.21396 4.85583,-1.82094 2.42793,-0.60698 6.0698,-1.82094 7.28376,-1.82094 1.21395,0 0,1.21396 -0.60698,3.64188 -0.60698,2.42791 -0.60698,6.0698 -1.21396,7.89073 -0.60698,1.82094 -1.82094,1.82094 -3.03489,2.42792 -1.21396,0.60698 -2.42793,1.82094 -2.42793,3.03489 0,1.21396 1.21397,2.42792 3.03489,2.42792 1.82095,0 4.24887,-1.21396 6.0698,-0.60697 1.82094,0.60697 3.0349,3.0349 4.24887,4.85584 1.21396,1.82093 2.42791,3.03489 3.64187,2.42791 1.21396,-0.60698 2.42792,-3.03489 1.21396,-6.06979 -1.21396,-3.03491 -4.85583,-6.67678 -6.0698,-9.71167 -1.21396,-3.03491 0,-5.46283 1.21397,-6.67678 1.21396,-1.21396 2.42791,-1.21396 3.03489,0 0.60698,1.21395 0.60698,3.64187 1.82094,4.85583 1.21396,1.21397 3.64187,1.21397 4.24885,0.60699 0.60698,-0.60699 -0.60698,-1.82095 1.21396,-3.03491 1.820951,-1.21396 6.676781,-2.42791 8.497721,-1.82093 1.82093,0.60697 0.60698,3.03489 -1.21396,6.67678 -1.82094,3.64187 -4.24885,8.4977 -3.64189,12.13959 0.60699,3.64187 4.24887,6.06979 5.46283,5.46281 1.21395,-0.60698 0,-4.24886 0,-6.67677 0,-2.42793 1.21395,-3.64189 2.42791,-4.24887 1.21396,-0.60698 2.42793,-0.60698 4.24885,0.60698 1.82095,1.21396 4.24887,3.64189 5.46282,6.0698 1.21396,2.42792 1.21396,4.85584 1.82094,4.24886 0.60698,-0.60698 1.82094,-4.24886 1.82094,-7.28375 0,-3.03491 -1.21396,-5.46282 -3.0349,-7.28376 -1.82093,-1.82094 -4.24885,-3.03489 -4.85583,-4.85583 -0.60697,-1.82095 0.60698,-4.24887 2.42792,-6.0698 1.82093,-1.82094 5.81823,-3.64146 7.63952,-3.64146 1.82129,0 5.81859,1.82052 7.63952,3.64146 z"
         style="stroke:none"
         id="trunk" />
      <g
         style="stroke:none"
         id="Acorns"
         transform="matrix(1.2179343,0,0,1.2179343,-27.2746,6.7908826)">
        <use
           xlink:href="#Ollon"
           height="304.20001"
           width="251"
           y="0"
           x="0"
           id="Ollon2"
           style="stroke:none"
           transform="translate(61.36193,1.8359e-5)" />
        <use
           xlink:href="#Ollon"
           height="304.20001"
           width="251"
           y="0"
           x="0"
           id="Ollon3"
           style="stroke:none"
           transform="matrix(0.951057,-0.309017,-0.309017,-0.951057,62.976126,271.32654)" />
        <use
           height="100%"
           width="100%"
           transform="rotate(-162.00001,115.89637,120.71026)"
           id="Ollon4"
           xlink:href="#Ollon"
           y="0"
           x="0" />
        <g
           id="Ollon"
           transform="matrix(0.505045,0,0,0.505048,26.637385,100.0341)">
          <path
             id="path2772"
             d="m 117.48957,110.74999 h 36.00018 c 0,-4.00002 0,-8.00004 -2.00001,-12.00006 -2.00001,-4.000025 -6.00003,-8.000045 -10.00005,-10.000055 -4.00002,-2.00001 -8.00004,-2.00001 -12.00006,0 -4.00002,2.00001 -8.00004,6.00003 -10.00005,10.000055 -2.00001,4.00002 -2.00001,8.00004 -2.00001,12.00006 z" />
          <path
             id="path2774"
             d="m 123.4896,110.74999 c 0,6.00003 0,12.00006 1.00001,16.00008 1,4.00002 3.00001,6.00003 5.00002,9.00005 2.00001,3.00001 4.00002,7.00003 6.00003,7.00003 2.00001,0 4.00002,-4.00002 6.00003,-7.00003 2.00001,-3.00002 4.00002,-5.00003 5.00003,-9.00005 1,-4.00002 1,-10.00005 1,-16.00008" />
        </g>
      </g>
      <g
         transform="matrix(1.2179343,0,0,1.2179343,-27.618235,6.7907497)"
         id="Oak-leafs"
         style="stroke:none">
        <use
           height="100%"
           width="100%"
           transform="matrix(0,1.0979181,1.0979181,0,0.6488635,4.2368992)"
           id="use50"
           xlink:href="#use29"
           y="0"
           x="0" />
        <g
           id="g85">
          <use
             x="0"
             y="0"
             xlink:href="#use29"
             id="use34"
             transform="rotate(80.152242,99.700583,107.01872)"
             width="100%"
             height="100%" />
          <use
             x="0"
             y="0"
             xlink:href="#use29"
             id="use36"
             transform="rotate(35.491484,104.84363,99.417339)"
             width="100%"
             height="100%" />
          <use
             x="0"
             y="0"
             xlink:href="#use29"
             id="use52"
             transform="rotate(-28.990275,116.01253,125.80586)"
             width="100%"
             height="100%" />
          <path
             d="m 94.062732,112.29636 c 0,0 -3.919024,-1.40685 -4.926374,-1.9016 -1.00735,-0.49475 -4.02964,-1.97894 -6.04244,-1.44973 -2.01307,0.5296 -4.02429,2.5776 -6.06116,1.59229 -2.03687,-0.98531 -4.09937,-5.00392 -6.1125,-4.47464 -2.0128,0.52921 -3.97643,5.60702 -7.01704,4.62864 -3.04057,-0.97804 -7.15872,-8.01183 -10.19371,-8.47692 -3.03505,-0.46543 -4.9869,5.63819 -7.00003,6.16746 -2.01313,0.52928 -4.08675,-4.51525 -6.62916,-5.9991 -2.54234,-1.48353 -5.55339,0.59395 -6.04015,2.12528 -0.4871,1.53139 1.54977,2.5167 0.55507,3.53863 -0.9943,1.02219 -5.020563,2.08075 -7.029863,3.112 -2.0093,1.03126 -1.99505,2.03557 -1.99505,3.03929 0,1.00372 -0.01425,2.00803 1.99505,3.03929 2.0093,1.03125 6.035563,2.08981 7.029863,3.112 0.9947,1.02193 -1.04217,2.00724 -0.55507,3.53863 0.48676,1.53133 3.49781,3.60881 6.04015,2.12528 2.54241,-1.48385 4.61603,-6.52838 6.62916,-5.9991 2.01313,0.52927 3.96498,6.63289 7.00003,6.16746 3.03499,-0.46509 7.15314,-7.49888 10.19371,-8.47692 3.04061,-0.97838 5.00424,4.09943 7.01704,4.62864 2.01313,0.52928 4.07563,-3.48933 6.1125,-4.47464 2.03687,-0.98531 4.04809,1.06269 6.06116,1.59229 2.0128,0.52921 5.03509,-0.95498 6.04244,-1.44973 1.00735,-0.49475 4.926374,-1.9016 4.926374,-1.9016 v -1.9016 z"
             id="use29" />
        </g>
        <use
           transform="matrix(-1,0,0,1,252.08516,0)"
           id="use87"
           xlink:href="#g85"
           y="0"
           x="0"
           width="100%"
           height="100%" />
      </g>
    </g>
    <path
       d="m 99.659364,218.96695 c 3.700846,5.23885 5.931466,11.37308 6.460156,17.76545 v 9.69025 c 12.83062,-2.15339 25.9304,-2.15339 38.76101,0 v -9.69025 c 0.52869,-6.39237 2.75931,-12.5266 6.46016,-17.76545 -1.58048,-1.43708 -4.01104,-1.37935 -5.52152,0.13111 -1.51047,1.51048 -1.5682,3.94105 -0.13111,5.52153 l -1.16446,2.56163 c -0.6815,-1.32665 -2.18273,-2.01422 -3.63241,-1.66363 -1.44968,0.35056 -2.47084,1.64814 -2.47082,3.1396 0,0.99352 0.45724,1.93178 1.23974,2.54397 0.78249,0.61221 1.80319,0.83024 2.76753,0.59119 l -0.77719,1.70997 c -0.34754,1.0428 -1.32338,1.74618 -2.42257,1.74618 -1.09918,0 -2.07502,-0.70338 -2.42256,-1.74618 v -9.69025 c 0.89197,0 1.61505,-0.72308 1.61505,-1.61504 0,-0.89197 -0.72308,-1.61505 -1.61505,-1.61505 -0.89196,0 -1.61504,0.72308 -1.61504,1.61505 -1e-5,0.72112 0.47805,1.35488 1.17144,1.55296 l -2.78648,9.75233 c -0.37308,1.17697 -1.55488,1.90047 -2.77277,1.69749 -1.21788,-0.20297 -2.10117,-1.27067 -2.07235,-2.50501 l -0.36482,-3.10034 c 0.97418,0.75574 2.29365,0.89096 3.40088,0.34853 1.10725,-0.54242 1.80911,-1.66787 1.80906,-2.90083 0,-1.37055 -0.86491,-2.59186 -2.1577,-3.04688 -1.2928,-0.45502 -2.73199,-0.0447 -3.59041,1.02376 l -0.19991,-1.69885 c 1.6632,-0.81271 2.71795,-2.5021 2.71793,-4.35324 -4e-5,-2.315 -1.63771,-4.30656 -3.90911,-4.75379 l -0.12849,-0.89887 c 0,-0.44597 -0.36154,-0.80751 -0.80752,-0.80751 -0.44598,0 -0.80752,0.36154 -0.80752,0.80751 l -0.1285,0.89887 c -2.27138,0.44723 -3.90906,2.43879 -3.90911,4.75379 -2e-5,1.85114 1.05474,3.54053 2.71794,4.35324 l -0.19991,1.69885 c -0.85842,-1.06841 -2.2976,-1.47878 -3.5904,-1.02376 -1.29279,0.45502 -2.1577,1.67633 -2.1577,3.04688 -6e-5,1.23296 0.7018,2.35841 1.80904,2.90083 1.10724,0.54243 2.4267,0.40721 3.40089,-0.34853 l -0.36482,3.10034 c 0.0288,1.23434 -0.85446,2.30204 -2.07235,2.50501 -1.2179,0.20298 -2.39968,-0.52052 -2.77276,-1.69749 l -2.7865,-9.75233 c 0.6934,-0.19808 1.17146,-0.83184 1.17145,-1.55296 0,-0.89197 -0.72309,-1.61505 -1.61503,-1.61505 -0.89198,0 -1.61505,0.72308 -1.61505,1.61505 0,0.89196 0.72307,1.61504 1.61505,1.61504 v 9.69025 c -0.34755,1.0428 -1.32338,1.74618 -2.42258,1.74618 -1.09918,0 -2.07501,-0.70338 -2.42256,-1.74618 l -0.77719,-1.70997 c 0.96434,0.23905 1.98504,0.021 2.76754,-0.59119 0.7825,-0.61219 1.23972,-1.55045 1.23974,-2.54397 2e-5,-1.49146 -1.02115,-2.78904 -2.47083,-3.1396 -1.44967,-0.35059 -2.95091,0.33698 -3.63242,1.66363 l -1.16444,-2.56163 c 1.43707,-1.58048 1.37935,-4.01105 -0.13112,-5.52153 -1.51048,-1.51046 -3.94105,-1.56819 -5.521526,-0.13111 z"
       style="fill:#ffcd50;stroke:#003d8f;stroke-width:1"
       id="Crown" />
    <use
       x="0"
       y="0"
       xlink:href="#Crown"
       id="Crown-2"
       transform="translate(0,-35.006779)" />
    <use
       x="0"
       y="0"
       xlink:href="#Crown"
       id="Crown-3"
       transform="translate(0,-70.013558)" />
  </g>
</svg>
