<?xml version="1.0" encoding="utf-8"?>
<svg viewBox="0 0 750 500" width="750px" height="500px" xmlns="http://www.w3.org/2000/svg">
  <clipPath id="p.0">
    <path d="m0 0l1000.0 0l0 666.6667l-1000.0 0l0 -666.6667z" clip-rule="nonzero"/>
  </clipPath>
  <g transform="matrix(0.9999999999999999, 0, 0, 0.9999999999999999, 0, 0)">
    <path id="rect1526" d="M 0 0 L 750 0 L 750 500 L 0 500 L 0 0 Z" opacity="undefined" fill="#000f5d" style="transform-origin: 375px 250px;"/>
    <path fill=" #ffb900" id="path92" d="M 346.554 222.899 C 346.516 222.854 346.478 222.799 346.441 222.745 C 329.849 202.292 346.753 189.987 347.126 173.04 C 360.349 195.069 343.128 201.813 362.45 222.915 L 346.554 222.899 Z"/>
    <path fill=" #ffb900" id="path94" d="M 366.585 222.912 C 360.2 213.93 355.721 199.593 357.637 190.227 C 359.537 180.865 366.024 171.646 365.125 164.56 C 366.245 167.255 370.231 173.395 371.428 179.952 C 377.26 164.881 387.445 158.519 403.266 157.741 C 374.812 179.363 411.955 195.98 387.395 222.938 L 366.585 222.912 Z"/>
    <path fill=" #ffb900" id="path96" d="M 392.668 222.95 C 404.25 208.328 401.187 197.222 400.14 188.347 C 399.235 180.673 399.622 175.851 412.111 169.885 C 411.139 172.096 409.829 173.513 409.048 175.425 C 408.122 177.693 406.806 180.287 408.602 185.732 C 410.506 189.958 410.563 195.888 409.013 198.875 C 407.53 199.284 415.638 188.851 418.742 188.113 C 415.297 195.238 416.718 203.394 411.247 212.422 C 409.233 215.746 405.773 219.553 401.522 222.949"/>
    <path fill=" #ffb900" id="path98" d="M 388.632 281.903 C 389.64 256.34 395.109 248.373 405.479 237.682 C 385.357 237.634 362.87 237.693 344.573 237.618 C 354.899 248.325 360.423 256.361 361.377 281.921 C 370.545 281.925 379.526 281.881 388.632 281.903 L 388.632 281.903 Z"/>
    <path fill=" #ffb900" id="path100" d="M 374.965 344.185 L 382.926 369.155 L 387.323 295.008 C 379.125 294.98 370.927 295.032 362.729 295.02 L 366.949 369.139 L 374.965 344.185 L 374.965 344.185 Z"/>
    <path fill=" #ffb900" id="path102" d="M 374.974 456.148 C 378.486 452.891 379.483 442.282 379.483 442.282 L 381.668 396.983 L 375.033 392.321 L 368.384 396.968 L 370.499 442.278 C 370.499 442.278 371.441 452.857 374.958 456.151 L 374.974 456.148 Z"/>
    <path fill=" #ffb900" id="text2636" d="M 337.982 111.99 L 322.5 104.051 L 323.578 101.949 L 339.06 109.888 L 337.982 111.99 M 340.62 106.272 L 328.11 94.18 L 329.908 92.32 L 344.643 95.261 C 344.967 95.323 345.264 95.39 345.532 95.463 C 345.801 95.537 346.039 95.619 346.246 95.71 L 336.107 85.908 L 337.675 84.286 L 350.184 96.379 L 348.402 98.221 L 333.417 95.284 C 333.188 95.238 332.958 95.181 332.729 95.112 C 332.505 95.038 332.275 94.953 332.04 94.857 L 342.18 104.659 L 340.62 106.272 M 353.826 77.584 L 350.04 79.06 L 354.859 91.418 L 358.644 89.942 C 360.266 89.31 361.286 88.308 361.706 86.936 C 362.123 85.556 361.93 83.835 361.126 81.774 C 360.357 79.8 359.346 78.453 358.093 77.733 C 356.84 77.013 355.418 76.963 353.826 77.584 M 353.43 94.258 L 347.11 78.047 L 353.283 75.64 C 355.543 74.759 357.534 74.761 359.256 75.644 C 360.986 76.525 362.347 78.238 363.339 80.784 C 364.366 83.418 364.542 85.712 363.867 87.665 C 363.197 89.609 361.746 91.015 359.516 91.885 L 353.43 94.258 M 369.792 89.327 L 368.417 71.983 L 370.772 71.796 L 372.147 89.14 L 369.792 89.327 M 380.436 82.206 L 385.76 83.227 L 384.562 75.18 L 380.436 82.206 M 374.132 88.357 L 383.756 72.487 L 386.319 72.979 L 389.409 91.288 L 386.892 90.805 L 386.062 85.354 L 379.334 84.063 L 376.533 88.817 L 374.132 88.357 M 391.138 92.215 L 400.973 77.862 L 403.107 79.324 L 402.667 94.344 C 402.66 94.673 402.643 94.977 402.616 95.254 C 402.588 95.531 402.547 95.779 402.492 95.999 L 410.463 84.365 L 412.324 85.64 L 402.49 99.993 L 400.375 98.544 L 400.769 83.279 C 400.777 83.045 400.795 82.809 400.824 82.572 C 400.86 82.338 400.906 82.098 400.961 81.849 L 392.99 93.484 L 391.138 92.215 M 412.77 101.682 L 415.658 106.271 L 420.721 99.901 L 412.77 101.682 M 403.972 101.275 L 422.138 97.474 L 423.529 99.683 L 412.259 114.44 L 410.893 112.271 L 414.31 107.943 L 410.66 102.145 L 405.274 103.344 L 403.972 101.275"/>
    <path stroke="null" id="svg_28" d="M 356.423 284.35 L 393.577 284.35 L 393.577 292.6 L 356.423 292.6 L 356.423 284.35 Z" opacity="undefined" fill="#ffb900"/>
    <path fill="#ffb900" d="M 344.811 115.084 L 367.873 115.084 L 375 93.176 L 382.127 115.084 L 405.189 115.084 L 386.531 128.623 L 393.658 150.53 L 375 136.991 L 356.342 150.53 L 363.469 128.623 L 344.811 115.084 Z" fill-rule="evenodd" clip-path="url(#p.0)"/>
    <path fill="#ffb900" d="M 353.858 43.447 L 370.009 43.447 L 375 28.099 L 379.991 43.447 L 396.142 43.447 L 383.075 52.933 L 388.066 68.28 L 375 58.795 L 361.934 68.28 L 366.925 52.933 L 353.858 43.447 Z" fill-rule="evenodd" clip-path="url(#p.0)"/>
    <path fill="#ffb900" d="M 449.614 69.554 L 465.765 69.554 L 470.756 54.206 L 475.747 69.554 L 491.898 69.554 L 478.831 79.039 L 483.822 94.387 L 470.756 84.901 L 457.69 94.387 L 462.681 79.039 L 449.614 69.554 Z" fill-rule="evenodd" clip-path="url(#p.0)"/>
    <path fill="#ffb900" d="M 520.201 132.162 L 536.352 132.162 L 541.342 116.814 L 546.333 132.162 L 562.484 132.162 L 549.418 141.647 L 554.409 156.995 L 541.342 147.509 L 528.276 156.995 L 533.267 141.647 L 520.201 132.162 Z" fill-rule="evenodd" clip-path="url(#p.0)"/>
    <path fill="#ffb900" d="M 339.154 226.723 L 410.846 226.723 L 410.846 233.479 L 339.154 233.479 L 339.154 226.723 Z" fill-rule="evenodd" clip-path="url(#p.0)"/>
    <path fill="#ffb900" d="M 558.25 222.219 L 574.401 222.219 L 579.392 206.871 L 584.382 222.219 L 600.533 222.219 L 587.467 231.704 L 592.458 247.052 L 579.392 237.567 L 566.325 247.052 L 571.316 231.704 L 558.25 222.219 Z" fill-rule="evenodd" clip-path="url(#p.0)"/>
    <path fill="#ffb900" d="M 545.833 322.065 L 561.984 322.065 L 566.974 306.718 L 571.965 322.065 L 588.116 322.065 L 575.05 331.551 L 580.041 346.899 L 566.974 337.413 L 553.908 346.899 L 558.899 331.551 L 545.833 322.065 Z" fill-rule="evenodd" clip-path="url(#p.0)"/>
    <path fill="#ffb900" d="M 490.718 399.183 L 506.869 399.184 L 511.86 383.836 L 516.851 399.184 L 533.002 399.183 L 519.935 408.669 L 524.926 424.017 L 511.86 414.531 L 498.794 424.017 L 503.785 408.669 L 490.718 399.183 Z" fill-rule="evenodd" clip-path="url(#p.0)"/>
    <path fill="#ffb900" d="M 406.856 447.067 L 423.007 447.067 L 427.998 431.72 L 432.989 447.067 L 449.14 447.067 L 436.073 456.553 L 441.064 471.901 L 427.998 462.415 L 414.932 471.901 L 419.923 456.553 L 406.856 447.067 Z" fill-rule="evenodd" clip-path="url(#p.0)"/>
    <path fill="#ffb900" d="M 442.803 335.059 L 458.954 335.06 L 463.945 319.712 L 468.936 335.06 L 485.086 335.059 L 472.02 344.545 L 477.011 359.893 L 463.945 350.407 L 450.878 359.893 L 455.87 344.545 L 442.803 335.059 Z" fill-rule="evenodd" clip-path="url(#p.0)"/>
    <path fill="#ffb900" d="M 480.886 245.66 L 497.037 245.66 L 502.027 230.312 L 507.018 245.66 L 523.169 245.66 L 510.103 255.145 L 515.094 270.493 L 502.027 261.007 L 488.961 270.493 L 493.952 255.145 L 480.886 245.66 Z" fill-rule="evenodd" clip-path="url(#p.0)"/>
    <path fill="#ffb900" d="M 353.858 372.054 L 370.009 372.054 L 375 356.706 L 379.991 372.054 L 396.142 372.054 L 383.075 381.539 L 388.066 396.887 L 375 387.401 L 361.934 396.887 L 366.925 381.539 L 353.858 372.054 Z" fill-rule="evenodd" clip-path="url(#p.0)"/>
    <path fill="#ffb900" d="M 526.22 141.716 L 527.591 145.117 L 423.016 187.377 L 421.646 183.975 L 526.22 141.716 Z" fill-rule="evenodd" clip-path="url(#p.0)"/>
    <path fill="#ffb900" d="M 555.218 222.377 L 554.817 226.014 L 417.643 211.581 L 418.045 207.943 L 555.218 222.377 Z" fill-rule="evenodd" clip-path="url(#p.0)"/>
    <path fill="#ffb900" d="M 300.386 69.554 L 284.235 69.554 L 279.244 54.206 L 274.253 69.554 L 258.102 69.554 L 271.169 79.039 L 266.178 94.387 L 279.244 84.901 L 292.31 94.387 L 287.319 79.039 L 300.386 69.554 Z" fill-rule="evenodd" clip-path="url(#p.0)"/>
    <path fill="#ffb900" d="M 229.799 132.162 L 213.648 132.162 L 208.658 116.814 L 203.667 132.162 L 187.516 132.162 L 200.582 141.647 L 195.591 156.995 L 208.658 147.509 L 221.724 156.995 L 216.733 141.647 L 229.799 132.162 Z" fill-rule="evenodd" clip-path="url(#p.0)"/>
    <path fill="#ffb900" d="M 191.75 222.219 L 175.599 222.219 L 170.608 206.871 L 165.618 222.219 L 149.467 222.219 L 162.533 231.704 L 157.542 247.052 L 170.608 237.567 L 183.675 247.052 L 178.684 231.704 L 191.75 222.219 Z" fill-rule="evenodd" clip-path="url(#p.0)"/>
    <path fill="#ffb900" d="M 204.167 322.065 L 188.016 322.065 L 183.026 306.718 L 178.035 322.065 L 161.884 322.065 L 174.95 331.551 L 169.959 346.899 L 183.026 337.413 L 196.092 346.899 L 191.101 331.551 L 204.167 322.065 Z" fill-rule="evenodd" clip-path="url(#p.0)"/>
    <path fill="#ffb900" d="M 259.282 399.183 L 243.131 399.184 L 238.14 383.836 L 233.149 399.184 L 216.998 399.183 L 230.065 408.669 L 225.074 424.017 L 238.14 414.531 L 251.206 424.017 L 246.215 408.669 L 259.282 399.183 Z" fill-rule="evenodd" clip-path="url(#p.0)"/>
    <path fill="#ffb900" d="M 343.144 447.067 L 326.993 447.067 L 322.002 431.72 L 317.011 447.067 L 300.86 447.067 L 313.927 456.553 L 308.936 471.901 L 322.002 462.415 L 335.068 471.901 L 330.077 456.553 L 343.144 447.067 Z" fill-rule="evenodd" clip-path="url(#p.0)"/>
    <path fill="#ffb900" d="M 307.197 335.059 L 291.046 335.06 L 286.055 319.712 L 281.064 335.06 L 264.914 335.059 L 277.98 344.545 L 272.989 359.893 L 286.055 350.407 L 299.121 359.893 L 294.13 344.545 L 307.197 335.059 Z" fill-rule="evenodd" clip-path="url(#p.0)"/>
    <path fill="#ffb900" d="M 269.114 245.66 L 252.963 245.66 L 247.973 230.312 L 242.982 245.66 L 226.831 245.66 L 239.897 255.145 L 234.906 270.493 L 247.973 261.007 L 261.039 270.493 L 256.048 255.145 L 269.114 245.66 Z" fill-rule="evenodd" clip-path="url(#p.0)"/>
    <path fill="#ffb900" d="M 223.78 141.716 L 222.409 145.117 L 334.543 190.424 L 335.913 187.023 L 223.78 141.716 Z" fill-rule="evenodd" clip-path="url(#p.0)"/>
    <path fill="#ffb900" d="M 194.782 222.377 L 195.183 226.014 L 332.357 211.581 L 331.955 207.943 L 194.782 222.377 Z" fill-rule="evenodd" clip-path="url(#p.0)"/>
    <clipPath id="g27882b3edf0_0_39.0">
      <path d="m0 0l1000.0 0l0 666.6667l-1000.0 0l0 -666.6667z" clip-rule="nonzero"/>
    </clipPath>
    <g clip-path="url(#g27882b3edf0_0_39.0)" transform="matrix(0.75, 0, 0, 0.75, 0, 0.000006)">
      <path fill="#ffb900" d="m497.52756 188.95543l4.9448853 0l0 34.14174l-4.9448853 0z" fill-rule="evenodd"/>
      <path fill="#ffb900" d="m393.24667 127.4042l-4.0629883 2.803154l65.543304 95.33858l4.0629883 -2.8031464z" fill-rule="evenodd"/>
      <path fill="#ffb900" d="m606.59314 127.86089l4.0629883 2.803154l-60.692932 88.28346l-4.0629883 -2.8031464z" fill-rule="evenodd"/>
    </g>
  </g>
</svg>