<?xml version="1.0" encoding="UTF-8"?>
<svg xmlns="http://www.w3.org/2000/svg" width="900" height="600">
<rect width="900" height="600" fill="#00609e"/>
<rect width="900" height="400" fill="#fff"/>
<rect width="900" height="200" fill="#db2926"/>
<circle cx="342.338" cy="266.625" r="56.25" fill="#fdbe02"/>
<path fill="#007834" d="m228.655,220.259-156.111,170.287,180.742,0,97.6256-116.263zm135.079,59.6511-92.7893,110.636,165.784,0,48.0255-57.175zm133.729,59.0883-43.1892,51.5476,159.823,0z"/>
<g fill="#201b18" stroke="#201b18" stroke-width="3.5">
<path d="m488.13,258.142,1.12362,0.23851-3.94969,12.5387-35.7516,0,0-1.26068,1.7365,0c1.95215,0,3.34816-0.63602,4.18804-1.90807,0.47669-0.72687,0.71503-2.40779,0.71504-5.04273v-29.8135c-0.00001-2.88476-0.3178-4.69061-0.95337-5.41753-0.88529-0.99941-2.20186-1.49915-3.94971-1.4992h-1.7365v-1.26068h20.9062v1.26068c-2.45155-0.0227-4.17103,0.20448-5.15843,0.68146-0.98744,0.47706-1.66275,1.07901-2.02593,1.80584-0.3632,0.72693-0.5448,2.46463-0.54478,5.2131v29.0298c-0.00002,1.88536,0.18158,3.18011,0.54478,3.88426,0.27238,0.47703,0.69231,0.82911,1.25982,1.05626,0.56746,0.22714,2.33802,0.34072,5.31166,0.34072h3.37086c3.54108,0,6.02666-0.26122,7.45676-0.78367,1.43003-0.52244,2.73524-1.44807,3.91564-2.77691,1.18034-1.32882,2.3607-3.42428,3.54111-6.28638z"/>
<path d="m525.419,255.451-17.8758,0-3.13251,7.29152c-0.7718,1.7945-1.15768,3.13468-1.15767,4.02056-0.00001,0.70417,0.3348,1.32316,1.00444,1.85695,0.66962,0.5338,2.11671,0.88021,4.34127,1.03922v1.26068h-14.539v-1.26068c1.92944-0.34073,3.17791-0.78367,3.7454-1.32883,1.15766-1.09032,2.44018-3.30504,3.84755-6.64414l16.2414-38.0249h1.19172l16.0712,38.4338c1.29382,3.08924,2.46852,5.09384,3.52409,6.01379,1.05546,0.91996,2.52525,1.43673,4.40935,1.55031v1.26068h-18.2163v-1.26068c1.83862-0.0908,3.0814-0.39752,3.72837-0.91996,0.6469-0.52245,0.97037-1.15847,0.97041-1.90807-0.00004-0.99945-0.45403-2.57814-1.36196-4.73607zm-0.95338-2.52136-7.83129-18.6718-8.03559,18.6718z"/>
<path d="m596.144,224.717,0,1.26068c-1.63441,0.29535-2.87152,0.8178-3.71135,1.56734-1.20312,1.11309-2.26998,2.81671-3.20062,5.11088l-16.1052,39.3197h-1.25981l-17.297-39.8308c-0.88528-2.04431-1.50952-3.29363-1.8727-3.74797-0.5675-0.70413-1.2655-1.25497-2.09402-1.65252-0.82854-0.39747-1.94647-0.65301-3.35384-0.76664v-1.26068h18.8632v1.26068c-2.13376,0.20448-3.51842,0.56793-4.154,1.09033-0.63559,0.52249-0.95339,1.19258-0.95337,2.01028-0.00002,1.13579,0.52207,2.90756,1.56626,5.31532l11.7469,27.0876,10.8957-26.7469c1.06683-2.63489,1.60027-4.46345,1.60031-5.48567-0.00004-0.65869-0.32919-1.28903-0.98743-1.89102-0.65833-0.60191-1.77059-1.02781-3.33682-1.27772-0.11353-0.0227-0.30647-0.0567-0.57883-0.10223v-1.26068z"/>
<path d="m631.663,255.451-17.8758,0-3.13253,7.29152c-0.77178,1.7945-1.15767,3.13468-1.15766,4.02056-0.00001,0.70417,0.3348,1.32316,1.00444,1.85695,0.66962,0.5338,2.11671,0.88021,4.34126,1.03922v1.26068h-14.539v-1.26068c1.92945-0.34073,3.17791-0.78367,3.7454-1.32883,1.15767-1.09032,2.44017-3.30504,3.84755-6.64414l16.2414-38.0249h1.19171l16.0712,38.4338c1.29383,3.08924,2.46851,5.09384,3.52408,6.01379,1.05548,0.91996,2.52526,1.43673,4.40936,1.55031v1.26068h-18.2163v-1.26068c1.83861-0.0908,3.08141-0.39752,3.72837-0.91996,0.6469-0.52245,0.97037-1.15847,0.9704-1.90807-0.00003-0.99945-0.45402-2.57814-1.36196-4.73607zm-0.95337-2.52136-7.83129-18.6718-8.0356,18.6718z"/>
<path d="m692.854,258.142,1.12361,0.23851-3.94969,12.5387-35.7516,0,0-1.26068,1.73651,0c1.95214,0,3.34815-0.63602,4.18804-1.90807,0.47667-0.72687,0.71502-2.40779,0.71502-5.04273v-29.8135c0-2.88476-0.31779-4.69061-0.95337-5.41753-0.88529-0.99941-2.20184-1.49915-3.94969-1.4992h-1.73651v-1.26068h20.9062v1.26068c-2.45155-0.0227-4.17103,0.20448-5.15844,0.68146-0.98744,0.47706-1.66275,1.07901-2.02592,1.80584-0.36321,0.72693-0.5448,2.46463-0.54479,5.2131v29.0298c-0.00001,1.88536,0.18158,3.18011,0.54479,3.88426,0.27237,0.47703,0.69232,0.82911,1.25981,1.05626,0.56748,0.22714,2.33803,0.34072,5.31167,0.34072h3.37086c3.54108,0,6.02666-0.26122,7.45675-0.78367,1.43003-0.52244,2.73524-1.44807,3.91565-2.77691,1.18033-1.32882,2.3607-3.42428,3.54111-6.28638z"/>
<path d="m738.213,258.142,1.12362,0.23851-3.94969,12.5387-35.7516,0,0-1.26068,1.7365,0c1.95215,0,3.34816-0.63602,4.18804-1.90807,0.47669-0.72687,0.71503-2.40779,0.71504-5.04273v-29.8135c-0.00001-2.88476-0.3178-4.69061-0.95338-5.41753-0.88528-0.99941-2.20185-1.49915-3.9497-1.4992h-1.7365v-1.26068h20.9062v1.26068c-2.45156-0.0227-4.17103,0.20448-5.15843,0.68146-0.98744,0.47706-1.66275,1.07901-2.02593,1.80584-0.3632,0.72693-0.5448,2.46463-0.54478,5.2131v29.0298c-0.00002,1.88536,0.18158,3.18011,0.54478,3.88426,0.27238,0.47703,0.69231,0.82911,1.25982,1.05626,0.56746,0.22714,2.33802,0.34072,5.31166,0.34072h3.37086c3.54108,0,6.02666-0.26122,7.45675-0.78367,1.43003-0.52244,2.73525-1.44807,3.91565-2.77691,1.18034-1.32882,2.3607-3.42428,3.54111-6.28638z"/>
<path d="m758.17,227.239,0,18.2629,10.1466,0c2.6331,0.00003,4.3923-0.39748,5.2776-1.19254,1.18035-1.04485,1.83863-2.88477,1.97485-5.51974h1.25982v16.0822h-1.25982c-0.31782-2.24876-0.63561-3.69116-0.95337-4.3272-0.40862-0.79501-1.07825-1.41967-2.0089-1.87399-0.9307-0.45428-2.36077-0.68143-4.29018-0.68145h-10.1466v15.2304c-0.00002,2.04437,0.0908,3.28801,0.27239,3.73095,0.18159,0.44295,0.49938,0.79503,0.95338,1.05625,0.45397,0.26122,1.31655,0.39183,2.58773,0.39183h7.83129c2.6104,0,4.5058-0.18172,5.68621-0.54516,1.18033-0.36344,2.3153-1.07895,3.40491-2.14657,1.40732-1.40833,2.84874-3.53218,4.32423-6.37156h1.36197l-3.98375,11.5847h-35.5813v-1.26068h1.63436c1.08957,0,2.12239-0.26122,3.09848-0.78367,0.72637-0.36344,1.22008-0.9086,1.48113-1.63548,0.26104-0.72688,0.39155-2.21472,0.39156-4.46351v-30.0179c-0.00001-2.93019-0.2951-4.73603-0.88527-5.41753-0.81719-0.90856-2.17915-1.36286-4.0859-1.36291h-1.63436v-1.26068h35.5813l0.51073,10.1196h-1.32791c-0.47671-2.43048-1.00448-4.10002-1.58328-5.00866-0.57887-0.90856-1.43577-1.60137-2.57071-2.07843-0.90801-0.34068-2.50831-0.51104-4.80092-0.51109z"/>
<path d="m795.902,225.978,0-1.26068,19.7825,0,0,1.26068-1.66841,0c-1.88407,0.00005-3.25738,0.55658-4.11994,1.66956-0.5448,0.72693-0.8172,2.47598-0.81718,5.24717v22.5901c-0.00002,3.4754-0.38023,6.29207-1.14064,8.44998-0.76044,2.15793-2.07133,4.0376-3.93267,5.63901-1.86136,1.6014-4.1086,2.4021-6.74173,2.4021-2.13374,0-3.81349-0.52812-5.03926-1.58437-1.22577-1.05624-1.83865-2.26582-1.83865-3.62872,0-1.11303,0.28374-1.95349,0.85123-2.52137,0.74907-0.70416,1.623-1.05624,2.62177-1.05625,0.72639,0.00001,1.37899,0.23852,1.95783,0.71553,0.57882,0.47702,1.31088,1.74906,2.19617,3.81612,0.52208,1.22661,1.19171,1.83992,2.0089,1.83992,0.61287,0,1.18603-0.3748,1.71947-1.12439,0.53342-0.7496,0.80014-2.07843,0.80016-3.98649v-31.5512c-0.00002-2.3396-0.14756-3.88422-0.44264-4.63386-0.22701-0.56784-0.7037-1.0562-1.43007-1.46512-0.97608-0.54511-2.0089-0.8177-3.09846-0.81775z"/>
<path d="m850.692,255.451-17.8758,0-3.13252,7.29152c-0.77179,1.7945-1.15768,3.13468-1.15767,4.02056-0.00001,0.70417,0.3348,1.32316,1.00445,1.85695,0.66962,0.5338,2.1167,0.88021,4.34126,1.03922v1.26068h-14.539v-1.26068c1.92944-0.34073,3.17791-0.78367,3.7454-1.32883,1.15767-1.09032,2.44018-3.30504,3.84756-6.64414l16.2414-38.0249h1.19172l16.0712,38.4338c1.29381,3.08924,2.46851,5.09384,3.52408,6.01379,1.05547,0.91996,2.52526,1.43673,4.40936,1.55031v1.26068h-18.2163v-1.26068c1.83862-0.0908,3.08141-0.39752,3.72838-0.91996,0.6469-0.52245,0.97037-1.15847,0.9704-1.90807-0.00003-0.99945-0.45403-2.57814-1.36196-4.73607zm-0.95338-2.52136-7.83129-18.6718-8.03559,18.6718z"/>
</g>
</svg>