<?xml version="1.0" encoding="UTF-8" standalone="no"?>
<svg
   xmlns:dc="http://purl.org/dc/elements/1.1/"
   xmlns:cc="http://creativecommons.org/ns#"
   xmlns:rdf="http://www.w3.org/1999/02/22-rdf-syntax-ns#"
   xmlns:svg="http://www.w3.org/2000/svg"
   xmlns="http://www.w3.org/2000/svg"
   xmlns:sodipodi="http://sodipodi.sourceforge.net/DTD/sodipodi-0.dtd"
   xmlns:inkscape="http://www.inkscape.org/namespaces/inkscape"
   inkscape:output_extension="org.inkscape.output.svg.inkscape"
   sodipodi:docname="Flag_of_Paysandú_Department.svg"
   version="1.0"
   height="533"
   width="800"
   inkscape:version="1.0 (4035a4fb49, 2020-05-01)"
   sodipodi:version="0.32"
   id="svg2">
  <metadata
     id="metadata7">
    <rdf:RDF>
      <cc:Work
         rdf:about="">
        <dc:format>image/svg+xml</dc:format>
        <dc:type
           rdf:resource="http://purl.org/dc/dcmitype/StillImage" />
      </cc:Work>
    </rdf:RDF>
  </metadata>
  <defs
     id="defs5" />
  <sodipodi:namedview
     inkscape:window-maximized="1"
     showgrid="false"
     inkscape:document-rotation="0"
     inkscape:current-layer="svg2"
     inkscape:window-y="-8"
     inkscape:window-x="-8"
     inkscape:cy="377.78244"
     inkscape:cx="195.42355"
     inkscape:zoom="1"
     id="base"
     pagecolor="#ffffff"
     bordercolor="#666666"
     borderopacity="1.0"
     objecttolerance="10.0"
     gridtolerance="10.0"
     guidetolerance="10.0"
     inkscape:pageopacity="0.0"
     inkscape:pageshadow="2"
     inkscape:window-width="1366"
     inkscape:window-height="705" />
  <g
     id="g929">
    <rect
       style="opacity:0.99;fill:#ffffff;fill-opacity:1;stroke:#ffffff;stroke-width:1;stroke-opacity:1"
       id="rect2161"
       width="799.05518"
       height="532.05713"
       x="0.49985135"
       y="0.47087255"
       ry="0" />
    <g
       id="g921">
      <rect
         y="0.47087178"
         x="0.49985126"
         height="132.0424"
         width="799.05835"
         id="rect3134"
         style="opacity:0.99;fill:#003685;fill-opacity:1;stroke:#0c3ca0;stroke-opacity:1" />
      <rect
         y="44.534481"
         x="0.44181034"
         height="42.999271"
         width="799.11633"
         id="rect6043"
         style="opacity:0.99;fill:#cf071b;fill-opacity:1;stroke:#b43232;stroke-opacity:1" />
      <rect
         y="399.50821"
         x="0.49806774"
         height="133.03833"
         width="799.08582"
         id="rect7983"
         style="opacity:0.99;fill:#003685;fill-opacity:1;stroke:#0c3ca0;stroke-width:1.00378;stroke-opacity:1" />
      <rect
         y="443.50916"
         x="0.49269336"
         height="42.999271"
         width="799.11633"
         id="rect7985"
         style="opacity:0.99;fill:#cf071b;fill-opacity:1;stroke:#b43232;stroke-opacity:1" />
    </g>
  </g>
  <path
     transform="matrix(1.0140015,0.02117573,-0.02117573,1.0140015,-0.5942443,-16.613904)"
     inkscape:randomized="0"
     inkscape:rounded="0"
     inkscape:flatsided="false"
     sodipodi:arg2="1.2408751"
     sodipodi:arg1="0.9207679"
     sodipodi:r2="56.206684"
     sodipodi:r1="87.36235"
     sodipodi:cy="267.07907"
     sodipodi:cx="395.88226"
     sodipodi:sides="10"
     id="path7987"
     style="opacity:0.99;fill:#4d3f6b;fill-opacity:1;stroke:#4b3674;stroke-linecap:round;stroke-linejoin:round;stroke-opacity:1"
     sodipodi:type="star"
     d="m 448.75475,336.62532 -34.66329,-16.37091 -16.31272,34.16642 -18.42061,-33.61891 -33.27978,18.05284 4.85811,-38.02563 -37.53511,-4.95631 26.28121,-27.90786 -27.45329,-26.07232 37.66577,-7.13022 -6.88526,-37.2296 34.66329,16.37091 16.31271,-34.16642 18.42061,33.61891 33.27979,-18.05284 -4.85812,38.02563 37.53511,4.95631 -26.2812,27.90786 27.45329,26.07232 -37.66577,7.13023 z" />
  <path
     sodipodi:arc-type="slice"
     transform="rotate(-55.282756)"
     sodipodi:end="2.7412198"
     sodipodi:start="2.7412496"
     sodipodi:ry="4.2214713"
     sodipodi:rx="4.2214713"
     sodipodi:cy="434.52646"
     sodipodi:cx="28.481901"
     id="path14774"
     style="opacity:0.99;fill:#c7cedd;fill-opacity:1;stroke:none;stroke-width:2.34476;stroke-opacity:1"
     sodipodi:type="arc"
     d="m 24.594233,436.17171 a 4.2214713,4.2214713 0 0 1 2.242387,-5.53291 4.2214713,4.2214713 0 0 1 5.532925,2.24235 4.2214713,4.2214713 0 0 1 -2.242305,5.53294 4.2214713,4.2214713 0 0 1 -5.532958,-2.24226 l 3.887619,-1.64537 z" />
  <path
     sodipodi:arc-type="slice"
     transform="rotate(-55.282756)"
     sodipodi:end="2.7412198"
     sodipodi:start="2.7412496"
     sodipodi:ry="4.2214713"
     sodipodi:rx="4.2214713"
     sodipodi:cy="430.9476"
     sodipodi:cx="14.635549"
     id="path16714"
     style="opacity:0.99;fill:#c7cedd;fill-opacity:1;stroke:none;stroke-width:2.34476;stroke-opacity:1"
     sodipodi:type="arc"
     d="m 10.74788,432.59285 a 4.2214713,4.2214713 0 0 1 2.242387,-5.5329 4.2214713,4.2214713 0 0 1 5.532925,2.24234 4.2214713,4.2214713 0 0 1 -2.242304,5.53294 4.2214713,4.2214713 0 0 1 -5.532959,-2.24226 l 3.88762,-1.64537 z" />
  <path
     sodipodi:arc-type="slice"
     transform="rotate(-55.282756)"
     sodipodi:end="2.7412198"
     sodipodi:start="2.7412496"
     sodipodi:ry="4.2214713"
     sodipodi:rx="4.2214713"
     sodipodi:cy="429.96967"
     sodipodi:cx="0.27881366"
     id="path16716"
     style="opacity:0.99;fill:#c7cedd;fill-opacity:1;stroke:none;stroke-width:2.34476;stroke-opacity:1"
     sodipodi:type="arc"
     d="m -3.6088547,431.61492 a 4.2214713,4.2214713 0 0 1 2.2423873,-5.53291 4.2214713,4.2214713 0 0 1 5.5329249,2.24235 4.2214713,4.2214713 0 0 1 -2.2423048,5.53294 4.2214713,4.2214713 0 0 1 -5.5329584,-2.24227 l 3.88761936,-1.64536 z" />
  <path
     sodipodi:arc-type="slice"
     transform="rotate(-55.282756)"
     sodipodi:end="2.7412198"
     sodipodi:start="2.7412496"
     sodipodi:ry="4.2214713"
     sodipodi:rx="4.2214713"
     sodipodi:cy="435.03372"
     sodipodi:cx="-14.087721"
     id="path16718"
     style="opacity:0.99;fill:#c7cedd;fill-opacity:1;stroke:none;stroke-width:2.34476;stroke-opacity:1"
     sodipodi:type="arc"
     d="m -17.975389,436.67897 a 4.2214713,4.2214713 0 0 1 2.242387,-5.5329 4.2214713,4.2214713 0 0 1 5.532925,2.24234 4.2214713,4.2214713 0 0 1 -2.242305,5.53294 4.2214713,4.2214713 0 0 1 -5.532958,-2.24226 l 3.887619,-1.64537 z" />
  <path
     sodipodi:arc-type="slice"
     transform="rotate(-55.282756)"
     sodipodi:end="2.7412198"
     sodipodi:start="2.7412496"
     sodipodi:ry="4.2214713"
     sodipodi:rx="4.2214713"
     sodipodi:cy="443.79703"
     sodipodi:cx="-27.020496"
     id="path16720"
     style="opacity:0.99;fill:#c7cedd;fill-opacity:1;stroke:none;stroke-width:2.34476;stroke-opacity:1"
     sodipodi:type="arc"
     d="m -30.908165,445.44228 a 4.2214713,4.2214713 0 0 1 2.242388,-5.53291 4.2214713,4.2214713 0 0 1 5.532924,2.24235 4.2214713,4.2214713 0 0 1 -2.242304,5.53294 4.2214713,4.2214713 0 0 1 -5.532959,-2.24226 l 3.88762,-1.64537 z" />
  <path
     sodipodi:arc-type="slice"
     transform="rotate(-55.282756)"
     sodipodi:end="2.7412198"
     sodipodi:start="2.7412496"
     sodipodi:ry="4.2214713"
     sodipodi:rx="4.2214713"
     sodipodi:cy="455.61584"
     sodipodi:cx="-34.972866"
     id="path16722"
     style="opacity:0.99;fill:#c7cedd;fill-opacity:1;stroke:none;stroke-width:2.34476;stroke-opacity:1"
     sodipodi:type="arc"
     d="m -38.860534,457.2611 a 4.2214713,4.2214713 0 0 1 2.242387,-5.53291 4.2214713,4.2214713 0 0 1 5.532925,2.24234 4.2214713,4.2214713 0 0 1 -2.242305,5.53295 4.2214713,4.2214713 0 0 1 -5.532958,-2.24227 l 3.887619,-1.64537 z" />
  <path
     sodipodi:arc-type="slice"
     transform="rotate(-55.282756)"
     sodipodi:end="2.7412198"
     sodipodi:start="2.7412496"
     sodipodi:ry="4.2214713"
     sodipodi:rx="4.2214713"
     sodipodi:cy="469.44781"
     sodipodi:cx="-38.365158"
     id="path16724"
     style="opacity:0.99;fill:#c7cedd;fill-opacity:1;stroke:none;stroke-width:2.34476;stroke-opacity:1"
     sodipodi:type="arc"
     d="m -42.252826,471.09307 a 4.2214713,4.2214713 0 0 1 2.242387,-5.53291 4.2214713,4.2214713 0 0 1 5.532925,2.24234 4.2214713,4.2214713 0 0 1 -2.242305,5.53295 4.2214713,4.2214713 0 0 1 -5.532958,-2.24227 l 3.887619,-1.64537 z" />
  <path
     sodipodi:arc-type="slice"
     transform="rotate(-55.282756)"
     sodipodi:end="2.7412198"
     sodipodi:start="2.7412496"
     sodipodi:ry="4.2214713"
     sodipodi:rx="4.2214713"
     sodipodi:cy="483.72485"
     sodipodi:cx="-38.709518"
     id="path16726"
     style="opacity:0.99;fill:#c7cedd;fill-opacity:1;stroke:none;stroke-width:2.34476;stroke-opacity:1"
     sodipodi:type="arc"
     d="m -42.597187,485.37011 a 4.2214713,4.2214713 0 0 1 2.242387,-5.53291 4.2214713,4.2214713 0 0 1 5.532925,2.24234 4.2214713,4.2214713 0 0 1 -2.242304,5.53295 4.2214713,4.2214713 0 0 1 -5.532959,-2.24227 l 3.88762,-1.64537 z" />
  <path
     sodipodi:arc-type="slice"
     transform="rotate(-55.282756)"
     sodipodi:end="2.7412198"
     sodipodi:start="2.7412496"
     sodipodi:ry="4.2214713"
     sodipodi:rx="4.2214713"
     sodipodi:cy="496.96313"
     sodipodi:cx="-34.22929"
     id="path16728"
     style="opacity:0.99;fill:#c7cedd;fill-opacity:1;stroke:none;stroke-width:2.34476;stroke-opacity:1"
     sodipodi:type="arc"
     d="m -38.116958,498.60839 a 4.2214713,4.2214713 0 0 1 2.242387,-5.53291 4.2214713,4.2214713 0 0 1 5.532925,2.24234 4.2214713,4.2214713 0 0 1 -2.242305,5.53295 4.2214713,4.2214713 0 0 1 -5.532958,-2.24227 l 3.887619,-1.64537 z" />
  <path
     sodipodi:arc-type="slice"
     transform="rotate(-55.282756)"
     sodipodi:end="2.7412198"
     sodipodi:start="2.7412496"
     sodipodi:ry="4.2214713"
     sodipodi:rx="4.2214713"
     sodipodi:cy="508.82367"
     sodipodi:cx="-23.904335"
     id="path16730"
     style="opacity:0.99;fill:#c7cedd;fill-opacity:1;stroke:none;stroke-width:2.34476;stroke-opacity:1"
     sodipodi:type="arc"
     d="m -27.792003,510.46892 a 4.2214713,4.2214713 0 0 1 2.242387,-5.53291 4.2214713,4.2214713 0 0 1 5.532925,2.24235 4.2214713,4.2214713 0 0 1 -2.242305,5.53294 4.2214713,4.2214713 0 0 1 -5.532958,-2.24226 l 3.887619,-1.64537 z" />
  <path
     sodipodi:arc-type="slice"
     transform="rotate(-55.282756)"
     sodipodi:end="2.7412198"
     sodipodi:start="2.7412496"
     sodipodi:ry="4.2214713"
     sodipodi:rx="4.2214713"
     sodipodi:cy="516.87451"
     sodipodi:cx="-10.722437"
     id="path16732"
     style="opacity:0.99;fill:#c7cedd;fill-opacity:1;stroke:none;stroke-width:2.34476;stroke-opacity:1"
     sodipodi:type="arc"
     d="m -14.610105,518.51976 a 4.2214713,4.2214713 0 0 1 2.242387,-5.5329 4.2214713,4.2214713 0 0 1 5.532925,2.24234 4.2214713,4.2214713 0 0 1 -2.2423049,5.53294 4.2214713,4.2214713 0 0 1 -5.5329581,-2.24226 l 3.887619,-1.64537 z" />
  <path
     sodipodi:arc-type="slice"
     transform="rotate(-55.282756)"
     sodipodi:end="2.7412198"
     sodipodi:start="2.7412496"
     sodipodi:ry="4.2214713"
     sodipodi:rx="4.2214713"
     sodipodi:cy="519.49286"
     sodipodi:cx="5.6907945"
     id="path16734"
     style="opacity:0.99;fill:#c7cedd;fill-opacity:1;stroke:none;stroke-width:2.34476;stroke-opacity:1"
     sodipodi:type="arc"
     d="m 1.8031261,521.13811 a 4.2214713,4.2214713 0 0 1 2.2423873,-5.53291 4.2214713,4.2214713 0 0 1 5.5329249,2.24235 4.2214713,4.2214713 0 0 1 -2.2423048,5.53294 4.2214713,4.2214713 0 0 1 -5.5329584,-2.24226 l 3.8876194,-1.64537 z" />
  <path
     sodipodi:arc-type="slice"
     transform="rotate(-55.282756)"
     sodipodi:end="2.7412198"
     sodipodi:start="2.7412496"
     sodipodi:ry="4.2214713"
     sodipodi:rx="4.2214713"
     sodipodi:cy="516.34009"
     sodipodi:cx="21.983215"
     id="path16736"
     style="opacity:0.99;fill:#c7cedd;fill-opacity:1;stroke:none;stroke-width:2.34476;stroke-opacity:1"
     sodipodi:type="arc"
     d="m 18.095547,517.98534 a 4.2214713,4.2214713 0 0 1 2.242387,-5.53291 4.2214713,4.2214713 0 0 1 5.532925,2.24235 4.2214713,4.2214713 0 0 1 -2.242305,5.53294 4.2214713,4.2214713 0 0 1 -5.532958,-2.24226 l 3.887619,-1.64537 z" />
  <path
     sodipodi:arc-type="slice"
     transform="rotate(-55.282756)"
     sodipodi:end="2.7412198"
     sodipodi:start="2.7412496"
     sodipodi:ry="4.2214713"
     sodipodi:rx="4.2214713"
     sodipodi:cy="508.68628"
     sodipodi:cx="35.111469"
     id="path16738"
     style="opacity:0.99;fill:#c7cedd;fill-opacity:1;stroke:none;stroke-width:2.34476;stroke-opacity:1"
     sodipodi:type="arc"
     d="m 31.223801,510.33153 a 4.2214713,4.2214713 0 0 1 2.242387,-5.53291 4.2214713,4.2214713 0 0 1 5.532925,2.24235 4.2214713,4.2214713 0 0 1 -2.242305,5.53294 4.2214713,4.2214713 0 0 1 -5.532958,-2.24226 l 3.887619,-1.64537 z" />
  <path
     sodipodi:arc-type="slice"
     transform="rotate(-55.282756)"
     sodipodi:end="2.7412198"
     sodipodi:start="2.7412496"
     sodipodi:ry="4.2214713"
     sodipodi:rx="4.2214713"
     sodipodi:cy="498.36722"
     sodipodi:cx="44.91555"
     id="path16740"
     style="opacity:0.99;fill:#c7cedd;fill-opacity:1;stroke:none;stroke-width:2.34476;stroke-opacity:1"
     sodipodi:type="arc"
     d="m 41.027882,500.01247 a 4.2214713,4.2214713 0 0 1 2.242387,-5.53291 4.2214713,4.2214713 0 0 1 5.532925,2.24235 4.2214713,4.2214713 0 0 1 -2.242305,5.53294 4.2214713,4.2214713 0 0 1 -5.532958,-2.24226 l 3.887619,-1.64537 z" />
  <path
     sodipodi:arc-type="slice"
     transform="rotate(-55.282756)"
     sodipodi:end="2.7412198"
     sodipodi:start="2.7412496"
     sodipodi:ry="4.2214713"
     sodipodi:rx="4.2214713"
     sodipodi:cy="485.73328"
     sodipodi:cx="51.338509"
     id="path16742"
     style="opacity:0.99;fill:#c7cedd;fill-opacity:1;stroke:none;stroke-width:2.34476;stroke-opacity:1"
     sodipodi:type="arc"
     d="m 47.45084,487.37853 a 4.2214713,4.2214713 0 0 1 2.242388,-5.53291 4.2214713,4.2214713 0 0 1 5.532924,2.24235 4.2214713,4.2214713 0 0 1 -2.242304,5.53294 4.2214713,4.2214713 0 0 1 -5.532959,-2.24227 l 3.88762,-1.64536 z" />
  <path
     sodipodi:arc-type="slice"
     transform="rotate(-55.282756)"
     sodipodi:end="2.7412198"
     sodipodi:start="2.7412496"
     sodipodi:ry="4.2214713"
     sodipodi:rx="4.2214713"
     sodipodi:cy="470.43161"
     sodipodi:cx="51.913681"
     id="path16744"
     style="opacity:0.99;fill:#c7cedd;fill-opacity:1;stroke:none;stroke-width:2.34476;stroke-opacity:1"
     sodipodi:type="arc"
     d="m 48.026013,472.07686 a 4.2214713,4.2214713 0 0 1 2.242387,-5.53291 4.2214713,4.2214713 0 0 1 5.532925,2.24235 4.2214713,4.2214713 0 0 1 -2.242305,5.53294 4.2214713,4.2214713 0 0 1 -5.532958,-2.24226 l 3.887619,-1.64537 z" />
  <path
     sodipodi:arc-type="slice"
     transform="rotate(-55.282756)"
     sodipodi:end="2.7412198"
     sodipodi:start="2.7412496"
     sodipodi:ry="4.2214713"
     sodipodi:rx="4.2214713"
     sodipodi:cy="456.15509"
     sodipodi:cx="47.726765"
     id="path16746"
     style="opacity:0.99;fill:#c7cedd;fill-opacity:1;stroke:none;stroke-width:2.34476;stroke-opacity:1"
     sodipodi:type="arc"
     d="m 43.839096,457.80034 a 4.2214713,4.2214713 0 0 1 2.242388,-5.53291 4.2214713,4.2214713 0 0 1 5.532925,2.24235 4.2214713,4.2214713 0 0 1 -2.242305,5.53294 4.2214713,4.2214713 0 0 1 -5.532959,-2.24226 l 3.88762,-1.64537 z" />
  <path
     sodipodi:arc-type="slice"
     transform="rotate(-55.282756)"
     sodipodi:end="2.7412198"
     sodipodi:start="2.7412496"
     sodipodi:ry="4.2214713"
     sodipodi:rx="4.2214713"
     sodipodi:cy="443.89374"
     sodipodi:cx="40.295685"
     id="path16748"
     style="opacity:0.99;fill:#c7cedd;fill-opacity:1;stroke:none;stroke-width:2.34476;stroke-opacity:1"
     sodipodi:type="arc"
     d="m 36.408016,445.53899 a 4.2214713,4.2214713 0 0 1 2.242388,-5.53291 4.2214713,4.2214713 0 0 1 5.532925,2.24235 4.2214713,4.2214713 0 0 1 -2.242305,5.53294 4.2214713,4.2214713 0 0 1 -5.532959,-2.24226 l 3.88762,-1.64537 z" />
  <path
     sodipodi:arc-type="arc"
     sodipodi:open="true"
     sodipodi:end="2.741182"
     sodipodi:start="2.7412496"
     sodipodi:ry="37.24527"
     sodipodi:rx="37.24527"
     sodipodi:cy="265.06253"
     sodipodi:cx="393.43753"
     id="path16752"
     style="opacity:0.99;fill:#7b7b94;fill-opacity:1;stroke:#7b7b94;stroke-width:1.13294;stroke-opacity:1"
     sodipodi:type="arc"
     d="m 359.13734,279.57829 a 37.24527,37.24527 0 0 1 19.78385,-48.8157 37.24527,37.24527 0 0 1 48.81604,19.78302 37.24527,37.24527 0 0 1 -19.7822,48.81637 37.24527,37.24527 0 0 1 -48.81671,-19.78137" />
  <path
     sodipodi:arc-type="arc"
     sodipodi:open="true"
     sodipodi:end="2.741182"
     sodipodi:start="2.7412496"
     sodipodi:ry="25.8125"
     sodipodi:rx="25"
     sodipodi:cy="265.6875"
     sodipodi:cx="394.5"
     id="path20630"
     style="opacity:0.99;fill:#73973e;fill-opacity:1;stroke:#73953e;stroke-opacity:1"
     sodipodi:type="arc"
     d="m 371.47682,275.74752 a 25,25.8125 0 0 1 13.27943,-33.83129 25,25.8125 0 0 1 32.7666,13.71045 25,25.8125 0 0 1 -13.27833,33.83175 25,25.8125 0 0 1 -32.76705,-13.70931" />
  <path
     sodipodi:arc-type="arc"
     sodipodi:open="true"
     sodipodi:end="2.741182"
     sodipodi:start="2.7412496"
     sodipodi:ry="10.762177"
     sodipodi:rx="10.762177"
     sodipodi:cy="265.03125"
     sodipodi:cx="394.15625"
     id="path23539"
     style="opacity:0.99;fill:#b3a52d;fill-opacity:1;stroke:#b3a52d;stroke-width:0.9135;stroke-opacity:1"
     sodipodi:type="arc"
     d="m 384.24507,269.22564 a 10.762177,10.762177 0 0 1 5.71662,-14.1055 10.762177,10.762177 0 0 1 14.1056,5.71639 10.762177,10.762177 0 0 1 -5.71615,14.10569 10.762177,10.762177 0 0 1 -14.10579,-5.71591" />
  <path
     sodipodi:nodetypes="ccc"
     id="path24512"
     d="m 395.8125,275.625 c 5.45468,0.0161 12.10658,-5.55202 11.75,-15 -0.31722,6.64914 -6.86077,14.99023 -11.75,15 z"
     style="fill:#b2a52d;fill-opacity:1;fill-rule:evenodd;stroke:#b2a52d;stroke-width:1px;stroke-linecap:butt;stroke-linejoin:miter;stroke-opacity:1" />
  <path
     sodipodi:nodetypes="ccc"
     id="path28390"
     d="m 404.5,263.4375 c -0.0254,-12.87918 -6.32894,-10.89568 -13.375,-12 6.60748,1.1467 12.80196,3.18793 13.375,12 z"
     style="fill:#b3a42d;fill-opacity:1;fill-rule:evenodd;stroke:#b3a52d;stroke-width:1px;stroke-linecap:butt;stroke-linejoin:miter;stroke-opacity:1" />
  <path
     sodipodi:nodetypes="ccc"
     id="path29361"
     d="m 394.25,254.875 c -21.72839,-5.53453 -16.7869,27.56723 1.75,24.5625 -12.84055,0.61151 -24.36278,-23.14132 -1.75,-24.5625 z"
     style="fill:#b3a42d;fill-opacity:1;fill-rule:evenodd;stroke:#b3a52d;stroke-width:1px;stroke-linecap:butt;stroke-linejoin:miter;stroke-opacity:1" />
  <path
     sodipodi:arc-type="arc"
     sodipodi:open="true"
     sodipodi:end="2.741182"
     sodipodi:start="2.7412496"
     sodipodi:ry="3.9375"
     sodipodi:rx="3.9375"
     sodipodi:cy="248.4375"
     sodipodi:cx="386.3125"
     id="path31301"
     style="opacity:0.99;fill:#943100;fill-opacity:1;stroke:#943100;stroke-opacity:1"
     sodipodi:type="arc"
     d="m 382.68635,249.97208 a 3.9375,3.9375 0 0 1 2.09151,-5.16071 3.9375,3.9375 0 0 1 5.16074,2.09143 3.9375,3.9375 0 0 1 -2.09134,5.16077 3.9375,3.9375 0 0 1 -5.16081,-2.09125" />
  <path
     sodipodi:arc-type="arc"
     sodipodi:open="true"
     sodipodi:end="2.741182"
     sodipodi:start="2.7412496"
     sodipodi:ry="3.875"
     sodipodi:rx="3.875"
     sodipodi:cy="279.1875"
     sodipodi:cx="380.375"
     id="path31303"
     style="opacity:0.99;fill:#943100;fill-opacity:1;stroke:#943100;stroke-opacity:1"
     sodipodi:type="arc"
     d="m 376.80641,280.69772 a 3.875,3.875 0 0 1 2.05831,-5.07879 3.875,3.875 0 0 1 5.07882,2.05823 3.875,3.875 0 0 1 -2.05814,5.07886 3.875,3.875 0 0 1 -5.07889,-2.05806" />
  <path
     sodipodi:arc-type="arc"
     sodipodi:open="true"
     sodipodi:end="2.741182"
     sodipodi:start="2.7412496"
     sodipodi:ry="3.6875"
     sodipodi:rx="3.6875"
     sodipodi:cy="271.125"
     sodipodi:cx="411.125"
     id="path31305"
     style="opacity:0.99;fill:#943100;fill-opacity:1;stroke:#943100;stroke-opacity:1"
     sodipodi:type="arc"
     d="m 407.72908,272.56215 a 3.6875,3.6875 0 0 1 1.95872,-4.83305 3.6875,3.6875 0 0 1 4.83307,1.95864 3.6875,3.6875 0 0 1 -1.95855,4.83311 3.6875,3.6875 0 0 1 -4.83314,-1.95848" />
  <path
     sodipodi:arc-type="arc"
     sodipodi:open="true"
     sodipodi:end="2.741182"
     sodipodi:start="2.7412496"
     sodipodi:ry="4.8164797"
     sodipodi:rx="4.8164797"
     sodipodi:cy="265.3125"
     sodipodi:cx="393.8125"
     id="path35183"
     style="opacity:0.99;fill:#943100;fill-opacity:1;stroke:#943100;stroke-width:1.11686;stroke-opacity:1"
     sodipodi:type="arc"
     d="m 389.37687,267.18965 a 4.8164797,4.8164797 0 0 1 2.55841,-6.31275 4.8164797,4.8164797 0 0 1 6.31278,2.5583 4.8164797,4.8164797 0 0 1 -2.55819,6.31283 4.8164797,4.8164797 0 0 1 -6.31287,-2.55808" />
  <path
     sodipodi:nodetypes="ccccc"
     id="path35185"
     d="m 391.4375,261.3125 c -2.63579,-3.71608 -3.89566,-7.2541 -4.0625,-9.3125 l 2.1875,-1.5 c 0.39342,3.97086 1.09072,7.94145 2.8125,10.75 z"
     style="fill:#943100;fill-opacity:1;fill-rule:evenodd;stroke:#943100;stroke-width:1px;stroke-linecap:butt;stroke-linejoin:miter;stroke-opacity:1" />
  <path
     sodipodi:nodetypes="ccccc"
     id="path35187"
     d="m 381.3125,276 c 2.46306,-2.31666 4.87602,-5.20408 9,-7.6875 l 1.3125,1.25 c -5.0253,1.91034 -7.0222,4.57778 -9.5,7.125 z"
     style="fill:#943100;fill-opacity:1;fill-rule:evenodd;stroke:#943100;stroke-width:1px;stroke-linecap:butt;stroke-linejoin:miter;stroke-opacity:1" />
  <path
     sodipodi:nodetypes="ccccc"
     id="path35189"
     d="m 397.4375,268.25 c 5.61501,-0.74168 8.35349,0.80959 10,3.375 l 0.8125,-1.6875 c -5.597,-4.29843 -7.24579,-2.28225 -10.125,-3.3125 z"
     style="fill:#943100;fill-opacity:1;fill-rule:evenodd;stroke:#943100;stroke-width:1px;stroke-linecap:butt;stroke-linejoin:miter;stroke-opacity:1" />
</svg>
