<?xml version="1.0" encoding="UTF-8" standalone="no"?>
<svg
   xmlns:dc="http://purl.org/dc/elements/1.1/"
   xmlns:cc="http://creativecommons.org/ns#"
   xmlns:rdf="http://www.w3.org/1999/02/22-rdf-syntax-ns#"
   xmlns:svg="http://www.w3.org/2000/svg"
   xmlns="http://www.w3.org/2000/svg"
   xmlns:xlink="http://www.w3.org/1999/xlink"
   xmlns:sodipodi="http://sodipodi.sourceforge.net/DTD/sodipodi-0.dtd"
   xmlns:inkscape="http://www.inkscape.org/namespaces/inkscape"
   inkscape:version="1.0 (4035a4fb49, 2020-05-01)"
   sodipodi:docname="Flag_of_RioNegro.svg"
   id="svg2"
   height="600"
   width="900"
   version="1.1">
  <sodipodi:namedview
     inkscape:guide-bbox="true"
     showguides="true"
     inkscape:current-layer="svg2"
     inkscape:window-maximized="1"
     inkscape:window-y="-8"
     inkscape:window-x="-8"
     inkscape:cy="272.63381"
     inkscape:cx="454.66556"
     inkscape:zoom="0.70710678"
     showgrid="false"
     id="namedview73"
     inkscape:window-height="705"
     inkscape:window-width="1366"
     inkscape:pageshadow="2"
     inkscape:pageopacity="0"
     guidetolerance="10"
     gridtolerance="10"
     objecttolerance="10"
     borderopacity="1"
     bordercolor="#666666"
     pagecolor="#ffffff"
     inkscape:document-rotation="0" />
  <defs
     id="defs4" />
  <metadata
     id="metadata7">
    <rdf:RDF>
      <cc:Work
         rdf:about="">
        <dc:format>image/svg+xml</dc:format>
        <dc:type
           rdf:resource="http://purl.org/dc/dcmitype/StillImage" />
        <dc:title />
      </cc:Work>
    </rdf:RDF>
  </metadata>
  <g
     id="layer2"
     transform="translate(25.098923,8.8026284)" />
  <g
     id="g2269">
    <g
       id="g1956">
      <rect
         width="900"
         height="239.81996"
         x="0"
         y="180.28514"
         id="rect1668"
         style="fill:#ffffff;fill-opacity:1;stroke:none;stroke-width:1.09503" />
      <rect
         style="fill:#003984;fill-opacity:1;stroke:none;stroke-width:0.949434"
         id="rect2985"
         y="1.2617187e-05"
         x="0"
         height="180.28513"
         width="900" />
      <rect
         style="fill:#003984;fill-opacity:1;stroke:none;stroke-width:0.948406"
         id="rect2985-7"
         y="420.1051"
         x="0"
         height="179.89491"
         width="900" />
    </g>
    <g
       id="g2204">
      <g
         transform="matrix(0.35408357,0,0,0.35408357,316.82027,175.14381)"
         id="sol"
         style="stroke:#3e3300;stroke-width:4.12332;stroke-linecap:round;stroke-miterlimit:4;stroke-dasharray:none;stroke-opacity:1">
        <g
           transform="matrix(5.5055055,0,0,5.5055055,250,250)"
           id="4wavyrays"
           style="fill:#fcd116;stroke:#3e3300;stroke-width:0.748945;stroke-linecap:round;stroke-miterlimit:4;stroke-dasharray:none;stroke-opacity:1">
          <g
             id="2wavyrays"
             style="stroke:#3e3300;stroke-width:0.748945;stroke-linecap:round;stroke-miterlimit:4;stroke-dasharray:none;stroke-opacity:1">
            <g
               transform="rotate(22.5)"
               id="wavyray"
               style="stroke:#3e3300;stroke-width:0.748945;stroke-linecap:round;stroke-miterlimit:4;stroke-dasharray:none;stroke-opacity:1">
              <path
                 d="M 0,0 6,12 C -2,25 7,27 0,33 3,25 -4,28 -3,13"
                 id="path12"
                 style="fill:#eac102;stroke:#3e3300;stroke-width:0.748945;stroke-linecap:round;stroke-miterlimit:4;stroke-dasharray:none;stroke-opacity:1" />
              <path
                 d="M 0,11 C -2,24 4.5,28 0,33"
                 id="path14"
                 style="fill:none;stroke:#3e3300;stroke-width:0.748945;stroke-linecap:round;stroke-miterlimit:4;stroke-dasharray:none;stroke-opacity:1" />
            </g>
            <use
               transform="scale(-1)"
               id="use16"
               style="stroke:#3e3300;stroke-width:0.748945;stroke-linecap:round;stroke-miterlimit:4;stroke-dasharray:none;stroke-opacity:1"
               x="0"
               y="0"
               width="243"
               height="162"
               xlink:href="#wavyray" />
          </g>
          <use
             transform="rotate(90)"
             id="use18"
             style="fill:#eac102;stroke:#3e3300;stroke-width:0.748945;stroke-linecap:round;stroke-miterlimit:4;stroke-dasharray:none;stroke-opacity:1"
             x="0"
             y="0"
             width="243"
             height="162"
             xlink:href="#2wavyrays" />
        </g>
        <use
           transform="rotate(45,250,250)"
           id="use20"
           style="fill:#eac102;stroke:#3e3300;stroke-width:4.12332;stroke-linecap:round;stroke-miterlimit:4;stroke-dasharray:none;stroke-opacity:1"
           x="0"
           y="0"
           width="243"
           height="162"
           xlink:href="#4wavyrays" />
        <g
           transform="matrix(5.5055055,0,0,5.5055055,250,250)"
           id="4straightrays"
           style="fill:#fcd116;stroke:#3e3300;stroke-width:0.748945;stroke-linecap:round;stroke-miterlimit:4;stroke-dasharray:none;stroke-opacity:1">
          <g
             id="2straightrays"
             style="stroke:#3e3300;stroke-width:0.748945;stroke-linecap:round;stroke-miterlimit:4;stroke-dasharray:none;stroke-opacity:1">
            <path
               d="M 0,0 H 6 L 0,33 -6,0 h 6 v 33"
               id="straightray"
               style="fill:#eac102;stroke:#3e3300;stroke-width:0.748945;stroke-linecap:round;stroke-miterlimit:4;stroke-dasharray:none;stroke-opacity:1" />
            <use
               transform="scale(-1)"
               id="use25"
               style="fill:#eac102;stroke:#3e3300;stroke-width:0.748945;stroke-linecap:round;stroke-miterlimit:4;stroke-dasharray:none;stroke-opacity:1"
               x="0"
               y="0"
               width="243"
               height="162"
               xlink:href="#straightray" />
          </g>
          <use
             transform="rotate(90)"
             id="use27"
             style="fill:#eac102;stroke:#3e3300;stroke-width:0.748945;stroke-linecap:round;stroke-miterlimit:4;stroke-dasharray:none;stroke-opacity:1"
             x="0"
             y="0"
             width="243"
             height="162"
             xlink:href="#2straightrays" />
        </g>
        <use
           transform="rotate(45,250,250)"
           id="use29"
           style="fill:#eac102;stroke:#3e3300;stroke-width:4.12332;stroke-linecap:round;stroke-miterlimit:4;stroke-dasharray:none;stroke-opacity:1"
           x="0"
           y="0"
           width="243"
           height="162"
           xlink:href="#4straightrays" />
        <circle
           cx="0"
           cy="0"
           r="11"
           transform="matrix(5.5055055,0,0,5.5055055,250,250)"
           id="circle31"
           style="fill:#eac102;stroke:#3e3300;stroke-width:0.748945;stroke-linecap:round;stroke-miterlimit:4;stroke-dasharray:none;stroke-opacity:1" />
      </g>
      <g
         id="g1990"
         transform="matrix(1.0848962,0,0,1,-29.497789,-8)"
         style="fill:#009cd8;fill-opacity:1">
        <path
           d="m 314.60988,384.97688 c 12.90987,-4.97609 26.67612,-4.09397 37.29744,0 10.71445,4.12987 25.12649,4.69128 37.29744,0 12.37591,-4.77028 25.88958,-4.39714 37.29744,0 11.40785,4.39715 26.25791,4.25517 37.29744,0 v 23.7047 c -12.23851,4.71731 -24.63729,4.87983 -37.29744,0 -12.45616,-4.80121 -25.47876,-4.55549 -37.29744,0 -12.13835,4.67871 -25.05722,4.71798 -37.29744,0 -12.03335,-4.63824 -25.74404,-4.45325 -37.29744,0 z"
           id="use3180-3"
           style="fill:#009cd8;fill-opacity:1;fill-rule:nonzero;stroke:none;stroke-width:0.31935;stroke-linecap:round;stroke-linejoin:miter;stroke-miterlimit:4;stroke-dashoffset:0;stroke-opacity:1" />
        <path
           style="fill:#009cd8;fill-opacity:1;fill-rule:nonzero;stroke:none;stroke-width:0.31935;stroke-linecap:round;stroke-linejoin:miter;stroke-miterlimit:4;stroke-dashoffset:0;stroke-opacity:1"
           id="use3184-9"
           d="m 314.60988,344.5811 c 12.90987,-4.97609 26.67612,-4.09397 37.29742,0 10.71446,4.12988 25.12651,4.69128 37.29746,0 12.37591,-4.77028 25.88958,-4.39714 37.29743,0 11.40786,4.39715 26.25791,4.25518 37.29744,0 v 23.7047 c -12.2385,4.71732 -24.63728,4.87984 -37.29744,0 -12.45615,-4.80121 -25.47875,-4.55549 -37.29743,0 -12.13835,4.67872 -25.05722,4.71798 -37.29746,0 -12.03333,-4.63824 -25.74402,-4.45325 -37.29742,0 z" />
        <path
           style="fill:#009cd8;fill-opacity:1;fill-rule:nonzero;stroke:none;stroke-width:0.31935;stroke-linecap:round;stroke-linejoin:miter;stroke-miterlimit:4;stroke-dashoffset:0;stroke-opacity:1"
           id="use3180-3-3"
           d="m 462.66578,385.35483 c 12.90987,-4.97609 26.67612,-4.09397 37.29744,0 10.71445,4.12987 25.12649,4.69128 37.29744,0 12.37591,-4.77028 25.88958,-4.39714 37.29744,0 11.40785,4.39715 26.25791,4.25517 37.29744,0 v 23.7047 c -12.23851,4.71731 -24.63729,4.87983 -37.29744,0 -12.45616,-4.80121 -25.47876,-4.55549 -37.29744,0 -12.13835,4.67871 -25.05722,4.71798 -37.29744,0 -12.03335,-4.63824 -25.74404,-4.45325 -37.29744,0 z" />
        <path
           d="m 462.66578,344.95905 c 12.90987,-4.97609 26.67612,-4.09397 37.29742,0 10.71446,4.12988 25.12651,4.69128 37.29746,0 12.37591,-4.77028 25.88958,-4.39714 37.29743,0 11.40786,4.39715 26.25791,4.25518 37.29744,0 v 23.7047 c -12.2385,4.71732 -24.63728,4.87984 -37.29744,0 -12.45615,-4.80121 -25.47875,-4.55549 -37.29743,0 -12.13835,4.67872 -25.05722,4.71798 -37.29746,0 -12.03333,-4.63824 -25.74402,-4.45325 -37.29742,0 z"
           id="use3184-9-0"
           style="fill:#009cd8;fill-opacity:1;fill-rule:nonzero;stroke:none;stroke-width:0.31935;stroke-linecap:round;stroke-linejoin:miter;stroke-miterlimit:4;stroke-dashoffset:0;stroke-opacity:1" />
      </g>
      <g
         transform="matrix(0.94309949,0,0,0.94309949,-1086.0796,10.60938)"
         id="g861">
        <path
           style="fill:#000000;fill-opacity:1;stroke:#000000;stroke-width:1px;stroke-linecap:butt;stroke-linejoin:miter;stroke-opacity:1"
           d="m 1697.692,379.62099 58.6786,-101.51759 -17.7434,-10.25173 c 0,0 -4.4741,-7.61253 -5.5201,-11.43463 -0.6292,-2.29901 -0.3117,-13.49715 1.3724,-18.31296 1.029,-2.94249 3.6245,-5.5762 3.6245,-5.5762 2.7025,-0.25053 5.0383,0.41554 6.6915,2.7881 -1.0069,4.30864 -0.7506,8.82782 1.394,13.66171 l 19.5168,10.87361 5.2974,-11.43123 c 0,0 -3.9034,-12.82528 -2.7881,-17.56506 1.1152,-4.73977 6.6914,-17.00743 14.7769,-20.63197 8.0855,-3.62453 15.0558,-3.06691 19.2379,-1.11524 4.1822,1.95167 12.8253,9.75837 11.1525,18.6803 -1.6729,8.92193 -4.975,15.96161 -8.922,20.63197 -4.1821,4.94854 -5.4368,5.23169 -6.6217,5.64591 l -6.4824,0.76673 -4.5145,1.82217 -5.5226,10.44549 11.4312,6.69145 c 0,0 6.9702,6.13383 9.2007,12.26766 2.2305,6.13382 3.1148,12.94169 3.1148,12.94169 -1.2953,2.2534 -2.8216,4.27576 -6.7031,3.94297 -1.587,-3.21616 -3.5078,-6.29883 -7.6888,-8.47739 l -19.912,-10.25174 -57.7646,103.30594 c 0,0 -0.7886,1.97148 1.5772,2.95723 2.3658,0.98574 7.2945,2.95723 13.0118,1.97149 5.7173,-0.98575 13.6033,-2.36579 19.1234,-4.14013 5.5202,-1.77434 12.4204,-4.53442 14.1947,-5.52016 1.7744,-0.98575 5.1259,-3.15438 5.1259,-3.15438 0,0 -5.9144,-0.19715 -11.2375,-2.76008 -5.323,-2.56294 -7.6888,-5.71732 -7.6888,-5.71732 0,0 -0.5914,-1.18289 1.1829,-1.57719 1.7744,-0.39429 6.9002,-1.18289 13.6033,-2.95723 6.703,-1.77434 12.0261,-4.14012 18.7291,-9.26599 6.7031,-5.12587 11.0404,-10.25173 13.6033,-13.80041 2.5629,-3.54868 4.1401,-7.2945 5.7173,-7.49165 1.5772,-0.19715 4.1401,0.19715 3.5487,7.09735 -0.5915,6.90021 -5.323,20.89777 -5.323,20.89777 0,0 -3.943,10.05458 -7.886,16.16619 -3.943,6.11162 -10.646,15.96905 -14.7861,18.13769 -4.1402,2.16863 -7.0974,2.16863 -7.0974,2.16863 0,0 3.1544,-6.5059 4.1401,-8.28024 0.9858,-1.77434 1.5772,-6.90021 1.5772,-6.90021 0,0 -11.0404,8.0831 -15.3776,10.64603 -4.3373,2.56293 -15.969,7.88595 -22.0806,8.8717 -6.1117,0.98574 -19.7149,0.78859 -22.6721,0 -2.9573,-0.7886 -6.7072,-1.43778 -6.7072,-1.43778 0,0 -1.5533,3.63033 -4.5105,4.02463 -2.9573,0.3943 -7.8958,-1.3223 -9.0787,-2.1109 -1.1829,-0.78859 -4.7077,-3.74582 -4.7077,-5.71731 0,-1.97149 1.1491,-4.41893 1.1491,-4.41893 0,0 -6.506,-5.91446 -10.6461,-13.60326 -4.1401,-7.68881 -9.0688,-17.34909 -10.646,-25.43219 -1.5772,-8.0831 -2.3658,-19.12343 -1.7743,-21.48921 0.5914,-2.36579 0.7885,-3.94298 0.7885,-3.94298 0,0 -3.9429,3.15438 -4.9287,5.12587 -0.9857,1.97149 -3.9429,7.88595 -3.9429,7.88595 0,0 -1.1829,-4.53442 -1.1829,-7.6888 0,-3.15438 2.9572,-14.19471 5.9144,-20.50347 2.9573,-6.30876 7.2945,-14.19471 11.6318,-20.30632 4.3373,-6.11161 7.8859,-10.84318 12.2232,-13.20896 4.3373,-2.36579 4.9702,-3.13523 6.7031,-1.18289 1.7329,1.95234 -1.3801,5.12586 -2.563,8.47739 -1.1828,3.35153 -4.7315,16.16619 -5.1258,20.50347 -0.3943,4.33727 0.9857,13.20896 3.3515,16.95479 2.3658,3.74582 4.5344,8.47739 7.2945,11.43462 2.7601,2.95724 5.323,6.30876 5.323,6.30876 0,0 -2.9572,2.36579 -6.1116,1.77434 -3.1544,-0.59144 -9.4631,-2.16863 -11.6318,-4.14012 -2.1686,-1.97149 -4.3373,-5.71731 -4.9287,-6.70306 -0.5915,-0.98574 -2.3658,-1.57719 -2.3658,-1.57719 0,0 -0.7886,4.92872 0.1972,8.8717 0.9857,3.94297 3.5487,14.9833 5.323,18.72912 1.7743,3.74583 2.5629,5.32302 5.7173,10.84319 3.1544,5.52016 5.323,7.49165 5.323,7.49165 0.7465,0.56269 2.5397,0.56319 3.6204,-0.21116 z"
           id="path855"
           sodipodi:nodetypes="cccsscccccssssscccccscccccsssscscsssssscsscscssscssscssscscsssszsssscssscssscc" />
        <path
           style="fill:#ffffff;fill-opacity:1;stroke:none;stroke-width:0.938584;stroke-linecap:round;stroke-miterlimit:4;stroke-dasharray:none;paint-order:fill markers stroke"
           id="path857"
           sodipodi:type="arc"
           sodipodi:cx="1828.712"
           sodipodi:cy="234.25964"
           sodipodi:rx="8.5850735"
           sodipodi:ry="9.8330135"
           sodipodi:start="0"
           sodipodi:end="6.2548376"
           sodipodi:arc-type="arc"
           sodipodi:open="true"
           transform="matrix(1,0,-0.16297622,0.98663,0,0)"
           d="m 1837.2971,234.25964 a 8.5850735,9.8330135 0 0 1 -8.5242,9.83277 8.5850735,9.8330135 0 0 1 -8.6451,-9.6934 8.5850735,9.8330135 0 0 1 8.4017,-9.97016 8.5850735,9.8330135 0 0 1 8.7642,9.55209" />
      </g>
      <g
         transform="translate(24.8,4)"
         id="g1579">
        <path
           inkscape:transform-center-y="-14.711515"
           inkscape:transform-center-x="-0.2889095"
           id="path1303"
           d="m 255.66058,221.52827 0.0655,-26.95885 z"
           style="fill:#7d7d00;fill-opacity:1;stroke:#363200;stroke-width:1.46;stroke-linecap:round;stroke-linejoin:miter;stroke-miterlimit:4;stroke-dasharray:none;stroke-opacity:1" />
        <path
           id="path1544"
           d="m 265.76894,316.37835 18.47947,-0.11339 z"
           style="fill:#eac102;fill-opacity:1;stroke:#eabd00;stroke-width:163.812;stroke-linecap:butt;stroke-linejoin:miter;stroke-miterlimit:4;stroke-dasharray:none;stroke-opacity:1" />
        <path
           style="fill:#eac102;fill-opacity:1;stroke:#3e3305;stroke-width:2.79243;stroke-linecap:butt;stroke-linejoin:miter;stroke-miterlimit:4;stroke-dasharray:none;stroke-opacity:1"
           d="m 275.90824,410.19098 0.1938,-15.24806 z"
           id="path1087" />
        <path
           style="fill:#eac102;fill-opacity:1;stroke:#363200;stroke-width:1.46;stroke-linecap:round;stroke-linejoin:miter;stroke-miterlimit:4;stroke-dasharray:none;stroke-opacity:1"
           d="m 295.72058,221.32946 0.0655,-26.95885 z"
           id="path1301"
           inkscape:transform-center-x="-0.2889095"
           inkscape:transform-center-y="-14.711515" />
        <path
           sodipodi:nodetypes="csscsscc"
           id="path905"
           d="m 275.611,399.28218 h 2.0985 c 5.65614,0 7.35745,-1.85234 12.84105,-6.70266 2.91046,-2.57435 5.98184,-12.9857 5.98184,-12.9857 0,0 -9.37966,2.20092 -12.877,5.34866 -3.49757,3.14774 -8.03676,6.2336 -8.2069,10.78219 -0.0692,1.8513 -0.20153,3.55751 0.16322,3.55751 z"
           style="fill:#eac102;fill-opacity:1;stroke:#3b3600;stroke-width:1.46;stroke-linecap:butt;stroke-linejoin:miter;stroke-miterlimit:4;stroke-dasharray:none;stroke-opacity:1" />
        <path
           style="fill:#eac102;fill-opacity:1;stroke:#3b3600;stroke-width:1.46;stroke-linecap:butt;stroke-linejoin:miter;stroke-miterlimit:4;stroke-dasharray:none;stroke-opacity:1"
           d="m 275.611,399.28218 h -2.0985 c -5.65616,0 -7.35747,-1.85234 -12.84101,-6.70266 -2.91048,-2.57435 -5.98187,-12.9857 -5.98187,-12.9857 0,0 9.37968,2.20092 12.87702,5.34866 3.49751,3.14774 8.03672,6.2336 8.20686,10.78219 0.0692,1.8513 0.20153,3.55751 -0.16321,3.55751 z"
           id="path907"
           sodipodi:nodetypes="csscsscc" />
        <path
           style="fill:#eac102;fill-opacity:1;stroke:#3b3600;stroke-width:1.46;stroke-linecap:butt;stroke-linejoin:miter;stroke-miterlimit:4;stroke-dasharray:none;stroke-opacity:1"
           d="m 275.611,384.87041 h 2.0985 c 5.65614,0 7.35745,-1.85234 12.84105,-6.70266 2.91046,-2.57435 5.98184,-12.9857 5.98184,-12.9857 0,0 -9.37966,2.20092 -12.877,5.34866 -3.49757,3.14775 -8.03676,6.23361 -8.2069,10.78219 -0.0692,1.8513 -0.20153,3.55751 0.16322,3.55751 z"
           id="path915"
           sodipodi:nodetypes="csscsscc" />
        <path
           sodipodi:nodetypes="csscsscc"
           id="path917"
           d="m 275.611,384.87041 h -2.0985 c -5.65616,0 -7.35747,-1.85234 -12.84101,-6.70266 -2.91048,-2.57435 -5.98187,-12.9857 -5.98187,-12.9857 0,0 9.37968,2.20092 12.87702,5.34866 3.49751,3.14775 8.03672,6.23361 8.20686,10.78219 0.0692,1.8513 0.20153,3.55751 -0.16321,3.55751 z"
           style="fill:#eac102;fill-opacity:1;stroke:#3b3600;stroke-width:1.46;stroke-linecap:butt;stroke-linejoin:miter;stroke-miterlimit:4;stroke-dasharray:none;stroke-opacity:1" />
        <path
           sodipodi:nodetypes="csscsscc"
           id="path925"
           d="m 275.611,370.45865 h 2.0985 c 5.65614,0 7.35745,-1.85234 12.84105,-6.70266 2.91046,-2.57435 5.98184,-12.98571 5.98184,-12.98571 0,0 -9.37966,2.20092 -12.877,5.34866 -3.49757,3.14775 -8.03676,6.23361 -8.2069,10.7822 -0.0692,1.85129 -0.20153,3.55751 0.16322,3.55751 z"
           style="fill:#eac102;fill-opacity:1;stroke:#3b3600;stroke-width:1.46;stroke-linecap:butt;stroke-linejoin:miter;stroke-miterlimit:4;stroke-dasharray:none;stroke-opacity:1" />
        <path
           style="fill:#eac102;fill-opacity:1;stroke:#3b3600;stroke-width:1.46;stroke-linecap:butt;stroke-linejoin:miter;stroke-miterlimit:4;stroke-dasharray:none;stroke-opacity:1"
           d="m 275.611,370.45865 h -2.0985 c -5.65616,0 -7.35747,-1.85234 -12.84101,-6.70266 -2.91048,-2.57435 -5.98187,-12.98571 -5.98187,-12.98571 0,0 9.37968,2.20092 12.87702,5.34866 3.49751,3.14775 8.03672,6.23361 8.20686,10.7822 0.0692,1.85129 0.20153,3.55751 -0.16321,3.55751 z"
           id="path927"
           sodipodi:nodetypes="csscsscc" />
        <path
           style="fill:#eac102;fill-opacity:1;stroke:#3b3600;stroke-width:1.46;stroke-linecap:butt;stroke-linejoin:miter;stroke-miterlimit:4;stroke-dasharray:none;stroke-opacity:1"
           d="m 275.611,356.04688 h 2.0985 c 5.65614,0 7.35745,-1.85234 12.84105,-6.70266 2.91046,-2.57435 5.98184,-12.9857 5.98184,-12.9857 0,0 -9.37966,2.20092 -12.877,5.34865 -3.49757,3.14775 -8.03676,6.23361 -8.2069,10.7822 -0.0692,1.8513 -0.20153,3.55751 0.16322,3.55751 z"
           id="path935"
           sodipodi:nodetypes="csscsscc" />
        <path
           sodipodi:nodetypes="csscsscc"
           id="path937"
           d="m 275.611,356.04688 h -2.0985 c -5.65616,0 -7.35747,-1.85234 -12.84101,-6.70266 -2.91048,-2.57435 -5.98187,-12.9857 -5.98187,-12.9857 0,0 9.37968,2.20092 12.87702,5.34865 3.49751,3.14775 8.03672,6.23361 8.20686,10.7822 0.0692,1.8513 0.20153,3.55751 -0.16321,3.55751 z"
           style="fill:#eac102;fill-opacity:1;stroke:#3b3600;stroke-width:1.46;stroke-linecap:butt;stroke-linejoin:miter;stroke-miterlimit:4;stroke-dasharray:none;stroke-opacity:1" />
        <path
           sodipodi:nodetypes="csscsscc"
           id="path945"
           d="m 275.611,341.63511 h 2.0985 c 5.65614,0 7.35745,-1.85234 12.84105,-6.70266 2.91046,-2.57435 5.98184,-12.9857 5.98184,-12.9857 0,0 -9.37966,2.20092 -12.877,5.34866 -3.49757,3.14775 -8.03676,6.23361 -8.2069,10.78219 -0.0692,1.8513 -0.20153,3.55751 0.16322,3.55751 z"
           style="fill:#eac102;fill-opacity:1;stroke:#3b3600;stroke-width:1.46;stroke-linecap:butt;stroke-linejoin:miter;stroke-miterlimit:4;stroke-dasharray:none;stroke-opacity:1" />
        <path
           style="fill:#eac102;fill-opacity:1;stroke:#3b3600;stroke-width:1.46;stroke-linecap:butt;stroke-linejoin:miter;stroke-miterlimit:4;stroke-dasharray:none;stroke-opacity:1"
           d="m 275.611,341.63511 h -2.0985 c -5.65616,0 -7.35747,-1.85234 -12.84101,-6.70266 -2.91048,-2.57435 -5.98187,-12.9857 -5.98187,-12.9857 0,0 9.37968,2.20092 12.87702,5.34866 3.49751,3.14775 8.03672,6.23361 8.20686,10.78219 0.0692,1.8513 0.20153,3.55751 -0.16321,3.55751 z"
           id="path947"
           sodipodi:nodetypes="csscsscc" />
        <path
           style="fill:#eac102;fill-opacity:1;stroke:#3b3600;stroke-width:1.46;stroke-linecap:butt;stroke-linejoin:miter;stroke-miterlimit:4;stroke-dasharray:none;stroke-opacity:1"
           d="m 275.611,327.22335 h 2.0985 c 5.65614,0 7.35745,-1.85234 12.84105,-6.70267 2.91046,-2.57434 5.98184,-12.9857 5.98184,-12.9857 0,0 -9.37966,2.20092 -12.877,5.34866 -3.49757,3.14775 -8.03676,6.23361 -8.2069,10.78219 -0.0692,1.8513 -0.20153,3.55752 0.16322,3.55752 z"
           id="path955"
           sodipodi:nodetypes="csscsscc" />
        <path
           sodipodi:nodetypes="csscsscc"
           id="path957"
           d="m 275.611,327.22335 h -2.0985 c -5.65616,0 -7.35747,-1.85234 -12.84101,-6.70267 -2.91048,-2.57434 -5.98187,-12.9857 -5.98187,-12.9857 0,0 9.37968,2.20092 12.87702,5.34866 3.49751,3.14775 8.03672,6.23361 8.20686,10.78219 0.0692,1.8513 0.20153,3.55752 -0.16321,3.55752 z"
           style="fill:#eac102;fill-opacity:1;stroke:#3b3600;stroke-width:1.46;stroke-linecap:butt;stroke-linejoin:miter;stroke-miterlimit:4;stroke-dasharray:none;stroke-opacity:1" />
        <path
           sodipodi:nodetypes="csscsscc"
           id="path965"
           d="m 275.611,312.81158 h 2.0985 c 5.65614,0 7.35745,-1.85234 12.84105,-6.70266 2.91046,-2.57435 5.98184,-12.98571 5.98184,-12.98571 0,0 -9.37966,2.20092 -12.877,5.34866 -3.49757,3.14775 -8.03676,6.23361 -8.2069,10.7822 -0.0692,1.8513 -0.20153,3.55751 0.16322,3.55751 z"
           style="fill:#eac102;fill-opacity:1;stroke:#3b3600;stroke-width:1.46;stroke-linecap:butt;stroke-linejoin:miter;stroke-miterlimit:4;stroke-dasharray:none;stroke-opacity:1" />
        <path
           style="fill:#eac102;fill-opacity:1;stroke:#3b3600;stroke-width:1.46;stroke-linecap:butt;stroke-linejoin:miter;stroke-miterlimit:4;stroke-dasharray:none;stroke-opacity:1"
           d="m 275.611,312.81158 h -2.0985 c -5.65616,0 -7.35747,-1.85234 -12.84101,-6.70266 -2.91048,-2.57435 -5.98187,-12.98571 -5.98187,-12.98571 0,0 9.37968,2.20092 12.87702,5.34866 3.49751,3.14775 8.03672,6.23361 8.20686,10.7822 0.0692,1.8513 0.20153,3.55751 -0.16321,3.55751 z"
           id="path967"
           sodipodi:nodetypes="csscsscc" />
        <path
           style="fill:#eac102;fill-opacity:1;stroke:#3b3600;stroke-width:1.46;stroke-linecap:butt;stroke-linejoin:miter;stroke-miterlimit:4;stroke-dasharray:none;stroke-opacity:1"
           d="m 275.611,298.39981 h 2.0985 c 5.65614,0 7.35745,-1.85234 12.84105,-6.70266 2.91046,-2.57435 5.98184,-12.9857 5.98184,-12.9857 0,0 -9.37966,2.20092 -12.877,5.34866 -3.49757,3.14774 -8.03676,6.2336 -8.2069,10.78219 -0.0692,1.8513 -0.20153,3.55751 0.16322,3.55751 z"
           id="path975"
           sodipodi:nodetypes="csscsscc" />
        <path
           sodipodi:nodetypes="csscsscc"
           id="path977"
           d="m 275.611,298.39981 h -2.0985 c -5.65616,0 -7.35747,-1.85234 -12.84101,-6.70266 -2.91048,-2.57435 -5.98187,-12.9857 -5.98187,-12.9857 0,0 9.37968,2.20092 12.87702,5.34866 3.49751,3.14774 8.03672,6.2336 8.20686,10.78219 0.0692,1.8513 0.20153,3.55751 -0.16321,3.55751 z"
           style="fill:#eac102;fill-opacity:1;stroke:#3b3600;stroke-width:1.46;stroke-linecap:butt;stroke-linejoin:miter;stroke-miterlimit:4;stroke-dasharray:none;stroke-opacity:1" />
        <path
           sodipodi:nodetypes="csscsscc"
           id="path985"
           d="m 275.611,283.98805 h 2.0985 c 5.65614,0 7.35745,-1.85235 12.84105,-6.70267 2.91046,-2.57435 5.98184,-12.9857 5.98184,-12.9857 0,0 -9.37966,2.20092 -12.877,5.34866 -3.49757,3.14775 -8.03676,6.23361 -8.2069,10.78219 -0.0692,1.8513 -0.20153,3.55752 0.16322,3.55752 z"
           style="fill:#eac102;fill-opacity:1;stroke:#3b3600;stroke-width:1.46;stroke-linecap:butt;stroke-linejoin:miter;stroke-miterlimit:4;stroke-dasharray:none;stroke-opacity:1" />
        <path
           style="fill:#eac102;fill-opacity:1;stroke:#3b3600;stroke-width:1.46;stroke-linecap:butt;stroke-linejoin:miter;stroke-miterlimit:4;stroke-dasharray:none;stroke-opacity:1"
           d="m 275.611,283.98805 h -2.0985 c -5.65616,0 -7.35747,-1.85235 -12.84101,-6.70267 -2.91048,-2.57435 -5.98187,-12.9857 -5.98187,-12.9857 0,0 9.37968,2.20092 12.87702,5.34866 3.49751,3.14775 8.03672,6.23361 8.20686,10.78219 0.0692,1.8513 0.20153,3.55752 -0.16321,3.55752 z"
           id="path987"
           sodipodi:nodetypes="csscsscc" />
        <path
           style="fill:#eac102;fill-opacity:1;stroke:#393400;stroke-width:1.46;stroke-linecap:butt;stroke-linejoin:miter;stroke-miterlimit:4;stroke-dasharray:none;stroke-opacity:1"
           d="m 275.611,269.57629 h 2.0985 c 5.65614,0 7.35745,-1.85235 12.84105,-6.70267 2.91046,-2.57435 5.98184,-12.98571 5.98184,-12.98571 0,0 -9.37966,2.20092 -12.877,5.34866 -3.49757,3.14775 -8.03676,6.23361 -8.2069,10.7822 -0.0692,1.85129 -0.20153,3.55752 0.16322,3.55752 z"
           id="path995"
           sodipodi:nodetypes="csscsscc" />
        <path
           sodipodi:nodetypes="csscsscc"
           id="path997"
           d="m 275.611,269.57629 h -2.0985 c -5.65616,0 -7.35747,-1.85235 -12.84101,-6.70267 -2.91048,-2.57435 -5.98187,-12.98571 -5.98187,-12.98571 0,0 9.37968,2.20092 12.87702,5.34866 3.49751,3.14775 8.03672,6.23361 8.20686,10.7822 0.0692,1.85129 0.20153,3.55752 -0.16321,3.55752 z"
           style="fill:#eac102;fill-opacity:1;stroke:#363200;stroke-width:1.46;stroke-linecap:butt;stroke-linejoin:miter;stroke-miterlimit:4;stroke-dasharray:none;stroke-opacity:1" />
        <path
           sodipodi:nodetypes="csscsscc"
           id="path1005"
           d="m 275.611,255.16452 h 2.0985 c 5.65614,0 7.35745,-1.85235 12.84105,-6.70267 2.91046,-2.57435 5.98184,-12.9857 5.98184,-12.9857 0,0 -9.37966,2.20092 -12.877,5.34866 -3.49757,3.14774 -8.03676,6.2336 -8.2069,10.78219 -0.0692,1.8513 -0.20153,3.55752 0.16322,3.55752 z"
           style="fill:#eac102;fill-opacity:1;stroke:#3b3600;stroke-width:1.46;stroke-linecap:butt;stroke-linejoin:miter;stroke-miterlimit:4;stroke-dasharray:none;stroke-opacity:1" />
        <path
           style="fill:#eac102;fill-opacity:1;stroke:#3b3600;stroke-width:1.46;stroke-linecap:butt;stroke-linejoin:miter;stroke-miterlimit:4;stroke-dasharray:none;stroke-opacity:1"
           d="m 275.611,255.16452 h -2.0985 c -5.65616,0 -7.35747,-1.85235 -12.84101,-6.70267 -2.91048,-2.57435 -5.98187,-12.9857 -5.98187,-12.9857 0,0 9.37968,2.20092 12.87702,5.34866 3.49751,3.14774 8.03672,6.2336 8.20686,10.78219 0.0692,1.8513 0.20153,3.55752 -0.16321,3.55752 z"
           id="path1007"
           sodipodi:nodetypes="csscsscc" />
        <path
           inkscape:transform-center-y="-14.711515"
           inkscape:transform-center-x="-0.2889095"
           id="path1301-8"
           d="m 290.19037,225.58801 0.0655,-26.95884 z"
           style="fill:#eac102;fill-opacity:1;stroke:#363200;stroke-width:1.46;stroke-linecap:round;stroke-linejoin:miter;stroke-miterlimit:4;stroke-dasharray:none;stroke-opacity:1" />
        <path
           style="fill:#eac102;fill-opacity:1;stroke:#363200;stroke-width:1.46;stroke-linecap:round;stroke-linejoin:miter;stroke-miterlimit:4;stroke-dasharray:none;stroke-opacity:1"
           d="m 284.86899,228.91384 0.0655,-26.95884 z"
           id="path1540"
           inkscape:transform-center-x="-0.2889095"
           inkscape:transform-center-y="-14.711515" />
        <path
           style="fill:#eac102;fill-opacity:1;stroke:#3b3600;stroke-width:1.46;stroke-linecap:butt;stroke-linejoin:miter;stroke-miterlimit:4;stroke-dasharray:none;stroke-opacity:1"
           d="m 275.611,240.75275 h 2.0985 c 5.65614,0 7.35745,-1.85235 12.84105,-6.70267 2.91046,-2.57435 5.98184,-12.9857 5.98184,-12.9857 0,0 -9.37966,2.20093 -12.877,5.34866 -3.49757,3.14775 -8.03676,6.23361 -8.2069,10.7822 -0.0692,1.85129 -0.20153,3.55751 0.16322,3.55751 z"
           id="path1015"
           sodipodi:nodetypes="csscsscc" />
        <path
           style="fill:#7d7d00;fill-opacity:1;stroke:#363200;stroke-width:1.46;stroke-linecap:round;stroke-linejoin:miter;stroke-miterlimit:4;stroke-dasharray:none;stroke-opacity:1"
           d="m 260.8901,225.41665 0.0655,-26.95885 z"
           id="path1320"
           inkscape:transform-center-x="-0.2889095"
           inkscape:transform-center-y="-14.711515" />
        <path
           inkscape:transform-center-y="-14.711515"
           inkscape:transform-center-x="-0.2889095"
           id="path1542"
           d="m 266.30744,228.91384 0.0655,-26.95884 z"
           style="fill:#eac102;fill-opacity:1;stroke:#363200;stroke-width:1.46;stroke-linecap:round;stroke-linejoin:miter;stroke-miterlimit:4;stroke-dasharray:none;stroke-opacity:1" />
        <path
           sodipodi:nodetypes="csscsscc"
           id="path1017"
           d="m 275.611,240.75275 h -2.0985 c -5.65616,0 -7.35747,-1.85235 -12.84101,-6.70267 -2.91048,-2.57435 -5.98187,-12.9857 -5.98187,-12.9857 0,0 9.37968,2.20093 12.87702,5.34866 3.49751,3.14775 8.03672,6.23361 8.20686,10.7822 0.0692,1.85129 0.20153,3.55751 -0.16321,3.55751 z"
           style="fill:#eac102;fill-opacity:1;stroke:#3b3600;stroke-width:1.46;stroke-linecap:butt;stroke-linejoin:miter;stroke-miterlimit:4;stroke-dasharray:none;stroke-opacity:1" />
        <path
           style="fill:#eac102;fill-opacity:1;stroke:#3b3600;stroke-width:1.46;stroke-linecap:butt;stroke-linejoin:miter;stroke-miterlimit:4;stroke-dasharray:none;stroke-opacity:1"
           d="m 275.36187,226.16224 -1.421,-1.54417 c -3.83009,-4.16204 -3.61912,-6.66825 -3.76314,-13.98766 -0.0768,-3.88493 5.50473,-13.19506 5.50473,-13.19506 0,0 4.73198,8.39237 4.78401,13.09736 0.052,4.70511 0.8551,10.13487 -2.37674,13.34014 -1.31566,1.30429 -2.48134,2.55728 -2.72833,2.28886 z"
           id="path1027"
           sodipodi:nodetypes="csscsscc"
           inkscape:transform-center-x="0.38183357"
           inkscape:transform-center-y="-17.674109" />
      </g>
    </g>
  </g>
</svg>
