<?xml version="1.0" encoding="UTF-8" standalone="no"?>
<svg
   xmlns:dc="http://purl.org/dc/elements/1.1/"
   xmlns:cc="http://creativecommons.org/ns#"
   xmlns:rdf="http://www.w3.org/1999/02/22-rdf-syntax-ns#"
   xmlns:svg="http://www.w3.org/2000/svg"
   xmlns="http://www.w3.org/2000/svg"
   xmlns:xlink="http://www.w3.org/1999/xlink"
   xmlns:sodipodi="http://sodipodi.sourceforge.net/DTD/sodipodi-0.dtd"
   xmlns:inkscape="http://www.inkscape.org/namespaces/inkscape"
   inkscape:version="1.0.1 (3bc2e813f5, 2020-09-07)"
   sodipodi:docname="Flag_of_Rocha_Department.svg"
   id="svg2"
   height="600"
   width="900"
   version="1.1">
  <sodipodi:namedview
     inkscape:current-layer="svg2"
     inkscape:window-maximized="1"
     inkscape:window-y="-8"
     inkscape:window-x="-8"
     inkscape:cy="411.41232"
     inkscape:cx="165.82051"
     inkscape:zoom="0.44833333"
     showgrid="false"
     id="namedview73"
     inkscape:window-height="705"
     inkscape:window-width="1366"
     inkscape:pageshadow="2"
     inkscape:pageopacity="0"
     guidetolerance="10"
     gridtolerance="10"
     objecttolerance="10"
     borderopacity="1"
     bordercolor="#666666"
     pagecolor="#ffffff"
     inkscape:document-rotation="0" />
  <defs
     id="defs4" />
  <metadata
     id="metadata7">
    <rdf:RDF>
      <cc:Work
         rdf:about="">
        <dc:format>image/svg+xml</dc:format>
        <dc:type
           rdf:resource="http://purl.org/dc/dcmitype/StillImage" />
        <dc:title />
      </cc:Work>
    </rdf:RDF>
  </metadata>
  <rect
     style="fill:#003984;fill-opacity:1;stroke:none;stroke-width:1.41421"
     id="rect2985"
     y="1.2617187e-05"
     x="0"
     height="399.99997"
     width="900" />
  <rect
     style="fill:#dc1f16;fill-opacity:1;stroke:none"
     id="rect2985-1"
     y="200.00002"
     x="0"
     height="200"
     width="900" />
  <rect
     style="fill:#ffffff;fill-opacity:1;stroke:none"
     id="rect2985-7"
     y="400"
     x="0"
     height="200"
     width="900" />
  <g
     id="g1232">
    <path
       d="M 367.125,180.15625 V 200.5 h -0.0312 c 0.0679,40.1163 -0.14665,80.23025 0.0937,120.34375 1.27856,36.00045 28.86148,68.89717 64.0625,76.5 32.56551,7.93057 69.02508,-6.33189 87.40625,-34.4375 11.00843,-15.71854 15.06399,-35.18984 14.15625,-54.125 V 201.625 h 0.0625 V 180.15625 H 510.25 V 200.5 h -13.15625 v -20.34375 h -22.625 V 200.5 H 461.3125 v -20.34375 h -22.625 V 200.5 h -13.15625 v -20.34375 h -22.625 V 200.5 H 389.75 V 180.15625 Z M 385,240.9375 h 129.9375 v 61.5625 4.40625 c 0.71184,14.84877 -2.46105,30.07992 -11.09375,42.40625 -14.41433,22.04014 -43.02494,33.21908 -68.5625,27 -27.60429,-5.96206 -49.21611,-31.73756 -50.21875,-59.96875 -0.0283,-4.71849 0.014,-9.43766 0,-14.15625 -0.0606,-20.41601 -0.0689,-40.83234 -0.0625,-61.25 z"
       id="path4999"
       style="fill:#ffffff;fill-opacity:1;stroke:#000000;stroke-width:1.10499;stroke-miterlimit:4;stroke-dasharray:none;stroke-opacity:1" />
    <g
       transform="matrix(0.46573422,0,0,0.46573422,333.10491,63.87415)"
       id="sol"
       style="stroke:#000000;stroke-width:2.14715;stroke-miterlimit:4;stroke-dasharray:none;stroke-opacity:1">
      <g
         transform="matrix(5.5055055,0,0,5.5055055,250,250)"
         id="4wavyrays"
         style="fill:#fcd116;stroke:#000000;stroke-width:0.39;stroke-miterlimit:4;stroke-dasharray:none;stroke-opacity:1">
        <g
           id="2wavyrays"
           style="stroke:#000000;stroke-width:0.39;stroke-miterlimit:4;stroke-dasharray:none;stroke-opacity:1">
          <g
             transform="rotate(22.5)"
             id="wavyray"
             style="stroke:#000000;stroke-width:0.39;stroke-miterlimit:4;stroke-dasharray:none;stroke-opacity:1">
            <path
               d="M 0,0 6,12 C -2,25 7,27 0,33 3,25 -4,28 -3,13"
               id="path12"
               style="fill:#eac102;stroke:#000000;stroke-width:0.39;stroke-miterlimit:4;stroke-dasharray:none;stroke-opacity:1" />
            <path
               d="M 0,11 C -2,24 4.5,28 0,33"
               id="path14"
               style="fill:none;stroke:#000000;stroke-width:0.39;stroke-miterlimit:4;stroke-dasharray:none;stroke-opacity:1" />
          </g>
          <use
             transform="scale(-1)"
             id="use16"
             style="stroke:#000000;stroke-width:0.39;stroke-miterlimit:4;stroke-dasharray:none;stroke-opacity:1"
             x="0"
             y="0"
             width="243"
             height="162"
             xlink:href="#wavyray" />
        </g>
        <use
           transform="rotate(90)"
           id="use18"
           style="fill:#eac102;stroke:#000000;stroke-width:0.39;stroke-miterlimit:4;stroke-dasharray:none;stroke-opacity:1"
           x="0"
           y="0"
           width="243"
           height="162"
           xlink:href="#2wavyrays" />
      </g>
      <use
         transform="rotate(45,250,250)"
         id="use20"
         style="fill:#eac102;stroke:#000000;stroke-width:2.14715;stroke-miterlimit:4;stroke-dasharray:none;stroke-opacity:1"
         x="0"
         y="0"
         width="243"
         height="162"
         xlink:href="#4wavyrays" />
      <g
         transform="matrix(5.5055055,0,0,5.5055055,250,250)"
         id="4straightrays"
         style="fill:#fcd116;stroke:#000000;stroke-width:0.39;stroke-miterlimit:4;stroke-dasharray:none;stroke-opacity:1">
        <g
           id="2straightrays"
           style="stroke:#000000;stroke-width:0.39;stroke-miterlimit:4;stroke-dasharray:none;stroke-opacity:1">
          <path
             d="M 0,0 H 6 L 0,33 -6,0 h 6 v 33"
             id="straightray"
             style="fill:#eac102;stroke:#000000;stroke-width:0.39;stroke-miterlimit:4;stroke-dasharray:none;stroke-opacity:1" />
          <use
             transform="scale(-1)"
             id="use25"
             style="fill:#eac102;stroke:#000000;stroke-width:0.39;stroke-miterlimit:4;stroke-dasharray:none;stroke-opacity:1"
             x="0"
             y="0"
             width="243"
             height="162"
             xlink:href="#straightray" />
        </g>
        <use
           transform="rotate(90)"
           id="use27"
           style="fill:#eac102;stroke:#000000;stroke-width:0.39;stroke-miterlimit:4;stroke-dasharray:none;stroke-opacity:1"
           x="0"
           y="0"
           width="243"
           height="162"
           xlink:href="#2straightrays" />
      </g>
      <use
         transform="rotate(45,250,250)"
         id="use29"
         style="fill:#eac102;stroke:#000000;stroke-width:2.14715;stroke-miterlimit:4;stroke-dasharray:none;stroke-opacity:1"
         x="0"
         y="0"
         width="243"
         height="162"
         xlink:href="#4straightrays" />
      <circle
         cx="0"
         cy="0"
         r="11"
         transform="matrix(5.5055055,0,0,5.5055055,250,250)"
         id="circle31"
         style="fill:#eac102;stroke:#000000;stroke-width:0.39;stroke-miterlimit:4;stroke-dasharray:none;stroke-opacity:1" />
    </g>
    <path
       d="m 514.9375,302.5 -65.46875,-19 -64.40625,18.6875 c 0.014,4.71859 -0.0283,9.43776 0,14.15625 1.00264,28.23119 22.61446,54.00669 50.21875,59.96875 25.53756,6.21908 54.14817,-4.95986 68.5625,-27 8.6327,-12.32633 11.80559,-27.55748 11.09375,-42.40625 z"
       id="path4788"
       style="display:inline;overflow:visible;visibility:visible;fill:#eac102;fill-opacity:1;stroke:#000000;stroke-width:0.774667;stroke-linecap:butt;stroke-linejoin:miter;stroke-miterlimit:4;stroke-dasharray:none;stroke-dashoffset:0;stroke-opacity:1;marker:none;enable-background:accumulate" />
    <path
       d="m 489.06574,307.375 v 11.78125 m 19.53125,17.6875 v -11.8125 m -19.53125,5.9375 v 11.8125 m 0,11.8125 v 11.8125 m -19.53125,6.125 v -11.8125 m 0,-11.78125 V 337.125 m 0,-11.8125 V 313.5 m -38.0625,-12.09375 v 11.78125 m 0,11.8125 v 11.8125 m 0,11.8125 v 11.8125 m 0,11.78125 v 7.99962 m -39.0625,-44.06212 v 11.8125 m 19.53125,6.34375 V 342.5 m -19.53125,-29.96875 v 11.8125 m 19.53125,6.34375 V 318.875 m 3.35955,58.0603 L 450,366.85783 487.77069,377.82718 M 403.1263,368.66431 450,355.05128 502.25117,370.22603 M 389.56217,360.79705 450,343.24472 509.31413,360.4707 M 382.56336,351.02307 450,331.43815 512.56884,349.60936 M 382.56335,339.21649 450,319.63157 517.43664,339.21649 M 382.56335,327.40991 450,307.82499 517.43664,327.40991 M 382.56335,315.60333 450,296.01842 l 67.43664,19.58491"
       id="path4874"
       style="fill:none;stroke:#000000;stroke-width:1px;stroke-linecap:butt;stroke-linejoin:miter;stroke-opacity:1" />
    <path
       d="m 385,240.9375 c -0.006,20.41766 0.002,40.83399 0.0625,61.25 l 64.40625,-18.6875 65.46875,19 v -61.5625 z"
       id="path4746"
       style="display:inline;overflow:visible;visibility:visible;fill:#ffffff;fill-opacity:1;stroke:#000000;stroke-width:0.774667;stroke-linecap:butt;stroke-linejoin:miter;stroke-miterlimit:4;stroke-dasharray:none;stroke-dashoffset:0;stroke-opacity:1;marker:none;enable-background:accumulate" />
    <path
       d="M 382.56335,303.071 450,283.48608 517.43664,303.071"
       id="path4756"
       style="fill:none;stroke:#000000;stroke-width:1.04437px;stroke-linecap:butt;stroke-linejoin:miter;stroke-opacity:1" />
    <path
       d="M 382.56335,313.51465 450,293.92974 l 67.43664,19.58491"
       id="path4758"
       style="fill:none;stroke:#000000;stroke-width:1.04437px;stroke-linecap:butt;stroke-linejoin:miter;stroke-opacity:1" />
    <path
       d="M 450,283.96071 V 394.34275"
       id="path4783"
       style="fill:none;stroke:#000000;stroke-width:1px;stroke-linecap:butt;stroke-linejoin:miter;stroke-opacity:1" />
    <path
       d="m 438.25086,307.36778 23.49824,-0.31704 c 0,0 -2.07453,19.96343 -11.74911,19.9869 -9.67459,0.0235 -11.74913,-19.66986 -11.74913,-19.66986 z"
       id="path4939"
       style="fill:#eac102;stroke:#000000;stroke-width:1px;stroke-linecap:butt;stroke-linejoin:miter;stroke-opacity:1" />
    <path
       d="m 436.88754,303.2462 2.53636,-2.21931 21.71755,0.47556 1.74375,1.58523 -2.06079,3.80453 h -19.81529 z"
       id="path4959"
       style="fill:#eac102;stroke:#000000;stroke-width:1px;stroke-linecap:butt;stroke-linejoin:miter;stroke-opacity:1" />
    <path
       d="m 440.67251,305.30696 h 18.65499 v 3.96306 h -18.65499 z"
       id="rect4937"
       style="fill:#eac102;stroke:#000000;stroke-width:1;stroke-linecap:butt;stroke-linejoin:bevel;stroke-miterlimit:4;stroke-dasharray:none;stroke-dashoffset:0;stroke-opacity:1" />
    <path
       d="m 436.77023,303.30696 4.07093,2 v 3.96306 l -4.07093,-2 z"
       id="path4944"
       style="fill:#eac102;stroke:#000000;stroke-width:1;stroke-linecap:butt;stroke-linejoin:bevel;stroke-miterlimit:4;stroke-dasharray:none;stroke-dashoffset:0;stroke-opacity:1" />
    <path
       d="m 462.84116,303.30696 -4.07093,2 v 3.96306 l 4.07093,-2 z"
       id="path4946"
       style="fill:#eac102;stroke:#000000;stroke-width:1;stroke-linecap:butt;stroke-linejoin:bevel;stroke-miterlimit:4;stroke-dasharray:none;stroke-dashoffset:0;stroke-opacity:1" />
    <g
       transform="translate(0.03754,-452.04513)"
       id="g4954">
      <path
         d="m 441.62363,732.01236 h 16.75272 v 23.61983 h -16.75272 z"
         id="path4948"
         style="fill:#eac102;stroke:#000000;stroke-width:1;stroke-linecap:butt;stroke-linejoin:bevel;stroke-miterlimit:4;stroke-dasharray:none;stroke-dashoffset:0;stroke-opacity:1" />
      <path
         d="m 460.91448,730.01236 -2.53813,2 v 23.61983 l 2.53813,-2 z"
         id="path4950"
         style="fill:#eac102;stroke:#000000;stroke-width:1;stroke-linecap:butt;stroke-linejoin:bevel;stroke-miterlimit:4;stroke-dasharray:none;stroke-dashoffset:0;stroke-opacity:1" />
      <path
         d="m 441.54857,732.01236 -2.53813,-2 v 23.61983 l 2.53813,2 z"
         id="path4952"
         style="fill:#eac102;stroke:#000000;stroke-width:1;stroke-linecap:butt;stroke-linejoin:bevel;stroke-miterlimit:4;stroke-dasharray:none;stroke-dashoffset:0;stroke-opacity:1" />
    </g>
    <path
       d="m 440.67251,276.4559 h 18.04366 v 3.96306 h -18.04366 z"
       id="path4961"
       style="fill:#eac102;stroke:#000000;stroke-width:1;stroke-linecap:butt;stroke-linejoin:bevel;stroke-miterlimit:4;stroke-dasharray:none;stroke-dashoffset:0;stroke-opacity:1" />
    <path
       d="m 436.77023,274.4559 4.07093,2 v 3.96306 l -4.07093,-2 z"
       id="path4963"
       style="fill:#eac102;stroke:#000000;stroke-width:1;stroke-linecap:butt;stroke-linejoin:bevel;stroke-miterlimit:4;stroke-dasharray:none;stroke-dashoffset:0;stroke-opacity:1" />
    <path
       d="m 462.84116,274.4559 -4.07093,2 v 3.96306 l 4.07093,-2 z"
       id="path4965"
       style="fill:#eac102;stroke:#000000;stroke-width:1;stroke-linecap:butt;stroke-linejoin:round;stroke-miterlimit:4;stroke-dasharray:none;stroke-dashoffset:0;stroke-opacity:1" />
    <path
       d="M 440.97817,276.45591 H 458.869 L 450,261.44516 Z"
       id="path4967"
       style="fill:#eac102;stroke:#000000;stroke-width:1;stroke-linecap:butt;stroke-linejoin:round;stroke-miterlimit:4;stroke-dasharray:none;stroke-dashoffset:0;stroke-opacity:1" />
    <path
       d="m 462.84116,274.4559 -4.07093,2 -8.76938,-14.68178 z"
       id="path4969"
       style="fill:#eac102;stroke:#000000;stroke-width:1;stroke-linecap:butt;stroke-linejoin:bevel;stroke-miterlimit:4;stroke-dasharray:none;stroke-dashoffset:0;stroke-opacity:1" />
    <path
       d="m 462.72654,274.49411 -3.95631,1.96179 -8.65475,-14.7964 z"
       id="path4971"
       style="fill:#eac102;stroke:#000000;stroke-width:1;stroke-linecap:butt;stroke-linejoin:round;stroke-miterlimit:4;stroke-dasharray:none;stroke-dashoffset:0;stroke-opacity:1" />
    <path
       d="m 436.85732,274.49411 3.95631,1.96179 8.65475,-14.7964 z"
       id="path4973"
       style="fill:#eac102;stroke:#000000;stroke-width:1;stroke-linecap:butt;stroke-linejoin:round;stroke-miterlimit:4;stroke-dasharray:none;stroke-dashoffset:0;stroke-opacity:1" />
    <path
       d="m 450,285.4375 c -0.75856,0 -1.375,0.61644 -1.375,1.375 0,0.10521 0.009,0.21407 0.0312,0.3125 h -0.0312 v 5.375 h 2.75 v -5.375 h -0.0312 c 0.0224,-0.0984 0.0312,-0.20729 0.0312,-0.3125 0,-0.75856 -0.61644,-1.375 -1.375,-1.375 z"
       id="rect4975"
       style="fill:#000000;fill-opacity:1;stroke:#000000;stroke-width:1;stroke-linecap:butt;stroke-linejoin:miter;stroke-miterlimit:4;stroke-dasharray:none;stroke-dashoffset:0;stroke-opacity:1" />
    <path
       d="M 367.125,180.15625 V 200.5 h -0.0312 c 0.0679,40.1163 -0.14665,80.23025 0.0937,120.34375 1.27856,36.00045 28.86148,68.89717 64.0625,76.5 32.56551,7.93057 69.02508,-6.33189 87.40625,-34.4375 11.00843,-15.71854 15.06399,-35.18984 14.15625,-54.125 V 201.625 h 0.0625 V 180.15625 H 510.25 V 200.5 h -13.15625 v -20.34375 h -22.625 V 200.5 H 461.3125 v -20.34375 h -22.625 V 200.5 h -13.15625 v -20.34375 h -22.625 V 200.5 H 389.75 V 180.15625 Z M 385,240.9375 h 129.9375 v 61.5625 4.40625 c 0.71184,14.84877 -2.46105,30.07992 -11.09375,42.40625 -14.41433,22.04014 -43.02494,33.21908 -68.5625,27 -27.60429,-5.96206 -49.21611,-31.73756 -50.21875,-59.96875 -0.0283,-4.71849 0.014,-9.43766 0,-14.15625 -0.0606,-20.41601 -0.0689,-40.83234 -0.0625,-61.25 z"
       id="rect3790"
       style="fill:#f2f2f2;fill-opacity:1;stroke:#000000;stroke-width:1.10499;stroke-miterlimit:4;stroke-dasharray:none;stroke-opacity:1" />
    <g
       transform="translate(0,-452.36217)"
       id="text4751"
       style="font-style:normal;font-variant:normal;font-weight:normal;font-stretch:normal;font-size:40px;line-height:125%;font-family:'Book Antiqua';-inkscape-font-specification:'Book Antiqua';text-align:end;letter-spacing:0px;word-spacing:0px;text-anchor:end;fill:#000000;fill-opacity:1;stroke:none">
      <path
         d="m 388.48718,684.77924 v -1.3125 c 1.20833,-0.10417 1.90104,-0.20313 2.07813,-0.29688 0.11458,-0.0625 0.19791,-0.16146 0.25,-0.29687 0.10416,-0.25 0.17708,-1.09375 0.21875,-2.53125 0.0521,-2.22916 0.0781,-3.98437 0.0781,-5.26563 0,-1.72915 -0.0208,-3.92707 -0.0625,-6.59375 -0.0417,-1.98956 -0.14063,-3.20831 -0.29687,-3.65625 -0.0417,-0.1354 -0.12501,-0.23956 -0.25,-0.3125 -0.16667,-0.10415 -0.83855,-0.21873 -2.01563,-0.34375 v -1.3125 c 2.15625,0.0834 3.54687,0.12502 4.17188,0.125 l 7.82812,-0.14062 c 1.6979,2e-5 2.93488,0.16408 3.71094,0.49218 0.77602,0.32815 1.39061,0.85419 1.84375,1.57813 0.45311,0.72398 0.67967,1.57554 0.67969,2.55469 -2e-5,1.25001 -0.362,2.34636 -1.08594,3.28906 -0.72398,0.94272 -1.98179,1.77866 -3.77344,2.50781 l 3.32813,5.01563 2.59375,3.84375 c 0.48956,0.625 0.85414,1.0026 1.09375,1.13281 0.23956,0.13021 0.63018,0.20052 1.17187,0.21094 v 1.20312 l -0.92187,0.0156 c -2.64585,0.0208 -4.34898,0.0521 -5.10938,0.0937 -0.90626,-1.44792 -2.26043,-3.54688 -4.0625,-6.29688 l -3.21875,-4.89062 c 0.0937,-0.17708 0.17187,-0.36458 0.23438,-0.5625 0.41665,0.0521 0.72395,0.0781 0.92187,0.0781 0.96874,10e-6 1.92187,-0.39061 2.85938,-1.17187 0.93748,-0.78124 1.40623,-1.89582 1.40625,-3.34375 -2e-5,-1.2604 -0.36981,-2.23957 -1.10938,-2.9375 -0.73959,-0.6979 -1.84897,-1.04686 -3.32812,-1.04688 -0.46876,2e-5 -1.10418,0.0365 -1.90625,0.10938 l -0.10938,4.60937 -0.14062,5.84375 c -1e-5,1.32293 0.0521,3.01563 0.15625,5.07813 0.0833,1.55208 0.16666,2.42187 0.25,2.60937 0.0625,0.13542 0.17707,0.24479 0.34375,0.32813 0.21874,0.125 0.92707,0.21875 2.125,0.28125 v 1.3125 c -1.87501,-0.0729 -3.53647,-0.10938 -4.98438,-0.10938 -1.54167,0 -3.19792,0.0365 -4.96875,0.10938 z"
         id="path4989"
         style="font-weight:bold;font-size:32px;-inkscape-font-specification:'Book Antiqua Bold';text-align:center;text-anchor:middle" />
      <path
         d="m 423.62781,685.09174 c -3.84376,0 -6.78647,-0.98698 -8.82813,-2.96094 -2.04167,-1.97396 -3.0625,-4.6901 -3.0625,-8.14844 0,-2.41665 0.49479,-4.47134 1.48438,-6.16406 0.98958,-1.69269 2.36197,-2.99217 4.11719,-3.89844 1.75519,-0.90623 4.01301,-1.35935 6.77343,-1.35937 2.65624,2e-5 4.82811,0.43491 6.51563,1.30468 1.68748,0.86981 2.98695,2.07815 3.89844,3.625 0.91143,1.54689 1.36716,3.44533 1.36718,5.69532 -2e-5,2.4375 -0.50002,4.54427 -1.5,6.32031 -1.00002,1.77604 -2.40887,3.15104 -4.22656,4.125 -1.81773,0.97396 -3.99741,1.46094 -6.53906,1.46094 z m 0.59375,-1.70313 c 2.09373,0 3.763,-0.77343 5.00781,-2.32031 1.24477,-1.54687 1.86717,-3.89843 1.86719,-7.05469 -2e-5,-3.31249 -0.71356,-5.85415 -2.14063,-7.625 -1.15626,-1.42706 -2.93751,-2.1406 -5.34375,-2.14062 -2.25001,2e-5 -3.99219,0.74481 -5.22656,2.23437 -1.23438,1.4896 -1.85157,3.78127 -1.85156,6.875 -1e-5,2.22918 0.33853,4.1172 1.01562,5.66406 0.67708,1.54688 1.53906,2.66146 2.58594,3.34375 1.04686,0.6823 2.40884,1.02344 4.08594,1.02344 z"
         id="path4991"
         style="font-weight:bold;font-size:32px;-inkscape-font-specification:'Book Antiqua Bold';text-align:center;text-anchor:middle" />
      <path
         d="m 458.90906,681.38861 0.39062,0.35938 c -0.27085,0.52083 -0.51044,1.05208 -0.71875,1.59375 -1.20835,0.63541 -2.37241,1.08593 -3.49218,1.35156 -1.11981,0.26562 -2.40887,0.39844 -3.86719,0.39844 -2.72918,0 -5.03647,-0.47917 -6.92188,-1.4375 -1.88542,-0.95834 -3.33594,-2.30729 -4.35156,-4.04688 -1.01563,-1.73958 -1.52344,-3.73437 -1.52344,-5.98437 0,-3.23957 1.14844,-5.89322 3.44532,-7.96094 2.29686,-2.06769 5.46613,-3.10154 9.50781,-3.10156 1.34373,2e-5 2.67446,0.11981 3.99219,0.35937 1.31768,0.23961 2.62758,0.60419 3.92968,1.09375 l 0.10938,0.23438 c -0.18752,0.56252 -0.31773,1.10418 -0.39063,1.625 -0.13544,0.90626 -0.2396,2.03126 -0.3125,3.375 h -1.3125 c -0.0625,-1.64582 -0.12502,-2.54947 -0.1875,-2.71094 -0.0625,-0.16144 -0.34898,-0.43748 -0.85937,-0.82813 -0.51044,-0.3906 -1.20054,-0.70831 -2.07031,-0.95312 -0.86981,-0.24477 -1.83075,-0.36717 -2.88282,-0.36719 -2.50001,2e-5 -4.48699,0.77085 -5.96093,2.3125 -1.47397,1.54168 -2.21095,3.68752 -2.21094,6.4375 -1e-5,2.97918 0.88541,5.39063 2.65625,7.23438 1.6354,1.70833 3.88019,2.5625 6.73437,2.5625 1.10415,0 2.13801,-0.11459 3.10157,-0.34375 0.96352,-0.22917 2.02862,-0.63021 3.19531,-1.20313 z"
         id="path4993"
         style="font-weight:bold;font-size:32px;-inkscape-font-specification:'Book Antiqua Bold';text-align:center;text-anchor:middle" />
      <path
         d="m 461.39343,684.77924 v -1.3125 c 1.36458,-0.0625 2.13802,-0.15365 2.32032,-0.27344 0.18228,-0.11979 0.30468,-0.36719 0.36718,-0.74219 0.10417,-0.57291 0.15625,-2.01562 0.15625,-4.32812 l -0.0156,-8.54688 c -0.0104,-2.8854 -0.0625,-4.45831 -0.15625,-4.71875 -0.0521,-0.15623 -0.14063,-0.27602 -0.26563,-0.35937 -0.20833,-0.1354 -1.01042,-0.24478 -2.40625,-0.32813 v -1.3125 c 2.08333,0.0729 3.73437,0.1094 4.95313,0.10938 1.92707,2e-5 3.68749,-0.0364 5.28125,-0.10938 v 1.3125 c -1.28126,0.0833 -2.03647,0.1771 -2.26563,0.28125 -0.13542,0.0625 -0.23438,0.15627 -0.29687,0.28125 -0.10418,0.19794 -0.17709,0.8021 -0.21875,1.8125 -0.0625,1.50002 -0.0938,3.02085 -0.0937,4.5625 v 1.29688 c 1.08332,0.0521 2.80207,0.0781 5.15625,0.0781 2.09373,10e-6 3.6354,-0.026 4.625,-0.0781 0.0104,-3.38541 -0.0261,-5.6354 -0.10938,-6.75 -0.0417,-0.59373 -0.15106,-0.95832 -0.32812,-1.09375 -0.2396,-0.1979 -1.0521,-0.32811 -2.4375,-0.39063 v -1.3125 c 2.59373,0.0729 4.34894,0.1094 5.26562,0.10938 1.5729,2e-5 3.23435,-0.0364 4.98438,-0.10938 v 1.3125 c -1.33336,0.0833 -2.1094,0.18231 -2.32813,0.29688 -0.12502,0.0625 -0.21877,0.15627 -0.28125,0.28125 -0.0938,0.21877 -0.16148,1.06772 -0.20312,2.54687 -0.0729,2.27085 -0.1094,4.10939 -0.10938,5.51563 l 0.0937,7.09375 c 0.0208,1.60417 0.0677,2.52604 0.14063,2.76562 0.0729,0.23959 0.19268,0.40886 0.35937,0.50781 0.16665,0.099 0.94269,0.19532 2.32813,0.28907 v 1.3125 l -1.73438,-0.0469 c -1.3021,-0.0417 -2.32294,-0.0625 -3.0625,-0.0625 -1.54168,0 -3.35939,0.0365 -5.45312,0.10938 v -1.3125 c 1.39581,-0.0625 2.19008,-0.17448 2.38281,-0.33594 0.19269,-0.16146 0.30988,-0.58594 0.35156,-1.27344 0.0729,-1.17708 0.11978,-3.68749 0.14063,-7.53125 -1.16669,-0.0417 -2.46356,-0.0625 -3.89063,-0.0625 -2.23959,10e-6 -4.20313,0.0208 -5.89062,0.0625 v 1.03125 c -1e-5,2.72917 0.0365,4.77605 0.10937,6.14063 0.0521,0.91666 0.17708,1.45052 0.375,1.60156 0.19791,0.15104 0.99478,0.27344 2.39063,0.36719 v 1.3125 l -1.84375,-0.0469 c -1.16668,-0.0417 -2.20834,-0.0625 -3.125,-0.0625 z"
         id="path4995"
         style="font-weight:bold;font-size:32px;-inkscape-font-specification:'Book Antiqua Bold';text-align:center;text-anchor:middle" />
      <path
         d="m 487.97156,683.35736 c 0.97916,-0.0521 1.58333,-0.15104 1.8125,-0.29687 0.15624,-0.10417 0.40104,-0.5 0.73437,-1.1875 0.63542,-1.35417 1.44791,-3.23437 2.4375,-5.64063 l 5.53125,-13.54687 h 2.29688 l 7.0625,16.78125 c 0.91664,2.17708 1.48175,3.36979 1.69531,3.57812 0.21352,0.20834 0.87237,0.34896 1.97656,0.42188 v 1.3125 c -1.69794,-0.0729 -3.3021,-0.10938 -4.8125,-0.10938 -1.8021,0 -3.51564,0.0365 -5.14062,0.10938 v -1.3125 c 1.23957,-0.0521 1.95571,-0.1224 2.14844,-0.21094 0.19269,-0.0885 0.28904,-0.2474 0.28906,-0.47656 -2e-5,-0.19792 -0.21877,-0.875 -0.65625,-2.03125 l -1.03125,-2.67188 c -1.29168,-0.0208 -2.73439,-0.0312 -4.32813,-0.0312 -1.38542,1e-5 -2.64584,0.0104 -3.78125,0.0312 l -0.6875,1.79688 c -0.1875,0.48958 -0.41667,1.21875 -0.6875,2.1875 -0.0625,0.21875 -0.0937,0.41666 -0.0937,0.59375 0,0.23958 0.10156,0.40885 0.30469,0.50781 0.20312,0.099 0.93489,0.20052 2.19531,0.30469 v 1.3125 c -1.02084,-0.0729 -2.29167,-0.10938 -3.8125,-0.10938 -1.44792,0 -2.59896,0.0365 -3.45312,0.10938 z m 10.25,-15.14062 -3.29688,8.01562 c 0.95833,0.0521 2.01562,0.0781 3.17188,0.0781 1.20832,0 2.36457,-0.026 3.46875,-0.0781 z"
         id="path4997"
         style="font-weight:bold;font-size:32px;-inkscape-font-specification:'Book Antiqua Bold';text-align:center;text-anchor:middle" />
    </g>
    <g
       id="g1081">
      <path
         d="m 338.01453,241.17131 c 0.43295,1.665 0.85357,3.33172 1.2865,4.99656 l 0.90224,2.2509 0.14101,1.68402 c 1.18364,4.5521 4.48852,8.45752 5.66957,13.01022 l -1.76886,1.68923 2.31625,0.4526 c 0.94041,3.62598 1.89193,7.24988 2.83188,10.8758 l -0.54428,1.84685 1.41343,1.57574 c 1.06549,4.10992 2.12529,8.0046 3.19323,12.11398 l -1.06455,1.67655 1.88786,1.42202 c 0.45845,1.76368 0.92635,3.5258 1.38198,5.28976 l -0.86738,1.49892 1.69697,1.75085 c 0.004,0.0162 0.009,0.0329 0.0116,0.0494 0.92782,1.76101 0.66948,3.41786 1.35449,5.20622 l -1.59204,3.05886 c 0.57727,0.4158 1.3934,1.03051 2.34467,1.22062 1.37037,4.17813 2.78086,8.76749 3.43403,13.02548 l -1.06028,1.80676 1.72769,0.84679 c 0.27583,2.07323 0.5174,4.14281 0.77202,6.21794 0.53934,2.19698 0.8995,4.24629 1.13733,6.20285 l -1.27393,1.87695 1.5609,1.35689 c 0.22005,4.45142 -0.29194,8.33326 -1.12121,11.94596 l -4.14116,2.23008 3.22847,1.33895 c -0.6568,2.24943 -1.41539,4.42525 -2.14353,6.61636 l -1.40497,0.7228 2.52673,1.61909 c -0.85339,2.00675 -1.5045,4.73264 -2.28002,7.01121 l -5.89954,0.76863 2.08336,2.6554 c -0.0116,0.007 -0.0116,0.0208 -0.0218,0.0275 0.002,-0.51262 -13.4676,2.53037 -12.67155,-4.96273 l 2.05793,-0.30362 -1.06785,-3.29932 c 0.43784,-1.07485 1.02017,-2.25189 1.78728,-3.58988 0.2234,-0.38694 0.45037,-0.75795 0.67545,-1.1379 l 3.94981,-0.58887 -1.24778,-3.83639 c 0.99594,-1.60232 1.98624,-3.20388 2.97141,-4.86 l 2.19622,-0.31891 -1.18611,-3.69132 c 0.16257,-2.25938 0.22052,-4.61382 0.22594,-7.06243 l 1.61239,-2.68391 -1.7463,-3.22492 c -0.1071,-2.28871 -0.25628,-4.64659 -0.48829,-7.08468 l 1.08272,-1.1616 -1.87258,-3.0292 c -0.80573,-3.08337 -1.59633,-6.16904 -2.40327,-9.25246 l 1.19531,-1.90424 -2.11477,-1.61403 c -0.81725,-3.12482 -1.64385,-6.24779 -2.45918,-9.37284 l 1.15579,-1.39359 -1.78804,-1.11857 c -0.80704,-3.09236 -1.62803,-6.18203 -2.43655,-9.27407 l 1.68402,-2.05955 -2.67639,-1.6532 c -0.62645,-2.39469 -1.24588,-4.79002 -1.87283,-7.18469 l 1.11581,-2.07075 -2.1308,-1.74073 c -0.76885,-2.93588 -1.53224,-5.87222 -2.30145,-8.80805 l 1.52983,-1.86531 -2.41533,-1.50484 c -0.73917,-2.82101 -1.48265,-5.64151 -2.22222,-8.46242 l 1.41979,-1.72654 -2.24874,-1.39671 c -0.45362,-1.73012 -0.90579,-3.46088 -1.35941,-5.19101 l 1.55184,-1.89304 -2.44865,-1.52649 c -0.44944,-1.71357 -0.89868,-3.42806 -1.34812,-5.14162 2.85355,-0.31547 7.55724,-0.91854 10.41137,-1.23424 z"
         id="path5059"
         style="fill:#725544;fill-opacity:1;stroke:#000000;stroke-width:1.00095;stroke-miterlimit:4;stroke-dasharray:none;stroke-opacity:1"
         sodipodi:nodetypes="ccccccccccccccccccccccccccccccccccccccccccccccccccccccccccccccccccccccccccccc" />
      <g
         id="g1058"
         transform="matrix(0,-1.3019108,1.1141887,0,60.608468,712.61281)">
        <g
           transform="matrix(0.60694915,0,0,0.60694915,135.14457,96.635083)"
           style="stroke-width:0.7;stroke-miterlimit:4;stroke-dasharray:none"
           id="g1020">
          <path
             style="fill:#d45500;fill-opacity:1;stroke:#1f1a17;stroke-width:0.7;stroke-miterlimit:4;stroke-dasharray:none"
             id="path5063"
             d="m 343.01798,246.39375 c -0.3249,-2.04099 1.21837,-3.99363 3.43525,-4.34653 2.21689,-0.35289 4.28993,1.02408 4.61482,3.06507 0.32494,2.04126 -1.21808,3.99386 -3.43496,4.34675 -2.21688,0.3529 -4.29018,-1.02403 -4.61511,-3.06529 z" />
          <path
             style="fill:#d45500;fill-opacity:1;stroke:#1f1a17;stroke-width:0.7;stroke-miterlimit:4;stroke-dasharray:none"
             id="path5065"
             d="m 348.15375,250.94054 c -0.32486,-2.04072 1.21816,-3.99332 3.43504,-4.34622 2.21689,-0.35289 4.28992,1.02408 4.61478,3.06481 0.32494,2.04126 -1.21808,3.99385 -3.43496,4.34675 -2.21689,0.35289 -4.28993,-1.02408 -4.61486,-3.06534 z" />
          <path
             style="fill:#d45500;fill-opacity:1;stroke:#1f1a17;stroke-width:0.7;stroke-miterlimit:4;stroke-dasharray:none"
             id="path1006"
             d="m 338.42271,255.48434 c -0.32493,-2.04126 1.21783,-3.99382 3.43471,-4.34671 2.21689,-0.3529 4.29018,1.02403 4.61512,3.06529 0.3249,2.04099 -1.21838,3.99363 -3.43526,4.34653 -2.21688,0.35289 -4.28967,-1.02412 -4.61457,-3.06511 z" />
          <path
             d="m 348.7387,255.20553 c -0.32493,-2.04126 1.21783,-3.99382 3.43471,-4.34671 2.21689,-0.3529 4.29018,1.02403 4.61512,3.06529 0.3249,2.04099 -1.21838,3.99363 -3.43526,4.34653 -2.21688,0.35289 -4.28967,-1.02412 -4.61457,-3.06511 z"
             id="path1004"
             style="fill:#d45500;fill-opacity:1;stroke:#1f1a17;stroke-width:0.7;stroke-miterlimit:4;stroke-dasharray:none" />
          <path
             style="fill:#d45500;fill-opacity:1;stroke:#1f1a17;stroke-width:0.7;stroke-miterlimit:4;stroke-dasharray:none"
             id="path5067"
             d="m 341.89311,251.93715 c -0.32485,-2.04073 1.21816,-3.99333 3.4353,-4.34626 2.21689,-0.3529 4.28992,1.02407 4.61478,3.0648 0.32494,2.04126 -1.21808,3.99385 -3.43496,4.34675 -2.21714,0.35294 -4.29018,-1.02403 -4.61512,-3.06529 z" />
          <path
             style="fill:#d45500;fill-opacity:1;stroke:#1f1a17;stroke-width:0.7;stroke-miterlimit:4;stroke-dasharray:none"
             id="path1008"
             d="m 340.93201,262.03639 c -0.32493,-2.04126 1.21783,-3.99382 3.43471,-4.34671 2.21689,-0.3529 4.29018,1.02403 4.61512,3.06529 0.3249,2.04099 -1.21838,3.99363 -3.43526,4.34653 -2.21688,0.35289 -4.28967,-1.02412 -4.61457,-3.06511 z" />
          <path
             d="m 347.62346,261.33936 c -0.32493,-2.04126 1.21783,-3.99382 3.43471,-4.34671 2.21689,-0.3529 4.29018,1.02403 4.61512,3.06529 0.3249,2.04099 -1.21838,3.99363 -3.43526,4.34653 -2.21688,0.35289 -4.28967,-1.02412 -4.61457,-3.06511 z"
             id="path1010"
             style="fill:#d45500;fill-opacity:1;stroke:#1f1a17;stroke-width:0.7;stroke-miterlimit:4;stroke-dasharray:none" />
          <path
             style="fill:#d45500;fill-opacity:1;stroke:#1f1a17;stroke-width:0.7;stroke-miterlimit:4;stroke-dasharray:none"
             id="path5069"
             d="m 343.85952,257.43601 c -0.32493,-2.04126 1.21783,-3.99382 3.43471,-4.34671 2.21689,-0.3529 4.29018,1.02403 4.61512,3.06529 0.3249,2.04099 -1.21838,3.99363 -3.43526,4.34653 -2.21688,0.35289 -4.28967,-1.02412 -4.61457,-3.06511 z" />
        </g>
        <g
           id="g1038"
           style="stroke-width:0.7;stroke-miterlimit:4;stroke-dasharray:none"
           transform="matrix(0.60694915,0,0,-0.60694915,128.34624,406.66661)">
          <path
             d="m 343.01798,246.39375 c -0.3249,-2.04099 1.21837,-3.99363 3.43525,-4.34653 2.21689,-0.35289 4.28993,1.02408 4.61482,3.06507 0.32494,2.04126 -1.21808,3.99386 -3.43496,4.34675 -2.21688,0.3529 -4.29018,-1.02403 -4.61511,-3.06529 z"
             id="path1022"
             style="fill:#d45500;fill-opacity:1;stroke:#1f1a17;stroke-width:0.7;stroke-miterlimit:4;stroke-dasharray:none" />
          <path
             d="m 348.15375,250.94054 c -0.32486,-2.04072 1.21816,-3.99332 3.43504,-4.34622 2.21689,-0.35289 4.28992,1.02408 4.61478,3.06481 0.32494,2.04126 -1.21808,3.99385 -3.43496,4.34675 -2.21689,0.35289 -4.28993,-1.02408 -4.61486,-3.06534 z"
             id="path1024"
             style="fill:#d45500;fill-opacity:1;stroke:#1f1a17;stroke-width:0.7;stroke-miterlimit:4;stroke-dasharray:none" />
          <path
             d="m 338.42271,255.48434 c -0.32493,-2.04126 1.21783,-3.99382 3.43471,-4.34671 2.21689,-0.3529 4.29018,1.02403 4.61512,3.06529 0.3249,2.04099 -1.21838,3.99363 -3.43526,4.34653 -2.21688,0.35289 -4.28967,-1.02412 -4.61457,-3.06511 z"
             id="path1026"
             style="fill:#d45500;fill-opacity:1;stroke:#1f1a17;stroke-width:0.7;stroke-miterlimit:4;stroke-dasharray:none" />
          <path
             style="fill:#d45500;fill-opacity:1;stroke:#1f1a17;stroke-width:0.7;stroke-miterlimit:4;stroke-dasharray:none"
             id="path1028"
             d="m 348.7387,255.20553 c -0.32493,-2.04126 1.21783,-3.99382 3.43471,-4.34671 2.21689,-0.3529 4.29018,1.02403 4.61512,3.06529 0.3249,2.04099 -1.21838,3.99363 -3.43526,4.34653 -2.21688,0.35289 -4.28967,-1.02412 -4.61457,-3.06511 z" />
          <path
             d="m 341.89311,251.93715 c -0.32485,-2.04073 1.21816,-3.99333 3.4353,-4.34626 2.21689,-0.3529 4.28992,1.02407 4.61478,3.0648 0.32494,2.04126 -1.21808,3.99385 -3.43496,4.34675 -2.21714,0.35294 -4.29018,-1.02403 -4.61512,-3.06529 z"
             id="path1030"
             style="fill:#d45500;fill-opacity:1;stroke:#1f1a17;stroke-width:0.7;stroke-miterlimit:4;stroke-dasharray:none" />
          <path
             d="m 340.93201,262.03639 c -0.32493,-2.04126 1.21783,-3.99382 3.43471,-4.34671 2.21689,-0.3529 4.29018,1.02403 4.61512,3.06529 0.3249,2.04099 -1.21838,3.99363 -3.43526,4.34653 -2.21688,0.35289 -4.28967,-1.02412 -4.61457,-3.06511 z"
             id="path1032"
             style="fill:#d45500;fill-opacity:1;stroke:#1f1a17;stroke-width:0.7;stroke-miterlimit:4;stroke-dasharray:none" />
          <path
             style="fill:#d45500;fill-opacity:1;stroke:#1f1a17;stroke-width:0.7;stroke-miterlimit:4;stroke-dasharray:none"
             id="path1034"
             d="m 347.62346,261.33936 c -0.32493,-2.04126 1.21783,-3.99382 3.43471,-4.34671 2.21689,-0.3529 4.29018,1.02403 4.61512,3.06529 0.3249,2.04099 -1.21838,3.99363 -3.43526,4.34653 -2.21688,0.35289 -4.28967,-1.02412 -4.61457,-3.06511 z" />
          <path
             d="m 343.85952,257.43601 c -0.32493,-2.04126 1.21783,-3.99382 3.43471,-4.34671 2.21689,-0.3529 4.29018,1.02403 4.61512,3.06529 0.3249,2.04099 -1.21838,3.99363 -3.43526,4.34653 -2.21688,0.35289 -4.28967,-1.02412 -4.61457,-3.06511 z"
             id="path1036"
             style="fill:#d45500;fill-opacity:1;stroke:#1f1a17;stroke-width:0.7;stroke-miterlimit:4;stroke-dasharray:none" />
        </g>
      </g>
      <path
         d="m 350.02957,194.25273 c 2e-5,-2e-5 -4.2862,4.28614 -5.31293,5.8293 0,-1e-5 3.05547,-0.12248 5.26499,1.76797 1e-5,-1e-5 -5.79615,1.60236 -6.97981,2.82561 10e-6,-3e-5 5.08282,1.26506 5.96734,2.15909 2e-5,0 -6.88884,1.43546 -8.0227,2.30581 3e-5,0 4.38266,0.86318 5.86087,1.49023 1e-5,0 -7.28364,2.1945 -7.97701,3.16724 -0.72022,0.8045 6.4643,0.6855 6.4643,0.6855 2e-5,1e-5 -6.69898,3.13854 -7.31206,4.61589 l 4.84784,0.43989 c 3e-5,0 -5.88766,3.00116 -5.87287,5.75842 0,0 9.1388,-8.53131 14.35184,-11.08585 5.21303,-2.55462 13.48504,-6.45433 18.28721,-3.59687 4.77544,2.68933 10.2776,9.91311 10.64049,14.85708 0,0 -3.78734,-7.15756 -8.64308,-10.3515 l 5.73739,8.75662 -5.95706,-6.11557 c 2e-5,-1e-5 2.32763,3.27111 3.43459,5.92275 -0.98243,-1.44961 -7.10101,-10.39533 -8.15313,-10.86386 2e-5,-1e-5 4.16947,6.74118 4.93121,8.86209 3e-5,0 -7.71621,-9.12743 -8.85374,-8.94635 2e-5,-1e-5 5.2286,6.93227 6.151,10.0624 10e-6,0 -7.39401,-8.466 -10.50006,-8.66142 1e-5,-1e-5 5.12177,4.86468 6.06355,6.78444 l -6.10449,-5.7492 c 10e-6,-1e-5 3.51579,5.46727 3.93683,6.78007 10e-6,-2e-5 -4.50239,-6.34507 -7.34803,-6.23706 2e-5,-1e-5 3.7732,4.39558 4.45463,6.01184 2e-5,-1e-5 -5.79849,-5.11007 -7.29979,-5.21602 2e-5,0 3.52625,3.40617 4.51787,4.97305 2e-5,0 -4.89356,-3.36713 -6.00802,-3.70712 l 2.62422,4.56581 -3.99679,-3.13572 3.17541,3.28934 -0.10791,0.0402 c 0.31626,-0.0665 0.61921,-0.13319 0.9293,-0.19367 2.45781,-0.47924 4.70018,-0.76543 6.16572,-0.61573 5.28136,0.53905 18.62409,6.34723 23.81871,19.66313 2.85955,7.3061 1.1025,9.65445 1.1025,9.65445 10e-6,0 -2.01113,-10.02742 -3.98334,-11.09327 10e-6,0 2.05885,7.60502 1.52611,9.58702 l -2.09132,-6.38804 -0.41159,4.02036 c 2e-5,0 -1.24601,-6.51036 -2.18779,-8.43011 2e-5,1e-5 1.10812,8.27788 0.59472,9.04947 1e-5,0 -1.81365,-11.95853 -3.71663,-14.58764 3e-5,0 2.44659,6.6705 1.29707,9.4406 2e-5,-1e-5 -2.18499,-11.04317 -5.0953,-13.33947 2e-5,-1e-5 4.22959,9.16325 3.00344,12.11796 2e-5,0 -3.40715,-11.35991 -7.32848,-14.01269 1e-5,0 4.56167,6.69343 3.67622,10.45635 1e-5,-1e-5 -5.59745,-11.87977 -8.70715,-12.76451 2e-5,0 3.77253,5.0941 3.89443,8.52421 0,0 -4.81962,-8.37487 -6.73459,-8.415 l 3.00397,6.95143 c 2e-5,-1e-5 -4.51063,-6.36662 -5.70171,-6.52199 0,0 2.09079,3.13377 2.20161,4.49593 10e-6,0 -3.65251,-3.57304 -4.64046,-4.45061 l 1.40789,2.38197 c 0.91674,0.54184 2.03019,1.25631 3.23257,2.06864 3.01272,2.0354 6.62327,4.78974 9.51541,7.78944 5.10044,5.39712 12.44029,13.53528 13.56312,29.91404 10e-6,-10e-6 -1.94062,-8.14533 -2.66818,-8.71941 2e-5,-10e-6 0.80119,5.05767 0.28785,5.82929 1e-5,0 -1.146,-8.61067 -1.98067,-9.85756 10e-6,-1e-5 0.67481,6.95235 -0.0454,7.75688 1e-5,-2e-5 -1.60644,-11.46349 -2.2343,-12.74331 10e-6,-10e-6 0.64654,6.09654 0.21351,7.37276 2e-5,0 -3.3227,-12.92564 -4.8314,-14.41017 2e-5,-2e-5 2.83997,8.53056 3.1567,14.51674 1e-5,-2e-5 -2.23939,-7.39744 -2.84045,-8.5091 0,0 0.72937,4.53922 -0.40076,6.09893 10e-6,0 -0.90229,-8.99865 -1.76746,-11.1031 2e-5,-1e-5 -0.1189,3.29859 -0.41804,5.41587 0,0 -0.43758,-6.66597 -0.85862,-7.97875 1e-5,0 0.18632,4.3718 -0.89836,6.13242 0.40708,0.1399 0.70798,0.31987 0.81993,0.55529 l -5.38529,1.49736 7.38269,3.00823 -4.55845,0.0856 c 2e-5,-1e-5 6.75888,4.53018 7.6732,15.60375 0,-1e-5 -2.18155,-7.03213 -5.62902,-9.36824 2e-5,-2e-5 2.16165,8.79579 1.24001,11.66714 10e-6,-1e-5 -3.34396,-11.64852 -4.3378,-13.8944 10e-6,0 -0.17981,7.6304 0.25483,10.3609 -0.18964,-0.86419 -2.22437,-10.09597 -2.39073,-11.14105 10e-6,0 -1.32659,1.75881 -1.60244,3.43268 -0.12957,-2.59064 -0.65196,-8.76637 -1.1167,-9.74364 -0.61277,-1.18464 -0.37991,6.80429 -0.37991,6.80429 l -2.49237,-8.90742 -0.21812,8.53878 c 1e-5,-10e-6 -2.19274,-9.75373 -2.34204,-10.6916 -0.14404,-0.90504 -0.34465,4.4906 -0.4235,6.67406 0.46349,0.32459 0.85038,0.65682 1.09511,0.99155 2e-5,0 -0.65273,0.25747 -1.16136,0.4592 -10e-5,0.003 -0.005,0.11505 -0.005,0.11505 2e-5,-1e-5 -0.0173,-0.10899 -0.0177,-0.11148 -1.07705,0.42689 -2.4999,0.99231 -2.9176,1.05881 2e-5,-2e-5 4.71457,0.97457 5.44954,2.92732 10e-6,0 -2.37335,1.06767 -3.41119,0.54302 2e-5,-1e-5 3.45218,3.75065 4.815,6.98318 0,-2e-5 -3.113,-2.95228 -4.25424,-3.46051 2e-5,-2e-5 3.90368,5.23965 4.36627,9.47781 l -2.9773,-3.48091 c 0,-2e-5 3.57617,5.80691 3.92427,7.99367 l -3.25704,-3.80212 c 0,-2e-5 2.84682,11.28683 1.66681,13.19941 l -2.60822,-12.36374 c 2e-5,-2e-5 -1.65334,0.26211 -1.88508,10.13002 l 0.01,-12.57479 c 2e-5,-2e-5 -2.3058,3.46607 -1.74349,6.99848 0.53553,3.36425 -1.65565,-5.07825 0.6591,-12.51809 3e-5,-2e-5 -2.71778,6.5491 -3.16611,9.69386 0.14145,-1.63867 0.97925,-11.42481 1.53863,-14.02972 l -2.61892,8.96667 c -2e-5,-2e-5 -1.18198,-8.00176 0.80452,-12.60982 l -3.38024,6.48177 c -10e-6,0 0.18802,-6.5178 0.78305,-9.15449 l -1.68288,4.79424 c -2e-5,0 0.72934,-7.26068 1.60488,-9.87968 l -2.24727,5.84422 c -10e-6,0 -0.40203,-7.58983 -0.0907,-10.47848 l -0.92438,4.102 -0.35338,-7.53339 -1.07654,2.57171 c -10e-6,1e-5 -0.59745,-4.39185 -0.3177,-5.29875 0.27977,-0.9069 -0.76814,0.48804 -0.76814,0.48804 L 336.0137,232.009 c -2e-5,0 0.41022,5.97451 2.42767,10.6551 -1e-5,0 -2.31086,-1.76372 -3.10295,-3.55234 l 2.34938,8.15293 -3.34011,-3.60603 3.67036,7.69118 -4.7135,-5.62772 c -3e-5,2e-5 3.69532,8.5414 4.39612,8.94728 0.83093,0.55762 -3.5285,-2.20442 -3.5285,-2.20442 l 3.87458,7.68153 c -3e-5,0 -2.27692,-1.70603 -3.83518,-3.41292 1.41271,2.81539 3.45077,7.21272 4.0251,7.90904 -0.30222,-0.24336 -2.73905,-2.22567 -3.88894,-4.18161 0.89337,1.90096 3.33448,7.04808 4.2729,8.02961 -3e-5,-1e-5 -3.95132,-3.26965 -5.11639,-5.86077 0.66797,1.82878 4.24343,11.5189 5.61464,12.86817 -3e-5,-1e-5 -2.38477,-1.20563 -3.15759,-2.17202 0.60155,1.08835 4.66906,8.40072 6.21125,9.43558 -3e-5,0 -3.93252,-1.44227 -5.68588,-5.13002 -2e-5,-1e-5 2.06818,8.97739 4.8788,11.97945 -3e-5,-10e-6 -4.46631,-4.62447 -6.05071,-10.5813 -3e-5,-10e-6 -0.11742,9.15917 0.88901,13.48325 -10e-6,0 -3.36031,-13.78242 -2.94576,-18.50517 -10e-6,-2e-5 -1.38318,6.1697 -1.33689,9.26551 -0.30983,-2.53993 -1.46678,-12.54681 -0.54677,-16.64674 -0.42294,1.37948 -1.30586,4.49963 -1.53773,7.28577 0.0948,-3.32417 0.42254,-11.9156 1.35608,-15.46372 l -2.9194,8.94591 c -2e-5,-10e-6 1.06905,-10.42585 2.05032,-14.97987 l -1.64285,4.90217 c 0,0 0.50881,-8.87611 1.7959,-10.11583 1.28709,-1.23971 1.89793,-2.72532 1.89793,-2.72532 l -3.60603,3.34013 c 0,0 0.53505,-2.09459 1.24664,-4.51905 -3.10023,3.57547 -2.52512,9.84329 -2.5251,9.84328 -0.76991,-0.83907 -1.34475,-4.42659 -1.34475,-4.42658 -0.65328,1.22588 0.56631,8.87111 0.56634,8.8711 -0.7948,-0.9954 -1.49382,-5.36299 -1.49382,-5.36299 -0.19758,2.75609 1.17849,9.41374 1.17849,9.41375 -0.51718,0.0823 -2.48244,-5.68569 -2.48244,-5.68569 -0.50011,1.52206 0.65906,8.87921 0.65906,8.87921 -0.81968,-1.1517 -2.27259,-4.94184 -2.27259,-4.94184 -0.008,1.28345 1.01832,8.98204 1.01832,8.98204 -0.98065,-0.1644 -2.55633,-4.71379 -2.55633,-4.71379 -0.26448,1.00374 -0.5561,8.5697 -0.5561,8.56972 -2.25503,-11.50121 1.02991,-18.2616 2.32722,-23.43656 0.48751,-1.72187 1.83023,-3.17506 3.37587,-4.35507 -0.32685,-1.15463 -1.04462,-4.44856 0.21358,-8.42375 -3e-5,1e-5 -3.46024,9.0073 -3.42237,11.24344 0,-1e-5 -0.64735,-6.40695 -0.20806,-8.63096 -0.41582,1.33679 -2.89648,9.33304 -2.97791,11.88136 0,0 -0.75229,-6.33285 0.11866,-10.16888 -0.90519,2.90924 -2.86936,9.74787 -2.70664,13.87274 0,0 -0.86814,-8.07206 -0.75205,-11.90483 -0.41761,2.71803 -2.00122,13.05994 -2.12323,15.81445 0,0 -1.20702,-7.48409 -0.93023,-9.86475 -0.29231,1.29158 -1.80592,8.10039 -1.69242,11.19665 -0.17421,-1.40761 -0.92399,-7.68207 -0.67034,-10.38619 -0.47089,2.23167 -1.91207,9.26585 -1.72482,11.56758 -2e-5,10e-6 -0.66143,-6.43541 -0.39298,-8.21289 -0.22619,0.85442 -1.30143,5.09674 -1.28127,7.74788 l -0.35383,-6.96181 c 0,0 -1.2036,5.19216 -1.3781,7.28323 l -0.0354,-4.8179 c -3e-5,0 -1.36019,2.8089 -1.8233,4.19937 0.41955,-1.58146 2.93117,-10.93413 4.34495,-13.05912 1.13479,-1.60971 5.56827,-6.67453 9.07748,-10.0405 0.0536,-0.70292 0.38484,-4.60465 0.90235,-6.6817 -0.71335,1.88179 -2.06545,5.57649 -2.02068,6.83686 -3e-5,1e-5 -0.51338,-5.24523 -0.2956,-7.31398 -0.42087,1.80532 -1.78161,7.77742 -1.68394,9.52652 -2e-5,0 -0.90566,-6.80277 -0.71786,-8.96129 -0.23006,1.15219 -1.75804,8.83159 -1.60224,11.04514 0,0 -0.87864,-8.31235 -0.62566,-9.38745 0,0 -1.68278,7.09245 -1.32976,9.3101 -0.24359,-0.77425 -1.52396,-4.95826 -1.54623,-7.84643 -0.35831,2.11502 -0.72293,5.47966 -0.1102,8.49873 l -0.97786,-4.85075 c 0,0 -0.1497,4.13412 0.0933,6.04314 -0.33402,-1.31776 -1.01886,-3.81551 -1.01886,-3.81551 0,0 -0.43239,1.17004 -0.65748,2.6193 -0.0753,-2.85205 -0.0931,-6.75503 0.2799,-8.86866 -0.38492,1.59531 -2.35985,9.90236 -2.32216,12.55423 -0.012,2.58902 -0.65844,-2.84417 -0.65844,-2.84417 0,0 -0.56644,3.1912 -0.0577,6.38722 0,0 -1.69636,-6.32629 -1.0175,-11.13105 -0.55141,2.21641 -1.09248,5.38857 -0.74611,8.66855 l -1.13535,-3.11116 c 0,0 -0.42472,4.04164 0.0646,8.44804 0,-1e-5 -2.33627,-6.70502 -0.19422,-12.56514 -2e-5,0 -3.11648,5.66991 -2.02693,15.84484 l -1.44448,-9.07422 c 0,0 -1.13628,6.89591 -0.8879,9.78841 0,0 -2.50733,-13.04748 2.19692,-18.79803 3.68645,-4.34982 8.37574,-6.86117 12.47066,-8.11172 0.0935,-2.41778 2.19668,-5.0132 2.19668,-5.0132 -1.53054,1.04498 -5.36361,5.6545 -5.36362,5.65449 0.0654,-2.25422 1.97727,-4.95541 1.97727,-4.95541 -1.22413,1.63732 -5.53943,5.8425 -5.53943,5.8425 -0.13738,-0.86298 1.66269,-4.15831 2.76107,-6.06317 -0.38372,0.60554 -0.85253,1.32952 -1.95972,3.0552 -2.55556,3.93282 -2.9882,4.63627 -2.9882,4.63627 -0.39815,-2.501 3.04298,-9.60569 3.04298,-9.60569 -2.43262,0.70776 -6.78096,10.68079 -6.78096,10.68079 -0.68748,-1.65357 0.92047,-8.14766 0.92047,-8.14766 -1.65885,0.90518 -4.30616,10.28684 -4.30619,10.28684 -0.97676,-0.80619 0.89308,-8.46334 0.89308,-8.46334 -1.03824,0.80635 -3.84116,8.61259 -3.84116,8.61259 -0.88649,-2.90408 1.56702,-8.25058 1.56702,-8.25058 -1.37733,1.34118 -5.9006,7.02015 -5.9006,7.02015 5.28242,-14.78463 12.3882,-13.516 21.23372,-15.24463 8.99173,-0.94407 13.19891,1.78932 21.1592,5.099 l -0.99034,-1.04 c -1.11446,-0.34003 -2.76325,-1.27466 -2.76325,-1.27466 l -3.28215,-1.37494 c -0.26028,-0.30354 -2.37038,-0.8322 -3.25122,-1.03695 -0.98427,-0.18825 2.33408,-3.29768 3.78183,-3.52814 0,-1e-5 -5.24923,-1.06367 -8.10687,1.6334 0,0 3.06306,-4.12036 5.49138,-4.85185 0,0 -7.07503,2.15724 -8.69545,3.96741 -3e-5,0 0.98037,-3.0781 3.25175,-4.12957 -2e-5,1e-5 -4.58999,1.08213 -6.59361,3.81571 -2e-5,1e-5 2.82854,-5.01052 4.31011,-6.24117 -0.76758,0.45383 -5.19034,3.09235 -6.60008,5.21122 -3e-5,1e-5 1.01691,-2.56423 1.99811,-4.25005 -1.07317,0.90191 -2.37077,1.90904 -2.37077,1.90904 -2e-5,0 1.41963,-2.99845 2.42327,-4.02055 0,-1e-5 -5.95045,3.88398 -6.87005,6.10003 0,0 2.04362,-7.0543 3.10842,-8.90742 -0.76643,0.85454 -2.62899,2.97708 -3.10989,4.01554 0.15658,-0.42328 1.42365,-3.81125 1.95708,-4.22066 -10e-6,-2e-5 -4.20332,3.61831 -5.35652,5.69908 0,-1e-5 2.76393,-9.94761 8.48569,-9.30621 5.77166,0.28856 15.30462,5.51732 17.10048,7.47357 1.76907,1.78809 7.75199,5.48997 11.13597,14.0924 -2e-5,0 1.18234,-8.63857 2.63839,-12.14736 1.3794,-3.32407 4.4913,-15.02781 13.14369,-17.95737 z m -44.42887,48.0382 c 0.0484,1.83069 0.1204,3.34131 0.1204,3.34131 -0.34629,-1.0439 -0.28659,-2.27093 -0.1204,-3.34131 z m 53.20675,17.15671 c 0.0482,0.96407 0.0552,1.49581 -0.0258,0.98709 -0.0501,-0.31477 -0.0299,-0.64956 0.0258,-0.98709 z m 16.00146,-35.7633 c 0.0832,0.12274 0.35982,0.53709 0.35982,0.53709 1e-5,0 0.89838,3.64523 0.15971,1.00329 -0.0914,-0.4594 -0.29,-0.99056 -0.51953,-1.54038 z m -60.13966,-0.39376 c -1.38075,0.49554 -3.64465,4.85494 -4.28327,6.1226 0.63897,-0.18796 1.26525,-0.35184 1.86673,-0.48003 0.61149,-2.14989 2.41654,-5.64256 2.41654,-5.64256 z m 2.23517,0.3986 c -0.0364,-0.004 -0.089,0.0298 -0.14895,0.0694 -0.78766,0.25045 -3.12795,3.59748 -4.14957,5.09547 0.28001,-0.0553 0.55234,-0.1109 0.82138,-0.15373 0.56369,-0.0897 1.39302,-0.23741 2.09218,-0.35601 0.10919,-0.26189 1.9147,-4.59448 1.38496,-4.65538 z m 2.44749,0.2962 -3.76553,4.34852 c 1.31776,-0.22334 2.73095,-0.45065 4.34402,-0.71448 l -0.5785,-3.63416 z m 3.3596,0.42534 c -0.57988,0.0923 -2.4222,2.82118 -2.66961,3.19107 1.01629,-0.1657 1.99784,-0.33004 3.05445,-0.48624 0.0686,-1.04346 0.12735,-2.78637 -0.38489,-2.70482 z m 0.71928,2.6516 c 3.12918,-0.45575 0.0109,-0.16291 2.44695,-0.1839 -2.05535,-1.65057 -0.61133,-1.78505 -2.44695,0.1839 z m -2.88492,3.70541 c -0.55757,1.54035 -1.164,3.43398 -1.25472,4.61178 0.005,-0.004 0.0183,4.8e-4 0.0229,-0.004 0.066,-0.29354 0.57096,-2.53758 1.23245,-4.60824 z m 26.45743,0.33757 c -0.44328,0.0706 -1.88888,0.30068 -3.50038,0.55721 2.06805,0.63659 4.55398,1.36246 7.53767,2.11486 l -1.82503,1.89074 c 2e-5,-1e-5 5.36428,0.42575 6.75868,0.52434 0.0345,0.007 0.0474,0.0237 0.074,0.034 -0.15395,-0.49652 -1.75037,-5.58794 -2.58937,-5.78296 l 0.72047,4.52596 c 10e-6,0 -1.5976,-3.35357 -2.42857,-3.91115 l 0.053,2.91769 c 2e-5,0 -3.86972,-3.01879 -4.80043,-2.87064 z m -18.2267,5.98758 c -0.48887,1.12578 -2.13518,5.00419 -2.60182,7.63804 0.86077,-0.6302 1.75693,-1.19655 2.61759,-1.65114 -0.20112,-1.71765 -0.44392,-4.55047 -0.0158,-5.9869 z m 27.00936,-4.09376 c 2e-5,-1e-5 0.52083,2.14091 0.33626,3.26122 0.69065,0.48011 -3.38717,2.84808 -3.38717,2.84808 2e-5,0 6.27968,-0.49796 7.02469,0.18482 0.72013,0.52644 -4.81262,2.36632 -4.81262,2.36632 2e-5,0 4.03763,0.16455 6.72475,0.59832 -0.0141,-1.94387 -0.0552,-4.90006 -0.3015,-5.48421 l -1.23042,4.33359 c 10e-6,0 0.51928,-6.13041 -1.92015,-7.46686 l 0.24216,4.96787 c 1e-5,-1e-5 -0.90692,-3.82101 -2.676,-5.60915 z m -12.86234,2.77903 c -0.01,-0.0152 -0.0416,0.12512 -0.0912,0.28884 0.0244,-0.002 0.0421,-0.009 0.0669,-0.0106 8.6e-4,-0.006 -0.004,-0.0165 -0.004,-0.0224 0.0268,-0.16454 0.0356,-0.24398 0.0278,-0.25591 z m -1.4512,0.50533 c -0.0358,0.0159 -0.0726,0.0241 -0.10792,0.0401 -1e-5,1e-5 0.0998,-0.0144 0.11148,-0.0177 z m -34.18474,7.27054 c 0.15315,0.60625 0.25215,1.0166 0.11874,0.59833 -0.047,-0.14775 -0.0854,-0.36122 -0.11874,-0.59833 z m 23.60225,-3.09419 -0.97271,2.07511 c 0.14181,-0.0668 0.24878,-0.11451 0.38357,-0.17536 0.19254,-0.63425 0.38377,-1.27923 0.58914,-1.89975 z m 12.32126,-1.86993 c -0.35836,0.084 -0.68172,0.18634 -0.81529,0.33553 -10e-6,0 0.37329,0.0347 0.91211,0.12913 -0.0336,-0.16012 -0.0661,-0.31028 -0.0969,-0.46464 z m 2.04772,0.65703 c -0.005,0.0711 -0.0221,0.17797 -0.0278,0.25591 0.0238,0.007 0.0466,0.005 0.0704,0.0118 -0.018,-0.0981 -0.03,-0.17921 -0.0426,-0.26755 z m -1.36793,2.32091 c -0.16222,0.0262 -0.30986,0.0639 -0.41652,0.11204 -1e-5,0 0.29823,0.0963 0.4814,0.15197 -0.0231,-0.0943 -0.0413,-0.16781 -0.065,-0.26397 z m 1.18065,-0.0508 c -0.0296,0.30959 -0.0273,0.35273 -0.0567,0.64911 0.35698,0.12334 0.7314,0.25337 1.14016,0.41287 -0.11345,-0.34917 -0.24287,-0.66892 -0.34162,-0.99719 -0.25538,-0.0185 -0.50466,-0.0583 -0.74184,-0.0648 z m 18.00912,-2.61534 -0.91939,3.41538 c 0.41694,0.078 0.77365,0.16881 1.07073,0.2639 0.004,-1.53992 -0.0206,-3.1878 -0.15134,-3.67928 z m -14.73061,2.96213 c 0.0288,0.44213 0.0635,1.15244 0.10202,1.78972 0.0816,0.0472 0.15208,0.0984 0.22906,0.14642 -0.13842,-0.68176 -0.25827,-1.37878 -0.33118,-1.93613 z m 1.71484,1.0072 c -0.03,0.0754 -0.15557,0.92981 -0.2922,1.8982 0.009,0.014 0.0215,0.0269 0.0295,0.041 2e-5,0 -0.0216,0.004 -0.0224,0.004 -0.11686,0.82963 -0.19426,1.36861 -0.24661,1.75379 0.41413,0.19404 0.81269,0.39352 1.15335,0.63937 -0.29929,-1.85886 -0.56604,-3.5903 -0.61198,-4.13174 0.0139,-0.16249 -3.1e-4,-0.2276 -0.01,-0.20423 z m 14.47079,-1.43485 c 3e-5,0 -0.27187,2.77515 -0.90363,3.8015 l 1.11986,0.14178 -5.73691,1.87337 c 0,0 3.88562,-0.22747 5.94385,0.28828 4.3e-4,-1.21877 -0.0299,-4.73824 -0.42317,-6.10493 z m -18.54666,3.54673 c -0.49697,0.0629 -0.90712,0.14962 -1.10057,0.26664 0,0 1.07489,0.16416 2.36795,0.51461 -0.1152,-0.31298 -0.204,-0.53903 -0.32032,-0.86343 -0.32891,0.0227 -0.65803,0.0456 -0.94705,0.0822 z m 2.53613,-0.15226 c 0.0382,0.64749 0.043,0.73505 0.0792,1.35902 0.22926,0.0841 0.45805,0.15995 0.68105,0.25735 -0.0977,-0.39518 -0.20215,-0.75026 -0.39641,-1.62856 -0.10669,0.002 -0.24503,0.01 -0.36383,0.0122 z m 7.35702,-0.59962 7.30497,0.9403 c 0.005,-0.22458 0.0358,-0.92166 0.046,-1.72184 -0.38225,0.0959 -0.88303,0.1739 -1.44563,0.25309 l -0.11448,0.42971 c 2e-5,0 0.003,-0.36609 0.003,-0.41196 -2.40258,0.32853 -5.7938,0.51081 -5.7938,0.51081 z m -7.96373,4.39957 c -1.0105,0.13056 -1.84073,0.36217 -1.9356,0.76533 -3e-5,1e-5 3.32634,1.12648 5.4713,2.48952 -0.16712,-0.98749 -0.28856,-1.71759 -0.56897,-3.42992 -0.57722,0.003 -1.36021,0.0277 -2.13481,0.0883 0.0171,0.30095 0.0685,1.29214 0.0685,1.29214 2e-5,-1e-5 -0.23681,-0.58672 -0.49569,-1.247 -0.13332,0.0137 -0.27594,0.0249 -0.40488,0.0415 z m -18.0977,25.46693 c -0.0173,0.63409 -0.0368,1.49179 -0.0368,1.49179 -0.022,-0.47082 -10e-4,-0.96692 0.0368,-1.49179 z m 2.11745,9.42431 c 0.0272,0.2202 0.0903,0.85431 0.0903,0.85431 -0.0577,-0.2313 -0.0754,-0.52308 -0.0903,-0.85431 z"
         id="path5071"
         style="fill:#7f9e6a;fill-opacity:1;stroke:#000000;stroke-width:0.500001;stroke-miterlimit:4;stroke-dasharray:none" />
    </g>
    <g
       transform="matrix(-1,0,0,1,901.65696,0)"
       id="g1125">
      <path
         sodipodi:nodetypes="ccccccccccccccccccccccccccccccccccccccccccccccccccccccccccccccccccccccccccccc"
         style="fill:#725544;fill-opacity:1;stroke:#000000;stroke-width:1.00095;stroke-miterlimit:4;stroke-dasharray:none;stroke-opacity:1"
         id="path1083"
         d="m 338.01453,241.17131 c 0.43295,1.665 0.85357,3.33172 1.2865,4.99656 l 0.90224,2.2509 0.14101,1.68402 c 1.18364,4.5521 4.48852,8.45752 5.66957,13.01022 l -1.76886,1.68923 2.31625,0.4526 c 0.94041,3.62598 1.89193,7.24988 2.83188,10.8758 l -0.54428,1.84685 1.41343,1.57574 c 1.06549,4.10992 2.12529,8.0046 3.19323,12.11398 l -1.06455,1.67655 1.88786,1.42202 c 0.45845,1.76368 0.92635,3.5258 1.38198,5.28976 l -0.86738,1.49892 1.69697,1.75085 c 0.004,0.0162 0.009,0.0329 0.0116,0.0494 0.92782,1.76101 0.66948,3.41786 1.35449,5.20622 l -1.59204,3.05886 c 0.57727,0.4158 1.3934,1.03051 2.34467,1.22062 1.37037,4.17813 2.78086,8.76749 3.43403,13.02548 l -1.06028,1.80676 1.72769,0.84679 c 0.27583,2.07323 0.5174,4.14281 0.77202,6.21794 0.53934,2.19698 0.8995,4.24629 1.13733,6.20285 l -1.27393,1.87695 1.5609,1.35689 c 0.22005,4.45142 -0.29194,8.33326 -1.12121,11.94596 l -4.14116,2.23008 3.22847,1.33895 c -0.6568,2.24943 -1.41539,4.42525 -2.14353,6.61636 l -1.40497,0.7228 2.52673,1.61909 c -0.85339,2.00675 -1.5045,4.73264 -2.28002,7.01121 l -5.89954,0.76863 2.08336,2.6554 c -0.0116,0.007 -0.0116,0.0208 -0.0218,0.0275 0.002,-0.51262 -13.4676,2.53037 -12.67155,-4.96273 l 2.05793,-0.30362 -1.06785,-3.29932 c 0.43784,-1.07485 1.02017,-2.25189 1.78728,-3.58988 0.2234,-0.38694 0.45037,-0.75795 0.67545,-1.1379 l 3.94981,-0.58887 -1.24778,-3.83639 c 0.99594,-1.60232 1.98624,-3.20388 2.97141,-4.86 l 2.19622,-0.31891 -1.18611,-3.69132 c 0.16257,-2.25938 0.22052,-4.61382 0.22594,-7.06243 l 1.61239,-2.68391 -1.7463,-3.22492 c -0.1071,-2.28871 -0.25628,-4.64659 -0.48829,-7.08468 l 1.08272,-1.1616 -1.87258,-3.0292 c -0.80573,-3.08337 -1.59633,-6.16904 -2.40327,-9.25246 l 1.19531,-1.90424 -2.11477,-1.61403 c -0.81725,-3.12482 -1.64385,-6.24779 -2.45918,-9.37284 l 1.15579,-1.39359 -1.78804,-1.11857 c -0.80704,-3.09236 -1.62803,-6.18203 -2.43655,-9.27407 l 1.68402,-2.05955 -2.67639,-1.6532 c -0.62645,-2.39469 -1.24588,-4.79002 -1.87283,-7.18469 l 1.11581,-2.07075 -2.1308,-1.74073 c -0.76885,-2.93588 -1.53224,-5.87222 -2.30145,-8.80805 l 1.52983,-1.86531 -2.41533,-1.50484 c -0.73917,-2.82101 -1.48265,-5.64151 -2.22222,-8.46242 l 1.41979,-1.72654 -2.24874,-1.39671 c -0.45362,-1.73012 -0.90579,-3.46088 -1.35941,-5.19101 l 1.55184,-1.89304 -2.44865,-1.52649 c -0.44944,-1.71357 -0.89868,-3.42806 -1.34812,-5.14162 2.85355,-0.31547 7.55724,-0.91854 10.41137,-1.23424 z" />
      <g
         transform="matrix(0,-1.3019108,1.1141887,0,60.608468,712.61281)"
         id="g1121">
        <g
           id="g1101"
           style="stroke-width:0.7;stroke-miterlimit:4;stroke-dasharray:none"
           transform="matrix(0.60694915,0,0,0.60694915,135.14457,96.635083)">
          <path
             d="m 343.01798,246.39375 c -0.3249,-2.04099 1.21837,-3.99363 3.43525,-4.34653 2.21689,-0.35289 4.28993,1.02408 4.61482,3.06507 0.32494,2.04126 -1.21808,3.99386 -3.43496,4.34675 -2.21688,0.3529 -4.29018,-1.02403 -4.61511,-3.06529 z"
             id="path1085"
             style="fill:#d45500;fill-opacity:1;stroke:#1f1a17;stroke-width:0.7;stroke-miterlimit:4;stroke-dasharray:none" />
          <path
             d="m 348.15375,250.94054 c -0.32486,-2.04072 1.21816,-3.99332 3.43504,-4.34622 2.21689,-0.35289 4.28992,1.02408 4.61478,3.06481 0.32494,2.04126 -1.21808,3.99385 -3.43496,4.34675 -2.21689,0.35289 -4.28993,-1.02408 -4.61486,-3.06534 z"
             id="path1087"
             style="fill:#d45500;fill-opacity:1;stroke:#1f1a17;stroke-width:0.7;stroke-miterlimit:4;stroke-dasharray:none" />
          <path
             d="m 338.42271,255.48434 c -0.32493,-2.04126 1.21783,-3.99382 3.43471,-4.34671 2.21689,-0.3529 4.29018,1.02403 4.61512,3.06529 0.3249,2.04099 -1.21838,3.99363 -3.43526,4.34653 -2.21688,0.35289 -4.28967,-1.02412 -4.61457,-3.06511 z"
             id="path1089"
             style="fill:#d45500;fill-opacity:1;stroke:#1f1a17;stroke-width:0.7;stroke-miterlimit:4;stroke-dasharray:none" />
          <path
             style="fill:#d45500;fill-opacity:1;stroke:#1f1a17;stroke-width:0.7;stroke-miterlimit:4;stroke-dasharray:none"
             id="path1091"
             d="m 348.7387,255.20553 c -0.32493,-2.04126 1.21783,-3.99382 3.43471,-4.34671 2.21689,-0.3529 4.29018,1.02403 4.61512,3.06529 0.3249,2.04099 -1.21838,3.99363 -3.43526,4.34653 -2.21688,0.35289 -4.28967,-1.02412 -4.61457,-3.06511 z" />
          <path
             d="m 341.89311,251.93715 c -0.32485,-2.04073 1.21816,-3.99333 3.4353,-4.34626 2.21689,-0.3529 4.28992,1.02407 4.61478,3.0648 0.32494,2.04126 -1.21808,3.99385 -3.43496,4.34675 -2.21714,0.35294 -4.29018,-1.02403 -4.61512,-3.06529 z"
             id="path1093"
             style="fill:#d45500;fill-opacity:1;stroke:#1f1a17;stroke-width:0.7;stroke-miterlimit:4;stroke-dasharray:none" />
          <path
             d="m 340.93201,262.03639 c -0.32493,-2.04126 1.21783,-3.99382 3.43471,-4.34671 2.21689,-0.3529 4.29018,1.02403 4.61512,3.06529 0.3249,2.04099 -1.21838,3.99363 -3.43526,4.34653 -2.21688,0.35289 -4.28967,-1.02412 -4.61457,-3.06511 z"
             id="path1095"
             style="fill:#d45500;fill-opacity:1;stroke:#1f1a17;stroke-width:0.7;stroke-miterlimit:4;stroke-dasharray:none" />
          <path
             style="fill:#d45500;fill-opacity:1;stroke:#1f1a17;stroke-width:0.7;stroke-miterlimit:4;stroke-dasharray:none"
             id="path1097"
             d="m 347.62346,261.33936 c -0.32493,-2.04126 1.21783,-3.99382 3.43471,-4.34671 2.21689,-0.3529 4.29018,1.02403 4.61512,3.06529 0.3249,2.04099 -1.21838,3.99363 -3.43526,4.34653 -2.21688,0.35289 -4.28967,-1.02412 -4.61457,-3.06511 z" />
          <path
             d="m 343.85952,257.43601 c -0.32493,-2.04126 1.21783,-3.99382 3.43471,-4.34671 2.21689,-0.3529 4.29018,1.02403 4.61512,3.06529 0.3249,2.04099 -1.21838,3.99363 -3.43526,4.34653 -2.21688,0.35289 -4.28967,-1.02412 -4.61457,-3.06511 z"
             id="path1099"
             style="fill:#d45500;fill-opacity:1;stroke:#1f1a17;stroke-width:0.7;stroke-miterlimit:4;stroke-dasharray:none" />
        </g>
        <g
           transform="matrix(0.60694915,0,0,-0.60694915,128.34624,406.66661)"
           style="stroke-width:0.7;stroke-miterlimit:4;stroke-dasharray:none"
           id="g1119">
          <path
             style="fill:#d45500;fill-opacity:1;stroke:#1f1a17;stroke-width:0.7;stroke-miterlimit:4;stroke-dasharray:none"
             id="path1103"
             d="m 343.01798,246.39375 c -0.3249,-2.04099 1.21837,-3.99363 3.43525,-4.34653 2.21689,-0.35289 4.28993,1.02408 4.61482,3.06507 0.32494,2.04126 -1.21808,3.99386 -3.43496,4.34675 -2.21688,0.3529 -4.29018,-1.02403 -4.61511,-3.06529 z" />
          <path
             style="fill:#d45500;fill-opacity:1;stroke:#1f1a17;stroke-width:0.7;stroke-miterlimit:4;stroke-dasharray:none"
             id="path1105"
             d="m 348.15375,250.94054 c -0.32486,-2.04072 1.21816,-3.99332 3.43504,-4.34622 2.21689,-0.35289 4.28992,1.02408 4.61478,3.06481 0.32494,2.04126 -1.21808,3.99385 -3.43496,4.34675 -2.21689,0.35289 -4.28993,-1.02408 -4.61486,-3.06534 z" />
          <path
             style="fill:#d45500;fill-opacity:1;stroke:#1f1a17;stroke-width:0.7;stroke-miterlimit:4;stroke-dasharray:none"
             id="path1107"
             d="m 338.42271,255.48434 c -0.32493,-2.04126 1.21783,-3.99382 3.43471,-4.34671 2.21689,-0.3529 4.29018,1.02403 4.61512,3.06529 0.3249,2.04099 -1.21838,3.99363 -3.43526,4.34653 -2.21688,0.35289 -4.28967,-1.02412 -4.61457,-3.06511 z" />
          <path
             d="m 348.7387,255.20553 c -0.32493,-2.04126 1.21783,-3.99382 3.43471,-4.34671 2.21689,-0.3529 4.29018,1.02403 4.61512,3.06529 0.3249,2.04099 -1.21838,3.99363 -3.43526,4.34653 -2.21688,0.35289 -4.28967,-1.02412 -4.61457,-3.06511 z"
             id="path1109"
             style="fill:#d45500;fill-opacity:1;stroke:#1f1a17;stroke-width:0.7;stroke-miterlimit:4;stroke-dasharray:none" />
          <path
             style="fill:#d45500;fill-opacity:1;stroke:#1f1a17;stroke-width:0.7;stroke-miterlimit:4;stroke-dasharray:none"
             id="path1111"
             d="m 341.89311,251.93715 c -0.32485,-2.04073 1.21816,-3.99333 3.4353,-4.34626 2.21689,-0.3529 4.28992,1.02407 4.61478,3.0648 0.32494,2.04126 -1.21808,3.99385 -3.43496,4.34675 -2.21714,0.35294 -4.29018,-1.02403 -4.61512,-3.06529 z" />
          <path
             style="fill:#d45500;fill-opacity:1;stroke:#1f1a17;stroke-width:0.7;stroke-miterlimit:4;stroke-dasharray:none"
             id="path1113"
             d="m 340.93201,262.03639 c -0.32493,-2.04126 1.21783,-3.99382 3.43471,-4.34671 2.21689,-0.3529 4.29018,1.02403 4.61512,3.06529 0.3249,2.04099 -1.21838,3.99363 -3.43526,4.34653 -2.21688,0.35289 -4.28967,-1.02412 -4.61457,-3.06511 z" />
          <path
             d="m 347.62346,261.33936 c -0.32493,-2.04126 1.21783,-3.99382 3.43471,-4.34671 2.21689,-0.3529 4.29018,1.02403 4.61512,3.06529 0.3249,2.04099 -1.21838,3.99363 -3.43526,4.34653 -2.21688,0.35289 -4.28967,-1.02412 -4.61457,-3.06511 z"
             id="path1115"
             style="fill:#d45500;fill-opacity:1;stroke:#1f1a17;stroke-width:0.7;stroke-miterlimit:4;stroke-dasharray:none" />
          <path
             style="fill:#d45500;fill-opacity:1;stroke:#1f1a17;stroke-width:0.7;stroke-miterlimit:4;stroke-dasharray:none"
             id="path1117"
             d="m 343.85952,257.43601 c -0.32493,-2.04126 1.21783,-3.99382 3.43471,-4.34671 2.21689,-0.3529 4.29018,1.02403 4.61512,3.06529 0.3249,2.04099 -1.21838,3.99363 -3.43526,4.34653 -2.21688,0.35289 -4.28967,-1.02412 -4.61457,-3.06511 z" />
        </g>
      </g>
      <path
         style="fill:#7f9e6a;fill-opacity:1;stroke:#000000;stroke-width:0.500001;stroke-miterlimit:4;stroke-dasharray:none"
         id="path1123"
         d="m 350.02957,194.25273 c 2e-5,-2e-5 -4.2862,4.28614 -5.31293,5.8293 0,-1e-5 3.05547,-0.12248 5.26499,1.76797 1e-5,-1e-5 -5.79615,1.60236 -6.97981,2.82561 10e-6,-3e-5 5.08282,1.26506 5.96734,2.15909 2e-5,0 -6.88884,1.43546 -8.0227,2.30581 3e-5,0 4.38266,0.86318 5.86087,1.49023 1e-5,0 -7.28364,2.1945 -7.97701,3.16724 -0.72022,0.8045 6.4643,0.6855 6.4643,0.6855 2e-5,1e-5 -6.69898,3.13854 -7.31206,4.61589 l 4.84784,0.43989 c 3e-5,0 -5.88766,3.00116 -5.87287,5.75842 0,0 9.1388,-8.53131 14.35184,-11.08585 5.21303,-2.55462 13.48504,-6.45433 18.28721,-3.59687 4.77544,2.68933 10.2776,9.91311 10.64049,14.85708 0,0 -3.78734,-7.15756 -8.64308,-10.3515 l 5.73739,8.75662 -5.95706,-6.11557 c 2e-5,-1e-5 2.32763,3.27111 3.43459,5.92275 -0.98243,-1.44961 -7.10101,-10.39533 -8.15313,-10.86386 2e-5,-1e-5 4.16947,6.74118 4.93121,8.86209 3e-5,0 -7.71621,-9.12743 -8.85374,-8.94635 2e-5,-1e-5 5.2286,6.93227 6.151,10.0624 10e-6,0 -7.39401,-8.466 -10.50006,-8.66142 1e-5,-1e-5 5.12177,4.86468 6.06355,6.78444 l -6.10449,-5.7492 c 10e-6,-1e-5 3.51579,5.46727 3.93683,6.78007 10e-6,-2e-5 -4.50239,-6.34507 -7.34803,-6.23706 2e-5,-1e-5 3.7732,4.39558 4.45463,6.01184 2e-5,-1e-5 -5.79849,-5.11007 -7.29979,-5.21602 2e-5,0 3.52625,3.40617 4.51787,4.97305 2e-5,0 -4.89356,-3.36713 -6.00802,-3.70712 l 2.62422,4.56581 -3.99679,-3.13572 3.17541,3.28934 -0.10791,0.0402 c 0.31626,-0.0665 0.61921,-0.13319 0.9293,-0.19367 2.45781,-0.47924 4.70018,-0.76543 6.16572,-0.61573 5.28136,0.53905 18.62409,6.34723 23.81871,19.66313 2.85955,7.3061 1.1025,9.65445 1.1025,9.65445 10e-6,0 -2.01113,-10.02742 -3.98334,-11.09327 10e-6,0 2.05885,7.60502 1.52611,9.58702 l -2.09132,-6.38804 -0.41159,4.02036 c 2e-5,0 -1.24601,-6.51036 -2.18779,-8.43011 2e-5,1e-5 1.10812,8.27788 0.59472,9.04947 1e-5,0 -1.81365,-11.95853 -3.71663,-14.58764 3e-5,0 2.44659,6.6705 1.29707,9.4406 2e-5,-1e-5 -2.18499,-11.04317 -5.0953,-13.33947 2e-5,-1e-5 4.22959,9.16325 3.00344,12.11796 2e-5,0 -3.40715,-11.35991 -7.32848,-14.01269 1e-5,0 4.56167,6.69343 3.67622,10.45635 1e-5,-1e-5 -5.59745,-11.87977 -8.70715,-12.76451 2e-5,0 3.77253,5.0941 3.89443,8.52421 0,0 -4.81962,-8.37487 -6.73459,-8.415 l 3.00397,6.95143 c 2e-5,-1e-5 -4.51063,-6.36662 -5.70171,-6.52199 0,0 2.09079,3.13377 2.20161,4.49593 10e-6,0 -3.65251,-3.57304 -4.64046,-4.45061 l 1.40789,2.38197 c 0.91674,0.54184 2.03019,1.25631 3.23257,2.06864 3.01272,2.0354 6.62327,4.78974 9.51541,7.78944 5.10044,5.39712 12.44029,13.53528 13.56312,29.91404 10e-6,-10e-6 -1.94062,-8.14533 -2.66818,-8.71941 2e-5,-10e-6 0.80119,5.05767 0.28785,5.82929 1e-5,0 -1.146,-8.61067 -1.98067,-9.85756 10e-6,-1e-5 0.67481,6.95235 -0.0454,7.75688 1e-5,-2e-5 -1.60644,-11.46349 -2.2343,-12.74331 10e-6,-10e-6 0.64654,6.09654 0.21351,7.37276 2e-5,0 -3.3227,-12.92564 -4.8314,-14.41017 2e-5,-2e-5 2.83997,8.53056 3.1567,14.51674 1e-5,-2e-5 -2.23939,-7.39744 -2.84045,-8.5091 0,0 0.72937,4.53922 -0.40076,6.09893 10e-6,0 -0.90229,-8.99865 -1.76746,-11.1031 2e-5,-1e-5 -0.1189,3.29859 -0.41804,5.41587 0,0 -0.43758,-6.66597 -0.85862,-7.97875 1e-5,0 0.18632,4.3718 -0.89836,6.13242 0.40708,0.1399 0.70798,0.31987 0.81993,0.55529 l -5.38529,1.49736 7.38269,3.00823 -4.55845,0.0856 c 2e-5,-1e-5 6.75888,4.53018 7.6732,15.60375 0,-1e-5 -2.18155,-7.03213 -5.62902,-9.36824 2e-5,-2e-5 2.16165,8.79579 1.24001,11.66714 10e-6,-1e-5 -3.34396,-11.64852 -4.3378,-13.8944 10e-6,0 -0.17981,7.6304 0.25483,10.3609 -0.18964,-0.86419 -2.22437,-10.09597 -2.39073,-11.14105 10e-6,0 -1.32659,1.75881 -1.60244,3.43268 -0.12957,-2.59064 -0.65196,-8.76637 -1.1167,-9.74364 -0.61277,-1.18464 -0.37991,6.80429 -0.37991,6.80429 l -2.49237,-8.90742 -0.21812,8.53878 c 1e-5,-10e-6 -2.19274,-9.75373 -2.34204,-10.6916 -0.14404,-0.90504 -0.34465,4.4906 -0.4235,6.67406 0.46349,0.32459 0.85038,0.65682 1.09511,0.99155 2e-5,0 -0.65273,0.25747 -1.16136,0.4592 -10e-5,0.003 -0.005,0.11505 -0.005,0.11505 2e-5,-1e-5 -0.0173,-0.10899 -0.0177,-0.11148 -1.07705,0.42689 -2.4999,0.99231 -2.9176,1.05881 2e-5,-2e-5 4.71457,0.97457 5.44954,2.92732 10e-6,0 -2.37335,1.06767 -3.41119,0.54302 2e-5,-1e-5 3.45218,3.75065 4.815,6.98318 0,-2e-5 -3.113,-2.95228 -4.25424,-3.46051 2e-5,-2e-5 3.90368,5.23965 4.36627,9.47781 l -2.9773,-3.48091 c 0,-2e-5 3.57617,5.80691 3.92427,7.99367 l -3.25704,-3.80212 c 0,-2e-5 2.84682,11.28683 1.66681,13.19941 l -2.60822,-12.36374 c 2e-5,-2e-5 -1.65334,0.26211 -1.88508,10.13002 l 0.01,-12.57479 c 2e-5,-2e-5 -2.3058,3.46607 -1.74349,6.99848 0.53553,3.36425 -1.65565,-5.07825 0.6591,-12.51809 3e-5,-2e-5 -2.71778,6.5491 -3.16611,9.69386 0.14145,-1.63867 0.97925,-11.42481 1.53863,-14.02972 l -2.61892,8.96667 c -2e-5,-2e-5 -1.18198,-8.00176 0.80452,-12.60982 l -3.38024,6.48177 c -10e-6,0 0.18802,-6.5178 0.78305,-9.15449 l -1.68288,4.79424 c -2e-5,0 0.72934,-7.26068 1.60488,-9.87968 l -2.24727,5.84422 c -10e-6,0 -0.40203,-7.58983 -0.0907,-10.47848 l -0.92438,4.102 -0.35338,-7.53339 -1.07654,2.57171 c -10e-6,1e-5 -0.59745,-4.39185 -0.3177,-5.29875 0.27977,-0.9069 -0.76814,0.48804 -0.76814,0.48804 L 336.0137,232.009 c -2e-5,0 0.41022,5.97451 2.42767,10.6551 -1e-5,0 -2.31086,-1.76372 -3.10295,-3.55234 l 2.34938,8.15293 -3.34011,-3.60603 3.67036,7.69118 -4.7135,-5.62772 c -3e-5,2e-5 3.69532,8.5414 4.39612,8.94728 0.83093,0.55762 -3.5285,-2.20442 -3.5285,-2.20442 l 3.87458,7.68153 c -3e-5,0 -2.27692,-1.70603 -3.83518,-3.41292 1.41271,2.81539 3.45077,7.21272 4.0251,7.90904 -0.30222,-0.24336 -2.73905,-2.22567 -3.88894,-4.18161 0.89337,1.90096 3.33448,7.04808 4.2729,8.02961 -3e-5,-1e-5 -3.95132,-3.26965 -5.11639,-5.86077 0.66797,1.82878 4.24343,11.5189 5.61464,12.86817 -3e-5,-1e-5 -2.38477,-1.20563 -3.15759,-2.17202 0.60155,1.08835 4.66906,8.40072 6.21125,9.43558 -3e-5,0 -3.93252,-1.44227 -5.68588,-5.13002 -2e-5,-1e-5 2.06818,8.97739 4.8788,11.97945 -3e-5,-10e-6 -4.46631,-4.62447 -6.05071,-10.5813 -3e-5,-10e-6 -0.11742,9.15917 0.88901,13.48325 -10e-6,0 -3.36031,-13.78242 -2.94576,-18.50517 -10e-6,-2e-5 -1.38318,6.1697 -1.33689,9.26551 -0.30983,-2.53993 -1.46678,-12.54681 -0.54677,-16.64674 -0.42294,1.37948 -1.30586,4.49963 -1.53773,7.28577 0.0948,-3.32417 0.42254,-11.9156 1.35608,-15.46372 l -2.9194,8.94591 c -2e-5,-10e-6 1.06905,-10.42585 2.05032,-14.97987 l -1.64285,4.90217 c 0,0 0.50881,-8.87611 1.7959,-10.11583 1.28709,-1.23971 1.89793,-2.72532 1.89793,-2.72532 l -3.60603,3.34013 c 0,0 0.53505,-2.09459 1.24664,-4.51905 -3.10023,3.57547 -2.52512,9.84329 -2.5251,9.84328 -0.76991,-0.83907 -1.34475,-4.42659 -1.34475,-4.42658 -0.65328,1.22588 0.56631,8.87111 0.56634,8.8711 -0.7948,-0.9954 -1.49382,-5.36299 -1.49382,-5.36299 -0.19758,2.75609 1.17849,9.41374 1.17849,9.41375 -0.51718,0.0823 -2.48244,-5.68569 -2.48244,-5.68569 -0.50011,1.52206 0.65906,8.87921 0.65906,8.87921 -0.81968,-1.1517 -2.27259,-4.94184 -2.27259,-4.94184 -0.008,1.28345 1.01832,8.98204 1.01832,8.98204 -0.98065,-0.1644 -2.55633,-4.71379 -2.55633,-4.71379 -0.26448,1.00374 -0.5561,8.5697 -0.5561,8.56972 -2.25503,-11.50121 1.02991,-18.2616 2.32722,-23.43656 0.48751,-1.72187 1.83023,-3.17506 3.37587,-4.35507 -0.32685,-1.15463 -1.04462,-4.44856 0.21358,-8.42375 -3e-5,1e-5 -3.46024,9.0073 -3.42237,11.24344 0,-1e-5 -0.64735,-6.40695 -0.20806,-8.63096 -0.41582,1.33679 -2.89648,9.33304 -2.97791,11.88136 0,0 -0.75229,-6.33285 0.11866,-10.16888 -0.90519,2.90924 -2.86936,9.74787 -2.70664,13.87274 0,0 -0.86814,-8.07206 -0.75205,-11.90483 -0.41761,2.71803 -2.00122,13.05994 -2.12323,15.81445 0,0 -1.20702,-7.48409 -0.93023,-9.86475 -0.29231,1.29158 -1.80592,8.10039 -1.69242,11.19665 -0.17421,-1.40761 -0.92399,-7.68207 -0.67034,-10.38619 -0.47089,2.23167 -1.91207,9.26585 -1.72482,11.56758 -2e-5,10e-6 -0.66143,-6.43541 -0.39298,-8.21289 -0.22619,0.85442 -1.30143,5.09674 -1.28127,7.74788 l -0.35383,-6.96181 c 0,0 -1.2036,5.19216 -1.3781,7.28323 l -0.0354,-4.8179 c -3e-5,0 -1.36019,2.8089 -1.8233,4.19937 0.41955,-1.58146 2.93117,-10.93413 4.34495,-13.05912 1.13479,-1.60971 5.56827,-6.67453 9.07748,-10.0405 0.0536,-0.70292 0.38484,-4.60465 0.90235,-6.6817 -0.71335,1.88179 -2.06545,5.57649 -2.02068,6.83686 -3e-5,1e-5 -0.51338,-5.24523 -0.2956,-7.31398 -0.42087,1.80532 -1.78161,7.77742 -1.68394,9.52652 -2e-5,0 -0.90566,-6.80277 -0.71786,-8.96129 -0.23006,1.15219 -1.75804,8.83159 -1.60224,11.04514 0,0 -0.87864,-8.31235 -0.62566,-9.38745 0,0 -1.68278,7.09245 -1.32976,9.3101 -0.24359,-0.77425 -1.52396,-4.95826 -1.54623,-7.84643 -0.35831,2.11502 -0.72293,5.47966 -0.1102,8.49873 l -0.97786,-4.85075 c 0,0 -0.1497,4.13412 0.0933,6.04314 -0.33402,-1.31776 -1.01886,-3.81551 -1.01886,-3.81551 0,0 -0.43239,1.17004 -0.65748,2.6193 -0.0753,-2.85205 -0.0931,-6.75503 0.2799,-8.86866 -0.38492,1.59531 -2.35985,9.90236 -2.32216,12.55423 -0.012,2.58902 -0.65844,-2.84417 -0.65844,-2.84417 0,0 -0.56644,3.1912 -0.0577,6.38722 0,0 -1.69636,-6.32629 -1.0175,-11.13105 -0.55141,2.21641 -1.09248,5.38857 -0.74611,8.66855 l -1.13535,-3.11116 c 0,0 -0.42472,4.04164 0.0646,8.44804 0,-1e-5 -2.33627,-6.70502 -0.19422,-12.56514 -2e-5,0 -3.11648,5.66991 -2.02693,15.84484 l -1.44448,-9.07422 c 0,0 -1.13628,6.89591 -0.8879,9.78841 0,0 -2.50733,-13.04748 2.19692,-18.79803 3.68645,-4.34982 8.37574,-6.86117 12.47066,-8.11172 0.0935,-2.41778 2.19668,-5.0132 2.19668,-5.0132 -1.53054,1.04498 -5.36361,5.6545 -5.36362,5.65449 0.0654,-2.25422 1.97727,-4.95541 1.97727,-4.95541 -1.22413,1.63732 -5.53943,5.8425 -5.53943,5.8425 -0.13738,-0.86298 1.66269,-4.15831 2.76107,-6.06317 -0.38372,0.60554 -0.85253,1.32952 -1.95972,3.0552 -2.55556,3.93282 -2.9882,4.63627 -2.9882,4.63627 -0.39815,-2.501 3.04298,-9.60569 3.04298,-9.60569 -2.43262,0.70776 -6.78096,10.68079 -6.78096,10.68079 -0.68748,-1.65357 0.92047,-8.14766 0.92047,-8.14766 -1.65885,0.90518 -4.30616,10.28684 -4.30619,10.28684 -0.97676,-0.80619 0.89308,-8.46334 0.89308,-8.46334 -1.03824,0.80635 -3.84116,8.61259 -3.84116,8.61259 -0.88649,-2.90408 1.56702,-8.25058 1.56702,-8.25058 -1.37733,1.34118 -5.9006,7.02015 -5.9006,7.02015 5.28242,-14.78463 12.3882,-13.516 21.23372,-15.24463 8.99173,-0.94407 13.19891,1.78932 21.1592,5.099 l -0.99034,-1.04 c -1.11446,-0.34003 -2.76325,-1.27466 -2.76325,-1.27466 l -3.28215,-1.37494 c -0.26028,-0.30354 -2.37038,-0.8322 -3.25122,-1.03695 -0.98427,-0.18825 2.33408,-3.29768 3.78183,-3.52814 0,-1e-5 -5.24923,-1.06367 -8.10687,1.6334 0,0 3.06306,-4.12036 5.49138,-4.85185 0,0 -7.07503,2.15724 -8.69545,3.96741 -3e-5,0 0.98037,-3.0781 3.25175,-4.12957 -2e-5,1e-5 -4.58999,1.08213 -6.59361,3.81571 -2e-5,1e-5 2.82854,-5.01052 4.31011,-6.24117 -0.76758,0.45383 -5.19034,3.09235 -6.60008,5.21122 -3e-5,1e-5 1.01691,-2.56423 1.99811,-4.25005 -1.07317,0.90191 -2.37077,1.90904 -2.37077,1.90904 -2e-5,0 1.41963,-2.99845 2.42327,-4.02055 0,-1e-5 -5.95045,3.88398 -6.87005,6.10003 0,0 2.04362,-7.0543 3.10842,-8.90742 -0.76643,0.85454 -2.62899,2.97708 -3.10989,4.01554 0.15658,-0.42328 1.42365,-3.81125 1.95708,-4.22066 -10e-6,-2e-5 -4.20332,3.61831 -5.35652,5.69908 0,-1e-5 2.76393,-9.94761 8.48569,-9.30621 5.77166,0.28856 15.30462,5.51732 17.10048,7.47357 1.76907,1.78809 7.75199,5.48997 11.13597,14.0924 -2e-5,0 1.18234,-8.63857 2.63839,-12.14736 1.3794,-3.32407 4.4913,-15.02781 13.14369,-17.95737 z m -44.42887,48.0382 c 0.0484,1.83069 0.1204,3.34131 0.1204,3.34131 -0.34629,-1.0439 -0.28659,-2.27093 -0.1204,-3.34131 z m 53.20675,17.15671 c 0.0482,0.96407 0.0552,1.49581 -0.0258,0.98709 -0.0501,-0.31477 -0.0299,-0.64956 0.0258,-0.98709 z m 16.00146,-35.7633 c 0.0832,0.12274 0.35982,0.53709 0.35982,0.53709 1e-5,0 0.89838,3.64523 0.15971,1.00329 -0.0914,-0.4594 -0.29,-0.99056 -0.51953,-1.54038 z m -60.13966,-0.39376 c -1.38075,0.49554 -3.64465,4.85494 -4.28327,6.1226 0.63897,-0.18796 1.26525,-0.35184 1.86673,-0.48003 0.61149,-2.14989 2.41654,-5.64256 2.41654,-5.64256 z m 2.23517,0.3986 c -0.0364,-0.004 -0.089,0.0298 -0.14895,0.0694 -0.78766,0.25045 -3.12795,3.59748 -4.14957,5.09547 0.28001,-0.0553 0.55234,-0.1109 0.82138,-0.15373 0.56369,-0.0897 1.39302,-0.23741 2.09218,-0.35601 0.10919,-0.26189 1.9147,-4.59448 1.38496,-4.65538 z m 2.44749,0.2962 -3.76553,4.34852 c 1.31776,-0.22334 2.73095,-0.45065 4.34402,-0.71448 l -0.5785,-3.63416 z m 3.3596,0.42534 c -0.57988,0.0923 -2.4222,2.82118 -2.66961,3.19107 1.01629,-0.1657 1.99784,-0.33004 3.05445,-0.48624 0.0686,-1.04346 0.12735,-2.78637 -0.38489,-2.70482 z m 0.71928,2.6516 c 3.12918,-0.45575 0.0109,-0.16291 2.44695,-0.1839 -2.05535,-1.65057 -0.61133,-1.78505 -2.44695,0.1839 z m -2.88492,3.70541 c -0.55757,1.54035 -1.164,3.43398 -1.25472,4.61178 0.005,-0.004 0.0183,4.8e-4 0.0229,-0.004 0.066,-0.29354 0.57096,-2.53758 1.23245,-4.60824 z m 26.45743,0.33757 c -0.44328,0.0706 -1.88888,0.30068 -3.50038,0.55721 2.06805,0.63659 4.55398,1.36246 7.53767,2.11486 l -1.82503,1.89074 c 2e-5,-1e-5 5.36428,0.42575 6.75868,0.52434 0.0345,0.007 0.0474,0.0237 0.074,0.034 -0.15395,-0.49652 -1.75037,-5.58794 -2.58937,-5.78296 l 0.72047,4.52596 c 10e-6,0 -1.5976,-3.35357 -2.42857,-3.91115 l 0.053,2.91769 c 2e-5,0 -3.86972,-3.01879 -4.80043,-2.87064 z m -18.2267,5.98758 c -0.48887,1.12578 -2.13518,5.00419 -2.60182,7.63804 0.86077,-0.6302 1.75693,-1.19655 2.61759,-1.65114 -0.20112,-1.71765 -0.44392,-4.55047 -0.0158,-5.9869 z m 27.00936,-4.09376 c 2e-5,-1e-5 0.52083,2.14091 0.33626,3.26122 0.69065,0.48011 -3.38717,2.84808 -3.38717,2.84808 2e-5,0 6.27968,-0.49796 7.02469,0.18482 0.72013,0.52644 -4.81262,2.36632 -4.81262,2.36632 2e-5,0 4.03763,0.16455 6.72475,0.59832 -0.0141,-1.94387 -0.0552,-4.90006 -0.3015,-5.48421 l -1.23042,4.33359 c 10e-6,0 0.51928,-6.13041 -1.92015,-7.46686 l 0.24216,4.96787 c 1e-5,-1e-5 -0.90692,-3.82101 -2.676,-5.60915 z m -12.86234,2.77903 c -0.01,-0.0152 -0.0416,0.12512 -0.0912,0.28884 0.0244,-0.002 0.0421,-0.009 0.0669,-0.0106 8.6e-4,-0.006 -0.004,-0.0165 -0.004,-0.0224 0.0268,-0.16454 0.0356,-0.24398 0.0278,-0.25591 z m -1.4512,0.50533 c -0.0358,0.0159 -0.0726,0.0241 -0.10792,0.0401 -1e-5,1e-5 0.0998,-0.0144 0.11148,-0.0177 z m -34.18474,7.27054 c 0.15315,0.60625 0.25215,1.0166 0.11874,0.59833 -0.047,-0.14775 -0.0854,-0.36122 -0.11874,-0.59833 z m 23.60225,-3.09419 -0.97271,2.07511 c 0.14181,-0.0668 0.24878,-0.11451 0.38357,-0.17536 0.19254,-0.63425 0.38377,-1.27923 0.58914,-1.89975 z m 12.32126,-1.86993 c -0.35836,0.084 -0.68172,0.18634 -0.81529,0.33553 -10e-6,0 0.37329,0.0347 0.91211,0.12913 -0.0336,-0.16012 -0.0661,-0.31028 -0.0969,-0.46464 z m 2.04772,0.65703 c -0.005,0.0711 -0.0221,0.17797 -0.0278,0.25591 0.0238,0.007 0.0466,0.005 0.0704,0.0118 -0.018,-0.0981 -0.03,-0.17921 -0.0426,-0.26755 z m -1.36793,2.32091 c -0.16222,0.0262 -0.30986,0.0639 -0.41652,0.11204 -1e-5,0 0.29823,0.0963 0.4814,0.15197 -0.0231,-0.0943 -0.0413,-0.16781 -0.065,-0.26397 z m 1.18065,-0.0508 c -0.0296,0.30959 -0.0273,0.35273 -0.0567,0.64911 0.35698,0.12334 0.7314,0.25337 1.14016,0.41287 -0.11345,-0.34917 -0.24287,-0.66892 -0.34162,-0.99719 -0.25538,-0.0185 -0.50466,-0.0583 -0.74184,-0.0648 z m 18.00912,-2.61534 -0.91939,3.41538 c 0.41694,0.078 0.77365,0.16881 1.07073,0.2639 0.004,-1.53992 -0.0206,-3.1878 -0.15134,-3.67928 z m -14.73061,2.96213 c 0.0288,0.44213 0.0635,1.15244 0.10202,1.78972 0.0816,0.0472 0.15208,0.0984 0.22906,0.14642 -0.13842,-0.68176 -0.25827,-1.37878 -0.33118,-1.93613 z m 1.71484,1.0072 c -0.03,0.0754 -0.15557,0.92981 -0.2922,1.8982 0.009,0.014 0.0215,0.0269 0.0295,0.041 2e-5,0 -0.0216,0.004 -0.0224,0.004 -0.11686,0.82963 -0.19426,1.36861 -0.24661,1.75379 0.41413,0.19404 0.81269,0.39352 1.15335,0.63937 -0.29929,-1.85886 -0.56604,-3.5903 -0.61198,-4.13174 0.0139,-0.16249 -3.1e-4,-0.2276 -0.01,-0.20423 z m 14.47079,-1.43485 c 3e-5,0 -0.27187,2.77515 -0.90363,3.8015 l 1.11986,0.14178 -5.73691,1.87337 c 0,0 3.88562,-0.22747 5.94385,0.28828 4.3e-4,-1.21877 -0.0299,-4.73824 -0.42317,-6.10493 z m -18.54666,3.54673 c -0.49697,0.0629 -0.90712,0.14962 -1.10057,0.26664 0,0 1.07489,0.16416 2.36795,0.51461 -0.1152,-0.31298 -0.204,-0.53903 -0.32032,-0.86343 -0.32891,0.0227 -0.65803,0.0456 -0.94705,0.0822 z m 2.53613,-0.15226 c 0.0382,0.64749 0.043,0.73505 0.0792,1.35902 0.22926,0.0841 0.45805,0.15995 0.68105,0.25735 -0.0977,-0.39518 -0.20215,-0.75026 -0.39641,-1.62856 -0.10669,0.002 -0.24503,0.01 -0.36383,0.0122 z m 7.35702,-0.59962 7.30497,0.9403 c 0.005,-0.22458 0.0358,-0.92166 0.046,-1.72184 -0.38225,0.0959 -0.88303,0.1739 -1.44563,0.25309 l -0.11448,0.42971 c 2e-5,0 0.003,-0.36609 0.003,-0.41196 -2.40258,0.32853 -5.7938,0.51081 -5.7938,0.51081 z m -7.96373,4.39957 c -1.0105,0.13056 -1.84073,0.36217 -1.9356,0.76533 -3e-5,1e-5 3.32634,1.12648 5.4713,2.48952 -0.16712,-0.98749 -0.28856,-1.71759 -0.56897,-3.42992 -0.57722,0.003 -1.36021,0.0277 -2.13481,0.0883 0.0171,0.30095 0.0685,1.29214 0.0685,1.29214 2e-5,-1e-5 -0.23681,-0.58672 -0.49569,-1.247 -0.13332,0.0137 -0.27594,0.0249 -0.40488,0.0415 z m -18.0977,25.46693 c -0.0173,0.63409 -0.0368,1.49179 -0.0368,1.49179 -0.022,-0.47082 -10e-4,-0.96692 0.0368,-1.49179 z m 2.11745,9.42431 c 0.0272,0.2202 0.0903,0.85431 0.0903,0.85431 -0.0577,-0.2313 -0.0754,-0.52308 -0.0903,-0.85431 z" />
    </g>
  </g>
</svg>
