<?xml version="1.0" encoding="UTF-8"?>
<svg xmlns="http://www.w3.org/2000/svg" xmlns:xlink="http://www.w3.org/1999/xlink" width="900" height="600">
<rect width="900" height="600" fill="#5274b3"/>
<rect width="900" height="315.2" y="142.96" fill="#b43232"/>
<rect width="900" height="177.86" y="211.64" fill="#fff"/>
<g fill="#010101">
<path id="A" d="m29.608,269.55c1.9925-0.84427,4.0188-1.6548,6.1351-2.105,0.77674,2.4202,1.5085,4.8742,2.1951,7.3284,0.73171,2.2739,1.4746,4.5366,2.2064,6.8105,0.37148,1.1257,0.73171,2.2514,1.0807,3.3884,1.531,4.8405,3.1182,9.6698,4.6041,14.521,0.7092,2.2965,1.4634,4.5816,2.1726,6.878,0.49531,1.3959,0.95685,2.803,1.4296,4.2101,0.86679,2.105,1.8236,4.1651,2.803,6.2251,1.4409,0.49531,2.8818,1.0019,4.334,1.4746,0.05629,0.54033,0.1576,1.6098,0.21389,2.1389-6.5966-0.11262-13.205,0.23639-19.79-0.24766,0.97936-2.0712,3.3096-2.5779,5.0431-3.7711,0.14634-2.803-0.9681-5.4259-1.7786-8.0375-0.3152-1.1595-0.61914-2.3302-0.8893-3.4898-0.65291-1.5872-1.1144-3.2532-2.1051-4.6604-5.0656-0.18011-10.143-0.0337-15.209-0.0113-1.2158,3.0619-2.2514,6.1914-3.4109,9.2758-0.66416,2.6904-0.91182,5.4709-0.4728,8.2289,0.92307,0.12388,2.758,0.37149,3.6697,0.48405,0,0.56285,0.01125,1.6772,0.01125,2.2289-5.4034-0.0788-10.818,0.20262-16.21-0.25891,0.394-0.49532,1.182-1.486,1.576-1.9812,1.8461-0.48407,3.4559-1.486,4.6829-2.9494,0.4728-1.1144,0.9681-2.2176,1.4746-3.3209,1.9475-4.1201,3.6247-8.364,5.1445-12.664,0.5516-1.3734,1.0807-2.7468,1.621-4.1201,1.0469-3.0619,2.2064-6.0675,3.4446-9.0506,0.5516-1.6098,1.1257-3.2082,1.666-4.818,0.56285-1.3734,1.1032-2.7468,1.6548-4.1201,0.86679-2.5441,1.7899-5.0656,2.7018-7.5872m-0.58536,10.244c-1.0919,4.424-2.7468,8.6905-4.2664,12.99-0.48405,1.5648-0.8893,3.1408-1.2383,4.7392,4.3452,0.12387,8.7018,0.10137,13.048-0.0112-1.2383-6.1914-3.5348-12.101-5.1108-18.202-0.8105,0.1576-1.621,0.3152-2.4315,0.48405z"/>
<path id="Q" d="m80.601,269.6c8.7805-2.6679,19.284-1.2832,26.038,5.2795,10.199,8.9719,11.606,26.038,3.0844,36.596-3.5122,4.5479-8.9044,6.9569-14.127,8.9719,0.03378,0.45028,0.10131,1.3509,0.13509,1.8011,1.8124,0.92309,3.6135,1.8686,5.4146,2.8142,3.8274,2.3528,7.8574,4.3565,11.989,6.1239,1.9138,0.68668,3.8161,1.4296,5.7186,2.1839,1.5422,0.394,3.107,0.79925,4.6379,1.2608,3.4559,0.1125,6.9006,0.1125,10.356,0.1125,1.2158-0.27016,3.636-0.83301,4.8518-1.1032-2.3415,2.8368-6.3715,2.1614-9.6135,2.803-5.0881,1.1482-10.379,1.0356-15.512,0.21389-5.0656-1.4634-9.9962-3.3884-14.679-5.8311-1.1932-0.61914-2.3865-1.2383-3.5798-1.8461-4.03-2.4428-8.2626-4.5141-12.383-6.7768-5.3246-3.1858-11.471-5.5048-15.4-10.548-5.2795-6.3378-6.5179-15.254-4.818-23.134,1.9362-8.9381,9.1295-16.424,17.887-18.922m4.424,1.2945c-4.4802,1.8686-8.7355,4.8742-10.717,9.4559-3.3771,6.2251-3.1858,13.464-2.8142,20.319,0.49531,1.8461,0.90056,3.7261,1.2495,5.606,2.2064,5.7299,6.3602,10.706,12.315,12.686h7.2157c9.7261-2.8368,14.094-13.576,13.711-22.952,0.41651-8.409-2.1951-17.494-9.0056-22.896-1.6322-0.7092-3.2645-1.4296-4.8855-2.1614-2.3528-0.0675-4.7055-0.0675-7.0694-0.0563z"/>
<path id="U" d="m121.69,269.44c6.4952,0.0337,13.002,0.0225,19.498,0.0112-0.0112,0.49531-0.0337,1.4972-0.045,2.0038-1.576,0.4728-3.1408,1.0019-4.7055,1.5535-1.3396,4.1876-0.86679,8.6004-0.92308,12.922,0,6.8105-0.0113,13.621,0.0562,20.442,0.92308,2.713,1.621,5.6735,3.6135,7.8574,1.7674,1.7674,4.2101,2.5666,6.4278,3.636,3.0394-0.0113,6.0788-0.0337,9.1183-0.11263l-1.4184-0.33771c6.5065-0.79925,9.2645-7.4296,10.019-13.138-0.42778-10.402,1.1144-21.006-1.0356-31.272-1.5085-0.56285-3.0281-1.1032-4.5591-1.5872-0.0113-0.49531-0.0338-1.4746-0.045-1.97,5.0206,0.0113,10.052,0.0113,15.074,0-0.0675,0.48405-0.20262,1.4409-0.27016,1.925-1.4409,0.5516-2.848,1.137-4.2551,1.7449-0.36023,1.1932-0.74297,2.3752-1.1257,3.5685-0.81052,12.124,1.7449,24.799-2.5554,36.472-6.1351,10.109-20.15,9.8611-29.932,5.9212-2.3752-1.9812-4.334-4.3678-5.9662-6.9794-2.5104-12.068-0.88931-24.529-1.272-36.765-1.1707-2.2176-3.1182-3.7824-5.696-3.8836v-2.015z"/>
<path id="I" d="m177.52,270.12c7.3621-1.2832,14.971-0.67542,22.401-0.33771-0.58536,0.57411-1.182,1.1482-1.7674,1.7224-2.893,0.12388-5.4596,2.2514-5.1895,5.3134-0.045,12.462-0.13508,24.945,0.045,37.419,0.20263,2.7018,2.9156,3.5235,5.1108,4.1876,0.45029,0.38274,1.3396,1.1595,1.7899,1.5535-7.3396,0.75422-14.78,0.5741-22.142,0.10138,0.59662-0.58538,1.1932-1.1595,1.7899-1.7336,1.4296-0.48405,2.848-1.0019,4.2664-1.5085,1.3846-3.7599,0.84427-7.8011,0.92307-11.707-0.0788-9.8161,0.13508-19.632-0.09-29.449-0.19136-2.893-3.1295-3.7261-5.4821-4.2439v-0.81051l-1.6548-0.50656z"/>
<path id="N" d="m232.24,269.54c4.773-0.0112,9.5685-0.33771,14.33,0.10138,7.1932,8.409,12.878,18.09,20.589,26.038l-1.4296-0.34897c3.4559,2.848,5.0094,7.5648,8.9719,9.8161,0.21389-7.8912,0.0675-15.782,0.11262-23.662,0.11251-2.8368-0.59662-5.5722-1.2832-8.2852-1.3058-0.52908-2.6004-1.0694-3.9062-1.5648l-1.8236-1.8236c5.4259-0.63038,10.897-0.25891,16.345-0.36022,0,0.48405-0.0112,1.4634-0.0225,1.9475-1.4972,0.48406-2.9831,1.0131-4.4352,1.6098-0.28143,0.66416-0.84427,1.9812-1.137,2.6454-0.31519,15.456-0.38274,30.922-0.50657,46.39-3.3884-1.4972-5.0544-4.9756-7.3058-7.6885-2.6454-3.3659-5.2908-6.7318-7.9025-10.131-2.5779-3.4109-5.2345-6.7655-7.8799-10.131-2.5891-3.4221-5.2458-6.7992-7.9362-10.131-0.99063-1.3734-1.9925-2.7242-2.9606-4.1089-0.51782-0.12387-1.531-0.38273-2.0488-0.51782-0.10137,6.3378,0.22515,12.675,0.13509,19.002-0.0675,6.1914-0.12387,12.462,1.531,18.484,1.4521,0.5741,2.9269,1.1257,4.4128,1.6435,0.0112,0.4953,0.0337,1.4746,0.045,1.9588-5.2908-0.0337-10.57,0.045-15.861-0.0788,0.0337-0.46154,0.09-1.3846,0.12388-1.8574,2.409-0.24766,5.4371-1.3846,5.4259-4.2664,0.79925-12.821,0.3152-25.722,0.32645-38.555,0.3152-3.2195-3.287-3.9288-5.7411-4.2551-0.0337-0.46153-0.12388-1.3959-0.16885-1.8686z"/>
<use xlink:href="#A" x="282.574"/>
<path id="C" d="m355.78,271.52c7.9138-4.0075,17.156-3.8724,25.52-1.4071,1.9475,0.6304,3.9062,1.272,5.8649,1.9362,0.10138,3.7374,0.38275,7.4746,0.59663,11.212l-2.1726,0.13507c-1.137-4.4578-3.3434-9.1182-7.7899-11.088-3.4221-1.9475-7.4296-1.3959-11.19-1.3734-6.484,2.0038-11.628,7.2045-13.565,13.722-0.34896,1.5648-0.74296,3.1295-1.227,4.6716-0.2364,3.7711-0.19136,7.5535-0.0675,11.336,1.0356,3.107,1.925,6.2701,3.2982,9.2645,2.105,3.152,4.818,5.8086,8.0712,7.7786,3.4334,1.1257,7.0244,1.4634,10.638,1.3734,2.6679-0.96811,5.5385-1.8349,7.5872-3.9175,2.4428-2.3528,3.4898-5.696,4.6942-8.7805,0.50657-1.0807,1.0356-2.1501,1.576-3.2195,1.8349,3.8499-0.045,7.9812-0.48405,11.921-0.19137,2.0262-1.9138,3.0506-3.7035,3.5685-2.6229,0.72045-5.212,1.531-7.8349,2.2401-4.7168,0.81051-9.5122,0.69793-14.262,0.1576l0.77674-0.24765c-1.8912-0.52909-3.7261-1.137-5.561-1.7786-0.60788-0.3152-1.8349-0.94559-2.4428-1.2495-3.9175-2.5779-7.0356-6.1464-9.2308-10.278-3.1295-7.7786-3.6248-16.829,0.09-24.506,2.2289-4.908,6.2589-8.713,10.818-11.471z"/>
<use xlink:href="#I" x="217.42932"/>
<path id="O" d="m439.99,270.16c9.0619-3.0956,20.15-2.5216,27.445,4.2439,9.1408,7.5985,11.685,21.411,6.6191,32.038-0.30394,0.54033-0.91182,1.6322-1.2158,2.1839-6.4952,11.662-21.906,15.681-33.974,11.032-1.2383-0.64165-2.4765-1.2608-3.7149-1.8574-3.1408-2.2064-5.8424-4.9869-8.0825-8.0938-1.0807-2.7018-2.1614-5.4034-3.107-8.1501-1.1257-6.484-0.77673-13.452,2.4428-19.329,2.8818-5.5048,7.9588-9.5798,13.588-12.068m-4.2889,9.681c-3.9062,7.8574-3.6585,17.1-1.7674,25.475,1.1482,2.5666,2.4315,5.0769,3.7711,7.5422,2.3752,2.4878,5.0656,4.818,8.4652,5.7299,4.9756,1.4746,10.075-0.20262,14.172-3.107,3.546-3.8499,5.4371-8.7018,6.8555-13.655,0.28143-5.7861,0.24767-11.606-1.1482-17.258-2.1164-5.4484-5.3359-11.381-11.426-13.025-7.3396-2.6791-15.434,1.6885-18.922,8.2965z"/>
<path id="L" d="m510.06,269.44c6.9119,0.16886,13.858-0.32645,20.746,0.36023-0.56286,0.57411-1.1144,1.1482-1.666,1.7224-1.4184,0.4165-3.0394,0.50656-4.1088,1.6548-1.9138,3.1408-0.91183,6.9794-1.1482,10.458-0.20262,10.514,0.43903,21.085-0.31518,31.565,0.14634,0.27018,0.46154,0.83303,0.60787,1.1144l0.48405,0.34898c0.72045,0.27016,2.1614,0.83301,2.8818,1.1144,3.1295,0.10138,6.2701,0.0787,9.4109,0.0675,4.1764-1.4184,7.272-4.6604,8.6229-8.848,0.56285-0.0225,1.6998-0.0563,2.2739-0.0787-0.65291,2.8368-1.4634,5.6398-2.409,8.3978-0.14634,0.75423-0.42777,2.2852-0.5741,3.0394-11.595,0.13509-23.19,0-34.772,0.0787-0.0225-0.49531-0.045-1.4972-0.0675-1.9925,2.3752-0.45029,5.2682-1.3059,5.5948-4.1314,0.14635-12.911,0.14635-25.835,0-38.746-0.32645-2.8255-3.2082-3.6585-5.561-4.1201v-2.0038z"/>
<use xlink:href="#A" x="542.6"/>
<path id="P" d="m628.28,271.3c0.38274-0.46154,1.137-1.3959,1.5198-1.8686,9.591,0.49531,19.396-1.1144,28.806,1.3509,8.6791,4.469,9.2195,17.246,2.5329,23.651-2.3415,2.1164-5.3359,3.2308-8.2626,4.2439-1.7449,0.12387-3.4784,0.24766-5.2008,0.36022-0.09-0.55159-0.27016-1.6548-0.36023-2.2064,4.3115-1.0919,7.7224-4.1201,9.0844-8.3752,0-2.803,0-5.6172,0.0113-8.4202-1.2832-2.5666-2.2514-5.7299-5.0881-7.0019-2.4428-1.4521-5.3696-0.92307-8.0487-1.0244-0.0788,14.105-0.1576,28.21,0.0225,42.304,0.394,3.1295,3.7149,3.8386,6.3265,4.1651,0.0113,0.4728,0.045,1.4071,0.0562,1.8799-7.2607-0.2364-14.679,0.83303-21.839-0.64165l1.7899-0.55158-0.30394-0.77674c3.0169,0,5.9212-1.9925,5.651-5.2682,0.0563-12.529,0.13509-25.059-0.0337-37.576-0.45029-3.2758-3.9962-3.8274-6.6641-4.2439z"/>
<use xlink:href="#A" x="664.188"/>
<path id="T" d="m722.59,274.82c0.79925-2.015,0.60788-5.0544,2.2289-6.3828,6.9681,1.5872,14.128,0.85554,21.209,1.0131,6.349-0.0337,12.776,0.39399,18.99-1.2608-1.0356,3.8161-2.0037,7.6548-2.7917,11.538-0.52909,0.0563-1.5873,0.18011-2.1164,0.2364-0.0788-2.3978-0.29269-4.7955-1.0356-7.0806-3.985-1.2945-8.3528-1.2383-12.338-0.045,0.1576,13.812-0.12387,27.636,0.12388,41.438,0.24765,2.6791,2.9042,3.4109,5.0544,4.1539,0.4728,0.37147,1.3959,1.1032,1.8574,1.4634-7.3621,0.90057-14.87,0.67543-22.244,0.11263,0.61913-0.54034,1.2383-1.0694,1.8686-1.5985,2.7468-0.47279,5.4709-2.2401,5.1558-5.3809-0.0337-13.599,0.30394-27.22-0.18011-40.806-2.7692-0.33771-5.5385-0.21388-8.3078-0.2364-4.5816,1.2158-4.6942,7.1145-9.0056,8.3528,0.49532-1.8349,0.96812-3.6922,1.531-5.516z"/>
<path id="R" d="m770.24,269.41c8.015,0.13509,16.041-0.0787,24.068,0.09,5.1782,0.22514,10.098,2.9269,12.709,7.4521,0.51783,2.6341,0.58538,5.3134,0.37149,7.9812-1.6885,4.6266-5.5385,7.6885-9.7149,9.985,1.5535,4.3678,4.9194,7.7561,7.3846,11.628,2.9944,4.0862,5.3584,9.0281,10.131,11.381-0.12387,1.0469-0.21388,2.0938-0.30393,3.152-2.893-0.99062-5.9888-0.4728-8.9156-1.1707-2.1951-0.82176-3.4559-2.9155-4.7505-4.7168-4.0525-6.1351-8.0375-12.315-12.169-18.394-1.6998,0-3.3996,0-5.0769,0.0113-0.0225,5.8199-0.19136,11.651,0.0337,17.471,0.32645,3.0731,3.6022,3.7599,6.1012,4.2551,0.0675,0.42776,0.18011,1.272,0.24765,1.6885-6.743,0.36022-13.498,0.10137-20.251,0.20262,0-0.49531-0.0225-1.4859-0.0225-1.9812,2.2739-0.56285,5.4034-1.2945,5.5722-4.1764,0.14635-12.911,0.13509-25.835,0.0113-38.746-0.40525-2.848-3.3209-3.6585-5.7186-4.1314,0.0788-0.4953,0.21388-1.4859,0.29268-1.9812m13.779,2.6791c-0.1576,7.4972-0.13508,14.995-0.0225,22.491,2.0488-0.12388,4.0975-0.27018,6.1576-0.45029,1.5648-0.78799,3.152-1.5422,4.7618-2.2739,1.1932-1.7899,2.3302-3.6135,3.3209-5.5272,0-2.2965,0.0113-4.5929,0.0675-6.8892l-0.36022,0.30393c-0.34898-3.8386-3.501-6.1464-6.6416-7.7449-2.4428,0.0113-4.8742,0.0337-7.2832,0.09z"/>
<use xlink:href="#I" x="638.52133"/>
<use xlink:href="#A" x="835.317"/>
</g>
</svg>
