<?xml version="1.0" encoding="UTF-8" standalone="no"?>
<svg
   xmlns:dc="http://purl.org/dc/elements/1.1/"
   xmlns:cc="http://creativecommons.org/ns#"
   xmlns:rdf="http://www.w3.org/1999/02/22-rdf-syntax-ns#"
   xmlns:svg="http://www.w3.org/2000/svg"
   xmlns="http://www.w3.org/2000/svg"
   xmlns:xlink="http://www.w3.org/1999/xlink"
   xmlns:sodipodi="http://sodipodi.sourceforge.net/DTD/sodipodi-0.dtd"
   xmlns:inkscape="http://www.inkscape.org/namespaces/inkscape"
   inkscape:version="1.0 (4035a4fb49, 2020-05-01)"
   sodipodi:docname="Flag_of_Treinta_y_Tres_Department (1).svg"
   id="svg2"
   height="500"
   width="750"
   version="1.0">
  <metadata
     id="metadata867">
    <rdf:RDF>
      <cc:Work
         rdf:about="">
        <dc:format>image/svg+xml</dc:format>
        <dc:type
           rdf:resource="http://purl.org/dc/dcmitype/StillImage" />
      </cc:Work>
    </rdf:RDF>
  </metadata>
  <sodipodi:namedview
     inkscape:current-layer="svg2"
     inkscape:window-maximized="1"
     inkscape:window-y="-8"
     inkscape:window-x="-8"
     inkscape:cy="415.69627"
     inkscape:cx="316.64534"
     inkscape:zoom="0.5"
     inkscape:guide-bbox="true"
     showguides="true"
     showgrid="false"
     id="namedview865"
     inkscape:window-height="705"
     inkscape:window-width="1366"
     inkscape:pageshadow="2"
     inkscape:pageopacity="0"
     guidetolerance="10"
     gridtolerance="10"
     objecttolerance="10"
     borderopacity="1"
     bordercolor="#666666"
     pagecolor="#ffffff" />
  <defs
     id="defs4" />
  <g
     id="layer2" />
  <g
     id="g1537">
    <rect
       width="750"
       height="500"
       x="0"
       y="0"
       id="rect2385"
       style="fill:#ffffff;fill-opacity:1;fill-rule:nonzero;stroke:none;stroke-width:11.76461315;stroke-linecap:round;stroke-linejoin:miter;stroke-miterlimit:4;stroke-dasharray:none;stroke-dashoffset:0;stroke-opacity:1" />
    <g
       id="g1512">
      <path
         sodipodi:nodetypes="cccccccccccccccc"
         style="fill:#e4bc00;fill-opacity:1;fill-rule:nonzero;stroke:none;stroke-width:0.995;stroke-linecap:round;stroke-linejoin:miter;stroke-miterlimit:4;stroke-dashoffset:0;stroke-opacity:1;stroke-dasharray:none"
         id="path3540"
         d="M 375,0.16660324 V 104.03449 v 209.8 185.99891 l 43.83209,-76.15727 c 38.27653,17.57471 51.30794,60.10924 97.24049,45.53151 -37.11162,-19.08062 -11.0803,-55.54923 -24.01034,-94.47859 h 98.48194 l -45.56592,-79.2732 c 53.03882,-21.20065 76.67491,11.09537 101.39078,-45.5184 -59.00315,2.07684 -34.19046,-16.18137 -100.4819,-43.51673 l 44.65704,-81.14977 h -98.48194 c 12.92461,-39.302439 32.78138,-67.001269 3.14868,-107.402079 -10.4742,42.184777 -38.1249,40.136345 -76.6594,57.954593 z" />
      <g
         id="g1504">
        <path
           d="M -2.96441,419.66158 C 29.742066,405.02002 64.618154,407.61555 91.52669,419.66158 C 118.67117,431.81323 155.18333,433.4651 186.0178,419.66158 C 217.37152,405.62559 251.6077,406.72352 280.50889,419.66158 C 309.41009,432.59965 347.03195,432.18192 375,419.66158 L 375,489.40981 C 343.99438,503.28995 312.58271,503.76815 280.50889,489.40981 C 248.95187,475.28283 215.95979,476.00583 186.0178,489.40981 C 155.26592,503.17637 122.53665,503.29191 91.52669,489.40981 C 61.040837,475.76235 26.305512,476.30667 -2.96441,489.40981 L -2.96441,419.66158 z"
           id="rect3212"
           style="fill:#0f47af;fill-opacity:1;fill-rule:nonzero;stroke:none;stroke-width:0.87190795;stroke-linecap:round;stroke-linejoin:miter;stroke-miterlimit:4;stroke-dashoffset:0;stroke-opacity:1" />
        <use
           transform="translate(0,-273.02807)"
           id="use3180"
           x="0"
           y="0"
           width="750"
           height="500"
           xlink:href="#rect3212" />
        <use
           transform="translate(0,136.51403)"
           id="use3182"
           x="0"
           y="0"
           width="750"
           height="500"
           xlink:href="#use3180" />
        <use
           transform="translate(0,-273.02806)"
           id="use3184"
           x="0"
           y="0"
           width="750"
           height="500"
           xlink:href="#use3182" />
      </g>
    </g>
    <g
       id="g1520">
      <path
         d="m 500.5097,250 c 0,68.86458 -56.19261,124.69037 -125.50969,124.69037 -69.31709,0 -125.50971,-55.82579 -125.50971,-124.69037 0,-68.86459 56.19262,-124.69037 125.50971,-124.69037 69.31708,0 125.50969,55.82578 125.50969,124.69037 z"
         id="path3232"
         style="fill:#ffffff;fill-opacity:1;fill-rule:evenodd;stroke:none;stroke-width:1px;stroke-linecap:butt;stroke-linejoin:miter;stroke-opacity:1" />
      <g
         id="g1498">
        <g
           id="g1486"
           transform="translate(-2.63)">
          <path
             d="m 376.68845,350.12291 c -0.0348,-4.79623 -0.13584,-14.75402 0.0499,-21.7165 0.18571,-6.96249 -0.49802,-11.67967 -0.48406,-18.63845 0.014,-6.95878 0.61215,-13.28483 0.4996,-18.13245 -0.11253,-4.84762 -0.90105,-8.18214 -1.09478,-8.81115 -1.88237,-6.11166 -4.44071,-11.97145 -6.23441,-16.46248 l -1.81137,-5.42707 0.13772,13.57681 3.12168,6.421 -4.74558,-6.66797 -1.89823,-7.90277 -0.71184,9.87847 -2.61007,-6.17404 3.32191,14.8177 -6.16925,-16.54643 4.27103,18.76907 -11.1521,-20.74477 7.83017,20.99173 -5.69468,-7.16187 4.27103,9.38452 -9.25387,-10.37237 6.88109,12.10111 -14.23673,-15.06465 13.52488,18.76907 -7.11838,-4.93922 5.69469,6.91491 -14.47399,-10.61934 14.47399,13.08897 -22.3042,-12.10113 21.11781,14.07681 -11.38938,-3.21049 9.49115,5.18619 -16.60951,-3.70443 13.28762,6.421 -18.98231,-2.46961 17.08408,4.44531 -13.2876,0.98784 13.52488,1.97569 -19.69415,2.46962 22.06692,1.2348 -13.76217,3.70443 15.66041,-1.72874 -9.49115,4.93924 10.44026,-2.96354 -14.23673,7.90277 14.47402,-5.43315 -17.79592,13.82984 24.43972,-14.32377 -11.86394,11.85415 15.18584,-10.61935 -20.40597,24.20223 20.1687,-19.26299 -12.33851,16.79339 13.05034,-13.82985 -13.28762,21.23869 14.474,-19.263 -5.4574,13.08896 7.59292,-12.59504 -5.93196,17.78123 7.11836,-14.57073 -5.22013,22.22654 5.22013,-17.2873 0.94911,11.60719 2.61006,-12.10113 2.54757,10.99739 1.82413,-12.93792 z"
             id="path3634"
             style="fill:#da121a;fill-opacity:1;fill-rule:evenodd;stroke:#da121a;stroke-width:1.7;stroke-linecap:square;stroke-linejoin:miter;stroke-miterlimit:4;stroke-dasharray:none;stroke-opacity:1;paint-order:fill markers stroke"
             sodipodi:nodetypes="csssscccccccccccccccccccccccccccccccccccccccccccccccccccccccccccccc" />
          <path
             d="m 435.95903,190.6519 -4.56707,6.63378 c 16.02116,21.94463 22.57694,44.79767 16.81942,64.89841 -6.65019,4.43212 -19.5829,6.55312 -18.64625,2.81623 0.16983,-0.67762 2.13078,-11.69304 -0.18899,-15.86475 -4.51814,-8.12509 -22.71591,-10.3166 -26.17403,-16.7722 -2.18368,15.67942 4.45368,21.85807 10.36252,28.97585 4.55834,5.49096 9.95977,3.4912 14.04769,5.41342 1.46919,0.69081 3.99369,2.12037 5.82695,3.19172 1.30826,0.76457 2.26778,1.34553 2.26778,1.34553 -5.8397,4.64977 -19.68475,3.72828 -19.84313,2.62848 -0.71816,-4.98683 -8.6072,-12.1936 -10.99246,-12.29752 -7.38296,-0.32172 -19.45201,0.94911 -31.9065,-1.50199 8.37572,7.2736 16.49315,20.84465 25.13463,21.84141 18.0073,2.07705 13.4093,-4.91636 17.76433,-5.25696 4.35896,-0.34091 10.52001,1.40811 10.52001,1.40811 -1e-5,-2e-5 -0.35639,3.6611 0.34647,3.6611 0.59302,1e-5 14.22488,-9.53669 19.0872,-12.95465 -5.99289,13.64309 -18.1935,25.71669 -37.60746,34.95252 1.94064,1.60665 -21.96927,5.25522 -30.58362,3.81755 v -16.0525 l -2.26778,3.3169 c -1.69858,0.87285 -3.40395,0.87283 -5.10252,0 -0.0586,1.39655 0.92387,2.36009 -0.18899,4.19305 -1.81471,0.63808 -4.37808,-1.52369 -4.37808,-0.15646 -10e-6,-2e-5 0.59371,4.79945 0,5.41341 -0.54833,0.56702 -2.64575,0.50067 -2.64575,0.50067 0.35142,1.68747 1.86161,3.29445 1.07089,5.06921 -0.79071,1.10559 -1.76718,0.81304 -2.64575,1.22036 1.0543,1.62931 2.27114,2.0302 3.14971,4.88147 -0.11714,1.1056 0.56139,2.38586 -0.34647,3.31689 -10e-6,2e-5 0.0332,1.59586 1.76383,1.59586 2.72358,2e-5 2.99221,3.31689 2.99221,3.31689 1.17143,0.17459 1.97332,-1.24501 3.49618,0.50066 3.0457,0.61101 2.22582,2.11303 3.33868,3.16044 l 1.76383,-0.87616 v -14.51922 l 24.59919,-2.40944 v 4.53725 l 7.02384,-1.40811 c 0.90873,-5.51886 31.27799,-27.15531 36.28459,-34.95252 1.01294,-1.57757 1.92212,-3.16375 2.77174,-4.7563 0.77435,3.21489 1.86888,8.27858 1.10239,8.85548 -5.79856,4.36416 -2.11031,16.05251 -2.1103,16.0525 3.98286,12.10331 11.11908,10.60117 14.04768,25.84671 2.22859,-5.48761 4.58991,-11.05319 7.74827,-24.78281 2.46564,-10.71836 -9.68064,-21.46174 -15.46504,-17.80481 0,0 -1.37872,-10.93062 -1.88983,-15.67701 9.27339,-24.71327 0.7019,-50.78837 -15.78001,-75.31845 z"
             id="path3622"
             style="fill:#078930;fill-opacity:1;fill-rule:evenodd;stroke:none;stroke-width:1px;stroke-linecap:butt;stroke-linejoin:miter;stroke-opacity:1" />
        </g>
        <path
           d="m 388.11823,146.22625 c -1.80858,0.622 -6.80781,4.54018 -11.00962,8.62194 -1.35052,1.31326 -2.44257,2.3587 -2.42316,2.31512 0.0194,-0.0436 0.36684,-0.55027 0.7676,-1.13767 1.04877,-1.53464 1.48535,-2.59342 1.33881,-3.16341 -0.10307,-0.394 -0.16276,-0.45537 -0.46471,-0.36356 -1.01245,0.28025 -4.91239,4.42679 -9.19411,9.74354 -3.35106,4.16466 -9.36986,11.85833 -10.87421,13.86893 -3.28342,4.40363 -3.80217,5.21697 -6.82644,10.7977 -1.08459,2.00602 -2.65721,4.71724 -3.48142,6.02115 -2.13814,3.43412 -7.55174,11.44946 -8.51634,12.63867 -0.93066,1.15209 -2.63965,2.56683 -4.95416,4.1297 -3.54145,3.36481 -9.32815,-0.12681 -10.91185,-0.98598 -1.95352,0.0876 -3.54728,0.57887 -4.45835,1.3742 -0.34539,0.21374 -1.91265,1.69275 -2.22961,1.90055 -1.10148,0.76265 -1.04423,1.20246 -0.88167,1.97103 0.10456,0.58611 0.33238,0.80913 0.46302,0.48464 0.55421,-1.37656 2.95336,-1.8359 3.73137,-1.62875 0.72799,0.20229 7.00308,3.82324 7.35297,4.48376 0.25639,0.47966 0.24992,0.49419 -0.40478,1.76916 -1.23175,2.37562 -4.3271,5.57502 -9.75774,10.03215 -4.25632,3.50053 -6.19942,4.93287 -8.52507,6.2471 -3.49169,1.97862 -4.34772,2.57217 -5.9261,4.20172 -1.91923,1.96513 -3.57658,3.42026 -10.27367,9.00181 -7.25923,6.06228 -8.33347,7.02861 -8.7796,7.87429 -0.22955,0.43737 -0.22318,0.57943 -0.004,0.71196 0.39538,0.24565 1.72758,-0.20552 2.96636,-0.99415 0.58143,-0.36771 1.07402,-0.65315 1.08855,-0.64669 0.029,0.0129 -0.32474,0.37757 -0.76739,0.82448 -1.26009,1.2665 -3.06641,3.36893 -4.09895,4.78895 -1.24101,1.69273 -3.14693,5.54351 -3.02298,6.08604 0.13201,0.56353 0.68101,0.42506 1.76648,-0.44926 1.27122,-1.01789 3.99167,-3.68798 6.01927,-5.93556 0.91602,-1.00196 1.65596,-1.80385 1.67208,-1.76187 0.0226,0.0274 -0.55597,0.93601 -1.25573,1.99946 -1.9473,2.9273 -3.04642,4.92687 -4.10555,7.5012 -1.22729,2.95199 -1.25528,3.75757 -0.10225,3.27885 0.90756,-0.39657 3.93357,-3.71386 7.02138,-7.71724 l 1.39927,-1.8137 -1.12837,2.29981 c -1.18659,2.43057 -3.62515,8.53315 -3.94087,9.90681 -0.20236,0.88458 -0.0301,1.55307 0.41227,1.57596 0.93473,0.0507 4.75122,-4.84664 7.8075,-10.03019 l 0.5366,-0.89244 -0.91768,3.50756 c -1.12166,4.35662 -2.03337,8.63265 -1.93687,9.19777 0.10773,0.65714 0.38689,0.85106 0.86007,0.6092 0.94638,-0.4837 2.70962,-3.38853 5.01982,-8.22545 l 1.73627,-3.66526 0.0379,1.32225 c 0.0399,0.73135 -0.0759,2.43774 -0.23498,3.81152 -0.41722,3.55631 -0.46778,4.33444 -0.26315,4.9303 0.22076,0.63784 0.36602,0.70252 0.99582,0.46072 0.86071,-0.33038 1.34067,-1.05657 2.71173,-4.136 l 1.26111,-2.83252 0.11251,0.76371 c 0.17517,1.20933 0.84327,1.66341 1.77024,1.22328 0.78002,-0.38372 1.25181,-0.97429 2.09564,-2.63498 0.64661,-1.29597 1.1449,-2.88425 1.19886,-3.90453 0.007,-0.17112 0.20197,-0.25818 0.57168,-0.26763 0.50532,-7.6e-4 1.89413,-0.6187 2.65326,-1.15097 0.22775,-0.15967 0.28585,-0.1338 0.723,0.40894 0.81303,0.98855 2.27724,1.10092 3.34171,0.23474 0.46038,-0.36941 0.88551,-1.20702 0.84869,-1.71074 -0.0353,-0.31161 0.0215,-0.32125 0.41341,-0.14664 0.88605,0.3945 2.48141,-0.0613 3.08575,-0.87139 0.22784,-0.31627 0.37478,-0.37269 0.62172,-0.26276 0.58102,0.25869 1.83086,-0.12471 2.61914,-0.80064 0.59605,-0.51784 0.80599,-0.59844 1.22246,-0.51745 1.15091,0.26878 2.48173,-0.53113 3.12677,-1.86261 0.18912,-0.38574 0.38951,-0.6794 0.43309,-0.66001 0.0581,0.0258 0.35359,-0.0514 0.65395,-0.17878 0.56681,-0.21758 0.76562,-0.54679 0.78224,-1.28781 -0.003,-0.22764 0.1745,-0.2356 0.97999,-0.051 1.37368,0.31572 2.25538,-0.0227 2.68868,-0.99596 0.27163,-0.61007 0.38794,-0.71493 1.10977,-0.96793 1.3112,-0.44312 1.63595,-0.82067 1.60431,-1.84424 -0.019,-0.73943 -0.72365,-1.85385 -1.56434,-2.50663 l -0.64867,-0.49767 0.85752,-0.40144 c 0.47479,-0.20632 0.9997,-0.56439 1.14675,-0.7774 0.28924,-0.37597 0.31023,-0.38403 0.91862,0.009 0.9747,0.62542 2.30947,1.18489 2.99557,1.24668 1.2511,0.1219 2.28335,-0.82832 2.17433,-1.99079 -0.0336,-0.43269 -0.006,-0.45527 0.75753,-0.56778 1.43538,-0.21378 1.94279,-0.96254 1.52227,-2.24629 l -0.25617,-0.79286 0.91223,-0.13339 c 2.31856,-0.36012 2.6294,-1.68375 0.82247,-3.56737 l -0.67116,-0.68172 0.77483,0.13612 c 1.56419,0.2787 3.32102,-0.22708 4.48411,-1.2757 0.315,-0.27747 0.66063,-0.50651 0.78172,-0.50481 0.24216,0.003 5.68977,2.56984 8.70012,5.89431 4.71165,2.73433 6.83896,4.38107 8.56993,3.93338 0.41497,-0.11111 -0.11619,-0.0517 0,0 0.42125,0.18755 1.22534,0.0234 1.59367,-0.33475 0.38284,-0.35171 0.95366,-1.75104 0.97507,-2.3855 0.0117,-0.22115 0.2553,-0.33885 1.00288,-0.49336 0.93812,-0.19151 1.01403,-0.24473 1.18227,-0.77898 l 0.1957,-0.55687 0.9168,0.28634 c 2.36142,0.75549 3.75034,-0.0185 3.36734,-1.89475 -0.0901,-0.42304 -0.0303,-0.67484 0.19601,-1.02664 0.46215,-0.6471 0.3609,-1.31876 -0.45174,-2.93373 -0.63204,-1.23869 -0.66905,-1.42921 -0.43315,-1.7245 0.73357,-0.94396 0.76591,-1.01658 0.48694,-1.5237 2.14931,-1.28121 1.36144,-3.01813 -1.55957,-3.5801 -0.63584,-0.37012 -4.60152,-1.51058 -7.45994,-1.84546 -4.32429,-0.50661 -7.61389,-2.50198 -7.76392,-2.67321 -0.13709,-0.20028 -0.13371,-0.44244 0.0345,-0.82011 0.31531,-0.74726 0.31904,-1.85757 0.27917,-2.58893 -0.0143,-0.31966 -0.0931,-0.80729 -0.18334,-1.07372 l -0.14983,-0.48443 0.46313,0.32803 c 1.55881,1.11175 2.59024,1.41433 3.29764,0.99827 0.49259,-0.28544 0.90331,-1.28611 0.95726,-2.3064 l 0.0473,-0.84917 0.4503,0.2005 c 0.26146,0.11643 0.79901,0.1991 1.18324,0.19611 1.18823,-0.0106 1.81852,-1.03527 1.71309,-2.7531 -0.019,-0.42622 0.0148,-0.46333 0.54284,-0.59375 0.76858,-0.16255 1.36804,-0.92255 1.55759,-1.93468 0.0875,-0.431 0.10718,-0.94437 0.0701,-1.1349 -0.1143,-0.48603 -0.048,-0.59577 0.27153,-0.45349 0.33408,0.14876 1.25937,-0.17029 1.66163,-0.56557 1.21969,-1.21487 0.94653,-3.18142 -0.75834,-5.64616 -0.53224,-0.75912 -0.94672,-1.43101 -0.92889,-1.5101 0.0258,-0.0581 0.94584,0.29929 2.0498,0.7908 1.08942,0.48504 2.08851,0.86023 2.20154,0.84094 0.62163,-0.10614 1.47011,-1.50369 1.47232,-2.40778 -0.009,-0.36971 0.10365,-0.54561 0.63031,-1.02474 0.41677,-0.38881 0.7642,-0.89551 1.01642,-1.46201 0.34277,-0.76987 0.36227,-0.97004 0.16408,-1.58042 -0.10953,-0.37947 -0.32074,-0.80421 -0.46113,-0.91893 l -0.25976,-0.23748 0.42631,-0.1757 c 0.64272,-0.2708 1.09671,-0.78227 1.26666,-1.43763 0.11004,-0.40353 0.34433,-0.73435 0.7482,-1.09409 1.0613,-0.9373 1.52406,-2.52397 0.99678,-3.48975 l -0.23379,-0.4522 0.49736,-0.17887 c 0.26644,-0.0902 0.62342,-0.38381 0.8044,-0.63394 0.52841,-0.75683 0.91187,-2.04813 0.74752,-2.53901 -0.13212,-0.40693 -0.12565,-0.42146 0.20048,-0.45031 0.48921,-0.0433 1.37608,-0.90156 1.73825,-1.71499 0.44624,-1.00228 0.38568,-2.19538 -0.13386,-2.67037 l -0.40014,-0.35221 0.45219,-0.2338 c 0.40373,-0.20315 0.52334,-0.39358 0.9438,-1.49433 0.27977,-0.74571 0.46754,-1.48014 0.45318,-1.79981 -0.0449,-0.52472 -0.0449,-0.52472 0.95146,-0.84696 2.30104,-0.75083 5.01782,-2.70895 5.62574,-4.07437 0.58852,-1.32183 -0.008,-1.7791 -2.32201,-1.78223 -0.61189,0.006 -1.13978,-0.0201 -1.15589,-0.0621 -0.0402,-0.10497 3.08,-1.95306 5.24248,-3.09628 2.32235,-1.22867 3.14446,-1.78511 3.35788,-2.26447 0.33629,-0.75533 -0.24801,-0.92846 -2.78276,-0.78643 -0.89444,0.0543 -3.03859,0.33543 -4.72746,0.6104 -1.70987,0.28301 -3.14523,0.49678 -3.18881,0.4774 -0.0436,-0.0195 0.37309,-0.25163 0.90927,-0.51765 1.79096,-0.85609 3.90667,-2.08975 6.93175,-3.99764 l 2.99762,-1.88531 -0.73106,-0.42991 c -0.41636,-0.23762 -0.60033,-0.37171 -0.41953,-0.30864 1.11368,0.39142 2.13099,0.0611 2.8,-0.89417 0.64799,-0.94725 -0.19119,-1.40791 -1.8753,-1.02639 -1.22555,0.28982 -6.21858,2.12214 -10.7418,3.9548 -2.2721,0.92035 -3.35886,1.28935 -2.9793,1.02321 5.39153,-3.90017 12.17896,-9.37187 13.08544,-10.58694 0.96787,-1.27479 0.2028,-1.51098 -2.15,-0.64396 -1.73753,0.6188 -9.75455,5.17756 -13.27232,7.52748 -0.59438,0.39676 -1.07892,0.70318 -1.10797,0.69025 -0.0436,-0.0194 6.1496,-5.25095 8.45624,-7.14801 l 1.14039,-0.91948 -0.38731,-0.22468 c -0.36633,-0.23272 -0.36633,-0.23272 0.2746,-0.22584 0.55535,0.004 0.72172,-0.0964 1.20804,-0.6805 1.14717,-1.40381 2.43344,-3.19821 2.52408,-3.55817 0.59709,-2.08385 -5.65962,1.57036 -13.63748,7.95667 -1.44245,1.16792 -2.63289,2.08251 -2.61348,2.03893 0.0194,-0.0436 1.04042,-1.08581 2.2601,-2.30069 2.56216,-2.54912 6.12612,-6.41013 7.39289,-8.00436 0.95652,-1.21019 1.60634,-2.43512 1.39821,-2.63222 -0.0742,-0.0678 -0.42135,-0.031 -0.77176,0.0915 z"
           id="path1466"
           style="fill:#000000;fill-opacity:1;stroke:none;stroke-width:0.0159003"
           sodipodi:nodetypes="ccscccccccccccccsccccccccccsccccccccccccccccccscccccssccccccscccccscccscccsccccccccccccccccccccsccccccccccccscccccccccscccccscccssccscccccccccccssccccccscscscccccccccccccccscccccccsccccc" />
      </g>
    </g>
  </g>
</svg>
