<svg xmlns="http://www.w3.org/2000/svg" width="900" height="600"><rect id="backgroundrect" width="100%" height="100%" x="0" y="0" fill="none" stroke="none" style="" class="selected"/><defs><style>.cls-1{fill:#008033;}.cls-2{fill:#fc0;}.cls-3{fill:#007fff;}.cls-4{stroke:#000;stroke-miterlimit:10;stroke-width:0.35593px;}</style></defs><g class="currentLayer" style=""><title>Layer 1</title><rect id="Verde" class="cls-1" y="400" width="900" height="200"/><rect id="Amarillo" class="cls-2" y="200" width="900" height="200"/><rect id="Azul" class="cls-3" width="900" height="199.99998474121094"/><path id="Silueta" class="cls-4" d="M329.394,391.33512c1.579-10.92562-3.412-23.95272,4.01626-32.436,6.85965-7.66345,18.73075-4.74064,28.22053-7.3783a47.02393,47.02393,0,0,0,10.98255-4.13469c10.05846-5.77433,11.37351-15.57641,2.91444-23.525-5.22468-4.95452-10.98255-10.01594-12.68855-17.18039-3.51869-14.75661-14.21688-18.49922-25.59039-21.529-22.35606-5.84562-26.90546-13.5447-21.25424-36.78457,2.73676-11.12092-11.08917-25.98445-26.19461-27.80228-5.15362-.606-10.37833-.10693-15.532-.10693-19.335-.10693-21.75185-2.74458-22.17835-22.91906-.63121-10.23016-.80244-13.55239-1.04047-18.07148-.6312-11.98412,4.7724-24.66563,18.56278-29.01419,7.64157-2.42378,12.14568-7.48523,15.16677-16.46751,5.0229-8.2402,11.6934-9.15073,19.05062-4.19622,26.69219,18.17842,55.95318,18.34686,85.45321,9.25766,5.15362-1.604,9.27651-3.95649,12.191-9.30308,8.95662-16.57444,22.17834-20.31705,36.57294-10.016,16.31388,11.83379,33.33861,14.04371,51.50067,6.55848,5.65122-2.31685,10.59159-.998,13.71928,4.24163,3.412,5.84561-1.81264,7.66345-5.047,10.6219-5.54458,5.06144-2.52349,9.48129,1.315,14.15065,8.06807,9.69516,16.52713,19.28338,14.3946,34.04-1.91929,7.27137,2.80784,11.12092,6.64637,15.46948,10.485,11.90509,10.76931,22.63392-.31989,33.25581-8.35242,8.09118-5.54457,17.89327-5.22468,27.26763.21324,5.06144,5.047,3.95647,8.35242,3.95647,27.90063.10693,48.26633,16.96651,67.81455,35.57266,5.75782,5.45352,7.144,13.43778,8.85,21.10123,2.13253,9.80209,6.64637,15.46948,17.02472,13.65163,4.62049-.81981,9.45422-.32081,14.21689-.10693,9.45422.32081,16.74037,5.84562,16.52713,15.75463-.31989,15.96851,9.06326,21.63587,19.83257,27.26763,5.75781,3.02973,12.58769,4.78964,17.02472,9.69513,13.46141,14.88269,3.94518,28.40822-14.50124,34.25384-14.39459,4.63372-29.32232,2.13864-43.93016,2.03169-11.58675-.107-21.36086,2.53071-28.71812,12.618-10.37831,14.25758-24.06206,16.07541-38.59883,10.30111-10.87591-4.34854-17.34462-2.20991-23.77775,8.48328-16.52713,27.48148-24.06206,30.11914-52.99342,19.88934-14.32353-5.06142-28.39824-6.77235-43.326-2.92278-8.35242,2.20991-11.8,5.23964-8.85,15.36253,5.22469,18.07147,1.315,24.84382-15.81628,28.69339-7.64157,1.71093-14.82108,3.95647-21.64521,8.48328-11.58676,7.59218-24.77291,5.7743-34.15606-5.6674-8.85-10.69319-19.22833-16.7883-32.13016-18.49922-12.191-1.604-23.28015-7.05752-33.94282-13.33085-11.08917-6.45155-12.582-13.04568-6.36206-25.05772,7.96146-15.14868,18.73075-27.9805,29.60666-40.63411C324.38252,416.179,327.44513,404.81938,329.394,391.33512Zm11.25952-4.591a10.50556,10.50556,0,0,1,.06765,1.28565c-.22332,15.87328-6.31226,33.68206-16.72959,45.89991-8.95664,10.62192-17.3446,22.028-25.37715,33.541-5.54457,7.98426-4.62049,14.64966,5.22471,18.0002,11.48013,3.95647,22.5693,9.30307,34.65366,11.40607,9.06326,1.604,16.74037,5.16837,22.46268,14.4358,7.46386,12.012,17.52232,13.04568,29.21568,4.74066,5.54457-3.95647,11.19579-7.37828,17.84217-7.8773,10.37831-.71288,13.29279-4.95452,10.37831-16.25364-4.33614-16.68139.21324-22.527,16.20723-26.05572a98.5609,98.5609,0,0,1,49.97234,1.604c26.19459,7.7704,26.40788,7.66345,43.326-15.86156,10.59159-14.75661,17.73557-18.17842,33.232-11.61992,12.68855,5.45354,21.85846,2.13863,29.60668-8.59019,7.96146-10.907,18.23317-13.93678,30.81508-13.75856,14.99879.32081,30.31752,2.74457,45.1386-2.03168,4.72714-1.53271,11.26687-1.92479,11.58676-9.08921.31988-6.66541-4.94038-8.98226-10.16507-10.907-4.01625-1.53269-7.85475-3.63562-11.79989-5.45348-10.59165-5.84562-18.33988-13.75857-17.34472-28.19442.6042-8.80406-4.22953-12.618-11.97771-12.511-5.15362,0-10.3783-.3208-15.53193.10693-10.16506.81981-15.42532-3.24359-18.23317-14.54273-7.35722-29.29934-39.985-55.17684-68.41875-55.88972-7.03737-.21385-15.42533,2.13864-18.944-7.59216-3.94518-10.62189,0-35.85781,6.85966-39.8143,9.27651-5.34659,7.64157-11.72687,1.81264-17.39425-6.96632-6.98627-9.66751-15.04189-9.56083-24.73718,1.91919-9.196-1.31514-15.96828-7.46389-22.31285-4.72714-4.95451-11.1958-9.909-10.16507-18.39228.9952-8.69713-3.73193-8.87535-9.27651-8.37633-17.238,1.604-33.05425-1.92477-47.8398-12.511-8.67231-6.1664-17.73557-5.06145-21.57411,7.59216-2.31024,7.59215-7.25061,11.12091-13.71928,13.22391-27.50968,9.19613-55.126,9.41-81.99588-1.92478-10.27171-4.34856-18.553-9.63364-25.37715,3.80414-1.42169,2.81587-5.22471,6.28311-8.35242,6.996-16.63375,3.95648-18.53809,15.33481-17.41568,31.83005,1.31059,19.26083-.92409,20.424,16.63375,18.99822,16.74037-1.42576,29.00243,6.5585,40.69583,17.39425,7.03735,6.55849,8.56566,14.7566,6.53978,24.05967-4.33616,19.39032-1.31507,23.63194,17.5223,25.05769,12.40424.92674,22.56928,5.84562,25.98137,20.49528,1.91929,7.8773,6.43313,13.65163,12.29759,19.10515,14.60784,13.43778,10.98256,36.28554-6.753,44.2698-5.1758,2.36239-13.77156,4.69694-18.55735,4.71349C344.86942,363.65168,338.59878,368.0009,340.65348,386.74409Z"/></g></svg>