<?xml version="1.0" encoding="utf-8"?>
<!-- Generator: Adobe Illustrator 18.1.1, SVG Export Plug-In . SVG Version: 6.00 Build 0)  -->
<svg version="1.1" id="Layer_1" xmlns="http://www.w3.org/2000/svg" xmlns:xlink="http://www.w3.org/1999/xlink" x="0px" y="0px"
	 width="900px" height="600px" viewBox="0 0 900 600" enable-background="new 0 0 900 600" xml:space="preserve">
<g>
	<g>
		<path fill="#72C3F0" d="M0,0H900v200H0V0z"/>
		<path fill="#FFFFFF" d="M0,200H900v200H0V200z"/>
		<path fill="#008033" d="M0,400H900v200H0V400z"/>
	</g>
	<g>
		<rect x="374.7" y="225" fill="#D22C2B" width="150" height="150"/>
		<g>
			<path fill="#FFCC00" d="M449.8,237l6.7,41.6l27.3-32.9l-15.9,39.1l40.8-15.4l-34.3,26.2l43.5,6.2l-135.6,0.1l43.4-6.3l-34.4-26.2
				l40.9,15.4L416,245.7l27.5,32.9L449.8,237z"/>
			<path fill="#FFCC00" stroke="#FFCC00" d="M471,354c0,3.1-9.4,5.6-21.1,5.6s-21.1-2.5-21.1-5.6"/>
			<path fill="#FFCC00" d="M416.2,299.6c0-17.9,14.9-32.4,33.4-32.6c18.5-0.2,33.7,14,34.1,31.9l-33.8,0.7H416.2z"/>
			<path fill="#FFCC00" stroke="#FFCC00" stroke-width="0.75" d="M443.2,290l-14.3,64h42.2l-14.3-64H443.2z"/>
		</g>
		<g>
			<path fill="#008033" d="M447.3,287.8h4.8V354h-4.8V287.8z"/>
			<path fill="#008033" d="M451.5,288.4h-3.8c-2.6,5.7-0.4,6.6-1,6.8c-0.5,0.2-1,0-1.5-0.1c0.7,1.1,1.7,2.4,1.1,2.8
				c-0.7-0.1-1-0.2-1.3-0.8l-0.2,3.1c-0.2,0.8-1,0.8-1.2-0.1c-0.6-4.7,0.4-9,2.9-13l-0.7-0.3c-0.9,1.5-2.7,2-2.2,6.3
				c-0.4,0.6-0.8,0.5-1,0.3l-0.2,6.5c-0.3,0.7-0.7,1.2-1.3,0.1l-1.1-3.9c-0.6-1.7-1.4-5.5,2.5-8.1c1.3-1,2.5-1.9,3.5-2.7l-1.6,0.4
				c-3.8,3.5-9.1,4.6-8.3,12.8c-0.3,0.6-0.7,0.9-1.2,0.1c-0.5-2-1.5-3.9-0.3-6.9c1.6-2.6,3.5-4.5,6-6.4c-2.1,0.3-4.2,0.1-5.9,3.3
				c-0.5,1.1-0.9,0.8-1.3,0.4l-0.6,2.2c-0.6,0.9-1.5,0.1-1.1-0.7c0.4-1,2-10.9,11.5-7c1.1,0.5,2.1,0.4,0.5-0.9
				c-1.2-0.6-2.8-2.9-6.5-1.1c-1.5,1.3-1.4-0.5-0.6-1.1c-1.7,0.7-3.3,1.7-4.6,3.2c-0.9,0.8-1.5,0-1.1-0.8c1.6-2,3.4-4.1,7.7-4.1
				c1.2-0.3,0.5-0.6,0.2-0.9c-4-1-4.4,0.2-6,1.8c-0.2,0.4-1.3,0.4-1-0.6c2.3-4.5,10.8-5.8,14.5,0.4c0.4,0.6,1,0.1,0.5-0.4
				c-1-0.9-2.4-4.3-5.8-4.1c-0.5,0-1.2-0.4-0.8-0.8c-2.1-0.5-4.9,0.4-7,1.8c-0.1,0.2-2,0.4-1.7-0.7c4.7-4.3,12.9-3.7,15.6,0.8
				c-0.2-1.1,0.5-2.7-1.9-3.1c-0.8-1.1,2.8-2.7,3.5-2.4c1.7,0.5,1.5,1.5,1.6,2.5c0.1,0.7,0.4,1,0.9-0.1c3.1-4.3,9.1-1.8,11.2-1.1
				c1,0.7,0.8,1.3-0.3,1.4l-4.1-0.5c0.4,0.2,0.5,0.8-0.3,0.8c-2.2-0.4-3.5-0.1-4.4,1c0,0.1-0.2,1.2-1.4,1.1c-0.5,0-1,0.2-1.3,1
				c-0.1,0.4,0.3,0.6,0.6,0.4c2.2-2,7.8-4.2,12.6-1.1l2.7,2.5c1,1.1-0.5,1.6-0.9,1c-3.8-3.5-7-2.7-10.6-1.7
				c-0.1,0.4-0.3,0.9,0.5,0.7c6.4-1.9,11.6,2,12.5,5.7c0.3,2.2-1,2-1.6,0.9c-0.7-1.6-1.1-3.8-2.2-3.6c0,0-0.3,0.8-1.3,0.5
				c-0.4-0.1-1.3-1.8-2.7-1.9c0.2,0.8-4,0.9-6.4,0.8c-0.2,0.3-0.6,0.6,0,0.7c6.1-1.5,10.9,0.3,14.3,5.9l1.2,2.9
				c0.8,3.3-0.8,3.1-2,1.6c-1.6-2.3-3.1-4.9-5-6.9c-0.2,1-0.7,0.8-1.1,0.8c-2.6-2.4-5-2.5-7.4-2.9c-0.3,0.3-0.6,0.6,0,0.8
				c4.4,1.1,10.7,3.2,10.8,12.8c0,1.2-1.4,3-2.1,0.8l0.6-3.3c0.3-0.5-0.2-1-0.5-0.8c-0.5,0.5-0.8,0.4-0.9-0.5
				c0.1-0.8-0.2-1.6-0.7-2.6c-0.3,1.3-1,0.9-1.6,0.7l-3.3-3.4c3.8,5.9,1.6,9.1,1.1,10.1c-0.6,0.4-1.3,0.7-1.5-0.3
				c0.1-1.1,0.2-1.9,1-2.7c0.6-1,0-1.3-0.4-1.3c-0.8,0.2-0.7-1.8-0.9-3c-0.9,0-0.8-0.5-0.6-1.1c0.6-1-0.3-1.5-0.8-2.1l-1,0.3
				c2,3.4,2.5,8,2.2,10.4c-0.2,0.9-1.3,1.4-1.9,0.1C453.4,294.6,452.3,291.5,451.5,288.4L451.5,288.4z"/>
		</g>
	</g>
</g>
</svg>
