<?xml version="1.0" encoding="utf-8"?>
<!-- Generator: Adobe Illustrator 18.1.1, SVG Export Plug-In . SVG Version: 6.00 Build 0)  -->
<svg version="1.1" id="Layer_1" xmlns="http://www.w3.org/2000/svg" xmlns:xlink="http://www.w3.org/1999/xlink" x="0px" y="0px"
	 viewBox="0 0 900 600" enable-background="new 0 0 900 600" xml:space="preserve">
<path fill="#AF272F" d="M0,0h900v600H0V0z"/>
<path fill="#007749" d="M0,343.3h900v26.2H0V343.3z"/>
<rect x="428.4" y="341.1" fill="#AF272F" width="371.3" height="28.4"/>
<g>
	<path fill="#FFDA00" stroke="#000000" d="M502.7,356.3h229.7"/>
	<path fill="#FFDA00" d="M611.5,152h5.5v203.5h-5.5V152z"/>
	<path fill="#FFDA00" d="M623.4,174.3l4.8,0.3l-11.7,180.5l-4.8-0.3L623.4,174.3z"/>
	<path fill="#FFDA00" d="M631,212.1l3,0.4l-10.9,85.3l-3-0.4L631,212.1z"/>
	<path fill="#FFDA00" d="M666.2,159.1l5.3,1.5L617,356.7l-5.3-1.5L666.2,159.1z"/>
	<path fill="#FFDA00" d="M671.7,183.4l4.6,1.6l-59.7,170.7l-4.6-1.6L671.7,183.4z"/>
	<path fill="#FFDA00" d="M668.9,221.8l2.8,1.2l-33.4,79.3l-2.8-1.2L668.9,221.8z"/>
	<path fill="#FFDA00" d="M654.1,178.5l-4.8-1l-37.1,177l4.8,1L654.1,178.5z"/>
	<path fill="#FFDA00" d="M716.8,180l4.7,2.8L616.6,357.3l-4.7-2.8L716.8,180z"/>
	<path fill="#FFDA00" d="M715.7,204.9l4,2.8L616.6,356.3l-4-2.8L715.7,204.9z"/>
	<path fill="#FFDA00" d="M702.7,241.2l2.4,1.9l-53.3,67.5l-2.4-1.9L702.7,241.2z"/>
	<path fill="#FFDA00" d="M700,195.5l-4.3-2.2L612.8,354l4.3,2.2L700,195.5z"/>
	<path fill="#FFDA00" d="M759.6,213.6l3.8,4L616.1,358.1l-3.8-4L759.6,213.6z"/>
	<path fill="#FFDA00" d="M751.9,237.3l3.1,3.7L616.4,357.1l-3.1-3.7L751.9,237.3z"/>
	<path fill="#FFDA00" d="M729.8,268.9l1.8,2.4l-69.3,51l-1.8-2.4L729.8,268.9z"/>
	<path fill="#FFDA00" d="M739.3,224.1l-3.6-3.3L613.2,353.9l3.6,3.3L739.3,224.1z"/>
	<path fill="#FFDA00" d="M793.4,258.6l2.5,4.8L615.8,358l-2.5-4.8L793.4,258.6z"/>
	<path fill="#FFDA00" d="M779.6,279.3l2,4.4l-165.3,73.4l-2-4.4L779.6,279.3z"/>
	<path fill="#FFDA00" d="M749.7,303.6l1.1,2.8l-80.6,29.9l-1.1-2.8L749.7,303.6z"/>
	<path fill="#FFDA00" d="M771.1,263.1l-2.5-4.1l-154.4,94.2l2.5,4.1L771.1,263.1z"/>
	<path fill="#FFDA00" d="M812.5,312l1.1,5.4l-199.2,41.8l-1.1-5.4L812.5,312z"/>
	<path fill="#FFDA00" d="M793.5,328.1l0.7,4.8l-179.1,25.6l-0.7-4.8L793.5,328.1z"/>
	<path fill="#FFDA00" d="M758.1,343.3l0.2,3l-85.7,6.8l-0.2-3L758.1,343.3z"/>
	<path fill="#FFDA00" d="M789.8,310.2l-1.3-4.7L614.2,354l1.3,4.7L789.8,310.2z"/>
	<path fill="#FFDA00" d="M795.9,358.1v-4.9L615,353.9v4.9L795.9,358.1z"/>
	<path fill="#FFDA00" d="M605.2,174.3l-4.8,0.3l11.7,180.5l4.8-0.3L605.2,174.3z"/>
	<path fill="#FFDA00" d="M597.6,212.1l-3,0.4l10.9,85.3l3-0.4L597.6,212.1z"/>
	<path fill="#FFDA00" d="M562.5,159.1l-5.3,1.5l54.5,196.1l5.3-1.5L562.5,159.1z"/>
	<path fill="#FFDA00" d="M556.9,183.4l-4.6,1.6L612,355.7l4.6-1.6L556.9,183.4z"/>
	<path fill="#FFDA00" d="M559.7,221.8l-2.8,1.2l33.4,79.3l2.8-1.2L559.7,221.8z"/>
	<path fill="#FFDA00" d="M574.5,178.5l4.8-1l37.1,177l-4.8,1L574.5,178.5z"/>
	<path fill="#FFDA00" d="M511.8,180l-4.7,2.8L612,357.3l4.7-2.8L511.8,180z"/>
	<path fill="#FFDA00" d="M512.9,204.9l-4,2.8L612,356.3l4-2.8L512.9,204.9z"/>
	<path fill="#FFDA00" d="M525.9,241.2l-2.4,1.9l53.3,67.5l2.4-1.9L525.9,241.2z"/>
	<path fill="#FFDA00" d="M528.6,195.5l4.3-2.2l83,160.7l-4.3,2.2L528.6,195.5z"/>
	<path fill="#FFDA00" d="M469.1,213.6l-3.8,4l147.2,140.5l3.8-4L469.1,213.6z"/>
	<path fill="#FFDA00" d="M476.7,237.3l-3.1,3.7l138.7,116.1l3.1-3.7L476.7,237.3z"/>
	<path fill="#FFDA00" d="M498.8,268.9l-1.8,2.4l69.3,51l1.8-2.4L498.8,268.9z"/>
	<path fill="#FFDA00" d="M489.3,224.1l3.6-3.3l122.5,133.1l-3.6,3.3L489.3,224.1z"/>
	<path fill="#FFDA00" d="M435.2,258.6l-2.5,4.8L612.9,358l2.5-4.8L435.2,258.6z"/>
	<path fill="#FFDA00" d="M449,279.3l-2,4.4l165.3,73.4l2-4.4L449,279.3z"/>
	<path fill="#FFDA00" d="M479,303.6l-1.1,2.8l80.6,29.9l1.1-2.8L479,303.6z"/>
	<path fill="#FFDA00" d="M457.5,263.1l2.5-4.1l154.4,94.2l-2.5,4.1L457.5,263.1z"/>
	<path fill="#FFDA00" d="M416.1,312l-1.1,5.4l199.2,41.8l1.1-5.4L416.1,312z"/>
	<path fill="#FFDA00" d="M435.1,328.1l-0.7,4.8l179.1,25.6l0.7-4.8L435.1,328.1z"/>
	<path fill="#FFDA00" d="M470.5,343.3l-0.2,3l85.7,6.8l0.2-3L470.5,343.3z"/>
	<path fill="#FFDA00" d="M438.9,310.2l1.3-4.7L614.4,354l-1.3,4.7L438.9,310.2z"/>
	<path fill="#FFDA00" d="M432.7,358.1v-4.9l180.9,0.7v4.9L432.7,358.1z"/>
</g>
<circle fill="#FFDA00" stroke="#AF272F" stroke-width="7" cx="614.5" cy="365.5" r="110"/>
<g>
	<g>
		<g>
			<path fill="#4D4D4D" d="M590.6,304.3v1.2l-0.9,1l-0.3,1.7l-1.2,0.6l-0.1,3h1.4l-0.4,3.1l-1.4,0.9l-0.3,3.2c0,0-1.7-0.1-2.1,0.3
				s-0.2,2.6-0.2,2.6l2,0.8l-0.1,1.8l0.9,1l-2.7,41.2l3,0.1l8.1,11.1l1.8-0.4v-2.2h1.4l0.1-2.5l-2.8-2.2l-1.2-23.2h1.5l-0.2-6.5
				l1.5-0.8v-9.8l2.2-3.9l1.2-0.4v-6.1h-1.8l1-3.1l1.8-3.1l1.8-2.2l3-2.2l1.2,0.1l0.4,1.3l4.6-0.1l4.3,0.1l0.4-1.3l1.2-0.1l3,2.2
				l1.8,2.2l1.8,3.1l1,3.1h-1.8v6.1l1.2,0.4l2.2,3.9v9.8l1.5,0.8l-0.2,6.5h1.5l-1.2,23.2l-2.8,2.2l0.1,2.5h1.4v2.2l1.8,0.4l8.1-11.1
				l3-0.1l-2.7-41.1l0.9-1l-0.1-1.8l2-0.8c0,0,0.2-2.2-0.2-2.6c-0.4-0.4-2.1-0.3-2.1-0.3l-0.3-3.2l-1.4-0.9l-0.4-3.1h1.4l-0.1-3
				l-1.2-0.6l-0.3-1.7l-0.9-1v-1.2l-0.8-1l0-0.8l-0.4-8.1l-0.8,0.1l-0.1,8l0,1.2l-0.8,0.7v1.2l-0.6,1l-0.2,2.6l-1.4,0.3l0.3,2.7h1
				v2.2c0,0.5-0.6,1.6-0.6,1.6l-1,0.4l-0.6-3.1c0,0-0.7-2.6-1.1-2.9s-1.9-3.4-1.9-3.4l-2.4-2.7l-2.5-2.1l-2.1-1l-2.4-0.8l-0.1-2.6
				l0.1,0l1.3,0.2v-1l-1.3-0.1l-0.5,0l-0.1-2.2l-1.2-0.7l-0.3-2.7l-0.9-0.7l-0.3-3.1h-1.4l0,0h-0.8l-0.3,3.1l-0.9,0.7l-0.3,2.7
				l-1.2,0.7l-0.1,2.2l-0.5,0l-1.3,0.1v1l1.3-0.2l0.1,0l-0.1,2.6l-2.4,0.8l-2.1,1l-2.5,2.1l-2.3,2.6c0,0-1.5,3.1-1.9,3.4
				c-0.4,0.3-1.1,2.9-1.1,2.9l-0.6,3.1l-1-0.4c0,0-0.6-1-0.6-1.6V312h1l0.3-2.7l-1.4-0.3l-0.2-2.6l-0.6-1v-1.2l-0.8-0.7l0-1.2
				l-0.1-8l-0.8-0.1l-0.4,8.1l0,0.8L590.6,304.3z"/>
		</g>
	</g>
</g>
<path fill="#221551" d="M0,365.5h900v118.7H0V365.5z"/>
</svg>
