<?xml version="1.0" encoding="utf-8"?>
<!-- Generator: Adobe Illustrator 18.1.1, SVG Export Plug-In . SVG Version: 6.00 Build 0)  -->
<svg version="1.1" id="Layer_1" xmlns="http://www.w3.org/2000/svg" xmlns:xlink="http://www.w3.org/1999/xlink" x="0px" y="0px"
	 width="2551.2px" height="1700.8px" viewBox="0 0 2551.2 1700.8" enable-background="new 0 0 2551.2 1700.8" xml:space="preserve">
<g>
	<rect x="0" y="1417.3" fill="#04169E" stroke="#04169E" stroke-miterlimit="10" width="2551.2" height="283.5"/>
	<rect x="0" y="1133.9" stroke="#000000" stroke-miterlimit="10" width="2551.2" height="297.1"/>
	<rect x="0" fill="#FF8000" width="2551.2" height="1146.2"/>
</g>
<g>
	<circle fill="#04169E" cx="425.7" cy="566.8" r="283.5"/>
	<path fill="#FFDF00" d="M344.3,496.7l8.3-34l-7.5-5.8l19.9-2.5l-14.9-14.1l1.7-6.6L331,414.6h17.4l-30.7-53.9l25.7,5.8l10-21.6
		l16.6,63.9l7.5-13.3l10,50.6l32.4,13.3L344.3,496.7z M506.5,636.6l-8.3,34l7.5,5.8l-19.9,2.5l14.9,14.1l-1.7,6.6l20.7,19.1h-17.4
		l30.7,53.9l-25.7-5.8l-10,21.6l-16.6-63.9l-7.5,13.3l-10-50.6L431,673.9L506.5,636.6L506.5,636.6z M495.3,485.5l34,8.3l5.8-7.5
		l2.5,19.9l14.1-14.9l6.6,1.7l19.1-20.7v17.4l53.9-30.7l-5.8,25.7l21.6,10l-63.9,16.6l13.3,7.5l-50.6,10L532.7,561L495.3,485.5
		L495.3,485.5z M355.5,647.8l-34-8.3l-5.8,7.5l-2.5-19.9L299.1,642l-6.6-1.7L273.3,661v-17.4l-53.9,30.7l5.8-25.7l-21.6-10
		l63.9-16.6l-13.3-7.5l50.6-10l13.3-32.4L355.5,647.8L355.5,647.8z"/>
	<path fill="#FFDF00" d="M419.7,459.7l30.3-17.6l-1-9.4l15.6,12.6l-0.2-20.5l5.9-3.4l-0.6-28.2l12.1,12.6l17.7-59.5l13.6,22.6
		l22.5-7.8L501,417.4l14.8-3.8l-29.6,42.2l12.8,32.5L419.7,459.7L419.7,459.7z M431.1,673.6l-30.3,17.6l1,9.4l-15.6-12.6l0.2,20.5
		l-5.9,3.4L381,740L369,727.5L351.3,787l-13.6-22.6l-22.5,7.8l34.6-56.2l-14.8,3.8l29.6-42.2l-12.8-32.5L431.1,673.6L431.1,673.6z
		 M532.3,560.9l17.6,30.3l9.4-1l-12.6,15.6l20.5-0.2l3.4,5.9l28.2-0.6l-12.6,12.1l59.5,17.7l-22.6,13.6l7.8,22.5l-56.2-34.6
		l3.8,14.8l-42.2-29.6l-32.5,12.8L532.3,560.9L532.3,560.9z M318.5,572.4l-17.6-30.3l-9.4,1l12.6-15.6l-20.5,0.2l-3.4-5.9l-28.2,0.6
		l12.6-12.1l-59.5-17.7l22.6-13.6l-7.8-22.5l56.2,34.6l-3.8-14.8l42.2,29.6l32.5-12.8L318.5,572.4L318.5,572.4z"/>
	<path fill="#FFDF00" d="M378.5,470.4l21.1-28l-4.6-8.3l19.3,5.6l-8.1-18.9l4.1-5.4l-11.5-25.7l16,6.9l-6.9-61.7l21.3,15.5
		l17.7-15.9l-10,65.3l12.1-9.2l-10.9,50.4l24.5,25L378.5,470.4L378.5,470.4z M472.3,662.9l-21.1,28l4.6,8.3l-19.3-5.6l8.1,18.9
		l-4.1,5.4l11.5,25.7l-16-6.9l6.9,61.7l-21.3-15.5l-17.7,15.9l10-65.3l-12.1,9.2l10.9-50.4l-24.5-25L472.3,662.9z M521.7,519.8
		l28,21.1l8.3-4.6l-5.6,19.3l18.9-8.1l5.4,4.1l25.7-11.5l-6.9,16l61.7-6.9l-15.5,21.3l15.9,17.7l-65.3-10l9.2,12.1l-50.4-10.9
		l-25,24.5L521.7,519.8L521.7,519.8z M329.1,613.5l-28-21.1l-8.3,4.6l5.6-19.3l-18.9,8.1l-5.4-4.1l-25.7,11.5l6.9-16l-61.7,6.9
		l15.5-21.3l-15.9-17.7l65.3,10l-9.2-12.1l50.4,10.9l25-24.5L329.1,613.5L329.1,613.5z"/>
	<path fill="#FFDF00" d="M462.4,466.2l34.8-4.2l2.8-9l9.3,17.8l8-18.9l6.8-0.8l10.6-26.1l6.1,16.3l39.7-47.7l3.6,26.1l23.7,1.8
		l-54,38l15.1,2.3L525,488.8l-1.1,35L462.4,466.2L462.4,466.2z M388.4,667.1l-34.8,4.2l-2.8,9l-9.3-17.8l-8,18.9l-6.8,0.8
		l-10.6,26.1l-6.1-16.3l-39.7,47.7l-3.6-26.1l-23.7-1.8l54-38l-15.1-2.3l43.9-27.1l1.1-35L388.4,667.1L388.4,667.1z M525.9,603.7
		l4.2,34.8l9,2.8l-17.8,9.3l18.9,8l0.8,6.8l26.1,10.6l-16.3,6.1l47.7,39.7l-26.1,3.6l-1.8,23.7l-38-54l-2.3,15.1l-27.1-43.9l-35-1.1
		L525.9,603.7L525.9,603.7z M324.9,529.6l-4.2-34.8l-9-2.8l17.8-9.3l-18.9-8l-0.8-6.8l-26.1-10.6l16.3-6.1l-47.7-39.7l26.1-3.6
		l1.8-23.7l38,54l2.3-15.1l27.1,43.9l35,1.1L324.9,529.6L324.9,529.6z"/>
	<circle fill="#FFDF00" cx="425.7" cy="567" r="115.8"/>
</g>
</svg>
