<?xml version="1.0" encoding="utf-8"?>
<!-- Generator: Adobe Illustrator 18.1.1, SVG Export Plug-In . SVG Version: 6.00 Build 0)  -->
<svg version="1.1" id="Layer_1" xmlns="http://www.w3.org/2000/svg" xmlns:xlink="http://www.w3.org/1999/xlink" x="0px" y="0px"
	 width="2551.2px" height="1700.8px" viewBox="-849 567.8 2551.2 1700.8" enable-background="new -849 567.8 2551.2 1700.8"
	 xml:space="preserve">
<rect x="-849" y="567.8" fill="#CF142B" width="2551.2" height="425.2"/>
<rect x="-849" y="993" fill="#00247D" width="2551.2" height="1275.6"/>
<g>
	<path fill="#FFFFFF" d="M-800,851.3V736.7h28.4l17.1,78.2l16.9-78.2h28.5v114.5h-17.7V761l-18.7,90.2h-18.3l-18.6-90.2v90.2H-800
		V851.3z"/>
	<path fill="#FFFFFF" d="M-690.6,736.7h18.9v62c0,9.6,0.2,15.9,0.7,18.8c0.8,5.1,2.8,9,6,11.7c3.2,2.8,7.3,4.1,12.5,4.1
		c4.4,0,8-1,10.7-2.9c2.8-2,4.7-4.7,5.7-8.1c1-3.5,1.5-10.9,1.5-22.3v-63.4h18.9v60.2c0,15.4-0.8,26.5-2.5,33.3
		c-1.6,6.8-5.3,12.4-11.1,16.6c-5.8,4.2-13.3,6.4-22.8,6.4c-9.8,0-17.4-1.8-22.9-5.3s-9.5-8.5-12-14.8c-2.5-6.4-3.7-18.1-3.7-35.3
		v-61H-690.6L-690.6,736.7z"/>
	<path fill="#FFFFFF" d="M-595.7,851.3V736.7h69.7v19.4h-50.8v25.4h47.2v19.3h-47.2v31.1h52.5v19.4H-595.7z"/>
	<path fill="#FFFFFF" d="M-508.2,851.3V736.7h39.9c10.2,0,17.5,1,21.9,3.1c4.4,2.1,8,5.6,10.8,10.7c2.8,5.1,4.2,11.2,4.2,18.2
		c0,9-2.1,16.2-6.4,21.6c-4.3,5.4-10.4,8.9-18.3,10.3c4.1,2.9,7.4,6.1,10.1,9.6s6.3,9.7,10.9,18.6l11.4,22.3h-22.6l-13.7-24.9
		c-4.9-9-8.3-14.6-10.1-16.9c-1.8-2.3-3.6-3.8-5.6-4.7c-2-0.9-5.2-1.3-9.5-1.3h-3.9v47.8h-19.1V851.3z M-489.3,785.2h14.1
		c8.6,0,14.1-0.4,16.4-1.1c2.3-0.8,4.2-2.3,5.7-4.6s2.2-5.3,2.2-9.1c0-3.6-0.7-6.6-2.2-8.8c-1.5-2.2-3.4-3.7-5.9-4.6
		c-1.8-0.6-6.9-0.9-15.4-0.9h-14.8v29.1H-489.3L-489.3,785.2z"/>
	<path fill="#FFFFFF" d="M-328.8,851.3h-20.6l-8.2-25.9h-37.6l-7.8,25.9h-20.2l36.6-114.5h20.1L-328.8,851.3z M-363.7,806l-13-42.5
		l-12.7,42.5H-363.7z"/>
	<path fill="#FFFFFF" d="M-286.6,851.3V737.7h18.9v94.2h47.2v19.4L-286.6,851.3L-286.6,851.3z"/>
	<path fill="#FFFFFF" d="M-122.3,851.3h-20.6l-8.2-25.9h-37.6l-7.8,25.9h-20.2l36.7-114.6h20.1L-122.3,851.3z M-157.1,806l-13-42.5
		l-12.7,42.5H-157.1z"/>
	<path fill="#FFFFFF" d="M-59.4,851.3v-95.2h-27.9v-19.4h74.6v19.4h-27.8v95.2H-59.4z"/>
	<path fill="#FFFFFF" d="M-1,851.3V736.7h18.9v114.5H-1V851.3z"/>
	<path fill="#FFFFFF" d="M36.1,851.3V736.7H76c10.2,0,17.5,1,21.9,3.1c4.4,2.1,8,5.6,10.8,10.7c2.8,5.1,4.2,11.2,4.2,18.2
		c0,9-2.1,16.2-6.4,21.6c-4.3,5.4-10.4,8.9-18.3,10.3c4.1,2.9,7.4,6.1,10.1,9.6c2.7,3.5,6.3,9.7,10.9,18.6l11.4,22.3H98l-13.7-24.9
		c-4.9-9-8.3-14.6-10.1-16.9c-1.8-2.3-3.6-3.8-5.6-4.7c-2-0.9-5.2-1.3-9.5-1.3H55v47.8H36.1V851.3z M55,785.2h14.1
		c8.6,0,14.1-0.4,16.4-1.1c2.3-0.8,4.2-2.3,5.7-4.6s2.2-5.3,2.2-9.1c0-3.6-0.7-6.6-2.2-8.8c-1.5-2.2-3.4-3.7-5.9-4.6
		c-1.8-0.6-6.9-0.9-15.4-0.9H55V785.2z"/>
	<path fill="#FFFFFF" d="M215.5,851.3h-20.6l-8.2-25.9h-37.6l-7.8,25.9h-20.2l36.6-114.5h20.1L215.5,851.3z M180.6,806l-13-42.5
		L154.9,806H180.6z"/>
	<path fill="#FFFFFF" d="M225.7,851.3V736.7h18.4l38.4,76.5v-76.5h17.7v114.5h-19.1l-37.8-74.7v74.7h-17.6V851.3z"/>
	<path fill="#FFFFFF" d="M319.6,851.3V736.7h18.9v114.5h-18.9V851.3z"/>
	<path fill="#FFFFFF" d="M441.3,851.3h-20.6l-8.2-25.9H375l-7.8,25.9H347l36.6-114.5h20.1L441.3,851.3z M406.5,806l-13-42.5
		L380.8,806H406.5z"/>
	<path fill="#FFFFFF" d="M507.1,851.3l-33.6-114.5H494l23.8,84.8l23-84.8H561l-33.7,114.5H507.1z"/>
	<path fill="#FFFFFF" d="M570,851.3V736.7h18.9v114.5H570V851.3z"/>
	<path fill="#FFFFFF" d="M631.1,851.3l-33.6-114.5H618l23.8,84.8l23-84.8H685l-33.7,114.5H631.1z"/>
	<path fill="#FFFFFF" d="M769.6,851.3H749l-8.2-25.9h-37.6l-7.8,25.9h-20.2l36.6-114.5h20.1L769.6,851.3z M734.8,806l-13-42.5
		L709.1,806H734.8z"/>
	<path fill="#FFFFFF" d="M811.8,851.3V737.7h18.9v94.2h47.2v19.4L811.8,851.3L811.8,851.3z"/>
	<path fill="#FFFFFF" d="M976.2,851.3h-20.6l-8.2-25.9h-37.6l-7.8,25.9h-20.2l36.6-114.5h20.1L976.2,851.3z M941.3,806l-13-42.5
		L915.6,806H941.3z"/>
	<path fill="#FFFFFF" d="M1018.4,851.3V737.7h18.9v94.2h47.2v19.4L1018.4,851.3L1018.4,851.3z"/>
	<path fill="#FFFFFF" d="M1097.5,851.3V736.7h18.9v114.5h-18.9V851.3z"/>
	<path fill="#FFFFFF" d="M1134.5,736.7h37.6c10.3,0,17.5,0.9,21.7,2.8c4.2,1.9,7.7,5.2,10.6,9.9s4.3,10.1,4.3,16.1
		c0,5.5-1.2,10.5-3.7,15s-5.6,7.7-9.6,9.9c5.6,2,9.9,5.4,13.1,10.2c3.1,4.8,4.7,10.6,4.7,17.5c0,8.3-2,15.4-6,21.1
		c-4,5.8-8.8,9.3-14.2,10.7c-3.8,0.9-12.6,1.4-26.5,1.4h-32V736.7z M1153.4,755.8v26.5h12.5c7.5,0,12.1-0.1,13.9-0.4
		c3.2-0.5,5.8-1.9,7.6-4.1c1.8-2.2,2.7-5.2,2.7-9c0-3.4-0.7-6.1-2.2-8.2s-3.3-3.4-5.4-3.9s-8.2-0.8-18.2-0.8L1153.4,755.8
		L1153.4,755.8z M1153.4,801.3v30.5h17.6c7.7,0,12.7-0.4,14.9-1.2c2.2-0.8,4-2.4,5.5-4.8c1.5-2.4,2.2-5.4,2.2-9
		c0-3.7-0.8-6.8-2.4-9.2c-1.6-2.4-3.7-4.1-6.3-5c-2.6-0.9-8-1.4-16.2-1.4L1153.4,801.3L1153.4,801.3z"/>
	<path fill="#FFFFFF" d="M1229.3,851.3V736.7h69.7v19.4h-50.8v25.4h47.2v19.3h-47.2v31.1h52.5v19.4H1229.3z"/>
	<path fill="#FFFFFF" d="M1316.8,851.3V736.7h39.9c10.2,0,17.5,1,21.9,3.1c4.4,2.1,8,5.6,10.8,10.7c2.8,5.1,4.2,11.2,4.2,18.2
		c0,9-2.1,16.2-6.4,21.6c-4.3,5.4-10.4,8.9-18.3,10.3c4.1,2.9,7.4,6.1,10.1,9.6c2.7,3.5,6.3,9.7,10.9,18.6l11.4,22.3h-22.6
		l-13.7-24.9c-4.9-9-8.3-14.6-10.1-16.9c-1.8-2.3-3.6-3.8-5.6-4.7c-2-0.9-5.2-1.3-9.5-1.3h-3.9v47.8h-19.1L1316.8,851.3
		L1316.8,851.3z M1335.7,785.2h14.1c8.6,0,14.1-0.4,16.4-1.1c2.3-0.8,4.2-2.3,5.7-4.6s2.2-5.3,2.2-9.1c0-3.6-0.7-6.6-2.2-8.8
		c-1.5-2.2-3.4-3.7-5.9-4.6c-1.8-0.6-6.9-0.9-15.4-0.9h-14.8v29.1H1335.7L1335.7,785.2z"/>
	<path fill="#FFFFFF" d="M1432.6,851.3v-95.2h-27.9v-19.4h74.6v19.4h-27.8v95.2H1432.6z"/>
	<path fill="#FFFFFF" d="M1566.7,851.3h-20.6l-8.2-25.9h-37.6l-7.8,25.9h-20.2l36.6-114.5h20.1L1566.7,851.3z M1531.8,806l-13-42.5
		l-12.7,42.5H1531.8z"/>
	<path fill="#FFFFFF" d="M1576.5,736.7h34.6c8.7,0,15.3,1,19.8,2.9c4.5,1.9,8.5,5.2,12.3,9.9c3.7,4.6,6.7,10.7,8.8,18
		c2.1,7.4,3.2,16.6,3.2,27.6c0,9.9-1.1,18.5-3.4,25.8c-2.2,7.3-5.1,13.1-8.5,17.4c-3.4,4.3-7.6,7.5-12.4,9.6
		c-4.9,2.2-11.1,3.2-18.8,3.2h-35.6L1576.5,736.7L1576.5,736.7z M1595.4,756.1v75.8h14.2c6.1,0,10.5-0.6,13.2-1.7
		c2.7-1.1,5-2.9,6.7-5.2c1.7-2.3,3.2-6,4.3-11s1.7-11.6,1.7-19.7c0-8.5-0.6-15.2-1.8-20.1s-3-8.7-5.5-11.5s-5.5-4.7-9-5.5
		c-2.7-0.7-7.8-1-15.4-1L1595.4,756.1L1595.4,756.1z"/>
</g>
<g>
	<path fill="#FFCC00" d="M-707.3,1525l209.5-38.1L-676,1375.7l208.8,40.9l-119.7-167.5l176.4,113.7l-43.1-198.3l117.2,169.1
		l40.1-198.8l40.1,198.8l117.2-169.1l-43.1,198.3l176.4-113.7l-119.7,167.5l208.8-40.9L-94.7,1487l209.5,38.1"/>
	<polyline fill="#FFCC00" points="-471.1,1525.1 -646,1474.9 -463.4,1458.9 -600.8,1348.3 -426.8,1401.3 -502.9,1249.4 
		-367.8,1362.2 -369.3,1195.4 -296.2,1348.3 -223.1,1195.4 -224.7,1362.2 -89.5,1249.4 -165.5,1401.3 8.3,1348.3 -128.9,1458.9 
		53.6,1474.9 -121.3,1525.1 	"/>
	<path fill="#FFCC00" d="M-579.7,1521.1c0-156.6,126.9-283.5,283.5-283.5s283.5,126.9,283.5,283.5"/>
</g>
<circle fill="#FFFFFF" cx="1347.8" cy="1914.3" r="212.6"/>
</svg>
