<svg width="900" height="600" version="1.0" xmlns="http://www.w3.org/2000/svg">
  <g style="stroke:none">
    <path style="fill:#cf142b;fill-opacity:1;fill-rule:nonzero;stroke:none;stroke-width:.999981" d="M-1320.4492-974.67212h899.98828v399.98978h-899.98828z" transform="translate(1320.4492 974.6875)"/>
    <path style="fill:#008033;fill-opacity:1;fill-rule:nonzero;stroke:none;stroke-width:.999981" d="M-1320.4492-578.91309h899.98828v204.22556h-899.98828z" transform="translate(1320.4492 974.6875)"/>
    <path style="color:#000;display:inline;overflow:visible;visibility:visible;fill:#fc0;fill-opacity:1;fill-rule:evenodd;stroke:none;stroke-width:7.08647;marker:none" d="M-847.81865-974.6875h-44.09318v270.83683h44.09318z" transform="translate(1320.4492 974.6875)"/>
    <path style="color:#000;display:inline;overflow:visible;visibility:visible;fill:#fff;fill-opacity:1;fill-rule:evenodd;stroke:none;stroke-width:7.08647;marker:none" d="M-861.94347-974.6875h-15.84354v294.08624h15.84354z" transform="translate(1320.4492 974.6875)"/>
    <path style="color:#000;display:inline;overflow:visible;visibility:visible;fill:#fc0;fill-opacity:1;fill-rule:evenodd;stroke:none;stroke-width:7.08647;marker:none" d="M-741.32004-974.6875h-45.74941l-76.4365 278.02415 42.5307 11.6872z" transform="translate(1320.4492 974.6875)"/>
    <path style="color:#000;display:inline;overflow:visible;visibility:visible;fill:#fc0;fill-opacity:1;fill-rule:evenodd;stroke:none;stroke-width:7.08647;marker:none" d="M-616.35292-974.6875h-51.06183l-166.74783 286.21144 38.1245 22.18693z" transform="translate(1320.4492 974.6875)"/>
    <path style="color:#000;display:inline;overflow:visible;visibility:visible;fill:#fc0;fill-opacity:1;fill-rule:evenodd;stroke:none;stroke-width:7.08647;marker:none" d="M-445.1364-974.6875h-62.49918l-296.90239 295.39871 31.1246 31.28045z" transform="translate(1320.4492 974.6875)"/>
    <path style="color:#000;display:inline;overflow:visible;visibility:visible;fill:#fc0;fill-opacity:1;fill-rule:evenodd;stroke:none;stroke-width:7.08647;marker:none" d="M-420.44922-813.87911v-50.8112L-774.9446-661.91424l21.87471 38.28028z" transform="translate(1320.4492 974.6875)"/>
    <path style="color:#000;display:inline;overflow:visible;visibility:visible;fill:#fc0;fill-opacity:1;fill-rule:evenodd;stroke:none;stroke-width:7.08647;marker:none" d="M-420.44922-679.78878v-45.74883l-335.12064 92.15389 11.68735 42.53017z" transform="translate(1320.4492 974.6875)"/>
    <path style="color:#000;display:inline;overflow:visible;visibility:visible;fill:#fc0;fill-opacity:1;fill-rule:evenodd;stroke:none;stroke-width:7.08647;marker:none" d="M-745.22624-574.69771h324.77702v-25.7181h-324.77702z" transform="translate(1320.4492 974.6875)"/>
    <path style="color:#000;display:inline;overflow:visible;visibility:visible;fill:#fff;fill-opacity:1;fill-rule:evenodd;stroke:none;stroke-width:7.08647;marker:none" d="M-755.9761-974.6875h-16.43729l-83.62391 304.17973 15.28105 4.21864zM-632.72771-974.6875h-18.34351l-182.59137 313.39825 13.71857 7.99979zM-465.19864-974.6875h-22.4372l-323.40204 321.83553 11.1561 11.21846zM-420.44922-830.15994v-18.24954l-367.68271 210.30713 7.8749 13.74965zM-420.44922-694.44466v-16.43708l-353.77664 97.27877 4.18744 15.28086z" transform="translate(1320.4492 974.6875)"/>
    <path style="color:#000;display:inline;overflow:visible;visibility:visible;fill:#fc0;fill-opacity:1;fill-rule:evenodd;stroke:none;stroke-width:7.08647;marker:none" d="M-999.57838-974.6875h45.74941l76.4365 278.02415-42.5307 11.6872z" transform="translate(1320.4492 974.6875)"/>
    <path style="color:#000;display:inline;overflow:visible;visibility:visible;fill:#fc0;fill-opacity:1;fill-rule:evenodd;stroke:none;stroke-width:7.08647;marker:none" d="M-1124.5456-974.6875h51.0619l166.74786 286.21144-38.1245 22.18693z" transform="translate(1320.4492 974.6875)"/>
    <path style="color:#000;display:inline;overflow:visible;visibility:visible;fill:#fc0;fill-opacity:1;fill-rule:evenodd;stroke:none;stroke-width:7.08647;marker:none" d="M-1295.762-974.6875h62.4992l296.90235 295.39871-31.1246 31.28045z" transform="translate(1320.4492 974.6875)"/>
    <path style="color:#000;display:inline;overflow:visible;visibility:visible;fill:#fc0;fill-opacity:1;fill-rule:evenodd;stroke:none;stroke-width:7.08647;marker:none" d="M-1320.4492-813.87911v-50.8112l354.49538 202.77607-21.87471 38.28028z" transform="translate(1320.4492 974.6875)"/>
    <path style="color:#000;display:inline;overflow:visible;visibility:visible;fill:#fc0;fill-opacity:1;fill-rule:evenodd;stroke:none;stroke-width:7.08647;marker:none" d="M-1320.4492-679.78878v-45.74883l335.12064 92.15389-11.68735 42.53017z" transform="translate(1320.4492 974.6875)"/>
    <path style="color:#000;display:inline;overflow:visible;visibility:visible;fill:#fc0;fill-opacity:1;fill-rule:evenodd;stroke:none;stroke-width:7.08647;marker:none" d="M-995.67218-574.69771h-324.77702v-25.7181h324.77702z" transform="translate(1320.4492 974.6875)"/>
    <path style="color:#000;display:inline;overflow:visible;visibility:visible;fill:#fff;fill-opacity:1;fill-rule:evenodd;stroke:none;stroke-width:7.08647;marker:none" d="M-984.92232-974.6875h16.43729l83.62391 304.17973-15.28105 4.21864zM-1108.1708-974.6875h18.3436l182.59137 313.39825-13.71857 7.99979zM-1275.6998-974.6875h22.4372l323.40206 321.83553-11.1561 11.21846zM-1320.4492-830.15994v-18.24954l367.68271 210.30713-7.8749 13.74965zM-1320.4492-694.44466v-16.43708l353.77664 97.27877-4.18744 15.28086z" transform="translate(1320.4492 974.6875)"/>
    <path style="color:#000;display:inline;overflow:visible;visibility:visible;fill:#fff;fill-opacity:1;fill-rule:evenodd;stroke:none;stroke-width:11.3958;marker:none" d="M-420.44922-574.69771h-899.99998v-11.59346h899.99998z" transform="translate(1320.4492 974.6875)"/>
    <path style="color:#000;display:inline;overflow:visible;visibility:visible;fill:#fff;fill-opacity:1;fill-rule:evenodd;stroke:none;stroke-width:7.67418;marker:none" d="M-1000.1004-574.69711a130.93864 131.33041 0 0 1 64.56142-116.29631 130.93864 131.33041 0 0 1 132.71188.0171 130.93864 131.33041 0 0 1 64.53159 116.31299" transform="translate(1320.4492 974.6875)"/>
  </g>
</svg>
