<?xml version="1.0" encoding="UTF-8" standalone="no"?>
<!-- Created with Inkscape (http://www.inkscape.org/) -->

<svg
   xmlns:dc="http://purl.org/dc/elements/1.1/"
   xmlns:cc="http://creativecommons.org/ns#"
   xmlns:rdf="http://www.w3.org/1999/02/22-rdf-syntax-ns#"
   xmlns:svg="http://www.w3.org/2000/svg"
   xmlns="http://www.w3.org/2000/svg"
   xmlns:xlink="http://www.w3.org/1999/xlink"
   xmlns:sodipodi="http://sodipodi.sourceforge.net/DTD/sodipodi-0.dtd"
   xmlns:inkscape="http://www.inkscape.org/namespaces/inkscape"
   id="svg2915"
   version="1.1"
   inkscape:version="0.47 r22583"
   width="1077"
   height="688"
   sodipodi:docname="Bandera del Estado Miranda.svg">
  <metadata
     id="metadata2921">
    <rdf:RDF>
      <cc:Work
         rdf:about="">
        <dc:format>image/svg+xml</dc:format>
        <dc:type
           rdf:resource="http://purl.org/dc/dcmitype/StillImage" />
        <dc:title />
      </cc:Work>
    </rdf:RDF>
  </metadata>
  <defs
     id="defs2919">
    <inkscape:perspective
       sodipodi:type="inkscape:persp3d"
       inkscape:vp_x="0 : 0.5 : 1"
       inkscape:vp_y="0 : 1000 : 0"
       inkscape:vp_z="1 : 0.5 : 1"
       inkscape:persp3d-origin="0.5 : 0.33333333 : 1"
       id="perspective2923" />
    <inkscape:perspective
       id="perspective4221"
       inkscape:persp3d-origin="0.5 : 0.33333333 : 1"
       inkscape:vp_z="1 : 0.5 : 1"
       inkscape:vp_y="0 : 1000 : 0"
       inkscape:vp_x="0 : 0.5 : 1"
       sodipodi:type="inkscape:persp3d" />
    <inkscape:perspective
       id="perspective4243"
       inkscape:persp3d-origin="0.5 : 0.33333333 : 1"
       inkscape:vp_z="1 : 0.5 : 1"
       inkscape:vp_y="0 : 1000 : 0"
       inkscape:vp_x="0 : 0.5 : 1"
       sodipodi:type="inkscape:persp3d" />
    <inkscape:perspective
       id="perspective2847"
       inkscape:persp3d-origin="0.5 : 0.33333333 : 1"
       inkscape:vp_z="1 : 0.5 : 1"
       inkscape:vp_y="0 : 1000 : 0"
       inkscape:vp_x="0 : 0.5 : 1"
       sodipodi:type="inkscape:persp3d" />
    <inkscape:perspective
       id="perspective2860"
       inkscape:persp3d-origin="0.5 : 0.33333333 : 1"
       inkscape:vp_z="1 : 0.5 : 1"
       inkscape:vp_y="0 : 1000 : 0"
       inkscape:vp_x="0 : 0.5 : 1"
       sodipodi:type="inkscape:persp3d" />
    <inkscape:perspective
       id="perspective2893"
       inkscape:persp3d-origin="0.5 : 0.33333333 : 1"
       inkscape:vp_z="1 : 0.5 : 1"
       inkscape:vp_y="0 : 1000 : 0"
       inkscape:vp_x="0 : 0.5 : 1"
       sodipodi:type="inkscape:persp3d" />
    <inkscape:perspective
       id="perspective2832"
       inkscape:persp3d-origin="0.5 : 0.33333333 : 1"
       inkscape:vp_z="1 : 0.5 : 1"
       inkscape:vp_y="0 : 1000 : 0"
       inkscape:vp_x="0 : 0.5 : 1"
       sodipodi:type="inkscape:persp3d" />
    <inkscape:perspective
       id="perspective4858"
       inkscape:persp3d-origin="0.5 : 0.33333333 : 1"
       inkscape:vp_z="1 : 0.5 : 1"
       inkscape:vp_y="0 : 1000 : 0"
       inkscape:vp_x="0 : 0.5 : 1"
       sodipodi:type="inkscape:persp3d" />
    <inkscape:perspective
       id="perspective4858-8"
       inkscape:persp3d-origin="0.5 : 0.33333333 : 1"
       inkscape:vp_z="1 : 0.5 : 1"
       inkscape:vp_y="0 : 1000 : 0"
       inkscape:vp_x="0 : 0.5 : 1"
       sodipodi:type="inkscape:persp3d" />
    <inkscape:perspective
       id="perspective4858-2"
       inkscape:persp3d-origin="0.5 : 0.33333333 : 1"
       inkscape:vp_z="1 : 0.5 : 1"
       inkscape:vp_y="0 : 1000 : 0"
       inkscape:vp_x="0 : 0.5 : 1"
       sodipodi:type="inkscape:persp3d" />
    <inkscape:perspective
       id="perspective4898"
       inkscape:persp3d-origin="0.5 : 0.33333333 : 1"
       inkscape:vp_z="1 : 0.5 : 1"
       inkscape:vp_y="0 : 1000 : 0"
       inkscape:vp_x="0 : 0.5 : 1"
       sodipodi:type="inkscape:persp3d" />
    <inkscape:perspective
       id="perspective4920"
       inkscape:persp3d-origin="0.5 : 0.33333333 : 1"
       inkscape:vp_z="1 : 0.5 : 1"
       inkscape:vp_y="0 : 1000 : 0"
       inkscape:vp_x="0 : 0.5 : 1"
       sodipodi:type="inkscape:persp3d" />
    <inkscape:perspective
       id="perspective4920-1"
       inkscape:persp3d-origin="0.5 : 0.33333333 : 1"
       inkscape:vp_z="1 : 0.5 : 1"
       inkscape:vp_y="0 : 1000 : 0"
       inkscape:vp_x="0 : 0.5 : 1"
       sodipodi:type="inkscape:persp3d" />
    <inkscape:perspective
       id="perspective5972"
       inkscape:persp3d-origin="323.09644 : 137.8937 : 1"
       inkscape:vp_z="646.19287 : 206.84055 : 1"
       inkscape:vp_y="0 : 1000 : 0"
       inkscape:vp_x="0 : 206.84055 : 1"
       sodipodi:type="inkscape:persp3d" />
    <inkscape:perspective
       id="perspective3052"
       inkscape:persp3d-origin="0.5 : 0.33333333 : 1"
       inkscape:vp_z="1 : 0.5 : 1"
       inkscape:vp_y="0 : 1000 : 0"
       inkscape:vp_x="0 : 0.5 : 1"
       sodipodi:type="inkscape:persp3d" />
    <inkscape:perspective
       id="perspective8700"
       inkscape:persp3d-origin="0.5 : 0.33333333 : 1"
       inkscape:vp_z="1 : 0.5 : 1"
       inkscape:vp_y="0 : 1000 : 0"
       inkscape:vp_x="0 : 0.5 : 1"
       sodipodi:type="inkscape:persp3d" />
    <inkscape:perspective
       id="perspective8722"
       inkscape:persp3d-origin="0.5 : 0.33333333 : 1"
       inkscape:vp_z="1 : 0.5 : 1"
       inkscape:vp_y="0 : 1000 : 0"
       inkscape:vp_x="0 : 0.5 : 1"
       sodipodi:type="inkscape:persp3d" />
  </defs>
  <sodipodi:namedview
     pagecolor="#ffffff"
     bordercolor="#666666"
     borderopacity="1"
     objecttolerance="10"
     gridtolerance="10"
     guidetolerance="10"
     inkscape:pageopacity="0"
     inkscape:pageshadow="2"
     inkscape:window-width="1360"
     inkscape:window-height="712"
     id="namedview2917"
     showgrid="false"
     showguides="false"
     inkscape:zoom="1.4142136"
     inkscape:cx="343.76893"
     inkscape:cy="514.65443"
     inkscape:window-x="-4"
     inkscape:window-y="-4"
     inkscape:window-maximized="1"
     inkscape:current-layer="svg2915">
    <inkscape:grid
       type="xygrid"
       id="grid2927" />
  </sodipodi:namedview>
  <rect
     style="fill:#000000;fill-opacity:1;stroke:none"
     id="rect2929"
     width="1076.8231"
     height="245.50974"
     x="0.18707044"
     y="0.17863944"
     ry="0" />
  <path
     sodipodi:type="arc"
     style="color:#000000;fill:#ebeb81;fill-opacity:1;fill-rule:evenodd;stroke:none;stroke-width:1.77191103000000010;marker:none;visibility:visible;display:inline;overflow:visible"
     id="path6663-2"
     sodipodi:cx="406.5864"
     sodipodi:cy="279.48834"
     sodipodi:rx="118.77184"
     sodipodi:ry="123.74369"
     d="m 287.81673,278.73975 a 118.77184,123.74369 0 1 1 -0.002,0.86513"
     sodipodi:start="3.1476422"
     sodipodi:end="9.4238362"
     sodipodi:open="true"
     transform="matrix(1.2621601,0,0,1.0957501,-425.31383,-136.82754)" />
  <path
     sodipodi:type="arc"
     style="color:#000000;fill:#ffff4e;fill-opacity:1;fill-rule:evenodd;stroke:none;stroke-width:1.77191103000000010;marker:none;visibility:visible;display:inline;overflow:visible"
     id="path6663-5"
     sodipodi:cx="406.5864"
     sodipodi:cy="279.48834"
     sodipodi:rx="118.77184"
     sodipodi:ry="123.74369"
     d="m 287.81673,278.73975 a 118.77184,123.74369 0 1 1 -0.002,0.86513"
     sodipodi:start="3.1476422"
     sodipodi:end="9.4238362"
     sodipodi:open="true"
     transform="matrix(1.0826215,0,0,0.9771584,-351.61974,-105.01663)" />
  <use
     xlink:href="#star"
     transform="matrix(3.42022,-9.39694,9.39694,3.42022,-98.58029,699.2147)"
     id="use25"
     x="0"
     y="0"
     width="1"
     height="1" />
  <use
     xlink:href="#star"
     transform="matrix(3.42022,-9.39694,9.39694,3.42022,-98.58029,699.2147)"
     id="use25-4"
     x="0"
     y="0"
     width="1"
     height="1" />
  <path
     sodipodi:type="arc"
     style="color:#000000;fill:#ffbd00;fill-opacity:1;fill-rule:evenodd;stroke:none;stroke-width:1.77191103;marker:none;visibility:visible;display:inline;overflow:visible"
     id="path6663"
     sodipodi:cx="406.5864"
     sodipodi:cy="279.48834"
     sodipodi:rx="118.77184"
     sodipodi:ry="123.74369"
     d="m 287.81673,278.73975 a 118.77184,123.74369 0 1 1 -0.002,0.86513"
     sodipodi:start="3.1476422"
     sodipodi:end="9.4238362"
     sodipodi:open="true"
     transform="matrix(0.89525561,0,0,0.84778562,-274.57977,-63.082572)" />
  <g
     id="g17507"
     transform="matrix(0.64811101,0,0,0.61076064,-169.82268,-20.584393)">
    <g
       transform="translate(-1.657282,0.618279)"
       id="g17347">
      <g
         id="g12850"
         transform="matrix(0.03170819,-0.446194,0.428766,-0.0283916,395.1652,400.5151)">
        <path
           sodipodi:nodetypes="csssc"
           id="path12852"
           d="m 397.65625,-88.984376 c 0,0 25.78125,-10.9375 35.9375,-25.390624 10.15625,-14.45313 12.5,-46.875 5.85938,-50.39063 -6.64063,-3.51562 -25.56992,4.2101 -34.76563,23.4375 -12.89063,26.95313 -7.42188,53.906254 -7.03125,52.343754 z"
           style="fill:#8d2001;fill-opacity:1;fill-rule:evenodd;stroke:none" />
        <path
           id="path12854"
           d="m 433.59375,-156.95313 c 0,0 -5.85937,1.17188 -18.35937,25.39063 -12.5,24.21875 -12.5,33.593749 -12.5,33.593749 0,0 5.07812,-10.156249 16.01562,-31.249999 10.9375,-21.09375 14.84375,-27.73438 14.84375,-27.73438 z"
           style="fill:#d36d2d;fill-opacity:1;fill-rule:evenodd;stroke:none" />
        <path
           sodipodi:nodetypes="cscsc"
           id="path12856"
           d="m 428.51563,-160.07813 c 0,0 -9.375,1.95313 -19.14063,21.48438 -9.76562,19.53125 -10.9375,30.85937 -10.9375,30.85937 0,0 3.18774,-21.35786 8.20313,-30.85937 10.84902,-20.55314 21.875,-21.48438 21.875,-21.48438 z"
           style="fill:#d36d2d;fill-opacity:1;fill-rule:evenodd;stroke:none" />
        <path
           sodipodi:nodetypes="cscsc"
           id="path12858"
           d="m 439.45313,-157.73438 c 0,0 -1.5625,21.09375 -7.42188,30.46875 -5.85937,9.375 -21.875,27.734379 -21.875,27.734379 0,0 10.9375,-12.109379 20.3125,-30.078129 9.375,-17.96875 8.98438,-27.73437 8.98438,-28.125 z"
           style="fill:#d36d2d;fill-opacity:1;fill-rule:evenodd;stroke:none" />
      </g>
      <g
         id="g12830"
         transform="matrix(0.580672,-0.03121112,0.107342,0.456652,83.62885,322.2916)">
        <path
           sodipodi:nodetypes="csssc"
           id="path12832"
           d="m 397.65625,-88.984376 c 0,0 25.78125,-10.9375 35.9375,-25.390624 10.15625,-14.45313 12.5,-46.875 5.85938,-50.39063 -6.64063,-3.51562 -25.56992,4.2101 -34.76563,23.4375 -12.89063,26.95313 -7.42188,53.906254 -7.03125,52.343754 z"
           style="fill:#8d2001;fill-opacity:1;fill-rule:evenodd;stroke:none" />
        <path
           id="path12834"
           d="m 433.59375,-156.95313 c 0,0 -5.85937,1.17188 -18.35937,25.39063 -12.5,24.21875 -12.5,33.593749 -12.5,33.593749 0,0 5.07812,-10.156249 16.01562,-31.249999 10.9375,-21.09375 14.84375,-27.73438 14.84375,-27.73438 z"
           style="fill:#d36d2d;fill-opacity:1;fill-rule:evenodd;stroke:none" />
        <path
           sodipodi:nodetypes="cscsc"
           id="path12836"
           d="m 428.51563,-160.07813 c 0,0 -9.375,1.95313 -19.14063,21.48438 -9.76562,19.53125 -10.9375,30.85937 -10.9375,30.85937 0,0 3.18774,-21.35786 8.20313,-30.85937 10.84902,-20.55314 21.875,-21.48438 21.875,-21.48438 z"
           style="fill:#d36d2d;fill-opacity:1;fill-rule:evenodd;stroke:none" />
        <path
           sodipodi:nodetypes="cscsc"
           id="path12838"
           d="m 439.45313,-157.73438 c 0,0 -1.5625,21.09375 -7.42188,30.46875 -5.85937,9.375 -21.875,27.734379 -21.875,27.734379 0,0 10.9375,-12.109379 20.3125,-30.078129 9.375,-17.96875 8.98438,-27.73437 8.98438,-28.125 z"
           style="fill:#d36d2d;fill-opacity:1;fill-rule:evenodd;stroke:none" />
      </g>
      <g
         id="g12840"
         transform="matrix(0.362453,-0.312128,0.339759,0.288235,234.6133,412.4092)">
        <path
           sodipodi:nodetypes="csssc"
           id="path12842"
           d="m 397.65625,-88.984376 c 0,0 25.78125,-10.9375 35.9375,-25.390624 10.15625,-14.45313 12.5,-46.875 5.85938,-50.39063 -6.64063,-3.51562 -25.56992,4.2101 -34.76563,23.4375 -12.89063,26.95313 -7.42188,53.906254 -7.03125,52.343754 z"
           style="fill:#8d2001;fill-opacity:1;fill-rule:evenodd;stroke:none" />
        <path
           id="path12844"
           d="m 433.59375,-156.95313 c 0,0 -5.85937,1.17188 -18.35937,25.39063 -12.5,24.21875 -12.5,33.593749 -12.5,33.593749 0,0 5.07812,-10.156249 16.01562,-31.249999 10.9375,-21.09375 14.84375,-27.73438 14.84375,-27.73438 z"
           style="fill:#d36d2d;fill-opacity:1;fill-rule:evenodd;stroke:none" />
        <path
           sodipodi:nodetypes="cscsc"
           id="path12846"
           d="m 428.51563,-160.07813 c 0,0 -9.375,1.95313 -19.14063,21.48438 -9.76562,19.53125 -10.9375,30.85937 -10.9375,30.85937 0,0 3.18774,-21.35786 8.20313,-30.85937 10.84902,-20.55314 21.875,-21.48438 21.875,-21.48438 z"
           style="fill:#d36d2d;fill-opacity:1;fill-rule:evenodd;stroke:none" />
        <path
           sodipodi:nodetypes="cscsc"
           id="path12848"
           d="m 439.45313,-157.73438 c 0,0 -1.5625,21.09375 -7.42188,30.46875 -5.85937,9.375 -21.875,27.734379 -21.875,27.734379 0,0 10.9375,-12.109379 20.3125,-30.078129 9.375,-17.96875 8.98438,-27.73437 8.98438,-28.125 z"
           style="fill:#d36d2d;fill-opacity:1;fill-rule:evenodd;stroke:none" />
      </g>
      <g
         id="g12814"
         transform="matrix(0.59172,-0.192806,0.25314,0.521413,127.5482,439.5849)">
        <path
           sodipodi:nodetypes="csssc"
           id="path11060"
           d="m 397.65625,-88.984376 c 0,0 25.78125,-10.9375 35.9375,-25.390624 10.15625,-14.45313 12.5,-46.875 5.85938,-50.39063 -6.64063,-3.51562 -25.56992,4.2101 -34.76563,23.4375 -12.89063,26.95313 -7.42188,53.906254 -7.03125,52.343754 z"
           style="fill:#8d2001;fill-opacity:1;fill-rule:evenodd;stroke:none" />
        <path
           id="path11062"
           d="m 433.59375,-156.95313 c 0,0 -5.85937,1.17188 -18.35937,25.39063 -12.5,24.21875 -12.5,33.593749 -12.5,33.593749 0,0 5.07812,-10.156249 16.01562,-31.249999 10.9375,-21.09375 14.84375,-27.73438 14.84375,-27.73438 z"
           style="fill:#d36d2d;fill-opacity:1;fill-rule:evenodd;stroke:none" />
        <path
           sodipodi:nodetypes="cscsc"
           id="path11064"
           d="m 428.51563,-160.07813 c 0,0 -9.375,1.95313 -19.14063,21.48438 -9.76562,19.53125 -10.9375,30.85937 -10.9375,30.85937 0,0 3.18774,-21.35786 8.20313,-30.85937 10.84902,-20.55314 21.875,-21.48438 21.875,-21.48438 z"
           style="fill:#d36d2d;fill-opacity:1;fill-rule:evenodd;stroke:none" />
        <path
           sodipodi:nodetypes="cscsc"
           id="path11066"
           d="m 439.45313,-157.73438 c 0,0 -1.5625,21.09375 -7.42188,30.46875 -5.85937,9.375 -21.875,27.734379 -21.875,27.734379 0,0 10.9375,-12.109379 20.3125,-30.078129 9.375,-17.96875 8.98438,-27.73437 8.98438,-28.125 z"
           style="fill:#d36d2d;fill-opacity:1;fill-rule:evenodd;stroke:none" />
      </g>
      <path
         style="fill:#008400;fill-opacity:1;fill-rule:evenodd;stroke:#004242;stroke-width:1.77165353;stroke-linecap:butt;stroke-linejoin:miter;stroke-miterlimit:4;stroke-opacity:1;stroke-dasharray:none"
         d="m 423.04688,357.89062 c -14.0625,-7.03125 -32.03125,-16.01562 -39.0625,-19.14062 -7.03125,-3.125 -18.75,-7.8125 -24.21875,-16.01563 -5.46875,-8.20312 -26.17188,-22.65625 -26.17188,-27.34375 0,-4.6875 -1.5625,-37.89063 -3.125,-42.57813 -1.5625,-4.6875 -1.17187,-17.57812 3.12501,-22.65625 4.97655,-5.88137 10.15624,-17.18749 12.89062,-22.26562 2.73437,-5.07812 17.1875,-14.84375 12.5,-16.40625 C 354.29688,189.92187 337.5,210.625 337.5,212.1875 c 0,1.5625 -12.5,19.53125 -12.5,19.53125 l -1.17187,20.3125 7.03125,50 39.45312,39.45312 c 0,0 12.10938,4.6875 13.67188,7.42188 1.5625,2.73437 16.40625,7.8125 21.875,9.76562 5.46875,1.95313 11.32812,7.8125 11.32812,7.8125 l 5.85938,-8.59375 z"
         id="path1391"
         sodipodi:nodetypes="cssssssssccccsscc" />
      <path
         style="fill:#b94100;fill-opacity:1;fill-rule:evenodd;stroke:#004242;stroke-width:1.77165353;stroke-linecap:butt;stroke-linejoin:miter;stroke-miterlimit:4;stroke-opacity:1;stroke-dasharray:none"
         d="m 418.35938,361.01562 c -2.14844,2.73438 -1.36719,5.46875 -1.36719,5.46875 0,0 1.36719,2.92969 3.90625,4.49219 2.53906,1.5625 6.83594,1.17188 8.59375,-0.39062 1.75781,-1.5625 -1.17188,-7.22657 -2.34375,-8.20313 -1.17188,-0.97656 -4.49219,-4.29687 -4.49219,-4.29687 l -4.29687,2.92968 z"
         id="path1393" />
      <path
         style="fill:#008400;fill-opacity:1;fill-rule:evenodd;stroke:#004242;stroke-width:1.77165353;stroke-linecap:butt;stroke-linejoin:miter;stroke-miterlimit:4;stroke-opacity:1;stroke-dasharray:none"
         d="m 330.46875,245.78124 c 0,7.8125 3.125,18.35938 5.46875,23.4375 2.34375,5.07813 12.89062,8.98438 13.28125,13.28125 0.39062,4.29688 6.25,15.23438 6.25,15.23438 0,0 6.64062,-15.23438 3.51562,-23.4375 -3.125,-8.20313 -16.40625,-25 -19.92187,-26.95313 -3.51563,-1.95312 -7.8125,-1.5625 -8.59375,-1.5625 z"
         id="path1375" />
      <path
         style="fill:#008400;fill-opacity:1;fill-rule:evenodd;stroke:#004242;stroke-width:1.77165353;stroke-linecap:butt;stroke-linejoin:miter;stroke-miterlimit:4;stroke-opacity:1;stroke-dasharray:none"
         d="m 328.90626,224.68749 c 0,0 -8.98438,-5.85937 -12.5,-5.46875 -3.51563,0.39063 -11.32813,4.29688 -13.67188,8.20313 -2.34375,3.90625 -6.25,18.35937 -6.25,18.35937 0,0 11.32813,-5.46875 14.84375,-7.8125 3.51563,-2.34375 10.15625,-1.17187 12.10938,-4.29687 1.95312,-3.125 6.25,-8.20313 5.46875,-8.98438 z"
         id="path1377" />
      <path
         style="fill:#008400;fill-opacity:1;fill-rule:evenodd;stroke:#004242;stroke-width:1.77165353;stroke-linecap:butt;stroke-linejoin:miter;stroke-miterlimit:4;stroke-opacity:1;stroke-dasharray:none"
         d="m 333.98438,223.90625 c 2.73437,-0.39062 9.76562,-3.51562 14.45312,-1.17187 4.6875,2.34375 9.76563,6.25 12.10938,10.54687 2.34375,4.29688 2.73437,21.875 2.73437,21.875 0,0 -14.45312,-14.0625 -16.79687,-17.1875 -2.34375,-3.125 -12.10938,-13.28125 -12.5,-14.0625 z"
         id="path1379" />
      <path
         style="fill:#008400;fill-opacity:1;fill-rule:evenodd;stroke:#004242;stroke-width:1.77165353;stroke-linecap:butt;stroke-linejoin:miter;stroke-miterlimit:4;stroke-opacity:1;stroke-dasharray:none"
         d="m 334.375,215.70312 c 0,0 4.29688,-7.03125 2.34375,-10.9375 -1.95312,-3.90625 -8.20312,-7.8125 -11.32812,-7.8125 -3.125,0 -8.20313,2.73438 -12.89063,5.07813 -4.6875,2.34375 -5.46875,13.28125 -5.46875,16.01562 0,2.73438 8.59375,-6.64062 11.32813,-7.8125 2.73437,-1.17187 8.98437,0 10.54687,0 l 5.46875,5.46875 z"
         id="path1381" />
      <path
         style="fill:#008400;fill-opacity:1;fill-rule:evenodd;stroke:#004242;stroke-width:1.77165353;stroke-linecap:butt;stroke-linejoin:miter;stroke-miterlimit:4;stroke-opacity:1;stroke-dasharray:none"
         d="m 340.625,205.15625 c 0,0 9.76563,-0.39063 10.54688,-3.51563 0.78125,-3.125 1.17187,-9.375 -1.5625,-10.9375 -2.73438,-1.5625 -22.65625,-2.34375 -22.65625,-2.34375 0,0 11.32812,2.73438 11.71875,6.64063 0.39062,3.90625 0,8.20312 0,8.20312 l 1.95312,1.95313 z"
         id="path1383" />
      <path
         style="fill:#008400;fill-opacity:1;fill-rule:evenodd;stroke:#004242;stroke-width:1.77165353;stroke-linecap:butt;stroke-linejoin:miter;stroke-miterlimit:4;stroke-opacity:1;stroke-dasharray:none"
         d="m 351.95313,313.75 c 0,0 -4.6875,4.29687 -7.8125,6.64062 -3.125,2.34375 -3.51563,14.84375 -3.51563,19.53125 0,4.6875 1.17188,18.35938 1.17188,18.35938 0,0 10.15625,-2.34375 10.15625,-6.64063 0,-4.29687 2.73437,-10.54687 2.73437,-10.54687 0,0 6.25,-6.64063 6.64063,-10.9375 0.39062,-4.29688 -8.59375,-16.01563 -9.375,-16.40625 z"
         id="path1387" />
      <path
         style="fill:#008400;fill-opacity:1;fill-rule:evenodd;stroke:#004242;stroke-width:1.77165353;stroke-linecap:butt;stroke-linejoin:miter;stroke-miterlimit:4;stroke-opacity:1;stroke-dasharray:none"
         d="m 353.125,303.59375 c 0,0 8.98438,-2.34375 14.0625,0 5.07813,2.34375 9.375,7.42187 10.54688,15.625 1.17187,8.20312 1.95312,19.92187 1.17187,24.21875 -0.78125,4.29687 -5.85937,11.32812 -5.85937,11.32812 0,0 0.39062,-8.98437 -1.17188,-12.10937 -1.5625,-3.125 -5.46875,-3.90625 -5.85937,-6.64063 -0.39063,-2.73437 0.78125,-5.46875 -0.39063,-8.59375 -1.17187,-3.125 -8.59375,-8.98437 -10.54687,-10.9375 -1.95313,-1.95312 -4.29688,-5.85937 -4.29688,-8.59375 0,-2.73437 2.73438,-3.90625 2.34375,-4.29687 z"
         id="path1389" />
      <g
         id="g12820"
         transform="matrix(0.685504,-0.346439,0.415701,0.571289,90.446,535.0659)">
        <path
           sodipodi:nodetypes="csssc"
           id="path12822"
           d="m 397.65625,-88.984376 c 0,0 25.78125,-10.9375 35.9375,-25.390624 10.15625,-14.45313 12.5,-46.875 5.85938,-50.39063 -6.64063,-3.51562 -25.56992,4.2101 -34.76563,23.4375 -12.89063,26.95313 -7.42188,53.906254 -7.03125,52.343754 z"
           style="fill:#8d2001;fill-opacity:1;fill-rule:evenodd;stroke:none" />
        <path
           id="path12824"
           d="m 433.59375,-156.95313 c 0,0 -5.85937,1.17188 -18.35937,25.39063 -12.5,24.21875 -12.5,33.593749 -12.5,33.593749 0,0 5.07812,-10.156249 16.01562,-31.249999 10.9375,-21.09375 14.84375,-27.73438 14.84375,-27.73438 z"
           style="fill:#d36d2d;fill-opacity:1;fill-rule:evenodd;stroke:none" />
        <path
           sodipodi:nodetypes="cscsc"
           id="path12826"
           d="m 428.51563,-160.07813 c 0,0 -9.375,1.95313 -19.14063,21.48438 -9.76562,19.53125 -10.9375,30.85937 -10.9375,30.85937 0,0 3.18774,-21.35786 8.20313,-30.85937 10.84902,-20.55314 21.875,-21.48438 21.875,-21.48438 z"
           style="fill:#d36d2d;fill-opacity:1;fill-rule:evenodd;stroke:none" />
        <path
           sodipodi:nodetypes="cscsc"
           id="path12828"
           d="m 439.45313,-157.73438 c 0,0 -1.5625,21.09375 -7.42188,30.46875 -5.85937,9.375 -21.875,27.734379 -21.875,27.734379 0,0 10.9375,-12.109379 20.3125,-30.078129 9.375,-17.96875 8.98438,-27.73437 8.98438,-28.125 z"
           style="fill:#d36d2d;fill-opacity:1;fill-rule:evenodd;stroke:none" />
      </g>
      <path
         style="fill:#008400;fill-opacity:1;fill-rule:evenodd;stroke:#004242;stroke-width:1.77165353;stroke-linecap:butt;stroke-linejoin:miter;stroke-miterlimit:4;stroke-opacity:1;stroke-dasharray:none"
         d="m 324.60938,251.25 c 0,0 -11.32813,3.51562 -13.67188,10.9375 -2.34375,7.42187 -10.15625,23.82812 -8.20312,31.64062 1.95312,7.8125 5.46875,24.21875 5.46875,24.21875 0,0 7.03125,-10.9375 13.28125,-19.92187 6.25,-8.98438 10.15625,-21.875 10.54687,-30.46875 0.39063,-8.59375 -7.42187,-15.625 -7.42187,-16.40625 z"
         id="path1373" />
      <g
         id="g17330"
         transform="translate(-24.99734,-10.63422)">
        <path
           id="path12917"
           d="m 395.54132,181.90831 c -0.36131,0.31972 -1.86298,1.67167 -2.71875,2.90625 -0.18667,0.2693 -0.40067,0.62537 -0.65625,1.03125 -0.003,0.004 -0.0287,-0.004 -0.0312,0 -0.75982,-0.0358 -1.41478,-0.12965 -1.75,-0.3125 -0.0261,-0.0154 -0.0719,-0.0459 -0.0937,-0.0625 -0.0271,-0.0227 -0.0749,-0.0688 -0.0937,-0.0937 -0.004,-0.006 0.004,-0.0247 0,-0.0312 -0.41343,-0.74349 -1.21516,-2.27768 -1.4375,-2.5625 -0.007,-0.008 -0.0256,-0.0261 -0.0312,-0.0312 -0.0236,0.0102 -0.0712,0.0189 -0.0937,0.0312 -0.0369,0.0217 -0.0909,0.0664 -0.125,0.0937 -0.0268,0.0227 -0.0686,0.0677 -0.0937,0.0937 -0.0124,0.0134 -0.0505,0.0483 -0.0625,0.0625 -0.64806,0.80106 -0.72713,2.75017 -1.25,3.71875 -0.57991,1.07424 -7.2637,12.02541 -7.5,13.46875 -7.5e-4,0.006 5.3e-4,0.026 0,0.0312 -3.1e-4,0.005 9e-5,0.0266 0,0.0312 1.4e-4,0.004 -3.6e-4,0.0273 0,0.0312 8.2e-4,0.003 -0.001,0.0283 0,0.0312 0.002,0.002 0.0295,-0.002 0.0312,0 0.38978,0.41986 2.40235,2.4837 4.125,2.6875 -0.43716,0.11087 -0.78577,0.26976 -0.96875,0.4375 -0.0128,0.0126 -0.0514,0.0496 -0.0625,0.0625 -0.005,0.007 -0.0265,0.0246 -0.0312,0.0312 -0.0506,0.0752 -0.0919,0.18706 -0.125,0.28125 -0.28102,0.85244 0.10424,2.36865 0.65625,2.84375 0.006,0.005 0.0256,0.0268 0.0312,0.0312 0.006,0.004 0.0255,0.0273 0.0312,0.0312 0.0232,0.015 0.0701,0.0201 0.0937,0.0312 0.006,0.003 0.0253,0.029 0.0312,0.0312 0.006,0.002 0.0252,-0.002 0.0312,0 0.0181,0.005 0.0443,0.0291 0.0625,0.0312 0.77875,0.0918 5.96722,1.85907 7.15625,1.5 1.18904,-0.35906 3.2743,-1.37359 4.125,-2.125 0.24351,-0.21509 0.59654,-0.46774 0.96875,-0.75 0.0762,0.31402 0.1299,0.57553 0.1875,0.6875 0.002,0.003 -0.002,0.0288 0,0.0312 0.002,0.002 0.0295,-0.002 0.0312,0 9.3e-4,3.9e-4 0.0303,-3.2e-4 0.0312,0 0.002,-0.001 0.0289,0.002 0.0312,0 0.003,-0.003 0.0282,-0.0278 0.0312,-0.0312 0.16157,-0.20777 0.50105,-0.91869 0.875,-1.71875 0.0511,-0.061 0.0924,-0.13198 0.125,-0.1875 0.003,-0.007 -0.003,-0.0239 0,-0.0312 0.007,-0.0122 0.0255,-0.0194 0.0312,-0.0312 0.003,-0.006 0.0289,-0.0255 0.0312,-0.0312 0.002,-0.006 -0.002,-0.0257 0,-0.0312 0.003,-0.007 -0.003,-0.0239 0,-0.0312 8.9e-4,-0.005 -6e-4,-0.026 0,-0.0312 0.51172,-1.11269 1.04952,-2.33238 1.21875,-2.75 0.32444,-0.80068 1.96488,-2.06108 2.15625,-2.625 0.001,-0.004 0.0303,-0.027 0.0312,-0.0312 7.6e-4,-0.004 -4.9e-4,-0.0271 0,-0.0312 -3e-5,-0.004 2.8e-4,-0.0272 0,-0.0312 -5.3e-4,-0.004 7.7e-4,-0.0272 0,-0.0312 -0.002,-0.008 -0.0283,-0.0233 -0.0312,-0.0312 -0.002,-0.004 0.002,-0.0274 0,-0.0312 -0.002,-0.004 -0.0287,-0.0274 -0.0312,-0.0312 -0.27747,-0.34951 -1.42799,-0.58583 -1.8125,-0.65625 -0.012,-0.007 -0.0188,-0.0245 -0.0312,-0.0312 -0.0142,-0.003 -0.0202,0.002 -0.0312,0 -0.22989,-0.1204 -0.53542,-0.26628 -0.8125,-0.375 2.09546,-1.87535 4.74663,-4.78023 5.75,-6.5625 1.03635,-1.84088 0.8934,-3.36253 0.21875,-4.125 -0.014,-0.0152 -0.048,-0.0479 -0.0625,-0.0625 -0.0147,-0.0143 -0.0474,-0.0489 -0.0625,-0.0625 -0.17631,-0.15293 -0.3997,-0.28376 -0.625,-0.34375 -0.71283,-0.18979 -2.06352,0.01 -3.09375,0.21875 -0.2032,-1.28278 -0.63048,-2.47772 -1.0625,-2.84375 -0.0266,-0.021 -0.0671,-0.0479 -0.0937,-0.0625 -0.85413,-0.46743 -1.65817,-1.05823 -3.34375,-0.0312 -0.26337,0.16047 -0.57008,0.39666 -0.875,0.6875 l 1,-2.3125 z"
           style="fill:none;stroke:#701014;stroke-width:1.77165353;stroke-linecap:butt;stroke-linejoin:miter;stroke-miterlimit:4;stroke-opacity:1;stroke-dasharray:none" />
        <g
           style="stroke:none"
           transform="matrix(0.256431,-0.06046875,-0.07364635,0.302247,226.6495,294.201)"
           id="g12900">
          <path
             style="fill:#701014;fill-opacity:1;fill-rule:evenodd;stroke:none"
             d="m 558.22767,-256.91843 c -3.72889,0.69053 -1.24296,9.25315 -2.62403,12.70582 -1.38107,3.45267 -19.61117,39.49854 -17.26335,41.57015 2.34781,2.0716 15.88228,13.53446 22.92573,13.25825 7.04344,-0.27622 37.61038,8.06851 41.15582,2.48592 5.13512,-8.08569 -3.17645,-53.72354 -7.87209,-53.58543 -4.69563,0.13811 -24.85922,-2.76214 -27.62136,-6.0767 -2.76213,-3.31457 -8.42451,-10.49612 -8.70072,-10.35801 z"
             id="path12872"
             sodipodi:nodetypes="cssssssc" />
          <path
             style="fill:#ba1126;fill-opacity:1;fill-rule:evenodd;stroke:none"
             d="m 585.84902,-254.43251 c 0,0 -5.93859,4.00509 -8.56262,8.1483 -2.62403,4.1432 -8.28641,15.74417 -6.35291,17.40145 1.93349,1.65728 11.04854,-11.04854 11.04854,-11.04854 l 3.86699,-14.50121 z"
             id="path12891" />
          <path
             style="fill:#cf1735;fill-opacity:1;fill-rule:evenodd;stroke:none"
             d="m 597.86431,-246.008 c 0,0 4.1432,2.62403 5.66238,5.24806 1.51917,2.62403 2.90024,8.97694 2.90024,8.97694 l -14.50121,11.18665 -15.88228,-13.67257 5.52427,-10.0818 10.49612,-4.00509 5.80048,2.34781 z"
             id="path12898" />
          <path
             style="fill:#bd0412;fill-opacity:1;fill-rule:evenodd;stroke:none"
             d="m 588.61115,-238.55022 c 2.30183,1.13621 3.07057,3.85714 3.36062,6.21411 0.37614,3.0328 0.1518,6.10718 -0.32226,9.11573 -3.72889,2.76213 -7.45776,5.52428 -11.18664,8.28641 -2.16368,-2.34781 -4.32735,-4.69563 -6.49103,-7.04345 0.32225,-3.63681 0.64449,-7.27362 0.96674,-10.91043 4.55752,-1.88746 3.59078,-7.5038 13.67257,-5.66237 z"
             id="path12893"
             sodipodi:nodetypes="csccccc" />
          <path
             style="fill:#e24b74;fill-opacity:1;fill-rule:evenodd;stroke:none"
             d="m 614.02281,-196.01334 c 0,0 8.97694,2.90024 9.11504,4.69563 0.13811,1.79539 -5.80048,4.97185 -6.35291,7.59587 -0.55243,2.62403 -3.72888,15.05365 -4.69563,15.19175 -0.96675,0.13811 -3.45267,-8.83883 -9.39126,-10.49611 -5.93859,-1.65729 2.34781,-12.42962 2.34781,-12.42962 l 8.97695,-4.55752 z"
             id="path12887" />
          <path
             style="fill:#ad040b;fill-opacity:1;fill-rule:evenodd;stroke:none"
             d="m 606.97936,-199.60412 c 0,0 9.25315,4.14321 9.25315,5.10995 0,0.96675 -8.70072,10.49612 -9.94368,11.60098 -1.24297,1.10485 -15.46797,5.93859 -15.46797,5.93859 l -6.35291,-21.26845 22.51141,-1.38107 z"
             id="path12885" />
          <path
             style="fill:#bb0713;fill-opacity:1;fill-rule:evenodd;stroke:none"
             d="m 587.64441,-185.51722 c -15.19175,-2.90025 -31.62646,-5.80049 -33.28374,-3.31457 -1.65728,2.48593 3.31456,11.18665 6.62913,12.1534 3.31456,0.96675 26.5165,11.46286 31.07403,11.18665 4.55752,-0.27621 12.15339,-2.0716 14.91553,-4.0051 2.76214,-1.93349 11.04854,-4.97184 6.0767,-6.90534 -4.97185,-1.93349 -25.54976,-8.83883 -25.41165,-9.11504 z"
             id="path12870" />
          <path
             style="fill:#c90d28;fill-opacity:1;fill-rule:evenodd;stroke:none"
             d="m 560.57548,-228.60655 c -8.2892,4.54682 -4.28131,26.3784 -1.24296,29.83107 3.03835,3.45267 27.75946,12.29151 29.69296,12.29151 1.93349,0 4.00509,-1.65728 4.00509,-1.65728 l -20.3017,-13.12015 c 0,0 -3.97057,-31.83362 -12.15339,-27.34515 z"
             id="path12876"
             sodipodi:nodetypes="cssccz" />
          <path
             style="fill:#bf0b16;fill-opacity:1;fill-rule:evenodd;stroke:none"
             d="m 566.23785,-225.15387 c 0.41432,0.96674 0.82865,3.03834 0.82865,4.97184 0,1.93349 -2.90025,10.63422 -1.10486,13.12015 1.79539,2.48592 11.18665,-3.31457 15.74418,-6.62913 4.55752,-3.31456 9.52936,-8.42451 6.62912,-7.87209 -2.90024,0.55243 -22.3733,-3.72888 -22.09709,-3.59077 z"
             id="path12889"
             sodipodi:nodetypes="cssssc" />
          <path
             style="fill:#c5102f;fill-opacity:1;fill-rule:evenodd;stroke:none"
             d="m 602.97426,-234.54514 c 0,0 12.42961,-0.41432 17.95389,1.79539 5.52427,2.20971 9.94368,9.25316 6.76723,16.57282 -3.17646,7.31966 -16.57282,19.33495 -23.47816,21.95898 -6.90534,2.62403 -17.67767,5.52427 -18.23009,5.24806 -0.55243,-0.27622 -18.78253,-16.57282 -18.78253,-16.57282 l 36.04588,-28.45 -0.27622,-0.55243 z"
             id="path12880" />
          <path
             style="fill:#b9000d;fill-opacity:1;fill-rule:evenodd;stroke:none"
             d="m 588.33494,-192.28446 c 0,0 -7.18155,2.48593 1.9335,0.41432 9.11505,-2.0716 8.83883,-2.62403 8.83883,-2.62403 0,0 18.09199,-6.90533 21.26845,-16.02038 3.17645,-9.11505 5.52427,-8.97694 1.93349,-13.53447 -3.59077,-4.55752 -16.71092,-3.86699 -16.71092,-3.86699 l -35.63155,24.16869 18.3682,11.46286 z"
             id="path12878" />
          <path
             style="fill:#d54688;fill-opacity:1;fill-rule:evenodd;stroke:none"
             d="m 589.5779,-207.06188 c 1.9335,6.62912 9.66748,-5.52428 11.32476,-6.62913 1.65728,-1.10485 9.39126,-4.0051 10.2199,-9.80558 0.82864,-5.80049 -6.49102,-19.88738 -10.49611,-22.2352 -4.0051,-2.34781 -8.0102,-5.10995 -13.94879,-2.90024 -5.93859,2.20971 -13.39636,14.50121 -13.53446,18.78253 -0.13811,4.28131 -0.55243,6.35291 0.82864,6.2148 1.38106,-0.13811 0.96674,-7.45777 3.45267,-10.63422 2.48592,-3.17646 2.48592,-9.25316 7.18155,-10.91044 4.69563,-1.65728 4.69563,-1.65728 4.69563,-1.65728 l 0.27621,-0.82864 c 0,0 8.1483,1.93349 9.25316,3.03835 1.10485,1.10485 7.87209,10.08179 8.01019,12.70582 0.13811,2.62403 3.86699,6.62913 1.24296,9.25316 -2.62403,2.62403 -6.62912,7.59587 -8.1483,7.73398 -1.51917,0.13811 -2.0716,-0.13811 -6.0767,2.62403 -4.00509,2.76213 -4.41941,5.52427 -4.28131,5.24806 z"
             id="path12882" />
          <path
             style="fill:#d22e53;fill-opacity:1;fill-rule:evenodd;stroke:none"
             d="m 558.50387,-230.95436 c -8.70072,-4.1432 -3.17645,11.87719 1.10486,19.05874 4.28131,7.18155 19.47306,19.05874 24.72112,21.82087 5.24805,2.76214 12.70582,6.62913 13.25825,4.83374 0.55242,-1.79539 -3.45267,-5.10995 -5.10995,-6.21481 -1.65729,-1.10485 -12.29151,-6.49102 -18.50631,-11.73907 -6.21481,-5.24806 -13.25826,-13.53447 -12.98204,-19.05874 0.27621,-5.52427 -2.62403,-8.70073 -2.48593,-8.70073 z"
             id="path12874" />
        </g>
      </g>
      <path
         style="fill:#008400;fill-opacity:1;fill-rule:evenodd;stroke:#004242;stroke-width:1.77165353;stroke-linecap:butt;stroke-linejoin:miter;stroke-miterlimit:4;stroke-opacity:1;stroke-dasharray:none"
         d="m 347.26563,199.29687 c 0,0 5.46875,-1.5625 12.10937,-1.5625 6.64063,0 12.10938,1.5625 12.10938,5.46875 0,3.90625 -1.95313,15.23438 -1.95313,15.23438 0,0 -1.17187,-4.6875 -3.51562,-8.59375 -2.34375,-3.90625 -10.54688,-7.8125 -12.10938,-7.8125 -1.5625,0 -5.85937,-3.125 -6.64062,-2.73438 z"
         id="path1385" />
    </g>
    <g
       transform="matrix(-1,0,0,1,809.0711,0.618279)"
       id="g17401">
      <g
         id="g17403"
         transform="matrix(0.03170819,-0.446194,0.428766,-0.0283916,395.1652,400.5151)">
        <path
           sodipodi:nodetypes="csssc"
           id="path17405"
           d="m 397.65625,-88.984376 c 0,0 25.78125,-10.9375 35.9375,-25.390624 10.15625,-14.45313 12.5,-46.875 5.85938,-50.39063 -6.64063,-3.51562 -25.56992,4.2101 -34.76563,23.4375 -12.89063,26.95313 -7.42188,53.906254 -7.03125,52.343754 z"
           style="fill:#8d2001;fill-opacity:1;fill-rule:evenodd;stroke:none" />
        <path
           id="path17407"
           d="m 433.59375,-156.95313 c 0,0 -5.85937,1.17188 -18.35937,25.39063 -12.5,24.21875 -12.5,33.593749 -12.5,33.593749 0,0 5.07812,-10.156249 16.01562,-31.249999 10.9375,-21.09375 14.84375,-27.73438 14.84375,-27.73438 z"
           style="fill:#d36d2d;fill-opacity:1;fill-rule:evenodd;stroke:none" />
        <path
           sodipodi:nodetypes="cscsc"
           id="path17409"
           d="m 428.51563,-160.07813 c 0,0 -9.375,1.95313 -19.14063,21.48438 -9.76562,19.53125 -10.9375,30.85937 -10.9375,30.85937 0,0 3.18774,-21.35786 8.20313,-30.85937 10.84902,-20.55314 21.875,-21.48438 21.875,-21.48438 z"
           style="fill:#d36d2d;fill-opacity:1;fill-rule:evenodd;stroke:none" />
        <path
           sodipodi:nodetypes="cscsc"
           id="path17411"
           d="m 439.45313,-157.73438 c 0,0 -1.5625,21.09375 -7.42188,30.46875 -5.85937,9.375 -21.875,27.734379 -21.875,27.734379 0,0 10.9375,-12.109379 20.3125,-30.078129 9.375,-17.96875 8.98438,-27.73437 8.98438,-28.125 z"
           style="fill:#d36d2d;fill-opacity:1;fill-rule:evenodd;stroke:none" />
      </g>
      <g
         id="g17413"
         transform="matrix(0.580672,-0.03121112,0.107342,0.456652,83.62885,322.2916)">
        <path
           sodipodi:nodetypes="csssc"
           id="path17415"
           d="m 397.65625,-88.984376 c 0,0 25.78125,-10.9375 35.9375,-25.390624 10.15625,-14.45313 12.5,-46.875 5.85938,-50.39063 -6.64063,-3.51562 -25.56992,4.2101 -34.76563,23.4375 -12.89063,26.95313 -7.42188,53.906254 -7.03125,52.343754 z"
           style="fill:#8d2001;fill-opacity:1;fill-rule:evenodd;stroke:none" />
        <path
           id="path17417"
           d="m 433.59375,-156.95313 c 0,0 -5.85937,1.17188 -18.35937,25.39063 -12.5,24.21875 -12.5,33.593749 -12.5,33.593749 0,0 5.07812,-10.156249 16.01562,-31.249999 10.9375,-21.09375 14.84375,-27.73438 14.84375,-27.73438 z"
           style="fill:#d36d2d;fill-opacity:1;fill-rule:evenodd;stroke:none" />
        <path
           sodipodi:nodetypes="cscsc"
           id="path17419"
           d="m 428.51563,-160.07813 c 0,0 -9.375,1.95313 -19.14063,21.48438 -9.76562,19.53125 -10.9375,30.85937 -10.9375,30.85937 0,0 3.18774,-21.35786 8.20313,-30.85937 10.84902,-20.55314 21.875,-21.48438 21.875,-21.48438 z"
           style="fill:#d36d2d;fill-opacity:1;fill-rule:evenodd;stroke:none" />
        <path
           sodipodi:nodetypes="cscsc"
           id="path17421"
           d="m 439.45313,-157.73438 c 0,0 -1.5625,21.09375 -7.42188,30.46875 -5.85937,9.375 -21.875,27.734379 -21.875,27.734379 0,0 10.9375,-12.109379 20.3125,-30.078129 9.375,-17.96875 8.98438,-27.73437 8.98438,-28.125 z"
           style="fill:#d36d2d;fill-opacity:1;fill-rule:evenodd;stroke:none" />
      </g>
      <g
         id="g17423"
         transform="matrix(0.362453,-0.312128,0.339759,0.288235,234.6133,412.4092)">
        <path
           sodipodi:nodetypes="csssc"
           id="path17425"
           d="m 397.65625,-88.984376 c 0,0 25.78125,-10.9375 35.9375,-25.390624 10.15625,-14.45313 12.5,-46.875 5.85938,-50.39063 -6.64063,-3.51562 -25.56992,4.2101 -34.76563,23.4375 -12.89063,26.95313 -7.42188,53.906254 -7.03125,52.343754 z"
           style="fill:#8d2001;fill-opacity:1;fill-rule:evenodd;stroke:none" />
        <path
           id="path17427"
           d="m 433.59375,-156.95313 c 0,0 -5.85937,1.17188 -18.35937,25.39063 -12.5,24.21875 -12.5,33.593749 -12.5,33.593749 0,0 5.07812,-10.156249 16.01562,-31.249999 10.9375,-21.09375 14.84375,-27.73438 14.84375,-27.73438 z"
           style="fill:#d36d2d;fill-opacity:1;fill-rule:evenodd;stroke:none" />
        <path
           sodipodi:nodetypes="cscsc"
           id="path17429"
           d="m 428.51563,-160.07813 c 0,0 -9.375,1.95313 -19.14063,21.48438 -9.76562,19.53125 -10.9375,30.85937 -10.9375,30.85937 0,0 3.18774,-21.35786 8.20313,-30.85937 10.84902,-20.55314 21.875,-21.48438 21.875,-21.48438 z"
           style="fill:#d36d2d;fill-opacity:1;fill-rule:evenodd;stroke:none" />
        <path
           sodipodi:nodetypes="cscsc"
           id="path17431"
           d="m 439.45313,-157.73438 c 0,0 -1.5625,21.09375 -7.42188,30.46875 -5.85937,9.375 -21.875,27.734379 -21.875,27.734379 0,0 10.9375,-12.109379 20.3125,-30.078129 9.375,-17.96875 8.98438,-27.73437 8.98438,-28.125 z"
           style="fill:#d36d2d;fill-opacity:1;fill-rule:evenodd;stroke:none" />
      </g>
      <g
         id="g17433"
         transform="matrix(0.59172,-0.192806,0.25314,0.521413,127.5482,439.5849)">
        <path
           sodipodi:nodetypes="csssc"
           id="path17435"
           d="m 397.65625,-88.984376 c 0,0 25.78125,-10.9375 35.9375,-25.390624 10.15625,-14.45313 12.5,-46.875 5.85938,-50.39063 -6.64063,-3.51562 -25.56992,4.2101 -34.76563,23.4375 -12.89063,26.95313 -7.42188,53.906254 -7.03125,52.343754 z"
           style="fill:#8d2001;fill-opacity:1;fill-rule:evenodd;stroke:none" />
        <path
           id="path17437"
           d="m 433.59375,-156.95313 c 0,0 -5.85937,1.17188 -18.35937,25.39063 -12.5,24.21875 -12.5,33.593749 -12.5,33.593749 0,0 5.07812,-10.156249 16.01562,-31.249999 10.9375,-21.09375 14.84375,-27.73438 14.84375,-27.73438 z"
           style="fill:#d36d2d;fill-opacity:1;fill-rule:evenodd;stroke:none" />
        <path
           sodipodi:nodetypes="cscsc"
           id="path17439"
           d="m 428.51563,-160.07813 c 0,0 -9.375,1.95313 -19.14063,21.48438 -9.76562,19.53125 -10.9375,30.85937 -10.9375,30.85937 0,0 3.18774,-21.35786 8.20313,-30.85937 10.84902,-20.55314 21.875,-21.48438 21.875,-21.48438 z"
           style="fill:#d36d2d;fill-opacity:1;fill-rule:evenodd;stroke:none" />
        <path
           sodipodi:nodetypes="cscsc"
           id="path17441"
           d="m 439.45313,-157.73438 c 0,0 -1.5625,21.09375 -7.42188,30.46875 -5.85937,9.375 -21.875,27.734379 -21.875,27.734379 0,0 10.9375,-12.109379 20.3125,-30.078129 9.375,-17.96875 8.98438,-27.73437 8.98438,-28.125 z"
           style="fill:#d36d2d;fill-opacity:1;fill-rule:evenodd;stroke:none" />
      </g>
      <path
         style="fill:#008400;fill-opacity:1;fill-rule:evenodd;stroke:#004242;stroke-width:1.77165353;stroke-linecap:butt;stroke-linejoin:miter;stroke-miterlimit:4;stroke-opacity:1;stroke-dasharray:none"
         d="m 423.04688,357.89062 c -14.0625,-7.03125 -32.03125,-16.01562 -39.0625,-19.14062 -7.03125,-3.125 -18.75,-7.8125 -24.21875,-16.01563 -5.46875,-8.20312 -26.17188,-22.65625 -26.17188,-27.34375 0,-4.6875 -1.5625,-37.89063 -3.125,-42.57813 -1.5625,-4.6875 -1.17187,-17.57812 3.12501,-22.65625 4.97655,-5.88137 10.15624,-17.18749 12.89062,-22.26562 2.73437,-5.07812 17.1875,-14.84375 12.5,-16.40625 C 354.29688,189.92187 337.5,210.625 337.5,212.1875 c 0,1.5625 -12.5,19.53125 -12.5,19.53125 l -1.17187,20.3125 7.03125,50 39.45312,39.45312 c 0,0 12.10938,4.6875 13.67188,7.42188 1.5625,2.73437 16.40625,7.8125 21.875,9.76562 5.46875,1.95313 11.32812,7.8125 11.32812,7.8125 l 5.85938,-8.59375 z"
         id="path17443"
         sodipodi:nodetypes="cssssssssccccsscc" />
      <path
         style="fill:#b94100;fill-opacity:1;fill-rule:evenodd;stroke:#004242;stroke-width:1.77165353;stroke-linecap:butt;stroke-linejoin:miter;stroke-miterlimit:4;stroke-opacity:1;stroke-dasharray:none"
         d="m 418.35938,361.01562 c -2.14844,2.73438 -1.36719,5.46875 -1.36719,5.46875 0,0 1.36719,2.92969 3.90625,4.49219 2.53906,1.5625 6.83594,1.17188 8.59375,-0.39062 1.75781,-1.5625 -1.17188,-7.22657 -2.34375,-8.20313 -1.17188,-0.97656 -4.49219,-4.29687 -4.49219,-4.29687 l -4.29687,2.92968 z"
         id="path17445" />
      <path
         style="fill:#008400;fill-opacity:1;fill-rule:evenodd;stroke:#004242;stroke-width:1.77165353;stroke-linecap:butt;stroke-linejoin:miter;stroke-miterlimit:4;stroke-opacity:1;stroke-dasharray:none"
         d="m 330.46875,245.78124 c 0,7.8125 3.125,18.35938 5.46875,23.4375 2.34375,5.07813 12.89062,8.98438 13.28125,13.28125 0.39062,4.29688 6.25,15.23438 6.25,15.23438 0,0 6.64062,-15.23438 3.51562,-23.4375 -3.125,-8.20313 -16.40625,-25 -19.92187,-26.95313 -3.51563,-1.95312 -7.8125,-1.5625 -8.59375,-1.5625 z"
         id="path17447" />
      <path
         style="fill:#008400;fill-opacity:1;fill-rule:evenodd;stroke:#004242;stroke-width:1.77165353;stroke-linecap:butt;stroke-linejoin:miter;stroke-miterlimit:4;stroke-opacity:1;stroke-dasharray:none"
         d="m 328.90626,224.68749 c 0,0 -8.98438,-5.85937 -12.5,-5.46875 -3.51563,0.39063 -11.32813,4.29688 -13.67188,8.20313 -2.34375,3.90625 -6.25,18.35937 -6.25,18.35937 0,0 11.32813,-5.46875 14.84375,-7.8125 3.51563,-2.34375 10.15625,-1.17187 12.10938,-4.29687 1.95312,-3.125 6.25,-8.20313 5.46875,-8.98438 z"
         id="path17449" />
      <path
         style="fill:#008400;fill-opacity:1;fill-rule:evenodd;stroke:#004242;stroke-width:1.77165353;stroke-linecap:butt;stroke-linejoin:miter;stroke-miterlimit:4;stroke-opacity:1;stroke-dasharray:none"
         d="m 333.98438,223.90625 c 2.73437,-0.39062 9.76562,-3.51562 14.45312,-1.17187 4.6875,2.34375 9.76563,6.25 12.10938,10.54687 2.34375,4.29688 2.73437,21.875 2.73437,21.875 0,0 -14.45312,-14.0625 -16.79687,-17.1875 -2.34375,-3.125 -12.10938,-13.28125 -12.5,-14.0625 z"
         id="path17451" />
      <path
         style="fill:#008400;fill-opacity:1;fill-rule:evenodd;stroke:#004242;stroke-width:1.77165353;stroke-linecap:butt;stroke-linejoin:miter;stroke-miterlimit:4;stroke-opacity:1;stroke-dasharray:none"
         d="m 334.375,215.70312 c 0,0 4.29688,-7.03125 2.34375,-10.9375 -1.95312,-3.90625 -8.20312,-7.8125 -11.32812,-7.8125 -3.125,0 -8.20313,2.73438 -12.89063,5.07813 -4.6875,2.34375 -5.46875,13.28125 -5.46875,16.01562 0,2.73438 8.59375,-6.64062 11.32813,-7.8125 2.73437,-1.17187 8.98437,0 10.54687,0 l 5.46875,5.46875 z"
         id="path17453" />
      <path
         style="fill:#008400;fill-opacity:1;fill-rule:evenodd;stroke:#004242;stroke-width:1.77165353;stroke-linecap:butt;stroke-linejoin:miter;stroke-miterlimit:4;stroke-opacity:1;stroke-dasharray:none"
         d="m 340.625,205.15625 c 0,0 9.76563,-0.39063 10.54688,-3.51563 0.78125,-3.125 1.17187,-9.375 -1.5625,-10.9375 -2.73438,-1.5625 -22.65625,-2.34375 -22.65625,-2.34375 0,0 11.32812,2.73438 11.71875,6.64063 0.39062,3.90625 0,8.20312 0,8.20312 l 1.95312,1.95313 z"
         id="path17455" />
      <path
         style="fill:#008400;fill-opacity:1;fill-rule:evenodd;stroke:#004242;stroke-width:1.77165353;stroke-linecap:butt;stroke-linejoin:miter;stroke-miterlimit:4;stroke-opacity:1;stroke-dasharray:none"
         d="m 351.95313,313.75 c 0,0 -4.6875,4.29687 -7.8125,6.64062 -3.125,2.34375 -3.51563,14.84375 -3.51563,19.53125 0,4.6875 1.17188,18.35938 1.17188,18.35938 0,0 10.15625,-2.34375 10.15625,-6.64063 0,-4.29687 2.73437,-10.54687 2.73437,-10.54687 0,0 6.25,-6.64063 6.64063,-10.9375 0.39062,-4.29688 -8.59375,-16.01563 -9.375,-16.40625 z"
         id="path17457" />
      <path
         style="fill:#008400;fill-opacity:1;fill-rule:evenodd;stroke:#004242;stroke-width:1.77165353;stroke-linecap:butt;stroke-linejoin:miter;stroke-miterlimit:4;stroke-opacity:1;stroke-dasharray:none"
         d="m 353.125,303.59375 c 0,0 8.98438,-2.34375 14.0625,0 5.07813,2.34375 9.375,7.42187 10.54688,15.625 1.17187,8.20312 1.95312,19.92187 1.17187,24.21875 -0.78125,4.29687 -5.85937,11.32812 -5.85937,11.32812 0,0 0.39062,-8.98437 -1.17188,-12.10937 -1.5625,-3.125 -5.46875,-3.90625 -5.85937,-6.64063 -0.39063,-2.73437 0.78125,-5.46875 -0.39063,-8.59375 -1.17187,-3.125 -8.59375,-8.98437 -10.54687,-10.9375 -1.95313,-1.95312 -4.29688,-5.85937 -4.29688,-8.59375 0,-2.73437 2.73438,-3.90625 2.34375,-4.29687 z"
         id="path17459" />
      <g
         id="g17461"
         transform="matrix(0.685504,-0.346439,0.415701,0.571289,90.446,535.0659)">
        <path
           sodipodi:nodetypes="csssc"
           id="path17463"
           d="m 397.65625,-88.984376 c 0,0 25.78125,-10.9375 35.9375,-25.390624 10.15625,-14.45313 12.5,-46.875 5.85938,-50.39063 -6.64063,-3.51562 -25.56992,4.2101 -34.76563,23.4375 -12.89063,26.95313 -7.42188,53.906254 -7.03125,52.343754 z"
           style="fill:#8d2001;fill-opacity:1;fill-rule:evenodd;stroke:none" />
        <path
           id="path17465"
           d="m 433.59375,-156.95313 c 0,0 -5.85937,1.17188 -18.35937,25.39063 -12.5,24.21875 -12.5,33.593749 -12.5,33.593749 0,0 5.07812,-10.156249 16.01562,-31.249999 10.9375,-21.09375 14.84375,-27.73438 14.84375,-27.73438 z"
           style="fill:#d36d2d;fill-opacity:1;fill-rule:evenodd;stroke:none" />
        <path
           sodipodi:nodetypes="cscsc"
           id="path17467"
           d="m 428.51563,-160.07813 c 0,0 -9.375,1.95313 -19.14063,21.48438 -9.76562,19.53125 -10.9375,30.85937 -10.9375,30.85937 0,0 3.18774,-21.35786 8.20313,-30.85937 10.84902,-20.55314 21.875,-21.48438 21.875,-21.48438 z"
           style="fill:#d36d2d;fill-opacity:1;fill-rule:evenodd;stroke:none" />
        <path
           sodipodi:nodetypes="cscsc"
           id="path17469"
           d="m 439.45313,-157.73438 c 0,0 -1.5625,21.09375 -7.42188,30.46875 -5.85937,9.375 -21.875,27.734379 -21.875,27.734379 0,0 10.9375,-12.109379 20.3125,-30.078129 9.375,-17.96875 8.98438,-27.73437 8.98438,-28.125 z"
           style="fill:#d36d2d;fill-opacity:1;fill-rule:evenodd;stroke:none" />
      </g>
      <path
         style="fill:#008400;fill-opacity:1;fill-rule:evenodd;stroke:#004242;stroke-width:1.77165353;stroke-linecap:butt;stroke-linejoin:miter;stroke-miterlimit:4;stroke-opacity:1;stroke-dasharray:none"
         d="m 324.60938,251.25 c 0,0 -11.32813,3.51562 -13.67188,10.9375 -2.34375,7.42187 -10.15625,23.82812 -8.20312,31.64062 1.95312,7.8125 5.46875,24.21875 5.46875,24.21875 0,0 7.03125,-10.9375 13.28125,-19.92187 6.25,-8.98438 10.15625,-21.875 10.54687,-30.46875 0.39063,-8.59375 -7.42187,-15.625 -7.42187,-16.40625 z"
         id="path17471" />
      <g
         id="g17473"
         transform="translate(-24.99734,-10.63422)">
        <path
           id="path17475"
           d="m 395.54132,181.90831 c -0.36131,0.31972 -1.86298,1.67167 -2.71875,2.90625 -0.18667,0.2693 -0.40067,0.62537 -0.65625,1.03125 -0.003,0.004 -0.0287,-0.004 -0.0312,0 -0.75982,-0.0358 -1.41478,-0.12965 -1.75,-0.3125 -0.0261,-0.0154 -0.0719,-0.0459 -0.0937,-0.0625 -0.0271,-0.0227 -0.0749,-0.0688 -0.0937,-0.0937 -0.004,-0.006 0.004,-0.0247 0,-0.0312 -0.41343,-0.74349 -1.21516,-2.27768 -1.4375,-2.5625 -0.007,-0.008 -0.0256,-0.0261 -0.0312,-0.0312 -0.0236,0.0102 -0.0712,0.0189 -0.0937,0.0312 -0.0369,0.0217 -0.0909,0.0664 -0.125,0.0937 -0.0268,0.0227 -0.0686,0.0677 -0.0937,0.0937 -0.0124,0.0134 -0.0505,0.0483 -0.0625,0.0625 -0.64806,0.80106 -0.72713,2.75017 -1.25,3.71875 -0.57991,1.07424 -7.2637,12.02541 -7.5,13.46875 -7.5e-4,0.006 5.3e-4,0.026 0,0.0312 -3.1e-4,0.005 9e-5,0.0266 0,0.0312 1.4e-4,0.004 -3.6e-4,0.0273 0,0.0312 8.2e-4,0.003 -0.001,0.0283 0,0.0312 0.002,0.002 0.0295,-0.002 0.0312,0 0.38978,0.41986 2.40235,2.4837 4.125,2.6875 -0.43716,0.11087 -0.78577,0.26976 -0.96875,0.4375 -0.0128,0.0126 -0.0514,0.0496 -0.0625,0.0625 -0.005,0.007 -0.0265,0.0246 -0.0312,0.0312 -0.0506,0.0752 -0.0919,0.18706 -0.125,0.28125 -0.28102,0.85244 0.10424,2.36865 0.65625,2.84375 0.006,0.005 0.0256,0.0268 0.0312,0.0312 0.006,0.004 0.0255,0.0273 0.0312,0.0312 0.0232,0.015 0.0701,0.0201 0.0937,0.0312 0.006,0.003 0.0253,0.029 0.0312,0.0312 0.006,0.002 0.0252,-0.002 0.0312,0 0.0181,0.005 0.0443,0.0291 0.0625,0.0312 0.77875,0.0918 5.96722,1.85907 7.15625,1.5 1.18904,-0.35906 3.2743,-1.37359 4.125,-2.125 0.24351,-0.21509 0.59654,-0.46774 0.96875,-0.75 0.0762,0.31402 0.1299,0.57553 0.1875,0.6875 0.002,0.003 -0.002,0.0288 0,0.0312 0.002,0.002 0.0295,-0.002 0.0312,0 9.3e-4,3.9e-4 0.0303,-3.2e-4 0.0312,0 0.002,-0.001 0.0289,0.002 0.0312,0 0.003,-0.003 0.0282,-0.0278 0.0312,-0.0312 0.16157,-0.20777 0.50105,-0.91869 0.875,-1.71875 0.0511,-0.061 0.0924,-0.13198 0.125,-0.1875 0.003,-0.007 -0.003,-0.0239 0,-0.0312 0.007,-0.0122 0.0255,-0.0194 0.0312,-0.0312 0.003,-0.006 0.0289,-0.0255 0.0312,-0.0312 0.002,-0.006 -0.002,-0.0257 0,-0.0312 0.003,-0.007 -0.003,-0.0239 0,-0.0312 8.9e-4,-0.005 -6e-4,-0.026 0,-0.0312 0.51172,-1.11269 1.04952,-2.33238 1.21875,-2.75 0.32444,-0.80068 1.96488,-2.06108 2.15625,-2.625 0.001,-0.004 0.0303,-0.027 0.0312,-0.0312 7.6e-4,-0.004 -4.9e-4,-0.0271 0,-0.0312 -3e-5,-0.004 2.8e-4,-0.0272 0,-0.0312 -5.3e-4,-0.004 7.7e-4,-0.0272 0,-0.0312 -0.002,-0.008 -0.0283,-0.0233 -0.0312,-0.0312 -0.002,-0.004 0.002,-0.0274 0,-0.0312 -0.002,-0.004 -0.0287,-0.0274 -0.0312,-0.0312 -0.27747,-0.34951 -1.42799,-0.58583 -1.8125,-0.65625 -0.012,-0.007 -0.0188,-0.0245 -0.0312,-0.0312 -0.0142,-0.003 -0.0202,0.002 -0.0312,0 -0.22989,-0.1204 -0.53542,-0.26628 -0.8125,-0.375 2.09546,-1.87535 4.74663,-4.78023 5.75,-6.5625 1.03635,-1.84088 0.8934,-3.36253 0.21875,-4.125 -0.014,-0.0152 -0.048,-0.0479 -0.0625,-0.0625 -0.0147,-0.0143 -0.0474,-0.0489 -0.0625,-0.0625 -0.17631,-0.15293 -0.3997,-0.28376 -0.625,-0.34375 -0.71283,-0.18979 -2.06352,0.01 -3.09375,0.21875 -0.2032,-1.28278 -0.63048,-2.47772 -1.0625,-2.84375 -0.0266,-0.021 -0.0671,-0.0479 -0.0937,-0.0625 -0.85413,-0.46743 -1.65817,-1.05823 -3.34375,-0.0312 -0.26337,0.16047 -0.57008,0.39666 -0.875,0.6875 l 1,-2.3125 z"
           style="fill:none;stroke:#701014;stroke-width:1.77165353;stroke-linecap:butt;stroke-linejoin:miter;stroke-miterlimit:4;stroke-opacity:1;stroke-dasharray:none" />
        <g
           style="stroke:none"
           transform="matrix(0.256431,-0.06046875,-0.07364635,0.302247,226.6495,294.201)"
           id="g17477">
          <path
             style="fill:#701014;fill-opacity:1;fill-rule:evenodd;stroke:none"
             d="m 558.22767,-256.91843 c -3.72889,0.69053 -1.24296,9.25315 -2.62403,12.70582 -1.38107,3.45267 -19.61117,39.49854 -17.26335,41.57015 2.34781,2.0716 15.88228,13.53446 22.92573,13.25825 7.04344,-0.27622 37.61038,8.06851 41.15582,2.48592 5.13512,-8.08569 -3.17645,-53.72354 -7.87209,-53.58543 -4.69563,0.13811 -24.85922,-2.76214 -27.62136,-6.0767 -2.76213,-3.31457 -8.42451,-10.49612 -8.70072,-10.35801 z"
             id="path17479"
             sodipodi:nodetypes="cssssssc" />
          <path
             style="fill:#ba1126;fill-opacity:1;fill-rule:evenodd;stroke:none"
             d="m 585.84902,-254.43251 c 0,0 -5.93859,4.00509 -8.56262,8.1483 -2.62403,4.1432 -8.28641,15.74417 -6.35291,17.40145 1.93349,1.65728 11.04854,-11.04854 11.04854,-11.04854 l 3.86699,-14.50121 z"
             id="path17481" />
          <path
             style="fill:#cf1735;fill-opacity:1;fill-rule:evenodd;stroke:none"
             d="m 597.86431,-246.008 c 0,0 4.1432,2.62403 5.66238,5.24806 1.51917,2.62403 2.90024,8.97694 2.90024,8.97694 l -14.50121,11.18665 -15.88228,-13.67257 5.52427,-10.0818 10.49612,-4.00509 5.80048,2.34781 z"
             id="path17483" />
          <path
             style="fill:#bd0412;fill-opacity:1;fill-rule:evenodd;stroke:none"
             d="m 588.61115,-238.55022 c 2.30183,1.13621 3.07057,3.85714 3.36062,6.21411 0.37614,3.0328 0.1518,6.10718 -0.32226,9.11573 -3.72889,2.76213 -7.45776,5.52428 -11.18664,8.28641 -2.16368,-2.34781 -4.32735,-4.69563 -6.49103,-7.04345 0.32225,-3.63681 0.64449,-7.27362 0.96674,-10.91043 4.55752,-1.88746 3.59078,-7.5038 13.67257,-5.66237 z"
             id="path17485"
             sodipodi:nodetypes="csccccc" />
          <path
             style="fill:#e24b74;fill-opacity:1;fill-rule:evenodd;stroke:none"
             d="m 614.02281,-196.01334 c 0,0 8.97694,2.90024 9.11504,4.69563 0.13811,1.79539 -5.80048,4.97185 -6.35291,7.59587 -0.55243,2.62403 -3.72888,15.05365 -4.69563,15.19175 -0.96675,0.13811 -3.45267,-8.83883 -9.39126,-10.49611 -5.93859,-1.65729 2.34781,-12.42962 2.34781,-12.42962 l 8.97695,-4.55752 z"
             id="path17487" />
          <path
             style="fill:#ad040b;fill-opacity:1;fill-rule:evenodd;stroke:none"
             d="m 606.97936,-199.60412 c 0,0 9.25315,4.14321 9.25315,5.10995 0,0.96675 -8.70072,10.49612 -9.94368,11.60098 -1.24297,1.10485 -15.46797,5.93859 -15.46797,5.93859 l -6.35291,-21.26845 22.51141,-1.38107 z"
             id="path17489" />
          <path
             style="fill:#bb0713;fill-opacity:1;fill-rule:evenodd;stroke:none"
             d="m 587.64441,-185.51722 c -15.19175,-2.90025 -31.62646,-5.80049 -33.28374,-3.31457 -1.65728,2.48593 3.31456,11.18665 6.62913,12.1534 3.31456,0.96675 26.5165,11.46286 31.07403,11.18665 4.55752,-0.27621 12.15339,-2.0716 14.91553,-4.0051 2.76214,-1.93349 11.04854,-4.97184 6.0767,-6.90534 -4.97185,-1.93349 -25.54976,-8.83883 -25.41165,-9.11504 z"
             id="path17491" />
          <path
             style="fill:#c90d28;fill-opacity:1;fill-rule:evenodd;stroke:none"
             d="m 560.57548,-228.60655 c -8.2892,4.54682 -4.28131,26.3784 -1.24296,29.83107 3.03835,3.45267 27.75946,12.29151 29.69296,12.29151 1.93349,0 4.00509,-1.65728 4.00509,-1.65728 l -20.3017,-13.12015 c 0,0 -3.97057,-31.83362 -12.15339,-27.34515 z"
             id="path17493"
             sodipodi:nodetypes="cssccz" />
          <path
             style="fill:#bf0b16;fill-opacity:1;fill-rule:evenodd;stroke:none"
             d="m 566.23785,-225.15387 c 0.41432,0.96674 0.82865,3.03834 0.82865,4.97184 0,1.93349 -2.90025,10.63422 -1.10486,13.12015 1.79539,2.48592 11.18665,-3.31457 15.74418,-6.62913 4.55752,-3.31456 9.52936,-8.42451 6.62912,-7.87209 -2.90024,0.55243 -22.3733,-3.72888 -22.09709,-3.59077 z"
             id="path17495"
             sodipodi:nodetypes="cssssc" />
          <path
             style="fill:#c5102f;fill-opacity:1;fill-rule:evenodd;stroke:none"
             d="m 602.97426,-234.54514 c 0,0 12.42961,-0.41432 17.95389,1.79539 5.52427,2.20971 9.94368,9.25316 6.76723,16.57282 -3.17646,7.31966 -16.57282,19.33495 -23.47816,21.95898 -6.90534,2.62403 -17.67767,5.52427 -18.23009,5.24806 -0.55243,-0.27622 -18.78253,-16.57282 -18.78253,-16.57282 l 36.04588,-28.45 -0.27622,-0.55243 z"
             id="path17497" />
          <path
             style="fill:#b9000d;fill-opacity:1;fill-rule:evenodd;stroke:none"
             d="m 588.33494,-192.28446 c 0,0 -7.18155,2.48593 1.9335,0.41432 9.11505,-2.0716 8.83883,-2.62403 8.83883,-2.62403 0,0 18.09199,-6.90533 21.26845,-16.02038 3.17645,-9.11505 5.52427,-8.97694 1.93349,-13.53447 -3.59077,-4.55752 -16.71092,-3.86699 -16.71092,-3.86699 l -35.63155,24.16869 18.3682,11.46286 z"
             id="path17499" />
          <path
             style="fill:#d54688;fill-opacity:1;fill-rule:evenodd;stroke:none"
             d="m 589.5779,-207.06188 c 1.9335,6.62912 9.66748,-5.52428 11.32476,-6.62913 1.65728,-1.10485 9.39126,-4.0051 10.2199,-9.80558 0.82864,-5.80049 -6.49102,-19.88738 -10.49611,-22.2352 -4.0051,-2.34781 -8.0102,-5.10995 -13.94879,-2.90024 -5.93859,2.20971 -13.39636,14.50121 -13.53446,18.78253 -0.13811,4.28131 -0.55243,6.35291 0.82864,6.2148 1.38106,-0.13811 0.96674,-7.45777 3.45267,-10.63422 2.48592,-3.17646 2.48592,-9.25316 7.18155,-10.91044 4.69563,-1.65728 4.69563,-1.65728 4.69563,-1.65728 l 0.27621,-0.82864 c 0,0 8.1483,1.93349 9.25316,3.03835 1.10485,1.10485 7.87209,10.08179 8.01019,12.70582 0.13811,2.62403 3.86699,6.62913 1.24296,9.25316 -2.62403,2.62403 -6.62912,7.59587 -8.1483,7.73398 -1.51917,0.13811 -2.0716,-0.13811 -6.0767,2.62403 -4.00509,2.76213 -4.41941,5.52427 -4.28131,5.24806 z"
             id="path17501" />
          <path
             style="fill:#d22e53;fill-opacity:1;fill-rule:evenodd;stroke:none"
             d="m 558.50387,-230.95436 c -8.70072,-4.1432 -3.17645,11.87719 1.10486,19.05874 4.28131,7.18155 19.47306,19.05874 24.72112,21.82087 5.24805,2.76214 12.70582,6.62913 13.25825,4.83374 0.55242,-1.79539 -3.45267,-5.10995 -5.10995,-6.21481 -1.65729,-1.10485 -12.29151,-6.49102 -18.50631,-11.73907 -6.21481,-5.24806 -13.25826,-13.53447 -12.98204,-19.05874 0.27621,-5.52427 -2.62403,-8.70073 -2.48593,-8.70073 z"
             id="path17503" />
        </g>
      </g>
      <path
         style="fill:#008400;fill-opacity:1;fill-rule:evenodd;stroke:#004242;stroke-width:1.77165353;stroke-linecap:butt;stroke-linejoin:miter;stroke-miterlimit:4;stroke-opacity:1;stroke-dasharray:none"
         d="m 347.26563,199.29687 c 0,0 5.46875,-1.5625 12.10937,-1.5625 6.64063,0 12.10938,1.5625 12.10938,5.46875 0,3.90625 -1.95313,15.23438 -1.95313,15.23438 0,0 -1.17187,-4.6875 -3.51562,-8.59375 -2.34375,-3.90625 -10.54688,-7.8125 -12.10938,-7.8125 -1.5625,0 -5.85937,-3.125 -6.64062,-2.73438 z"
         id="path17505" />
    </g>
  </g>
  <rect
     style="fill:#dd0000;fill-opacity:1;stroke:none"
     id="rect2929-1"
     width="1077.0264"
     height="254.59315"
     x="-0.0016994483"
     y="231.82629"
     ry="0" />
  <rect
     style="fill:#f7d117;fill-opacity:1;stroke:none"
     id="rect2929-1-7"
     width="1077.01"
     height="226.53383"
     x="0.0027470211"
     y="461.58902"
     ry="0" />
  <polygon
     style="fill:#ffffff;fill-opacity:1;fill-rule:evenodd"
     id="polygon1407"
     transform="matrix(55.819742,0,0,55.369343,373.19579,347.69709)"
     points="0,-1 0.22451399,-0.30901699 0.95105652,-0.30901699 0.36327126,0.11803399 0.58778525,0.80901699 0,0.38196601 -0.58778525,0.80901699 -0.36327126,0.11803399 -0.95105652,-0.30901699 -0.22451399,-0.30901699 0,-1 " />
  <polygon
     style="fill:#ffffff;fill-opacity:1;fill-rule:evenodd"
     id="polygon1407-4"
     transform="matrix(55.819742,0,0,55.369343,475.46769,304.11007)"
     points="0.58778525,0.80901699 0,0.38196601 -0.58778525,0.80901699 -0.36327126,0.11803399 -0.95105652,-0.30901699 -0.22451399,-0.30901699 0,-1 0,-1 0.22451399,-0.30901699 0.95105652,-0.30901699 0.36327126,0.11803399 " />
  <polygon
     style="fill:#ffffff;fill-opacity:1;fill-rule:evenodd"
     id="polygon1407-45"
     transform="matrix(55.819742,0,0,55.369343,717.75442,346.85079)"
     points="0,0.38196601 -0.58778525,0.80901699 -0.36327126,0.11803399 -0.95105652,-0.30901699 -0.22451399,-0.30901699 0,-1 0,-1 0.22451399,-0.30901699 0.95105652,-0.30901699 0.36327126,0.11803399 0.58778525,0.80901699 " />
  <polygon
     style="fill:#ffffff;fill-opacity:1;fill-rule:evenodd"
     id="polygon1407-45-5"
     transform="matrix(55.819742,0,0,55.369343,604.27771,303.46454)"
     points="0.58778525,0.80901699 0,0.38196601 -0.58778525,0.80901699 -0.36327126,0.11803399 -0.95105652,-0.30901699 -0.22451399,-0.30901699 0,-1 0,-1 0.22451399,-0.30901699 0.95105652,-0.30901699 0.36327126,0.11803399 " />
  <polygon
     style="fill:#ffffff;fill-opacity:1;fill-rule:evenodd"
     id="polygon1407-45-5-7"
     transform="matrix(55.819742,0,0,55.369343,267.72229,397.46454)"
     points="0.36327126,0.11803399 0.58778525,0.80901699 0,0.38196601 -0.58778525,0.80901699 -0.36327126,0.11803399 -0.95105652,-0.30901699 -0.22451399,-0.30901699 0,-1 0,-1 0.22451399,-0.30901699 0.95105652,-0.30901699 " />
  <polygon
     style="fill:#ffffff;fill-opacity:1;fill-rule:evenodd"
     id="polygon1407-45-5-1"
     transform="matrix(55.819742,0,0,55.369343,827.44162,396.49611)"
     points="0,-1 0,-1 0.22451399,-0.30901699 0.95105652,-0.30901699 0.36327126,0.11803399 0.58778525,0.80901699 0,0.38196601 -0.58778525,0.80901699 -0.36327126,0.11803399 -0.95105652,-0.30901699 -0.22451399,-0.30901699 " />
  <text
     xml:space="preserve"
     style="font-size:22.82663918px;font-style:normal;font-weight:normal;fill:#000000;fill-opacity:1;stroke:none;font-family:Bitstream Vera Sans"
     x="2.9205496"
     y="219.73927"
     id="text7249"
     transform="scale(0.98215899,1.0181651)"><tspan
       sodipodi:role="line"
       id="tspan7251"
       x="2.9205496"
       y="219.73927">Libertad o Muerte</tspan></text>
  <rect
     style="fill:#ffffff;fill-opacity:1;stroke:none"
     id="rect8736"
     width="112.0551"
     height="246.00211"
     x="-111.96574"
     y="37.947685" />
</svg>
