<svg xmlns="http://www.w3.org/2000/svg" width="900" height="600" style=""><rect id="backgroundrect" width="100%" height="100%" x="0" y="0" fill="none" stroke="none" style="" class="selected"/>
  <defs>
    <style>
      .cls-1, .cls-6 {
        fill: #74acdf;
      }

      .cls-2 {
        fill: #008033;
      }

      .cls-3 {
        fill: #00247d;
      }

      .cls-4 {
        fill: #fff;
      }

      .cls-10, .cls-12, .cls-13, .cls-5, .cls-6, .cls-7, .cls-8, .cls-9 {
        stroke: #000;
      }

      .cls-10, .cls-13, .cls-5, .cls-6 {
        stroke-miterlimit: 10;
      }

      .cls-6, .cls-7, .cls-8 {
        stroke-linecap: round;
      }

      .cls-7, .cls-8, .cls-9 {
        stroke-linejoin: round;
      }

      .cls-7, .cls-9 {
        stroke-width: 0.97826px;
      }

      .cls-10, .cls-12, .cls-8, .cls-9 {
        fill: none;
      }

      .cls-11 {
        fill: #fc0;
      }

      .cls-12 {
        stroke-width: 1.04348px;
      }

      .cls-13 {
        fill: #b20d0d;
        stroke-width: 0.29343px;
      }
    </style>
  </defs>
  
  
  
  
  
  
<g class="currentLayer" style=""><title>Layer 1</title><rect id="Azul_Claro" data-name="Azul Claro" class="cls-1" width="900" height="600"/><rect id="Negro" y="510" width="900" height="60"/><rect id="Verde" class="cls-2" y="420" width="900" height="60"/><rect id="Azul_Oscuro" data-name="Azul Oscuro" class="cls-3" y="330" width="900" height="60"/><g id="Estrellas">
    <path id="path2573" class="cls-4" d="M450,29.48474,454.8554,43.7856l14.7852.30828-11.78439,9.14693,4.2823,14.49141L450,59.0845l-12.13846,8.64772,4.2823-14.49141L430.3594,44.09388l14.7852-.30828Z"/>
    <path id="path2577" class="cls-4" d="M394.42119,50.47123l3.19435,9.27623,9.72706.2-7.75284,5.93308,2.81731,9.3999-7.98588-5.60934-7.9859,5.60934,2.8173-9.3999-7.75287-5.93308,9.7271-.2Z"/>
    <path id="path2579" class="cls-4" d="M350.56434,77.59987l3.19435,9.27617,9.72709.2-7.75287,5.93314,2.81731,9.3999-7.9859-5.60939-7.98591,5.60939,2.81731-9.3999L337.64285,87.076l9.72709-.2Z"/>
    <path id="path2581" class="cls-4" d="M320.30309,117.27991l3.19434,9.27617,9.7271.2-7.75287,5.93314,2.81731,9.3999-7.98591-5.60939-7.98591,5.60939,2.81731-9.3999-7.75287-5.93314,9.7271-.2Z"/>
    <path id="path2583" class="cls-4" d="M299.92013,166.859l3.19435,9.2762,9.72709.2-7.75287,5.9331,2.81731,9.39992-7.98591-5.60935-7.9859,5.60935,2.8173-9.39992-7.75287-5.9331,9.7271-.2Z"/>
    <path id="path2585" class="cls-4" d="M287.38959,223.28817l3.19435,9.27624,9.72709.2-7.75287,5.93314,2.81731,9.39984-7.98591-5.60933-7.9859,5.60933,2.8173-9.39984-7.75287-5.93314,9.7271-.2Z"/>
    <path id="path2587" class="cls-4" d="M283.20231,279.67556l3.19435,9.27623,9.72709.2-7.75287,5.93308,2.81731,9.3999-7.98591-5.60934-7.9859,5.60934,2.8173-9.3999-7.75287-5.93308,9.7271-.2Z"/>
    <path id="path2577-2" data-name="path2577" class="cls-4" d="M508.77318,59.74746l9.7271.2-7.75287,5.93308,2.81731,9.3999-7.98591-5.60934-7.98588,5.60934,2.81731-9.3999-7.75284-5.93308,9.72706-.2,3.19435-9.27623Z"/>
    <path id="path2579-2" data-name="path2579" class="cls-4" d="M552.63006,86.876l9.72709.2-7.75287,5.93314,2.81731,9.3999-7.98591-5.60939-7.9859,5.60939,2.81731-9.3999L536.51422,87.076l9.72709-.2,3.19435-9.27617Z"/>
    <path id="path2581-2" data-name="path2581" class="cls-4" d="M582.89131,126.55608l9.7271.2-7.75287,5.93314,2.81731,9.3999-7.98591-5.60939-7.98591,5.60939,2.81731-9.3999-7.75287-5.93314,9.7271-.2,3.19434-9.27617Z"/>
    <path id="path2583-2" data-name="path2583" class="cls-4" d="M603.27427,176.13524l9.7271.2-7.75287,5.9331,2.8173,9.39992-7.9859-5.60935-7.98591,5.60935,2.81731-9.39992-7.75287-5.9331,9.72709-.2,3.19435-9.2762Z"/>
    <path id="path2585-2" data-name="path2585" class="cls-4" d="M615.80481,232.56441l9.7271.2-7.75287,5.93314,2.8173,9.39984-7.9859-5.60933-7.98591,5.60933,2.81731-9.39984-7.75287-5.93314,9.72709-.2,3.19435-9.27624Z"/>
    <path id="path2587-2" data-name="path2587" class="cls-4" d="M619.99209,288.95179l9.7271.2-7.75287,5.93308,2.8173,9.3999-7.9859-5.60934-7.98591,5.60934,2.81731-9.3999-7.75287-5.93308,9.72709-.2,3.19435-9.27623Z"/>
  </g><g id="Sol">
    <g id="Silueta">
      <g id="svg_1">
        <g id="svg_2">
          <path class="cls-5" d="M414.80275,154.87526a2.54819,2.54819,0,0,0-3.93342-.20614,5.54025,5.54025,0,0,0-.72439.73372c-.03211-2.65975,1.394-17.80825,1.91528-23.73642.6751-7.678,3.16275-22.96479,3.566-30.65841a56.47169,56.47169,0,0,0-2.952-20.44064,59.09671,59.09671,0,0,0-4.86338,20.03105c-.40321,7.69362-.62695,23.09452-.96084,30.79494-.26727,6.16424-1.47562,23.41648-1.62388,24.60913a6.86311,6.86311,0,0,0-2.85763.53619c-2.376,1.16164-2.99208,3.10146-1.5967,4.28927a4.21307,4.21307,0,0,0,3.21348.85436l1.20826,9.66663s-.603.05415-.73335.90476c-.0493.9406.63439,1.76078,2.088,1.837,1.53467.16618,2.27823-.60072,2.41752-1.62236.05378-1.0261-.52731-.86355-.52731-.86355l3.1944-11.29358a7.63383,7.63383,0,0,0,2.77935-1.25493,3.04732,3.04732,0,0,0,.39061-4.181" id="svg_3"/>
          <path d="M414.58516,150.14c-.16-.37-.83-1.37-1.41-1.53a2.24622,2.24622,0,0,0-1.9.55,22.31312,22.31312,0,0,0-3.05005,2.85c-1.19995-.3-5.21-1.09-6.41.97a2.99928,2.99928,0,0,0-.47,1.59,4.20737,4.20737,0,0,0,1.51,2.98v.01h.02v.01a.49172.49172,0,0,0,.3.1.459.459,0,0,0,.37-.18.48768.48768,0,0,0-.05-.68,3.92481,3.92481,0,0,1-.8-1.66,1.54546,1.54546,0,0,1,.88-2.16c.65-.35,3.28.16,4.94.64a.51894.51894,0,0,0,.56-.22,16.89461,16.89461,0,0,1,1.44-1.97,7.22244,7.22244,0,0,0-.18,2.48,2.84219,2.84219,0,0,0,.07.53.4806.4806,0,0,0,.47.39.3395.3395,0,0,0,.1-.01.49254.49254,0,0,0,.39-.56c-.01-.06-.02-.12-.03-.19a2.06693,2.06693,0,0,1-.02-.29.51269.51269,0,0,0,.49.42,2.96649,2.96649,0,0,0,1.09-.21A3.01972,3.01972,0,0,0,414.58516,150.14Zm-2.92,3.11a.50122.50122,0,0,0-.36.44,3.19207,3.19207,0,0,1,.8-2.36c.68-.79,1.05-.88,1.1-.85.04.01.22.25.18,1.02C413.32515,152.76,411.67512,153.25,411.66511,153.25Z" id="svg_4"/>
        </g>
        <path class="cls-6" d="M408.31064,170.452v-1.11315s-4.43169-.44434-5.37358-1.98562a4.01909,4.01909,0,0,1-.698-2.70212,1.9627,1.9627,0,0,1-.693-1.563,2.49159,2.49159,0,0,1,.17126-1.45565s-.685-1.54127-.17126-2.22629.685-1.79815,3.76755-1.54127a9.276,9.276,0,0,1,4.98313,1.91877s-.33725-1.18241-2.56023-1.84452c-1.818-.5415-1.70516-3.71667,1.12982-3.00637,2.69211.67451,4.16653,1.21959,5.14479,4.64464a16.73231,16.73231,0,0,1,.32218,5.525,18.90193,18.90193,0,0,0,.42117,4.23139,115.75277,115.75277,0,0,0,3.06057,11.90706c2.14066,6.50761,3.425,7.107,4.45258,12.24457a17.567,17.567,0,0,0,5.65134,10.27518c2.65443,2.56879,5.05195,7.5351,5.05195,7.5351a7.86742,7.86742,0,0,1,1.02753,5.48009,54.08985,54.08985,0,0,1-2.70937,9.56017l-.32757,1.52114a25.58156,25.58156,0,0,1-8.437-9.96816c-2.65442-6.1651-3.59632-8.477-5.48008-11.217-1.79816-2.74006-3.68195-6.33635-5.737-17.21089s-2.74-15.584-2.74-15.584Z" id="svg_5"/>
        <path class="cls-7" d="M406.855,154.01178s-3.425-2.48316-4.19568-.17125,1.37,2.31191,1.37,2.31191a1.5127,1.5127,0,0,1-1.11313-1.96941c.51374-1.62689,3.93879-.17125,3.93879-.17125" id="svg_6"/>
        <path class="cls-8" d="M408.31064,169.33889s2.15553-.44835,1.79816-1.88378c-.3342-1.34236-1.02753-1.88377-4.28132-2.48315s-3.58838-.32081-3.58838-.32081" id="svg_7"/>
        <path class="cls-8" d="M409.595,166.342s1.37366.34748,1.37-1.37c-.00363-1.71466-1.11313-2.48316-3.76755-3.08255a13.51263,13.51263,0,0,0-4.70945-.51376,6.26232,6.26232,0,0,0-.77066.2569" id="svg_8"/>
        <path class="cls-9" d="M410.7938,163.43068s.6068-.14767.5994-1.79816a2.69647,2.69647,0,0,0-1.2099-1.94076" id="svg_9"/>
      </g>
      <path class="cls-8" d="M477.00814,222.04961c3.22953-4.51415,3.4041-6.65237,5.02679-9.98316,1.6269-3.25382,5.65135-8.64827,6.76448-10.532,1.19876-1.88377.85626-4.11006.42813-6.67885s-2.14066-11.90207-4.02445-21.06409-1.577-7.661-2.48316-9.4189c-.53516-1.03816-2.09525-1.91594-2.609-2.7722a40.44962,40.44962,0,0,0-2.93567-3.82734c-1.39822-1.40454-5.588-3.12636-7.12964-3.4659-1.54221-.33968-1.00072-.10855-2.09527-.341-.55588-.11807-1.43347-1.20308-.275-1.68858.50227-.21049.69222-.34792,2.75248-.05589a36.9,36.9,0,0,1,5.52919,1.56465.19653.19653,0,0,0,.20084-.31267c-1.8285-2.22763-5.439-3.49553-8.62839-3.83474-1.159-.12327-1.54821-1.68684.30815-1.60065,8.94848.41545,10.04252,3.16971,10.93143,3.49506a.22878.22878,0,0,0,.265-.34411c-2.75328-4.001-6.26327-4.641-8.88354-4.98528-1.711-.22483-1.419-2.13227.50453-1.9091,7.50339.87052,10.74644,5.87673,11.14161,5.62432.299-.191-3.66-4.669-7.52591-7.04214-.45765-.28093-.3809-1.41029.71785-1.12824,2.36031.60588,6.61407,2.37218,10.90688,10.05441a12.16335,12.16335,0,0,0-.17863-2.32955c-.17126-1.71252.3425-2.055,1.11314-3.2538a1.25679,1.25679,0,0,1,2.22629,0c.04729.17668-.25687.685-.25687.685a5.469,5.469,0,0,0-.5994,2.91129c.17127,1.19877.2569,4.367.9419,5.99385a5.32114,5.32114,0,0,1,.38531,2.237,7.80618,7.80618,0,0,0,.43231,2.72168c.93156,2.82089,2.84955,8.58034,4.40559,12.93727,1.88376,5.99384,5.052,21.1497,5.48008,23.376a5.791,5.791,0,0,1-.42813,3.76756s-1.11313,4.70945-2.48316,9.41889c-1.45563,4.70945-6.07948,14.29959-8.04887,17.89591-1.9694,3.68194-3.25379,7.53513-5.13758,12.159s-3.66233,19.95093-3.66233,19.95093-1.13273-5.99385-2.16025-12.50146-8.99082-14.47084-8.99082-14.47084a35.80491,35.80491,0,0,0,3.16821-4.19569c1.19879-1.96942,1.62692-2.39755,4.88071-7.02137Z" id="svg_10"/>
      <g id="svg_11">
        <path class="cls-8" d="M466.96461,209.7546s1.28447-1.02758,2.05511-.25694l.85626.77063s-.51376-1.45566-1.45566-1.54127c-.94189,0-.77063.685-.77063.685" id="svg_12"/>
        <path class="cls-8" d="M466.79343,206.0726a2.14756,2.14756,0,0,1,2.39752.3425c1.11314,1.02753.9419-1.19876-.59937-1.19876a3.50269,3.50269,0,0,0-1.96939.3425Z" id="svg_13"/>
        <path class="cls-8" d="M466.45093,203.93194a1.7655,1.7655,0,0,1,1.62689.08564c.685.51376.42813.51376.42813.51376s.685-1.37.08563-1.71253-1.54126-.77063-1.88379,0l-.25686.77063a1.17231,1.17231,0,0,1,1.37-.3425c.85627.42814.42813.3425.42813.3425s-.25686-.25686-1.02752-.17126c-.85627.08563-.77063.51376-.77063.51376" id="svg_14"/>
        <path class="cls-8" d="M466.45093,200.33563s-.08564-.685-.5994.08563l-.51376.77063s-1.11313-1.19876-.42813-1.6269c.685-.3425,1.54129.77064,1.54129.77064" id="svg_15"/>
        <path class="cls-8" d="M462.63681,199.3414s-.29594-.547.47469-1.14642.9419-.17125.9419-.17125a1.81725,1.81725,0,0,0-1.37-.94189h-.85626s.51376.25688.25687,1.19876-.54887.86938-.54887.86938Z" id="svg_16"/>
        <path class="cls-8" d="M453.09321,199.82188a1.6365,1.6365,0,0,0,.17126-1.11315c-.17126-.77063-1.00869-.61881-.91268-.88088.13274-.36237,1.08392.19587,1.769.45275a1.13674,1.13674,0,0,1,.685,1.02751Z" id="svg_17"/>
        <path class="cls-8" d="M457.717,198.79436s-.25687-.42813.25687-.94189.43348-1.93747.43348-1.93747-.00535.91-.60475,1.16684c-.51376.25688-.42813.59938-.42813.685.17129,0,.34253,1.02751.34253,1.02751" id="svg_18"/>
        <path class="cls-8" d="M454.80574,196.75351s.25687,1.01334.94189.58521l.7967-.84725s-.19733,1.18975-.62546,1.44663a1.58078,1.58078,0,0,0-.5994.77063,4.26535,4.26535,0,0,0,0-1.11314c-.25686-.42814-.51373-.84208-.51373-.84208" id="svg_19"/>
        <path class="cls-8" d="M450.01066,200.07876a.99792.99792,0,0,1,.77063.42813c.42813.85626,1.38707-.03271,1.38707-.03271a1.31377,1.31377,0,0,1-1.21581-.56668c-.433-.58964-.94189.17126-.94189.17126" id="svg_20"/>
        <path class="cls-8" d="M447.871,204.06426a4.919,4.919,0,0,0,2.05405-.56045,5.17206,5.17206,0,0,0,.5994-.685.9424.9424,0,0,1-.77064.25687c-.42813-.08563-.51376-.08563-1.11313.3425Z" id="svg_21"/>
        <path class="cls-8" d="M446.41437,214.37834a4.82984,4.82984,0,0,1,1.54126-2.055c1.02753-.685,1.58834-3.22973,1.58834-3.22973a1.23916,1.23916,0,0,0-.30394-1.30846c-.51377-.5994-.685-.77063-.685-.77063s-.42813.59939-.94189,1.19876c-.5994.5994-.77063.77063-.685,1.54126s-.08563-.25686.59939-.3425c.5994-.08563,1.43713-.65731,1.52167-.36661.06762.23255-.9223.19535-1.09353.966a2.32673,2.32673,0,0,1-.685,1.11314,4.13182,4.13182,0,0,1-.25687,1.62689,3.6595,3.6595,0,0,0-.59942,1.62692" id="svg_22"/>
        <path class="cls-8" d="M448.77137,219.40949s.51767-1.43483,1.03143-2.71923l.51377-1.19876-.3425-1.96939a7.38991,7.38991,0,0,1-.3425,2.56879,16.16144,16.16144,0,0,0-.77066,3.08252" id="svg_23"/>
        <path class="cls-8" d="M459.42956,198.6231s.77063-.42813.25686-1.6269l-.51376-1.19876s1.71253-1.71253,1.88379.59938c.08563,2.31191-1.62689,2.22628-1.62689,2.22628" id="svg_24"/>
        <path class="cls-10" d="M450.005,224.85479a3.52742,3.52742,0,0,0-.33687-3.02695c-1.02753-1.62689-1.02753-1.88379-1.02753-2.99692,0-1.02752-.3425-.94189-1.71253-2.74s.42814-4.19569.17127-5.22321c-.25687-.9419-.9419-1.45566.685-3.25379s-1.54127-2.74006,0-3.76756c1.54126-.94189,1.71252-1.11313,1.54126-2.82567s1.02753-1.19876,1.79816-2.48316c.77063-1.37,1.02753-.42813,2.82566-1.62689,1.71253-1.2844,1.28439-1.6269,2.39753-1.11315s1.28439-.42813,2.39752-.42813,1.54127-1.19876,2.48316.59938,1.79816-.17125,2.82566,1.96941,1.37.51376,2.31192,1.79816.08563,1.96941,1.54127,2.56879.3425,1.28439.85626,2.31192c.51376.9419,1.71253,1.45566,1.71253,3.59632s-.42814,3.68192.25687,4.70945,1.19876,3.16818,0,3.76755-.5994.51376-1.11314,3.08255-1.28439,3.68193-1.02752,5.99385-.08564,1.79816-.5994,3.76755c-.59939,1.9694-.17126,2.74006-.17126,2.74006l-1.71253.17126s-2.14066-3.85319-1.19876-6.76448c1.02752-2.82566,1.71252-3.68192,1.45566-7.53511-.17127-3.85318.85626-5.65134.59939-8.39137-.17126-2.74-.685-9.162-4.11005-10.27516s-10.0183-.77063-11.55956,1.96941-1.88379,5.13757-1.6269,8.73389c.17127,3.59631.42814,3.59631,1.11314,7.5351s.42813,4.79508,1.28439,5.56572l.88278,1.1306a12.99393,12.99393,0,0,1-.62588,2.55132c-.3425.685-.50212.53181-.50212.53181Z" id="svg_25"/>
      </g>
      <g id="svg_26">
        <path d="M455.662,214.89211a1.99138,1.99138,0,0,0,1.9694.685,8.43926,8.43926,0,0,1,3.08255-.3425,7.50967,7.50967,0,0,0,1.79816-.08564s-.77063-2.055-2.22629-2.39752c-1.37-.3425-2.22629-.08563-.685.17126s1.37,1.19876,1.37,1.19876a6.084,6.084,0,0,0-2.9113-.25686l-1.11313.25686s-.17126-.51376.51377-.77063,1.19876-.85626.3425-.685c-.94193.17124-2.14069,2.22627-2.14069,2.22627" id="svg_27"/>
        <path d="M457.97392,217.28966a10.21176,10.21176,0,0,1,1.79816-.51376c.685-.08564,1.88379.51376,2.055-.25687.17126-.85627-.25687-.5994-.85626-.17127a4.30817,4.30817,0,0,1-2.2263.3425,2.12,2.12,0,0,0-.77063.5994" id="svg_28"/>
        <path d="M462.59774,207.1001a2.9851,2.9851,0,0,0,2.39753-.17126c.85626-.685.685-.77063.85626.51376s.685,1.6269.685,1.6269a7.98543,7.98543,0,0,1-.42813-2.82566c0-1.79816-.42813-3.08255-1.02753-3.25379s-.685,1.02753-.685,1.02753a3.61375,3.61375,0,0,0-1.79816,0c-.94189.25686-.94189.94189-1.79815.94189h-.85627a3.78814,3.78814,0,0,1,.85627-2.14066,2.1142,2.1142,0,0,0-1.2844,1.88379c-.08563,1.45566.42813,2.31192.42813,3.42506v.85626a2.732,2.732,0,0,0,.5994-.51376c0-.17127-.51377-1.11314.08563-1.11314.59939-.08563,1.02753-.17126,1.02753-.17126a1.57717,1.57717,0,0,1,.51376-1.11313.75254.75254,0,0,0,1.11313.25687c.77063-.42813.42813-.77063.42813-.77063s1.2844.3425.5994,1.02752a1.833,1.833,0,0,1-1.71253.51371" id="svg_29"/>
        <path d="M458.57329,210.35392s-1.54126.42813-1.28439-.42813a4.19787,4.19787,0,0,1,.685-1.37s-.17127,1.45566,1.19876.685c1.37-.685.25687.5994,1.11313.25687.9419-.3425.5994,1.2844.5994,1.2844s-1.37.94189-1.45566.08563l-.08563-.77063Z" id="svg_30"/>
        <path d="M466.80873,211.55268a35.511,35.511,0,0,1-.7003,4.19569c-.51377,2.82566.51376,5.39445-.17127,7.107a23.27083,23.27083,0,0,0-1.45566,4.53818c-.25686,1.71253,1.37,3.76756,1.54127,5.052a1.77984,1.77984,0,0,1-1.05564,1.89528c-.12571.05051-1.34189.41664-.99939-1.38152.3425-1.88379,1.54126-1.28439.51376-3.33942-.94189-1.96939-1.79815-.17126-2.055-1.88379-.3425-1.62689-.17127-1.28439-.17127-1.28439a4.99981,4.99981,0,0,1-3.16818-.51377c-1.54126-.77063-1.79816-.685-3.76756-.77063-1.96939-.17126-3.59276-.55351-3.25384-1.88368.176-.69054,1.14812-.71954,1.88382-1.28448a12.28986,12.28986,0,0,1,5.56571-1.88379c2.74-.3425,4.28132,1.79816,4.70945.51377.51376-1.19877-.42813-1.19877.3425-3.76756A33.72521,33.72521,0,0,1,466.80873,211.55268Z" id="svg_31"/>
        <path d="M460.62832,212.06645s.42813.08563.77063.17126c.3425.17126.42813.685.9419,1.02753a15.54257,15.54257,0,0,1,1.28439,1.02752s-1.54126-.685-1.71253-1.02752l-.17126-.3425Z" id="svg_32"/>
        <path d="M453.26447,203.93194c-.59939.77064-.59939.77064-1.37.3425l-.08563.25687c-.17127.3425,0,.3425-.3425.77063.42813.685.25686.25687.3425,1.11314l.51376.17126c.94189-.08563.42813-.42813,1.19876-.85626.08563-.17127.42813-.42814.42813-.25687a1.19541,1.19541,0,0,0,.25687.77063,1.39894,1.39894,0,0,0,.5994,0c.08563,0,.08563-.25687-.17127-.3425-.08563,0-.08563-.25687,0-.3425s.685,0,.685-.08563a.71643.71643,0,0,1-.51376,1.11313l.08563.42813,1.19877-.08563.3425-.3425.25687-.5994c.77063-.08563.77063.25687,1.37.42814a2.2994,2.2994,0,0,0-.59939-1.9694c-.85627-.3425-.42813-.77063-1.9694-.85626-.59939-.08563-.59939-.17127-1.11313,0a4.23842,4.23842,0,0,1-1.11311.34252" id="svg_33"/>
        <path class="cls-9" d="M466.02282,222.85535c-1.02753,2.82565-1.54126,4.19568-1.19876,5.737a13.22219,13.22219,0,0,0,.9166,3.23647c-.14957-1.1375-.76213-1.36121.1109-5.37713.85626-3.93881,1.37-3.51068,1.54126-5.65134s-.82047-2.58208-.90607-6.34964h0c-.04671.26231-.0358,1.57695-.0358,3.69522" id="svg_34"/>
      </g>
      <g id="svg_35">
        <g id="svg_36">
          <path class="cls-8" d="M453.11588,285.0597s-4.79685-11.12214-4.79481-35.50962c.0004-4.77242.31377-17.10452,4.23944-10.02464,2.20061,3.96877,8.46452,7.44832,8.46452,7.44832-3.4615-.09954-8.68037-.50632-8.7624,13.26849C452.19545,269.6359,453.11588,285.0597,453.11588,285.0597Z" id="svg_37"/>
          <path class="cls-8" d="M447.871,226.63992c-1.53547,11.47447-6.20929,14.43873-4.796,47.16313.38566,8.93009,12.98254,78.74538,19.23325,102.72075" id="svg_38"/>
          <path class="cls-8" d="M442.91812,221.75972a112.12,112.12,0,0,1-2.92576,21.98847c-2.56879,19.4372-.59939,51.03331,6.93574,93.76085,3.08256,18.15277,6.08607,30.58563,7.28484,35.89448" id="svg_39"/>
          <path class="cls-8" d="M445.70686,262.523c-.22964,16.77031,4.89072,33.45884,6.18759,43.56114,1.18734,9.24914,11.44146,46.36632,19.66159,71.62609" id="svg_40"/>
          <path class="cls-8" d="M438.21384,220.12991a18.853,18.853,0,0,1-.79024,7.863c-13.89066,48.03636-1.94083,100.54873,2.02925,130.58018l8.63767,12.78163c-3.425-17.8959-10.49566-47.03217-12.89321-91.301-1.6269-29.798,1.11313-26.9723,3.59632-54.80086a16.1976,16.1976,0,0,0-.9419-7.62074A20.97212,20.97212,0,0,1,438.21384,220.12991Z" id="svg_41"/>
        </g>
        <g id="svg_42">
          <path d="M476.13,263.87a.47387.47387,0,0,1,.01.67,15.20382,15.20382,0,0,0-1.7,2.45c-.56.92-.88,1.44-1.31,1.44a.62946.62946,0,0,1-.19-.03c-.51-.16-.57-.73005-.47-2.25.24-2.77-.53-3.68006-.87-3.94a.55093.55093,0,0,0-.17-.1.49867.49867,0,0,1-.12-.87l1.11-.77a1.62235,1.62235,0,0,0,.66-1.56.48951.48951,0,0,1,.26-.53,1.73507,1.73507,0,0,1,1.5.02,6.67222,6.67222,0,0,0,.11-1.29.48942.48942,0,0,1,.96-.14,19.20259,19.20259,0,0,1,.44,2.38,3.10173,3.10173,0,0,1-1.73,2.98Z" id="svg_43"/>
          <path d="M477.12,256.57a.48164.48164,0,0,0-.47-.38h-2.14a1.314,1.314,0,0,1-1.03-.36,1.5334,1.5334,0,0,1-.29-1.06.46407.46407,0,0,0-.18-.44.49352.49352,0,0,0-.48-.08l-2.22.86a4.9846,4.9846,0,0,1-3.16.09c.28-.25.71-.62,1.33-1.14,1.34-1.12,1.96-2.16,1.89-3.18-.12-1.56-1.77-2.58-3.36-3.57-.53-.33-1.04-.64-1.46-.95-2.04-1.54-.76-4.34-.71-4.46a.44669.44669,0,0,0,0-.42005.47483.47483,0,0,0-.34-.26l-2.49-.52a2.95947,2.95947,0,0,1-1.74-1.42.65919.65919,0,0,0-.93-.16c-.29.17-.82.69-.55,1.23a9.61263,9.61263,0,0,0,.85,1.04,7.0227,7.0227,0,0,0,3,1.3,5.27284,5.27284,0,0,0,2.14,4.91L462.42,246.78a.46978.46978,0,0,0-.54.16.48151.48151,0,0,0-.03.56,5.058,5.058,0,0,0,3.07,1.89c1.34.39,2.53.66,3.22.8l-.41.89c-.47.99-2.48,1.43-3.21,1.52a.47883.47883,0,0,0-.39.28,4.30473,4.30473,0,0,0-.2,2.92c.45,1.41,3.11,1.36,4.37,1.25a9.24135,9.24135,0,0,0,.25,1.73c.35,1.26,2.46,1.3,2.7,1.3a.4799.4799,0,0,0,.37-.17.51267.51267,0,0,0,.12-.38l-.39-2.88a6.5486,6.5486,0,0,1,.96.46,5.4676,5.4676,0,0,0,4.55.01A.49688.49688,0,0,0,477.12,256.57Zm-13.39-14.49c-.01-.01-.01-.02-.02-.03l.02.01Z" id="svg_44"/>
          <path d="M477.11,315a.50822.50822,0,0,1-.46.32.40081.40081,0,0,1-.15-.03.48733.48733,0,0,1-.33-.59c.01-.03.83-3.6.05-20.18-.34-7.1-4.63995-18.2-4.68-18.31a.49251.49251,0,0,1,.82-.51,2.01885,2.01885,0,0,1,.17.21l.12994.17c.73.93,2.96,3.73,4.61005,11.15C481.02,304.04,477.15,314.89,477.11,315Z" id="svg_45"/>
        </g>
      </g>
      <path class="cls-10" d="M474.4,382c-.13489-26.50621,6.797-48.93082,7.30628-73.58829.389-18.83222-3.19369-27.05027-4.05-30.73222a16.60391,16.60391,0,0,1-.19442-5.54431,6.068,6.068,0,0,1,1.3691-3.18326,8.8942,8.8942,0,0,0,2.17638-4.054c.17126-2.39752-2.31192-7.70637-2.82566-13.18645-.42813-5.48008-1.6941-9.50836-4.94791-13.36154s-4.29975-5.04812-4.29975-5.04812-1.37-1.11314-2.65442.685c-1.2844,1.88379-3.51069,2.22629-5.05195,3.51068a6.982,6.982,0,0,0-1.9694,2.31192s-4.62382-2.56879-5.30884-6.8501a19.45547,19.45547,0,0,0-5.13758-9.4189c-3.59632-3.51069-5.73695-3.59632-5.73695-3.59632s-.07152-.93609-1.72366-2.65442a8.9848,8.9848,0,0,0-2.7289-1.71253,8.7143,8.7143,0,0,0-1.96939-2.74005c-1.88379-2.055-3.51069-1.11313-3.51069-1.11313s2.055,3.08255-.3425,10.36079c-2.48316,7.27824-1.54126,6.07948-3.08255,13.78585s-4.85641,47.76054-3.68192,63.65842c1.5295,20.70345,1.56514,60.317-.06808,82.471" id="svg_46"/>
    </g>
    <path id="Sol-2" data-name="Sol" class="cls-11" d="M319.56522,450H580.43478l-35.205-19.90345L568.46631,387.17l-50.61914,7.20765,3.68161-47.897-47.33521,32.44637L449.47409,330l-23.14165,47.382-48.913-30.902,8.41514,46.8676-57.32817-6.18022,25.77138,40.6867Z"/>
    <path id="Sol-3" data-name="Sol" class="cls-12" d="M371.73916,439.228H528.26087c-6.99743-35.74866-34.618-52.17391-77.09281-52.17391-39.70377,0-71.83436,14.09376-79.42893,52.17391Z"/>
    <g id="Dagas">
      <path d="M431.48606,402.03762c1.32243.625,15.20788,6.97964,31.87043,20.62634a5.54412,5.54412,0,0,0,2.11589-.625c-4.364-3.85444-26.713-19.37628-31.47368-20.20965a5.87756,5.87756,0,0,0-2.51264.20835" id="svg_47"/>
      <path class="cls-13" d="M461.90182,422.35146s-.92572.83337,1.32242,1.35424c1.19017-.10418,3.17381-.93756,4.76074-1.04174s5.6864.72923,6.08316,3.22939c.39671,2.50015-2.64485,2.81269-2.38035,4.16694.13225.72922,1.05792.52086,1.05792.52086s1.45468-.3125,1.32243-.83337-.529-.10418-.66122-.625,1.98364-1.25009,1.58693-3.43771c-.2645-2.08347-3.70277-4.16694-7.14108-3.95858-1.58693.10418-4.23178,1.04173-4.893,1.04173-.529.20833-1.058-.41671-1.058-.41671" id="svg_48"/>
      <path class="cls-13" d="M467.19151,423.49737s.529,0,.66122.31251c.13225.41669-.13225.41669-.13225.41669s.66121-.10418.92571.3125c.13225.20836-.13225.31251-.13225.31251s.66121-.10418.79346.20836-.2645.41669-.2645.41669a.67555.67555,0,0,1,.79346.20836c.39671.41669-.13225.41669-.13225.41669a1.18609,1.18609,0,0,1,.79346.10418c.2645.3125-.13225.41668-.13225.41668s.529-.20836.79347.10418a.34292.34292,0,0,1,0,.52087s.66121-.10418.92571.20836-.13225.52087-.13225.52087.66121,0,.66121.3125-.79346.83338-.79346.83338l-.13225-.41669a1.21581,1.21581,0,0,1-.66121-.20836.4538.4538,0,0,1-.13226-.52086s-.2645.10418-.66121-.31251c-.39671-.31251-.13225-.52087-.13225-.52087a.37185.37185,0,0,1-.529-.10418c-.2645-.20836-.13225-.41669-.13225-.41669a.6835.6835,0,0,1-.66121-.20836c-.2645-.3125,0-.41668,0-.41668a1.89757,1.89757,0,0,1-.79346-.20836c-.39672-.20836,0-.41669,0-.41669s-.26451.10418-.79347-.31251c-.39671-.31251,0-.41669,0-.41669a.96713.96713,0,0,1-.79346-.20836c-.39671-.3125,0-.41668,0-.41668a1.21581,1.21581,0,0,1-.66121-.20836.25015.25015,0,0,1,0-.41669s-.79346.10418-.529-.20836,1.32242-.72923,1.58692-.41669c.529.62508.39675.72926.39675.72926" id="svg_49"/>
      <path class="cls-13" d="M465.07563,423.7057l-.529.10418s6.47987,5.10449,7.00883,5.62536l.2645-.31251c-.13225.20836-6.21541-5.10449-6.74437-5.417" id="svg_50"/>
      <path d="M468.51394,401.62094c-1.32243.625-15.20788,6.97963-31.87043,20.62634a5.544,5.544,0,0,1-2.11589-.625c4.364-3.85443,26.713-19.37628,31.47368-20.20965a5.87675,5.87675,0,0,1,2.51264.20836" id="svg_51"/>
      <path class="cls-13" d="M438.09818,421.93477s.92572.83337-1.32242,1.35424c-1.19017-.10418-3.17381-.93755-4.76074-1.04173s-5.6864.72922-6.08316,3.22938c-.39671,2.50016,2.64485,2.8127,2.38035,4.16694-.13225.72923-1.05792.52087-1.05792.52087s-1.45468-.31251-1.32243-.83338.529-.10418.66122-.62505-1.98364-1.25009-1.58693-3.43771c.2645-2.08347,3.70277-4.16694,7.14108-3.95858,1.58693.10418,4.23178,1.04174,4.893,1.04174.529.20832,1.058-.41672,1.058-.41672" id="svg_52"/>
      <path class="cls-13" d="M432.80849,423.08068s-.529,0-.66122.31251c-.13225.41669.13225.41669.13225.41669s-.66121-.10418-.92571.31251c-.13225.20836.13225.3125.13225.3125s-.66121-.10418-.79346.20836.2645.41669.2645.41669a.67555.67555,0,0,0-.79346.20836c-.39671.41669.13225.41669.13225.41669a1.18609,1.18609,0,0,0-.79346.10418c-.2645.31251.13225.41669.13225.41669s-.529-.20836-.79347.10417a.34292.34292,0,0,0,0,.52087s-.66121-.10418-.92571.20836.13225.52087.13225.52087-.66121,0-.66121.31251.79346.83337.79346.83337l.13225-.41669a1.21586,1.21586,0,0,0,.66121-.20835.45382.45382,0,0,0,.13226-.52087s.2645.10418.66121-.31251c.39671-.31251.13225-.52087.13225-.52087a.37185.37185,0,0,0,.529-.10418c.2645-.20836.13225-.41668.13225-.41668a.68353.68353,0,0,0,.66121-.20836c.2645-.31251,0-.41669,0-.41669a1.89757,1.89757,0,0,0,.79346-.20836c.39672-.20836,0-.41669,0-.41669s.26451.10418.79347-.31251c.39671-.3125,0-.41668,0-.41668a.96713.96713,0,0,0,.79346-.20836c.39671-.31251,0-.41669,0-.41669a1.21581,1.21581,0,0,0,.66121-.20836.25015.25015,0,0,0,0-.41669s.79346.10418.529-.20836-1.32242-.72923-1.58692-.41669c-.529.5209-.39675.72926-.39675.72926" id="svg_53"/>
      <path class="cls-13" d="M435.45329,423.49737s-6.47987,5.10449-7.00883,5.62536l-.2645-.31251c.13225,0,6.21541-5.20867,6.74437-5.417" id="svg_54"/>
    </g>
  </g></g></svg>