<svg xmlns="http://www.w3.org/2000/svg" version="1.0" width="900" height="600">
  <path style="fill:#00247d;fill-opacity:1;stroke:none" d="M-377.09216 314.9809h900v600h-900z" transform="translate(377.09217 -314.98089)"/>
  <path style="fill:#fff;fill-opacity:1;stroke:none" d="M-377.09238 664.9809h900v250h-900z" transform="translate(377.09217 -314.98089)"/>
  <path style="fill:#008033;fill-opacity:1;stroke:none" d="M-377.09238 714.9809h900v200h-900z" transform="translate(377.09217 -314.98089)"/>
  <g>
    <path d="M-217.09244 382.48138v185.00014M-181.69815 389.52087l-70.78846 170.92117M-151.68497 409.57402l-130.81486 130.81485M-131.63183 439.5872-302.553 510.37565M-124.59232 474.98147h-185.00014M-302.55298 439.5872l170.92117 70.78845M-282.49983 409.57402l130.81485 130.81486M-252.48661 389.52087l70.78846 170.92117" style="fill:none;stroke:#fff;stroke-width:14.99982071;stroke-linecap:butt;stroke-linejoin:miter;stroke-miterlimit:4;stroke-opacity:1;stroke-dasharray:none" transform="translate(377.31803 -315.21781)"/>
    <path d="M227.72563 159.78828a67.499997 67.499997 0 0 1-134.999985 0 67.499997 67.499997 0 1 1 134.999985 0z" style="fill:#fff;fill-opacity:1;stroke:none"/>
    <path d="M217.72564 159.77436a57.500001 57.500001 0 0 1-115 0 57.500001 57.500001 0 1 1 115 0z" style="fill:#fc0;fill-opacity:1;stroke:none"/>
  </g>
</svg>
