<?xml version="1.0" encoding="utf-8"?>
<!-- Generator: Adobe Illustrator 24.3.0, SVG Export Plug-In . SVG Version: 6.00 Build 0)  -->
<!DOCTYPE svg PUBLIC "-//W3C//DTD SVG 1.1//EN" "http://www.w3.org/Graphics/SVG/1.1/DTD/svg11.dtd" [
	<!ENTITY ns_extend "http://ns.adobe.com/Extensibility/1.0/">
	<!ENTITY ns_ai "http://ns.adobe.com/AdobeIllustrator/10.0/">
	<!ENTITY ns_graphs "http://ns.adobe.com/Graphs/1.0/">
	<!ENTITY ns_vars "http://ns.adobe.com/Variables/1.0/">
	<!ENTITY ns_imrep "http://ns.adobe.com/ImageReplacement/1.0/">
	<!ENTITY ns_sfw "http://ns.adobe.com/SaveForWeb/1.0/">
	<!ENTITY ns_custom "http://ns.adobe.com/GenericCustomNamespace/1.0/">
	<!ENTITY ns_adobe_xpath "http://ns.adobe.com/XPath/1.0/">
]>
<svg version="1.1" id="Bandera" xmlns:x="&ns_extend;" xmlns:i="&ns_ai;" xmlns:graph="&ns_graphs;"
	 xmlns="http://www.w3.org/2000/svg" xmlns:xlink="http://www.w3.org/1999/xlink" x="0px" y="0px" viewBox="0 0 1152 648"
	 style="enable-background:new 0 0 1152 648;" xml:space="preserve">
<style type="text/css">
	.st0{fill:#FFCC00;}
	.st1{fill:#CF142B;}
	.st2{fill:#FFFFFF;}
	.st3{fill:#008033;}
	.st4{fill:#008033;stroke:#000000;stroke-width:0.4756;}
</style>
<metadata>
	<sfw  xmlns="&ns_sfw;">
		<slices></slices>
		<sliceSourceBounds  bottomLeftOrigin="true" height="16383" width="16383" x="-7708" y="-7907.5"></sliceSourceBounds>
	</sfw>
</metadata>
<rect x="0" class="st0" width="1152" height="216"/>
<rect x="0" y="216" width="1152" height="216"/>
<rect x="0" y="432" class="st1" width="1152" height="216"/>
<g id="Estrellas">
	<g>
		<g>
			<g>
				<polygon class="st2" points="605.6,256.4 593.2,259.1 601.2,249.5 594.7,238.9 606.6,243.3 614.8,234.1 614.4,246.3 626,251.2 
					613.7,254.4 612.6,266.6 				"/>
			</g>
		</g>
		<g>
			<g>
				<polygon class="st2" points="649.4,296.7 638.6,290.3 651.2,288.7 654.1,276.9 659.4,288.1 672.1,286.9 662.9,295.4 
					667.8,306.7 656.6,300.7 647.1,308.8 				"/>
			</g>
		</g>
		<g>
			<g>
				<polygon class="st2" points="546.4,256.3 539.4,266.5 538.3,254.2 526.2,251.1 537.8,246.2 537.1,233.9 545.6,243.2 
					557.4,238.8 550.9,249.4 558.9,259 				"/>
			</g>
		</g>
		<g>
			<g>
				<polygon class="st2" points="502.6,296.6 505,308.7 495.3,300.7 484.2,306.6 489.2,295.2 479.9,286.8 492.6,287.8 498,276.8 
					500.8,288.7 513.5,290.2 				"/>
			</g>
		</g>
	</g>
	<g>
		<g>
			<g>
				<polygon class="st2" points="604.8,257.5 589.9,260.8 599.6,249.3 591.8,236.7 606,242 616,230.8 615.3,245.6 629.3,251.3 
					614.5,255.1 613.2,269.9 				"/>
			</g>
		</g>
		<g>
			<g>
				<polygon class="st2" points="648.3,297.4 635.2,289.9 650.4,288 653.9,273.6 660.3,287 675.4,285.7 664.3,296 670.3,309.4 
					657,302.3 645.5,312.1 				"/>
			</g>
		</g>
		<g>
			<g>
				<polygon class="st2" points="547.2,257.5 538.9,269.8 537.5,255 522.8,251.2 536.9,245.4 536.1,230.7 546.2,241.8 560.3,236.5 
					552.5,249.2 562.2,260.7 				"/>
			</g>
		</g>
		<g>
			<g>
				<polygon class="st2" points="503.8,297.4 506.6,311.9 495.1,302.3 481.8,309.3 487.7,295.7 476.5,285.7 491.8,286.8 
					498.2,273.5 501.6,288 516.8,289.8 				"/>
			</g>
		</g>
	</g>
</g>
<g id="Cafe2">
	<g>
		<path class="st3" d="M666.9,340.3c1.6-5.4-0.6-11.6-5.5-15.6c-0.9,0.8-7.1,6.2-6.6,14.5c0.2,4.6,2.3,7.9,3.5,9.4
			c-2.1,7.1-10.6,33.3-37.9,49.6c-15.1,9.1-29.9,11.5-38.7,12.1c-0.1,0-0.3,0-0.7,0c-10.4,0.8-17.5,3.4-22.1,5.7
			c-0.6,0.3-0.7,0.9-0.6,1.1c0.1,0.2,0.5,0.2,0.6,0.2c4.9-2.4,12.1-5,22.4-5.6c0.3,0,0.5,0,0.6,0c8.4-0.6,29.1-3.3,48.6-18.6
			c21-16.5,27.5-37.4,29.4-44.4C661,348.2,665.4,345.4,666.9,340.3z"/>
		<path class="st4" d="M658.9,356.4c1.9-6.7,7.1-11.4,19.9-11.3C675.8,357.3,668.5,359.4,658.9,356.4L658.9,356.4z"/>
		<path class="st1" d="M659.6,359.3c1.9-0.5,4,0.8,4.4,2.7c0.5,1.9-0.8,3.9-2.7,4.3c-2,0.5-4-0.8-4.4-2.7
			C656.4,361.7,657.6,359.8,659.6,359.3L659.6,359.3z"/>
	</g>
	<path class="st4" d="M649.2,375.9c3.1-6.2,9.3-9.8,21.9-7.3C665.6,379.9,658,380.7,649.2,375.9L649.2,375.9z"/>
	<path class="st1" d="M648.1,378.3c1.9-0.5,4,0.8,4.4,2.7c0.5,1.9-0.8,3.9-2.7,4.3c-2,0.5-4-0.8-4.4-2.7
		C645,380.6,646.2,378.7,648.1,378.3L648.1,378.3z"/>
	<path class="st4" d="M634.5,391.8c4.7-5.3,11.4-7.3,23.1-2C649.4,399.6,641.9,398.5,634.5,391.8L634.5,391.8z"/>
	<path class="st4" d="M616.6,403.6c5.9-3.8,13-4.1,22.7,4.2C628.8,415.1,621.8,412.1,616.6,403.6L616.6,403.6z"/>
	<path class="st1" d="M632.4,394c1.9-0.5,4,0.8,4.4,2.7c0.5,1.9-0.8,3.9-2.7,4.3c-2,0.5-4-0.8-4.4-2.7
		C629.3,396.5,630.4,394.6,632.4,394L632.4,394z"/>
	<path class="st1" d="M612.6,405.5c1.9-0.5,4,0.8,4.4,2.7c0.5,1.9-0.8,3.9-2.7,4.3c-2,0.5-4-0.8-4.4-2.7
		C609.5,407.9,610.6,406,612.6,405.5L612.6,405.5z"/>
	<path class="st4" d="M654.7,354.8c-9.7-3.3-14-9.2-8.7-20.7C656.2,341.6,657.5,348.4,654.7,354.8L654.7,354.8z"/>
	<path class="st4" d="M644.8,372.8c-8.7-5-11.9-11.7-4.3-22C649,360.2,648.8,367.1,644.8,372.8L644.8,372.8z"/>
	<path class="st4" d="M631.2,388c-7.2-7-8.4-14.3,1.5-22.3C638.6,376.7,636.6,383.3,631.2,388L631.2,388z"/>
	<path class="st4" d="M614.5,399.7c-5.2-8.5-4.7-15.8,7-21.3C624.4,390.4,620.9,396.4,614.5,399.7L614.5,399.7z"/>
	<path class="st1" d="M649,354.2c1.9-0.5,4,0.8,4.4,2.7c0.5,1.9-0.8,3.9-2.7,4.3c-2,0.5-4-0.8-4.4-2.7
		C645.8,356.7,647,354.8,649,354.2L649,354.2z"/>
	<path class="st1" d="M638.8,370.7c1.9-0.5,4,0.8,4.4,2.7c0.5,1.9-0.8,3.9-2.7,4.3c-2,0.5-4-0.8-4.4-2.7
		C635.7,373.1,636.8,371.2,638.8,370.7L638.8,370.7z"/>
	<path class="st1" d="M625.4,384.8c1.9-0.5,4,0.8,4.4,2.7c0.5,1.9-0.8,3.9-2.7,4.3c-2,0.5-4-0.8-4.4-2.7
		C622.3,387.3,623.4,385.4,625.4,384.8L625.4,384.8z"/>
	<path class="st1" d="M607.5,394.9c1.9-0.5,4,0.8,4.4,2.7c0.5,1.9-0.8,3.9-2.7,4.3c-2,0.5-4-0.8-4.4-2.7S605.4,395.4,607.5,394.9
		L607.5,394.9z"/>
</g>
<g id="Cafe">
	<g>
		<path class="st3" d="M492.1,348.7c1.9,7,8.3,27.8,29.4,44.4c19.5,15.3,40.2,17.9,48.6,18.6c0.1,0,0.2,0,0.6,0
			c10.3,0.7,17.5,3.3,22.4,5.6c0.1,0,0.3,0,0.6-0.2c0.1-0.2,0-0.8-0.6-1.1c-4.7-2.3-11.8-5-22.1-5.7c-0.3,0-0.6,0-0.7,0
			c-8.7-0.7-23.5-2.9-38.7-12.1c-27.1-16.3-35.8-42.5-37.9-49.6c1-1.5,3.3-4.7,3.5-9.4c0.5-8.3-5.7-13.8-6.6-14.5
			c-4.9,4.1-7.1,10.1-5.5,15.6C486.7,345.4,491,348,492.1,348.7z"/>
		<path class="st4" d="M493.2,356.3c-9.7,3.2-17,0.9-19.9-11.3C486.1,344.9,491.3,349.6,493.2,356.3L493.2,356.3z"/>
		<path class="st1" d="M492.4,359.2c2,0.5,3.1,2.4,2.7,4.3c-0.5,1.9-2.4,3.2-4.4,2.7c-1.9-0.5-3.1-2.4-2.7-4.3
			C488.4,360,490.5,358.8,492.4,359.2L492.4,359.2z"/>
	</g>
	<path class="st4" d="M502.7,375.8c-8.9,4.8-16.4,4.1-21.9-7.3C493.5,366,499.6,369.6,502.7,375.8L502.7,375.8z"/>
	<path class="st1" d="M503.8,378.1c2,0.5,3.1,2.4,2.7,4.3c-0.5,1.9-2.4,3.2-4.4,2.7c-1.9-0.5-3.1-2.4-2.7-4.3
		C499.8,378.9,501.9,377.7,503.8,378.1L503.8,378.1z"/>
	<path class="st4" d="M517.4,391.7c-7.3,6.8-14.9,7.8-23.1-2C506,384.3,512.9,386.4,517.4,391.7L517.4,391.7z"/>
	<path class="st4" d="M535.4,403.5c-5.1,8.5-12.1,11.5-22.7,4.2C522.2,399.5,529.4,399.7,535.4,403.5L535.4,403.5z"/>
	<path class="st1" d="M519.5,394c2,0.5,3.1,2.4,2.7,4.3c-0.5,1.9-2.4,3.2-4.4,2.7c-1.9-0.5-3.1-2.4-2.7-4.3
		C515.7,394.7,517.7,393.6,519.5,394L519.5,394z"/>
	<path class="st1" d="M539.3,405.4c2,0.5,3.1,2.4,2.7,4.3c-0.5,1.9-2.4,3.2-4.4,2.7c-1.9-0.5-3.1-2.4-2.7-4.3
		C535.5,406.2,537.5,405,539.3,405.4L539.3,405.4z"/>
	<path class="st4" d="M497.3,354.7c-2.8-6.4-1.5-13.2,8.7-20.7C511.2,345.4,506.8,351.4,497.3,354.7L497.3,354.7z"/>
	<path class="st4" d="M507.2,372.7c-4-5.7-4.2-12.6,4.3-22C519.1,361,515.9,367.8,507.2,372.7L507.2,372.7z"/>
	<path class="st4" d="M520.7,387.8c-5.4-4.6-7.3-11.3-1.5-22.3C529.2,373.6,527.9,380.8,520.7,387.8L520.7,387.8z"/>
	<path class="st4" d="M537.5,399.6c-6.4-3.2-9.9-9.2-7-21.3C542,383.8,542.7,391.1,537.5,399.6L537.5,399.6z"/>
	<path class="st1" d="M503,354.2c2,0.5,3.1,2.4,2.7,4.3c-0.5,1.9-2.4,3.2-4.4,2.7c-1.9-0.5-3.1-2.4-2.7-4.3
		C499,355,501.1,353.8,503,354.2L503,354.2z"/>
	<path class="st1" d="M513.1,370.6c2,0.5,3.1,2.4,2.7,4.3c-0.5,1.9-2.4,3.2-4.4,2.7c-1.9-0.5-3.1-2.4-2.7-4.3
		S511.2,370.1,513.1,370.6L513.1,370.6z"/>
	<path class="st1" d="M526.5,384.8c2,0.5,3.1,2.4,2.7,4.3c-0.5,1.9-2.4,3.2-4.4,2.7c-1.9-0.5-3.1-2.4-2.7-4.3
		C522.7,385.6,524.6,384.3,526.5,384.8L526.5,384.8z"/>
	<path class="st1" d="M544.5,394.8c2,0.5,3.1,2.4,2.7,4.3c-0.5,1.9-2.4,3.2-4.4,2.7c-1.9-0.5-3.1-2.4-2.7-4.3
		C540.6,395.6,542.6,394.5,544.5,394.8L544.5,394.8z"/>
</g>
</svg>
