<?xml version="1.0" encoding="utf-8"?>
<!-- Generator: Adobe Illustrator 18.1.1, SVG Export Plug-In . SVG Version: 6.00 Build 0)  -->
<svg version="1.1" id="Layer_1" xmlns="http://www.w3.org/2000/svg" xmlns:xlink="http://www.w3.org/1999/xlink" x="0px" y="0px"
	 width="2551.2px" height="1700.8px" viewBox="-849 567.8 2551.2 1700.8" enable-background="new -849 567.8 2551.2 1700.8"
	 xml:space="preserve">
<rect x="-849" y="1418.3" fill="#FFFFFF" width="2551.2" height="850.4"/>
<rect x="-849" y="567.8" fill="#CF142B" width="2551.2" height="850.4"/>
<rect x="-847.9" y="567.9" display="none" fill="#FFFFFF" width="850.4" height="1700.8"/>
<polygon fill="#008033" points="-849,567.8 2.4,1419.3 -849,2270.8 "/>
<polygon fill="#FFFFFF" points="-733.2,1420.6 -590.3,1368.1 -589.8,1215.8 -495.7,1335.5 -350.8,1288.9 -435.6,1415.4 
	-346.5,1538.8 -492.9,1497.3 -582.8,1620.2 -588.5,1468 "/>
<g>
	<path d="M-550.3,1486c0.1,0,0.4,0.1,0.4-0.2c0.1,0,0.1,0,0.2-0.1c0,0,0-0.1-0.1-0.1c-0.1,0-0.1,0.1-0.1,0.2
		C-550.1,1485.9-550.3,1485.8-550.3,1486c-0.1,0-0.4-0.1-0.4,0.2c-0.2,0-0.3-0.1-0.5,0c-0.9,0.6-1.9,0.8-2.9,1.2
		c-1.5,0.6-3,1-4.5,1.6c-1.4,0.1-2.6,0.8-4,0.8c0,0-0.1,0-0.1,0c-1.2,0.3-1.2,0.2-2-0.1c-0.7-0.3-0.8-0.9-1-1.4c0-0.1,0-0.3,0-0.4
		c0.2-0.4,0.3-0.8,0.7-1.1c0.4-0.3,0.8-0.7,1.2-1c1.1-0.8,2.2-1.5,3.3-2.2c1.2-0.8,2.4-1.4,3.6-2.2c0.5-0.3,1.1-0.6,1.5-1
		c0.1,0,0.1,0,0.2-0.1c0,0,0-0.1-0.1-0.1c-0.1,0-0.1,0.1-0.1,0.2c-0.3,0-0.6,0-0.9,0.2c-0.2,0.2-0.6,0.1-0.9,0.2
		c-0.4,0.1-0.8,0.3-1.2,0.2c-0.4,0-0.8,0.3-1.1,0.2c-0.4-0.1-0.8,0.2-1.2,0.2c-0.9-0.1-1.8,0.2-2.7,0.2c-0.8,0-1.6-0.1-2.3,0
		c-0.8,0.1-1.5-0.2-2.3-0.2c-0.8-0.1-1.5-0.3-1.8-1.2c-0.1-0.2-0.3-0.3-0.2-0.6c0-0.3,0.2-0.5,0.2-0.8c0.1-0.7,0.8-0.9,1.3-1.2
		c1.6-0.8,3.2-1.6,4.8-2.4c1.7-0.8,3.5-1.5,5.2-2.5c0.2-0.1,0.4-0.1,0.4-0.4c-0.4-0.1-0.8,0.1-1.1,0.1c-0.9,0-1.8,0.2-2.6,0.2
		c-1,0-1.9,0-2.9,0c-1,0-1.9-0.2-2.8-0.4c-1.2-0.2-2.2-0.7-2.8-1.8c0-0.3,0-0.5,0-0.8c0-0.3,0.1-0.6,0.3-0.7c0.5-0.6,1.2-1.1,2-1.4
		c0.8-0.3,1.7-0.6,2.5-0.9c0.7-0.2,1.4-0.4,2.1-0.6c0.6-0.2,1.2-0.2,1.7-0.4c0.5-0.2,1.1-0.2,1.7-0.5c0.4-0.2,0.8-0.3,1.2-0.4
		c1-0.1,1.9-0.6,2.9-1c1-0.4,2-0.9,3-1.3c1.5-0.7,3.1-1.4,4.6-2.1c1.3-0.6,2.6-1.3,3.9-2c0.2-0.1,0.3-0.1,0.2-0.4
		c-0.8-0.2-1.5-0.7-2.4-0.6c-0.3,0-0.5,0.3-0.8,0.2c-0.6-0.1-1.1,0.3-1.7,0.2c-0.4,0.3-0.8,0.2-1.2,0.2c-0.4,0-0.8,0.2-1.2,0.2
		c-2.6-0.1-5.2,0.2-7.8-0.4c-1-0.2-1.9-0.4-2.7-0.9c-0.2-0.3-0.3-0.7-0.5-1c0-0.1,0-0.2,0-0.4c0-0.6,0.2-1,0.8-1.3
		c0.2-0.1,0.5-0.2,0.7-0.3c0.2-0.3,0.6,0.1,0.8-0.3c-1.1,0.2-2.1-0.1-3.1-0.2c-0.7,0-1.4,0.1-2.2-0.1c-0.6-0.2-1.3-0.1-2-0.2
		c-0.7-0.1-1.4-0.3-2.2-0.2c-0.1,0-0.1,0-0.2,0c-0.5-0.3-1-0.2-1.5-0.4c-0.5-0.2-1.1-0.3-1.6-0.4c-0.3,0-0.5-0.2-0.7-0.3
		c-0.6-0.4-0.8-1.1-0.7-1.8c0.1-0.5,0.5-0.7,0.8-1.1c0.3,0.1,0.5-0.2,0.8-0.2c0.3,0,0.5,0.1,0.8-0.1c-0.4-0.3-0.9-0.2-1.2-0.3
		c-0.8-0.3-1.5-0.5-2.3-0.8c-0.5-0.2-0.9-0.4-1.4-0.7c-0.4-0.2-0.7-0.5-1.1-0.8c-0.3-0.2-0.3-0.7-0.6-1c0-0.4,0-0.9,0-1.2
		c0.5-0.8,1.3-1.1,2.1-1.4c-0.5-0.1-1-0.2-1.4-0.2c-1-0.1-1.9-0.4-2.8-0.7c-1.1-0.3-2.1-0.7-3.1-1.3c-1.8-0.9-3.6-1.9-5-3.5
		c-0.6-0.6-1.1-1.3-0.9-2c0.3-0.8,0.7-1.2,1.3-1.4c1.3,0.1,2.6-0.1,3.9,0.2c0.7,0.2,1.4,0,2.1,0.2c0.1,0,0.2,0.1,0.4-0.1
		c-0.4-0.2-0.8-0.3-1.2-0.5c-0.9-0.4-2-0.7-2.8-1.3c-0.6-0.1-1.1-0.5-1.7-0.7c-0.6-0.3-1.1-0.5-1.7-0.7c-1-0.5-2-1.1-3-1.6
		c-0.4-0.2-0.8-0.4-1.2-0.7c-0.9-0.7-2-1.2-2.8-2.1c-0.7-0.1-0.7-0.8-1.2-1.2c0-0.4-0.3-0.7-0.2-1.1c0.2-0.8,1.1-1.4,1.9-1.4
		c0.8,0,1.5,0,2.3,0.2c0.8,0.1,1.6,0.4,2.4,0.5c0.6,0.1,1.2,0.3,1.8,0.4c0.8,0.1,1.5,0.3,2.2,0.5c0.8,0.2,1.6,0.4,2.6,0.6
		c-0.7-0.6-1.3-1-1.8-1.3c-1.4-0.9-2.6-2-3.9-3c-0.9-0.8-1.7-1.7-2.5-2.5c-0.4-0.4-0.7-0.9-1.1-1.3c-0.4-0.5-0.5-1.2-0.4-1.9
		c0.2-0.6,0.6-0.9,1.2-1.2c0.7,0,1.5,0,2.2,0.2c0.6,0.2,1.2,0.3,1.8,0.5c1.2,0.4,2.4,0.7,3.6,1.2c1.3,0.4,2.5,1,3.8,1.4
		c0.4,0.1,0.7,0.3,1.1,0.3c0,0.1,0,0.1,0.1,0.2c0,0,0.1,0,0.1-0.1c0-0.1-0.1-0.1-0.2-0.1c0-0.2-0.1-0.2-0.2-0.3
		c-0.4-0.5-1-0.7-1.4-1.2c-1.5-1.6-3.2-3-4.6-4.8c-0.4-0.5-0.8-1.1-1.1-1.6c-0.1-0.2-0.1-0.4-0.1-0.5c0-0.2-0.3-0.3-0.2-0.5
		c0.3-0.2,0.1-0.6,0.2-0.7c0.4-0.4,0.7-0.8,1-1.1c0.1,0,0.3,0,0.4,0c0.4-0.3,0.8-0.2,1.1-0.1c1.6,0.5,3.1,1.3,4.6,2.1
		c1.2,0.7,2.3,1.4,3.5,2.2c0.8,0.5,1.7,0.9,2.5,1.4c0.7,0.4,1.4,0.9,2.1,1.2c0.5,0.2,1.1,0.5,1.5,0.8c0.9,0.6,1.9,1.1,2.9,1.6
		c0.7,0.4,1.4,0.6,2.1,1c0.7,0.3,1.4,0.6,2.1,0.9c0.7,0.3,1.5,0.5,2.2,0.8c1.1,0.3,2.2,0.7,3.4,1c0.7,0.1,1.5,0.3,2.2,0.6
		c0.8,0.2,1.5,0.3,2.3,0.5c1.1,0.3,2.2,0.3,3.2,0.6c0.4,0.1,0.9,0,1.3,0.2c0.4,0.1,0.9,0,1.3,0.2c0.3,0.1,0.8-0.1,1.1,0.1
		c0.4,0.2,0.7,0.1,1.1,0.1c0.4,0,0.7,0.1,1,0.2c0.6,0.1,1.3-0.1,1.9,0.2c1.3-0.1,2.6,0.3,4,0.2c0.7,0,1.5,0,2.2,0
		c1.3-0.1,2.6,0.1,4-0.2c0.7-0.2,1.5,0,2.3-0.2c0.5-0.1,1,0.1,1.5-0.2c1,0,2-0.2,2.9-0.4c0.5-0.1,0.9-0.3,1.4-0.2
		c1.1-0.5,2.4-0.6,3.6-0.9c1.2-0.3,2.5-0.7,3.7-1c0.3-0.1,0.6-0.3,1-0.4c1.1-0.2,2.1-0.7,3.1-1c0.2-0.8,0.4-1.5,0.8-2.2
		c0-0.3,0-0.6-0.1-0.9c-0.5-1-0.8-2-1.3-2.9c-0.7-1.5-1.7-3-2.8-4.3c-1-1.2-2.3-1.9-3.6-2.7c-1.3-0.8-2.6-1.5-4-2.2
		c-1.7-0.8-3-2.2-4.2-3.5c-0.8-0.9-1.3-2-1.8-3.1c-0.2-0.4-0.4-0.9-0.4-1.4c-0.4-0.3-0.1-0.7-0.3-1.1c-0.2-0.3,0-0.7-0.2-1
		c-0.2-0.3,0-0.8,0-1.2c0-0.5,0-1.1,0-1.6c-0.1-0.6,0.2-1.1,0.2-1.6c0-0.4,0.1-0.8,0.2-1.2c0.4-1.2,0.8-2.5,1.5-3.6
		c0.6-0.9,1.2-1.8,1.9-2.6c0.7-0.8,1.5-1.5,2.2-2.3c0.4-0.4,0.9-0.8,1.4-1.2c1.4-0.9,2.7-2,4.3-2.6c0.2-0.7,0.8-1.3,0.8-2
		c0.6-0.5,0.7-1.3,1.1-1.9c-3.8-1.6-7.4-3.5-11-5.5c-0.7,0.8-1.6,1.3-2.5,1.7c-0.7,0.3-1.5,0.4-2.2,0.7c-0.8,0.3-1.6,0.3-2.3,0.4
		c-0.9,0.2-1.8,0.3-2.7,0.4c-0.8,0.1-1.7,0-2.5,0c-0.8,0-1.6,0-2.5-0.1c-0.8-0.1-1.6-0.3-2.5-0.4c-0.4-0.1-0.7-0.1-1-0.3
		c-0.3-0.2-0.7,0-1-0.3c-0.1-0.1-0.5,0.1-0.5-0.3c0.3-0.3,0.7-0.7,1.1-1.1c1-1.1,2.2-1.9,3.6-2.4c0.4-0.2,0.8-0.4,1.3-0.5
		c0.6-0.1,1.2-0.4,1.9-0.5c0.6,0,1.3-0.3,1.9-0.3c0.9,0,1.8,0,2.6,0c0.9-0.1,1.7,0.3,2.6,0.2c0.2,0.2,0.3,0.3,0.4,0.1
		c-0.1-0.2-0.2-0.1-0.4-0.1c-0.3-0.5-0.9-0.7-1.4-1.1c-1.1-0.8-2.3-1.5-3.4-2.3c-0.3-0.2-0.5-0.6-0.9-0.5c-1,0.7-1.8,1.4-2.9,1.8
		c-1.2,0.4-2.4,0.8-3.7,0.9c-0.5,0.1-1.1,0-1.5,0.2c-0.4,0.2-0.9,0-1.3,0.2c-0.4,0.2-0.9,0.1-1.4,0.1c-0.7,0-1.3,0-2,0
		c-0.6,0-1.1,0-1.7,0c-0.5,0-1.1-0.3-1.6-0.2c-0.1,0-0.1,0-0.2,0c-0.5-0.3-1.1-0.2-1.6-0.4c-0.7-0.2-1.4-0.3-2-0.6
		c0-0.2,0-0.4,0.2-0.6c0.6-0.5,1.1-1.1,1.7-1.5c1.3-1,2.7-1.6,4.2-2.1c1.2-0.4,2.5-0.6,3.8-0.7c0.9-0.1,1.8-0.1,2.7,0
		c0.9,0.1,1.7,0.1,2.6,0.3c0.5,0.1,1,0.2,1.4,0.4c0.1,0,0.3,0.2,0.4,0c-1-0.8-1.9-1.6-2.9-2.4c-0.2,0-0.6-0.1-0.7,0
		c-0.4,0.3-0.8,0-1.1,0.2c-0.4,0.2-0.7,0.2-1.1,0.2c-0.9,0-1.9,0-2.8-0.1c-0.8-0.2-1.6-0.2-2.4-0.4c-1.3-0.3-2.6-0.7-3.9-1.3
		c-2.3-1-4.1-2.7-5.6-4.7c-0.5-0.6-0.9-1.3-1.2-2.2c1.4,0.2,2.7-0.2,4,0.2c0.4,0.1,0.9-0.1,1.2,0.1c0.4,0.2,0.7,0,1,0.2
		c0.3,0.2,0.8,0,1.1,0.3c1.4,0.2,2.7,0.8,4,1.3c0.3,0.1,0.7,0.2,0.9,0.5c-0.3,0-0.5-0.1-0.8-0.2c-1.2-0.2-2.3-0.8-3.5-0.8
		c-0.5-0.4-1,0-1.5-0.3c-0.5-0.2-1.1,0-1.5-0.1c-0.8-0.2-1.5-0.2-2.3-0.2c-0.1,0-0.3,0-0.4,0.1c1.5,0.8,3,1.6,4.5,2.4
		c0.5,0.3,1.1,0.5,1.7,0.7c0,0.1,0,0.1,0.1,0.2c0,0,0.1,0,0.1-0.1c0-0.1-0.1-0.1-0.2-0.1c-0.1-0.8,0-1.5,0.5-2.3
		c0.4,0.5,0.6,1.1,0.4,1.6c-0.2,0.4-0.1,0.8-0.2,1.2c0.8,0.2,1.6,0.6,2.4,0.9c0.1-0.9-0.2-1.9,0.5-2.7c0.1,0.1,0.1,0.3,0.2,0.4
		c0,0.7,0.3,1.6-0.1,2.5c0,0,0.1,0.1,0.3,0.1c1,0.2,2,0.6,2.9,0.8c0,0,0.1,0,0.2,0c-0.3-0.7,0-1.4-0.2-2.1c-0.6-0.4-1.3-0.7-1.9-1.1
		c-0.4-0.3-1-0.4-1.3-0.8c0.8,0.1,1.5,0.4,2.2,0.8c0.6,0.4,1.4,0.7,1.9,1.2c0.4,0.4,1.1,0.7,1.4,1.2c0.4,0.5,0.9,0.9,1.1,1.6
		c0,0.1,0.2,0.2,0.3,0.3c0.3,0.2,0.7,0.4,1,0.6c0.7,0.4,1.4,0.6,2,1.1c0.5,0.4,1.1,0.7,1.8,0.8c0,0.1,0.1,0.2,0.2,0.2
		c0,0.1,0,0.1,0.1,0.2c0,0,0.1,0,0.1-0.1c0-0.1-0.1-0.1-0.2-0.1c0-0.1-0.1-0.2-0.2-0.2c-0.6-0.8-1.4-1.6-2-2.4c-1-1.3-2.1-3.2-2.8-5
		c-0.5-1.4-0.9-2.9-0.9-4.4c0-0.5,0-0.9,0-1.4c-0.1-1.3,0.4-2.4,0.8-3.6c0.7,0.7,1.3,1.3,2,1.9c0.7,0.6,1.1,1.4,1.7,2.1
		c0.6,0.7,1.1,1.5,1.5,2.3c0.5,1.2,1.2,2.3,1.6,3.6c0.4,1.2,1,2.4,1.4,3.6c0.2,0.7,0.6,2.9,0.4,3.3c-0.2,0.4-0.1,0.9-0.2,1.3
		c-0.2,0.2-0.2,0.4-0.3,0.6c1,0.7,2.1,1.2,3.1,1.8c1.4,0.8,2.9,1.6,4.4,2.3c0.2,0.1,0.4,0.3,0.7,0.3c0,0.1,0,0.1,0.1,0.2
		c0,0,0.1,0,0.1-0.1c0-0.1-0.1-0.1-0.2-0.1c-0.1-0.2-0.2-0.4-0.3-0.6c-0.8-0.8-1.4-1.8-2-2.7c-0.7-1.1-1.3-2.2-1.7-3.4
		c-0.5-1.4-0.9-2.8-0.8-4.3c0-0.6,0-1.2,0-1.9c0-1.1,0.3-2.2,0.8-3.2c1,1.1,2.1,2,3,3.2c0.8,1.1,1.6,2.2,2.2,3.4
		c0.4,0.7,0.7,1.3,1,2c0.2,0.4,0.5,0.9,0.4,1.4c-0.2,0-0.3-0.2-0.3-0.3c-0.5-1-1-2-1.7-2.9c-0.6-0.7-1.1-1.5-1.7-2.2
		c-0.6-0.7-1.2-1.3-1.8-2c-0.1-0.1-0.1-0.2-0.3-0.2c0-0.1,0-0.1-0.1-0.2c0,0-0.1,0-0.1,0.1c0,0.1,0.1,0.1,0.2,0.1
		c-0.1,0.3,0.1,0.6,0.2,0.9c0.5,1.8,1.1,3.6,1.7,5.5c0,0.1,0.1,0.1,0.2,0.2c0.6-0.5,1-1.3,2.1-1.3c-0.4,1-1.1,1.6-1.9,1.9
		c0.4,0.9,0.7,1.7,1.2,2.6c0.4-0.4,0.8-0.8,1.2-1.2c0.3-0.3,0.7-0.5,1.2-0.5c-0.5,1-1.3,1.7-2.2,2.3c0.7,0.9,1,2,1.8,2.9
		c0.4-0.6,0.9-1,1.3-1.5c0-1.3-0.5-2.4-0.9-3.7c0-0.1,0-0.3,0-0.5c0.1,0,0.1,0,0.2,0.1c0.3,1.1,1.1,2.1,1.2,3.4
		c0.5,0.8,0.3,1.7,0.5,2.5c0.2,0.8-0.1,1.5-0.2,2.3c0,0-0.1,0.1-0.1,0.1c0.4,0.4,0.9,0.4,1.3,0.6c1.1,0.6,2.3,1.2,3.4,1.7
		c0.8,0.3,1.5,0.7,2.3,1c0.4,0.2,0.8,0.3,1.2,0.5c0.9-1.1,1.8-2.1,3.1-2.8c0.7,0,1.4-0.1,1.8,1c0.1,0.9-0.1,1.9-0.5,2.8
		c-0.1,0.2-0.1,0.4,0,0.6c0.5,0.2,1,0.3,1.5,0.5c1.3,0.5,2.6,0.8,3.9,1.2c1,0.3,2.1,0.6,3.1,0.8c1.2,0.2,2.3,0.7,3.5,0.8
		c0.3,0.3,0.8,0.3,1.2,0.3c0.5,0,0.9,0.3,1.3,0.2c0.4,0.4,1.2,0,1.6,0.5c-0.3,0.9-0.5,1.8-0.8,2.7c-0.5,0.1-0.9-0.1-1.3-0.1
		c-0.8-0.1-1.5-0.5-2.3-0.4c-1.3-0.5-2.7-0.7-4-1.1c-0.6-0.2-1.3-0.3-2-0.4c-0.7-0.2-1.3-0.4-2-0.6c-0.7-0.2-1.4-0.4-2.2-0.6
		c-0.7-0.2-1.4-0.4-2.3-0.7c0.2,0.6-0.2,1-0.2,1.5c0,0.5,0.2,1-0.2,1.5c0.3,0.4,0.3,0.8,0.4,1.2c0.2,1,0.5,1.9,0.9,2.8
		c0.7,1.7,1.8,3.2,3,4.6c0.4,0.5,0.9,0.9,1.4,1.3c1.2,0.9,2.4,1.7,3.8,2.4c0.7,0.4,1.4,0.6,2,1c0.8,0.4,1.6,0.6,2.3,0.9
		c0.8,0.3,1.6,0.5,2.4,0.8c0.6,0.2,1.2,0.4,1.7,0.5c1.2,0.2,2.4,0.8,3.6,0.8c1.1,0.5,2.3,0.5,3.5,0.9c0.5,0.2,1.1,0.3,1.7,0.4
		c0.6,0.1,1.1,0.3,1.7,0.4c1.9,0.4,3.8,1,5.7,1.5c1.5,0.4,3,1,4.4,1.7c1.8,0.9,3.6,1.9,5.3,3.1c0.9,0.7,1.8,1.5,2.7,2.2
		c0.7,0.6,1.2,1.3,1.8,1.9c0.7,0.7,1.3,1.5,1.9,2.3c1,1.3,1.7,2.8,2.5,4.3c0.5,0.8,0.7,1.8,1.2,2.6c0,0.5,0.3,0.8,0.4,1.2
		c0.4,1.2,0.9,2.3,1.2,3.6c0.1,0.4,0.3,0.8,0.3,1.3c0,0.5,0.2,0.9,0.2,1.3c0.1,0.5,0.3,1.1,0.3,1.6c0,0.6,0.2,1.2,0.2,1.8
		c0,0.6,0,1.3,0,1.9c0.1,1.2-0.1,2.5-0.2,3.7c0,0.4,0,1-0.2,1.3c-0.2,0.4,0,0.8-0.3,1.1c-0.2,0.3-0.2,0.7-0.3,1.1
		c-0.3,1-0.5,2-0.8,2.9c-0.4,1.3-0.9,2.5-1.3,3.8c-0.1,0.4-0.3,0.8-0.2,1.2c0,0.2,0.1,0.5,0.2,0.8c0.1,0.3,0.1,0.7,0.3,1
		c0.5,1.2,1,2.5,1.6,3.6c0.2,0.4,0.4,0.7,0.8,0.9c0.6,0.2,1.1,0.6,1.6,0.9c1,0.6,2,1.3,3,2c1.4,1,2.9,1.9,4.2,3
		c0.7,0.5,1.3,1.1,2,1.6c1,0.8,2,1.6,2.9,2.4c1.3,1.2,2.5,2.5,3.7,3.8c0,0,0.1,0.1,0.1,0.1c0.5,0.8,1,1.5,1.5,2.3
		c0.6,0.8,1.5,2.7,1.9,3.7c0.3,0.8,0.6,1.6,0.8,2.5c0.1,0.5,0.3,0.9,0.3,1.4c0,0.5,0.3,1,0.2,1.5c-0.1,1,0,1.9-0.2,2.9
		c-0.2,1-0.5,2-0.8,3c0.4,0.1,0.2,0.5,0.3,0.7c0.4,0.7,0.4,1.5,0.2,2.2c-0.1,0.5-0.2,1-0.3,1.5c-0.1,0.5-0.5,1-0.4,1.5
		c-0.4,0.9-0.7,1.9-1,2.9c-0.1,0.3-0.2,0.7,0,0.9c0.1,0.2,0.1,0.3,0.1,0.5c0.1,0.9-0.2,1.7-0.4,2.5c-0.3,1.2-0.8,2.3-1.8,3.1
		c-0.4,0.3-0.8,0.7-1.4,0.5c-0.4-0.1-0.8-0.1-1-0.5c-0.8,0.6-1.7,0.7-2.6,0.5c-1-0.2-2.1-0.5-3.1-1.2c-0.1,0.2-0.2,0.3-0.3,0.5
		c-0.4,0.5-0.9,0.6-1.4,0.6c-0.6,0-1.2-0.2-1.7-0.4c-1.5-0.4-2.9-0.8-4.2-1.7c-0.3,0-0.5,0-0.8,0c-1,0.1-2-0.3-2.9-0.8
		c-0.9-0.5-1.7-1.1-2.4-1.9c-0.5-0.6-0.9-1.3-1.1-2.1c-0.3-1-0.4-2-0.5-3c-0.1-1-0.1-2-0.2-3c-0.2-2.2,0.1-4.5-0.2-6.8
		c-0.1-0.9,0.1-1.8-0.2-2.6c-0.2-0.5,0.1-1.1-0.1-1.6c-0.2-0.5-0.1-1.1-0.2-1.6c-0.2-0.8-0.3-1.7-0.6-2.6c-0.4-1.2-0.8-2.4-1.3-3.5
		c-0.3-0.6-0.6-1.1-0.9-1.7c-0.8-1.4-1.9-2.7-2.8-3.8c-3.2-0.9-6.2-1.8-9.1-2.9c-2.9-1.1-5.7-2.4-8.4-4c-0.3,0.6-0.3,1.2-0.5,1.8
		c-0.4,1.2-0.8,2.4-1.3,3.5c-0.3,0.6-0.6,1.1-0.9,1.7c-0.8,1.3-1.7,2.6-2.7,3.7c-0.2,0.2-0.3,0.3-0.5,0.5c-0.4,0.6-0.9,1.1-1.5,1.5
		c-0.6,0.4-1.2,0.9-1.5,1.6c-0.7,1.5-2.1,3.5-3,4.3c-1.1,1.1-2.1,2.3-3.4,3.2c-0.6,0.5-1.3,1-1.9,1.4c-0.4,0.3-1,0.5-1.3,0.9
		c-0.7,1-1.4,2.1-2.2,3.1c-0.7,0.9-1.4,1.8-2.2,2.7c-1,1.1-2.1,2.1-3.2,3.2c-0.4,0.4-1,0.6-1.3,1.1c-0.1,0.1-0.2,0-0.2,0.1
		c-0.4,0.5-1,0.6-1.5,0.9c-0.3,0-0.6,0-0.9,0c-0.8,0-1.6-0.9-1.6-1.6c0-0.3,0-0.7,0-1c-0.7,0.4-0.9,1.1-1.4,1.5
		c-1,0.8-1.8,1.7-2.8,2.5c-1.1,0.9-2.2,1.8-3.6,2.1c-0.4,0.1-0.7,0.2-1-0.1c-0.1-0.1-0.3,0-0.4-0.1c-0.4-0.4-0.8-0.7-1-1.3
		c0-0.2,0-0.6,0-0.9c0.1,0,0.1,0,0.2-0.1c0,0,0-0.1-0.1-0.1c-0.1,0-0.1,0.1-0.1,0.2c-0.3,0.2-0.6,0.3-0.8,0.5
		c-0.6,0.6-1.4,0.9-2.1,1.3c-0.8,0.4-1.5,0.9-2.4,0.8c-0.5,0.4-1,0.1-1.5,0c-0.8-0.2-1.2-1-1.3-1.8c0-0.2,0-0.5,0-0.7
		c0.3-0.5,0.5-0.9,0.9-1.6c-0.9,0.7-1.7,1.2-2.4,1.7c-0.9,0.8-1.9,1.3-2.9,1.9c-1.2,0.7-2.5,1.3-3.8,1.8c-0.7,0.2-1.4,0.5-2.2,0.7
		c-0.6,0.1-1.3,0.3-1.9,0.4c-0.7,0.1-1.3,0.3-2,0.3c-1.3,0.1-2.6,0.1-3.9-0.5c-0.2-0.2-0.5-0.5-0.8-0.7c0-0.5,0-0.9,0-1.3
		c0.2-0.2,0.3-0.6,0.5-0.7c1-0.7,2-1.4,3-2c0.3-0.2,0.8-0.3,1-0.7C-550.6,1486.2-550.3,1486.3-550.3,1486z M-538,1355.5
		c0-0.1-0.1-0.2-0.2-0.2c-0.5-1.1-1.4-1.9-1.9-2.9c-0.5-0.1-0.7-0.7-1.3-0.8c0.9,1.5,1.9,2.7,3.2,3.8
		C-538.1,1355.5-538.1,1355.5-538,1355.5c0,0.1,0.1,0.2,0.2,0.2c0,0.1,0,0.1,0.1,0.2c0,0,0.1,0,0.1-0.1c0-0.1-0.1-0.1-0.2-0.1
		C-537.8,1355.6-537.8,1355.5-538,1355.5z M-525.8,1362.5c0-0.2,0-0.3-0.1-0.4c-0.7-0.7-1.3-1.5-1.8-2.4c0-0.1-0.1-0.2-0.2-0.2
		c-0.6-0.2-0.8-0.8-1.3-1.1c0-0.1,0-0.1-0.1-0.2c0,0-0.1,0-0.1,0.1c0,0.1,0.1,0.1,0.2,0.1c-0.1,0.3,0.2,0.5,0.4,0.7
		C-528,1360.4-527,1361.5-525.8,1362.5c0,0.1,0.1,0.2,0.2,0.2c0,0.1,0,0.1,0.1,0.2c0,0,0.1,0,0.1-0.1c0-0.1-0.1-0.1-0.2-0.1
		C-525.6,1362.5-525.6,1362.5-525.8,1362.5z M-542.9,1348.6c0.1,0.2,0.1,0.3,0.1,0.5c0.4,0.5,0.8,0.8,1.3,1c0,0.1,0,0.1,0.1,0.2
		c0,0,0.1,0,0.1-0.1c0-0.1-0.1-0.1-0.2-0.1c0-0.5-0.3-0.8-0.5-1.1c-0.3-0.4-0.7-0.8-1.2-1.1c0-0.1,0-0.1-0.1-0.2c0,0-0.1,0-0.1,0.1
		c0,0.1,0.1,0.1,0.2,0.1C-543.3,1348.1-543.1,1348.4-542.9,1348.6z M-530.9,1354.8c-0.2,0.2,0,0.3,0,0.4c0.1,0.3,0.3,0.4,0.2,0.8
		c0.2,0.2,0.4,0.5,0.7,0.6c0.3,0.1,0.4,0.4,0.7,0.4c0,0.1,0,0.1,0.1,0.2c0,0,0.1,0,0.1-0.1c0-0.1-0.1-0.1-0.2-0.1
		C-529.5,1356.2-529.7,1356-530.9,1354.8z M-545.7,1365.6c0-0.2-0.2,0-0.2-0.1c0,0-0.1,0.1-0.1,0.1c2-0.6,3.5-1.2,5.2-1.5
		c0.1-0.1,0.1-0.2,0-0.3c-0.2-0.1-0.5,0-0.8-0.2c-0.3-0.2-0.7,0.1-1,0.2c-1,0.4-1.9,0.8-2.8,1.4
		C-545.5,1365.3-545.7,1365.3-545.7,1365.6C-545.9,1365.7-545.7,1365.7-545.7,1365.6z M-556.7,1358.8
		C-556.7,1358.9-556.6,1358.9-556.7,1358.8c0.1,0,0.2,0,0.2-0.1c1.8-0.4,3.4-1.2,5.4-1.4c-0.6-0.2-1-0.3-1.4-0.5
		c-0.3-0.2-0.6,0.1-0.9,0.2c-0.7,0.2-1.4,0.6-2,0.9c-0.4,0.2-0.7,0.5-1.1,0.7C-556.6,1358.7-556.7,1358.8-556.7,1358.8z
		 M-557.8,1349.9c0.3,0,0.8,0,1.4,0c-0.6-0.4-1.2-0.6-1.7-0.9c-0.6-0.3-1.1-0.7-1.6-1c-0.6-0.3-1-0.9-1.6-1c0-0.1,0-0.2-0.1-0.2
		c0,0-0.1,0-0.1,0.1c0,0.1,0.1,0.1,0.2,0.1C-560.3,1348.1-559.3,1349.2-557.8,1349.9z M-543.7,1341.5c0.4,1,0.7,2.1,1,3.2
		c0.3,0.9,0.7,1.7,0.9,2.6c0,0.1,0.1,0.1,0.2,0.2c0.5-0.6,1.1-1.1,2-1.3c-0.4,0.9-1,1.5-1.7,2c0.1,0.9,0.7,1.7,1,2.6
		c0.4-0.4,0.7-0.7,1-1c0.4-0.4,0.8-0.5,1.3-0.7c-0.4,1-1.2,1.6-2.1,2.2c0.6,1,1.1,2,1.7,3c0.4-0.6,0.9-1,1.4-1.5
		c0-1.3-0.5-2.4-0.9-3.8c-0.2-0.6-0.6-1.2-0.9-1.8c-0.3-0.5-0.5-1-0.9-1.4c-0.3-0.4-0.6-0.8-0.9-1.3c-0.2-0.4-0.5-0.6-0.8-1
		c-0.7-0.9-1.4-1.9-2.4-2.5c0-0.1,0-0.1-0.1-0.2c0,0-0.1,0-0.1,0.1c0,0.1,0.1,0.1,0.2,0.1C-543.7,1341.1-543.8,1341.3-543.7,1341.5z
		 M-543.1,1354.6c1.7,1.1,3.4,2.3,5.1,3.4c0.9,0.6,1.8,1.2,2.8,1.7c1,0.6,1.9,1.2,2.8,1.8c0.5,0.3,1,0.5,1.4,0.8
		c0.6,0.3,1.3,0.7,1.9,1.1c1.6,0.9,3.3,1.8,4.9,2.6c0.8,0.4,1.5,0.9,2.3,1.2c1.4,0.5,2.8,1.3,4.2,1.8c0.2,0.1,0.3,0,0.5,0.1
		c0.1-0.2,0.3-0.3,0.4-0.5c0-0.1-0.1,0-0.2-0.1c-2.4-0.9-4.6-2.1-6.9-3.3c-1.1-0.5-2.1-1.1-3.2-1.6c-0.8-0.5-1.7-0.9-2.5-1.4
		c-0.5-0.3-1-0.5-1.5-0.8c-1.1-0.6-2.2-1.2-3.3-1.9c-1.6-1-3.2-1.9-4.7-2.9c-1-0.6-2-1.2-3-1.8c-0.7-0.4-1.4-0.9-2.2-1.3
		c-0.1-0.1-0.3-0.1-0.5-0.1c0.1-0.1,0.1-0.2,0-0.2c0,0-0.1,0-0.1,0.1c0,0.1,0.1,0.1,0.2,0.1
		C-544.2,1353.8-543.7,1354.2-543.1,1354.6z M-573.8,1421.6c-1.4-0.4-2.7-1.1-4-1.5c-0.9-0.3-1.7-0.7-2.6-1c-0.8-0.3-1.7-0.7-2.5-1
		c-1.2-0.4-2.3-0.8-3.5-1.3c-1.1-0.4-2.3-0.9-3.4-1.2c-1.1-0.3-2.1-0.7-3.2-0.7c0,0-0.1,0-0.1,0c-0.2,0.3,0.1,0.5,0.3,0.7
		c0.8,1.1,1.8,2.1,2.8,3c1,0.9,2,1.7,3,2.5c1,0.7,2,1.4,3.1,2.1c1.5,0.9,3.1,1.7,4.6,2.5c1,0.5,2,0.8,3,1.2c0.6,0.2,1.2,0.5,1.8,0.6
		c0.6,0.1,1.2,0.4,1.8,0.6c1.1,0.3,2.1,0.7,3.2,0.9c0.7,0.1,1.4,0.5,2.2,0.6c0.2,0.3,0.5,0.2,0.7,0.2c0.3-0.1,0.4,0.2,0.7,0.2
		c0.3,0,0.6,0.1,1,0.3c-0.5,0-1,0.2-1.4-0.1c-0.1-0.1-0.2,0-0.4,0c-0.8,0.1-1.5-0.3-2.3-0.2c-1.2-0.4-2.4-0.4-3.6-0.7
		c-0.8-0.2-1.6-0.3-2.4-0.4c-0.8-0.1-1.7-0.3-2.5-0.6c-0.4-0.1-0.9,0.1-1.2-0.3c-0.9,0-1.7-0.5-2.6-0.6c-0.9-0.2-1.7-0.5-2.6-0.7
		c-1.1-0.3-2.2-0.5-3.3-0.9c-0.8-0.3-1.6-0.4-2.5-0.6c-1-0.2-2.1-0.5-3.1-0.7c-1.2-0.2-2.5-0.7-3.8-0.4c0.8,1,1.8,1.7,2.9,2.4
		c1,0.7,2.1,1.2,3.2,1.8c0.6,0.4,1.2,0.7,1.9,0.9c0.6,0.3,1.2,0.6,1.9,0.8c0.7,0.2,1.4,0.6,2.1,0.9c1.2,0.6,2.4,1,3.7,1.5
		c0.8,0.3,1.5,0.6,2.3,0.8c0.5,0.1,1.1,0.4,1.7,0.5c0.5,0.1,1,0.5,1.6,0.4c0.3,0.4,0.8,0.1,1.2,0.3c0.3,0.2,0.7,0.2,1.1,0.2
		c0.4,0,0.8,0.2,1.2,0.2c0.7,0.1,1.5,0.2,2.2,0.4c0.4,0.1,0.9,0,1.3,0.2c0.5,0.2,0.9,0,1.3,0.2c0.7,0.3,1.5-0.1,2.2,0.3
		c0.1,0,0.2,0,0.3,0c1.2,0,2.4,0.4,3.6,0.2c-0.7,0.4-0.7,0.4-1.3,0.4c-2.3,0-4.6,0-6.9,0c-0.6,0-1.2-0.3-1.8-0.2
		c-0.6,0.1-1.2,0.1-1.8,0c-0.8-0.2-1.6,0-2.4-0.2c-0.7-0.1-1.5,0-2.2-0.2c-0.6-0.1-1.3,0-1.9-0.2c-0.6-0.2-1.3,0-1.9-0.2
		c-0.6-0.2-1.2,0-1.8-0.2c-0.7-0.2-1.5,0-2.2-0.2c-1.1-0.3-2.3,0-3.4-0.2c0.1,0.6,0.5,0.9,0.9,1.2c1.1,0.9,2.3,1.7,3.6,2.3
		c1.4,0.7,2.9,1.1,4.4,1.7c0.3,0.1,0.7-0.1,0.9,0.2c0.5-0.1,1,0.3,1.5,0.2c0.4,0,0.7,0.3,1.1,0.2c0.4,0,0.8-0.1,1.1,0.2
		c0.1,0.1,0.4,0,0.6,0c1.8,0,3.7,0,5.5,0c0.5,0,0.9-0.3,1.4-0.2c0.4,0,0.9,0.1,1.3-0.2c0.6,0.1,1.2-0.1,1.8-0.2
		c0.5-0.1,1-0.1,1.5-0.3c0.4-0.1,0.8,0.1,1.1-0.2c1.1-0.1,2.2-0.5,3.2-0.8c1.1-0.3,2.3-0.7,3.4-1.1c0.9-0.4,1.9-0.6,2.8-1.1
		c0,0,0.1,0,0.2,0c0.1,0.2-0.1,0.3-0.2,0.3c-1.3,0.7-2.6,1.3-4,1.9c-0.7,0.3-1.4,0.6-2.1,0.9c-0.7,0.3-1.3,0.5-2,0.8
		c-0.7,0.3-1.4,0.5-2.1,0.7c-0.7,0.2-1.4,0.5-2.1,0.5c-0.4,0.4-1,0-1.3,0.4c-0.5-0.1-0.9,0.2-1.4,0.2c-0.4,0-0.8,0.1-1.1,0.2
		c-0.4,0.1-0.7,0.1-1,0.2c-0.4,0.2-0.9,0.1-1.3,0.2c-0.5,0.1-0.9,0.1-1.3,0.2c-0.5,0.1-0.9,0.1-1.3,0.2c-0.5,0.1-0.9,0.1-1.3,0.2
		c-0.4,0.1-0.8,0.1-1.1,0.2c-0.4,0.1-0.7,0.2-0.9,0.2c-0.2,0.1-0.4,0.2-0.5,0.3c0,0.1,0,0.2,0.1,0.2c0.8,0.8,1.8,1.2,2.8,1.5
		c0.4,0.1,0.8,0.4,1.2,0.4c0.4,0,0.8,0.2,1.2,0.2c0.5,0.1,1,0,1.5,0.2c0.5,0.2,1,0.1,1.5,0.2c0.5,0,1.1,0.1,1.6,0
		c0.9-0.1,1.8-0.2,2.7-0.2c0.4-0.3,0.9-0.1,1.3-0.2c0.4-0.1,0.9-0.1,1.3-0.2c0.8-0.2,1.7-0.2,2.5-0.5c0.2-0.1,0.5-0.1,0.7,0
		c0.3,0,0.4-0.2,0.7-0.2c1.5-0.3,3-0.7,4.4-1.1c2.1-0.5,4.2-1.3,6.2-1.9c0.4-0.1,0.8-0.4,1.3-0.5c0.1,0,0.2,0,0.3,0.1
		c-0.5,0.3-1,0.7-1.6,1c-0.9,0.5-1.7,0.9-2.6,1.4c-0.7,0.4-1.4,0.8-2.2,1c-0.3,0.1-0.6,0.3-0.9,0.4c-1.3,0.6-2.7,1.2-4.2,1.5
		c-0.6,0.1-1.2,0.3-1.8,0.5c-0.6,0.2-1.3,0.3-1.9,0.4c-0.9,0.1-1.7,0.3-2.6,0.4c-1,0.2-2,0.1-2.9,0.5c-0.1,0-0.1,0-0.2,0
		c-0.8-0.1-1.6,0.2-2.4,0.2c-0.5,0-1,0-1.5,0.2c-0.5,0.1-1,0.1-1.5,0.2c-0.3,0.1-0.7,0.2-1,0.2c0.8,0.2,1.6,0.4,2.5,0.5
		c0.5,0,1,0.1,1.4,0.2c0.5,0.1,0.9,0,1.3,0.2c0.5,0.2,1,0.1,1.5,0.2c1,0.2,2,0,3,0.2c1.4,0.3,2.8,0.1,4.2,0.2c0.5,0,0.9-0.3,1.4-0.2
		c0.5,0,0.9,0,1.4-0.1c0.5-0.1,1-0.2,1.5-0.3c0.7-0.1,1.5-0.4,2.2-0.6c1.7-0.5,3.4-1.1,5-1.6c1.1-0.4,2.2-0.8,3.3-1.2
		c1.5-0.6,2.9-1.3,4.4-1.9c1.4-0.6,2.6-1.5,4-2c0.2-0.1,0.3-0.5,0.7-0.4c-0.6,0.7-1.3,1.4-2,2c-1.1,0.9-2.4,1.7-3.5,2.6
		c-0.4,0.3-0.8,0.5-1.1,0.7c-1,0.5-1.9,1.2-3,1.6c-1.4,0.5-2.7,1.2-4.2,1.7c-0.7,0.2-1.5,0.6-2.2,0.8c-1,0.3-2,0.7-3.1,0.9
		c-0.8,0.2-1.6,0.4-2.4,0.6c-0.9,0.2-1.7,0.5-2.6,0.7c-0.6,0.1-1.2,0.4-1.9,0.4c0.5,0.3,1,0.6,1.7,0.5c0.4,0,0.7,0.3,1,0.2
		c0.3-0.1,0.7-0.1,1.1,0.2c0.1,0.1,0.3,0,0.5,0c1.6,0,3.3,0,4.9,0c0.4,0,0.8-0.2,1.2-0.2c0.4,0,0.8,0.1,1.2-0.1
		c0.4-0.2,1-0.1,1.5-0.2c0.9-0.2,1.7-0.3,2.6-0.6c0.9-0.3,1.8-0.6,2.7-0.9c1.5-0.5,2.9-1.2,4.3-1.8c1.7-0.8,3.2-1.9,4.8-2.9
		c0.8-0.6,1.7-1.2,2.4-1.8c1-0.9,2.1-1.6,3.1-2.5c0.2-0.2,0.5-0.3,0.7-0.5c0.1,0.2,0.1,0.3,0,0.4c-0.5,0.7-1.3,1.3-1.8,2
		c-0.7,0.9-1.7,1.5-2.4,2.4c-1.5,1.1-3,2.3-4.7,3.2c-1.5,0.9-2.9,1.7-4.4,2.5c-0.8,0.4-1.6,0.9-2.4,1.3c0,0.1,0,0.2,0.1,0.2
		c0.4-0.1,0.6,0.4,1,0.1c0.7-0.5,1.4-0.7,2.1-1.2c0.9-0.5,1.7-1,2.6-1.5c1.5-0.9,3-1.8,4.4-2.7c1.2-0.8,2.4-1.7,3.6-2.7
		c0.6-0.5,1.2-1,1.7-1.5c1-0.8,1.9-1.8,2.9-2.8c1.3-1.4,2.5-2.9,3.5-4.5c0.9-1.5,1.4-3,2-4.6c0.6-1.8,1.2-3.6,1.7-5.4
		c0.4-1.2,0.8-2.5,1.1-3.8c0.2-0.6,0.4-1.3,0.6-1.9c0.2-0.8,0.6-1.6,0.7-2.4c0.1-0.7,0.3-1.4,0.6-2.1c0-0.1,0-0.2,0-0.3
		c-0.4-0.3-0.7,0.3-1,0.1c-0.8,0.5-1.7,0.6-2.6,0.8c-0.9,0.3-1.7,0.5-2.6,0.7c-0.8,0.2-1.7,0.3-2.5,0.7c-0.3,0.1-0.8,0.2-1.1,0.2
		c-0.5,0-1,0.3-1.5,0.2c-0.4,0.4-1-0.1-1.4,0.4c-0.6-0.1-1.2,0.3-1.8,0.2c-0.4-0.1-0.7,0.2-1.1,0.2c-0.4,0-0.8-0.2-1.1,0.2
		c0,0-0.2,0-0.3,0c-2.1,0-4.2,0.3-6.3,0.2c-0.5,0-1,0-1.5,0c-1.4,0.1-2.7-0.3-4-0.2c-0.6-0.3-1.3-0.1-1.9-0.2
		c-0.6-0.1-1.3-0.1-1.9-0.2c-0.3,0-0.6-0.2-1-0.2c-0.3,0-0.6,0.1-0.9-0.1c-0.3-0.2-0.7,0.1-1-0.1c-0.6-0.3-1.2,0.1-1.7-0.4
		c-0.6,0.1-1.1-0.1-1.7-0.2c-0.6-0.1-1.3-0.2-1.9-0.3c-0.6-0.1-1.2-0.4-1.9-0.4c-1.4-0.5-3-0.6-4.3-1.3c-1.7-0.2-3.1-1.1-4.7-1.5
		c-1.2-0.8-2.8-1.1-3.9-2c-0.3-0.2-0.7-0.3-1-0.5c-1.5-0.8-2.9-1.5-4.4-2.4c-1.4-0.8-2.7-1.7-4.1-2.5c-1-0.5-1.9-1.2-2.9-1.6
		c-0.5-0.2-0.9-0.6-1.4-0.8c-0.7-0.3-1.3-0.6-2-0.8c-0.2-0.1-0.4-0.1-0.7,0c0,0.3,0,0.5,0,0.8c0.5,0.9,1.1,1.7,1.8,2.4
		c0.8,0.8,1.6,1.6,2.4,2.4c0.7,0.7,1.5,1.4,2.2,2c0.9,0.8,1.8,1.6,2.8,2.4c1.2,1,2.3,2.1,3.6,2.9c0.4,0.6,1.2,0.8,1.5,1.4
		C-572.9,1422.1-573.3,1421.7-573.8,1421.6z M-531.9,1471.8c-0.3,0.3-0.6,0.7-1,1.1c-0.6,0.6-1.1,1.3-1.7,2c-0.9,1-1.8,1.8-2.7,2.8
		c-0.5,0.6-1.1,1.3-1.7,1.8c-0.9,0.7-1.6,1.6-2.4,2.2c-1.2,0.9-2.4,1.9-3.6,2.8c-1.2,0.9-2.5,1.7-3.7,2.5c-1.4,0.9-2.9,1.8-4.3,2.7
		c-0.2,0.1-0.4,0.3-0.5,0.5c1,0.4,2.1,0.2,3.2,0.3c0.3-0.3,0.8-0.2,1.1-0.2c0.4,0,0.7-0.2,1-0.2c0.5,0,1-0.3,1.5-0.4
		c1.9-0.5,3.6-1.4,5.2-2.3c1-0.5,1.9-1.1,2.8-1.8c1-0.8,2-1.6,3-2.4c0.8-0.7,1.6-1.4,2.3-2.2c1-1.2,2.1-2.4,3-3.7
		c1-1.4,1.9-2.8,2.9-4.3c0.8-1.2,1.4-2.5,2-3.9c0.5-1.2,1.2-2.3,1.4-3.6c0-0.1,0.2-0.2,0.4-0.5c-0.2,0.8-0.4,1.4-0.5,2
		c-0.3,1.1-0.7,2.1-1,3.2c-0.2,0.7-0.5,1.4-0.8,2c-0.5,1.1-0.8,2.2-1.6,3.2c-0.2,0.3-0.3,0.6-0.5,0.9c-0.6,1.2-1.4,2.3-2,3.5
		c-1,1.7-2.3,3.3-3.2,5c-0.2,0.4-0.5,0.9-0.8,1.2c-0.2,0.3-0.4,0.6-0.5,0.9c-0.2,0.4-0.2,0.4,0.2,0.8c1.4-0.3,2.7-0.8,3.9-1.7
		c0.7-0.5,1.4-0.9,1.8-1.7c0.3-0.6,0.9-1,1.3-1.5c1.1-1.3,2.1-2.7,3.1-4c1-1.2,1.8-2.6,2.7-3.9c0.6-0.8,1.1-1.8,1.6-2.7
		c0.9-1.6,1.7-3.2,2.5-4.9c0.5-1,1-2,1.3-3.1c0-0.1,0.2-0.2,0.3-0.4c0.2,0.5-0.3,0.8-0.1,1.3c-0.5,1.1-0.6,2.3-1.1,3.4
		c-0.3,0.8-0.6,1.6-0.9,2.3c-0.6,1.6-1.3,3.2-2.1,4.6c-0.5,0.8-0.9,1.7-1.4,2.5c-0.5,0.8-1,1.7-1.4,2.5c-0.5,1-1.2,2-1.8,2.9
		c-0.4,0.6-0.7,1.2-1.1,1.8c-0.3,0.5-0.6,1-0.8,1.5c-0.1,0.2-0.1,0.3,0,0.6c0.5-0.1,1-0.3,1.5-0.6c2.1-1.2,3.8-3,5.4-4.7
		c1.5-1.5,2.7-3.2,3.8-5c0.7-1,1.2-2.1,1.7-3.2c0.4-1.1,1-2.1,1.4-3.3c0.3-0.8,0.6-1.5,1-2.3c0.3-0.8,0.6-1.7,1-2.5
		c0.4-1,0.8-2,1.1-3c0.5-1.6,1.1-3.1,1.6-4.7c0.1-0.4,0.2-0.8,0.5-1.1c0.1,0.6-0.1,1.1-0.2,1.6c-0.2,0.7-0.3,1.4-0.5,2.1
		c-0.3,1.1-0.6,2.3-0.9,3.5c-0.3,1.3-0.7,2.6-1,3.9c-0.4,1.3-0.8,2.7-1.4,3.9c-0.4,1-0.9,2-1.3,3c-0.4,1.1-1,2.1-1.5,3.1
		c-0.6,1.5-1.5,2.8-1.8,4.4c-0.4,0.3-0.1,0.8-0.2,1.2c0.4,0.2,0.7,0,1-0.2c1.7-1.1,3.1-2.6,4.5-4c0.3-0.4,0.6-0.8,1-1.2
		c0.4-0.4,0.7-0.8,1-1.2c1-1.2,1.9-2.5,2.7-3.8c1-1.5,1.6-3.2,2.1-4.9c0.3-1.1,0.8-2.3,0.8-3.5c0.3-0.4,0.2-1,0.3-1.4
		c0.1-0.5,0.2-1,0.3-1.5c0.1-0.9,0.3-1.7,0.4-2.6c0.1-0.6,0-1.2,0.2-1.7c0.2-0.6,0-1.2,0.2-1.7c0.2-0.7,0-1.3,0.2-2
		c0.1-0.6,0.1-1.2,0.2-1.8c0.2-0.1,0.2,0.2,0.3,0.2c0.4,2.5,0.2,5.1,0.3,7.6c0,0.4-0.2,0.8-0.2,1.2c0,0.4,0.1,0.8-0.1,1.2
		c-0.2,0.3-0.1,0.8-0.2,1.2c-0.1,0.7-0.3,1.4-0.5,2.1c-0.3,1-0.5,2-0.9,3c-0.3,0.7-0.5,1.4-0.8,2c-0.1,0.3-0.1,0.6-0.3,0.9
		c0.1,0.1,0.2,0.1,0.3,0.1c1.3-1.1,2.6-2.2,3.8-3.4c1.6-1.6,2.8-3.5,3.7-5.6c0.3-0.7,0.5-1.6,0.7-2.4c0.2-0.8,0.2-1.5,0.3-2.3
		c0.1-0.8-0.1-1.6,0.1-2.4c0.3-1.8,0.1-3.5,0.2-5.3c0-0.6-0.3-1.2-0.2-1.9c0.1-0.6,0-1.2,0-1.9c0-0.2,0-0.3,0-0.5
		c0.4,0.3,0.5,0.8,0.5,1.1c0.2,1.2,0.6,2.5,0.8,3.7c0.1,0.5,0.1,1,0.2,1.5c0.1,0.4,0.2,0.9,0.2,1.3c0.1,1.1-0.3,2.2-0.2,3.3
		c-0.2,0.4-0.2,0.8-0.2,1.1c0,0.4-0.3,0.8-0.2,1.2c0,0.4-0.2,0.7-0.2,1.1c0,0.2-0.3,0.4-0.1,0.7c0.8-0.8,1.5-1.6,2.2-2.5
		c0.5-0.6,0.9-1.3,1.4-2c0.7-1.1,1.3-2.3,1.8-3.6c0.1-0.3,0.2-0.7,0.4-1.1c0.2-0.6,0.3-1.2,0.4-1.8c0.3-1.2,0.2-2.3,0.2-3.5
		c0-1.1-0.3-2.1-0.7-3.1c-0.4-1-1-1.8-1.7-2.7c-0.7-0.8-1.4-1.7-2.2-2.3c-0.9-0.8-1.7-1.7-2.6-2.5c-1.8-1.5-3.4-3.2-5.1-4.9
		c-1.4-1.4-2.4-3.2-3.2-5c-0.4-1-0.9-2.1-0.8-3.2c-0.3-0.6-0.2-1.3-0.2-1.9c-0.1-1.1,0.1-2.2,0.5-3.2c0.5-1.1,0.8-2.3,1.5-3.4
		c-0.1,0.3,0.2,0.6-0.1,1c-0.1,0.1-0.1,0.2-0.1,0.3c0,1.3-0.3,2.5-0.2,3.8c0,0.4,0,0.8,0,1.2c-0.1,2.3,0.5,4.4,1.6,6.4
		c0.6,1.1,1.3,2.1,2,3c1,1.3,2.2,2.4,3.4,3.5c0.8,0.8,1.6,1.6,2.4,2.3c1.4,1.1,2.7,2.5,3.9,3.8c0.7,0.7,1.4,1.5,1.9,2.4
		c0.4,0.7,0.7,1.4,0.8,2.2c0.1,0.7,0.4,1.4,0.4,2.2c0,0.7,0,1.5,0,2.2c0.3,0.4,0.7,0.6,1.1,0.9c2,1.1,4,2.2,6.1,3.2
		c1.2,0.6,2.5,1.1,3.8,1.5c1.1,0.4,2.1,0.8,3.2,1.2c1.3,0.5,2.7,1,4,1.4c1.3,0.4,2.5,0.7,3.8,1c1,0.2,2,0.5,3,0.8c0,0,0,0.1,0,0.1
		c-0.7,0-1.3-0.2-1.9-0.3c-0.8-0.1-1.5-0.5-2.3-0.4c-0.2,0-0.3-0.2-0.5-0.2c0,0.1-0.1,0.1,0,0.2c0.7,0.8,1.2,1.7,1.7,2.6
		c0.3,0.6,0.7,1.2,0.9,1.9c0.2,0.7,0.5,1.3,0.8,1.9c0.2,0.7,0.5,1.3,0.7,2c0.2,0.8,0.3,1.6,0.5,2.4c0.1,0.5,0,1.1,0.2,1.6
		c0.2,0.6,0,1.1,0.1,1.6c0.3,0.9,0.1,1.8,0.2,2.6c0.3,2.3,0,4.5,0.2,6.8c0.1,0.9,0.1,1.9,0.2,2.8c0.1,0.9,0.3,1.7,0.4,2.6
		c0,0.2,0.2,0.4,0.3,0.5c0.1,0.1,0,0.3,0,0.4c1.2,1.5,2.6,2.7,4.6,2.8c-0.1-0.9-0.4-1.6-0.5-2.4c-0.2-0.8-0.3-1.6-0.5-2.4
		c-0.2-0.8-0.4-1.7-0.2-2.6c-0.4-0.8,0-1.7-0.2-2.5c-0.2-0.9-0.1-1.7-0.2-2.6c0-0.9,0-1.7,0.1-2.6c0.1,0.5,0.4,1,0.3,1.6
		c-0.1,0.4,0.2,0.7,0.2,1.1c0,0.4-0.1,0.8,0.2,1.2c0.1,0.2,0,0.6,0,0.8c0,0.3,0.2,0.5,0.2,0.8c-0.1,1,0.4,1.9,0.4,2.9
		c0.4,0.7,0.3,1.4,0.5,2.1c0.2,0.7,0.3,1.5,0.5,2.2c0.2,0.9,0.5,1.9,1,2.7c0.1,0.1,0,0.2,0.1,0.3c0.8,0.3,1.6,0.8,2.5,0.9
		c0.9,0.2,1.7,0.8,2.7,0.6c0.2-0.5,0-1.1-0.2-1.6c-0.3-1-0.7-2.1-1.1-3.1c-0.4-1.1-0.8-2.2-1.2-3.3c-0.4-1.1-0.8-2.2-1.2-3.3
		c-0.2-0.7-0.5-1.4-0.8-2c-0.2-0.6-0.5-1.3-0.7-2c-0.4-1-0.7-2.1-1.1-3.1c-0.3-0.9-0.5-1.7-0.9-2.6c-0.1-0.2,0-0.4,0-0.7
		c0.4,0.3,0.6,0.8,0.7,1.2c0.3,0.8,0.7,1.5,1,2.3c0.4,1.1,0.9,2.3,1.3,3.4c0.5,1.2,0.9,2.4,1.4,3.6c0.3,0.7,0.5,1.4,0.7,2
		c0.3,0.8,0.6,1.6,0.9,2.4c0.6,1.5,1.3,3,2,4.4c0.2,0.4,0.4,0.8,0.7,1.1c0.5,0.6,1.1,0.8,1.8,1.1c0.7,0.3,1.5,0.5,2.3,0.4
		c0.1-0.1,0.1-0.2,0.2-0.2c0.2-0.8-0.2-1.5-0.4-2.1c-0.5-1.6-1.2-3.2-2-4.7c-0.4-0.9-0.9-1.8-1.3-2.7c-0.3-0.8-0.9-1.5-1-2.4
		c-0.5-0.7-0.6-1.6-1.1-2.3c0-0.6-0.5-1.1-0.6-1.6c-0.1-0.5-0.3-1.1-0.6-1.5c-0.1-0.2,0-0.4-0.1-0.5c0.2,0,0.3,0.2,0.3,0.3
		c0.4,1.1,1.1,2.1,1.6,3.1c1.3,2.4,2.5,4.9,3.7,7.4c0.6,1.2,1.1,2.5,1.6,3.7c0.5,1.2,1,2.6,1.8,3.6c0,0,0.1,0.1,0.1,0.1
		c0.2,0,0.3-0.2,0.4-0.3c0.7-1,1.1-2.1,1.3-3.3c0.1-0.5,0-1-0.2-1.4c-0.7-1.4-1.2-2.8-1.7-4.2c-0.7-1.7-1.6-3.4-2.4-5.1
		c-0.9-1.1-1.2-2.5-2-3.6c-0.2-0.3-0.3-0.7-0.5-1c-0.6-1.1-1.2-2.3-1.8-3.4c-0.3-0.5-0.6-1.1-0.9-1.6c0-0.1,0-0.2,0.1-0.3
		c4.3,5.2,7.3,11.1,9.6,17.5c0.3-0.7,0.5-1.3,0.6-2c0-0.3,0.2-0.6,0.3-0.8c0.2-0.6,0.5-1.3,0.5-2c0-0.3,0.2-0.5,0.2-0.8
		c0.1-0.8-0.2-1.4-0.5-2.1c-0.2-0.5-0.4-1.1-0.7-1.6c-1.2-2.6-2.5-5.1-3.8-7.7c-0.3-0.7-0.7-1.3-1.1-1.9c0-0.1,0-0.2-0.1-0.3
		c0.2,0,0.4,0.2,0.4,0.3c0,0.3,0.3,0.3,0.4,0.5c0.1,0.1,0.3,0.3,0.4,0.4c0,0.2,0.2,0.3,0.3,0.4c0.1,0.1,0.3,0.2,0.3,0.4
		c0,0.2,0.3,0.3,0.4,0.5c0,0.2,0.2,0.3,0.3,0.4c0.1,0.1,0.2,0.3,0.3,0.5c0.1,0.2,0.3,0.2,0.3,0.4c0,0.2,0.4,0.3,0.4,0.5
		c0,0.2,0.2,0.3,0.2,0.5c0,0.2,0.3,0.3,0.3,0.4c0,0.2,0.2,0.3,0.2,0.5c0,0.2,0.2,0.4,0.3,0.5c0.1,0.2,0.3,0.2,0.3,0.4
		c0,0.2,0.1,0.3,0.2,0.5c0.1,0.2,0.2,0.3,0.3,0.5c0.1,0.2,0.2,0.4,0.2,0.6c0.1,0.2,0.2,0.4,0.2,0.4c0.2,0.1,0.1,0.4,0.2,0.5
		c0.1-0.1,0.2-0.2,0.3-0.3c-0.2-0.6,0.2-1.1,0.2-1.7c0-0.6,0-1.1,0-1.7c-0.1-1-0.3-2-0.5-3c-0.4-1.6-1-3.1-1.8-4.6
		c-0.6-1.1-1.3-2.1-2.1-3.1c-0.8-0.9-1.5-1.7-2.3-2.6c-0.4-0.5-1-0.7-1.4-1.2c-0.4-0.4-0.8-0.8-1.3-1.2c-0.5-0.4-1-0.9-1.5-1.3
		c-0.9-0.7-1.9-1.5-2.8-2.2c-0.9-0.7-1.9-1.3-2.8-2c-0.8-0.6-1.7-1.1-2.6-1.7c-0.1,0-0.2,0-0.3-0.1c0.4,0.7,0.8,1.4,1.2,2
		c0.1,0.1,0.1,0.3,0.1,0.4c-0.5-0.3-0.6-0.8-0.9-1.2c-0.8-1.1-1.5-2.3-2.3-3.5c-0.7-1.1-1.3-2.4-1.9-3.6c-0.4-0.7-0.6-1.4-0.9-2.1
		c-0.3-0.8-0.2-1.7,0-2.6c0.2-0.6,0.4-1.2,0.5-1.8c0.2-0.6,0.3-1.2,0.5-1.7c0.3-0.6,0.4-1.2,0.5-1.8c0.2-0.8,0.3-1.6,0.4-2.4
		c0.1-0.8,0.2-1.7,0.3-2.5c0.1-0.8,0-1.7,0-2.5c0-0.9,0-1.8,0-2.6c0-0.4-0.3-0.7-0.2-1.1c0.1-0.3,0.1-0.7-0.2-1
		c0-0.7-0.2-1.4-0.3-2.1c-0.1-0.9-0.4-1.7-0.6-2.5c-0.3-1.1-0.6-2.2-1.1-3.2c-0.6-1.3-1.2-2.7-2-4c-0.6-1-1.2-2-1.7-2.9
		c-0.2-0.3-0.5-0.6-0.7-0.9c-1.1-1.5-2.4-2.8-3.8-4c-2-1.8-4.3-3.1-6.8-4.2c-1.5-0.7-3-1.3-4.5-1.7c-1.3-0.4-2.6-0.8-3.9-1
		c-0.3-0.3-0.8,0-1.1-0.4c-0.4,0.1-0.7-0.2-1-0.2c-0.4,0.1-0.7-0.3-1.1-0.2c-0.2-0.4-0.7,0-1-0.4c-0.8,0.1-1.5-0.3-2.3-0.4
		c-0.9-0.2-1.9-0.3-2.8-0.7c-1.2,0-2.2-0.5-3.3-0.8c-1.2-0.3-2.5-0.7-3.7-1.2c-1.4-0.5-2.9-1.1-4.2-1.8c-1.2-0.7-2.4-1.4-3.5-2.3
		c-0.7-0.6-1.4-1.3-2.1-2c-0.9-0.9-1.7-2-2.3-3.1c-0.6-1-1.1-2.1-1.4-3.2c-0.4,0-0.5,0.3-0.7,0.5c-0.5,0.9-1.2,1.6-1.8,2.4
		c-0.2,0.3-0.2,0.7-0.8,0.8c-0.1-0.4-0.2-0.7-0.3-1.1c-0.3-1.9-0.9-3.7-2.3-5.1c-0.2,0-0.4,0-0.6,0.1c-0.9,0.5-1.7,1-2.5,1.5
		c-0.6,0.4-1.3,0.9-1.8,1.4c-0.8,0.8-1.7,1.5-2.4,2.5c-0.4,0.6-0.9,1.2-1.3,1.9c-0.6,0.9-0.9,1.8-1.2,2.8c-0.2,0.6-0.3,1.3-0.4,1.9
		c-0.3,1.2-0.1,2.3-0.1,3.5c0,0.9,0.3,1.8,0.6,2.7c0.4,1.3,1.1,2.6,2,3.7c0.8,1,1.8,1.9,3,2.6c1.1,0.6,2.1,1.2,3.2,1.8
		c1,0.5,1.9,1.1,2.8,1.7c1.1,0.8,2.2,1.8,3,2.9c0.5,0.7,1,1.3,1.4,2c0.6,1,1.2,2,1.5,3.1c0.1,0.3,0.2,0.6,0.5,0.7
		c1.5-2.5,2.3-4.1,5.1-5.4c0.7,0,1.4,0,2.1,0c0.1,0.1,0.2,0.2,0.2,0.3c0,0,0,0.1-0.1,0.1c-0.4,0.1-0.8,0.3-1.2,0.5
		c-1,0.5-1.8,1.2-2.5,2.1c-0.8,1-1.4,2.2-2.1,3.3c-0.3,0.5-0.7,1.1-0.9,1.7c-0.5,1.1-1,2.3-1.2,3.5c-0.2,0.6-0.3,1.3-0.6,1.9
		c-0.2,0.6-0.3,1.3-0.5,1.9c-0.3,0.9-0.5,1.8-0.8,2.7c-0.3,0.9-0.5,1.9-0.8,2.8c-0.4,1.5-1,2.9-1.4,4.4c-0.3,1.1-0.7,2.2-1,3.2
		c-0.4,1.2-0.8,2.5-1.4,3.6c-0.7,1.3-1.5,2.6-2.4,3.8c-1.5,2-3.3,3.7-5.1,5.4c-1,1-2.2,1.8-3.3,2.6c-1,0.7-2,1.5-3,2.2
		c-1.1,0.7-2.2,1.4-3.3,2.1c-1.2,0.7-2.4,1.4-3.6,2.2c-0.2,0.1-0.5,0.2-0.7,0.3c-2.5,1.4-5.1,2.7-7.7,3.9c-1.1,0.5-2.2,1-3.3,1.5
		c-0.8,0.3-1.5,0.7-2.3,1c-1.8,0.8-3.6,1.7-5.6,2.2c-0.8,0.2-1.7,0.5-2.5,0.7c-0.9,0.2-1.8,0.5-2.7,0.7c-0.6,0.2-1.2,0.3-1.7,0.5
		c-0.5,0.2-1.1,0.4-1.6,0.5c-0.5,0.1-0.8,0.5-1.2,0.7c-0.1,0.3,0,0.6,0.4,0.7c0.7,0.2,1.5,0.3,2.2,0.4c1.5,0.3,3,0,4.5,0.2
		c0.5,0,0.9-0.2,1.3-0.2c0.4,0,0.8,0,1.2-0.1c0.4-0.2,1-0.1,1.5-0.2c1-0.2,1.9-0.5,2.8-0.7c0.9-0.2,1.8-0.5,2.7-0.9
		c0.8-0.3,1.5-0.5,2.3-0.9c0.5-0.3,1-0.4,1.5-0.6c0.1,0.2-0.1,0.3-0.2,0.4c-0.1,0.1-0.2,0.2-0.3,0.3c-1.6,1.3-3.2,2.6-4.9,3.7
		c-1.2,0.8-2.5,1.5-3.8,2.2c-0.5,0.3-1,0.6-1.6,0.9c-1.4,0.6-2.6,1.3-4,1.9c-1,0.4-1.9,0.9-2.8,1.3c-0.7,0.3-1.4,0.6-2,1
		c-0.2,0.1-0.4,0.2-0.4,0.5c0.6,0.1,1.2,0.2,1.8,0.2c1.1,0,2.2,0,3.3,0c0.5,0,0.9-0.3,1.4-0.2c0.4,0,0.9,0.1,1.3-0.2
		c0.1-0.1,0.3,0,0.5,0c1.3-0.1,2.5-0.4,3.7-0.7c0.9-0.2,1.7-0.5,2.6-0.6c0.5-0.1,1-0.4,1.5-0.6c1.3-0.5,2.5-1.2,3.7-1.9
		c1-0.6,1.8-1.3,2.8-1.9c0.6-0.4,1-0.9,1.6-1.4c0.9-0.7,1.7-1.6,2.6-2.4c0.6-0.6,1-1.3,1.6-1.8c0.1-0.1,0.1-0.2,0.3-0.2
		c0.1,0.4-0.2,0.5-0.4,0.7c-0.7,1.1-1.4,2.2-2.3,3.2c-1,1.2-1.9,2.4-3.1,3.4c-1.6,1.5-3.4,2.9-5.2,4.1c-1.4,0.9-2.7,1.7-4.1,2.6
		c-1,0.6-2,1.2-3,1.8c-1.2,0.7-2.3,1.5-3.5,2.2c-0.8,0.5-1.5,1-2.3,1.5c-0.2,0.1-0.3,0.3-0.4,0.3c0,0.3,0,0.4,0,0.5
		c0.1,0,0.1,0.1,0.2,0.1c0.5,0.1,1-0.2,1.5-0.2c0.5,0,0.9-0.2,1.4-0.3c1-0.2,2-0.5,2.9-0.8c1.5-0.5,3.1-1,4.6-1.6
		c1.3-0.5,2.7-1.1,4-1.6c1-0.4,2-0.9,3-1.4c1.8-1,3.6-2,5.2-3.2c1.1-0.7,2.1-1.5,3.1-2.3c0.7-0.6,1.4-1.2,2.2-1.8
		c0.7-0.5,1.2-1.2,1.9-1.7c0.8-0.6,1.3-1.3,2.1-1.9C-531.8,1471.6-531.8,1471.7-531.9,1471.8z M-514.1,1368.2
		c0.1,0.1,0.2,0.2,0.3,0.3c0.4-0.8,0.6-1.6,1.2-2.2c-0.1-0.1-0.3-0.1-0.3,0c-0.2,0.4-0.7,0.5-1,0.8c-1,1.2-2,2.4-2.8,3.8
		c-0.4,0.8-0.8,1.5-1.2,2.3c-0.3,0.5-0.4,1.1-0.7,1.6c1.2,1.3,2,2.8,2.5,4.5c0.7-0.9,1.3-1.8,2-2.8c-0.1-1,0.3-2.1,0.2-3.3
		c0-0.3,0.3-0.4,0.2-0.8c-0.1-0.3,0-0.5,0-0.8c-0.3-0.2-0.5,0.1-0.6,0.2c-0.2,0.3-0.3,0.6-0.4,0.9c-0.3,0.6-0.7,1.2-1,1.8
		c-0.2-0.6,0.1-1.1,0.2-1.6c0.1-0.4,0.2-0.8,0.4-1.1c0.1-0.3,0.1-0.6-0.1-0.8C-514.9,1370.2-514.5,1369.3-514.1,1368.2z
		 M-549.6,1359.2c-0.1,0.3-0.3,0.6-0.5,0.9c-0.1,0.1-0.1,0.1-0.3,0.1c-0.2-0.7,0.1-1.5,0.4-2.2c-2.4,0.3-4.7,1-7,1.4
		c0.3,0.4,0.9,0.2,1.3,0.5c0.9,0,1.7,0.3,2.6,0.4c0.6,0.1,1.2,0,1.8,0.2c0.6,0.2,1.2,0.1,1.8,0.1c0.6,0,1.2,0,1.9,0
		c0.8,0,1.5-0.2,2.3-0.4c0.6-0.2,1.2-0.3,1.7-0.5c0.1-0.1,0.2-0.1,0.4-0.2c0.1-0.2,0-0.6,0.2-0.9c0.1-0.3,0.2-0.6,0.4-0.9
		c-1.1,0-2.2,0-3.4,0c0,1-0.2,2-0.9,2.9c0-0.8,0-1.4,0-2.1c0.2-0.2,0.3-0.4,0.4-0.8c-1-0.2-1.8,0.3-2.9,0.1
		C-549.6,1358.3-549.5,1358.8-549.6,1359.2z M-532,1364.5C-532,1364.4-532,1364.4-532,1364.5c-0.1-0.1-0.1-0.1-0.1-0.1
		c-1.1,0-2.2,0-3.4,0c0.1,0.9,0,1.7-0.4,2.4c-0.1,0.1-0.2,0.3-0.4,0.2c-0.2-1.2-0.1-1.6,0.5-2.5c-0.9-0.3-1.8,0.2-2.8,0.1
		c0.1,1-0.3,1.9-0.9,2.8c0-1-0.1-1.7,0.2-2.5c-0.7-0.2-1.3,0.1-1.9,0.2c-0.7,0.1-1.4,0.4-2,0.5c-0.7,0.1-1.4,0.4-2.1,0.4
		c-0.3,0.3-0.7,0-1,0.2c0.7,0.1,1.2,0.4,1.9,0.5c0.4,0,0.9,0.3,1.3,0.2c0.3,0.4,0.9-0.1,1.3,0.3c0,0,0.1,0,0.2,0
		c0.9-0.1,1.7,0.2,2.6,0.2c0.9,0,1.8,0.1,2.7,0c0.6-0.1,1.3-0.2,1.9-0.4c0.6-0.2,1.2-0.4,1.8-0.5
		C-532.5,1365.7-532.6,1364.9-532,1364.5z M-497.1,1374.4c-0.2-0.1-0.4-0.3-0.7-0.3c-0.8-0.1-1.6-0.4-2.4-0.5
		c-0.7-0.1-1.3-0.3-2-0.4c-0.9-0.2-1.7-0.5-2.6-0.7c-1.1-0.2-2.1-0.6-3.1-0.9c-0.3-0.1-0.6-0.2-0.9-0.3c-1.4-0.4-2.8-0.8-4.1-1.3
		c-0.2-0.1-0.4,0-0.7,0c0,0.2,0,0.4,0,0.5c0.1,0.1,0.3,0.2,0.4,0.3c1.4,0.5,2.8,0.7,4.1,1.3c1.1,0.1,2.2,0.5,3.2,0.8
		c1,0.2,2,0.5,3,0.8c0.7,0.2,1.4,0.3,2.1,0.5c1,0.3,2.1,0.4,3.2,0.8C-497.3,1374.7-497.1,1374.7-497.1,1374.4z M-544.3,1342.2
		c0,1.2,0.3,2.4,0.4,3.7c0.3,0.3,0.7,0.6,1.1,1.1c-0.5-1.7-0.9-3.4-1.2-5.2C-544.1,1341.9-544.2,1342-544.3,1342.2z M-532.1,1349.1
		c0,1.2,0.3,2.5,0.4,3.7c0.4,0.4,0.7,0.7,1.1,1.1c-0.4-1.7-0.9-3.3-1.2-5.1C-531.9,1348.9-532,1349-532.1,1349.1z M-543,1357.1
		c0.5,0,1,0.3,1.6,0.1c-0.2-0.3-0.5,0-0.6-0.1c-0.2-0.3-0.5-0.1-0.7-0.3c-0.2-0.2-0.5,0-0.7-0.1c-0.5-0.3-1,0-1.4-0.2
		c-0.5-0.2-0.9-0.1-1.3-0.2c-0.1,0-0.2,0-0.3,0.1C-545.3,1356.8-544.2,1357.1-543,1357.1z M-524.9,1363.2c0.2-0.9,0.4-1.9,0.2-2.8
		c-0.4,0.3-0.7,0.8-1.3,1C-525.6,1362-525.3,1362.6-524.9,1363.2z M-538,1354.6c0,0.6,0.7,1,0.8,1.9c0.2-1.1,0.4-2,0.3-3
		C-537.2,1353.9-537.6,1354.2-538,1354.6z M-534.8,1363.4c0.2,0.2,0.6,0.3,0.9,0.2c0.5-0.1,0.9,0.2,1.3,0.2c0.4,0,0.9-0.1,1.3,0.1
		c0.2,0.1,0.5,0.1,0.8-0.1c-1.7-0.4-3.3-0.9-5.2-0.8C-535.3,1363.3-535,1363.2-534.8,1363.4z M-547.6,1350.2
		c-0.3,0.6,0.1,1.2-0.3,1.7c0.6,0.3,1.2,0.2,1.8,0.6C-546.3,1351.6-547.1,1351-547.6,1350.2z M-547.8,1352.4
		c-0.9-0.1-1.8-0.2-2.6-0.5c-0.1,0-0.2-0.1-0.3,0c-0.6,0.3-1.2,0.1-1.9,0.2c1.9,0.4,3.6,0.6,5.4,0.4
		C-547.3,1352.3-547.6,1352.4-547.8,1352.4z M-542.6,1359.1c0.9-0.3,1.6-0.9,2.4-1.5c-0.8,0-1.4,0-2,0
		C-542.2,1358.2-542.4,1358.6-542.6,1359.1z M-529.7,1364.4c-0.6,0-1.2,0-1.9,0c-0.2,0.4,0.2,1-0.3,1.4
		C-531,1365.4-530.2,1365.1-529.7,1364.4z M-556.3,1350.7c0,0.3,0.3,0.1,0.4,0.3c0.1,0.1,0.4,0.1,0.6,0.2c0.2,0.1,0.3,0.3,0.6,0.2
		c0.1,0,0.2,0,0.3,0c0.3-0.3,0.7-0.1,1.2-0.2C-554.3,1350.6-555.3,1350.6-556.3,1350.7z M-548.8,1356.3c-0.4,0-1,0-1.5,0
		c-0.1,0.1-0.2,0.2-0.3,0.3c0.5,0,0.9,0,1.2,0.3c0.2,0.2,0.5,0.1,0.6,0.1c0.2-0.3,0.6-0.1,0.9-0.3
		C-548.2,1356.6-548.4,1356.5-548.8,1356.3z M-539.9,1363.1c0.4,0.6,1.2,0.2,1.5,0.8c0.4-0.4,0.9-0.2,1.4-0.3
		c-0.4-0.2-0.8-0.2-1-0.5C-538.7,1363.1-539.2,1363.1-539.9,1363.1z M-541.1,1357.3c0.1,0.1,0.1,0.1,0.2,0
		C-541,1357.2-541.1,1357.2-541.1,1357.3z M-530.3,1364.1c0.1,0.1,0.1,0.1,0.2,0C-530.1,1364-530.2,1364-530.3,1364.1z
		 M-557.9,1472.2c0.1-0.1,0.1-0.1,0-0.2C-558,1472-558,1472.1-557.9,1472.2z"/>
	<path fill="#008033" d="M-555.4,1349.4c-0.1-0.8,0-1.5,0.5-2.3c0.4,0.5,0.6,1.1,0.4,1.6c-0.2,0.4-0.1,0.8-0.2,1.2
		c0.8,0.2,1.6,0.6,2.4,0.9c0.1-0.9-0.2-1.9,0.5-2.7c0.1,0.1,0.1,0.3,0.2,0.4c0,0.7,0.3,1.6-0.1,2.5c0,0,0.1,0.1,0.3,0.1
		c1,0.2,2,0.6,2.9,0.8c0,0,0.1,0,0.2,0c-0.3-0.7,0-1.4-0.2-2.1c-0.6-0.4-1.3-0.7-1.9-1.1c-0.4-0.3-1-0.4-1.3-0.8
		c-0.3,0-0.5-0.1-0.8-0.2c-1.2-0.2-2.3-0.8-3.5-0.8c-0.5-0.4-1,0-1.5-0.3c-0.5-0.2-1.1,0-1.5-0.1c-0.8-0.2-1.5-0.2-2.3-0.2
		c-0.1,0-0.3,0-0.4,0.1c1.5,0.8,3,1.6,4.5,2.4C-556.5,1349-556,1349.2-555.4,1349.4z"/>
	<path fill="#008033" d="M-549.6,1357.7c0,0.6,0.1,1.1,0,1.5c-0.1,0.3-0.3,0.6-0.5,0.9c-0.1,0.1-0.1,0.1-0.3,0.1
		c-0.2-0.7,0.1-1.5,0.4-2.2c-2.4,0.3-4.7,1-7,1.4c0.3,0.4,0.9,0.2,1.3,0.5c0.9,0,1.7,0.3,2.6,0.4c0.6,0.1,1.2,0,1.8,0.2
		c0.6,0.2,1.2,0.1,1.8,0.1c0.6,0,1.2,0,1.9,0c0.8,0,1.5-0.2,2.3-0.4c0.6-0.2,1.2-0.3,1.7-0.5c0.1-0.1,0.2-0.1,0.4-0.2
		c0.1-0.2,0-0.6,0.2-0.9c0.1-0.3,0.2-0.6,0.4-0.9c-1.1,0-2.2,0-3.4,0c0,1-0.2,2-0.9,2.9c0-0.8,0-1.4,0-2.1c0.2-0.2,0.3-0.4,0.4-0.8
		C-547.7,1357.4-548.6,1358-549.6,1357.7z"/>
	<path fill="#008033" d="M-532.8,1366.4c0.3-0.7,0.2-1.5,0.8-1.9c0,0,0-0.1-0.1-0.1c0,0-0.1,0-0.1,0c-1.1,0-2.2,0-3.4,0
		c0.1,0.9,0,1.7-0.4,2.4c-0.1,0.1-0.2,0.3-0.4,0.2c-0.2-1.2-0.1-1.6,0.5-2.5c-0.9-0.3-1.8,0.2-2.8,0.1c0.1,1-0.3,1.9-0.9,2.8
		c0-1-0.1-1.7,0.2-2.5c-0.7-0.2-1.3,0.1-1.9,0.2c-0.7,0.1-1.4,0.4-2,0.5c-0.7,0.1-1.4,0.4-2.1,0.4c-0.3,0.3-0.7,0-1,0.2
		c0.7,0.1,1.2,0.4,1.9,0.5c0.4,0,0.9,0.3,1.3,0.2c0.3,0.4,0.9-0.1,1.3,0.3c0,0,0.1,0,0.2,0c0.9-0.1,1.7,0.2,2.6,0.2
		c0.9,0,1.8,0.1,2.7,0c0.6-0.1,1.3-0.2,1.9-0.4C-534,1366.7-533.4,1366.5-532.8,1366.4z"/>
	<path fill="#008033" d="M-544.8,1353.3c0.6,0.5,1.1,0.9,1.7,1.3c1.7,1.1,3.4,2.3,5.1,3.4c0.9,0.6,1.8,1.2,2.8,1.7
		c1,0.6,1.9,1.2,2.8,1.8c0.5,0.3,1,0.5,1.4,0.8c0.6,0.3,1.3,0.7,1.9,1.1c1.6,0.9,3.3,1.8,4.9,2.6c0.8,0.4,1.5,0.9,2.3,1.2
		c1.4,0.5,2.8,1.3,4.2,1.8c0.2,0.1,0.3,0,0.5,0.1c0.1-0.2,0.3-0.3,0.4-0.5c0-0.1-0.1,0-0.2-0.1c-2.4-0.9-4.6-2.1-6.9-3.3
		c-1.1-0.5-2.1-1.1-3.2-1.6c-0.8-0.5-1.7-0.9-2.5-1.4c-0.5-0.3-1-0.5-1.5-0.8c-1.1-0.6-2.2-1.2-3.3-1.9c-1.6-1-3.2-1.9-4.7-2.9
		c-1-0.6-2-1.2-3-1.8c-0.7-0.4-1.4-0.9-2.2-1.3C-544.4,1353.3-544.5,1353.3-544.8,1353.3z"/>
	<path fill="#008033" d="M-538,1349c-0.1-0.7-0.5-1.3-0.9-1.9c-0.3-0.5-0.5-1-0.9-1.4c-0.3-0.4-0.6-0.8-0.9-1.3
		c-0.2-0.4-0.5-0.6-0.8-1c-0.7-0.9-1.4-1.9-2.4-2.5c0,0.2,0,0.3,0.1,0.5c0.4,1,0.7,2.1,1,3.2c0.3,0.9,0.7,1.7,0.9,2.6
		c0,0.1,0.1,0.1,0.2,0.2c0.5-0.6,1.1-1.1,2-1.3c-0.4,0.9-1,1.5-1.7,2c0.1,0.9,0.7,1.7,1,2.6c0.4-0.4,0.7-0.7,1-1
		C-538.9,1349.3-538.4,1349.1-538,1349z"/>
	<path fill="#008033" d="M-531.6,1347.9c-0.1,0.3,0.1,0.6,0.2,0.9c0.5,1.8,1.1,3.6,1.7,5.5c0,0.1,0.1,0.1,0.2,0.2
		c0.6-0.5,1-1.3,2.1-1.3c-0.4,1-1.1,1.6-1.9,1.9c0.4,0.9,0.7,1.7,1.2,2.6c0.4-0.4,0.8-0.8,1.2-1.2c0.3-0.3,0.7-0.5,1.1-0.5
		c0-0.2,0-0.4,0-0.6c-0.2,0-0.3-0.2-0.3-0.3c-0.5-1-1-2-1.7-2.9c-0.6-0.7-1.1-1.5-1.7-2.2c-0.6-0.7-1.2-1.3-1.8-2
		C-531.4,1348-531.4,1347.8-531.6,1347.9z"/>
	<path fill="#008033" d="M-497.4,1374.9c0.2-0.2,0.4-0.2,0.3-0.5c-0.2-0.1-0.4-0.3-0.7-0.3c-0.8-0.1-1.6-0.4-2.4-0.5
		c-0.7-0.1-1.3-0.3-2-0.4c-0.9-0.2-1.7-0.5-2.6-0.7c-1.1-0.2-2.1-0.6-3.1-0.9c-0.3-0.1-0.6-0.2-0.9-0.3c-1.4-0.4-2.8-0.8-4.1-1.3
		c-0.2-0.1-0.4,0-0.7,0c0,0.2,0,0.4,0,0.5c0.1,0.1,0.3,0.2,0.4,0.3c1.4,0.5,2.8,0.7,4.1,1.3c1.1,0.1,2.2,0.5,3.2,0.8
		c1,0.2,2,0.5,3,0.8c0.7,0.2,1.4,0.3,2.1,0.5C-499.6,1374.4-498.5,1374.5-497.4,1374.9z"/>
	<path fill="#008033" d="M-525.7,1355.8c-0.6,1.1-1.3,1.7-2.2,2.3c0.7,0.9,1,2,1.8,2.9c0.4-0.6,0.9-1,1.3-1.5
		C-524.8,1358.3-525.4,1357.1-525.7,1355.8z"/>
	<path fill="#008033" d="M-537.9,1348.9c-0.5,1.1-1.3,1.7-2.2,2.3c0.6,1,1.1,2,1.7,3c0.4-0.6,0.9-1,1.4-1.5
		C-537,1351.3-537.5,1350.2-537.9,1348.9z"/>
	<path fill="#008033" d="M-561.4,1346.9c1.1,1.1,2,2.3,3.6,3c0.3,0,0.8,0,1.4,0c-0.6-0.4-1.2-0.6-1.7-0.9c-0.6-0.3-1.1-0.7-1.6-1
		C-560.3,1347.6-560.7,1347.1-561.4,1346.9z"/>
	<path fill="#008033" d="M-544,1341.8c-0.1,0.1-0.2,0.2-0.3,0.4c0,1.2,0.3,2.4,0.4,3.7c0.3,0.3,0.7,0.6,1.1,1.1
		C-543.3,1345.3-543.8,1343.6-544,1341.8z"/>
	<path fill="#008033" d="M-531.8,1348.8c-0.1,0.1-0.2,0.2-0.3,0.3c0,1.2,0.3,2.5,0.4,3.7c0.4,0.4,0.7,0.7,1.1,1.1
		C-531.1,1352.2-531.6,1350.5-531.8,1348.8z"/>
	<path fill="#008033" d="M-556.5,1358.7c1.8-0.4,3.4-1.2,5.5-1.3c-0.6-0.2-1-0.3-1.4-0.5c-0.3-0.2-0.6,0.1-0.9,0.2
		c-0.7,0.2-1.4,0.6-2,0.9C-555.9,1358.2-556.2,1358.5-556.5,1358.7z"/>
	<path fill="#008033" d="M-545.6,1365.5c1.6-0.5,3.2-1.1,4.8-1.4c0.1-0.1,0.1-0.2,0-0.3c-0.2-0.1-0.5,0-0.8-0.2
		c-0.3-0.2-0.7,0.1-1,0.2c-1,0.4-1.9,0.8-2.8,1.4C-545.5,1365.3-545.7,1365.3-545.6,1365.5z"/>
	<path fill="#008033" d="M-529.1,1358.4c-0.1,0.3,0.2,0.5,0.4,0.7c0.8,1.3,1.8,2.5,3,3.4c0-0.2,0-0.3-0.1-0.4
		c-0.7-0.7-1.3-1.5-1.8-2.4c0-0.1-0.1-0.2-0.2-0.2C-528.4,1359.2-528.6,1358.6-529.1,1358.4z"/>
	<path fill="#008033" d="M-538.1,1355.4c-0.5-1-1.4-1.9-1.9-2.9c-0.5-0.1-0.7-0.7-1.3-0.8C-540.4,1353-539.4,1354.3-538.1,1355.4z"
		/>
	<path fill="#008033" d="M-546.4,1356.4c1.1,0.4,2.2,0.8,3.4,0.7c0.5,0,1,0.3,1.6,0.1c-0.2-0.3-0.5,0-0.6-0.1
		c-0.2-0.3-0.5-0.1-0.7-0.3c-0.2-0.2-0.5,0-0.7-0.1c-0.5-0.3-1,0-1.4-0.2c-0.5-0.2-0.9-0.1-1.3-0.2
		C-546.2,1356.3-546.3,1356.3-546.4,1356.4z"/>
	<path fill="#008033" d="M-525.9,1361.4c0.4,0.6,0.7,1.2,1,1.8c0.2-0.9,0.4-1.9,0.2-2.8C-525.1,1360.7-525.4,1361.2-525.9,1361.4z"
		/>
	<path fill="#008033" d="M-536.9,1353.5c-0.4,0.4-0.7,0.7-1.1,1.1c0,0.6,0.7,1,0.8,1.9C-536.9,1355.4-536.7,1354.5-536.9,1353.5z"/>
	<path fill="#008033" d="M-535.6,1363.1c0.4,0.2,0.6,0.1,0.8,0.3c0.2,0.2,0.6,0.3,0.9,0.2c0.5-0.1,0.9,0.2,1.3,0.2
		c0.4,0,0.9-0.1,1.3,0.1c0.2,0.1,0.5,0.1,0.8-0.1C-532.1,1363.5-533.7,1363-535.6,1363.1z"/>
	<path fill="#008033" d="M-546,1352.5c-0.3-0.9-1-1.5-1.5-2.3c-0.3,0.6,0.1,1.2-0.3,1.7C-547.3,1352.2-546.6,1352.1-546,1352.5z"/>
	<path fill="#008033" d="M-547.1,1352.5c-0.2-0.2-0.5-0.1-0.7-0.1c-0.9-0.1-1.8-0.2-2.6-0.5c-0.1,0-0.2-0.1-0.3,0
		c-0.6,0.3-1.2,0.1-1.9,0.2C-550.7,1352.5-548.9,1352.7-547.1,1352.5z"/>
	<path fill="#008033" d="M-542.2,1357.6c0,0.5-0.2,1-0.4,1.5c0.9-0.3,1.6-0.9,2.4-1.5C-541,1357.6-541.6,1357.6-542.2,1357.6z"/>
	<path fill="#008033" d="M-531.8,1365.8c0.8-0.4,1.6-0.7,2.1-1.4c-0.6,0-1.2,0-1.9,0C-531.7,1364.8-531.4,1365.4-531.8,1365.8z"/>
	<path fill="#008033" d="M-553.3,1351.2c-1-0.6-2-0.6-2.9-0.5c0,0.3,0.3,0.1,0.4,0.3c0.1,0.1,0.4,0.1,0.6,0.2
		c0.2,0.1,0.3,0.3,0.6,0.2c0.1,0,0.2,0,0.3,0C-554.1,1351.2-553.7,1351.3-553.3,1351.2z"/>
	<path fill="#008033" d="M-547.9,1356.8c-0.3-0.1-0.6-0.3-0.9-0.5c-0.4,0-1,0-1.5,0c-0.1,0.1-0.2,0.2-0.3,0.3c0.5,0,0.9,0,1.2,0.3
		c0.2,0.2,0.5,0.1,0.6,0.1C-548.5,1356.7-548.1,1357-547.9,1356.8z"/>
	<path fill="#008033" d="M-529.3,1357c-0.2-0.8-0.3-1-1.6-2.2c-0.2,0.2,0,0.3,0,0.4c0.1,0.3,0.3,0.4,0.2,0.8
		c0.2,0.2,0.4,0.5,0.7,0.6C-529.7,1356.7-529.6,1357-529.3,1357z"/>
	<path fill="#008033" d="M-543.2,1347.9c-0.1,0.3,0.1,0.5,0.3,0.7c0.1,0.2,0.1,0.3,0.1,0.5c0.4,0.5,0.8,0.8,1.3,1
		c0-0.5-0.3-0.8-0.5-1.1C-542.4,1348.6-542.7,1348.1-543.2,1347.9z"/>
	<path fill="#008033" d="M-538,1363.1c-0.7,0-1.2,0-1.8,0c0.4,0.6,1.2,0.2,1.5,0.8c0.4-0.4,0.9-0.2,1.4-0.3
		C-537.4,1363.3-537.8,1363.3-538,1363.1z"/>
	<path fill="#008033" d="M-546,1365.6c0.1,0.1,0.3,0.1,0.3,0c0-0.2-0.2,0-0.2-0.1C-545.9,1365.5-546,1365.6-546,1365.6z"/>
	<path fill="#008033" d="M-533.7,1361.9c0.2,0.3,0.3,0.3,0.5,0.1C-533.4,1361.8-533.5,1362-533.7,1361.9z"/>
	<path fill="#008033" d="M-539.6,1355.5c0-0.1-0.1-0.2-0.2-0.2C-539.8,1355.5-539.8,1355.5-539.6,1355.5z"/>
	<path fill="#008033" d="M-538.1,1355.4c0,0.1,0.1,0.2,0.2,0.2C-537.9,1355.4-538,1355.4-538.1,1355.4z"/>
	<path fill="#008033" d="M-541,1357.3c-0.1-0.1-0.1-0.1-0.2,0C-541.1,1357.4-541,1357.4-541,1357.3z"/>
	<path fill="#008033" d="M-531.6,1347.9c0-0.1,0-0.1-0.1-0.2c0,0-0.1,0-0.1,0.1C-531.7,1347.8-531.7,1347.9-531.6,1347.9z"/>
	<path fill="#008033" d="M-541.5,1350.1c0,0.1,0,0.1,0.1,0.2c0,0,0.1,0,0.1-0.1C-541.4,1350.1-541.4,1350.1-541.5,1350.1z"/>
	<path fill="#008033" d="M-543.2,1347.9c0-0.1,0-0.1-0.1-0.2c0,0-0.1,0-0.1,0.1C-543.3,1347.8-543.3,1347.9-543.2,1347.9z"/>
	<path fill="#008033" d="M-530.1,1364.1c-0.1-0.1-0.1-0.1-0.2,0C-530.2,1364.2-530.1,1364.2-530.1,1364.1z"/>
	<path fill="#008033" d="M-543.8,1340.9c0-0.1,0-0.1-0.1-0.2c0,0-0.1,0-0.1,0.1C-543.9,1340.9-543.9,1340.9-543.8,1340.9z"/>
	<path fill="#008033" d="M-529.3,1357c0,0.1,0,0.1,0.1,0.2c0,0,0.1,0,0.1-0.1C-529.2,1357.1-529.2,1357-529.3,1357z"/>
	<path fill="#008033" d="M-529.1,1358.4c0-0.1,0-0.1-0.1-0.2c0,0-0.1,0-0.1,0.1C-529.3,1358.3-529.2,1358.4-529.1,1358.4z"/>
	<path fill="#008033" d="M-544.7,1353.3c0-0.1,0-0.1-0.1-0.2c0,0-0.1,0-0.1,0.1C-544.8,1353.3-544.8,1353.3-544.7,1353.3z"/>
	<path fill="#008033" d="M-528.4,1361.5c0,0.1,0,0.1,0.1,0.2c0,0,0.1,0,0.1-0.1C-528.2,1361.6-528.3,1361.5-528.4,1361.5z"/>
	<path fill="#008033" d="M-539.6,1355.5c0,0.1,0,0.1,0.1,0.2c0,0,0.1,0,0.1-0.1C-539.5,1355.6-539.5,1355.5-539.6,1355.5z"/>
	<path fill="#008033" d="M-525.6,1362.7c0-0.1-0.1-0.2-0.2-0.2C-525.8,1362.6-525.7,1362.7-525.6,1362.7z"/>
	<path fill="#008033" d="M-525.6,1362.7c0,0.1,0,0.1,0.1,0.2c0,0,0.1,0,0.1-0.1C-525.4,1362.7-525.5,1362.7-525.6,1362.7z"/>
	<path fill="#008033" d="M-555.4,1349.4c0,0.1,0,0.1,0.1,0.2c0,0,0.1,0,0.1-0.1C-555.2,1349.4-555.3,1349.3-555.4,1349.4z"/>
	<path fill="#008033" d="M-556.5,1358.7c-0.1,0-0.1,0-0.2,0.1c0,0,0,0.1,0.1,0.1C-556.5,1358.9-556.5,1358.8-556.5,1358.7z"/>
	<path fill="#008033" d="M-561.4,1346.9c0-0.1,0-0.1-0.1-0.2c0,0-0.1,0-0.1,0.1C-561.5,1346.9-561.5,1346.9-561.4,1346.9z"/>
	<path fill="#008033" d="M-538,1355.5c0,0.1,0.1,0.2,0.2,0.2C-537.8,1355.6-537.8,1355.5-538,1355.5z"/>
	<path fill="#008033" d="M-537.8,1355.7c0,0.1,0,0.1,0.1,0.2c0,0,0.1,0,0.1-0.1C-537.6,1355.8-537.7,1355.7-537.8,1355.7z"/>
	<path d="M-521.4,1386.7c0.7,0.3,1.3,0.6,1.5,1.3c0,0.5,0.1,1-0.3,1.5c-0.3,0.4-0.8,0.6-1.2,0.7c-0.5,0.1-0.9-0.2-1.3-0.4
		c-0.6-0.3-0.7-1-0.9-1.6c0.3-0.1,0.2-0.3,0.2-0.5C-522.5,1386.7-522.5,1386.7-521.4,1386.7z M-522.5,1388.5c0.3,0,0.5,0,0.8,0
		c0.4-0.3,0.3-0.7,0-1.1c-0.3,0-0.5,0-0.9,0C-522.8,1387.8-522.9,1388.2-522.5,1388.5z"/>
</g>
</svg>
