<?xml version="1.0" encoding="utf-8"?>
<!-- Generator: Adobe Illustrator 18.1.1, SVG Export Plug-In . SVG Version: 6.00 Build 0)  -->
<svg version="1.1" id="Layer_1" xmlns="http://www.w3.org/2000/svg" xmlns:xlink="http://www.w3.org/1999/xlink" x="0px" y="0px"
	 viewBox="150 -100 900 600" enable-background="new 150 -100 900 600" xml:space="preserve">
<rect x="150" y="-100" fill="#FFFFFF" width="900" height="600"/>
<path fill="#00247D" d="M387.2,500H1050V56.9L387.2,500z"/>
<polygon fill="#CF142B" points="812.8,-100 150,-100 150,343.1 "/>
<g>
	<path fill="#FFCC00" stroke="#000000" stroke-width="2" stroke-miterlimit="10" d="M615.9,36.9l5.2,83.5l68-49.9l-31.5,77.4
		l82.9-15.5l-62,56.1l81.4,22L679.7,234l63.8,55.2L661,275.7l33.6,77.4l-68.5-48l-3.3,84.3l-40.9-72.9l-39.6,74.5l-5.2-83.5
		l-68,49.9l31.5-77.4l-82.9,15.5l62-56.1l-81.4-22l80.2-23.6l-63.8-55.2l82.5,13.5l-33.6-77.4l68.5,48l3.3-84.3l40.9,72.9
		L615.9,36.9z"/>
	<path fill="#87AADE" stroke="#000000" stroke-width="2" stroke-miterlimit="10" d="M680.4,224.1c-6,54.7-56.2,94.3-112.2,88.4
		c-56-5.8-96.5-54.9-90.5-109.6c6-54.7,56.2-94.3,112.2-88.4c55.7,5.8,96.1,54.4,90.6,108.8"/>
	<g>
		<path fill="#FFFFFF" d="M548.9,153.9c8.6,2,9.8,2.4,8.6,7.4c-1.2,5.1-9.4,7.1-9.4,7.1s-4.7-3.1-11.8-0.4
			c-7.1,2.7-21.2,14.1-24.7,8.6c-3.5-5.5-6.7-17.6,1.2-16.9c7.8,0.8,9,2.7,13.7-3.9c4.7-6.7,10.6-6.7,12.2-3.1
			c1.6,3.5,1.6-3.1,5.1-2.7C547.3,150.4,548.9,154.7,548.9,153.9L548.9,153.9z"/>
		<path fill="#FFFFFF" d="M647.3,169.2c-17.2,0-41.9-11.4-41.2-0.8c0.8,10.6-8.2,6.3-4.7,9.4c3.5,3.1,3.1,1.2,10.6,4.7
			c7.4,3.5,7.4,10.6,12.5,4.3c5.1-6.3,14.1-5.9,15.7-4.7c1.6,1.2,9,6.3,12.5,0C656.3,175.9,647.7,169.6,647.3,169.2L647.3,169.2z"/>
		<path fill="#FFFFFF" d="M579.5,137.8c5.5,0,12.5-9.8,16.1-7.4c3.5,2.4,5.1,9,5.1,9s5.9,1.2,10.6,1.6c4.7,0.4,16.1-0.4,16.5,2.4
			c0.4,2.7,12.2,2,5.5,5.5c-6.7,3.5-0.8,7.8-7.1,7.8c-6.3,0-3.9-6.3-14.5-3.9c-10.6,2.4-13.3,10.6-17.6,5.9
			c-4.3-4.7-13.7-1.6-17.6-3.9c-3.9-2.4-10.6-9.4-7.4-12.9C572,138.2,579.5,137.4,579.5,137.8L579.5,137.8z"/>
	</g>
	<path fill="#663300" d="M480.7,215.5c6.7,0,33.3,0,40.4-4.7c7.1-4.7,12.5-12.2,14.1-12.5c1.6-0.4,14.1-3.5,17.2,0.4
		c3.1,3.9,9.8,8.6,12.5,9.8c2.7,1.2,22.7,2.7,24.3,1.6c1.6-1.2,13.3-13.7,13.3-13.7s3.9-1.6,5.9-1.6c2,0,12.5,9.8,14.1,11.4
		c1.6,1.6,12.5,3.1,21.2-2.4c8.6-5.5,9.8-16.5,14.1-13.3c4.3,3.1,7.4,2.4,11.4,9c3.9,6.7,5.1,14.1,10.2,16.1
		c2.1,0.8-112.5,23.5-112.5,23.5L480.7,215.5L480.7,215.5z"/>
	<path fill="#008033" stroke="#000000" stroke-width="2" stroke-miterlimit="10" d="M681,214.7c-0.2,55-46,99.4-102.3,99.2
		c-56.1-0.2-101.5-44.7-101.5-99.5l101.9-0.1L681,214.7z"/>
	<g>
		<path fill="none" stroke="#000000" stroke-width="0.6475" d="M587.3,313.1l-7.8-98.4l-27.4,94.5"/>
		<path fill="none" stroke="#000000" stroke-width="0.6475" d="M534.4,302.5l45.5-87.4l-59.6,79.6"/>
		<path fill="none" stroke="#000000" stroke-width="0.6475" d="M506.9,283.3l72.5-68.2l-85.1,54.1"/>
		<path fill="none" stroke="#000000" stroke-width="0.6475" d="M486.6,252.7l92.9-37.2L480.3,237"/>
		<path fill="none" stroke="#000000" stroke-width="0.6475" d="M579.5,214.7l-101.5,0.4"/>
		<path fill="none" stroke="#000000" stroke-width="0.6475" d="M623.8,302.5L578.3,215l59.6,79.6"/>
		<path fill="none" stroke="#000000" stroke-width="0.6475" d="M651.2,283.2L578.7,215l85.1,54.1"/>
		<path fill="none" stroke="#000000" stroke-width="0.6475" d="M671.6,252.7l-92.9-37.2l99.2,21.6"/>
		<path fill="none" stroke="#000000" stroke-width="0.6475" d="M578.7,214.6l101.5,0.4"/>
	</g>
</g>
</svg>
