<?xml version="1.0" encoding="utf-8"?>
<!-- Generator: Adobe Illustrator 18.1.1, SVG Export Plug-In . SVG Version: 6.00 Build 0)  -->
<svg version="1.1" id="Layer_1" xmlns="http://www.w3.org/2000/svg" xmlns:xlink="http://www.w3.org/1999/xlink" x="0px" y="0px"
	 width="2551.2px" height="1700.8px" viewBox="0 0 2551.2 1700.8" enable-background="new 0 0 2551.2 1700.8" xml:space="preserve">
<rect y="850.4" width="2551.2" height="850.4"/>
<rect y="0" fill="#0080C8" width="2551.2" height="850.4"/>
<g>
	<g>
		<g>
			<rect x="850.4" y="836.2" fill="#FFCC00" width="850.4" height="28.3"/>
			
				<rect x="850.4" y="836.2" transform="matrix(0.7071 -0.7071 0.7071 0.7071 -227.702 1151.0588)" fill="#FFCC00" width="850.4" height="28.3"/>
			
				<rect x="850.4" y="836.2" transform="matrix(0.866 -0.5 0.5 0.866 -254.297 751.7307)" fill="#FFCC00" width="850.4" height="28.3"/>
			
				<rect x="850.4" y="836.2" transform="matrix(0.866 0.5 -0.5 0.866 596.093 -523.8693)" fill="#FFCC00" width="850.4" height="28.3"/>
			
				<rect x="850.4" y="836.2" transform="matrix(0.7071 0.7071 -0.7071 0.7071 974.9311 -652.9119)" fill="#FFCC00" width="850.4" height="28.3"/>
			
				<rect x="850.4" y="836.2" transform="matrix(0.9659 -0.2588 0.2588 0.9659 -176.6321 359.1259)" fill="#FFCC00" width="850.4" height="28.3"/>
			
				<rect x="850.4" y="836.2" transform="matrix(0.9659 0.2588 -0.2588 0.9659 263.5622 -301.1732)" fill="#FFCC00" width="850.4" height="28.3"/>
			<rect x="1261.4" y="425.2" fill="#FFCC00" width="28.3" height="850.4"/>
			
				<rect x="850.4" y="836.2" transform="matrix(-0.5 -0.866 0.866 -0.5 1176.9408 2380.2869)" fill="#FFCC00" width="850.4" height="28.3"/>
			
				<rect x="850.4" y="836.2" transform="matrix(0.5 -0.866 0.866 0.5 -98.6593 1529.897)" fill="#FFCC00" width="850.4" height="28.3"/>
			
				<rect x="850.4" y="836.2" transform="matrix(-0.2588 -0.9659 0.9659 -0.2588 784.3359 2302.6221)" fill="#FFCC00" width="850.4" height="28.3"/>
			
				<rect x="850.4" y="836.2" transform="matrix(0.2588 -0.9659 0.9659 0.2588 124.0369 1862.4279)" fill="#FFCC00" width="850.4" height="28.3"/>
		</g>
		<g>
			
				<rect x="935.4" y="839.1" transform="matrix(0.6157 -0.788 0.788 0.6157 -179.8542 1332.024)" fill="#FFCC00" width="680.3" height="22.7"/>
			
				<rect x="935.4" y="839.1" transform="matrix(-0.1219 -0.9925 0.9925 -0.1219 587.0051 2220.1184)" fill="#FFCC00" width="680.3" height="22.7"/>
			
				<rect x="935.4" y="839.1" transform="matrix(0.1392 -0.9903 0.9903 0.1392 255.9567 1995.2245)" fill="#FFCC00" width="680.3" height="22.7"/>
			
				<rect x="935.4" y="839.1" transform="matrix(0.9272 -0.3746 0.3746 0.9272 -225.6774 539.7703)" fill="#FFCC00" width="680.3" height="22.7"/>
			
				<rect x="935.4" y="839.1" transform="matrix(0.9925 -0.1219 0.1219 0.9925 -94.1283 161.7952)" fill="#FFCC00" width="680.3" height="22.7"/>
			
				<rect x="935.4" y="839.1" transform="matrix(0.3907 -0.9205 0.9205 0.3907 -5.6047 1692.3121)" fill="#FFCC00" width="680.3" height="22.7"/>
			
				<rect x="935.4" y="839.1" transform="matrix(0.7986 -0.6018 0.6018 0.7986 -254.9169 938.9136)" fill="#FFCC00" width="680.3" height="22.7"/>
			
				<rect x="935.4" y="839.1" transform="matrix(-0.788 -0.6157 0.6157 -0.788 1757.2341 2305.8442)" fill="#FFCC00" width="680.3" height="22.7"/>
			
				<rect x="935.4" y="839.1" transform="matrix(-0.9903 -0.1392 0.1392 -0.9903 2420.4343 1870.0332)" fill="#FFCC00" width="680.3" height="22.7"/>
			
				<rect x="935.4" y="839.1" transform="matrix(-0.3746 -0.9272 0.9272 -0.3746 964.9803 2351.6675)" fill="#FFCC00" width="680.3" height="22.7"/>
			
				<rect x="935.4" y="839.1" transform="matrix(-0.9205 -0.3907 0.3907 -0.9205 2117.522 2131.5947)" fill="#FFCC00" width="680.3" height="22.7"/>
			
				<rect x="935.4" y="839.1" transform="matrix(-0.6018 -0.7986 0.7986 -0.6018 1364.1237 2380.9067)" fill="#FFCC00" width="680.3" height="22.7"/>
		</g>
	</g>
	<circle fill="#FFCC00" cx="1275.6" cy="850.4" r="287"/>
	<path fill="#FFFFFF" d="M766.2,648.8l508.7,321.4l-23-109.1l231,132.7l-111.2,27.3l426.2,210.2l-163.5-153.4l98.3-12.2
		l-611.3-357.3l27.3,86.1L972.2,683.3l125.6-16.5L753.3,469.4l119.8,174.4L766.2,648.8L766.2,648.8z"/>
</g>
</svg>
