<svg xmlns="http://www.w3.org/2000/svg" width="475" height="250" viewBox="0 0 190 100" fill="#fcce04">
	<title>Tafea Province Flag</title>
	<path d="m0 0h190v100H0z"/>
	<path fill="#008000" d="m0 0L95 100H0z"/>
	<path fill="#0073bf" d="m95 0L190 100V0z"/>
	<g transform="translate(97.3171,22.2222) scale(12.9630)">
		<polygon fill="#000000" points="0,0 0.324920,1 -0.525731,0.381966 0.525731,0.381966 -0.324920,1"/>
	</g>
	<g transform="translate(71.8293,37.0370) scale(11.1111)">
		<polygon fill="#000000" points="0,0 0.324920,1 -0.525731,0.381966 0.525731,0.381966 -0.324920,1"/>
	</g>
	<g transform="translate(120.9878,54.1667) scale(8.7963)">
		<polygon fill="#000000" points="0,0 0.324920,1 -0.525731,0.381966 0.525731,0.381966 -0.324920,1"/>
	</g>
	<path transform="translate(84.3,49)" fill="#000000"
		d="M 0,0 C 6,-1 16,-6 20.5,-9 L 11.5,5.5 C 11.1925,5.9954 11.6,6 12,6 L 14,6 C 17.2,6 18,5.5 20.5,3 C 22,1.5 23.1892,2.9927 22.5,4 L 19.25,8.75 2.5,8.75 -1,5.25 C -2,4.25 -0.5,3 0.5,4 L 1,4.5 C 1.5,5 3,6 4,6 L 8.5,6 C 9,6 9,5.8243 8.5,5.5 z"/>
	<path transform="translate(84.3,49)" fill="#000000"
		d="M 4.25,8.75 4.25,9.75 20,9.75 C 20,10.4 19.8,11 19,11 L 1,11 C 0.2,11 0,10.4 0,9.75 L 2,9.75 2,3.5 C 2,2.5 4.25,2.5 4.25,3.5 L z"/>
</svg>