<?xml version="1.0" encoding="UTF-8" standalone="no"?>
<!-- Created with Inkscape (http://www.inkscape.org/) -->

<svg
   xmlns:dc="http://purl.org/dc/elements/1.1/"
   xmlns:cc="http://creativecommons.org/ns#"
   xmlns:rdf="http://www.w3.org/1999/02/22-rdf-syntax-ns#"
   xmlns:svg="http://www.w3.org/2000/svg"
   xmlns="http://www.w3.org/2000/svg"
   xmlns:sodipodi="http://sodipodi.sourceforge.net/DTD/sodipodi-0.dtd"
   xmlns:inkscape="http://www.inkscape.org/namespaces/inkscape"
   id="svg2"
   version="1.1"
   inkscape:version="0.48.4 r9939"
   width="2595"
   height="1302"
   sodipodi:docname="Flag_of_Penama.png">
  <metadata
     id="metadata8">
    <rdf:RDF>
      <cc:Work
         rdf:about="">
        <dc:format>image/svg+xml</dc:format>
        <dc:type
           rdf:resource="http://purl.org/dc/dcmitype/StillImage" />
        <dc:title></dc:title>
      </cc:Work>
    </rdf:RDF>
  </metadata>
  <defs
     id="defs6" />
  <sodipodi:namedview
     pagecolor="#ffffff"
     bordercolor="#666666"
     borderopacity="1"
     objecttolerance="10"
     gridtolerance="10"
     guidetolerance="10"
     inkscape:pageopacity="0"
     inkscape:pageshadow="2"
     inkscape:window-width="1366"
     inkscape:window-height="705"
     id="namedview4"
     showgrid="false"
     showguides="true"
     inkscape:guide-bbox="true"
     inkscape:zoom="0.076977891"
     inkscape:cx="263.41137"
     inkscape:cy="1158.5698"
     inkscape:window-x="-8"
     inkscape:window-y="-8"
     inkscape:window-maximized="1"
     inkscape:current-layer="svg2">
    <sodipodi:guide
       position="0,0"
       orientation="0,2595"
       id="guide3808" />
    <sodipodi:guide
       position="2595,0"
       orientation="-1302,0"
       id="guide3810" />
    <sodipodi:guide
       position="2595,1302"
       orientation="0,-2595"
       id="guide3812" />
    <sodipodi:guide
       position="0,1302"
       orientation="1302,0"
       id="guide3814" />
  </sodipodi:namedview>
  <rect
     style="fill:#006633;fill-opacity:1;fill-rule:nonzero;stroke:none"
     id="rect2987"
     width="2598.8845"
     height="485.9313"
     x="-1.7554135"
     y="818.90204" />
  <rect
     style="fill:#ff3300;fill-opacity:1;fill-rule:nonzero;stroke:none"
     id="rect2987-1"
     width="2595.959"
     height="485.9313"
     x="-0.32848406"
     y="0.27361825" />
  <rect
     style="fill:#c3d8e5;fill-opacity:1;fill-rule:nonzero;stroke:none"
     id="rect3802"
     width="2598.8845"
     height="505.96973"
     x="-1.7554135"
     y="400.27176" />
  <path
     sodipodi:type="star"
     style="fill:#ffffff;fill-opacity:1;fill-rule:nonzero;stroke:none"
     id="path3775"
     sodipodi:sides="5"
     sodipodi:cx="1172.2467"
     sodipodi:cy="127.24852"
     sodipodi:r1="218.43527"
     sodipodi:r2="82.969971"
     sodipodi:arg1="0.85843873"
     sodipodi:arg2="1.4436644"
     inkscape:flatsided="false"
     inkscape:rounded="0"
     inkscape:randomized="0"
     d="M 1315.0203,292.56536 1182.7664,209.54889 1059.1405,314.12003 1097.2252,162.6856 959.56961,77.424623 1115.3611,66.84947 1153.9112,-90.41585 1212.111,54.482772 1373.5918,42.548438 1253.7698,142.67586 z"
     inkscape:transform-center-x="20.488657"
     inkscape:transform-center-y="-20.78396"
     transform="matrix(0.69581336,0.06513786,-0.06197819,0.73128616,492.88233,57.418048)" />
  <path
     sodipodi:type="star"
     style="fill:#ffffff;fill-opacity:1;fill-rule:nonzero;stroke:none"
     id="path3775-7"
     sodipodi:sides="5"
     sodipodi:cx="1172.2467"
     sodipodi:cy="127.24852"
     sodipodi:r1="218.43527"
     sodipodi:r2="82.969971"
     sodipodi:arg1="0.85843873"
     sodipodi:arg2="1.4436644"
     inkscape:flatsided="false"
     inkscape:rounded="0"
     inkscape:randomized="0"
     d="M 1315.0203,292.56536 1182.7664,209.54889 1059.1405,314.12003 1097.2252,162.6856 959.56961,77.424623 1115.3611,66.84947 1153.9112,-90.41585 1212.111,54.482772 1373.5918,42.548438 1253.7698,142.67586 z"
     inkscape:transform-center-x="20.488657"
     inkscape:transform-center-y="-20.78396"
     transform="matrix(0.69581336,0.06513786,-0.06197819,0.73128616,-149.24204,957.31013)" />
  <path
     sodipodi:type="star"
     style="fill:#ffffff;fill-opacity:1;fill-rule:nonzero;stroke:none"
     id="path3775-4"
     sodipodi:sides="5"
     sodipodi:cx="1172.2467"
     sodipodi:cy="127.24852"
     sodipodi:r1="218.43527"
     sodipodi:r2="82.969971"
     sodipodi:arg1="0.85843873"
     sodipodi:arg2="1.4436644"
     inkscape:flatsided="false"
     inkscape:rounded="0"
     inkscape:randomized="0"
     d="M 1315.0203,292.56536 1182.7664,209.54889 1059.1405,314.12003 1097.2252,162.6856 959.56961,77.424623 1115.3611,66.84947 1153.9112,-90.41585 1212.111,54.482772 1373.5918,42.548438 1253.7698,142.67586 z"
     inkscape:transform-center-x="20.488657"
     inkscape:transform-center-y="-20.78396"
     transform="matrix(0.69581336,0.06513786,-0.06197819,0.73128616,1143.2351,959.81493)" />
  <rect
     style="fill:#000000;fill-opacity:1;fill-rule:nonzero;stroke:none"
     id="rect3804"
     width="2599.0693"
     height="172.8313"
     x="-1.5911644"
     y="568.09338" />
  <rect
     style="fill:#ffffff;fill-opacity:1;fill-rule:nonzero;stroke:none"
     id="rect3806"
     width="500.04651"
     height="378.06064"
     x="-1.5911644"
     y="-0.33206391" />
  <path
     style="fill:#027633;fill-opacity:1"
     d="m 358.0453,49.734455 c -0.825,0 -1.5,0.51689 -1.5,1.125 0,0.6081 -1.125,2.42841 -2.5,4.0625 -3.5979,4.27582 -3.2859,6.57097 1,7.375 2.5568,0.47966 3.5,1.19109 3.5,2.59375 0,2.52061 -2.61,3.42819 -6.0626,2.125 -4.551,-1.71784 -6.6909,2.1386 -3.2812,5.90625 1.2437,1.37431 3.1074,1.8125 7.5,1.8125 5.777,0 5.8438,0.0535 5.8438,2.90625 0,3.10926 -0.9961,3.55061 -10.8126,4.78125 -2.4129,0.30249 -4.5685,1.16998 -4.875,1.96875 -0.7016,1.82828 2.4449,5.34375 4.7813,5.34375 0.9823,0 2.0664,0.45 2.4063,1 0.3398,0.55 3.1955,1 6.3437,1 5.6096,0 5.7371,0.057 5.625,2.750004 -0.1011,2.42943 -0.6788,2.91589 -5,4 -3.1848,0.79899 -5.2388,0.88622 -5.875,0.25 -1.7773,-1.7773 -4.5937,-1.10846 -4.5937,1.09375 0,4.359371 6.0639,7.257481 13.1874,6.312501 l 4.9688,-0.6875 -0.3125,3.40625 -0.3437,3.375 -6.9063,0 c -7.8573,0 -9.1722,1.21811 -5.5313,5.09375 1.372,1.46013 3.4261,2.40625 5.125,2.40625 1.5542,0 2.8126,0.4565 2.8126,1 0,0.5435 1.7852,1.28085 3.9374,1.625 2.718,0.43464 4.0526,1.20995 4.4063,2.5625 0.2801,1.07099 -0.011,2.117 -0.6563,2.3125 -3.5397,1.07321 -10.0459,1.43187 -11.0312,0.625 -0.626,-0.51266 -2.2812,-1.09008 -3.6562,-1.28125 -1.9583,-0.27226 -2.5632,0.15211 -2.8126,1.90625 -0.4945,3.48171 4.3856,7.17995 9.5,7.21875 6.0322,0.0457 7.3126,0.8173 7.3126,4.28125 0,3.0186 0,3.0227 -4.75,2.4375 -2.6126,-0.32203 -5.9876,-0.88794 -7.5,-1.25 -2.5179,-0.60273 -2.7478,-0.40587 -2.7188,2.21875 0.043,3.86958 2.1481,6.34375 5.3438,6.34375 1.4519,0 2.625,0.3953 2.625,0.875 0,0.47971 1.7416,1.16385 3.8437,1.5 2.725,0.43573 4.2025,1.34692 5.1875,3.1875 1.099,2.05348 1.1245,2.72603 0.125,3.34375 -0.6911,0.42713 -1.104,1.38307 -0.9375,2.125 0.1665,0.74193 -0.5063,1.53951 -1.4687,1.75 -0.9625,0.2105 -1.75,-0.19047 -1.75,-0.875 0,-2.10873 -3.1865,-4.90625 -5.5938,-4.90625 -1.2573,0 -2.5664,-0.45 -2.9062,-1 -0.3399,-0.55 -1.495,-1 -2.5626,-1 -3.0169,0 -2.6033,5.66427 0.625,8.65625 1.4035,1.30057 2.7728,2.34375 3.0313,2.34375 0.2584,0 2.2493,1.20816 4.4375,2.65625 3.2861,2.17463 3.9688,3.18229 3.9688,5.875 0,2.0901 -0.5807,3.47425 -1.625,3.875 -2.1243,0.81516 -8.2372,-1.28255 -11.125,-3.8125 l -2.2813,-1.96875 -2.125,2.125 c -2.0385,2.0385 -2.0732,2.24738 -0.5,5.5625 1.7258,3.63702 3.8444,4.665 9.7187,4.6875 5.4126,0.0208 7.2465,1.83367 6.4063,6.3125 -0.5472,2.91676 -1.1372,3.6875 -2.8437,3.6875 -1.1915,0 -3.0998,-0.66317 -4.25,-1.46875 -1.1501,-0.8056 -2.3693,-1.19329 -2.6876,-0.875 -0.3182,0.31828 -1.7718,-0.36854 -3.25,-1.53125 -3.1929,-2.51148 -4.751,-2.66346 -6.4687,-0.59375 -1.0028,1.20781 -1.0085,2.01364 -0.062,3.78125 1.4521,2.71342 9.9631,8.6875 12.375,8.6875 1.3899,0 1.7188,0.90794 1.7188,4.625 0,4.58046 -0.01,4.64256 -2.9063,4.0625 -1.6107,-0.32213 -5.0982,-2.63771 -7.75,-5.125 -2.6518,-2.4873 -5.5188,-4.52625 -6.3437,-4.53125 -2.1712,-0.0132 -3.861,4.14231 -2.6563,6.53125 0.5368,1.06457 1.3028,2.6125 1.6875,3.4375 0.3847,0.825 1.4878,1.68225 2.4688,1.875 0.9809,0.19274 2.7768,1.43024 4,2.75 1.2231,1.31975 2.7505,2.375 3.375,2.375 1.5461,0 1.3886,2.1179 -0.3438,4.40625 -1.2858,1.69827 -1.7594,1.75983 -4.7188,0.5625 -1.8091,-0.73192 -3.5375,-1.60002 -3.8124,-1.90625 -0.9823,-1.0937 -4.9962,-3.0625 -6.25,-3.0625 -0.7021,0 -1.7166,1.0125 -2.2813,2.25 -1.2532,2.74648 0.8356,6.75 3.5313,6.75 0.9693,0 2.2975,0.63521 2.9374,1.40625 0.6399,0.77103 2.2866,1.71088 3.6876,2.0625 2.0972,0.52638 2.3405,0.89265 1.3437,2.09375 -0.6659,0.80234 -0.8274,1.4375 -0.375,1.4375 0.4523,0 0.326,0.51775 -0.2813,1.125 -1.6997,1.69974 -8.5953,0.0927 -11.5937,-2.6875 -3.124,-2.89674 -4.5215,-3.04679 -6.3125,-0.6875 -3.1686,4.17419 0.079,10.14283 5.5938,10.25 4.249,0.0826 5.5964,1.47377 4.4374,4.6875 -0.9211,2.55415 -1.4197,2.8168 -5.4374,2.625 -3.0725,-0.14668 -5.7521,-1.13681 -8.75,-3.25 -2.3714,-1.67149 -4.8636,-3.0625 -5.5626,-3.0625 -1.7467,0 -3.6874,2.0842 -3.6874,3.96875 0,2.28997 4.7653,7.03125 7.0624,7.03125 1.1427,0 2.468,1.05801 3.125,2.5 0.6266,1.375 1.7321,2.5 2.4688,2.5 2.1506,0 1.588,1.49461 -1.75,4.46875 -3.5958,3.2039 -5.3456,2.79929 -11.8438,-2.65625 -4.9218,-4.1321 -7.4319,-4.27168 -8.8437,-0.53125 -1.0322,2.73448 -0.7861,3.20365 4.3437,8.5 2.9939,3.09093 5.4376,5.71885 5.4376,5.84375 0,0.52009 -6.3945,3.375 -7.5626,3.375 -0.6983,0 -2.539,-1.01344 -4.0937,-2.28125 -1.5547,-1.2678 -4.7651,-2.93487 -7.125,-3.6875 -3.8064,-1.21393 -4.4875,-1.16878 -5.9375,0.28125 -1.5127,1.51274 -1.2272,2.00407 3.5625,6.71875 2.8464,2.80188 5.1563,5.6242 5.1563,6.28125 -10e-5,2.31305 -7.2448,6.93997 -23.7813,15.15625 -9.1886,4.56543 -17.7683,8.63412 -19.0625,9.03125 -1.2942,0.39713 -3.9299,1.80506 -5.875,3.125 -4.6224,3.13685 -14.0522,3.34314 -19.2812,0.4375 -1.9251,-1.06965 -5.075,-2.68143 -7,-3.5625 -24.8752,-11.38531 -42,-21.26275 -42,-24.25 0,-0.743 2.2515,-3.52109 5,-6.15625 4.8869,-4.6855 4.9543,-4.81923 3.0624,-6.53125 -1.6907,-1.5302 -2.4174,-1.58657 -5.75,-0.5 -2.0969,0.68371 -5.0703,2.29842 -6.625,3.59375 -1.5546,1.29532 -3.8046,2.34675 -5,2.34375 -2.5279,-0.006 -9.0691,-4.91195 -6.625,-4.96875 1.9408,-0.0451 8.5299,-6.80151 9.375,-9.625 1.7269,-5.76877 -3.3451,-7.18299 -8.75,-2.4375 -1.8571,1.63049 -4.6547,3.4679 -6.2187,4.0625 -2.5292,0.96161 -3.1613,0.74495 -5.7187,-1.8125 l -2.875,-2.875 2.9374,-3.09375 c 1.5996,-1.71222 3.96,-3.38669 5.2813,-3.71875 2.461,-0.6185 4.9063,-4.48215 4.9063,-7.75 0,-2.32811 -2.7686,-3.42629 -4.875,-1.9375 -3.605,2.54775 -11.9604,6.15625 -14.2188,6.15625 -1.7254,0 -2.7809,-0.87303 -3.75,-3.0625 -1.6143,-3.64682 -1.486,-3.83618 3.375,-4.625 6.1184,-0.99289 8.9302,-5.36312 6.875,-10.71875 -0.9089,-2.36854 -4.3673,-1.90331 -7,0.9375 -1.5222,1.64248 -3.8476,2.73145 -6.7188,3.125 -4.1365,0.56699 -4.4397,0.44067 -4.9062,-2 -0.5675,-2.96856 -0.1435,-3.65625 2.2812,-3.65625 0.9496,0 2.0032,-0.70635 2.3438,-1.59375 0.3969,-1.03438 1.361,-1.43249 2.6562,-1.09375 2.6677,0.69762 4.9769,-2.88386 4.25,-6.5625 -0.7134,-3.61043 -2.9812,-3.54716 -8.9687,0.25 -5.7857,3.66918 -7.9244,3.78954 -8.75,0.5 -0.4977,-1.98303 0.061,-3.10821 2.6563,-5.46875 1.7977,-1.63519 3.8669,-2.9839 4.5937,-3 2.0068,-0.0445 4.0111,-2.49617 4.25,-5.15625 0.4816,-5.36351 -0.034,-6.87155 -2.3437,-6.84375 -2.3393,0.0281 -9.75,6.18016 -9.75,8.09375 0,0.60141 -0.6614,0.84108 -1.4688,0.53125 -0.8074,-0.30982 -1.7374,-0.11973 -2.0625,0.40625 -0.3251,0.52598 -1.2388,0.9375 -2.0313,0.9375 -1.0358,0 -1.4374,-1.21797 -1.4374,-4.375 0,-3.9578 0.2716,-4.47527 2.75,-5.09375 2.6905,-0.67144 9.0419,-4.87918 10.5,-6.96875 1.2957,-1.85707 0.8014,-5.59941 -0.8126,-6.21875 -0.8599,-0.33005 -2.5474,-0.0568 -3.75,0.59375 -1.2024,0.6506 -3.7624,2.01721 -5.6874,3.0625 -5.7963,3.14736 -7.6896,2.67161 -8.5,-2.125 -0.8468,-5.01158 0.103,-5.82235 6.8124,-5.84375 4.1289,-0.0131 5.2214,-0.48141 7.75,-3.25 3.4037,-3.72663 3.5326,-4.44988 1.2813,-6.9375 -2.0261,-2.23884 -3.6724,-2.33275 -5.375,-0.28125 -1.8514,2.23083 -7.9623,4.59264 -10.125,3.90625 -1.3033,-0.41365 -1.8437,-1.56254 -1.8437,-3.9375 0,-2.78497 0.6469,-3.75777 3.7187,-5.65625 6.9199,-4.27672 10.2813,-7.8699 10.2813,-10.96875 0,-2.20039 -0.463,-2.90625 -1.9376,-2.90625 -1.0675,0 -2.2242,0.49583 -2.5937,1.09375 -0.3696,0.59788 -1.5413,0.86899 -2.5937,0.59375 -1.3316,-0.3482 -2.7614,0.53133 -4.6563,2.90625 -3.2885,4.12141 -3.947,4.22796 -5.2813,0.71875 -1.693,-4.45285 -0.4647,-6.98194 3.8126,-7.78125 2.0676,-0.38639 4.3154,-1.15305 5,-1.71875 0.6845,-0.56572 2.1409,-0.81308 3.2187,-0.53125 2.3899,0.62499 5.0313,-2.97544 5.0313,-6.84375 0,-2.46211 -0.229,-2.60555 -3.25,-1.96875 -1.7876,0.37678 -5.3875,0.93003 -8,1.21875 -4.5671,0.50473 -4.75,0.43138 -4.75,-2.03125 0,-3.1078 2.4954,-4.6445 7.6874,-4.6875 4.3758,-0.0362 9.3126,-3.6638 9.3126,-6.84375 0,-2.42902 -2.9201,-3.23116 -5.0938,-1.40625 -1.163,0.97647 -3.1658,1.16752 -7.25,0.6875 -5.0777,-0.59678 -5.6562,-0.9056 -5.6562,-3.03125 0,-1.91608 0.5284,-2.375 2.7812,-2.375 1.5276,0 3.7737,-0.70363 5,-1.5625 1.2262,-0.85891 3.0881,-1.42141 4.125,-1.25 2.4948,0.41246 6.0938,-2.92397 6.0938,-5.65625 0,-2.02572 -0.4619,-2.16775 -6.75,-2.09375 l -6.75,0.0625 -0.3126,-3.375 -0.3124,-3.375 5.3437,0.6875 c 4.6139,0.57646 5.8287,0.34978 8.8125,-1.65625 3.9216,-2.6366 5.3003,-6.781251 2.25,-6.781251 -1.0282,0 -2.29,0.43109 -2.8125,0.9375 -0.5793,0.56144 -3.0175,0.51724 -6.2187,-0.125 -4.868,-0.97659 -5.25,-1.27872 -5.25,-3.9375 0,-2.809894 0.1283,-2.875004 5.5312,-2.875004 10.8961,0 18.9057,-8.09055 9.2188,-9.3125 -9.7503,-1.22991 -10.75,-1.67685 -10.75,-4.78125 0,-2.8366 0.1186,-2.90625 5.5937,-2.90625 3.4953,0 6.1038,-0.51004 7,-1.40625 3.3396,-3.33953 0.1084,-8.64788 -3.7813,-6.21875 -2.1458,1.3401 -5.1096,-0.10039 -5.625,-2.71875 -0.2272,-1.15449 0.3886,-1.65625 2.0626,-1.65625 1.3102,0 3.1766,-0.56491 4.1562,-1.28125 1.6967,-1.24062 1.6917,-1.46607 -0.3125,-4.75 -1.1572,-1.89616 -2.3873,-4.25625 -2.7187,-5.21875 -0.9048,-2.62669 -3.5912,-2.07673 -6.2188,1.25 -1.4395,1.82243 -3.6505,3.19401 -5.7812,3.59375 -2.8069,0.52658 -3.4024,1.05626 -3.1563,2.78125 0.189,1.32552 1.1301,2.26977 2.5313,2.46875 3.4459,0.48942 2.6729,2.1805 -1,2.1875 -1.7875,0.003 -4.524,0.65005 -6.0938,1.46875 -1.5697,0.81869 -3.2572,1.24204 -3.75,0.9375 -0.4927,-0.30454 -0.9062,-0.0944 -0.9062,0.46875 0,1.27948 3.4207,3.26202 8,4.625 2.9798,0.88695 3.5,1.47315 3.5,4 0,2.60675 -0.3816,3.00965 -3.1876,3.28125 -1.768,0.17114 -4.3052,-0.40689 -5.6874,-1.3125 -3.0726,-2.01323 -6.981803,-1.60903 -7.437603,0.78125 -0.3675,1.92797 3.390203,5.62915 5.812603,5.71875 3.0721,0.11368 6.1725,3.55123 6.3437,7.0625 0.1568,3.21585 -0.034,3.423664 -2.8437,3.28125 -5.7736,-0.29261 -11.484003,-1.60659 -12.562603,-2.90625 -1.2694,-1.52949 -3.9374,-0.81205 -3.9374,1.0625 0,1.81287 4.7331,6.657184 9.750003,9.968755 4.099,2.70572 4.9605,4.56974 3.6562,7.96875 -0.6408,1.66992 -4.4062,2.22971 -4.4062,0.65625 0,-0.5063 -1.325103,-1.23274 -2.968803,-1.59375 -1.6437,-0.36102 -3.2488,-1.05481 -3.5625,-1.5625 -0.3138,-0.50768 -1.2388,-0.9375 -2.0313,-0.9375 -2.4076,0 -1.679,4.61966 1,6.375 1.3333,0.8736 2.6833,2.3666 3,3.34375 0.3168,0.97715 2.5875,2.69548 5.062603,3.78125 4.0498,1.77679 4.5,2.28495 4.5,5.3125 l 0,3.375 -4.25,-0.6875 c -2.337503,-0.38322 -4.927003,-1.31006 -5.781303,-2.0625 -0.8542,-0.75243 -2.6265,-1.50606 -3.9063,-1.65625 -2.0072,-0.23556 -2.3338,0.1767 -2.4374,3.0625 -0.1148,3.19312 0.6809,4.49524 2.875,4.6875 0.55,0.0482 3.3751,1.1899 6.25,2.53125 4.314903,2.0132 5.333603,3.01394 5.843703,5.625 1.3714,7.02016 -1.8651,9.34153 -6.625003,4.78125 -1.4567,-1.39565 -4.2666,-2.80313 -6.25,-3.125 -3.3205,-0.53884 -3.661,-0.34564 -4.3125,2.25 -0.6177,2.46102 -0.1794,3.30431 3.5625,6.625 2.3575,2.09206 5.3255,3.78125 6.5625,3.78125 1.2369,0 2.7841,0.675 3.468803,1.5 0.6846,0.825 2.0924,1.5 3.125,1.5 2.8641,0 2.6164,5.58599 -0.2813,6.34375 -2.322,0.60724 -8.166903,-1.41577 -9.281303,-3.21875 -0.8378,-1.35574 -4.2221,-1.46534 -5.0312,-0.15625 -0.3261,0.52763 -0.06,1.99013 0.5938,3.25 0.6541,1.25988 1.4842,2.93737 1.8437,3.71875 0.3594,0.78137 3.9594,2.35361 8,3.5 5.366603,1.52264 7.431303,2.55509 7.625003,3.875 0.1459,0.99376 -0.375,2.07518 -1.1563,2.375 -0.7813,0.29983 -1.4374,1.17134 -1.4374,1.9375 0,1.52607 -2.5445,1.89447 -3.4063,0.5 -0.6436,-1.04139 -10.092203,-2.06184 -12.718703,-1.375 -4.9093,1.28379 1.8753,7.25 8.25,7.25 1.3598,0 3.0409,0.5722 3.718703,1.25 0.6777,0.67779 3.1177,1.69029 5.4375,2.25 4.0859,0.98586 4.2271,1.16155 4.5312,5.40625 0.258,3.59935 0.04,4.26416 -1.2187,3.78125 -0.8425,-0.32331 -1.818,-0.0978 -2.1875,0.5 -0.4424,0.71576 -3.0136,0.85737 -7.531203,0.4375 -6.3358,-0.58885 -6.875,-0.47402 -6.875,1.3125 0,1.06392 1.2375,2.8953 2.75,4.09375 2.3707,1.87846 3.5534,2.11203 8.593703,1.59375 9.4677,-0.97354 12.8741,0.96253 11.1563,6.375 -0.5199,1.63778 -1.4977,2 -5.4688,2 -2.9795,0 -5.0126,0.48196 -5.2812,1.25 -0.3205,0.91622 -0.99,0.78271 -2.4376,-0.5 -1.0861,-0.9625 -2.480803,-1.75 -3.125003,-1.75 -0.6441,0 -1.1662,0.7875 -1.1562,1.75 0.024,3.06262 1.1907,6.25 2.2812,6.25 0.580003,0 1.818603,0.72253 2.781303,1.59375 1.5778,1.42793 2.0935,1.43391 5.0937,0.0625 5.0947,-2.32883 11.8295,-2.54121 13.1876,-0.40625 1.5154,2.38247 -0.332,5.2268 -3.4688,5.3125 -1.3117,0.0358 -3.3924,0.59833 -4.5938,1.25 -1.2012,0.65166 -3.3388,1.1875 -4.75,1.1875 -3.341,0 -3.2288,1.36275 0.4688,6.03125 2.917,3.68304 3.1246,3.77587 5.75,2.40625 1.498,-0.7815 3.4762,-1.40325 4.4062,-1.40625 0.9301,-0.003 1.9727,-0.48125 2.3126,-1.03125 0.9984,-1.61543 6.2321,-1.16285 6.9062,0.59375 1.1781,3.06994 0.5742,4.34679 -2.8438,5.96875 -1.8996,0.90147 -3.9822,2.25692 -4.625,3.03125 -0.6426,0.77434 -2.0299,1.40625 -3.0624,1.40625 -1.211,0 -1.875,0.71014 -1.875,2 0,1.1 0.4499,2 1,2 0.55,0 1,0.675 1,1.5 0,2.17272 6.1751,1.94143 9.125,-0.34375 3.7583,-2.91157 7.8004,-3.52189 10,-1.53125 2.2922,2.07438 2.4603,4.375 0.3124,4.375 -0.8672,0 -2.8401,1.2375 -4.375,2.75 -1.5348,1.5125 -4.4084,3.60714 -6.4062,4.65625 -3.892,2.0438 -4.7927,4.89802 -1.9062,6.125 2.8248,1.20078 5.5528,0.94955 8.9687,-0.84375 1.7602,-0.92408 3.9388,-1.6875 4.8437,-1.6875 0.905,0 2.868,-0.70349 4.375,-1.59375 2.642,-1.56064 2.8555,-1.55076 5.4688,1.0625 3.2024,3.20244 3.1463,3.27259 -6.0312,10.71875 -8.0125,6.50088 -8.3973,8.8125 -1.4688,8.8125 4.2862,0 12.2146,-2.86604 14.0938,-5.09375 0.2749,-0.32602 1.9185,-0.84971 3.6562,-1.1875 2.2704,-0.44132 3.317,-0.20315 3.7188,0.84375 0.3073,0.8013 1.2514,1.4375 2.0937,1.4375 2.2829,0 1.8742,1.32577 -1.4063,4.46875 -1.9632,1.88091 -3.6183,2.63441 -4.9687,2.28125 -1.2847,-0.33595 -2.8628,0.29616 -4.3125,1.71875 -1.2561,1.23265 -3.5188,3.02576 -5.0312,4 -1.5125,0.97424 -2.75,2.39451 -2.75,3.15625 0,1.91731 8.9731,1.83176 13.6562,-0.125 1.9745,-0.825 4.3043,-1.5 5.1562,-1.5 0.852,0 2.3493,-0.725 3.3438,-1.625 2.9894,-2.70537 9.1283,-2.09652 13.5312,1.34375 2.0989,1.63996 11.6876,6.91927 21.3126,11.71875 9.625,4.79947 18.3456,9.52617 19.375,10.53125 2.5412,2.48163 1.2799,4.03125 -3.2813,4.03125 -2.0846,0 -7.1959,0.30298 -11.375,0.65625 -7.7174,0.65235 -9.2989,1.63419 -8.0313,4.9375 0.5322,1.38678 2.499,1.47501 16.7188,0.75 20.3211,-1.03611 30.8765,-1.04502 51.7188,0 14.2966,0.71682 16.6967,0.62242 17.1874,-0.65625 1.2984,-3.38313 -1.5165,-4.55347 -12.8124,-5.375 -9.9855,-0.72622 -11,-0.97114 -11,-2.75 0,-1.53917 3.9519,-3.96615 18.4062,-11.25 10.1213,-5.10035 19.1718,-9.94687 20.0938,-10.78125 0.9219,-0.83438 2.0366,-1.53125 2.5,-1.53125 0.4633,0 1.6723,-0.70361 2.6562,-1.59375 2.1455,-1.94162 9.3203,-2.07961 11.5625,-0.21875 2.5117,2.08454 12.3912,4.7966 17.5313,4.8125 5.8486,0.0181 6.3179,-1.86788 1.25,-5 -1.9251,-1.18972 -3.5,-2.56386 -3.5,-3.0625 0,-0.49864 -1.7483,-1.18617 -3.9063,-1.53125 -2.4327,-0.389 -4.9636,-1.702 -6.6563,-3.46875 l -2.7187,-2.84375 2.375,-2 c 2.7195,-2.23291 5.8266,-1.89642 10.0625,1.0625 1.4599,1.01979 3.3424,1.84375 4.1875,1.84375 0.8451,0 1.8164,0.45 2.1563,1 0.34,0.55 2.8449,1 5.5624,1 4.4646,0 4.9595,-0.21701 4.9376,-2.25 -0.017,-1.55023 -2.1936,-4.04455 -7,-8.03125 -3.837,-3.18245 -7,-6.12832 -7,-6.5625 0,-0.43418 1.1642,-1.87387 2.5624,-3.1875 2.1185,-1.99012 2.8617,-2.20289 4.4376,-1.21875 1.0401,0.64961 4.6828,2.15294 8.125,3.3125 7.1545,2.41022 12.875,2.01981 12.875,-0.875 0,-1.71792 -4.6707,-5.1875 -7,-5.1875 -0.6611,0 -2.0691,-1.09501 -3.125,-2.4375 -1.0561,-1.34249 -2.7894,-2.71793 -3.875,-3.0625 -2.5019,-0.7939 -2.5358,-2.69918 -0.063,-4.9375 2.1773,-1.97029 5.0824,-1.44125 8.9688,1.59375 3.1142,2.43203 7.5853,2.35224 10.0938,-0.15625 2.5646,-2.56699 2.5658,-5 0,-5 -1.982,0 -12.0298,-6.58498 -11.9688,-7.84375 0.154,-3.17749 6.9015,-5.69218 8.4688,-3.15625 0.3398,0.55 1.3824,1.02825 2.3124,1.03125 0.9301,0.003 2.9274,0.64967 4.4376,1.4375 2.6297,1.37184 2.8518,1.2691 5.25,-1.875 3.4061,-4.46553 3.2097,-6.25282 -0.75,-6.9375 -11.079,-1.91565 -11.6898,-2.25076 -11.7188,-6.34375 -0.018,-2.55233 1.4348,-3.75878 3.2188,-2.65625 0.6872,0.42467 2.5218,0.66159 4.0624,0.5 1.5406,-0.1616 3.3402,0.10648 4,0.625 2.4189,1.90092 6.4737,2.30328 7.0938,0.6875 0.3249,-0.84688 1.355,-1.4133 2.3125,-1.25 0.9575,0.1633 1.7693,-0.23333 1.7813,-0.875 0.012,-0.64166 0.3374,-1.49375 0.75,-1.90625 0.4125,-0.4125 0.75,-1.81041 0.75,-3.09375 0,-2.8411 -3.3731,-3.25562 -4.875,-0.59375 -0.7909,1.40166 -1.239,1.50119 -2.25,0.5 -0.6943,-0.6875 -3.1627,-1.25 -5.4688,-1.25 -2.901,0 -4.3614,-0.46812 -4.7812,-1.5625 -0.9878,-2.57386 -0.7124,-4.19384 1.0312,-5.9375 1.3565,-1.35651 2.8837,-1.51736 8.75,-0.96875 6.3844,0.59706 7.3868,0.45244 9.9062,-1.53125 2.9878,-2.35251 3.4973,-6.83317 0.6876,-6.09375 -3.8322,1.00845 -11.7534,1.18233 -14,0.3125 -1.9943,-0.77212 -2.4813,-1.64391 -2.4063,-4.25 0.1082,-3.76128 2.5283,-5.96875 6.5,-5.96875 1.4775,0 3.2578,-0.70586 3.9687,-1.5625 0.7111,-0.85663 2.4562,-1.43792 3.875,-1.3125 2.6236,0.23192 10.0626,-3.60822 10.0626,-5.1875 0,-2.78143 -9.5227,-3.22663 -14.75,-0.6875 -1.8794,0.9129 -2.5986,0.74142 -4.25,-1.03125 -3.7389,-4.01313 -2.691,-5.64642 4.9374,-7.625 7.6338,-1.97997 9.7309,-3.62327 10.6876,-8.40625 0.5268,-2.63369 0.3294,-3.1875 -1.1563,-3.1875 -0.9879,0 -2.57,0.68959 -3.5,1.53125 -4.5185,4.08926 -11.9687,3.46614 -11.9687,-1 0,-1.99959 0.4975,-2.53125 2.375,-2.53125 1.3076,0 2.9403,-0.675 3.625,-1.5 0.6847,-0.825 1.8911,-1.5 2.6562,-1.5 3.2733,0 11.3438,-6.42659 11.3438,-9.03125 0,-4.60828 -7.8829,-4.85728 -12.0938,-0.375 -2.6751,2.84751 -4.4162,3.05899 -5.4375,0.65625 -2.3278,-5.47592 -0.6626,-8.06517 7.7813,-12.09375 6.454,-3.07927 6.75,-3.36807 6.75,-6.75 0,-3.20449 -0.2116,-3.46496 -2.25,-2.84375 -1.2376,0.37712 -2.9251,1.25769 -3.75,1.96875 -0.825,0.71107 -3.6375,1.61367 -6.25,2 l -4.75,0.71875 0,-3.625 c 0,-2.94687 0.3689,-3.625 2,-3.625 1.1,0 2,-0.39996 2,-0.90625 0,-0.5063 1.3436,-1.20558 2.9687,-1.5625 1.676,-0.36811 3.2102,-1.51484 3.5625,-2.625 0.3417,-1.07643 1.7293,-2.65765 3.0625,-3.53125 1.444,-0.94611 2.4063,-2.54814 2.4063,-3.96875 0,-2.78187 -0.7277,-2.93889 -4.625,-0.90625 -1.5755,0.82161 -3.6626,1.497 -4.625,1.5 -0.9625,0.003 -1.75,0.45 -1.75,1 0,1.93815 -2.6828,0.9654 -3.9688,-1.4375 -1.5025,-2.80742 -0.7873,-5.5625 1.4375,-5.5625 0.8423,0 1.5313,-0.45 1.5313,-1 0,-0.55 0.6162,-1 1.375,-1 1.885,0 9.625,-7.638905 9.625,-9.500005 0,-1.67774 -2.1198,-1.92956 -4.75,-0.59375 -2.205,1.11988 -10.6549,3.093754 -13.1876,3.093754 -1.0596,0 -2.2367,-0.4536 -2.5937,-1.031254 -1.1607,-1.87803 2.4383,-7.66824 5.7813,-9.3125 1.7925,-0.88171 4.3708,-2.47475 5.7187,-3.53125 2.0914,-1.63927 2.2541,-2.17071 1.125,-3.53125 -1.6512,-1.98948 -4.1308,-2.03513 -6.6563,-0.125 -1.0676,0.80751 -3.625,1.4825 -5.6874,1.5 -3.6461,0.0309 -3.75,-0.0554 -3.75,-3.5625 0,-2.46654 0.3951,-3.47373 1.25,-3.15625 1.6014,0.59482 9.0302,-3.56709 9.5937,-5.375 0.2354,-0.75535 0.093,-1.03273 -0.3437,-0.625 -0.4373,0.40772 -1.3514,0.28299 -2.0313,-0.28125 -0.6799,-0.56424 -3.5355,-1.29241 -6.3437,-1.625 -5.2138,-0.61749 -7.147,-2.34375 -2.625,-2.34375 1.9876,0 2.5,-0.48583 2.5,-2.4375 0,-2.03024 -0.6235,-2.59315 -3.625,-3.15625 -2.3339,-0.43782 -3.8114,-1.33221 -4.125,-2.53125 -0.2682,-1.02547 -1.083,-1.875 -1.8438,-1.875 -0.7609,0 -1.4062,-0.45 -1.4062,-1 0,-0.55 -0.6751,-1 -1.5,-1 z"
     id="path3936-2"
     inkscape:connector-curvature="0" />
  <path
     style="fill:#fffd00;fill-opacity:1;stroke:#027633;stroke-width:3.9000001;stroke-miterlimit:4;stroke-opacity:1;stroke-dasharray:none"
     inkscape:connector-curvature="0"
     d="m 187.9921,179.75453 c 0,0 -19.6623,10.36062 -19.6623,23.02755 41.0257,27.95306 76.6051,32.51475 104.8031,25.99338 46.04106,-10.64795 69.16957,-57.47843 59.1229,-104.91159 -7.6411,-33.346173 -30.47291,-61.178156 -59.96544,-71.488418 -24.62153,-8.190911 -47.41257,-5.897624 -65.50451,2.828037 -25.61471,12.353862 -41.80999,37.601505 -40.44465,64.243831 -0.4895,60.80468 51.2507,82.51482 69.4541,87.32871 4.8048,1.27062 39.8049,2.93263 55.5836,-17.54093 3.4123,-4.42769 6.7524,-9.0525 8.9412,-14.14016 1.2086,-2.80937 2.0662,-5.75986 2.391,-8.89623 -4.2539,9.54629 -10.0889,22.65963 -43.6417,23.10483 -20.4441,0.27127 -42.0003,-13.69671 -55.989,-29.78079 -15.2993,-23.8155 -13.8004,-43.23509 -5.7578,-63.223051 8.6945,-14.192544 23.3511,-25.854134 44.0945,-25.854134 35.9853,0 57.3307,29.136354 62.2705,57.708575 8.1313,47.03173 -15.0354,73.67968 -44.6586,79.10413 -8.9574,1.64023 -18.5051,1.33996 -27.9564,-0.92403 -4.6298,-1.10904 -8.4954,-3.50791 -12.3172,-5.41155 -11.0849,-5.52148 -20.1803,-12.06069 -30.7633,-21.16816 z"
     id="path3863-0-4"
     sodipodi:nodetypes="ccsccscssscsccsssssc" />
</svg>
