<?xml version="1.0" encoding="UTF-8" standalone="no"?>
<svg
   xmlns:dc="http://purl.org/dc/elements/1.1/"
   xmlns:cc="http://creativecommons.org/ns#"
   xmlns:rdf="http://www.w3.org/1999/02/22-rdf-syntax-ns#"
   xmlns:svg="http://www.w3.org/2000/svg"
   xmlns="http://www.w3.org/2000/svg"
   xmlns:xlink="http://www.w3.org/1999/xlink"
   xmlns:sodipodi="http://sodipodi.sourceforge.net/DTD/sodipodi-0.dtd"
   xmlns:inkscape="http://www.inkscape.org/namespaces/inkscape"
   width="600"
   height="450"
   id="svg2"
   version="1.1"
   inkscape:version="0.48.4 r9939"
   sodipodi:docname="Flag of Shefa Province.svg">
  <metadata
     id="metadata37">
    <rdf:RDF>
      <cc:Work
         rdf:about="">
        <dc:format>image/svg+xml</dc:format>
        <dc:type
           rdf:resource="http://purl.org/dc/dcmitype/StillImage" />
        <dc:title>Flag of New Caledonia</dc:title>
      </cc:Work>
    </rdf:RDF>
  </metadata>
  <defs
     id="defs35" />
  <sodipodi:namedview
     pagecolor="#ffffff"
     bordercolor="#666666"
     borderopacity="1"
     objecttolerance="10"
     gridtolerance="10"
     guidetolerance="10"
     inkscape:pageopacity="0"
     inkscape:pageshadow="2"
     inkscape:window-width="1366"
     inkscape:window-height="705"
     id="namedview33"
     showgrid="false"
     inkscape:zoom="2.2111586"
     inkscape:cx="148.4009"
     inkscape:cy="399.54089"
     inkscape:window-x="-8"
     inkscape:window-y="-8"
     inkscape:window-maximized="1"
     inkscape:current-layer="svg2">
    <sodipodi:guide
       position="0,0"
       orientation="0,600"
       id="guide3869" />
    <sodipodi:guide
       position="600,0"
       orientation="-450,0"
       id="guide3871" />
    <sodipodi:guide
       position="600,450"
       orientation="0,-600"
       id="guide3873" />
    <sodipodi:guide
       position="0,450"
       orientation="450,0"
       id="guide3875" />
  </sodipodi:namedview>
  <title
     id="title4">Flag of New Caledonia</title>
  <rect
     width="900"
     height="450"
     id="rect6"
     style="fill:#009966;fill-opacity:1"
     x="0"
     y="0" />
  <rect
     width="900"
     height="300"
     id="rect8"
     style="fill:#d21034;fill-opacity:1"
     x="0"
     y="0" />
  <rect
     width="900"
     height="150"
     id="rect10"
     style="fill:#517dd4;fill-opacity:1"
     x="0"
     y="0" />
  <circle
     cx="300"
     cy="225"
     r="147.48"
     id="circle12"
     style="fill:#ffce00;fill-opacity:1;stroke:#ffffff;stroke-width:27.20000076;stroke-miterlimit:4;stroke-opacity:1;stroke-dasharray:none"
     sodipodi:cx="300"
     sodipodi:cy="225"
     sodipodi:rx="147.48"
     sodipodi:ry="147.48"
     transform="matrix(0.71656014,0,0,0.71146529,219.04419,66.423085)" />
  <g
     id="g3855"
     transform="matrix(0.17642818,0,0,0.1681286,0.049292,0.20713049)">
    <rect
       id="rect3826"
       height="285"
       width="950"
       x="0"
       y="0"
       style="fill:#d21034" />
    <rect
       id="rect3828"
       height="285"
       width="950"
       y="285"
       x="0"
       style="fill:#009543" />
    <path
       id="path3830"
       d="M 0,0 552.8133,285 0,570 z"
       inkscape:connector-curvature="0"
       style="fill:#000000" />
    <rect
       id="rect3832"
       height="102"
       width="950"
       y="234"
       x="0"
       style="fill:#000000" />
    <path
       id="path3834"
       d="M 0,40.502 474.251,284.9995 0,529.497 z"
       inkscape:connector-curvature="0"
       style="fill:#fdce12" />
    <rect
       id="rect3836"
       height="30"
       width="950"
       y="270"
       x="0"
       style="fill:#fdce12" />
    <path
       id="path3838"
       d="M 0,74.25473 408.78173,285 0,495.745 z"
       inkscape:connector-curvature="0"
       style="fill:#000000" />
    <path
       id="path3840"
       d="m 115.481,339.524 c 0,0 0,20.595 0,32.476 28.253,0 83.7,-21.65 83.7,-91.356 C 199.181,210.938 140.037,198 122.346,198 104.656,198 50,210.674 50,267.706 c 0,57.032 53.6,62.313 64.161,62.313 10.561,0 50.167,-9.506 45.679,-52.28 0,12.146 -13.73,37.758 -42.511,37.758 -28.78,0 -46.734,-21.388 -46.734,-42.51 0,-21.124 17.426,-49.376 47.79,-49.376 30.364,0 52.543,26.931 52.543,54.128 0,27.196 -21.386,61.785 -55.447,61.785 z"
       inkscape:connector-curvature="0"
       style="fill:#fdce12" />
    <g
       id="frond"
       style="fill:#fdce12">
      <path
         id="path3843"
         d="m 90.728,297.245 1.683,1.089 c 0,0 13.367,-30.496 49.309,-52.18 -4.555,2.475 -28.615,14.456 -50.992,51.091 z"
         inkscape:connector-curvature="0"
         style="stroke:#fdce12" />
      <path
         id="path3845"
         d="m 94.193,291.997 c 0,0 -4.158,-8.515 -0.495,-12.277 3.664,-3.763 1.981,10 1.981,10 l 1.584,-2.277 c 0,0 -2.476,-10.397 0.297,-12.575 2.772,-2.178 1.386,10 1.386,10 l 1.683,-2.178 c 0,0 -1.782,-10.099 0.891,-11.981 2.674,-1.881 0.991,9.506 0.991,9.506 l 1.98,-2.278 c 0,0 -1.485,-9.604 1.782,-11.881 3.268,-2.278 0.396,9.109 0.396,9.109 l 2.178,-2.376 c 0,0 -0.99,-8.813 1.783,-10.793 2.772,-1.98 0.396,8.317 0.396,8.317 l 1.98,-2.079 c 0,0 -0.594,-8.218 2.079,-10.099 2.674,-1.882 0.198,7.822 0.198,7.822 l 2.08,-1.981 c 0,0 -0.495,-8.218 2.871,-9.802 3.366,-1.584 -0.594,7.723 -0.594,7.723 l 2.277,-1.98 c 0,0 0.693,-9.604 3.565,-10.496 2.871,-0.891 -1.287,8.516 -1.287,8.516 l 2.079,-1.684 c 0,0 1.089,-8.218 4.257,-9.208 3.169,-0.99 -1.98,7.525 -1.98,7.525 l 2.079,-1.584 c 0,0 2.278,-8.218 5.248,-9.109 2.971,-0.891 -3.069,7.723 -3.069,7.723 l 1.98,-1.386 c 0,0 3.267,-7.427 5.941,-7.922 2.673,-0.495 -2.971,6.139 -2.971,6.139 l 2.476,-1.485 c 0,0 4.257,-7.723 5.743,-5.347 1.485,2.377 -5.941,5.842 -5.941,5.842 l -2.476,1.386 c 0,0 9.011,-4.257 10.1,-2.079 1.089,2.178 -12.377,3.565 -12.377,3.565 l -2.178,1.485 c 0,0 9.01,-2.476 7.921,-0.198 -1.089,2.277 -10,1.782 -10,1.782 l -2.08,1.485 c 0,0 9.01,-2.178 7.822,-0.099 -1.188,2.079 -10,1.881 -10,1.881 l -2.178,1.783 c 0,0 8.812,-2.278 7.525,0.396 -1.288,2.673 -11.288,2.574 -11.288,2.574 l -2.475,2.277 c 0,0 9.307,-3.168 8.515,-0.693 -0.792,2.476 -11.387,3.763 -11.387,3.763 l -2.376,2.376 c 0,0 10,-3.366 7.03,-0.297 -2.97,3.07 -10.198,3.862 -10.198,3.862 l -2.872,3.465 c 0,0 9.902,-5.941 8.515,-2.574 -1.386,3.366 -11.089,5.644 -11.089,5.644 l -1.98,2.376 c 0,0 8.911,-5.149 8.02,-2.277 -0.891,2.871 -10.397,5.94 -10.397,5.94 l -1.584,2.179 c 0,0 10.495,-6.238 9.604,-3.07 -0.891,3.169 -10.891,5.446 -10.891,5.446 l -1.287,1.98 c 0,0 9.703,-5.544 9.802,-2.871 0.099,2.673 -11.387,5.347 -11.387,5.347 l -0.198,-2.278 z"
         inkscape:connector-curvature="0" />
    </g>
    <use
       id="use3847"
       transform="matrix(-1,0,0,1,238.5,0)"
       xlink:href="#frond"
       x="0"
       y="0"
       width="1"
       height="1" />
  </g>
</svg>
