<?xml version="1.0" encoding="UTF-8" standalone="no"?>
<!-- Created with Inkscape (http://www.inkscape.org/) -->

<svg
   xmlns:dc="http://purl.org/dc/elements/1.1/"
   xmlns:cc="http://creativecommons.org/ns#"
   xmlns:rdf="http://www.w3.org/1999/02/22-rdf-syntax-ns#"
   xmlns:svg="http://www.w3.org/2000/svg"
   xmlns="http://www.w3.org/2000/svg"
   xmlns:xlink="http://www.w3.org/1999/xlink"
   xmlns:sodipodi="http://sodipodi.sourceforge.net/DTD/sodipodi-0.dtd"
   xmlns:inkscape="http://www.inkscape.org/namespaces/inkscape"
   id="svg2"
   version="1.1"
   inkscape:version="0.48.4 r9939"
   width="1812"
   height="1312"
   sodipodi:docname="Flag_of_Sanma.png">
  <metadata
     id="metadata8">
    <rdf:RDF>
      <cc:Work
         rdf:about="">
        <dc:format>image/svg+xml</dc:format>
        <dc:type
           rdf:resource="http://purl.org/dc/dcmitype/StillImage" />
        <dc:title></dc:title>
      </cc:Work>
    </rdf:RDF>
  </metadata>
  <defs
     id="defs6" />
  <sodipodi:namedview
     pagecolor="#ffffff"
     bordercolor="#666666"
     borderopacity="1"
     objecttolerance="10"
     gridtolerance="10"
     guidetolerance="10"
     inkscape:pageopacity="0"
     inkscape:pageshadow="2"
     inkscape:window-width="1366"
     inkscape:window-height="705"
     id="namedview4"
     showgrid="false"
     inkscape:zoom="0.056976269"
     inkscape:cx="1254.4195"
     inkscape:cy="655.8122"
     inkscape:window-x="-8"
     inkscape:window-y="-8"
     inkscape:window-maximized="1"
     inkscape:current-layer="svg2">
    <sodipodi:guide
       position="0,0"
       orientation="0,1812"
       id="guide3145" />
    <sodipodi:guide
       position="1812,0"
       orientation="-1312,0"
       id="guide3147" />
    <sodipodi:guide
       position="1812,1312"
       orientation="0,-1812"
       id="guide3149" />
    <sodipodi:guide
       position="0,1312"
       orientation="1312,0"
       id="guide3151" />
  </sodipodi:namedview>
  <rect
     style="fill:#3399cc;fill-opacity:1;fill-rule:nonzero;stroke:none;stroke-width:3.89999999999999990;stroke-linecap:round;stroke-linejoin:miter;stroke-miterlimit:4;stroke-opacity:1;stroke-dasharray:none;stroke-dashoffset:0"
     id="rect3153"
     width="1812"
     height="1312"
     x="0"
     y="0" />
  <path
     sodipodi:type="star"
     style="fill:#ffffff;fill-opacity:1;fill-rule:nonzero;stroke:#ffffff;stroke-width:3.90000010000000020;stroke-linecap:round;stroke-linejoin:miter;stroke-miterlimit:4;stroke-opacity:1;stroke-dasharray:none;stroke-dashoffset:0"
     id="path2987"
     sodipodi:sides="5"
     sodipodi:cx="1066.7657"
     sodipodi:cy="245.23427"
     sodipodi:r1="63.922386"
     sodipodi:r2="24.280138"
     sodipodi:arg1="0.97403738"
     sodipodi:arg2="1.6023559"
     inkscape:flatsided="false"
     inkscape:rounded="0"
     inkscape:randomized="0"
     d="m 1102.6879,298.10839 -36.6883,-28.60607 -38.4196,26.23491 15.8687,-43.73237 -36.8232,-28.43217 46.4957,1.57799 15.6616,-43.80697 12.8672,44.70762 46.5026,1.35798 -38.5433,26.05284 z"
     inkscape:transform-center-x="0.030265128"
     inkscape:transform-center-y="-6.4698382"
     transform="matrix(1.0212956,-0.03519322,0.03377277,1.0642502,-9.8090487,62.340593)" />
  <path
     sodipodi:type="star"
     style="fill:#ffffff;fill-opacity:1;fill-rule:nonzero;stroke:#ffffff;stroke-width:3.90000010000000020;stroke-linecap:round;stroke-linejoin:miter;stroke-miterlimit:4;stroke-opacity:1;stroke-dasharray:none;stroke-dashoffset:0"
     id="path2987-1"
     sodipodi:sides="5"
     sodipodi:cx="1066.7657"
     sodipodi:cy="245.23427"
     sodipodi:r1="63.922386"
     sodipodi:r2="24.280138"
     sodipodi:arg1="0.97403738"
     sodipodi:arg2="1.6023559"
     inkscape:flatsided="false"
     inkscape:rounded="0"
     inkscape:randomized="0"
     d="m 1102.6879,298.10839 -36.6883,-28.60607 -38.4196,26.23491 15.8687,-43.73237 -36.8232,-28.43217 46.4957,1.57799 15.6616,-43.80697 12.8672,44.70762 46.5026,1.35798 -38.5433,26.05284 z"
     inkscape:transform-center-x="0.030265128"
     inkscape:transform-center-y="-6.4698382"
     transform="matrix(1.0212956,-0.03519322,0.03377277,1.0642502,266.09432,62.16042)" />
  <path
     sodipodi:type="star"
     style="fill:#ffffff;fill-opacity:1;fill-rule:nonzero;stroke:#ffffff;stroke-width:3.90000010000000020;stroke-linecap:round;stroke-linejoin:miter;stroke-miterlimit:4;stroke-opacity:1;stroke-dasharray:none;stroke-dashoffset:0"
     id="path2987-1-7"
     sodipodi:sides="5"
     sodipodi:cx="1066.7657"
     sodipodi:cy="245.23427"
     sodipodi:r1="63.922386"
     sodipodi:r2="24.280138"
     sodipodi:arg1="0.97403738"
     sodipodi:arg2="1.6023559"
     inkscape:flatsided="false"
     inkscape:rounded="0"
     inkscape:randomized="0"
     d="m 1102.6879,298.10839 -36.6883,-28.60607 -38.4196,26.23491 15.8687,-43.73237 -36.8232,-28.43217 46.4957,1.57799 15.6616,-43.80697 12.8672,44.70762 46.5026,1.35798 -38.5433,26.05284 z"
     inkscape:transform-center-x="0.030265128"
     inkscape:transform-center-y="-6.4698382"
     transform="matrix(1.0212956,-0.03519322,0.03377277,1.0642502,551.45315,62.160419)" />
  <path
     sodipodi:type="star"
     style="fill:#ffffff;fill-opacity:1;fill-rule:nonzero;stroke:#ffffff;stroke-width:3.90000010000000020;stroke-linecap:round;stroke-linejoin:miter;stroke-miterlimit:4;stroke-opacity:1;stroke-dasharray:none;stroke-dashoffset:0"
     id="path2987-1-4"
     sodipodi:sides="5"
     sodipodi:cx="1066.7657"
     sodipodi:cy="245.23427"
     sodipodi:r1="63.922386"
     sodipodi:r2="24.280138"
     sodipodi:arg1="0.97403738"
     sodipodi:arg2="1.6023559"
     inkscape:flatsided="false"
     inkscape:rounded="0"
     inkscape:randomized="0"
     d="m 1102.6879,298.10839 -36.6883,-28.60607 -38.4196,26.23491 15.8687,-43.73237 -36.8232,-28.43217 46.4957,1.57799 15.6616,-43.80697 12.8672,44.70762 46.5026,1.35798 -38.5433,26.05284 z"
     inkscape:transform-center-x="0.030265128"
     inkscape:transform-center-y="-6.4698382"
     transform="matrix(1.0212956,-0.03519322,0.03377277,1.0642502,568.40515,451.24939)" />
  <path
     sodipodi:type="star"
     style="fill:#ffffff;fill-opacity:1;fill-rule:nonzero;stroke:#ffffff;stroke-width:3.90000010000000020;stroke-linecap:round;stroke-linejoin:miter;stroke-miterlimit:4;stroke-opacity:1;stroke-dasharray:none;stroke-dashoffset:0"
     id="path2987-1-0"
     sodipodi:sides="5"
     sodipodi:cx="1066.7657"
     sodipodi:cy="245.23427"
     sodipodi:r1="63.922386"
     sodipodi:r2="24.280138"
     sodipodi:arg1="0.97403738"
     sodipodi:arg2="1.6023559"
     inkscape:flatsided="false"
     inkscape:rounded="0"
     inkscape:randomized="0"
     d="m 1102.6879,298.10839 -36.6883,-28.60607 -38.4196,26.23491 15.8687,-43.73237 -36.8232,-28.43217 46.4957,1.57799 15.6616,-43.80697 12.8672,44.70762 46.5026,1.35798 -38.5433,26.05284 z"
     inkscape:transform-center-x="0.030265128"
     inkscape:transform-center-y="-6.4698382"
     transform="matrix(1.0212956,-0.03519322,0.03377277,1.0642502,283.85357,451.2494)" />
  <path
     sodipodi:type="star"
     style="fill:#ffffff;fill-opacity:1;fill-rule:nonzero;stroke:#ffffff;stroke-width:3.90000010000000020;stroke-linecap:round;stroke-linejoin:miter;stroke-miterlimit:4;stroke-opacity:1;stroke-dasharray:none;stroke-dashoffset:0"
     id="path2987-1-9"
     sodipodi:sides="5"
     sodipodi:cx="1066.7657"
     sodipodi:cy="245.23427"
     sodipodi:r1="63.922386"
     sodipodi:r2="24.280138"
     sodipodi:arg1="0.97403738"
     sodipodi:arg2="1.6023559"
     inkscape:flatsided="false"
     inkscape:rounded="0"
     inkscape:randomized="0"
     d="m 1102.6879,298.10839 -36.6883,-28.60607 -38.4196,26.23491 15.8687,-43.73237 -36.8232,-28.43217 46.4957,1.57799 15.6616,-43.80697 12.8672,44.70762 46.5026,1.35798 -38.5433,26.05284 z"
     inkscape:transform-center-x="0.030265128"
     inkscape:transform-center-y="-6.4698382"
     transform="matrix(1.0212956,-0.03519322,0.03377277,1.0642502,7.3743688,451.2494)" />
  <path
     sodipodi:type="star"
     style="fill:#ffffff;fill-opacity:1;fill-rule:nonzero;stroke:#ffffff;stroke-width:3.90000010000000020;stroke-linecap:round;stroke-linejoin:miter;stroke-miterlimit:4;stroke-opacity:1;stroke-dasharray:none;stroke-dashoffset:0"
     id="path2987-1-48"
     sodipodi:sides="5"
     sodipodi:cx="1066.7657"
     sodipodi:cy="245.23427"
     sodipodi:r1="63.922386"
     sodipodi:r2="24.280138"
     sodipodi:arg1="0.97403738"
     sodipodi:arg2="1.6023559"
     inkscape:flatsided="false"
     inkscape:rounded="0"
     inkscape:randomized="0"
     d="m 1102.6879,298.10839 -36.6883,-28.60607 -38.4196,26.23491 15.8687,-43.73237 -36.8232,-28.43217 46.4957,1.57799 15.6616,-43.80697 12.8672,44.70762 46.5026,1.35798 -38.5433,26.05284 z"
     inkscape:transform-center-x="0.030265128"
     inkscape:transform-center-y="-6.4698382"
     transform="matrix(1.0212956,-0.03519322,0.03377277,1.0642502,-1.5052522,841.54923)" />
  <path
     sodipodi:type="star"
     style="fill:#ffffff;fill-opacity:1;fill-rule:nonzero;stroke:#ffffff;stroke-width:3.90000010000000020;stroke-linecap:round;stroke-linejoin:miter;stroke-miterlimit:4;stroke-opacity:1;stroke-dasharray:none;stroke-dashoffset:0"
     id="path2987-1-8"
     sodipodi:sides="5"
     sodipodi:cx="1066.7657"
     sodipodi:cy="245.23427"
     sodipodi:r1="63.922386"
     sodipodi:r2="24.280138"
     sodipodi:arg1="0.97403738"
     sodipodi:arg2="1.6023559"
     inkscape:flatsided="false"
     inkscape:rounded="0"
     inkscape:randomized="0"
     d="m 1102.6879,298.10839 -36.6883,-28.60607 -38.4196,26.23491 15.8687,-43.73237 -36.8232,-28.43217 46.4957,1.57799 15.6616,-43.80697 12.8672,44.70762 46.5026,1.35798 -38.5433,26.05284 z"
     inkscape:transform-center-x="0.030265128"
     inkscape:transform-center-y="-6.4698382"
     transform="matrix(1.0212956,-0.03519322,0.03377277,1.0642502,274.16671,841.54923)" />
  <path
     sodipodi:type="star"
     style="fill:#ffffff;fill-opacity:1;fill-rule:nonzero;stroke:#ffffff;stroke-width:3.90000010000000020;stroke-linecap:round;stroke-linejoin:miter;stroke-miterlimit:4;stroke-opacity:1;stroke-dasharray:none;stroke-dashoffset:0"
     id="path2987-1-2"
     sodipodi:sides="5"
     sodipodi:cx="1066.7657"
     sodipodi:cy="245.23427"
     sodipodi:r1="63.922386"
     sodipodi:r2="24.280138"
     sodipodi:arg1="0.97403738"
     sodipodi:arg2="1.6023559"
     inkscape:flatsided="false"
     inkscape:rounded="0"
     inkscape:randomized="0"
     d="m 1102.6879,298.10839 -36.6883,-28.60607 -38.4196,26.23491 15.8687,-43.73237 -36.8232,-28.43217 46.4957,1.57799 15.6616,-43.80697 12.8672,44.70762 46.5026,1.35798 -38.5433,26.05284 z"
     inkscape:transform-center-x="0.030265128"
     inkscape:transform-center-y="-6.4698382"
     transform="matrix(1.0212956,-0.03519322,0.03377277,1.0642502,559.52553,841.54923)" />
  <g
     id="g3131"
     transform="matrix(0.63157895,0,0,0.63157895,0.07438288,-0.69940883)">
    <rect
       id="rect3102"
       height="285"
       width="950"
       x="0"
       y="0"
       style="fill:#d21034" />
    <rect
       id="rect3104"
       height="285"
       width="950"
       y="285"
       x="0"
       style="fill:#009543" />
    <path
       id="path3106"
       d="M 0,0 552.8133,285 0,570 z"
       inkscape:connector-curvature="0"
       style="fill:#000000" />
    <rect
       id="rect3108"
       height="102"
       width="950"
       y="234"
       x="0"
       style="fill:#000000" />
    <path
       id="path3110"
       d="M 0,40.502 474.251,284.9995 0,529.497 z"
       inkscape:connector-curvature="0"
       style="fill:#fdce12" />
    <rect
       id="rect3112"
       height="30"
       width="950"
       y="270"
       x="0"
       style="fill:#fdce12" />
    <path
       id="path3114"
       d="M 0,74.25473 408.78173,285 0,495.745 z"
       inkscape:connector-curvature="0"
       style="fill:#000000" />
    <path
       id="path3116"
       d="m 115.481,339.524 c 0,0 0,20.595 0,32.476 28.253,0 83.7,-21.65 83.7,-91.356 C 199.181,210.938 140.037,198 122.346,198 104.656,198 50,210.674 50,267.706 c 0,57.032 53.6,62.313 64.161,62.313 10.561,0 50.167,-9.506 45.679,-52.28 0,12.146 -13.73,37.758 -42.511,37.758 -28.78,0 -46.734,-21.388 -46.734,-42.51 0,-21.124 17.426,-49.376 47.79,-49.376 30.364,0 52.543,26.931 52.543,54.128 0,27.196 -21.386,61.785 -55.447,61.785 z"
       inkscape:connector-curvature="0"
       style="fill:#fdce12" />
    <g
       id="frond"
       style="fill:#fdce12">
      <path
         id="path3119"
         d="m 90.728,297.245 1.683,1.089 c 0,0 13.367,-30.496 49.309,-52.18 -4.555,2.475 -28.615,14.456 -50.992,51.091 z"
         inkscape:connector-curvature="0"
         style="stroke:#fdce12" />
      <path
         id="path3121"
         d="m 94.193,291.997 c 0,0 -4.158,-8.515 -0.495,-12.277 3.664,-3.763 1.981,10 1.981,10 l 1.584,-2.277 c 0,0 -2.476,-10.397 0.297,-12.575 2.772,-2.178 1.386,10 1.386,10 l 1.683,-2.178 c 0,0 -1.782,-10.099 0.891,-11.981 2.674,-1.881 0.991,9.506 0.991,9.506 l 1.98,-2.278 c 0,0 -1.485,-9.604 1.782,-11.881 3.268,-2.278 0.396,9.109 0.396,9.109 l 2.178,-2.376 c 0,0 -0.99,-8.813 1.783,-10.793 2.772,-1.98 0.396,8.317 0.396,8.317 l 1.98,-2.079 c 0,0 -0.594,-8.218 2.079,-10.099 2.674,-1.882 0.198,7.822 0.198,7.822 l 2.08,-1.981 c 0,0 -0.495,-8.218 2.871,-9.802 3.366,-1.584 -0.594,7.723 -0.594,7.723 l 2.277,-1.98 c 0,0 0.693,-9.604 3.565,-10.496 2.871,-0.891 -1.287,8.516 -1.287,8.516 l 2.079,-1.684 c 0,0 1.089,-8.218 4.257,-9.208 3.169,-0.99 -1.98,7.525 -1.98,7.525 l 2.079,-1.584 c 0,0 2.278,-8.218 5.248,-9.109 2.971,-0.891 -3.069,7.723 -3.069,7.723 l 1.98,-1.386 c 0,0 3.267,-7.427 5.941,-7.922 2.673,-0.495 -2.971,6.139 -2.971,6.139 l 2.476,-1.485 c 0,0 4.257,-7.723 5.743,-5.347 1.485,2.377 -5.941,5.842 -5.941,5.842 l -2.476,1.386 c 0,0 9.011,-4.257 10.1,-2.079 1.089,2.178 -12.377,3.565 -12.377,3.565 l -2.178,1.485 c 0,0 9.01,-2.476 7.921,-0.198 -1.089,2.277 -10,1.782 -10,1.782 l -2.08,1.485 c 0,0 9.01,-2.178 7.822,-0.099 -1.188,2.079 -10,1.881 -10,1.881 l -2.178,1.783 c 0,0 8.812,-2.278 7.525,0.396 -1.288,2.673 -11.288,2.574 -11.288,2.574 l -2.475,2.277 c 0,0 9.307,-3.168 8.515,-0.693 -0.792,2.476 -11.387,3.763 -11.387,3.763 l -2.376,2.376 c 0,0 10,-3.366 7.03,-0.297 -2.97,3.07 -10.198,3.862 -10.198,3.862 l -2.872,3.465 c 0,0 9.902,-5.941 8.515,-2.574 -1.386,3.366 -11.089,5.644 -11.089,5.644 l -1.98,2.376 c 0,0 8.911,-5.149 8.02,-2.277 -0.891,2.871 -10.397,5.94 -10.397,5.94 l -1.584,2.179 c 0,0 10.495,-6.238 9.604,-3.07 -0.891,3.169 -10.891,5.446 -10.891,5.446 l -1.287,1.98 c 0,0 9.703,-5.544 9.802,-2.871 0.099,2.673 -11.387,5.347 -11.387,5.347 l -0.198,-2.278 z"
         inkscape:connector-curvature="0" />
    </g>
    <use
       id="use3123"
       transform="matrix(-1,0,0,1,238.5,0)"
       xlink:href="#frond"
       x="0"
       y="0"
       width="1"
       height="1" />
  </g>
  <path
     style="fill:#fdca32;fill-opacity:1"
     d="m 335.31921,603.14378 c 15.94931,-0.01 31.83461,0.6282 40.28131,1.9375 116.1138,17.998 204.1268,106.0111 222.125,222.125 2.6502,17.0979 2.6502,58.902 0,76 -17.828,115.01492 -104.6452,202.84892 -219.125,221.65622 -9.2293,1.5163 -18.1187,2.0543 -38.5,2.3126 -14.5751,0.1847 -28.3001,0.1568 -30.5,-0.063 -58.9262,-5.8768 -112.24991,-29.3623 -154.56261,-68.0624 -44.15,-40.3806 -73.185601,-95.14832 -82.593701,-155.84382 -2.6503,-17.098 -2.6503,-58.9021 0,-76 17.9915,-116.0722 106.628701,-204.6462 222.156311,-222.0625 8.7563,-1.3201 24.7694,-1.99 40.71869,-2 z m 4.4375,54.3437 c -5.60899,0.051 -9.1277,1.3734 -10.5,3.9376 -0.5511,1.0297 -1.563,6.5912 -2.25,12.3437 -0.73149,6.1261 -1.8815,11.1625 -2.75,12.1875 -2.0724,2.4458 -11.24519,2.4458 -13.375,0 -1.5319,-1.7593 -4.95969,-11.7326 -6.28119,-18.25 -0.9874,-4.8686 -4.15141,-7.9963 -7.93761,-7.9062 -1.6914,0.04 -5.9875,1.0526 -9.56239,2.25 l -6.5,2.1562 -0.5,14.125 c -0.3282,9.2563 -0.94841,14.6246 -1.78131,15.625 -0.6979,0.8382 -3.10649,1.8248 -5.375,2.1875 -3.3094,0.5292 -4.5003,0.2591 -5.9063,-1.25 -1.8739,-2.0114 -9.9157,-14.9499 -9.9687,-16.0313 -0.017,-0.3562 -1.13749,-1.8937 -2.46869,-3.4062 -2.8956,-3.2896 -8.52761,-3.708 -12.62501,-0.9688 -4.3217,2.8894 -9.875,8.0883 -9.875,9.25 0,2.2657 8.00759,17.7831 9.46869,18.3438 2.5323,0.9717 1.9197,7.2888 -1,10.4375 -3.49449,3.7687 -10.6032,3.8556 -13.875,0.1875 -1.2264,-1.375 -5.4149,-5.5375 -9.3125,-9.25 -5.87899,-5.6 -7.6689,-6.75 -10.4688,-6.75 -4.014,0 -6.5781,1.647 -10.7187,6.875 -3.0466,3.8467 -3.0686,3.9176 -1.4063,7.25 1.656,3.3195 5.5311,8.117 10.18761,12.5938 4.0671,3.9103 6.5839,10.4869 4.375,11.4687 -0.4125,0.1834 -1.6502,2.1125 -2.75,4.3125 -1.9336,3.867 -2.1992,4.0293 -7.53131,4.3125 -4.37019,0.232 -5.95339,-0.1301 -7.625,-1.6875 -1.1603,-1.0809 -4.8272,-3.3195 -8.1563,-5 -3.3289,-1.6806 -6.73529,-4.0376 -7.56239,-5.2188 -2.0913,-2.9854 -6.2189,-1.8381 -8.4376,2.3438 -0.9256,1.7447 -2.9192,4.4475 -4.4062,6 -4.0043,4.1803 -6.9824,8.6301 -6.4062,9.5625 0.279,0.4515 2.4347,1.8397 4.8124,3.0625 2.3777,1.2229 5.2218,3.5549 6.3126,5.1875 1.0904,1.6327 2.7237,3.2106 3.625,3.5 0.9011,0.2894 2.8136,1.6064 4.25,2.9375 3.3107,3.0684 3.503,8.4262 0.46869,12.6875 -1.9328,2.7144 -2.51749,2.9544 -6.24999,2.4375 -2.2647,-0.3136 -6.298,-0.8703 -9,-1.2188 -2.702,-0.3483 -6.302,-1.4645 -8,-2.5 -1.698,-1.0353 -4.5482,-1.875 -6.3125,-1.875 -2.722,0 -3.5943,0.6125 -5.6875,4.2188 -3.3545,5.7789 -6.5937,15.8717 -6.5937,20.4688 0,3.7658 0.026,3.7918 6.25,5.7187 4.7646,1.4753 7.3406,3.0772 10.9062,6.6875 5.2241,5.2896 5.273,5.728 1.1875,14.625 l -2.4063,5.25 -12.9687,0 -12.9687,0 0,10.75 c 0,5.9125 0.4898,12.4375 1.0624,14.5 l 1.0313,3.75 9.75,0 c 6.3283,0 10.2912,0.4396 11.2813,1.25 1.8402,1.5062 4.1188,8.9802 3.3437,11 -0.6475,1.6874 -17.1539,15.1314 -19.7187,16.0625 -2.5811,0.937 -5.75,6.7118 -5.75,10.5 0,1.822 0.9973,6.1878 2.2187,9.6875 2.5072,7.1838 4.5312,8.348 10.375,5.9062 1.8282,-0.7638 4.6773,-1.4062 6.3125,-1.4062 1.6352,0 3.2539,-0.45 3.5938,-1 0.3397,-0.55 2.5386,-1 4.9062,-1 5.7846,0 9.5938,3.6285 9.5938,9.125 0,3.2696 -0.51,4.1758 -3.5626,6.25 -6.4465,4.3807 -17.2816,15.5757 -17.9374,18.5625 -0.7734,3.5216 1.2941,8.4274 5.4062,12.8125 4.3317,4.6196 8.7746,4.4387 19.2188,-0.8125 7.4607,-3.7512 8.36619,-3.9829 11.25,-2.8437 7.11859,2.8116 10.47809,8.7611 8.34369,14.7812 -2.0688,5.8352 -6.95899,14.219 -10.46869,17.9688 -5.3183,5.6812 -4.3098,14.17212 2.125,17.96872 4.42959,2.6137 6.8447,1.8464 18.09369,-5.56252 6.54371,-4.3098 8.7367,-5.25 12.3125,-5.25 3.4809,0 4.9453,0.6015 7.2812,2.9375 1.6079,1.6077 2.93761,3.79022 2.93761,4.84372 0,2.2745 -4.2536,16.647 -7.03131,23.75 -1.07949,2.7609 -1.96869,5.3095 -1.96869,5.6563 0,1.3956 11.7682,11.8125 13.34369,11.8125 1.056,0 15.30291,-15.3381 16.65631,-17.9375 0.8249,-1.5844 2.81059,-3.6746 4.40619,-4.625 2.75861,-1.6429 3.05811,-1.6253 6.25,0.094 2.32222,1.2507 3.70942,2.9345 4.46882,5.4688 1.097,3.6622 0.68559,18.268 -0.68761,24.8438 -0.8995,4.308 0.7552,7.3394 5.4063,9.9374 4.5796,2.5582 12.25771,3.7925 14.90631,2.375 1.08719,-0.5818 2.5391,-2.5352 3.21869,-4.3437 2.34741,-6.2468 6.43351,-14.1416 8.8125,-16.9687 1.92231,-2.2848 3.2208,-2.8438 6.59381,-2.8438 2.3035,0 5.1702,0.6874 6.375,1.5312 2.971,2.0809 6.25,13.4718 6.25,21.6876 l 0,6.5 5.75,3.125 c 6.9457,3.7684 14.6042,4.3153 18.31239,1.3124 2.2758,-1.8426 2.64,-3.2492 4.43761,-17.6562 0.3431,-2.75 0.8101,-5.9845 1.06239,-7.2188 0.5744,-2.8085 6.57431,-5.472 11.4063,-5.0624 3.01111,0.2552 3.9815,1.045 7.0625,5.7812 3.8125,5.8607 5.96881,11.8816 5.96881,16.6875 0,2.3908 0.666,3.2586 3.53119,4.625 1.9437,0.9269 5.0854,1.6875 7,1.6875 2.93221,0 15.09811,-2.7218 16.34381,-3.6562 0.8791,-0.6595 0.072,-20.031 -0.93761,-22.4688 -0.8984,-2.1702 -0.6954,-3.4911 1.2188,-7.5 2.25411,-4.7209 2.44321,-4.8681 6.25,-4.5625 5.3896,0.4326 7.52481,2.1924 11.59381,9.5937 1.9249,3.502 4.94799,8.0119 6.71869,10 2.7043,3.0366 3.85371,3.5938 7.28131,3.5938 4.46759,0 8.507,-1.6845 11.28119,-4.75 1.59181,-1.7589 1.66491,-2.7049 0.6875,-8.375 -0.6044,-3.5062 -1.3377,-8.175 -1.6563,-10.375 -0.3182,-2.2 -0.9955,-4.8007 -1.5,-5.7812 -0.5915,-1.1504 -0.4732,-3.1021 0.3438,-5.5 4.17001,-12.2401 13.319,-15.0004 19.875,-6 4.29951,5.9024 8.22981,10.1364 11.8125,12.6874 3.9928,2.8433 5.5449,2.2548 12.6875,-4.6874 7.4999,-7.2896 8.017,-11.7191 2.2812,-18.9063 -1.6685,-2.0911 -4.3658,-6.42972 -6,-9.65632 -3.6077,-7.1239 -3.056,-9.281 4.0938,-15.9687 7.33551,-6.8615 8.44841,-7.2087 11.4375,-3.6563 1.8803,2.2347 3.38321,2.9688 5.90631,2.9688 2.444,0 4.1473,0.8379 6.21869,3 3.0144,3.1463 7.9282,4.6551 11.4687,3.5312 1.7507,-0.5555 4.1094,-4.1971 8.81261,-13.5624 0.14789,-0.295 -1.431,-2.3732 -3.5,-4.625 -2.0692,-2.252 -4.5463,-5.23 -5.5,-6.625 -0.9539,-1.3952 -3.4289,-3.0852 -5.5,-3.75 -4.5917,-1.4746 -6.71051,-3.2472 -8.18761,-6.8126 -1.7032,-4.1122 3.4034,-14.9402 8.2813,-17.5312 3.78401,-2.0099 3.95331,-1.9986 16.15631,1.375 4.4,1.2165 8.92549,2.4259 10.06239,2.6875 1.6877,0.3884 2.6515,-0.5937 5.25,-5.4687 4.4714,-8.3892 4.336,-12.6955 -0.56239,-17.4063 -4.319,-4.1534 -13.00641,-9.8125 -15.06261,-9.8125 -0.7698,0 -2.68379,-0.9251 -4.2812,-2.0625 -2.69799,-1.9212 -2.90619,-2.5301 -2.90619,-8.5937 0,-6.7655 1.8726,-11.6533 4.93739,-12.875 0.8543,-0.3406 5.3875,-1.0832 10.06261,-1.625 17.9355,-2.0793 16.7746,-1.7272 17.93739,-5.0626 1.3739,-3.9402 1.3582,-10.6081 -0.031,-14.5937 -0.8709,-2.4982 -1.9402,-3.3852 -5.25,-4.2813 -2.286,-0.6186 -5.46799,-1.5119 -7.0625,-2 -1.5946,-0.4876 -3.99809,-0.9062 -5.3437,-0.9062 -1.34549,0 -3.63389,-0.7989 -5.0938,-1.7812 -1.45989,-0.9825 -3.83849,-2.3704 -5.2812,-3.0938 -2.97209,-1.4899 -5.2411,-7.0822 -4.7188,-11.625 0.31461,-2.7368 0.8611,-3.0671 8.0625,-5.125 11.0941,-3.1703 17.44341,-6.884 18.7813,-10.9375 2.35441,-7.1344 -4.40909,-20.6 -9.4688,-18.8437 -1.1209,0.3888 -7.1327,0.9136 -13.3438,1.1562 -14.0648,0.5492 -16.1874,-0.4216 -16.1874,-7.2188 0,-3.4339 0.49201,-4.7593 2.2187,-5.9687 1.2224,-0.8562 2.7209,-1.5625 3.3437,-1.5625 0.623,0 3.1574,-1.9125 5.625,-4.25 2.4678,-2.3375 5.897,-5.42 7.625,-6.875 l 3.1563,-2.6562 -1.4687,-4.8438 c -2.05619,-6.8709 -4.556,-8.6439 -11.4688,-8.0625 -3.0483,0.2563 -8.84679,1.6571 -12.9062,3.0937 -4.0596,1.4368 -9.10649,2.5938 -11.1876,2.5938 -3.3869,0 -4.1678,-0.5034 -7.4687,-5 -2.9367,-4.0009 -3.5583,-5.5787 -3.0313,-7.75 0.3767,-1.5502 4.8053,-6.9172 10.25,-12.4062 l 9.5626,-9.625 -2.3126,-3.375 c -1.2858,-1.8401 -2.60959,-3.5688 -2.9374,-3.8438 -0.32799,-0.275 -1.61819,-1.9508 -2.875,-3.75 -1.25689,-1.7993 -3.878,-3.9417 -5.8126,-4.75 -3.1958,-1.3354 -4.0776,-1.2801 -9.5,0.5 -3.2818,1.0774 -7.3746,3.147 -9.125,4.625 -3.4915,2.9482 -12.2892,7.36 -14.7187,7.375 -0.84499,0.01 -3.5136,-1.7107 -5.9063,-3.8125 l -4.3437,-3.8125 1.25,-3.9375 c 1.3288,-4.1732 5.9105,-12.0697 9.7187,-16.75 3.4896,-4.2885 3.0987,-9.0889 -1.0937,-13.2813 -2.62219,-2.6221 -4.2217,-3.4062 -7.0313,-3.4062 -3.8669,0 -7.6215,2.95 -18.8437,14.75 -6.1117,6.4264 -9.71529,7.4246 -15.9375,4.4062 -5.5782,-2.7057 -7.16719,-5.2479 -5.9062,-9.4374 0.52841,-1.7563 1.86941,-7.2255 3,-12.1563 l 2.0624,-8.9687 -2.2187,-2.4063 c -5.2531,-5.6258 -12.2215,-6.7787 -16.2813,-2.7187 -1.3498,1.3498 -2.4567,3.2624 -2.4687,4.25 -0.012,0.9874 -0.8934,2.9062 -1.9687,4.2812 -1.07549,1.375 -1.9881,3.6411 -2,5.0312 -0.029,3.2929 -2.17299,6.3212 -6.4063,8.9376 -4.3447,2.685 -10.43899,1.936 -14.0937,-1.7188 -2.32709,-2.3271 -2.5,-3.2137 -2.5,-12 0,-7.8308 -0.3883,-10.1357 -2.1563,-13.2812 -2.09569,-3.7291 -2.2757,-3.8026 -8.6563,-4.125 -0.8854,-0.045 -1.7299,-0.07 -2.5312,-0.063 z m -133.7812,99.2188 c 3.866,0 3.9312,0.086 8,7.9062 2.4883,4.7832 4.125,9.2603 4.125,11.3438 0,4.2447 1.6277,5.7842 9.84369,9.2188 8.14601,3.4049 12.17881,3.1164 13.9375,-0.9688 0.7104,-1.65 1.9265,-4.125 2.71881,-5.5 0.7921,-1.375 2.3197,-4.316 3.375,-6.5625 3.4039,-7.2466 12.48661,-8.5134 18.4374,-2.5625 2.8889,2.8888 2.91941,2.9788 1.68761,8.2812 -0.685,2.9483 -1.7077,6.6938 -2.25,8.3438 -2.426,7.3814 -2.5442,10.4632 -0.56261,14.4688 2.614,5.2828 8.3292,7.4101 14.31261,5.375 2.1999,-0.7484 4.6749,-2.1558 5.5,-3.125 0.8251,-0.9694 3.1221,-2.7026 5.125,-3.875 l 3.65619,-2.125 3.75,2.25 c 4.59251,2.7716 7.3815,7.6623 7.4375,13.125 0.038,3.732 -0.29219,4.2604 -3.6875,6 -4.7889,2.4535 -9.99089,7.4142 -12.28119,11.6874 -1.3725,2.5607 -1.6189,4.2843 -1.03131,7.2813 1.614,8.2316 3.34381,10.4375 8.15631,10.4375 1.0769,0 3.80879,0.9441 6.06239,2.0938 2.2538,1.1495 5.111,1.8978 6.375,1.6562 2.7508,-0.5258 3.41581,-0.12 5.7813,3.5938 1.4689,2.306 1.70421,3.9668 1.15631,8.6874 -0.9622,8.2896 -2.23431,9.149 -14.21881,9.5938 -14.1122,0.5238 -14.0037,0.4709 -17.375,7.9062 -4.2779,9.4347 -3.9944,10.8877 3.25,17.7813 7.0351,6.6945 7.5668,8.7382 4.1875,15.75 -1.6333,3.3891 -3.1931,5.0217 -6.125,6.3437 -3.7617,1.6967 -4.12269,1.7249 -7.34369,0.063 -1.85931,-0.9595 -5.9291,-4.377 -9.03131,-7.5938 -7.3681,-7.6402 -9.4886,-7.7521 -16.0625,-0.75 -4.5955,4.8948 -4.78871,5.3549 -4.71881,10.75 0.045,3.4673 0.7588,6.7795 1.84381,8.625 1.69661,2.8857 1.70131,3.1334 -0.15619,6.5 -1.06232,1.925 -2.28782,3.8883 -2.71882,4.3438 -1.12579,1.1893 -7.10039,2.2799 -10.03119,1.8437 -3.5919,-0.5345 -5.54321,-2.6089 -6.90631,-7.4375 -0.6574,-2.3286 -1.7912,-5.8251 -2.5313,-7.75 -1.5243,-3.9652 -4.8201,-11.9705 -4.9687,-12.0625 -0.054,-0.034 -2.85469,-0.2724 -6.21869,-0.5625 -8.54171,-0.7367 -13.4678,1.7582 -15.375,7.8125 -0.7491,2.3781 -1.9388,5.0175 -2.65631,5.875 -0.7175,0.8575 -2.3676,3.5575 -3.6563,6 -2.4335,4.6131 -4.6142,5.6714 -9.2812,4.5 -3.09229,-0.7761 -7.625,-7.9108 -7.625,-12.0313 0,-3.1662 5.22511,-14.7871 7.1875,-16 1.87061,-1.1559 1.0777,-2.2437 -6.5313,-8.9062 -8.09829,-7.0912 -12.36669,-8.5022 -14.37499,-4.75 -1.2154,2.2711 -12.7036,8.125 -15.9374,8.125 -3.1007,0 -7.2466,-4.6336 -9.25,-10.3438 -1.6191,-4.6144 -1.6169,-4.6241 1,-7.25 1.4427,-1.4474 5.2594,-4.6933 8.4687,-7.2187 5.7407,-4.5174 8.6563,-8.4795 8.6563,-11.7187 0,-0.9046 -0.9255,-4.6941 -2.0626,-8.4376 -2.413,-7.9445 -2.4669,-7.98 -15.2187,-8 -7.4148,-0.012 -8.8932,-0.3036 -9.5,-1.7812 -0.9935,-2.4195 -0.9238,-14.8851 0.094,-15.9062 0.4568,-0.4584 6.4186,-0.974 13.25,-1.1563 12.3858,-0.3307 12.4517,-0.3479 13.0938,-2.9063 0.3542,-1.4112 1.9056,-5.0747 3.4688,-8.1562 1.563,-3.0815 2.8337,-6.7958 2.8437,-8.25 0.018,-3.8294 -10.053,-14.5116 -15.125,-16.0312 -4.6824,-1.4031 -4.986,-3.6928 -1.5937,-11.5626 1.8598,-4.315 2.7765,-5.3284 5.25,-5.7812 3.748,-0.6861 10.4041,1.8981 16.8124,6.5312 9.44939,6.8318 14.44999,6.677 23.4376,-0.6874 l 4.4374,-3.625 -0.6874,-5.5938 c -0.382,-3.082 -1.3304,-7.425 -2.0938,-9.625 -2.35351,-6.7825 -1.9537,-7.9907 3.5625,-10.875 2.8916,-1.5119 6.6386,-2.625 8.9063,-2.625 z m 17.25,59.0938 c -1.25971,0.01 -2.7126,0.075 -4.43761,0.1874 -10.2727,0.6724 -15.5091,2.9218 -22.8437,9.875 -6.5987,6.2558 -8.6797,11.2859 -9.75,23.3438 -0.7417,8.3544 -0.2311,10.9429 3.875,19.3125 3.0814,6.2809 13.56191,16.1849 18.53131,17.5313 1.0999,0.3019 5.84319,0.4444 10.56239,0.3124 6.9512,-0.1943 9.6458,-0.7452 14.06261,-2.9062 7.1043,-3.4758 14.4683,-10.8597 17.75001,-17.75 2.2844,-4.797 2.625,-6.7783 2.625,-15.5 0,-8.7218 -0.3406,-10.7031 -2.625,-15.5 -3.64231,-7.6478 -10.68861,-14.2852 -18.03132,-17.0312 -3.7483,-1.4019 -5.94009,-1.9024 -9.71869,-1.875 z"
     id="path3935"
     inkscape:connector-curvature="0"
     sodipodi:nodetypes="sssssssssssscccsccccccccccccsccccsscccccccccccccccscccccscscccccccsscscscscsscccscsccsscscsscccccccscscscccsccsscsccccccssscccccsccssscccscccsccccscscccsccscccscccsssccccccsccccccscssccccccssccccccccccsscccscsccccccsccccccccccscscsssscccssccccccccccsccscccsccssccccccccccsscccscsccccsccccsccc" />
</svg>
