<svg version="1.1" xmlns="http://www.w3.org/2000/svg" xmlns:xlink="http://www.w3.org/1999/xlink" width="1832" height="1312" viewBox="0 0 1832 1312">
<path id="rect3767" d="M-1.000,-0.000 L1832.000,-0.000 L1832.000,-0.000 L1832.000,1312.000 L1832.000,1312.000 L-1.000,1312.000 L-1.000,1312.000 L-1.000,-0.000 L-1.000,-0.000 z" fill="#2A5EB2" />
<path id="rect3769" d="M-0.000,0.000 L504.213,0.000 L504.213,512.130 L-0.000,512.130 L-0.000,0.000 z" fill="#009E60" />
<path id="Rectángulo-1" d="M-1.000,501.000 L1832.000,501.000 L1832.000,501.000 L1832.000,578.500 L1832.000,578.500 L-1.000,578.500 L-1.000,578.500 L-1.000,501.000 L-1.000,501.000 z" fill="#F7EF18" />
<path id="Rectángulo-1-cop" d="M-1.000,733.500 L1832.000,733.500 L1832.000,733.500 L1832.000,811.000 L1832.000,811.000 L-1.000,811.000 L-1.000,811.000 L-1.000,733.500 L-1.000,733.500 z" fill="#F7EF18" />
<path id="Rectángulo-1-cop" d="M-1.000,579.000 L1832.000,579.000 L1832.000,579.000 L1832.000,734.000 L1832.000,734.000 L-1.000,734.000 L-1.000,734.000 L-1.000,579.000 L-1.000,579.000 z" fill="#CC3200" />
<g id="Stars">
<path id="path3771" d="M777.940,344.720 L715.222,298.403 L652.942,345.330 L676.678,270.080 L613.747,224.067 L691.134,223.877 L714.521,148.513 L738.613,223.645 L815.998,223.080 L753.500,269.705 L777.940,344.720 z" fill="#F7EF18" />
<path id="path3771-1" d="M1078.566,1042.526 L1017.230,997.230 L956.320,1043.123 L979.534,969.530 L917.989,924.531 L993.672,924.344 L1016.544,850.639 L1040.105,924.117 L1115.787,923.565 L1054.665,969.163 L1078.566,1042.526 z" fill="#F7EF18" />
<path id="path3771-7" d="M1543.402,943.392 L1501.876,913.672 L1460.639,943.784 L1476.355,895.498 L1434.687,865.972 L1485.927,865.850 L1501.412,817.490 L1517.363,865.701 L1568.601,865.338 L1527.220,895.257 L1543.402,943.392 z" fill="#F7EF18" />
<path id="path3771-7-4" d="M1346.969,1229.218 L1307.908,1201.262 L1269.118,1229.587 L1283.902,1184.166 L1244.707,1156.393 L1292.905,1156.278 L1307.471,1110.789 L1322.476,1156.138 L1370.673,1155.797 L1331.748,1183.940 L1346.969,1229.218 z" fill="#F7EF18" />
<path id="path3771-7-4-cop" d="M1321.759,731.528 L1272.300,696.234 L1223.184,731.993 L1241.903,674.651 L1192.275,639.588 L1253.303,639.442 L1271.747,582.013 L1290.746,639.266 L1351.772,638.835 L1302.486,674.365 L1321.759,731.528 z" fill="#F7EF18" />
</g>
<g id="Cross">
<g id="path3846" >
<path id="path3846-fill" d="M297.454,357.414 C294.110,361.142 289.405,365.899 286.999,367.986 C282.624,371.780 282.624,371.780 282.624,371.780 L282.624,298.966 L282.624,226.152 L314.446,226.152 L345.771,226.539 C345.771,226.539 345.783,233.464 345.783,233.464 C345.873,284.442 326.551,324.985 297.454,357.414 zM216.326,365.927 C216.326,365.927 216.326,365.927 216.326,365.927 C198.900,348.502 183.292,323.463 171.439,293.923 C164.035,275.471 162.160,266.104 158.837,230.967 C158.870,225.733 158.870,225.733 158.870,225.733 L191.610,226.152 L224.839,226.152 C224.839,226.152 224.839,299.987 224.839,299.987 C224.839,340.596 224.700,373.822 224.530,373.822 C224.360,373.822 220.668,370.269 216.326,365.927 z" fill="#000000" />
<path id="path3846-stroke" d="M297.454,357.414 C294.110,361.142 289.405,365.899 286.999,367.986 C282.624,371.780 282.624,371.780 282.624,371.780 L282.624,298.966 L282.624,226.152 L314.446,226.152 L345.771,226.539 C345.771,226.539 345.783,233.464 345.783,233.464 C345.873,284.442 326.551,324.985 297.454,357.414 zM216.326,365.927 C216.326,365.927 216.326,365.927 216.326,365.927 C198.900,348.502 183.292,323.463 171.439,293.923 C164.035,275.471 162.160,266.104 158.837,230.967 C158.870,225.733 158.870,225.733 158.870,225.733 L191.610,226.152 L224.839,226.152 C224.839,226.152 224.839,299.987 224.839,299.987 C224.839,340.596 224.700,373.822 224.530,373.822 C224.360,373.822 220.668,370.269 216.326,365.927 z" fill="none" stroke="#000000" stroke-width="2.79999995" />
</g>
<path id="path3816" d="M346.005,225.927 C344.727,269.476 334.370,302.741 319.058,328.837 C305.795,351.776 283.268,377.186 253.495,391.493 C233.247,383.336 196.976,362.119 168.527,287.806 C161.710,270.001 159.833,248.860 158.214,226.400 C157.214,226.462 157.214,226.462 157.214,226.462 C158.833,248.932 160.700,270.185 167.589,288.180 C196.211,362.945 232.957,384.356 253.339,392.524 C253.558,392.586 253.558,392.586 253.558,392.586 C253.558,392.586 253.745,392.492 253.745,392.492 C283.853,378.087 306.556,352.471 319.933,329.336 C335.333,303.089 345.722,269.626 347.005,225.926 C346.005,225.926 346.005,225.926 346.005,225.926 C346.005,225.926 346.005,225.927 346.005,225.927 z" fill="#000000" />
<path id="path3838" d="M225.229,298.366 L225.229,225.957 L191.365,225.957 L157.500,225.957 L157.500,202.004 L157.500,178.051 L191.365,178.051 L225.229,178.051 L225.229,149.143 L225.229,120.234 L253.587,120.234 L281.945,120.234 L281.945,149.143 L281.945,178.051 L314.432,178.051 L346.920,178.051 L346.920,202.004 L346.920,225.957 L314.432,225.957 L281.945,225.957 L281.945,298.366 C281.945,298.366 281.945,370.774 281.945,370.774 C281.984,371.967 281.973,372.783 281.928,373.185 C281.884,373.581 281.653,373.087 281.708,373.533 C281.731,373.714 281.521,373.624 281.138,374.017 C279.395,375.810 274.076,379.456 270.949,381.785 C266.130,385.375 260.232,388.843 253.330,392.186 C247.852,390.162 244.120,387.469 240.605,385.543 C238.814,384.561 237.177,383.307 235.382,382.549 C233.409,381.717 231.764,380.350 230.342,379.077 C229.381,378.216 228.588,377.293 227.730,376.818 C227.226,376.539 226.865,376.319 226.398,375.883 C226.193,375.693 225.968,375.461 225.702,375.165 C225.531,374.975 225.358,375.454 225.296,374.796 C225.244,374.236 225.232,373.077 225.229,370.774 C225.229,298.366 225.229,298.366 225.229,298.366 z" fill="#F5E617" />
</g>
</svg>
